<svg data-name="Layer 1" xmlns="http://www.w3.org/2000/svg" viewBox="0 0 375 50"><path d="M84.308 1H16.574C7.987 1 1 7.966 1 16.528v16.944C1 42.034 7.987 49 16.574 49h67.737c8.587 0 15.574-6.966 15.574-15.528V16.528h-.003C99.882 7.966 92.895 1 84.308 1Zm10.835 15.528v16.944c0 5.957-4.86 10.803-10.835 10.803H16.574c-5.975 0-10.835-4.846-10.835-10.803V16.528c0-5.957 4.86-10.803 10.835-10.803h67.737c5.975 0 10.835 4.846 10.835 10.803h-.003Zm-11.435-3.432H78.31L68.14 28.063v3.932h10.825v4.897h4.738v-4.897h2.664v-4.139h-2.66v-14.76Zm-4.742 14.76h-6.157l6.157-8.966v8.966ZM291.78 9.498h4.598v27.394h-4.598V9.498ZM58.519 32.539h9.305v4.346H51.151v-3.588l2.421-2.05a98.544 98.544 0 0 0 1.833-1.586c.53-.471 1.003-.9 1.418-1.292.415-.392.83-.793 1.245-1.207.968-.965 1.763-1.828 2.386-2.585.622-.761 1.092-1.471 1.402-2.14.31-.665.466-1.356.466-2.07 0-1.057-.294-1.89-.882-2.499-.587-.608-1.366-.914-2.264-.914s-1.667.29-2.299.863c-.632.576-1.066 1.36-1.296 2.347l-4.669-.793c.278-1.382.814-2.576 1.61-3.588a8.232 8.232 0 0 1 2.957-2.363c1.175-.56 2.465-.843 3.873-.843 1.178 0 2.255.194 3.235.585.98.392 1.826.93 2.542 1.62a7.455 7.455 0 0 1 1.676 2.45c.406.942.607 1.964.607 3.069a7.838 7.838 0 0 1-.552 2.932c-.37.92-.952 1.875-1.747 2.862-.799.99-1.817 2.092-3.063 3.311a54.36 54.36 0 0 1-1.711 1.57l-.003-.006a122.48 122.48 0 0 1-1.817 1.57Zm314.49-9.618a9.287 9.287 0 0 0-1.916-3.171 8.67 8.67 0 0 0-2.944-2.063c-1.124-.478-2.38-.723-3.737-.723s-2.634.264-3.793.78a9.209 9.209 0 0 0-3.034 2.171 10.25 10.25 0 0 0-2.005 3.238c-.483 1.226-.725 2.535-.725 4.028s.242 2.878.721 4.117a9.524 9.524 0 0 0 2.063 3.244 9.52 9.52 0 0 0 3.143 2.133c1.197.506 2.525.761 3.953.761 1.252 0 2.459-.2 3.58-.592a8.968 8.968 0 0 0 2.979-1.726 7.63 7.63 0 0 0 1.96-2.665l.087-.197-4.036-1.554-.093.144c-1.086 1.716-2.552 2.55-4.48 2.55-.955 0-1.801-.21-2.517-.624-.718-.414-1.309-1.019-1.762-1.793-.425-.726-.706-1.588-.837-2.572h14.05l.01-.003v-1.44c0-1.47-.223-2.83-.667-4.043Zm-13.265 2.098a6.268 6.268 0 0 1 .868-2.146 4.867 4.867 0 0 1 1.622-1.566c.633-.366 1.386-.551 2.169-.551.782 0 1.5.185 2.133.55a4.3 4.3 0 0 1 1.542 1.558c.361.617.62 1.34.77 2.155h-9.104Zm-233.798 4.082.003.003c0 1.21-.233 2.34-.69 3.365a7.537 7.537 0 0 1-1.963 2.646 9.375 9.375 0 0 1-2.957 1.707c-1.121.404-2.364.611-3.689.611-1.475 0-2.867-.267-4.135-.796-1.271-.528-2.366-1.283-3.254-2.245-.891-.961-1.533-2.126-1.903-3.457l-.058-.207 4.573-1.111.06.178c.371 1.066.971 1.897 1.78 2.474.807.576 1.807.869 2.97.869.836 0 1.586-.162 2.234-.487a3.975 3.975 0 0 0 1.54-1.312 3.245 3.245 0 0 0 .565-1.878c0-.866-.307-1.57-.933-2.153-.635-.589-1.663-1.04-3.05-1.346l-1.344-.29c-2.599-.564-4.55-1.51-5.799-2.815-1.258-1.315-1.893-2.935-1.893-4.82 0-1.137.226-2.197.673-3.152a7.706 7.706 0 0 1 1.869-2.496 8.505 8.505 0 0 1 2.794-1.637c1.06-.382 2.222-.573 3.452-.573 1.405 0 2.717.261 3.902.78a8.704 8.704 0 0 1 3.056 2.21c.843.952 1.443 2.095 1.791 3.403l.055.204-4.535 1.111-.064-.175c-.373-1.044-.935-1.853-1.676-2.407-.735-.55-1.626-.828-2.641-.828-.738 0-1.399.147-1.96.43a3.537 3.537 0 0 0-1.342 1.165 2.885 2.885 0 0 0-.492 1.643c0 .885.32 1.567.977 2.086.674.535 1.738.97 3.155 1.302l1.345.29c5.033 1.13 7.584 3.725 7.584 7.708ZM21.888 32.539h9.305v4.346H14.521v-3.588l2.42-2.05a98.369 98.369 0 0 0 1.833-1.586c.53-.471 1.003-.9 1.418-1.292.415-.392.83-.793 1.245-1.207.968-.965 1.763-1.828 2.386-2.585.623-.761 1.092-1.471 1.402-2.14.31-.665.466-1.356.466-2.07 0-1.057-.294-1.89-.881-2.499-.588-.608-1.367-.914-2.264-.914-.898 0-1.667.29-2.3.863-.632.576-1.066 1.36-1.296 2.347l-4.669-.793c.278-1.382.814-2.576 1.61-3.588a8.232 8.232 0 0 1 2.957-2.363c1.175-.56 2.465-.843 3.873-.843 1.178 0 2.255.194 3.235.585.98.392 1.827.93 2.542 1.62a7.455 7.455 0 0 1 1.676 2.45c.406.942.607 1.964.607 3.069a7.838 7.838 0 0 1-.552 2.932c-.37.92-.952 1.875-1.747 2.862-.798.99-1.817 2.092-3.063 3.311a54.291 54.291 0 0 1-1.711 1.57l-.003-.006a122.48 122.48 0 0 1-1.817 1.57Zm26.204-16.616c-.795-1.08-1.753-1.907-2.87-2.484-1.118-.576-2.357-.862-3.788-.862s-2.714.29-3.857.862c-1.144.577-2.111 1.404-2.906 2.484-.795 1.082-1.405 2.39-1.833 3.932-.425 1.54-.639 3.267-.639 5.174s.208 3.62.623 5.138c.415 1.52 1.022 2.818 1.817 3.897.795 1.083 1.753 1.91 2.87 2.484 1.118.576 2.357.863 3.788.863s2.714-.29 3.857-.863c1.144-.576 2.111-1.404 2.906-2.484.795-1.079 1.405-2.39 1.833-3.932.425-1.54.639-3.266.639-5.173s-.208-3.62-.623-5.14c-.415-1.518-1.022-2.814-1.817-3.896Zm-3.627 14.916c-.725 1.366-1.757 2.05-3.095 2.05s-2.37-.68-3.094-2.05c-.725-1.369-1.089-3.317-1.089-5.845s.36-4.477 1.089-5.846c.725-1.369 1.76-2.054 3.094-2.054s2.37.685 3.095 2.054c.725 1.37 1.089 3.318 1.089 5.846s-.361 4.476-1.09 5.845Zm307.35-3.693c1.079 1.028 1.628 2.324 1.628 3.85 0 .92-.191 1.785-.565 2.572a6.215 6.215 0 0 1-1.6 2.063 7.247 7.247 0 0 1-2.433 1.344c-.926.308-1.958.464-3.066.464-1.255 0-2.436-.213-3.512-.63a7.707 7.707 0 0 1-2.766-1.808 6.771 6.771 0 0 1-1.632-2.786l-.064-.207 4.17-1.08.068.172c.297.777.782 1.388 1.447 1.821.667.437 1.43.656 2.324.656s1.639-.213 2.204-.63c.555-.41.824-.92.824-1.557 0-.544-.214-.993-.655-1.366-.457-.382-1.217-.675-2.267-.86l-1.201-.216c-2.066-.366-3.65-1.044-4.704-2.009-1.07-.977-1.612-2.251-1.612-3.78 0-1.222.319-2.31.945-3.234.626-.923 1.497-1.653 2.593-2.175 1.089-.519 2.353-.783 3.762-.783 1.21 0 2.337.213 3.353.634a7.113 7.113 0 0 1 2.583 1.792c.7.77 1.204 1.688 1.5 2.729l.062.207-4.136 1-.064-.172c-.274-.73-.709-1.315-1.29-1.736-.581-.417-1.245-.63-2.044-.63s-1.465.2-1.983.592c-.507.385-.753.86-.753 1.449 0 .49.217.885.66 1.21.47.344 1.29.624 2.444.834l1.2.216v.007c1.97.344 3.513 1.031 4.58 2.047Zm-87.731-.888a8.451 8.451 0 0 0 2.353-1.723 8.158 8.158 0 0 0 1.642-2.512c.386-.93.58-1.939.58-3 0-1.7-.414-3.19-1.235-4.428-.817-1.238-2.005-2.203-3.525-2.869-1.51-.662-3.331-.996-5.413-.996h-7.993v26.165h4.78v-9.504a19.68 19.68 0 0 0 2.74.22c.345 0 .68-.007 1.01-.02.27-.009.526-.025.763-.044l4.978 9.345h5.39l-6.067-10.634h-.003Zm-1.757-4.025c-.951.742-2.315 1.118-4.055 1.118a24.9 24.9 0 0 1-1.606-.054c-.475-.032-.94-.086-1.386-.166V14.99h3.139c1.69 0 3.014.376 3.944 1.114.926.739 1.376 1.745 1.376 3.066s-.463 2.325-1.412 3.063Zm54.524.688a9.288 9.288 0 0 0-1.916-3.171 8.671 8.671 0 0 0-2.945-2.063c-1.124-.478-2.379-.723-3.736-.723s-2.634.264-3.793.78a9.209 9.209 0 0 0-3.034 2.171c-.85.92-1.527 2.01-2.006 3.238-.482 1.226-.725 2.535-.725 4.028s.243 2.878.722 4.117a9.495 9.495 0 0 0 2.063 3.244 9.487 9.487 0 0 0 3.142 2.133c1.198.506 2.526.761 3.954.761 1.251 0 2.459-.2 3.58-.592a8.97 8.97 0 0 0 2.979-1.726 7.67 7.67 0 0 0 1.96-2.665l.087-.197-4.037-1.554-.092.144c-1.086 1.716-2.552 2.55-4.48 2.55-.955 0-1.802-.21-2.517-.624-.718-.414-1.31-1.019-1.763-1.793-.424-.726-.705-1.588-.836-2.572h14.05v-1.44c0-1.47-.223-2.83-.667-4.043l.01-.003Zm-13.265 2.098a6.269 6.269 0 0 1 .868-2.146h-.003a4.867 4.867 0 0 1 1.622-1.566c.632-.366 1.386-.551 2.168-.551.783 0 1.501.185 2.134.55s1.152.892 1.545 1.558c.361.617.62 1.34.77 2.155h-9.105Zm-14.814-2.098a9.287 9.287 0 0 0-1.916-3.171 8.672 8.672 0 0 0-2.945-2.063c-1.124-.478-2.379-.723-3.736-.723s-2.634.264-3.794.78a9.209 9.209 0 0 0-3.033 2.171 10.25 10.25 0 0 0-2.006 3.238c-.482 1.226-.725 2.535-.725 4.028s.243 2.878.722 4.117a9.524 9.524 0 0 0 2.063 3.244 9.486 9.486 0 0 0 3.142 2.133c1.198.506 2.526.761 3.954.761 1.251 0 2.458-.2 3.58-.592a8.97 8.97 0 0 0 2.979-1.726 7.63 7.63 0 0 0 1.96-2.665l.087-.197-4.037-1.554-.092.144c-1.086 1.716-2.552 2.55-4.48 2.55-.955 0-1.802-.21-2.517-.624-.718-.414-1.31-1.019-1.763-1.793-.424-.726-.705-1.588-.836-2.572h14.05v-1.44c0-1.47-.223-2.83-.667-4.043l.01-.003Zm-13.266 2.098a6.269 6.269 0 0 1 .869-2.146 4.867 4.867 0 0 1 1.622-1.566c.633-.366 1.386-.551 2.169-.551s1.5.185 2.133.55a4.3 4.3 0 0 1 1.542 1.558c.36.617.62 1.34.77 2.155h-9.105Zm-32.556-7.412.138.064-.521 4.47-.246-.09a3.93 3.93 0 0 0-.792-.187 6.862 6.862 0 0 0-.846-.054c-1.383 0-2.481.465-3.26 1.378-.79.924-1.188 2.232-1.188 3.891v9.816h-4.599v-19.38h4.222l.15 2.563a5.908 5.908 0 0 1 1.737-1.891c.891-.615 1.954-.927 3.155-.927.367 0 .735.022 1.083.073l.003.003c.358.051.68.144.964.271Zm92.227 4.21a7.613 7.613 0 0 0-1.683-2.573 7.628 7.628 0 0 0-2.599-1.678c-1.003-.395-2.124-.596-3.33-.596-1.284 0-2.491.226-3.59.669a8.322 8.322 0 0 0-2.836 1.86 6.425 6.425 0 0 0-1.635 2.846l-.057.207 4.237.958.068-.162c.319-.78.82-1.395 1.484-1.828a4.042 4.042 0 0 1 2.252-.656c.779 0 1.453.172 1.999.513.546.34.974.818 1.27 1.42.298.611.45 1.33.45 2.14v.89a12.105 12.105 0 0 0-1.97-.57 12.51 12.51 0 0 0-2.477-.238c-1.575 0-2.973.264-4.158.78-1.191.52-2.133 1.258-2.794 2.19-.665.937-1.003 2.045-1.003 3.293 0 .898.179 1.732.53 2.48a5.893 5.893 0 0 0 1.469 1.955c.62.548 1.36.974 2.194 1.273.83.3 1.753.45 2.743.45 1.386 0 2.618-.29 3.663-.86.836-.459 1.513-1.041 2.021-1.742l.121 2.057h4.222V25.118c0-1.204-.201-2.315-.597-3.305l.006.003Zm-3.975 7.653c0 .806-.198 1.532-.588 2.159a4.264 4.264 0 0 1-1.597 1.506c-.667.366-1.44.554-2.299.554-.67 0-1.258-.115-1.75-.344-.482-.223-.865-.535-1.133-.927a2.275 2.275 0 0 1-.4-1.315c0-.83.345-1.474 1.057-1.97.725-.507 1.709-.761 2.92-.761.682 0 1.36.076 2.008.229l-.004.003c.607.143 1.208.334 1.786.57v.296Zm-123.52-8.555c.582 1.245.876 2.745.876 4.457v11.523h-4.599V25.844c0-1.513-.328-2.69-.973-3.496-.642-.802-1.508-1.191-2.638-1.191-.783 0-1.485.191-2.092.567a4.076 4.076 0 0 0-1.453 1.589c-.357.678-.54 1.458-.54 2.314v11.268h-4.598V25.844c0-1.513-.329-2.69-.974-3.496-.642-.802-1.507-1.191-2.638-1.191-.782 0-1.484.191-2.091.567a4.054 4.054 0 0 0-1.453 1.589c-.358.678-.54 1.458-.54 2.314v11.268h-4.598v-19.38h4.221l.122 2.107a6.416 6.416 0 0 1 2.015-1.792c.996-.573 2.146-.863 3.413-.863 1.367 0 2.593.347 3.64 1.032a6.783 6.783 0 0 1 2.252 2.46 6.568 6.568 0 0 1 1.332-1.661c.635-.57 1.389-1.025 2.248-1.347s1.795-.484 2.784-.484c1.437 0 2.712.344 3.785 1.028l.006.004c1.07.684 1.91 1.665 2.494 2.916Zm20.873 2.006a9.287 9.287 0 0 0-1.916-3.171 8.672 8.672 0 0 0-2.945-2.063c-1.124-.478-2.379-.723-3.736-.723s-2.634.264-3.794.78a9.209 9.209 0 0 0-3.033 2.171 10.25 10.25 0 0 0-2.006 3.238c-.482 1.226-.725 2.535-.725 4.028s.243 2.878.722 4.117a9.524 9.524 0 0 0 2.063 3.244 9.52 9.52 0 0 0 3.142 2.133c1.198.506 2.526.761 3.954.761 1.251 0 2.459-.2 3.58-.592a8.968 8.968 0 0 0 2.979-1.726 7.63 7.63 0 0 0 1.96-2.665l.087-.197-4.037-1.554-.092.144c-1.086 1.716-2.552 2.55-4.48 2.55-.955 0-1.802-.21-2.517-.624-.718-.414-1.31-1.019-1.763-1.793-.424-.726-.705-1.588-.836-2.572h14.05v-1.44c0-1.47-.223-2.83-.667-4.043l.01-.003Zm-13.269 2.098a6.268 6.268 0 0 1 .869-2.146 4.867 4.867 0 0 1 1.622-1.566c.632-.366 1.386-.551 2.168-.551.783 0 1.501.185 2.134.55a4.3 4.3 0 0 1 1.542 1.558c.36.617.62 1.34.77 2.155h-9.105Zm-39.425-4.104c.581 1.245.875 2.745.875 4.457v11.523h-4.598V25.844c0-1.513-.33-2.69-.974-3.496-.642-.802-1.507-1.191-2.638-1.191-.782 0-1.485.191-2.091.567-.607.375-1.096.91-1.453 1.589s-.54 1.458-.54 2.314v11.268h-4.599V25.844c0-1.513-.328-2.69-.974-3.496-.641-.802-1.507-1.191-2.637-1.191-.783 0-1.485.191-2.092.567-.607.375-1.095.91-1.453 1.589s-.54 1.458-.54 2.314v11.268h-4.598v-19.38h4.222l.121 2.107a6.416 6.416 0 0 1 2.015-1.792c.996-.573 2.146-.863 3.414-.863 1.366 0 2.593.347 3.64 1.032a6.809 6.809 0 0 1 2.251 2.46 6.57 6.57 0 0 1 1.332-1.661 7.018 7.018 0 0 1 2.248-1.347 7.879 7.879 0 0 1 2.782-.484c1.437 0 2.71.344 3.784 1.028l.01.004c1.069.684 1.909 1.665 2.493 2.916Zm-35.593-3.403h4.599v10.796c0 1.815-.358 3.426-1.06 4.792-.706 1.372-1.719 2.448-3.009 3.203-1.29.751-2.851 1.133-4.579 1.133s-3.25-.376-4.525-1.117c-1.277-.742-2.283-1.812-2.989-3.184-.702-1.366-1.06-2.99-1.06-4.827V17.512h4.598v10.87c0 1.515.364 2.721 1.08 3.584.715.863 1.676 1.283 2.931 1.283s2.213-.42 2.932-1.283c.715-.863 1.079-2.07 1.079-3.585h.003v-10.87Z" style="fill:#222;stroke-width:0"/></svg>