<svg width="722" height="300" fill="none" xmlns="http://www.w3.org/2000/svg"><path d="M153.021 62.195V3.465h10.091v58.73h-10.091Zm18.505 0V18.933h8.686l.33 5.956c1.269-2.206 3.033-3.943 5.294-5.211 2.317-1.324 4.964-1.986 7.941-1.986 3.254 0 6.066.773 8.438 2.317 2.426 1.544 4.301 3.722 5.624 6.534 1.324 2.813 1.986 6.121 1.986 9.926v25.726h-9.513v-24.65c0-3.53-.8-6.287-2.399-8.272-1.544-1.985-3.722-2.978-6.534-2.978-1.986 0-3.778.469-5.377 1.406a10.06 10.06 0 0 0-3.64 3.805c-.882 1.6-1.323 3.447-1.323 5.543v25.146h-9.513Zm62.722 1.24c-4.356 0-7.775-1.24-10.257-3.722-2.481-2.536-3.722-6.148-3.722-10.836v-22.25h-7.61v-7.694h7.61V4.293h9.513v14.64h12.573v7.693h-12.573v21.259c0 2.316.468 4.108 1.406 5.376.992 1.213 2.426 1.82 4.301 1.82.993 0 2.068-.138 3.226-.414a15.22 15.22 0 0 0 3.226-1.323l2.151 7.197c-1.268.882-2.757 1.571-4.467 2.067-1.654.552-3.446.828-5.377.828Zm14.872-1.24V18.933h8.685l.414 7.114c1.102-2.426 2.619-4.301 4.549-5.625 1.985-1.378 4.301-2.068 6.948-2.068.828 0 1.627.055 2.399.166.772.11 1.461.303 2.068.579l-1.075 9.264a7.322 7.322 0 0 0-1.903-.413 12.043 12.043 0 0 0-1.985-.166c-3.309 0-5.901 1.103-7.775 3.309-1.875 2.206-2.813 5.266-2.813 9.182v21.92h-9.512Zm48.395 1.24c-3.143 0-6.066-.55-8.768-1.654a21.765 21.765 0 0 1-6.948-4.797c-1.985-2.096-3.529-4.522-4.632-7.28-1.103-2.812-1.655-5.873-1.655-9.181 0-3.254.552-6.26 1.655-9.017 1.103-2.812 2.647-5.238 4.632-7.279a20.793 20.793 0 0 1 7.114-4.797c2.757-1.158 5.735-1.738 8.933-1.738 3.144 0 6.039.58 8.686 1.738a19.968 19.968 0 0 1 7.031 4.797c1.985 2.04 3.529 4.44 4.632 7.197 1.103 2.757 1.654 5.79 1.654 9.099 0 3.308-.551 6.369-1.654 9.181a22.089 22.089 0 0 1-4.715 7.28c-1.985 2.04-4.357 3.64-7.114 4.797-2.702 1.103-5.652 1.655-8.851 1.655Zm.166-8.602c2.371 0 4.494-.607 6.369-1.82 1.875-1.268 3.336-2.978 4.384-5.128 1.103-2.151 1.655-4.605 1.655-7.362 0-2.758-.552-5.184-1.655-7.28-1.048-2.15-2.509-3.832-4.384-5.045-1.875-1.269-3.998-1.903-6.369-1.903-2.371 0-4.495.634-6.369 1.903-1.875 1.213-3.364 2.895-4.467 5.045-1.048 2.096-1.572 4.522-1.572 7.28 0 2.757.524 5.21 1.572 7.362 1.103 2.15 2.592 3.86 4.467 5.128 1.874 1.213 3.998 1.82 6.369 1.82Zm46.747 8.603c-2.867 0-5.542-.58-8.024-1.737a20.018 20.018 0 0 1-6.369-4.798c-1.82-2.04-3.253-4.44-4.301-7.197-.993-2.757-1.489-5.735-1.489-8.933 0-3.254.524-6.287 1.572-9.1 1.047-2.811 2.509-5.265 4.384-7.361 1.875-2.095 4.053-3.722 6.534-4.88 2.537-1.158 5.267-1.738 8.189-1.738 2.868 0 5.487.607 7.859 1.82a15.93 15.93 0 0 1 5.873 5.129V.653h9.512v61.542h-8.685l-.414-6.949c-1.544 2.537-3.584 4.55-6.121 6.039-2.537 1.434-5.377 2.15-8.52 2.15Zm1.985-8.603c2.372 0 4.495-.607 6.37-1.82 1.875-1.268 3.336-2.978 4.384-5.128 1.103-2.151 1.654-4.577 1.654-7.28 0-2.757-.551-5.21-1.654-7.361-1.048-2.151-2.509-3.833-4.384-5.046-1.875-1.269-3.998-1.903-6.37-1.903-2.371 0-4.494.634-6.369 1.903-1.875 1.213-3.364 2.895-4.467 5.045-1.047 2.151-1.571 4.605-1.571 7.362 0 2.703.524 5.129 1.571 7.28 1.103 2.15 2.592 3.86 4.467 5.128 1.875 1.213 3.998 1.82 6.369 1.82Zm48.542 8.603c-3.86 0-7.224-.828-10.091-2.482-2.813-1.654-5.019-3.998-6.618-7.031-1.544-3.088-2.316-6.7-2.316-10.836V18.933h9.513v24.32c0 3.584.854 6.424 2.564 8.52 1.709 2.04 4.053 3.06 7.031 3.06 2.978 0 5.321-1.02 7.031-3.06 1.709-2.096 2.564-4.936 2.564-8.52v-24.32h9.513v24.154c0 4.08-.8 7.665-2.399 10.753-1.544 3.033-3.75 5.404-6.617 7.114-2.868 1.654-6.259 2.482-10.175 2.482Zm46.483 0c-3.089 0-5.929-.552-8.52-1.655-2.592-1.158-4.853-2.73-6.783-4.715-1.93-2.04-3.447-4.439-4.55-7.196-1.048-2.757-1.571-5.763-1.571-9.016 0-3.254.551-6.287 1.654-9.1 1.103-2.812 2.619-5.266 4.549-7.361a20.508 20.508 0 0 1 6.783-4.88c2.647-1.214 5.515-1.82 8.603-1.82 2.978 0 5.708.551 8.189 1.654a17.525 17.525 0 0 1 6.369 4.55c1.82 1.93 3.116 4.218 3.888 6.865l-9.016 2.15c-.938-2.095-2.261-3.722-3.971-4.88-1.654-1.158-3.529-1.737-5.624-1.737-2.206 0-4.191.634-5.956 1.903-1.765 1.268-3.171 3.005-4.219 5.211-.992 2.15-1.489 4.605-1.489 7.362 0 2.702.497 5.128 1.489 7.279.993 2.096 2.344 3.75 4.053 4.963 1.765 1.213 3.805 1.82 6.122 1.82 2.205 0 4.218-.551 6.038-1.654 1.82-1.159 3.171-2.785 4.053-4.88l8.934 2.067a16.843 16.843 0 0 1-3.971 6.949c-1.875 1.93-4.108 3.446-6.7 4.549-2.592 1.048-5.377 1.572-8.354 1.572Zm34.869-56.58a5.361 5.361 0 0 1-.827 2.896 5.942 5.942 0 0 1-2.068 2.15 5.803 5.803 0 0 1-2.895.745 5.803 5.803 0 0 1-2.895-.745 6.669 6.669 0 0 1-2.151-2.15 5.808 5.808 0 0 1-.744-2.896c0-1.047.248-2.012.744-2.895a5.933 5.933 0 0 1 2.151-2.068 5.356 5.356 0 0 1 2.895-.827c1.048 0 2.013.276 2.895.827a5.325 5.325 0 0 1 2.068 2.068c.551.883.827 1.848.827 2.895Zm-10.505 55.339V18.933h9.512v43.262h-9.512Zm17.309 0V18.933h8.686l.331 5.956c1.268-2.206 3.032-3.943 5.293-5.211 2.317-1.324 4.964-1.986 7.941-1.986 3.254 0 6.066.773 8.438 2.317 2.426 1.544 4.301 3.722 5.624 6.534 1.324 2.813 1.986 6.121 1.986 9.926v25.726h-9.513v-24.65c0-3.53-.8-6.287-2.399-8.272-1.544-1.985-3.722-2.978-6.534-2.978-1.986 0-3.778.469-5.377 1.406a10.06 10.06 0 0 0-3.64 3.805c-.882 1.6-1.323 3.447-1.323 5.543v25.146h-9.513Zm64.1-.827c-2.813 0-5.432-.552-7.859-1.655a20.108 20.108 0 0 1-6.369-4.55c-1.82-1.984-3.226-4.273-4.219-6.865-.992-2.647-1.488-5.514-1.488-8.602 0-3.089.496-5.956 1.488-8.603 1.048-2.702 2.51-5.046 4.385-7.031a20.17 20.17 0 0 1 6.534-4.632c2.482-1.158 5.156-1.738 8.024-1.738 2.978 0 5.68.662 8.106 1.986 2.482 1.268 4.467 3.06 5.956 5.376l.331-6.12h8.685v38.711c0 3.31-.524 6.314-1.571 9.017-1.048 2.757-2.537 5.1-4.467 7.03-1.93 1.986-4.246 3.502-6.949 4.55-2.646 1.048-5.624 1.572-8.933 1.572-4.412 0-8.272-.993-11.581-2.978-3.308-1.985-5.9-4.743-7.775-8.272l9.016-3.143c1.213 1.985 2.73 3.474 4.55 4.467 1.819 1.047 3.86 1.571 6.121 1.571 2.426 0 4.549-.551 6.369-1.654 1.82-1.048 3.226-2.564 4.219-4.55.992-1.93 1.489-4.218 1.489-6.865v-4.136c-1.544 2.206-3.53 3.943-5.956 5.211-2.426 1.268-5.129 1.903-8.106 1.903Zm1.985-8.603c2.316 0 4.384-.58 6.204-1.737 1.875-1.158 3.336-2.73 4.384-4.715 1.103-1.985 1.654-4.246 1.654-6.783s-.551-4.797-1.654-6.783c-1.048-1.985-2.509-3.557-4.384-4.715-1.82-1.158-3.888-1.737-6.204-1.737s-4.384.58-6.204 1.737c-1.82 1.158-3.281 2.73-4.384 4.715-1.048 1.986-1.572 4.246-1.572 6.783s.524 4.798 1.572 6.783c1.103 1.985 2.564 3.557 4.384 4.715 1.82 1.158 3.888 1.737 6.204 1.737ZM44.803 80.464c0 4.054-1.066 7.787-3.2 11.2-1.92 3.414-4.586 6.187-8 8.32-3.413 1.92-7.146 2.88-11.2 2.88-4.053 0-7.786-.96-11.2-2.88a25.832 25.832 0 0 1-8.32-8.32c-1.92-3.413-2.88-7.146-2.88-11.2 0-4.053.96-7.786 2.88-11.2 2.134-3.413 4.907-6.08 8.32-8 3.414-2.133 7.147-3.2 11.2-3.2 4.054 0 7.787 1.067 11.2 3.2 3.414 1.92 6.08 4.587 8 8 2.134 3.414 3.2 7.147 3.2 11.2Zm-40.64 214.08v-167.36h36.8v167.36h-36.8ZM149.011 299.344c-11.947 0-22.933-2.133-32.96-6.4-10.027-4.48-18.773-10.56-26.24-18.24-7.467-7.893-13.333-17.173-17.6-27.84-4.053-10.666-6.08-22.293-6.08-34.88 0-12.586 2.133-24.32 6.4-35.2 4.267-10.88 10.133-20.373 17.6-28.48 7.467-8.106 16.213-14.4 26.24-18.88 10.24-4.693 21.333-7.04 33.28-7.04 11.52 0 22.08 2.134 31.68 6.4 9.6 4.054 17.813 9.92 24.64 17.6 7.04 7.467 12.053 16.32 15.04 26.56l-34.88 8.32c-3.627-8.106-8.747-14.4-15.36-18.88-6.4-4.48-13.653-6.72-21.76-6.72-8.533 0-16.213 2.454-23.04 7.36-6.827 4.907-12.267 11.627-16.32 20.16-3.84 8.32-5.76 17.814-5.76 28.48 0 10.454 1.92 19.84 5.76 28.16 3.84 8.107 9.067 14.507 15.68 19.2 6.827 4.694 14.72 7.04 23.68 7.04 8.533 0 16.32-2.133 23.36-6.4 7.04-4.48 12.267-10.773 15.68-18.88l34.56 8c-2.987 10.24-8.107 19.2-15.36 26.88-7.253 7.467-15.893 13.334-25.92 17.6-10.027 4.054-20.8 6.08-32.32 6.08ZM317.63 299.344c-12.16 0-23.467-2.133-33.92-6.4-10.24-4.48-19.2-10.666-26.88-18.56-7.68-8.106-13.654-17.493-17.92-28.16-4.267-10.88-6.4-22.72-6.4-35.52 0-12.586 2.133-24.213 6.4-34.88 4.266-10.88 10.24-20.266 17.92-28.16 7.893-8.106 17.066-14.293 27.52-18.56 10.666-4.48 22.186-6.72 34.56-6.72 12.16 0 23.36 2.24 33.6 6.72 10.453 4.267 19.52 10.454 27.2 18.56 7.68 7.894 13.653 17.174 17.92 27.84 4.266 10.667 6.4 22.4 6.4 35.2 0 12.8-2.134 24.64-6.4 35.52-4.267 10.667-10.347 20.054-18.24 28.16-7.68 7.894-16.854 14.08-27.52 18.56-10.454 4.267-21.867 6.4-34.24 6.4Zm.64-33.28c9.173 0 17.386-2.346 24.64-7.04 7.253-4.906 12.906-11.52 16.96-19.84 4.266-8.32 6.4-17.813 6.4-28.48 0-10.666-2.134-20.053-6.4-28.16-4.054-8.32-9.707-14.826-16.96-19.52-7.254-4.906-15.467-7.36-24.64-7.36-9.174 0-17.387 2.454-24.64 7.36-7.254 4.694-13.014 11.2-17.28 19.52-4.054 8.107-6.08 17.494-6.08 28.16 0 10.667 2.026 20.16 6.08 28.48 4.266 8.32 10.026 14.934 17.28 19.84 7.253 4.694 15.466 7.04 24.64 7.04ZM423.632 294.544v-167.36h33.6l1.28 23.04c4.907-8.533 11.733-15.253 20.48-20.16 8.96-5.12 19.2-7.68 30.72-7.68 12.587 0 23.467 2.987 32.64 8.96 9.387 5.974 16.64 14.4 21.76 25.28 5.12 10.88 7.68 23.68 7.68 38.4v99.52h-36.8v-95.36c0-13.653-3.093-24.32-9.28-32-5.973-7.68-14.4-11.52-25.28-11.52-7.68 0-14.613 1.814-20.8 5.44-5.973 3.627-10.667 8.534-14.08 14.72-3.413 6.187-5.12 13.334-5.12 21.44v97.28h-36.8ZM655.925 299.344c-10.88 0-21.014-1.813-30.4-5.44-9.174-3.626-17.067-8.746-23.68-15.36-6.4-6.826-10.987-14.826-13.76-24l33.28-8.64c2.773 7.254 7.253 12.907 13.44 16.96 6.186 4.054 13.333 6.08 21.44 6.08 8.32 0 15.146-1.92 20.48-5.76 5.333-4.053 8-9.173 8-15.36 0-5.333-2.134-9.813-6.4-13.44-4.267-3.626-11.2-6.293-20.8-8l-10.56-1.92c-17.92-3.2-31.467-8.96-40.64-17.28-8.96-8.32-13.44-18.986-13.44-32 0-10.453 2.666-19.626 8-27.52 5.333-7.893 12.693-14.08 22.08-18.56 9.386-4.48 20.16-6.72 32.32-6.72 10.453 0 20.053 1.814 28.8 5.44 8.746 3.627 16.106 8.747 22.08 15.36 5.973 6.614 10.24 14.4 12.8 23.36l-32.96 8c-2.56-6.826-6.614-12.16-12.16-16-5.334-4.053-11.627-6.08-18.88-6.08-7.467 0-13.654 1.92-18.56 5.76-4.907 3.627-7.36 8.32-7.36 14.08 0 4.907 2.133 8.96 6.4 12.16 4.48 3.2 11.946 5.76 22.4 7.68l10.56 1.92c17.066 2.987 30.186 8.854 39.36 17.6 9.173 8.747 13.76 19.627 13.76 32.64 0 7.894-1.6 15.254-4.8 22.08-3.2 6.614-7.787 12.48-13.76 17.6-5.76 4.907-12.694 8.64-20.8 11.2-7.894 2.774-16.64 4.16-26.24 4.16Z" fill="#fff"/></svg>