<svg id="l_d_121" xmlns="http://www.w3.org/2000/svg" xmlns:xlink="http://www.w3.org/1999/xlink" viewBox="0 0 846 330" width="846" height="330" preserveAspectRatio="xMidYMid meet" style="width: 100%; height: 100%; transform: translate3d(0px, 0px, 0px); content-visibility: visible;"><defs id="l_d_122"><clipPath id="__lottie_element_49"><rect id="l_d_125" width="846" height="330" x="0" y="0"/></clipPath><clipPath id="__lottie_element_58"><path id="l_d_137" d="M0,0 L846,0 L846,184 L0,184z"/></clipPath></defs><g id="l_d_123" clip-path="url(#__lottie_element_49)"><g id="l_d_134" clip-path="url(#__lottie_element_58)" transform="matrix(1,0,0,1,0,-1)" opacity="1" style="display: block;"><g id="l_d_140" transform="matrix(1,0,0,1,1.5,2)" opacity="1" style="display: block;"><g id="l_d_144" opacity="1" transform="matrix(1,0,0,1,325.510009765625,113.89199829101562)"><path id="l_d_145" fill="rgb(34,34,34)" fill-opacity="1" d=" M2.7019999027252197,64.64399719238281 C-5.755000114440918,64.7249984741211 -14.142000198364258,63.11199951171875 -21.957000732421875,59.9010009765625 C-29.3439998626709,56.8390007019043 -36.01599884033203,52.30099868774414 -41.560001373291016,46.56800079345703 C-47.16699981689453,40.71699905395508 -51.564998626708984,33.83100128173828 -54.50400161743164,26.298999786376953 C-57.66899871826172,18.208999633789062 -59.25299835205078,9.595000267028809 -59.172000885009766,0.9160000085830688 C-59.255001068115234,-7.918000221252441 -57.63399887084961,-16.68600082397461 -54.39500045776367,-24.913999557495117 C-51.34600067138672,-32.64799880981445 -46.83100128173828,-39.72800064086914 -41.09299850463867,-45.770999908447266 C-35.3489990234375,-51.80799865722656 -28.41200065612793,-56.60200119018555 -20.71500015258789,-59.85300064086914 C-13.017999649047852,-63.10499954223633 -4.728000164031982,-64.74299621582031 3.634999990463257,-64.66500091552734 C12.067999839782715,-64.75199890136719 20.422000885009766,-63.04999923706055 28.138999938964844,-59.67499923706055 C35.44900131225586,-56.470001220703125 41.94499969482422,-51.68299865722656 47.1510009765625,-45.66299819946289 C52.40599822998047,-39.584999084472656 56.137001037597656,-32.35900115966797 58.04100036621094,-24.575000762939453 C58.04100036621094,-24.575000762939453 26.924999237060547,-18.549999237060547 26.924999237060547,-18.549999237060547 C24.839000701904297,-23.47100067138672 21.452999114990234,-27.740999221801758 17.124000549316406,-30.909000396728516 C13.01099967956543,-33.90299987792969 8.03499984741211,-35.500999450683594 2.934999942779541,-35.465999603271484 C-2.381999969482422,-35.555999755859375 -7.585000038146973,-33.92900085449219 -11.890999794006348,-30.83099937438965 C-16.326000213623047,-27.493999481201172 -19.79800033569336,-23.05500030517578 -21.957000732421875,-17.961999893188477 C-24.51300048828125,-12.15999984741211 -25.785999298095703,-5.880000114440918 -25.69099998474121,0.453000009059906 C-25.812999725341797,6.665999889373779 -24.582000732421875,12.831000328063965 -22.082000732421875,18.527999877929688 C-19.888999938964844,23.488000869750977 -16.37700080871582,27.76099967956543 -11.92199993133545,30.886999130249023 C-7.568999767303467,33.90700149536133 -2.375,35.5 2.934999942779541,35.44499969482422 C8.312000274658203,35.53099822998047 13.593000411987305,34.025001525878906 18.104000091552734,31.118999481201172 C22.687000274658203,28.09600067138672 26.197999954223633,23.718000411987305 28.138999938964844,18.604999542236328 C28.138999938964844,18.604999542236328 59.255001068115234,24.631000518798828 59.255001068115234,24.631000518798828 C57.35900115966797,32.57500076293945 53.46200180053711,39.9109992980957 47.92900085449219,45.95000076293945 C42.391998291015625,51.98699951171875 35.582000732421875,56.73400115966797 27.982999801635742,59.854000091552734 C19.965999603271484,63.12300109863281 11.368000030517578,64.75199890136719 2.7019999027252197,64.64399719238281z"/></g><g id="l_d_146" opacity="1" transform="matrix(1,0,0,1,454.42999267578125,113.88700103759766)"><path id="l_d_147" fill="rgb(34,34,34)" fill-opacity="1" d=" M-0.45899999141693115,64.6500015258789 C-9.267999649047852,64.73799896240234 -18.006000518798828,63.08300018310547 -26.150999069213867,59.784000396728516 C-33.862998962402344,56.66600036621094 -40.85499954223633,52.04800033569336 -46.707000732421875,46.207000732421875 C-52.558998107910156,40.36600112915039 -57.14899826049805,33.42399978637695 -60.202999114990234,25.79599952697754 C-63.48500061035156,17.582000732421875 -65.11799621582031,8.819999694824219 -65.01100158691406,-0.004000000189989805 C-65.10800170898438,-8.776000022888184 -63.42499923706055,-17.47800064086914 -60.06100082397461,-25.60300064086914 C-56.869998931884766,-33.255001068115234 -52.194000244140625,-40.222999572753906 -46.29600143432617,-46.11899948120117 C-40.387001037597656,-52.000999450683594 -33.33300018310547,-56.652000427246094 -25.554000854492188,-59.792999267578125 C-17.290000915527344,-63.099998474121094 -8.437999725341797,-64.75299835205078 0.48399999737739563,-64.65799713134766 C9.277000427246094,-64.73999786376953 17.99799919128418,-63.08599853515625 26.128000259399414,-59.792999267578125 C33.827999114990234,-56.652000427246094 40.810001373291016,-52.0260009765625 46.6609992980957,-46.18899917602539 C52.512001037597656,-40.35100173950195 57.11399841308594,-33.41899871826172 60.19599914550781,-25.804000854492188 C63.479000091552734,-17.65399932861328 65.11799621582031,-8.954000473022461 65.0199966430664,-0.1889999955892563 C65.10900115966797,8.621999740600586 63.426998138427734,17.363000869750977 60.06999969482422,25.533000946044922 C56.895999908447266,33.22999954223633 52.2140007019043,40.23699951171875 46.28900146484375,46.15800094604492 C40.380001068115234,52.03900146484375 33.32600021362305,56.6879997253418 25.547000885009766,59.82899856567383 C17.288999557495117,63.11399841308594 8.449000358581543,64.75399780273438 -0.45899999141693115,64.6500015258789z M0.012000000104308128,35.45100021362305 C5.708000183105469,35.52799987792969 11.293999671936035,33.9119987487793 16.040000915527344,30.81599998474121 C20.836000442504883,27.641000747680664 24.700000762939453,23.283000946044922 27.243999481201172,18.17799949645996 C30.069000244140625,12.526000022888184 31.479999542236328,6.293000221252441 31.361000061035156,-0.004000000189989805 C31.479000091552734,-6.301000118255615 30.066999435424805,-12.53499984741211 27.243999481201172,-18.18899917602539 C24.700000762939453,-23.292999267578125 20.836000442504883,-27.649999618530273 16.040000915527344,-30.825000762939453 C11.26099967956543,-33.85100173950195 5.697000026702881,-35.459999084472656 0.012000000104308128,-35.459999084472656 C-5.671999931335449,-35.459999084472656 -11.237000465393066,-33.85100173950195 -16.016000747680664,-30.825000762939453 C-20.805999755859375,-27.648000717163086 -24.663999557495117,-23.291000366210938 -27.20400047302246,-18.18899917602539 C-30.031999588012695,-12.53600025177002 -31.448999404907227,-6.302000045776367 -31.336999893188477,-0.004000000189989805 C-31.451000213623047,6.294000148773193 -30.034000396728516,12.527000427246094 -27.20400047302246,18.17799949645996 C-24.663999557495117,23.2810001373291 -20.805999755859375,27.638999938964844 -16.016000747680664,30.81599998474121 C-11.270000457763672,33.9119987487793 -5.683000087738037,35.52799987792969 0.012000000104308128,35.45100021362305z"/></g><g id="l_d_148" opacity="1" transform="matrix(1,0,0,1,577.8880004882812,113.49800109863281)"><path id="l_d_149" fill="rgb(34,34,34)" fill-opacity="1" d=" M-16.73699951171875,61.21500015258789 C-16.73699951171875,61.21500015258789 -63.084999084472656,-61.21500015258789 -63.084999084472656,-61.21500015258789 C-63.084999084472656,-61.21500015258789 -27.270000457763672,-61.21500015258789 -27.270000457763672,-61.21500015258789 C-27.270000457763672,-61.21500015258789 0.35100001096725464,26.898000717163086 0.35100001096725464,26.898000717163086 C0.35100001096725464,26.898000717163086 28.44099998474121,-61.21500015258789 28.44099998474121,-61.21500015258789 C28.44099998474121,-61.21500015258789 63.084999084472656,-61.21500015258789 63.084999084472656,-61.21500015258789 C63.084999084472656,-61.21500015258789 16.72100067138672,61.21500015258789 16.72100067138672,61.21500015258789 C16.72100067138672,61.21500015258789 -16.73699951171875,61.21500015258789 -16.73699951171875,61.21500015258789z"/></g><g id="l_d_150" opacity="1" transform="matrix(1,0,0,1,697.4949951171875,113.8740005493164)"><path id="l_d_151" fill="rgb(34,34,34)" fill-opacity="1" d=" M2.2260000705718994,64.66300201416016 C-6.498000144958496,64.75499725341797 -15.156000137329102,63.14400100708008 -23.246999740600586,59.91999816894531 C-30.815000534057617,56.87300109863281 -37.65299987792969,52.29399871826172 -43.31999969482422,46.479000091552734 C-49.04800033569336,40.5369987487793 -53.51599884033203,33.525001525878906 -56.4630012512207,25.854999542236328 C-59.65999984741211,17.527000427246094 -61.250999450683594,8.682999610900879 -61.15599822998047,-0.22300000488758087 C-61.22999954223633,-8.935999870300293 -59.638999938964844,-17.583999633789062 -56.4630012512207,-25.71299934387207 C-53.51100158691406,-33.319000244140625 -49.08399963378906,-40.28300094604492 -43.43000030517578,-46.2140007019043 C-37.89899826049805,-51.999000549316406 -31.233999252319336,-56.61399841308594 -23.840999603271484,-59.77799987792969 C-16.132999420166016,-63.06399917602539 -7.811999797821045,-64.72100067138672 0.5830000042915344,-64.6449966430664 C9.071999549865723,-64.75499725341797 17.492000579833984,-63.17900085449219 25.351999282836914,-60.0099983215332 C32.62200164794922,-57.027000427246094 39.141998291015625,-52.52000045776367 44.47200012207031,-46.80099868774414 C49.9119987487793,-40.87900161743164 54.10200119018555,-33.94599914550781 56.801998138427734,-26.409000396728516 C59.78200149536133,-17.917999267578125 61.250999450683594,-8.977999687194824 61.13100051879883,0.008999999612569809 C61.13100051879883,0.008999999612569809 61.13100051879883,8.119999885559082 61.13100051879883,8.119999885559082 C61.13100051879883,8.119999885559082 -27.815000534057617,8.119999885559082 -27.815000534057617,8.119999885559082 C-26.406999588012695,17.285999298095703 -23.04199981689453,24.444000244140625 -17.722000122070312,29.5939998626709 C-15.0600004196167,32.159000396728516 -11.899999618530273,34.16600036621094 -8.432000160217285,35.49399948120117 C-4.9629998207092285,36.82099914550781 -1.2569999694824219,37.44200134277344 2.4609999656677246,37.31800079345703 C7.8520002365112305,37.37900161743164 13.16100025177002,36.01900100708008 17.840999603271484,33.37900161743164 C22.56100082397461,30.632999420166016 26.48200035095215,26.719999313354492 29.211999893188477,22.02400016784668 C29.211999893188477,22.02400016784668 58.551998138427734,31.292999267578125 58.551998138427734,31.292999267578125 C55.8120002746582,38.143001556396484 51.46099853515625,44.25600051879883 45.88100051879883,49.137001037597656 C40.10100173950195,54.165000915527344 33.4109992980957,58.06100082397461 26.160999298095703,60.6150016784668 C18.481000900268555,63.33700180053711 10.381999969482422,64.70700073242188 2.2260000705718994,64.66300201416016z M0.6610000133514404,-39.617000579833984 C-2.684999942779541,-39.70100021362305 -6.01200008392334,-39.130001068115234 -9.133000373840332,-37.93600082397461 C-12.253000259399414,-36.74300003051758 -15.104000091552734,-34.95199966430664 -17.520000457763672,-32.665000915527344 C-22.45400047302246,-28.0310001373291 -25.702999114990234,-21.69700050354004 -27.26799964904785,-13.663000106811523 C-27.26799964904785,-13.663000106811523 27.410999298095703,-13.663000106811523 27.410999298095703,-13.663000106811523 C26.160999298095703,-21.69700050354004 23.150999069213867,-28.0310001373291 18.391000747680664,-32.665000915527344 C16.051000595092773,-34.95399856567383 13.270999908447266,-36.75 10.211000442504883,-37.94499969482422 C7.151000022888184,-39.13999938964844 3.872999906539917,-39.70899963378906 0.5830000042915344,-39.617000579833984 C0.5830000042915344,-39.617000579833984 0.6610000133514404,-39.617000579833984 0.6610000133514404,-39.617000579833984z"/></g><g id="l_d_152" opacity="1" transform="matrix(1,0,0,1,806.551025390625,112.70700073242188)"><path id="l_d_153" fill="rgb(34,34,34)" fill-opacity="1" d=" M35.8849983215332,-60.90599822998047 C35.125,-61.069000244140625 34.375,-61.263999938964844 33.54499816894531,-61.39400100708008 C31.344999313354492,-61.78300094604492 29.174999237060547,-61.97800064086914 26.975000381469727,-61.97800064086914 C19.764999389648438,-61.97800064086914 13.515000343322754,-60.2239990234375 8.225000381469727,-56.779998779296875 C2.8949999809265137,-53.303001403808594 -1.315000057220459,-48.332000732421875 -4.445000171661377,-41.83300018310547 C-4.445000171661377,-41.83300018310547 -5.625,-60.354000091552734 -5.625,-60.354000091552734 C-5.625,-60.354000091552734 -35.8849983215332,-60.354000091552734 -35.8849983215332,-60.354000091552734 C-35.8849983215332,-60.354000091552734 -35.8849983215332,61.97800064086914 -35.8849983215332,61.97800064086914 C-35.8849983215332,61.97800064086914 -3.055000066757202,61.97800064086914 -3.055000066757202,61.97800064086914 C-3.055000066757202,61.97800064086914 -3.055000066757202,1.965999960899353 -3.055000066757202,1.965999960899353 C-3.055000066757202,-8.074000358581543 -0.625,-15.84000015258789 4.204999923706055,-21.33099937438965 C9.045000076293945,-26.82200050354004 16.014999389648438,-29.551000595092773 25.094999313354492,-29.551000595092773 C26.975000381469727,-29.551000595092773 28.815000534057617,-29.42099952697754 30.584999084472656,-29.194000244140625 C32.3650016784668,-28.966999053955078 34.14500045776367,-28.54400062561035 35.85499954223633,-27.927000045776367 C35.85499954223633,-27.927000045776367 35.85499954223633,-60.90599822998047 35.85499954223633,-60.90599822998047 C35.85499954223633,-60.90599822998047 35.8849983215332,-60.90599822998047 35.8849983215332,-60.90599822998047z"/></g><g id="l_d_154" opacity="1" transform="matrix(1,0,0,1,64.54000091552734,113.86699676513672)"><path id="l_d_155" fill="rgb(255,56,92)" fill-opacity="1" d=" M-7.11899995803833,64.6719970703125 C-14.911999702453613,64.74800109863281 -22.621000289916992,63.08399963378906 -29.66900062561035,59.805999755859375 C-36.571998596191406,56.55400085449219 -42.72800064086914,51.94300079345703 -47.75600051879883,46.25699996948242 C-53.02799987792969,40.29199981689453 -57.13199996948242,33.41299819946289 -59.861000061035156,25.97100067138672 C-62.82099914550781,17.87299919128418 -64.29000091552734,9.319999694824219 -64.1989974975586,0.7129999995231628 C-64.28700256347656,-8.055999755859375 -62.775001525878906,-16.768999099731445 -59.736000061035156,-25.010000228881836 C-56.89699935913086,-32.62699890136719 -52.64899826049805,-39.65700149536133 -47.20800018310547,-45.74300003051758 C-41.98899841308594,-51.612998962402344 -35.59000015258789,-56.3489990234375 -28.416000366210938,-59.64799880981445 C-21.159000396728516,-62.97800064086914 -13.244000434875488,-64.68199920654297 -5.239999771118164,-64.63800048828125 C2.431999921798706,-64.74800109863281 10.013999938964844,-62.99599838256836 16.84000015258789,-59.53900146484375 C23.381999969482422,-56.17100143432617 28.95800018310547,-51.23099899291992 33.04899978637695,-45.172000885009766 C33.04899978637695,-45.172000885009766 33.987998962402344,-61.1609992980957 33.987998962402344,-61.1609992980957 C33.987998962402344,-61.1609992980957 64.29000091552734,-61.1609992980957 64.29000091552734,-61.1609992980957 C64.29000091552734,-61.1609992980957 64.29000091552734,61.19499969482422 64.29000091552734,61.19499969482422 C64.29000091552734,61.19499969482422 33.987998962402344,61.19499969482422 33.987998962402344,61.19499969482422 C33.987998962402344,61.19499969482422 33.04899978637695,43.35200119018555 33.04899978637695,43.35200119018555 C28.884000778198242,49.91699981689453 23.054000854492188,55.29499816894531 16.13599967956543,58.95600128173828 C9.00100040435791,62.77799987792969 0.9990000128746033,64.74500274658203 -7.11899995803833,64.6719970703125z M0.6320000290870667,35.472999572753906 C6.308000087738037,35.54999923706055 11.87600040435791,33.935001373291016 16.604999542236328,30.839000701904297 C21.378999710083008,27.66200065612793 25.224000930786133,23.304000854492188 27.7549991607666,18.201000213623047 C30.575000762939453,12.550000190734863 31.98699951171875,6.315000057220459 31.874000549316406,0.01600000075995922 C31.985000610351562,-6.2820000648498535 30.572999954223633,-12.515000343322754 27.7549991607666,-18.16699981689453 C25.224000930786133,-23.270000457763672 21.378999710083008,-27.628000259399414 16.604999542236328,-30.80500030517578 C11.87600040435791,-33.9010009765625 6.308000087738037,-35.51499938964844 0.6320000290870667,-35.4379997253418 C-5.043000221252441,-35.51499938964844 -10.609999656677246,-33.9010009765625 -15.33899974822998,-30.80500030517578 C-20.118999481201172,-27.6299991607666 -23.97100067138672,-23.27199935913086 -26.506000518798828,-18.16699981689453 C-29.319000244140625,-12.513999938964844 -30.72599983215332,-6.28000020980835 -30.608999252319336,0.01600000075995922 C-30.72800064086914,6.313000202178955 -29.320999145507812,12.54800033569336 -26.506000518798828,18.201000213623047 C-23.97100067138672,23.305999755859375 -20.118999481201172,27.663999557495117 -15.33899974822998,30.839000701904297 C-10.609999656677246,33.935001373291016 -5.043000221252441,35.54999923706055 0.6320000290870667,35.472999572753906z"/></g><g id="l_d_156" opacity="1" transform="matrix(1,0,0,1,160.40499877929688,87.48200225830078)"><path id="l_d_157" fill="rgb(255,56,92)" fill-opacity="1" d=" M18.95599937438965,-68.71600341796875 C19.025999069213867,-65.35099792480469 18.163000106811523,-62.03099822998047 16.458999633789062,-59.10900115966797 C14.817000389099121,-56.33300018310547 12.442999839782715,-54.04399871826172 9.586000442504883,-52.479000091552734 C6.6479997634887695,-50.882999420166016 3.3450000286102295,-50.047000885009766 -0.013000000268220901,-50.047000885009766 C-3.371000051498413,-50.047000885009766 -6.673999786376953,-50.882999420166016 -9.612000465393066,-52.479000091552734 C-12.468999862670898,-54.04399871826172 -14.843000411987305,-56.33300018310547 -16.485000610351562,-59.10900115966797 C-18.16900062561035,-62.0099983215332 -19.025999069213867,-65.3010025024414 -18.965999603271484,-68.63800048828125 C-19.025999069213867,-71.9749984741211 -18.16900062561035,-75.26599884033203 -16.485000610351562,-78.16699981689453 C-14.845999717712402,-80.94100189208984 -12.470999717712402,-83.22899627685547 -9.612000465393066,-84.78399658203125 C-6.677000045776367,-86.38899993896484 -3.372999906539917,-87.23200225830078 -0.013000000268220901,-87.23200225830078 C3.3469998836517334,-87.23200225830078 6.6519999504089355,-86.38899993896484 9.586000442504883,-84.78399658203125 C12.444999694824219,-83.22899627685547 14.821000099182129,-80.94100189208984 16.458999633789062,-78.16699981689453 C18.135000228881836,-75.29100036621094 18.996999740600586,-72.02799987792969 18.95599937438965,-68.71600341796875z M-16.59600067138672,87.23200225830078 M-16.59600067138672,-35.481998443603516 C-16.59600067138672,-35.481998443603516 16.586000442504883,-35.481998443603516 16.586000442504883,-35.481998443603516 C16.586000442504883,-35.481998443603516 16.586000442504883,87.23200225830078 16.586000442504883,87.23200225830078 C16.586000442504883,87.23200225830078 -16.59600067138672,87.23200225830078 -16.59600067138672,87.23200225830078 C-16.59600067138672,87.23200225830078 -16.59600067138672,-35.481998443603516 -16.59600067138672,-35.481998443603516z"/></g><g id="l_d_158" opacity="1" transform="matrix(1,0,0,1,228.06399536132812,112.70500183105469)"><path id="l_d_159" fill="rgb(255,56,92)" fill-opacity="1" d=" M35.88399887084961,-60.90599822998047 C35.12799835205078,-61.069000244140625 34.37099838256836,-61.263999938964844 33.54899978637695,-61.393001556396484 C31.344999313354492,-61.78300094604492 29.173999786376953,-61.97800064086914 26.97100067138672,-61.97800064086914 C19.767000198364258,-61.97800064086914 13.517999649047852,-60.2239990234375 8.222999572753906,-56.779998779296875 C2.8940000534057617,-53.303001403808594 -1.315999984741211,-48.332000732421875 -4.440999984741211,-41.83300018310547 C-4.440999984741211,-41.83300018310547 -5.624000072479248,-60.354000091552734 -5.624000072479248,-60.354000091552734 C-5.624000072479248,-60.354000091552734 -35.88399887084961,-60.354000091552734 -35.88399887084961,-60.354000091552734 C-35.88399887084961,-60.354000091552734 -35.88399887084961,61.97800064086914 -35.88399887084961,61.97800064086914 C-35.88399887084961,61.97800064086914 -3.058000087738037,61.97800064086914 -3.058000087738037,61.97800064086914 C-3.058000087738037,61.97800064086914 -3.058000087738037,1.965999960899353 -3.058000087738037,1.965999960899353 C-3.058000087738037,-8.074000358581543 -0.625,-15.84000015258789 4.210000038146973,-21.33099937438965 C9.045000076293945,-26.82200050354004 16.01799964904785,-29.551000595092773 25.09600067138672,-29.551000595092773 C26.97100067138672,-29.551000595092773 28.81399917602539,-29.42099952697754 30.59000015258789,-29.194000244140625 C32.36600112915039,-28.966999053955078 34.14099884033203,-28.54400062561035 35.85100173950195,-27.927000045776367 C35.85100173950195,-27.927000045776367 35.85100173950195,-60.90599822998047 35.85100173950195,-60.90599822998047 C35.85100173950195,-60.90599822998047 35.88399887084961,-60.90599822998047 35.88399887084961,-60.90599822998047z"/></g></g></g><g id="l_d_130" transform="matrix(1,0,0,1,297.333984375,258.93798828125)" opacity="1" fill="rgb(34,34,34)" font-size="66" font-family="Airbnb Cereal" font-style="normal" font-weight="normal" aria-label="for " style="display: block;"><g id="l_d_206" stroke-linecap="butt" stroke-linejoin="round" stroke-miterlimit="4" transform="matrix(1,0,0,1,0,0)" opacity="1" style="display: inherit;"><g id="l_d_207"><g id="l_d_208" transform="matrix(1,0,0,1,0,0)" opacity="1" style="display: block;"><path id="l_d_212" d=" M12.61,0 C12.61,0 12.61,-29.57 12.61,-29.57 C12.61,-29.57 23.36,-29.57 23.36,-29.57 C23.36,-29.57 23.36,-34.06 23.36,-34.06 C23.36,-34.06 12.61,-34.06 12.61,-34.06 C12.61,-34.06 12.61,-37.09 12.61,-37.09 C12.61,-39.64 13.13,-41.6 14.19,-42.97 C15.25,-44.33 16.81,-45.01 18.88,-45.01 C19.67,-45.01 20.46,-44.9 21.25,-44.68 C22.04,-44.46 22.77,-44.18 23.43,-43.82 C23.43,-43.82 24.95,-47.92 24.95,-47.92 C23.06,-49.06 20.92,-49.63 18.55,-49.63 C16.3,-49.63 14.33,-49.13 12.64,-48.11 C10.94,-47.1 9.64,-45.66 8.71,-43.79 C7.79,-41.92 7.33,-39.73 7.33,-37.22 C7.33,-37.22 7.33,-34.06 7.33,-34.06 C7.33,-34.06 1.06,-34.06 1.06,-34.06 C1.06,-34.06 1.06,-29.57 1.06,-29.57 C1.06,-29.57 7.33,-29.57 7.33,-29.57 C7.33,-29.57 7.33,0 7.33,0 C7.33,0 12.61,0 12.61,0z"/><g id="l_d_213" opacity="1" transform="matrix(0.6600000262260437,0,0,0.6600000262260437,0,0)"/></g></g></g><g id="l_d_214" stroke-linecap="butt" stroke-linejoin="round" stroke-miterlimit="4" transform="matrix(1,0,0,1,23.034000396728516,0)" opacity="1" style="display: inherit;"><g id="l_d_215"><g id="l_d_216" transform="matrix(1,0,0,1,0,0)" opacity="1" style="display: block;"><path id="l_d_220" d=" M15.21,-4.82 C13.83,-5.48 12.62,-6.39 11.58,-7.56 C10.55,-8.72 9.75,-10.11 9.17,-11.72 C8.6,-13.32 8.32,-15.09 8.32,-17.03 C8.32,-18.96 8.6,-20.73 9.17,-22.34 C9.75,-23.95 10.55,-25.33 11.58,-26.5 C12.62,-27.66 13.83,-28.58 15.21,-29.24 C16.6,-29.9 18.13,-30.23 19.8,-30.23 C21.47,-30.23 23,-29.9 24.39,-29.24 C25.77,-28.58 26.98,-27.66 28.02,-26.5 C29.05,-25.33 29.85,-23.95 30.43,-22.34 C31,-20.73 31.28,-18.96 31.28,-17.03 C31.28,-15.09 31,-13.32 30.43,-11.72 C29.85,-10.11 29.05,-8.72 28.02,-7.56 C26.98,-6.39 25.77,-5.48 24.39,-4.82 C23,-4.16 21.47,-3.83 19.8,-3.83 C18.13,-3.83 16.6,-4.16 15.21,-4.82z M26.47,-0.36 C28.53,-1.26 30.33,-2.52 31.85,-4.13 C33.36,-5.73 34.55,-7.63 35.41,-9.83 C36.27,-12.03 36.7,-14.43 36.7,-17.03 C36.7,-19.62 36.28,-22.02 35.44,-24.22 C34.61,-26.42 33.43,-28.32 31.91,-29.93 C30.39,-31.54 28.61,-32.79 26.57,-33.69 C24.52,-34.59 22.29,-35.05 19.87,-35.05 C17.45,-35.05 15.2,-34.59 13.13,-33.69 C11.07,-32.79 9.27,-31.54 7.76,-29.93 C6.24,-28.32 5.05,-26.42 4.19,-24.22 C3.33,-22.02 2.9,-19.62 2.9,-17.03 C2.9,-14.43 3.32,-12.03 4.16,-9.83 C4.99,-7.63 6.17,-5.73 7.69,-4.13 C9.21,-2.52 10.99,-1.26 13.04,-0.36 C15.08,0.54 17.31,0.99 19.73,0.99 C22.15,0.99 24.4,0.54 26.47,-0.36z"/><g id="l_d_221" opacity="1" transform="matrix(0.6600000262260437,0,0,0.6600000262260437,0,0)"/></g></g></g><g id="l_d_222" stroke-linecap="butt" stroke-linejoin="round" stroke-miterlimit="4" transform="matrix(1,0,0,1,60.38999938964844,0)" opacity="1" style="display: inherit;"><g id="l_d_223"><g id="l_d_224" transform="matrix(1,0,0,1,0,0)" opacity="1" style="display: block;"><path id="l_d_228" d=" M9.9,0 C9.9,0 9.9,-18.08 9.9,-18.08 C9.9,-20.37 10.28,-22.36 11.06,-24.06 C11.82,-25.75 12.9,-27.06 14.29,-27.98 C15.68,-28.91 17.29,-29.37 19.14,-29.37 C19.67,-29.37 20.2,-29.34 20.72,-29.27 C21.25,-29.21 21.76,-29.08 22.24,-28.91 C22.24,-28.91 22.9,-33.92 22.9,-33.92 C22.46,-34.1 21.95,-34.24 21.35,-34.35 C20.76,-34.46 20.09,-34.52 19.34,-34.52 C17.09,-34.52 15.14,-33.91 13.46,-32.7 C11.79,-31.49 10.54,-29.83 9.7,-27.72 C9.7,-27.72 9.37,-34.06 9.37,-34.06 C9.37,-34.06 4.62,-34.06 4.62,-34.06 C4.62,-34.06 4.62,0 4.62,0 C4.62,0 9.9,0 9.9,0z"/><g id="l_d_229" opacity="1" transform="matrix(0.6600000262260437,0,0,0.6600000262260437,0,0)"/></g></g></g><g id="l_d_230" stroke-linecap="butt" stroke-linejoin="round" stroke-miterlimit="4" transform="matrix(1,0,0,1,82.56599426269531,0)" opacity="1" style="display: inherit;"><g id="l_d_231"><g id="l_d_232" style="display: none;"/></g></g></g><g id="l_d_126" transform="matrix(1,0,0,1,375.333984375,259.81884765625)" opacity="1" fill="rgb(34,34,34)" font-size="66" font-family="Airbnb Cereal" font-style="normal" font-weight="normal" aria-label=" Hosts" style="display: block;"><g id="l_d_160" stroke-linecap="butt" stroke-linejoin="round" stroke-miterlimit="4" transform="matrix(1,0,0,1,0,0)" opacity="1" style="display: inherit;"><g id="l_d_161"><g id="l_d_162" style="display: none;"/></g></g><g id="l_d_166" stroke-linecap="butt" stroke-linejoin="round" stroke-miterlimit="4" transform="matrix(1,0,0,1,11.220000267028809,0)" opacity="1" style="display: inherit;"><g id="l_d_167"><g id="l_d_168" transform="matrix(1,0,0,1,0,0)" opacity="1" style="display: block;"><path id="l_d_172" d=" M10.69,0 C10.69,0 10.69,-21.85 10.69,-21.85 C10.69,-21.85 36.7,-21.85 36.7,-21.85 C36.7,-21.85 36.7,0 36.7,0 C36.7,0 42.24,0 42.24,0 C42.24,0 42.24,-46.86 42.24,-46.86 C42.24,-46.86 36.7,-46.86 36.7,-46.86 C36.7,-46.86 36.7,-26.93 36.7,-26.93 C36.7,-26.93 10.69,-26.93 10.69,-26.93 C10.69,-26.93 10.69,-46.86 10.69,-46.86 C10.69,-46.86 5.15,-46.86 5.15,-46.86 C5.15,-46.86 5.15,0 5.15,0 C5.15,0 10.69,0 10.69,0z"/><g id="l_d_173" opacity="1" transform="matrix(0.6600000262260437,0,0,0.6600000262260437,0,0)"/></g></g></g><g id="l_d_174" stroke-linecap="butt" stroke-linejoin="round" stroke-miterlimit="4" transform="matrix(1,0,0,1,55.374000549316406,0)" opacity="1" style="display: inherit;"><g id="l_d_175"><g id="l_d_176" transform="matrix(1,0,0,1,0,0)" opacity="1" style="display: block;"><path id="l_d_180" d=" M15.21,-4.82 C13.83,-5.48 12.62,-6.39 11.58,-7.56 C10.55,-8.72 9.75,-10.11 9.17,-11.72 C8.6,-13.32 8.32,-15.09 8.32,-17.03 C8.32,-18.96 8.6,-20.73 9.17,-22.34 C9.75,-23.95 10.55,-25.33 11.58,-26.5 C12.62,-27.66 13.83,-28.58 15.21,-29.24 C16.6,-29.9 18.13,-30.23 19.8,-30.23 C21.47,-30.23 23,-29.9 24.39,-29.24 C25.77,-28.58 26.98,-27.66 28.02,-26.5 C29.05,-25.33 29.85,-23.95 30.43,-22.34 C31,-20.73 31.28,-18.96 31.28,-17.03 C31.28,-15.09 31,-13.32 30.43,-11.72 C29.85,-10.11 29.05,-8.72 28.02,-7.56 C26.98,-6.39 25.77,-5.48 24.39,-4.82 C23,-4.16 21.47,-3.83 19.8,-3.83 C18.13,-3.83 16.6,-4.16 15.21,-4.82z M26.47,-0.36 C28.53,-1.26 30.33,-2.52 31.85,-4.13 C33.36,-5.73 34.55,-7.63 35.41,-9.83 C36.27,-12.03 36.7,-14.43 36.7,-17.03 C36.7,-19.62 36.28,-22.02 35.44,-24.22 C34.61,-26.42 33.43,-28.32 31.91,-29.93 C30.39,-31.54 28.61,-32.79 26.57,-33.69 C24.52,-34.59 22.29,-35.05 19.87,-35.05 C17.45,-35.05 15.2,-34.59 13.13,-33.69 C11.07,-32.79 9.27,-31.54 7.76,-29.93 C6.24,-28.32 5.05,-26.42 4.19,-24.22 C3.33,-22.02 2.9,-19.62 2.9,-17.03 C2.9,-14.43 3.32,-12.03 4.16,-9.83 C4.99,-7.63 6.17,-5.73 7.69,-4.13 C9.21,-2.52 10.99,-1.26 13.04,-0.36 C15.08,0.54 17.31,0.99 19.73,0.99 C22.15,0.99 24.4,0.54 26.47,-0.36z"/><g id="l_d_181" opacity="1" transform="matrix(0.6600000262260437,0,0,0.6600000262260437,0,0)"/></g></g></g><g id="l_d_182" stroke-linecap="butt" stroke-linejoin="round" stroke-miterlimit="4" transform="matrix(1,0,0,1,92.06999969482422,0)" opacity="1" style="display: inherit;"><g id="l_d_183"><g id="l_d_184" transform="matrix(1,0,0,1,0,0)" opacity="1" style="display: block;"><path id="l_d_188" d=" M20.49,0.2 C22.05,-0.33 23.4,-1.08 24.52,-2.05 C25.64,-3.01 26.52,-4.15 27.16,-5.45 C27.8,-6.74 28.12,-8.18 28.12,-9.77 C28.12,-12.32 27.26,-14.42 25.54,-16.07 C23.83,-17.72 21.34,-18.88 18.08,-19.54 C18.08,-19.54 15.51,-20.06 15.51,-20.06 C13.09,-20.55 11.34,-21.21 10.26,-22.04 C9.18,-22.88 8.65,-24 8.65,-25.41 C8.65,-26.42 8.93,-27.3 9.5,-28.05 C10.08,-28.8 10.86,-29.39 11.85,-29.83 C12.84,-30.27 13.99,-30.49 15.31,-30.49 C17.03,-30.49 18.53,-30.04 19.83,-29.14 C21.13,-28.24 22.13,-26.97 22.84,-25.34 C22.84,-25.34 27.59,-26.93 27.59,-26.93 C26.97,-28.6 26.08,-30.05 24.92,-31.28 C23.75,-32.52 22.35,-33.45 20.72,-34.09 C19.1,-34.73 17.31,-35.05 15.38,-35.05 C13.05,-35.05 10.97,-34.62 9.14,-33.76 C7.31,-32.9 5.9,-31.7 4.88,-30.16 C3.87,-28.62 3.37,-26.86 3.37,-24.88 C3.37,-22.42 4.22,-20.38 5.94,-18.78 C7.66,-17.17 10.32,-16.02 13.93,-15.31 C13.93,-15.31 16.5,-14.78 16.5,-14.78 C20.64,-13.95 22.7,-12.1 22.7,-9.24 C22.7,-8.18 22.4,-7.23 21.78,-6.37 C21.16,-5.51 20.31,-4.84 19.21,-4.36 C18.11,-3.87 16.83,-3.63 15.38,-3.63 C13.57,-3.63 11.97,-4.09 10.56,-5.02 C9.15,-5.94 8.01,-7.24 7.13,-8.91 C7.13,-8.91 2.38,-7.19 2.38,-7.19 C3.04,-5.52 4,-4.07 5.28,-2.84 C6.56,-1.61 8.06,-0.66 9.8,0 C11.54,0.66 13.4,0.99 15.38,0.99 C17.23,0.99 18.93,0.73 20.49,0.2z"/><g id="l_d_189" opacity="1" transform="matrix(0.6600000262260437,0,0,0.6600000262260437,0,0)"/></g></g></g><g id="l_d_190" stroke-linecap="butt" stroke-linejoin="round" stroke-miterlimit="4" transform="matrix(1,0,0,1,119.32799530029297,0)" opacity="1" style="display: inherit;"><g id="l_d_191"><g id="l_d_192" transform="matrix(1,0,0,1,0,0)" opacity="1" style="display: block;"><path id="l_d_196" d=" M21.52,0.36 C22.75,-0.05 23.83,-0.59 24.75,-1.25 C24.75,-1.25 23.17,-5.35 23.17,-5.35 C22.42,-4.86 21.57,-4.48 20.63,-4.19 C19.68,-3.9 18.74,-3.76 17.82,-3.76 C16.06,-3.76 14.75,-4.32 13.89,-5.45 C13.04,-6.57 12.61,-8.14 12.61,-10.16 C12.61,-10.16 12.61,-29.57 12.61,-29.57 C12.61,-29.57 23.3,-29.57 23.3,-29.57 C23.3,-29.57 23.3,-34.06 23.3,-34.06 C23.3,-34.06 12.61,-34.06 12.61,-34.06 C12.61,-34.06 12.61,-45.47 12.61,-45.47 C12.61,-45.47 7.33,-45.47 7.33,-45.47 C7.33,-45.47 7.33,-34.06 7.33,-34.06 C7.33,-34.06 1.06,-34.06 1.06,-34.06 C1.06,-34.06 1.06,-29.57 1.06,-29.57 C1.06,-29.57 7.33,-29.57 7.33,-29.57 C7.33,-29.57 7.33,-9.9 7.33,-9.9 C7.33,-7.57 7.73,-5.59 8.55,-3.96 C9.36,-2.33 10.52,-1.1 12.01,-0.26 C13.51,0.57 15.29,0.99 17.36,0.99 C18.9,0.99 20.28,0.78 21.52,0.36z"/><g id="l_d_197" opacity="1" transform="matrix(0.6600000262260437,0,0,0.6600000262260437,0,0)"/></g></g></g><g id="l_d_198" stroke-linecap="butt" stroke-linejoin="round" stroke-miterlimit="4" transform="matrix(1,0,0,1,143.02200317382812,0)" opacity="1" style="display: inherit;"><g id="l_d_199"><g id="l_d_200" transform="matrix(1,0,0,1,0,0)" opacity="1" style="display: block;"><path id="l_d_204" d=" M20.49,0.2 C22.05,-0.33 23.4,-1.08 24.52,-2.05 C25.64,-3.01 26.52,-4.15 27.16,-5.45 C27.8,-6.74 28.12,-8.18 28.12,-9.77 C28.12,-12.32 27.26,-14.42 25.54,-16.07 C23.83,-17.72 21.34,-18.88 18.08,-19.54 C18.08,-19.54 15.51,-20.06 15.51,-20.06 C13.09,-20.55 11.34,-21.21 10.26,-22.04 C9.18,-22.88 8.65,-24 8.65,-25.41 C8.65,-26.42 8.93,-27.3 9.5,-28.05 C10.08,-28.8 10.86,-29.39 11.85,-29.83 C12.84,-30.27 13.99,-30.49 15.31,-30.49 C17.03,-30.49 18.53,-30.04 19.83,-29.14 C21.13,-28.24 22.13,-26.97 22.84,-25.34 C22.84,-25.34 27.59,-26.93 27.59,-26.93 C26.97,-28.6 26.08,-30.05 24.92,-31.28 C23.75,-32.52 22.35,-33.45 20.72,-34.09 C19.1,-34.73 17.31,-35.05 15.38,-35.05 C13.05,-35.05 10.97,-34.62 9.14,-33.76 C7.31,-32.9 5.9,-31.7 4.88,-30.16 C3.87,-28.62 3.37,-26.86 3.37,-24.88 C3.37,-22.42 4.22,-20.38 5.94,-18.78 C7.66,-17.17 10.32,-16.02 13.93,-15.31 C13.93,-15.31 16.5,-14.78 16.5,-14.78 C20.64,-13.95 22.7,-12.1 22.7,-9.24 C22.7,-8.18 22.4,-7.23 21.78,-6.37 C21.16,-5.51 20.31,-4.84 19.21,-4.36 C18.11,-3.87 16.83,-3.63 15.38,-3.63 C13.57,-3.63 11.97,-4.09 10.56,-5.02 C9.15,-5.94 8.01,-7.24 7.13,-8.91 C7.13,-8.91 2.38,-7.19 2.38,-7.19 C3.04,-5.52 4,-4.07 5.28,-2.84 C6.56,-1.61 8.06,-0.66 9.8,0 C11.54,0.66 13.4,0.99 15.38,0.99 C17.23,0.99 18.93,0.73 20.49,0.2z"/><g id="l_d_205" opacity="1" transform="matrix(0.6600000262260437,0,0,0.6600000262260437,0,0)"/></g></g></g></g></g></svg>