<svg width="250" height="00" viewBox="0 0 2500 734" fill="none" xmlns="http://www.w3.org/2000/svg">
<path d="M329.916 213.75C329.916 213.75 330.583 214.417 331.083 214.417C337.166 214.417 343.083 215.667 349.083 216.417C359.416 217.75 369.5 220.167 379.583 223.083C395 227.5 409.666 233.75 423.833 241.083C424.25 241.333 424.666 241.5 425 241.75C425.166 241.833 425.25 242.083 425.833 243C415.833 238.417 406.333 234.25 396.5 230.917C386.5 227.583 376.333 224.833 366 222.667C355.916 220.583 345.75 218.833 335.416 218.083C346.583 220.75 357.583 223.917 368.083 228.5C378.166 232.917 387.666 238.583 396.166 245.75C398.333 247.583 400.5 249.5 402.5 251.5C416.083 264.833 424.166 281.083 428 299.667C429.75 308.167 430.417 316.667 429.833 325.25C429.167 334.667 427.666 344.083 425 353.167C422.583 361.417 419.333 369.417 415.5 377.083C408.583 390.833 399.5 403.083 387.916 413.167C381 419.25 373.167 424 364.5 427.333C358.167 429.833 351.667 431.667 345 432.667C337.917 433.75 330.667 433.833 323.417 433.083C312.833 431.917 303.416 428 294.666 422.417C286.083 416.917 278.916 409.667 274.416 400.417C271 393.5 268.75 386.167 268.5 378.333C268.5 376.167 267.75 374.083 267.833 371.833C268.416 358.333 272 345.833 281 335.417C286.667 328.917 293 323.083 301 319.417C302.75 318.583 304.416 317.667 306.583 316.583C304.166 315.25 302 315.417 299.917 315C290.75 313.333 281.416 313.417 272.166 313.583C259.166 313.833 246.75 316.75 235.25 323C227.416 327.25 220.916 333.167 215.166 340.083C206.583 350.417 201.833 362.5 198.917 375.333C197.833 380 197.333 384.75 196.583 389.5C195.916 393.833 196.75 398.25 195.417 402.5C194.833 404.5 194.5 405 192.583 405.25C191.667 405.333 190.75 405.25 189.833 405.25C174 405.25 158.083 405.25 142.25 405.25C141.416 405.25 140.667 405.25 139.833 405.25C138.167 405.167 137.25 405.75 136.5 407.5C133.916 413.917 131.916 420.417 130.5 427.167C128.583 436.5 128.667 445.917 129.25 455.25C129.833 464.583 132.333 473.75 135.75 482.5C137.167 486.25 137.833 486.583 141.917 486.583C158.167 486.583 174.333 486.583 190.583 486.583C191.417 486.583 192.166 486.583 193 486.583C195.666 486.667 196 487 196.083 489.5C196.083 490.417 196.083 491.333 196.083 492.25C196.083 506.5 199.083 520.167 204.583 533.25C208.583 542.833 214.166 551.25 221.583 558.417C230.666 567.083 241.5 572.583 253.75 575.417C258.666 576.5 263.667 577.083 268.667 577.667C273.25 578.167 277.833 578.25 282.416 578.167C286.25 578.167 290.166 577.417 294 577.083C298.25 576.667 302.333 575.75 307.25 575.25C304.416 573.833 302.166 572.583 299.833 571.5C294.666 569.083 290.25 565.583 286.25 561.667C277.5 553.167 271.583 543 269.25 530.833C268.083 524.75 267.666 518.75 268.333 512.5C269.5 502.583 272.75 493.583 278.167 485.333C282.167 479.25 287.5 474.417 293.333 470C302.083 463.333 312.166 460.25 322.75 458.417C325 458 327.333 458.417 329.667 458.25C333.917 457.75 338.166 458 342.25 458.5C349.833 459.333 357.25 461.25 364.5 464.167C372.333 467.333 379.5 471.667 386 476.917C396.666 485.5 405.083 495.917 411.75 507.917C416.333 516.167 420.5 524.583 423.416 533.5C425.916 541.083 427.75 548.833 428.75 556.833C429.416 562.5 430.083 568.167 430 573.917C429.833 582.75 428.5 591.417 426.083 599.917C424.416 605.667 422.5 611.25 419.75 616.583C415.583 624.583 410.416 631.75 404.166 638.25C397 645.667 389.083 652 380.166 657.083C374 660.583 367.5 663.5 360.75 665.917C353.166 668.583 345.416 670.583 337.666 672.583C337.333 672.583 337.083 672.833 336.833 673.167C352.083 671.833 367.083 669 381.833 665C396.583 661 410.75 655.75 424.833 649.083C424.416 650.583 423.416 650.667 422.666 651.083C408.75 658.5 394.083 664.25 379 668.667C370.083 671.25 361.083 673.25 351.916 674.75C345.5 675.833 339 676.25 332.583 677.333C332.5 677.333 332.333 677.333 332.25 677.333C324.25 677.333 316.166 678.917 308.166 677.917C303.166 677.333 298.166 677.5 293.083 676.917C288.416 676.417 283.833 675.583 279.166 675.167C275 674.75 270.833 673.75 266.666 672.917C256.916 670.917 247.25 668.25 237.833 664.917C231 662.5 224.333 659.75 217.75 656.833C204.666 651.083 192.5 643.75 180.833 635.667C175.583 632 170.583 628 165.583 624C159 618.75 153.166 612.833 147.166 606.917C139.5 599.333 132.75 591 126.333 582.333C120.25 574 114.666 565.333 109.75 556.25C101.75 541.667 95.5832 526.5 90.9998 510.583C89.0832 504.083 87.3332 497.583 86.0832 490.917C85.0832 485.417 84.0832 479.917 83.4165 474.333C82.6665 468.417 81.9165 462.583 82.0832 456.583C82.0832 455.917 82.0832 455.167 81.4165 454.75V435.417C82.0832 435 82.0832 434.25 82.0832 433.583C82.0832 430.167 82.3332 426.75 82.6665 423.333C83.1665 418 84.0832 412.75 84.8332 407.417C86.4165 396.083 89.4165 385 92.8332 374.167C95.1665 366.833 97.9998 359.75 101.083 352.667C105.667 342.417 110.667 332.333 116.75 322.917C121.333 315.833 126.083 308.833 131.417 302.167C136.5 295.833 141.833 289.75 147.417 283.75C152.333 278.5 157.917 273.833 163.333 269.083C169.083 264 175.167 259.333 181.417 254.917C194.916 245.583 209.166 237.5 224.416 231.333C233.833 227.5 243.5 224.083 253.333 221.417C260.833 219.417 268.417 217.667 276.083 216.417C279.667 215.833 283.333 215.333 286.916 214.917C290.666 214.5 294.416 213.917 298.166 214.167C298.666 214.167 299 213.917 299.333 213.5H329.667L329.916 213.75ZM354.5 572.833C362.416 573.167 368.416 566.833 368.5 559.083C368.5 552 362.166 545.417 354.916 545.583C346.75 545.75 341.25 551.083 341.166 558.833C341 566.333 346.166 572.667 354.583 572.833H354.5ZM354.583 335.083C361.916 335.833 368.583 328.75 368.5 322C368.5 313.333 361.083 308.167 354.833 308.083C347.25 308 340.916 314.5 340.916 321.667C340.916 329 347.416 335.667 354.5 335.083H354.583Z" fill="#FF0077"/>
<path d="M456.833 262.917C494.25 292.333 521 329.333 535.5 374.667C551.667 425.083 550.583 475.333 532.666 525.167C515.666 572.333 484.917 607.333 457.75 628.083C458.417 626.5 459.417 625.667 460.333 625C462.417 623.5 463.917 621.5 465.667 619.75C471.75 613.833 476.583 607.083 481.083 600C485.25 593.583 488.5 586.75 491.25 579.75C494.417 571.75 496.5 563.417 497.667 554.917C498.25 550.75 498.583 546.5 499.083 542.333C499.583 538 499.583 533.667 499.583 529.333C499.583 523.833 498.75 518.417 498.333 512.917C497.583 503.5 495.5 494.417 493.333 485.333C492.417 481.417 491.25 477.583 490 473.75C487.583 466 485.083 458.25 482.5 450.5C481.5 447.417 481.5 444.5 482.5 441.417C485.5 432.5 488.75 423.667 491.25 414.583C493.25 407.417 494.917 400.167 496.167 392.833C497.083 387.583 497.583 382.167 498.667 377C498.667 376.667 498.833 376.333 498.75 376C498.333 370.583 499.667 365.25 499.417 359.917C499.167 353.833 498.833 347.833 498.166 341.833C497.25 333 495.417 324.417 492.583 316.083C488.833 305.25 483.75 295.25 477.083 285.917C472.667 279.75 467.75 274 462.417 268.667C460.5 266.75 457.917 265.5 456.667 262.917H456.833Z" fill="#FF0077"/>
<path d="M658.091 495V401.909H695.364C702.212 401.909 707.924 402.924 712.5 404.955C717.076 406.985 720.515 409.803 722.818 413.409C725.121 416.985 726.273 421.106 726.273 425.773C726.273 429.409 725.545 432.606 724.091 435.364C722.636 438.091 720.636 440.333 718.091 442.091C715.576 443.818 712.697 445.045 709.455 445.773V446.682C713 446.833 716.318 447.833 719.409 449.682C722.53 451.53 725.061 454.121 727 457.455C728.939 460.758 729.909 464.697 729.909 469.273C729.909 474.212 728.682 478.621 726.227 482.5C723.803 486.348 720.212 489.394 715.455 491.636C710.697 493.879 704.833 495 697.864 495H658.091ZM677.773 478.909H693.818C699.303 478.909 703.303 477.864 705.818 475.773C708.333 473.652 709.591 470.833 709.591 467.318C709.591 464.742 708.97 462.47 707.727 460.5C706.485 458.53 704.712 456.985 702.409 455.864C700.136 454.742 697.424 454.182 694.273 454.182H677.773V478.909ZM677.773 440.864H692.364C695.061 440.864 697.455 440.394 699.545 439.455C701.667 438.485 703.333 437.121 704.545 435.364C705.788 433.606 706.409 431.5 706.409 429.045C706.409 425.682 705.212 422.97 702.818 420.909C700.455 418.848 697.091 417.818 692.727 417.818H677.773V440.864ZM786.97 496.364C779.789 496.364 773.607 494.909 768.425 492C763.273 489.061 759.304 484.909 756.516 479.545C753.728 474.152 752.334 467.773 752.334 460.409C752.334 453.227 753.728 446.924 756.516 441.5C759.304 436.076 763.228 431.848 768.289 428.818C773.38 425.788 779.349 424.273 786.198 424.273C790.804 424.273 795.092 425.015 799.061 426.5C803.061 427.955 806.546 430.152 809.516 433.091C812.516 436.03 814.849 439.727 816.516 444.182C818.183 448.606 819.016 453.788 819.016 459.727V465.045H760.061V453.045H800.789C800.789 450.258 800.183 447.788 798.97 445.636C797.758 443.485 796.077 441.803 793.925 440.591C791.804 439.348 789.334 438.727 786.516 438.727C783.577 438.727 780.97 439.409 778.698 440.773C776.455 442.106 774.698 443.909 773.425 446.182C772.152 448.424 771.501 450.924 771.47 453.682V465.091C771.47 468.545 772.107 471.53 773.38 474.045C774.683 476.561 776.516 478.5 778.88 479.864C781.243 481.227 784.046 481.909 787.289 481.909C789.44 481.909 791.41 481.606 793.198 481C794.986 480.394 796.516 479.485 797.789 478.273C799.061 477.061 800.031 475.576 800.698 473.818L818.607 475C817.698 479.303 815.834 483.061 813.016 486.273C810.228 489.455 806.622 491.939 802.198 493.727C797.804 495.485 792.728 496.364 786.97 496.364ZM864.361 496.318C859.907 496.318 855.937 495.545 852.452 494C848.967 492.424 846.21 490.106 844.18 487.045C842.18 483.955 841.18 480.106 841.18 475.5C841.18 471.621 841.892 468.364 843.316 465.727C844.74 463.091 846.68 460.97 849.134 459.364C851.589 457.758 854.377 456.545 857.498 455.727C860.649 454.909 863.952 454.333 867.407 454C871.467 453.576 874.74 453.182 877.225 452.818C879.71 452.424 881.513 451.848 882.634 451.091C883.755 450.333 884.316 449.212 884.316 447.727V447.455C884.316 444.576 883.407 442.348 881.589 440.773C879.801 439.197 877.255 438.409 873.952 438.409C870.467 438.409 867.695 439.182 865.634 440.727C863.573 442.242 862.21 444.152 861.543 446.455L843.634 445C844.543 440.758 846.331 437.091 848.998 434C851.664 430.879 855.104 428.485 859.316 426.818C863.558 425.121 868.467 424.273 874.043 424.273C877.922 424.273 881.634 424.727 885.18 425.636C888.755 426.545 891.922 427.955 894.68 429.864C897.467 431.773 899.664 434.227 901.27 437.227C902.877 440.197 903.68 443.758 903.68 447.909V495H885.316V485.318H884.77C883.649 487.5 882.149 489.424 880.27 491.091C878.392 492.727 876.134 494.015 873.498 494.955C870.861 495.864 867.816 496.318 864.361 496.318ZM869.907 482.955C872.755 482.955 875.27 482.394 877.452 481.273C879.634 480.121 881.346 478.576 882.589 476.636C883.831 474.697 884.452 472.5 884.452 470.045V462.636C883.846 463.03 883.013 463.394 881.952 463.727C880.922 464.03 879.755 464.318 878.452 464.591C877.149 464.833 875.846 465.061 874.543 465.273C873.24 465.455 872.058 465.621 870.998 465.773C868.725 466.106 866.74 466.636 865.043 467.364C863.346 468.091 862.028 469.076 861.089 470.318C860.149 471.53 859.68 473.045 859.68 474.864C859.68 477.5 860.634 479.515 862.543 480.909C864.483 482.273 866.937 482.955 869.907 482.955ZM976.275 465.273V425.182H995.639V495H977.048V482.318H976.32C974.745 486.409 972.123 489.697 968.457 492.182C964.82 494.667 960.381 495.909 955.139 495.909C950.472 495.909 946.366 494.848 942.82 492.727C939.275 490.606 936.502 487.591 934.502 483.682C932.533 479.773 931.533 475.091 931.502 469.636V425.182H950.866V466.182C950.896 470.303 952.002 473.561 954.184 475.955C956.366 478.348 959.29 479.545 962.957 479.545C965.29 479.545 967.472 479.015 969.502 477.955C971.533 476.864 973.169 475.258 974.411 473.136C975.684 471.015 976.305 468.394 976.275 465.273ZM1061.06 425.182V439.727H1019.02V425.182H1061.06ZM1028.56 408.455H1047.93V473.545C1047.93 475.333 1048.2 476.727 1048.75 477.727C1049.29 478.697 1050.05 479.379 1051.02 479.773C1052.02 480.167 1053.17 480.364 1054.47 480.364C1055.38 480.364 1056.29 480.288 1057.2 480.136C1058.11 479.955 1058.81 479.818 1059.29 479.727L1062.34 494.136C1061.37 494.439 1060 494.788 1058.25 495.182C1056.49 495.606 1054.35 495.864 1051.84 495.955C1047.17 496.136 1043.08 495.515 1039.56 494.091C1036.08 492.667 1033.37 490.455 1031.43 487.455C1029.49 484.455 1028.53 480.667 1028.56 476.091V408.455ZM1117.27 496.364C1110.21 496.364 1104.11 494.864 1098.95 491.864C1093.83 488.833 1089.88 484.621 1087.09 479.227C1084.3 473.803 1082.91 467.515 1082.91 460.364C1082.91 453.152 1084.3 446.848 1087.09 441.455C1089.88 436.03 1093.83 431.818 1098.95 428.818C1104.11 425.788 1110.21 424.273 1117.27 424.273C1124.33 424.273 1130.42 425.788 1135.55 428.818C1140.7 431.818 1144.67 436.03 1147.45 441.455C1150.24 446.848 1151.64 453.152 1151.64 460.364C1151.64 467.515 1150.24 473.803 1147.45 479.227C1144.67 484.621 1140.7 488.833 1135.55 491.864C1130.42 494.864 1124.33 496.364 1117.27 496.364ZM1117.36 481.364C1120.58 481.364 1123.26 480.455 1125.41 478.636C1127.56 476.788 1129.18 474.273 1130.27 471.091C1131.39 467.909 1131.95 464.288 1131.95 460.227C1131.95 456.167 1131.39 452.545 1130.27 449.364C1129.18 446.182 1127.56 443.667 1125.41 441.818C1123.26 439.97 1120.58 439.045 1117.36 439.045C1114.12 439.045 1111.39 439.97 1109.18 441.818C1107 443.667 1105.35 446.182 1104.23 449.364C1103.14 452.545 1102.59 456.167 1102.59 460.227C1102.59 464.288 1103.14 467.909 1104.23 471.091C1105.35 474.273 1107 476.788 1109.18 478.636C1111.39 480.455 1114.12 481.364 1117.36 481.364ZM1196.39 454.636V495H1177.03V425.182H1195.48V437.5H1196.3C1197.85 433.439 1200.44 430.227 1204.07 427.864C1207.71 425.47 1212.12 424.273 1217.3 424.273C1222.15 424.273 1226.38 425.333 1229.98 427.455C1233.59 429.576 1236.39 432.606 1238.39 436.545C1240.39 440.455 1241.39 445.121 1241.39 450.545V495H1222.03V454C1222.06 449.727 1220.97 446.394 1218.75 444C1216.54 441.576 1213.5 440.364 1209.62 440.364C1207.01 440.364 1204.71 440.924 1202.71 442.045C1200.74 443.167 1199.19 444.803 1198.07 446.955C1196.98 449.076 1196.42 451.636 1196.39 454.636ZM1301 496.364C1293.94 496.364 1287.83 494.864 1282.68 491.864C1277.56 488.833 1273.6 484.621 1270.82 479.227C1268.03 473.803 1266.63 467.515 1266.63 460.364C1266.63 453.152 1268.03 446.848 1270.82 441.455C1273.6 436.03 1277.56 431.818 1282.68 428.818C1287.83 425.788 1293.94 424.273 1301 424.273C1308.06 424.273 1314.15 425.788 1319.27 428.818C1324.42 431.818 1328.39 436.03 1331.18 441.455C1333.97 446.848 1335.36 453.152 1335.36 460.364C1335.36 467.515 1333.97 473.803 1331.18 479.227C1328.39 484.621 1324.42 488.833 1319.27 491.864C1314.15 494.864 1308.06 496.364 1301 496.364ZM1301.09 481.364C1304.3 481.364 1306.98 480.455 1309.13 478.636C1311.29 476.788 1312.91 474.273 1314 471.091C1315.12 467.909 1315.68 464.288 1315.68 460.227C1315.68 456.167 1315.12 452.545 1314 449.364C1312.91 446.182 1311.29 443.667 1309.13 441.818C1306.98 439.97 1304.3 439.045 1301.09 439.045C1297.85 439.045 1295.12 439.97 1292.91 441.818C1290.72 443.667 1289.07 446.182 1287.95 449.364C1286.86 452.545 1286.32 456.167 1286.32 460.227C1286.32 464.288 1286.86 467.909 1287.95 471.091C1289.07 474.273 1290.72 476.788 1292.91 478.636C1295.12 480.455 1297.85 481.364 1301.09 481.364ZM1360.75 495V425.182H1379.21V437.5H1380.03C1381.48 433.409 1383.9 430.182 1387.3 427.818C1390.69 425.455 1394.75 424.273 1399.48 424.273C1404.27 424.273 1408.34 425.47 1411.71 427.864C1415.07 430.227 1417.31 433.439 1418.43 437.5H1419.16C1420.59 433.5 1423.16 430.303 1426.89 427.909C1430.65 425.485 1435.09 424.273 1440.21 424.273C1446.72 424.273 1452.01 426.348 1456.07 430.5C1460.16 434.621 1462.21 440.47 1462.21 448.045V495H1442.89V451.864C1442.89 447.985 1441.86 445.076 1439.8 443.136C1437.74 441.197 1435.16 440.227 1432.07 440.227C1428.56 440.227 1425.81 441.348 1423.84 443.591C1421.87 445.803 1420.89 448.727 1420.89 452.364V495H1402.12V451.455C1402.12 448.03 1401.13 445.303 1399.16 443.273C1397.22 441.242 1394.66 440.227 1391.48 440.227C1389.33 440.227 1387.39 440.773 1385.66 441.864C1383.96 442.924 1382.62 444.424 1381.62 446.364C1380.62 448.273 1380.12 450.515 1380.12 453.091V495H1360.75ZM1490.3 495V425.182H1509.67V495H1490.3ZM1500.03 416.182C1497.15 416.182 1494.68 415.227 1492.62 413.318C1490.59 411.379 1489.58 409.061 1489.58 406.364C1489.58 403.697 1490.59 401.409 1492.62 399.5C1494.68 397.561 1497.15 396.591 1500.03 396.591C1502.91 396.591 1505.36 397.561 1507.39 399.5C1509.45 401.409 1510.48 403.697 1510.48 406.364C1510.48 409.061 1509.45 411.379 1507.39 413.318C1505.36 415.227 1502.91 416.182 1500.03 416.182Z" fill="#FF0077"/>
</svg>
