<svg width="250" height="00" viewBox="0 0 2500 734" fill="none" xmlns="http://www.w3.org/2000/svg">
<path d="M329.917 213.75C329.917 213.75 330.583 214.417 331.083 214.417C337.167 214.417 343.083 215.667 349.083 216.417C359.417 217.75 369.5 220.167 379.583 223.083C395 227.5 409.667 233.75 423.833 241.083C424.25 241.333 424.667 241.5 425 241.75C425.167 241.833 425.25 242.083 425.833 243C415.833 238.417 406.333 234.25 396.5 230.917C386.5 227.583 376.333 224.833 366 222.667C355.917 220.583 345.75 218.833 335.417 218.083C346.583 220.75 357.583 223.917 368.083 228.5C378.167 232.917 387.667 238.583 396.167 245.75C398.333 247.583 400.5 249.5 402.5 251.5C416.083 264.833 424.167 281.083 428 299.667C429.75 308.167 430.417 316.667 429.833 325.25C429.167 334.667 427.667 344.083 425 353.167C422.583 361.417 419.333 369.417 415.5 377.083C408.583 390.833 399.5 403.083 387.917 413.167C381 419.25 373.167 424 364.5 427.333C358.167 429.833 351.667 431.667 345 432.667C337.917 433.75 330.667 433.833 323.417 433.083C312.833 431.917 303.417 428 294.667 422.417C286.083 416.917 278.917 409.667 274.417 400.417C271 393.5 268.75 386.167 268.5 378.333C268.5 376.167 267.75 374.083 267.833 371.833C268.417 358.333 272 345.833 281 335.417C286.667 328.917 293 323.083 301 319.417C302.75 318.583 304.417 317.667 306.583 316.583C304.167 315.25 302 315.417 299.917 315C290.75 313.333 281.417 313.417 272.167 313.583C259.167 313.833 246.75 316.75 235.25 323C227.417 327.25 220.917 333.167 215.167 340.083C206.583 350.417 201.833 362.5 198.917 375.333C197.833 380 197.333 384.75 196.583 389.5C195.917 393.833 196.75 398.25 195.417 402.5C194.833 404.5 194.5 405 192.583 405.25C191.667 405.333 190.75 405.25 189.833 405.25C174 405.25 158.083 405.25 142.25 405.25C141.417 405.25 140.667 405.25 139.833 405.25C138.167 405.167 137.25 405.75 136.5 407.5C133.917 413.917 131.917 420.417 130.5 427.167C128.583 436.5 128.667 445.917 129.25 455.25C129.833 464.583 132.333 473.75 135.75 482.5C137.167 486.25 137.833 486.583 141.917 486.583C158.167 486.583 174.333 486.583 190.583 486.583C191.417 486.583 192.167 486.583 193 486.583C195.667 486.667 196 487 196.083 489.5C196.083 490.417 196.083 491.333 196.083 492.25C196.083 506.5 199.083 520.167 204.583 533.25C208.583 542.833 214.167 551.25 221.583 558.417C230.667 567.083 241.5 572.583 253.75 575.417C258.667 576.5 263.667 577.083 268.667 577.667C273.25 578.167 277.833 578.25 282.417 578.167C286.25 578.167 290.167 577.417 294 577.083C298.25 576.667 302.333 575.75 307.25 575.25C304.417 573.833 302.167 572.583 299.833 571.5C294.667 569.083 290.25 565.583 286.25 561.667C277.5 553.167 271.583 543 269.25 530.833C268.083 524.75 267.667 518.75 268.333 512.5C269.5 502.583 272.75 493.583 278.167 485.333C282.167 479.25 287.5 474.417 293.333 470C302.083 463.333 312.167 460.25 322.75 458.417C325 458 327.333 458.417 329.667 458.25C333.917 457.75 338.167 458 342.25 458.5C349.833 459.333 357.25 461.25 364.5 464.167C372.333 467.333 379.5 471.667 386 476.917C396.667 485.5 405.083 495.917 411.75 507.917C416.333 516.167 420.5 524.583 423.417 533.5C425.917 541.083 427.75 548.833 428.75 556.833C429.417 562.5 430.083 568.167 430 573.917C429.833 582.75 428.5 591.417 426.083 599.917C424.417 605.667 422.5 611.25 419.75 616.583C415.583 624.583 410.417 631.75 404.167 638.25C397 645.667 389.083 652 380.167 657.083C374 660.583 367.5 663.5 360.75 665.917C353.167 668.583 345.417 670.583 337.667 672.583C337.333 672.583 337.083 672.833 336.833 673.167C352.083 671.833 367.083 669 381.833 665C396.583 661 410.75 655.75 424.833 649.083C424.417 650.583 423.417 650.667 422.667 651.083C408.75 658.5 394.083 664.25 379 668.667C370.083 671.25 361.083 673.25 351.917 674.75C345.5 675.833 339 676.25 332.583 677.333C332.5 677.333 332.333 677.333 332.25 677.333C324.25 677.333 316.167 678.917 308.167 677.917C303.167 677.333 298.167 677.5 293.083 676.917C288.417 676.417 283.833 675.583 279.167 675.167C275 674.75 270.833 673.75 266.667 672.917C256.917 670.917 247.25 668.25 237.833 664.917C231 662.5 224.333 659.75 217.75 656.833C204.667 651.083 192.5 643.75 180.833 635.667C175.583 632 170.583 628 165.583 624C159 618.75 153.167 612.833 147.167 606.917C139.5 599.333 132.75 591 126.333 582.333C120.25 574 114.667 565.333 109.75 556.25C101.75 541.667 95.5833 526.5 91 510.583C89.0833 504.083 87.3333 497.583 86.0833 490.917C85.0833 485.417 84.0833 479.917 83.4167 474.333C82.6667 468.417 81.9167 462.583 82.0833 456.583C82.0833 455.917 82.0833 455.167 81.4167 454.75V435.417C82.0833 435 82.0833 434.25 82.0833 433.583C82.0833 430.167 82.3333 426.75 82.6667 423.333C83.1667 418 84.0833 412.75 84.8333 407.417C86.4167 396.083 89.4167 385 92.8333 374.167C95.1667 366.833 98 359.75 101.083 352.667C105.667 342.417 110.667 332.333 116.75 322.917C121.333 315.833 126.083 308.833 131.417 302.167C136.5 295.833 141.833 289.75 147.417 283.75C152.333 278.5 157.917 273.833 163.333 269.083C169.083 264 175.167 259.333 181.417 254.917C194.917 245.583 209.167 237.5 224.417 231.333C233.833 227.5 243.5 224.083 253.333 221.417C260.833 219.417 268.417 217.667 276.083 216.417C279.667 215.833 283.333 215.333 286.917 214.917C290.667 214.5 294.417 213.917 298.167 214.167C298.667 214.167 299 213.917 299.333 213.5H329.667L329.917 213.75ZM354.5 572.833C362.417 573.167 368.417 566.833 368.5 559.083C368.5 552 362.167 545.417 354.917 545.583C346.75 545.75 341.25 551.083 341.167 558.833C341 566.333 346.167 572.667 354.583 572.833H354.5ZM354.583 335.083C361.917 335.833 368.583 328.75 368.5 322C368.5 313.333 361.083 308.167 354.833 308.083C347.25 308 340.917 314.5 340.917 321.667C340.917 329 347.417 335.667 354.5 335.083H354.583Z" fill="#FF0077"/>
<path d="M456.833 262.917C494.25 292.333 521 329.333 535.5 374.667C551.667 425.083 550.583 475.333 532.667 525.167C515.667 572.333 484.917 607.333 457.75 628.083C458.417 626.5 459.417 625.667 460.333 625C462.417 623.5 463.917 621.5 465.667 619.75C471.75 613.833 476.583 607.083 481.083 600C485.25 593.583 488.5 586.75 491.25 579.75C494.417 571.75 496.5 563.417 497.667 554.917C498.25 550.75 498.583 546.5 499.083 542.333C499.583 538 499.583 533.667 499.583 529.333C499.583 523.833 498.75 518.417 498.333 512.917C497.583 503.5 495.5 494.417 493.333 485.333C492.417 481.417 491.25 477.583 490 473.75C487.583 466 485.083 458.25 482.5 450.5C481.5 447.417 481.5 444.5 482.5 441.417C485.5 432.5 488.75 423.667 491.25 414.583C493.25 407.417 494.917 400.167 496.167 392.833C497.083 387.583 497.583 382.167 498.667 377C498.667 376.667 498.833 376.333 498.75 376C498.333 370.583 499.667 365.25 499.417 359.917C499.167 353.833 498.833 347.833 498.167 341.833C497.25 333 495.417 324.417 492.583 316.083C488.833 305.25 483.75 295.25 477.083 285.917C472.667 279.75 467.75 274 462.417 268.667C460.5 266.75 457.917 265.5 456.667 262.917H456.833Z" fill="#FF0077"/>
<path d="M809.2 495V401.909H849.564C856.655 401.909 862.609 402.864 867.427 404.773C872.276 406.682 875.927 409.379 878.382 412.864C880.867 416.348 882.109 420.455 882.109 425.182C882.109 428.606 881.352 431.727 879.836 434.545C878.352 437.364 876.261 439.727 873.564 441.636C870.867 443.515 867.715 444.818 864.109 445.545V446.455C868.109 446.606 871.745 447.621 875.018 449.5C878.291 451.348 880.897 453.909 882.836 457.182C884.776 460.424 885.745 464.242 885.745 468.636C885.745 473.727 884.412 478.258 881.745 482.227C879.109 486.197 875.352 489.318 870.473 491.591C865.594 493.864 859.776 495 853.018 495H809.2ZM834.473 474.818H846.291C850.533 474.818 853.715 474.03 855.836 472.455C857.958 470.848 859.018 468.485 859.018 465.364C859.018 463.182 858.518 461.333 857.518 459.818C856.518 458.303 855.094 457.152 853.245 456.364C851.427 455.576 849.23 455.182 846.655 455.182H834.473V474.818ZM834.473 439.545H844.836C847.048 439.545 849.003 439.197 850.7 438.5C852.397 437.803 853.715 436.803 854.655 435.5C855.624 434.167 856.109 432.545 856.109 430.636C856.109 427.758 855.079 425.561 853.018 424.045C850.958 422.5 848.352 421.727 845.2 421.727H834.473V439.545ZM941.318 496.273C933.864 496.273 927.439 494.848 922.045 492C916.682 489.121 912.545 485 909.636 479.636C906.758 474.242 905.318 467.788 905.318 460.273C905.318 453.061 906.773 446.758 909.682 441.364C912.591 435.97 916.697 431.773 922 428.773C927.303 425.773 933.561 424.273 940.773 424.273C946.045 424.273 950.818 425.091 955.091 426.727C959.364 428.364 963.015 430.742 966.045 433.864C969.076 436.955 971.409 440.712 973.045 445.136C974.682 449.561 975.5 454.545 975.5 460.091V465.909H913.136V452.091H952.409C952.379 450.091 951.864 448.333 950.864 446.818C949.894 445.273 948.576 444.076 946.909 443.227C945.273 442.348 943.409 441.909 941.318 441.909C939.288 441.909 937.424 442.348 935.727 443.227C934.03 444.076 932.667 445.258 931.636 446.773C930.636 448.288 930.106 450.061 930.045 452.091V467C930.045 469.242 930.515 471.242 931.455 473C932.394 474.758 933.742 476.136 935.5 477.136C937.258 478.136 939.379 478.636 941.864 478.636C943.591 478.636 945.167 478.394 946.591 477.909C948.045 477.424 949.288 476.727 950.318 475.818C951.348 474.879 952.106 473.758 952.591 472.455H975.5C974.712 477.303 972.848 481.515 969.909 485.091C966.97 488.636 963.076 491.394 958.227 493.364C953.409 495.303 947.773 496.273 941.318 496.273ZM1017.99 496.091C1013.54 496.091 1009.6 495.364 1006.17 493.909C1002.78 492.424 1000.11 490.182 998.175 487.182C996.236 484.182 995.266 480.364 995.266 475.727C995.266 471.909 995.917 468.652 997.22 465.955C998.523 463.227 1000.34 461 1002.67 459.273C1005.01 457.545 1007.72 456.227 1010.81 455.318C1013.93 454.409 1017.3 453.818 1020.9 453.545C1024.81 453.242 1027.95 452.879 1030.31 452.455C1032.71 452 1034.43 451.379 1035.49 450.591C1036.55 449.773 1037.08 448.697 1037.08 447.364V447.182C1037.08 445.364 1036.39 443.97 1034.99 443C1033.6 442.03 1031.81 441.545 1029.63 441.545C1027.24 441.545 1025.28 442.076 1023.77 443.136C1022.28 444.167 1021.39 445.758 1021.08 447.909H997.993C998.296 443.667 999.645 439.758 1002.04 436.182C1004.46 432.576 1007.99 429.697 1012.63 427.545C1017.27 425.364 1023.05 424.273 1029.99 424.273C1034.99 424.273 1039.48 424.864 1043.45 426.045C1047.42 427.197 1050.8 428.818 1053.58 430.909C1056.37 432.97 1058.49 435.394 1059.95 438.182C1061.43 440.939 1062.17 443.939 1062.17 447.182V495H1038.72V485.182H1038.17C1036.78 487.788 1035.08 489.894 1033.08 491.5C1031.11 493.106 1028.86 494.273 1026.31 495C1023.8 495.727 1021.02 496.091 1017.99 496.091ZM1026.17 480.273C1028.08 480.273 1029.87 479.879 1031.54 479.091C1033.24 478.303 1034.61 477.167 1035.67 475.682C1036.74 474.197 1037.27 472.394 1037.27 470.273V464.455C1036.6 464.727 1035.89 464.985 1035.13 465.227C1034.4 465.47 1033.61 465.697 1032.77 465.909C1031.95 466.121 1031.07 466.318 1030.13 466.5C1029.22 466.682 1028.27 466.848 1027.27 467C1025.33 467.303 1023.74 467.803 1022.49 468.5C1021.28 469.167 1020.37 470 1019.77 471C1019.19 471.97 1018.9 473.061 1018.9 474.273C1018.9 476.212 1019.58 477.697 1020.95 478.727C1022.31 479.758 1024.05 480.273 1026.17 480.273ZM1132.24 464.455V425.182H1157.33V495H1133.51V481.727H1132.78C1131.27 486.182 1128.62 489.667 1124.83 492.182C1121.04 494.667 1116.54 495.909 1111.33 495.909C1106.45 495.909 1102.18 494.788 1098.51 492.545C1094.87 490.303 1092.04 487.212 1090.01 483.273C1088.01 479.333 1086.99 474.818 1086.96 469.727V425.182H1112.05V464.455C1112.08 467.909 1112.96 470.621 1114.69 472.591C1116.45 474.561 1118.9 475.545 1122.05 475.545C1124.15 475.545 1125.95 475.106 1127.46 474.227C1129.01 473.318 1130.19 472.045 1131.01 470.409C1131.86 468.742 1132.27 466.758 1132.24 464.455ZM1224.53 425.182V443.364H1178.53V425.182H1224.53ZM1187.43 408.455H1212.53V472.545C1212.53 473.515 1212.69 474.333 1213.03 475C1213.36 475.636 1213.87 476.121 1214.57 476.455C1215.27 476.758 1216.16 476.909 1217.25 476.909C1218.01 476.909 1218.89 476.818 1219.89 476.636C1220.92 476.455 1221.68 476.303 1222.16 476.182L1225.8 493.818C1224.68 494.152 1223.07 494.561 1220.98 495.045C1218.92 495.53 1216.46 495.848 1213.62 496C1207.86 496.303 1203.03 495.712 1199.12 494.227C1195.21 492.712 1192.27 490.333 1190.3 487.091C1188.33 483.848 1187.37 479.788 1187.43 474.909V408.455ZM1280.45 496.273C1272.87 496.273 1266.39 494.773 1261 491.773C1255.6 488.742 1251.47 484.53 1248.59 479.136C1245.71 473.712 1244.27 467.424 1244.27 460.273C1244.27 453.121 1245.71 446.848 1248.59 441.455C1251.47 436.03 1255.6 431.818 1261 428.818C1266.39 425.788 1272.87 424.273 1280.45 424.273C1288.03 424.273 1294.51 425.788 1299.9 428.818C1305.3 431.818 1309.43 436.03 1312.31 441.455C1315.19 446.848 1316.63 453.121 1316.63 460.273C1316.63 467.424 1315.19 473.712 1312.31 479.136C1309.43 484.53 1305.3 488.742 1299.9 491.773C1294.51 494.773 1288.03 496.273 1280.45 496.273ZM1280.63 477.727C1282.75 477.727 1284.59 477.015 1286.13 475.591C1287.68 474.167 1288.87 472.136 1289.72 469.5C1290.57 466.864 1291 463.727 1291 460.091C1291 456.424 1290.57 453.288 1289.72 450.682C1288.87 448.045 1287.68 446.015 1286.13 444.591C1284.59 443.167 1282.75 442.455 1280.63 442.455C1278.39 442.455 1276.47 443.167 1274.86 444.591C1273.25 446.015 1272.03 448.045 1271.18 450.682C1270.33 453.288 1269.9 456.424 1269.9 460.091C1269.9 463.727 1270.33 466.864 1271.18 469.5C1272.03 472.136 1273.25 474.167 1274.86 475.591C1276.47 477.015 1278.39 477.727 1280.63 477.727ZM1364.7 455.727V495H1339.61V425.182H1363.43V438.455H1364.16C1365.67 434.03 1368.34 430.561 1372.16 428.045C1376.01 425.53 1380.49 424.273 1385.61 424.273C1390.55 424.273 1394.84 425.409 1398.48 427.682C1402.14 429.924 1404.98 433.015 1406.98 436.955C1409.01 440.894 1410.01 445.394 1409.98 450.455V495H1384.89V455.727C1384.92 452.273 1384.04 449.561 1382.25 447.591C1380.49 445.621 1378.04 444.636 1374.89 444.636C1372.83 444.636 1371.02 445.091 1369.48 446C1367.96 446.879 1366.8 448.152 1365.98 449.818C1365.16 451.455 1364.73 453.424 1364.7 455.727ZM1468.8 496.273C1461.22 496.273 1454.74 494.773 1449.35 491.773C1443.95 488.742 1439.82 484.53 1436.94 479.136C1434.06 473.712 1432.62 467.424 1432.62 460.273C1432.62 453.121 1434.06 446.848 1436.94 441.455C1439.82 436.03 1443.95 431.818 1449.35 428.818C1454.74 425.788 1461.22 424.273 1468.8 424.273C1476.38 424.273 1482.86 425.788 1488.25 428.818C1493.65 431.818 1497.78 436.03 1500.66 441.455C1503.54 446.848 1504.98 453.121 1504.98 460.273C1504.98 467.424 1503.54 473.712 1500.66 479.136C1497.78 484.53 1493.65 488.742 1488.25 491.773C1482.86 494.773 1476.38 496.273 1468.8 496.273ZM1468.98 477.727C1471.1 477.727 1472.94 477.015 1474.48 475.591C1476.03 474.167 1477.22 472.136 1478.07 469.5C1478.92 466.864 1479.35 463.727 1479.35 460.091C1479.35 456.424 1478.92 453.288 1478.07 450.682C1477.22 448.045 1476.03 446.015 1474.48 444.591C1472.94 443.167 1471.1 442.455 1468.98 442.455C1466.74 442.455 1464.82 443.167 1463.21 444.591C1461.6 446.015 1460.38 448.045 1459.53 450.682C1458.68 453.288 1458.25 456.424 1458.25 460.091C1458.25 463.727 1458.68 466.864 1459.53 469.5C1460.38 472.136 1461.6 474.167 1463.21 475.591C1464.82 477.015 1466.74 477.727 1468.98 477.727ZM1527.96 495V425.182H1551.78V438.455H1552.51C1553.96 434.091 1556.45 430.636 1559.96 428.091C1563.48 425.545 1567.66 424.273 1572.51 424.273C1577.42 424.273 1581.65 425.576 1585.19 428.182C1588.74 430.758 1590.87 434.182 1591.6 438.455H1592.33C1593.51 434.182 1596.02 430.758 1599.87 428.182C1603.72 425.576 1608.24 424.273 1613.42 424.273C1620.12 424.273 1625.54 426.424 1629.69 430.727C1633.87 435.03 1635.96 440.758 1635.96 447.909V495H1610.87V454.273C1610.87 451.212 1610.1 448.818 1608.55 447.091C1607.01 445.333 1604.93 444.455 1602.33 444.455C1599.75 444.455 1597.71 445.333 1596.19 447.091C1594.71 448.818 1593.96 451.212 1593.96 454.273V495H1569.96V454.273C1569.96 451.212 1569.19 448.818 1567.65 447.091C1566.1 445.333 1564.02 444.455 1561.42 444.455C1559.69 444.455 1558.21 444.848 1556.96 445.636C1555.72 446.424 1554.75 447.561 1554.05 449.045C1553.39 450.5 1553.05 452.242 1553.05 454.273V495H1527.96ZM1661.14 495V425.182H1686.23V495H1661.14ZM1673.68 417.909C1670.29 417.909 1667.38 416.788 1664.96 414.545C1662.53 412.303 1661.32 409.606 1661.32 406.455C1661.32 403.303 1662.53 400.606 1664.96 398.364C1667.38 396.121 1670.29 395 1673.68 395C1677.11 395 1680.02 396.121 1682.41 398.364C1684.84 400.606 1686.05 403.303 1686.05 406.455C1686.05 409.606 1684.84 412.303 1682.41 414.545C1680.02 416.788 1677.11 417.909 1673.68 417.909ZM1775.02 401.909V495H1749.75V401.909H1775.02ZM1825.25 455.727V495H1800.16V425.182H1823.98V438.455H1824.71C1826.22 434.03 1828.89 430.561 1832.71 428.045C1836.56 425.53 1841.04 424.273 1846.16 424.273C1851.1 424.273 1855.39 425.409 1859.03 427.682C1862.69 429.924 1865.53 433.015 1867.53 436.955C1869.56 440.894 1870.56 445.394 1870.53 450.455V495H1845.44V455.727C1845.47 452.273 1844.59 449.561 1842.8 447.591C1841.04 445.621 1838.59 444.636 1835.44 444.636C1833.38 444.636 1831.57 445.091 1830.03 446C1828.51 446.879 1827.35 448.152 1826.53 449.818C1825.71 451.455 1825.28 453.424 1825.25 455.727ZM1963.58 425.182L1940.12 495H1911.03L1887.58 425.182H1913.94L1925.21 471.364H1925.94L1937.21 425.182H1963.58ZM2014.84 496.273C2007.39 496.273 2000.96 494.848 1995.57 492C1990.21 489.121 1986.07 485 1983.16 479.636C1980.28 474.242 1978.84 467.788 1978.84 460.273C1978.84 453.061 1980.3 446.758 1983.21 441.364C1986.12 435.97 1990.22 431.773 1995.53 428.773C2000.83 425.773 2007.09 424.273 2014.3 424.273C2019.57 424.273 2024.34 425.091 2028.62 426.727C2032.89 428.364 2036.54 430.742 2039.57 433.864C2042.6 436.955 2044.93 440.712 2046.57 445.136C2048.21 449.561 2049.03 454.545 2049.03 460.091V465.909H1986.66V452.091H2025.93C2025.9 450.091 2025.39 448.333 2024.39 446.818C2023.42 445.273 2022.1 444.076 2020.43 443.227C2018.8 442.348 2016.93 441.909 2014.84 441.909C2012.81 441.909 2010.95 442.348 2009.25 443.227C2007.56 444.076 2006.19 445.258 2005.16 446.773C2004.16 448.288 2003.63 450.061 2003.57 452.091V467C2003.57 469.242 2004.04 471.242 2004.98 473C2005.92 474.758 2007.27 476.136 2009.03 477.136C2010.78 478.136 2012.9 478.636 2015.39 478.636C2017.12 478.636 2018.69 478.394 2020.12 477.909C2021.57 477.424 2022.81 476.727 2023.84 475.818C2024.87 474.879 2025.63 473.758 2026.12 472.455H2049.03C2048.24 477.303 2046.37 481.515 2043.43 485.091C2040.49 488.636 2036.6 491.394 2031.75 493.364C2026.93 495.303 2021.3 496.273 2014.84 496.273ZM2135.88 447.909H2112.79C2112.67 446.485 2112.17 445.258 2111.29 444.227C2110.41 443.197 2109.28 442.409 2107.88 441.864C2106.52 441.288 2105 441 2103.34 441C2101.18 441 2099.34 441.394 2097.79 442.182C2096.25 442.97 2095.49 444.091 2095.52 445.545C2095.49 446.576 2095.93 447.53 2096.84 448.409C2097.78 449.288 2099.58 449.97 2102.25 450.455L2116.43 453C2123.58 454.303 2128.9 456.5 2132.38 459.591C2135.9 462.652 2137.67 466.758 2137.7 471.909C2137.67 476.879 2136.18 481.197 2133.25 484.864C2130.34 488.5 2126.35 491.318 2121.29 493.318C2116.26 495.288 2110.52 496.273 2104.06 496.273C2093.4 496.273 2085.05 494.091 2079.02 489.727C2073.02 485.364 2069.67 479.606 2068.97 472.455H2093.88C2094.22 474.667 2095.31 476.379 2097.15 477.591C2099.03 478.773 2101.4 479.364 2104.25 479.364C2106.55 479.364 2108.44 478.97 2109.93 478.182C2111.44 477.394 2112.22 476.273 2112.25 474.818C2112.22 473.485 2111.55 472.424 2110.25 471.636C2108.97 470.848 2106.97 470.212 2104.25 469.727L2091.88 467.545C2084.76 466.303 2079.43 463.939 2075.88 460.455C2072.34 456.97 2070.58 452.485 2070.61 447C2070.58 442.152 2071.85 438.045 2074.43 434.682C2077.03 431.288 2080.75 428.712 2085.56 426.955C2090.41 425.167 2096.15 424.273 2102.79 424.273C2112.88 424.273 2120.84 426.364 2126.65 430.545C2132.5 434.727 2135.58 440.515 2135.88 447.909ZM2201.75 425.182V443.364H2155.75V425.182H2201.75ZM2164.66 408.455H2189.75V472.545C2189.75 473.515 2189.92 474.333 2190.25 475C2190.58 475.636 2191.1 476.121 2191.8 476.455C2192.49 476.758 2193.39 476.909 2194.48 476.909C2195.23 476.909 2196.11 476.818 2197.11 476.636C2198.14 476.455 2198.9 476.303 2199.39 476.182L2203.02 493.818C2201.9 494.152 2200.3 494.561 2198.2 495.045C2196.14 495.53 2193.69 495.848 2190.84 496C2185.08 496.303 2180.25 495.712 2176.34 494.227C2172.43 492.712 2169.49 490.333 2167.52 487.091C2165.55 483.848 2164.6 479.788 2164.66 474.909V408.455ZM2257.68 496.273C2250.1 496.273 2243.61 494.773 2238.22 491.773C2232.83 488.742 2228.69 484.53 2225.81 479.136C2222.93 473.712 2221.49 467.424 2221.49 460.273C2221.49 453.121 2222.93 446.848 2225.81 441.455C2228.69 436.03 2232.83 431.818 2238.22 428.818C2243.61 425.788 2250.1 424.273 2257.68 424.273C2265.25 424.273 2271.74 425.788 2277.13 428.818C2282.52 431.818 2286.66 436.03 2289.54 441.455C2292.42 446.848 2293.86 453.121 2293.86 460.273C2293.86 467.424 2292.42 473.712 2289.54 479.136C2286.66 484.53 2282.52 488.742 2277.13 491.773C2271.74 494.773 2265.25 496.273 2257.68 496.273ZM2257.86 477.727C2259.98 477.727 2261.81 477.015 2263.36 475.591C2264.9 474.167 2266.1 472.136 2266.95 469.5C2267.8 466.864 2268.22 463.727 2268.22 460.091C2268.22 456.424 2267.8 453.288 2266.95 450.682C2266.1 448.045 2264.9 446.015 2263.36 444.591C2261.81 443.167 2259.98 442.455 2257.86 442.455C2255.61 442.455 2253.69 443.167 2252.08 444.591C2250.48 446.015 2249.25 448.045 2248.4 450.682C2247.55 453.288 2247.13 456.424 2247.13 460.091C2247.13 463.727 2247.55 466.864 2248.4 469.5C2249.25 472.136 2250.48 474.167 2252.08 475.591C2253.69 477.015 2255.61 477.727 2257.86 477.727ZM2316.84 495V425.182H2341.2V438.455H2341.93C2343.2 433.545 2345.22 429.955 2347.97 427.682C2350.76 425.409 2354.02 424.273 2357.75 424.273C2358.84 424.273 2359.91 424.364 2360.97 424.545C2362.07 424.697 2363.11 424.924 2364.11 425.227V446.636C2362.87 446.212 2361.34 445.894 2359.52 445.682C2357.7 445.47 2356.14 445.364 2354.84 445.364C2352.38 445.364 2350.17 445.924 2348.2 447.045C2346.26 448.136 2344.73 449.682 2343.61 451.682C2342.49 453.652 2341.93 455.97 2341.93 458.636V495H2316.84Z" fill="black"/>
</svg>
