<?xml version="1.0" encoding="UTF-8"?>
<svg version="1.1" xmlns="http://www.w3.org/2000/svg" width="512" height="512">
<path d="M0 0 C1.14078003 0.49250748 2.28156006 0.98501495 3.45690918 1.4924469 C6.52458551 2.82032878 9.58611854 4.16075269 12.6453476 5.50788116 C15.81159407 6.89890291 18.98454591 8.27446178 22.15673828 9.65185547 C27.18544893 11.83779815 32.20970099 14.03367111 37.23046875 16.23779297 C42.34181148 18.48103656 47.45904955 20.70987329 52.58285522 22.92448425 C55.70436991 24.27415093 58.82308029 25.63018242 61.94073486 26.98873901 C63.31822334 27.58849282 64.69641707 28.18662995 66.07537842 28.7829895 C81.29849858 35.38119092 94.92334918 42.22578319 102.0390625 58.02734375 C104.26448772 64.59827384 104.1939264 72.43295775 101.8515625 78.90234375 C100.89774726 83.58470947 102.61201942 86.00055634 104.71875 90.16796875 C108.82045033 98.99216729 111.30089953 109.0794666 111.27758789 118.82373047 C111.27751236 119.88437714 111.27743683 120.9450238 111.27735901 122.03781128 C111.27219772 123.16615387 111.26703644 124.29449646 111.26171875 125.45703125 C111.25959633 127.20888229 111.25959633 127.20888229 111.25743103 128.99612427 C111.25184748 132.71489049 111.23929794 136.43359582 111.2265625 140.15234375 C111.22154538 142.67838455 111.21698284 145.20442629 111.21289062 147.73046875 C111.20188343 153.91278108 111.18516163 160.09505806 111.1640625 166.27734375 C112.26488159 166.24906494 112.26488159 166.24906494 113.38793945 166.22021484 C114.36206787 166.20555176 115.33619629 166.19088867 116.33984375 166.17578125 C117.78097534 166.14750244 117.78097534 166.14750244 119.2512207 166.11865234 C127.09425769 166.54594042 134.66640985 170.79148864 140.1640625 176.27734375 C148.99274819 187.44072632 149.03087711 200.5959508 147.921875 214.26171875 C146.65727942 223.39777662 142.44485495 231.36293429 135.05859375 237.02734375 C129.12832113 240.94010095 124.55626841 242.49688811 117.359375 242.37890625 C116.19680176 242.36424316 115.03422852 242.34958008 113.83642578 242.33447266 C112.9545459 242.31562012 112.07266602 242.29676758 111.1640625 242.27734375 C111.16682788 242.87588921 111.16959326 243.47443466 111.17244244 244.09111786 C111.23899915 258.7258325 111.2884864 273.36053815 111.31949902 287.99536896 C111.33489915 295.07297741 111.35585566 302.1504842 111.39038086 309.22802734 C111.42049518 315.40435439 111.43968715 321.58060773 111.44632798 327.75700617 C111.45020342 331.02055784 111.4607942 334.28385238 111.48125267 337.54734802 C111.66061623 367.36694375 107.17624599 394.62072851 86.1640625 417.27734375 C85.43316406 418.0765625 84.70226562 418.87578125 83.94921875 419.69921875 C76.17939621 427.83773234 67.13406071 433.60685947 57.1640625 438.71484375 C56.19984375 439.21363037 55.235625 439.71241699 54.2421875 440.22631836 C43.87007582 445.52928621 33.32798737 450.47847437 22.7644043 455.38623047 C21.31816586 456.05820204 19.87195789 456.73023919 18.42578125 457.40234375 C17.72023605 457.73017853 17.01469086 458.05801331 16.2877655 458.39578247 C11.8648881 460.45932245 7.48405773 462.58989026 3.12109375 464.77734375 C2.07115234 465.2993335 1.02121094 465.82132324 -0.06054688 466.35913086 C-1.97153069 467.31415038 -3.87580934 468.28276512 -5.77148438 469.26782227 C-6.61130859 469.68475342 -7.45113281 470.10168457 -8.31640625 470.53125 C-9.02692139 470.89549072 -9.73743652 471.25973145 -10.46948242 471.63500977 C-16.63538521 473.30863921 -22.14412153 470.50472663 -27.56640625 467.83984375 C-28.3026976 467.48775848 -29.03898895 467.13567322 -29.79759216 466.7729187 C-32.21062632 465.61667546 -34.61701357 464.44727418 -37.0234375 463.27734375 C-39.56973278 462.0507947 -42.11735733 460.82703424 -44.66497803 459.60324097 C-46.41641147 458.76144724 -48.1672603 457.91843615 -49.9175415 457.07424927 C-55.89752463 454.19323014 -61.90223313 451.37068411 -67.92578125 448.58203125 C-69.54475488 447.82959306 -71.16365259 447.07699147 -72.7824707 446.32421875 C-75.09030886 445.25114086 -77.39912025 444.18068081 -79.71273804 443.12011719 C-100.55814428 433.55513697 -100.55814428 433.55513697 -107.8359375 426.27734375 C-107.9184375 425.18421875 -108.0009375 424.09109375 -108.0859375 422.96484375 C-109.09019496 418.02724455 -110.8061405 417.10677569 -114.8359375 414.27734375 C-115.51076172 414.82261719 -115.51076172 414.82261719 -116.19921875 415.37890625 C-130.14362981 426.27734375 -130.14362981 426.27734375 -136.8359375 426.27734375 C-136.8359375 426.93734375 -136.8359375 427.59734375 -136.8359375 428.27734375 C-136.12308594 428.38304687 -135.41023438 428.48875 -134.67578125 428.59765625 C-120.74218434 431.93251988 -108.08177435 445.28642265 -97.45385742 454.35791016 C-93.46405461 457.76307948 -89.40207145 461.06091116 -85.29296875 464.3203125 C-80.76808869 467.92439026 -76.30800647 471.60811465 -71.8359375 475.27734375 C-70.00283588 476.77762692 -68.16950323 478.27762783 -66.3359375 479.77734375 C-65.43359375 480.51597656 -64.53125 481.25460937 -63.6015625 482.015625 C-61.7175294 483.55638088 -59.83205338 485.09537365 -57.9453125 486.6328125 C-56.07995344 488.15415042 -54.22027973 489.68249394 -52.3671875 491.21875 C-50.79560555 492.49687297 -49.19525073 493.74140283 -47.5546875 494.9296875 C-45.5859375 496.40234375 -45.5859375 496.40234375 -42.8359375 499.27734375 C-42.8359375 503.08984375 -42.8359375 503.08984375 -43.8359375 506.27734375 C-44.8359375 507.27734375 -44.8359375 507.27734375 -47.92895508 507.51196289 C-52.17147544 507.25719428 -55.49194016 506.16471568 -59.34765625 504.5234375 C-60.06143433 504.23119293 -60.7752124 503.93894836 -61.51062012 503.6378479 C-63.85326039 502.67523079 -66.18821935 501.69531326 -68.5234375 500.71484375 C-70.1660019 500.03535925 -71.80899426 499.35690847 -73.45239258 498.67944336 C-76.86846086 497.26848426 -80.28120858 495.84989321 -83.69140625 494.42480469 C-88.67146831 492.34374267 -93.65931858 490.28188836 -98.6484375 488.22265625 C-106.78913484 484.85883852 -114.91440798 481.45935508 -123.03070068 478.03710938 C-124.66976882 477.34727876 -126.31061672 476.66168078 -127.95166016 475.9765625 C-149.16010091 467.10127038 -163.86807815 455.08951883 -176.8359375 436.27734375 C-177.60784424 436.72650146 -178.37975098 437.17565918 -179.17504883 437.63842773 C-182.04194046 439.3048638 -184.9102444 440.96881448 -187.77954102 442.63110352 C-189.02067597 443.35081587 -190.26124113 444.07151177 -191.5012207 444.79321289 C-193.28447672 445.8308865 -195.06975747 446.86499624 -196.85546875 447.8984375 C-197.92901611 448.52161865 -199.00256348 449.1447998 -200.10864258 449.78686523 C-202.8359375 451.27734375 -202.8359375 451.27734375 -205.8359375 452.27734375 C-205.5059375 452.93734375 -205.1759375 453.59734375 -204.8359375 454.27734375 C-204.02931871 463.4958442 -204.07030555 471.62225169 -209.8359375 479.27734375 C-216.23049618 486.19712285 -222.59593411 489.6819748 -232.03515625 490.26953125 C-240.2439449 490.29242885 -246.66485729 487.72923792 -252.8359375 482.27734375 C-258.48630362 475.63695621 -261.37754377 468.51388103 -261.15234375 459.74609375 C-260.21179208 452.4074684 -257.67414676 445.97639023 -251.8359375 441.27734375 C-251.0521875 440.57609375 -250.2684375 439.87484375 -249.4609375 439.15234375 C-241.68360817 433.59710851 -234.28259528 433.19491421 -224.8359375 434.27734375 C-220.20754165 435.83942735 -216.30056096 437.81272029 -212.8359375 441.27734375 C-208.84801664 440.94695098 -206.09726226 439.44861032 -202.75390625 437.3359375 C-201.35688477 436.46098633 -201.35688477 436.46098633 -199.93164062 435.56835938 C-198.97193359 434.95669922 -198.01222656 434.34503906 -197.0234375 433.71484375 C-195.55487305 432.79155273 -195.55487305 432.79155273 -194.05664062 431.84960938 C-191.64536447 430.33226975 -189.23875705 428.80802645 -186.8359375 427.27734375 C-199.15783798 419.477009 -199.15783798 419.477009 -211.8359375 412.27734375 C-212.34382813 412.68726563 -212.85171875 413.0971875 -213.375 413.51953125 C-214.06335938 414.05835938 -214.75171875 414.5971875 -215.4609375 415.15234375 C-216.13382813 415.68601562 -216.80671875 416.2196875 -217.5 416.76953125 C-224.1084815 421.0352066 -231.22978424 420.98426858 -238.8359375 420.27734375 C-246.05555877 418.60743135 -251.35340836 415.16662405 -255.8359375 409.27734375 C-259.93476575 402.70422283 -261.75996771 396.06559834 -260.8359375 388.27734375 C-258.80747594 379.89466524 -255.1563724 372.69833367 -247.74609375 367.93359375 C-240.28772594 364.04468689 -232.34959222 362.82596683 -224.10546875 364.99609375 C-215.50435578 368.22313765 -209.96953611 372.99367801 -205.8359375 381.27734375 C-204.60082691 384.59544101 -205.06137117 387.37431623 -205.46240234 390.83605957 C-205.78219859 394.44174121 -205.89925038 397.78499504 -204.8359375 401.27734375 C-200.83370279 405.7030638 -196.10843122 408.11202993 -190.8359375 410.77734375 C-189.48390434 411.51785088 -188.13489508 412.26390753 -186.7890625 413.015625 C-183.50281007 414.83552239 -180.18451933 416.57506317 -176.8359375 418.27734375 C-176.04364746 417.17543701 -176.04364746 417.17543701 -175.23535156 416.05126953 C-174.53120117 415.07657715 -173.82705078 414.10188477 -173.1015625 413.09765625 C-172.06177246 411.65543701 -172.06177246 411.65543701 -171.00097656 410.18408203 C-161.40371424 397.29898898 -149.36115263 388.0196451 -134.8359375 381.27734375 C-134.1759375 381.27734375 -133.5159375 381.27734375 -132.8359375 381.27734375 C-133.0525 380.66246094 -133.2690625 380.04757812 -133.4921875 379.4140625 C-133.770625 378.60582031 -134.0490625 377.79757812 -134.3359375 376.96484375 C-134.614375 376.16433594 -134.8928125 375.36382812 -135.1796875 374.5390625 C-135.8359375 372.27734375 -135.8359375 372.27734375 -135.8359375 369.27734375 C-137.0425 368.84421875 -137.0425 368.84421875 -138.2734375 368.40234375 C-140.8359375 367.27734375 -140.8359375 367.27734375 -141.8359375 365.27734375 C-141.90589764 363.5703164 -141.92033904 361.86066372 -141.8984375 360.15234375 C-141.88941406 359.24226563 -141.88039063 358.3321875 -141.87109375 357.39453125 C-141.85949219 356.69585937 -141.84789062 355.9971875 -141.8359375 355.27734375 C-140.5159375 354.61734375 -139.1959375 353.95734375 -137.8359375 353.27734375 C-137.8359375 350.63734375 -137.8359375 347.99734375 -137.8359375 345.27734375 C-138.4753125 345.17421875 -139.1146875 345.07109375 -139.7734375 344.96484375 C-140.794375 344.62453125 -140.794375 344.62453125 -141.8359375 344.27734375 C-143.50231372 339.2782151 -143.0205022 334.07348124 -143.0234375 328.83984375 C-143.03568359 327.69451172 -143.04792969 326.54917969 -143.06054688 325.36914062 C-143.06248047 324.26763672 -143.06441406 323.16613281 -143.06640625 322.03125 C-143.07051514 321.02392822 -143.07462402 320.01660645 -143.07885742 318.97875977 C-142.83308783 316.24565373 -142.23709887 314.60937329 -140.8359375 312.27734375 C-139.8459375 312.27734375 -138.8559375 312.27734375 -137.8359375 312.27734375 C-137.8359375 309.96734375 -137.8359375 307.65734375 -137.8359375 305.27734375 C-138.4753125 305.15359375 -139.1146875 305.02984375 -139.7734375 304.90234375 C-140.794375 304.59296875 -140.794375 304.59296875 -141.8359375 304.27734375 C-143.17643277 301.59635322 -142.9557427 299.54423169 -142.94946289 296.54248047 C-142.94934959 294.74083939 -142.94934959 294.74083939 -142.94923401 292.90280151 C-142.94407272 291.60069733 -142.93891144 290.29859314 -142.93359375 288.95703125 C-142.93172888 287.61467542 -142.9303053 286.27231891 -142.92930603 284.92996216 C-142.92548628 281.395387 -142.91566062 277.86085288 -142.90460205 274.32629395 C-142.89437628 270.72013911 -142.88980591 267.11397765 -142.88476562 263.5078125 C-142.87403788 256.43097279 -142.85696795 249.35416095 -142.8359375 242.27734375 C-143.73204742 242.28930786 -144.62815735 242.30127197 -145.55142212 242.31359863 C-147.3118837 242.32755676 -147.3118837 242.32755676 -149.10791016 242.34179688 C-150.85426254 242.35974304 -150.85426254 242.35974304 -152.63589478 242.37805176 C-160.19297829 242.14022405 -166.70692526 237.89643741 -171.8359375 232.52734375 C-178.35875402 223.85034071 -179.47817945 215.43363666 -179.3359375 204.77734375 C-179.35914063 203.03904297 -179.35914063 203.03904297 -179.3828125 201.265625 C-179.33556779 190.81273293 -177.01039248 182.70224805 -169.7578125 175.03125 C-163.27936695 169.11901006 -156.44882501 166.15480548 -147.609375 166.234375 C-146.71395996 166.24057861 -145.81854492 166.24678223 -144.89599609 166.25317383 C-144.21617676 166.2611499 -143.53635742 166.26912598 -142.8359375 166.27734375 C-142.84593025 165.36890968 -142.84593025 165.36890968 -142.85612488 164.44212341 C-142.92315883 158.06539286 -142.96801645 151.68876443 -143.00073242 145.31176758 C-143.01569988 142.94063238 -143.0360811 140.56952429 -143.06225586 138.19848633 C-143.23307983 122.31185709 -143.03334171 107.71948449 -137.2734375 92.71484375 C-136.85964844 91.62042969 -136.44585937 90.52601562 -136.01953125 89.3984375 C-135.62894531 88.36847656 -135.23835938 87.33851562 -134.8359375 86.27734375 C-132.79826099 80.87651182 -133.17673282 78.808026 -134.8359375 73.27734375 C-136.0254193 63.48063946 -132.84700356 55.00585726 -126.8359375 47.27734375 C-115.7380245 33.47904836 -95.70247976 27.72770112 -79.9609375 21.15234375 C-75.12613736 19.12066476 -70.29345183 17.08398396 -65.4609375 15.046875 C-63.68990158 14.30179939 -63.68990158 14.30179939 -61.88308716 13.54167175 C-55.04125653 10.65636833 -48.23209945 7.71143018 -41.4609375 4.6640625 C-40.71061249 4.32779846 -39.96028748 3.99153442 -39.18722534 3.64508057 C-35.84159769 2.14381389 -32.50378686 0.6283758 -29.17626953 -0.91259766 C-28.03528809 -1.42612793 -26.89430664 -1.9396582 -25.71875 -2.46875 C-24.76371582 -2.90888428 -23.80868164 -3.34901855 -22.82470703 -3.80249023 C-14.14404456 -6.47504512 -7.95558016 -3.53025705 0 0 Z M-246.2734375 381.83984375 C-249.41403768 386.73918003 -249.44583607 391.62504433 -248.8359375 397.27734375 C-247.07208956 402.61928322 -243.69181481 405.59111375 -238.8359375 408.27734375 C-234.15793817 409.83667686 -230.33842994 409.84829088 -225.7109375 408.08984375 C-221.25009094 405.27757092 -217.87562107 402.18164957 -215.8359375 397.27734375 C-215.05057131 391.66758526 -215.57388606 387.01257972 -218.8359375 382.27734375 C-222.26610705 378.21830978 -225.45927646 375.96173135 -230.7734375 375.15234375 C-237.33528722 374.8726911 -241.8094557 377.14693981 -246.2734375 381.83984375 Z M-246.7890625 452.48046875 C-249.15249104 456.53709983 -250.19965411 460.74974348 -249.52734375 465.421875 C-247.84439996 470.88882905 -244.44970258 474.06438446 -239.8359375 477.27734375 C-235.68004884 479.35528808 -230.11252244 479.02763069 -225.76171875 477.59375 C-220.48098059 474.8331038 -217.68552346 470.82610162 -215.8359375 465.27734375 C-215.2544656 459.34633039 -216.30911983 455.02612923 -219.8359375 450.27734375 C-223.5977581 446.76178229 -227.29765 444.98631323 -232.4609375 444.77734375 C-238.62580319 445.17986075 -242.99165332 447.49945152 -246.7890625 452.48046875 Z " fill="#232020" transform="translate(300.8359375,4.72265625)"/>
<path d="M0 0 C1.30943069 -0.00554901 2.61886139 -0.01109802 3.9679718 -0.01681519 C7.55288854 -0.03104681 11.13703674 -0.0140186 14.72187996 0.00946999 C18.47648943 0.029599 22.23106761 0.02369837 25.98571777 0.0213623 C32.29057466 0.02141585 38.59513165 0.04115939 44.89990234 0.07324219 C52.18508854 0.1101342 59.46988195 0.11891754 66.75514936 0.11194468 C73.76844547 0.10563545 80.78160713 0.11640169 87.7948761 0.13591003 C90.77722594 0.14407648 93.75950699 0.14679498 96.74186707 0.1452179 C100.90753953 0.14417429 105.07269588 0.16836903 109.23828125 0.1953125 C110.47479935 0.1923819 111.71131744 0.18945129 112.98530579 0.18643188 C114.12086411 0.19778168 115.25642242 0.20913147 116.4263916 0.2208252 C117.41082497 0.22455391 118.39525833 0.22828262 119.40952301 0.23212433 C122.6152724 0.68538194 124.51202934 1.72450023 127.11914062 3.61523438 C128.31707801 6.01110915 128.2593211 7.56217211 128.29492188 10.23632812 C128.62579478 25.04737913 129.56659607 36.38994108 140.11914062 47.61523438 C141.06402344 48.40929687 142.00890625 49.20335937 142.98242188 50.02148438 C151.2023305 57.10062747 151.2023305 57.10062747 151.93945312 62.77929688 C152.12907599 65.74015504 152.12972019 68.68828829 152.10742188 71.65429688 C152.13530828 81.07990249 156.60084772 88.7448667 162.92382812 95.56054688 C164.64027271 97.26225803 166.3724298 98.94465139 168.11914062 100.61523438 C171.27819568 103.77428943 172.34603192 105.53708035 172.36914062 109.92773438 C172.28664063 111.14460938 172.20414063 112.36148438 172.11914062 113.61523438 C171.15814453 113.74478516 171.15814453 113.74478516 170.17773438 113.87695312 C164.28987888 114.83340059 159.25920717 116.09081152 155.11914062 120.61523438 C151.08997526 126.50411099 151.71306012 132.68359653 151.74804688 139.53710938 C151.73066065 142.11523568 151.71307631 144.69336065 151.6953125 147.27148438 C151.68225938 151.31771037 151.68163666 155.36391388 151.68334961 159.41015625 C151.68341101 163.32765857 151.65236135 167.24471743 151.62304688 171.16210938 C151.6312294 172.36035339 151.63941193 173.55859741 151.64784241 174.79315186 C151.55917761 184.87469118 149.42147013 193.41129213 142.23217773 200.80615234 C131.86349309 209.68332776 121.18543101 209.5016426 108.15258789 209.28759766 C105.03168627 209.23985261 101.91414962 209.24657444 98.79296875 209.25976562 C96.80662022 209.2486272 94.82028599 209.234417 92.83398438 209.21679688 C91.90279282 209.21861969 90.97160126 209.2204425 90.01219177 209.22232056 C83.64483286 209.0814957 83.64483286 209.0814957 81.03735352 206.76879883 C79.79543621 203.85602229 79.70677634 201.33627162 79.61914062 198.17773438 C79.48710882 193.43009071 79.15729332 190.36786789 76.11914062 186.61523438 C69.85411012 182.82227667 63.82426284 183.12589328 56.75146484 183.16918945 C54.62434492 183.17771352 52.49990312 183.14887663 50.37304688 183.1171875 C49.00716225 183.11557537 47.64127293 183.11615325 46.27539062 183.11914062 C45.04626953 183.1172876 43.81714844 183.11543457 42.55078125 183.11352539 C38.48488825 183.70796265 36.31793261 185.08717594 33.11914062 187.61523438 C30.14077174 191.67821159 30.78047349 196.67513181 30.65820312 201.52148438 C29.98130235 205.40630622 29.31617416 206.31738553 26.11914062 208.61523438 C22.92622172 209.23842289 19.77100869 209.22334017 16.52539062 209.21679688 C15.58288452 209.22536713 14.64037842 209.23393738 13.66931152 209.24276733 C11.67215175 209.25425024 9.67490832 209.25525701 7.67773438 209.24658203 C4.65669957 209.24031232 1.63968352 209.28698815 -1.38085938 209.33789062 C-13.36873054 209.4168203 -22.45957716 208.83818167 -31.99609375 200.84155273 C-39.31580376 193.409013 -41.32571175 184.01645206 -41.35826111 173.88362122 C-41.34380447 172.71868637 -41.32934784 171.55375153 -41.31445312 170.35351562 C-41.32405262 167.82812436 -41.33382333 165.30273375 -41.34375 162.77734375 C-41.3351369 158.84066715 -41.31822708 154.90415283 -41.29614258 150.9675293 C-41.28160886 147.13753589 -41.29687621 143.30847593 -41.31445312 139.47851562 C-41.29797226 138.30750809 -41.28149139 137.13650055 -41.26451111 135.93000793 C-41.30745033 128.88177663 -42.15982444 124.01990747 -46.88085938 118.61523438 C-50.93538596 115.23646222 -55.80422617 114.55535163 -60.88085938 113.61523438 C-61.62893019 109.93721954 -61.85943671 108.18358202 -60.88085938 104.61523438 C-58.58911733 101.75601335 -56.18464137 99.2282388 -53.59545898 96.64819336 C-47.86556262 90.84360719 -44.45667195 84.34267209 -41.88085938 76.61523438 C-41.95046875 75.39320313 -42.02007812 74.17117187 -42.09179688 72.91210938 C-42.43808141 65.90393286 -42.57363099 59.97760205 -37.68945312 54.51367188 C-35.07981022 51.93686293 -32.32903762 49.53367171 -29.58007812 47.10742188 C-23.86771113 42.00166535 -21.27871307 35.80879546 -18.88085938 28.61523438 C-18.78983083 26.90086347 -18.74929381 25.18355886 -18.74023438 23.46679688 C-18.72089844 22.46132812 -18.7015625 21.45585937 -18.68164062 20.41992188 C-18.64791427 18.30813334 -18.62956706 16.19604059 -18.62695312 14.08398438 C-18.59021484 12.57191406 -18.59021484 12.57191406 -18.55273438 11.02929688 C-18.54338867 10.11100098 -18.53404297 9.19270508 -18.52441406 8.24658203 C-17.83034943 5.40871079 -16.88783517 3.6923713 -14.76062393 1.67694664 C-10.38522769 -0.79432661 -4.87605373 -0.05230194 0 0 Z " fill="#FDFDFD" transform="translate(229.880859375,120.384765625)"/>
<path d="M0 0 C5.70651245 0.77734375 5.70651245 0.77734375 8.34790039 2.78125 C10.96058901 7.87149482 10.5026326 12.86377499 10.43359375 18.5 C10.44320719 21.022136 10.45297789 23.54427141 10.46289062 26.06640625 C10.45432723 30.02464981 10.43759737 33.98272865 10.4152832 37.94091797 C10.40064431 41.77342862 10.41610719 45.60502064 10.43359375 49.4375 C10.41711288 50.60152344 10.40063202 51.76554687 10.38365173 52.96484375 C10.44981486 64.0117595 13.3211162 73.88232284 21 82 C21 82.66 21 83.32 21 84 C21.58265625 84.27972656 22.1653125 84.55945313 22.765625 84.84765625 C24.86767822 85.93175713 26.78074984 87.13144772 28.75 88.4375 C34.98023212 92.37788934 41.8484982 95.06220592 49.27441406 95.19287109 C50.52656708 95.21696548 50.52656708 95.21696548 51.80401611 95.24154663 C55.61396137 95.28635489 59.42373915 95.32705869 63.23388672 95.35009766 C65.23758573 95.36664107 67.24122612 95.39390974 69.24462891 95.43212891 C72.14776934 95.48715794 75.04953187 95.50881085 77.953125 95.5234375 C79.28322601 95.55744156 79.28322601 95.55744156 80.64019775 95.59213257 C86.92676238 95.57098858 91.15845098 94.07035362 96 90 C100.18724653 84.73910052 100.50993826 80.21458485 100.7265625 73.57421875 C101 71 101 71 103 69 C105.58203125 68.74121094 105.58203125 68.74121094 108.8125 68.734375 C109.97007812 68.73179687 111.12765625 68.72921875 112.3203125 68.7265625 C113.53460938 68.73429687 114.74890625 68.74203125 116 68.75 C117.21429688 68.74226563 118.42859375 68.73453125 119.6796875 68.7265625 C121.41605469 68.73042969 121.41605469 68.73042969 123.1875 68.734375 C124.78658203 68.73775879 124.78658203 68.73775879 126.41796875 68.74121094 C129 69 129 69 131 71 C131.33961526 73.42665266 131.59708442 75.81289292 131.8125 78.25 C132.49246058 84.32374069 133.16015911 88.04013018 138 92 C143.23738406 95.28342547 147.57881803 95.45376538 153.5703125 95.43359375 C154.48779266 95.4388356 155.40527283 95.44407745 156.35055542 95.44947815 C158.28870638 95.45588443 160.2268963 95.45457945 162.16503906 95.44604492 C165.09512783 95.43758624 168.02323105 95.46623237 170.953125 95.49804688 C186.08344212 95.55522427 198.77914423 93.71132541 210.19140625 82.9296875 C217.5395187 75.16206955 221.10336872 67.08272815 221.1418457 56.37109375 C221.14888016 55.26644775 221.15591461 54.16180176 221.16316223 53.02368164 C221.16940865 51.24852173 221.16940865 51.24852173 221.17578125 49.4375 C221.19896925 46.9244707 221.22308616 44.41144982 221.24804688 41.8984375 C221.28322576 37.94167342 221.31254996 33.98522214 221.32592773 30.02832031 C221.34137482 26.20599804 221.38155233 22.38458327 221.42578125 18.5625 C221.42387283 17.37906006 221.42196442 16.19562012 221.41999817 14.97631836 C221.54069865 6.89119179 221.54069865 6.89119179 223.66088867 2.77734375 C226.46107924 0.64965485 228.56216736 0.46850711 232 0 C232.09393704 15.59590647 232.1642187 31.19173506 232.20724869 46.78785515 C232.22776991 54.03135579 232.25568736 61.27467946 232.30175781 68.51806641 C232.34194903 74.84017449 232.3675084 81.16215425 232.37635398 87.48438656 C232.38151505 90.82414969 232.39560286 94.16325845 232.42292023 97.50295639 C232.66021604 127.74238062 227.62020176 152.72940481 205.87890625 175.19140625 C195.88364842 184.56310671 183.38644137 190.53319473 171.13989258 196.38452148 C168.90489952 197.45308651 166.67584999 198.53337608 164.44726562 199.61523438 C163.01595284 200.30536783 161.58432398 200.99484625 160.15234375 201.68359375 C159.49193588 202.0033165 158.83152802 202.32303925 158.15110779 202.65245056 C155.14324076 204.08451512 152.28618942 205.38057835 149 206 C148.96261719 204.80761719 148.92523438 203.61523438 148.88671875 202.38671875 C148.82105968 200.820281 148.75461232 199.25387616 148.6875 197.6875 C148.66494141 196.90181641 148.64238281 196.11613281 148.61914062 195.30664062 C148.5659668 194.1706543 148.5659668 194.1706543 148.51171875 193.01171875 C148.48553467 192.31522217 148.45935059 191.61872559 148.43237305 190.90112305 C147.87563996 188.45319502 146.98386204 187.5042927 145 186 C142.3727086 186.07533247 142.3727086 186.07533247 140 187 C138.74161443 189.51677113 138.79181027 191.41293288 138.68359375 194.2265625 C138.64169922 195.2578125 138.59980469 196.2890625 138.55664062 197.3515625 C138.49766602 198.97191406 138.49766602 198.97191406 138.4375 200.625 C138.39431641 201.71296875 138.35113281 202.8009375 138.30664062 203.921875 C138.2003547 206.6144517 138.09831943 209.30712253 138 212 C135.54379149 213.17133058 133.08525083 214.33721722 130.625 215.5 C129.92632812 215.83386719 129.22765625 216.16773438 128.5078125 216.51171875 C123.2265625 219 123.2265625 219 121 219 C120.67 205.8 120.34 192.6 120 179 C113.6 179.2 113.6 179.2 112 181 C111.83982834 183.80976518 111.74049466 186.59773596 111.68359375 189.41015625 C111.6524221 190.67320839 111.6524221 190.67320839 111.62062073 191.96177673 C111.55503188 194.66193179 111.49619724 197.36218717 111.4375 200.0625 C111.39432363 201.88868241 111.35070964 203.71485454 111.30664062 205.54101562 C111.19934106 210.02723992 111.09810034 214.5135655 111 219 C110.07098877 218.68442139 109.14197754 218.36884277 108.18481445 218.04370117 C105.06234185 216.97082661 105.06234185 216.97082661 102.04296875 216.30078125 C98.30983382 215.00873866 96.54442503 214.08533171 94 211 C92.48236356 204.23012525 92.85358657 197.13501236 93.14428711 190.24316406 C93.23464611 187.79447341 93.23464611 187.79447341 91 186 C87.69316534 186.28983269 87.69316534 186.28983269 85 188 C84.84417697 189.34015221 84.74955858 190.68758903 84.68359375 192.03515625 C84.62075195 193.24848633 84.62075195 193.24848633 84.55664062 194.48632812 C84.51732422 195.33646484 84.47800781 196.18660156 84.4375 197.0625 C84.37272461 198.34350586 84.37272461 198.34350586 84.30664062 199.65039062 C84.20023298 201.76672037 84.09958269 203.88333813 84 206 C79.29567905 204.5343916 74.85774852 202.66375625 70.3984375 200.5859375 C69.68072174 200.25260406 68.96300598 199.91927063 68.22354126 199.57583618 C66.70821239 198.86997567 65.19377182 198.16220538 63.68017578 197.45263672 C61.40693639 196.38992981 59.12754681 195.34131349 56.84765625 194.29296875 C48.86842732 190.57914212 41.59396839 186.71669388 34.50244141 181.45556641 C31.65859232 179.80141731 30.23044289 179.71034715 27 180 C21.69520066 180 20.81017373 178.4637943 17 175 C16.55011719 175.36351562 16.10023438 175.72703125 15.63671875 176.1015625 C1.69230769 187 1.69230769 187 -5 187 C-5 187.66 -5 188.32 -5 189 C-4.28714844 189.10570312 -3.57429688 189.21140625 -2.83984375 189.3203125 C11.09375316 192.65517613 23.75416315 206.0090789 34.38208008 215.08056641 C38.37188289 218.48573573 42.43386605 221.78356741 46.54296875 225.04296875 C51.06784881 228.64704651 55.52793103 232.3307709 60 236 C61.83310162 237.50028317 63.66643427 239.00028408 65.5 240.5 C66.40234375 241.23863281 67.3046875 241.97726562 68.234375 242.73828125 C70.1184081 244.27903713 72.00388412 245.8180299 73.890625 247.35546875 C75.75598406 248.87680667 77.61565777 250.40515019 79.46875 251.94140625 C81.04033195 253.21952922 82.64068677 254.46405908 84.28125 255.65234375 C86.25 257.125 86.25 257.125 89 260 C89 263.8125 89 263.8125 88 267 C87 268 87 268 83.90698242 268.23461914 C79.66446206 267.97985053 76.34399734 266.88737193 72.48828125 265.24609375 C71.77450317 264.95384918 71.0607251 264.66160461 70.32531738 264.36050415 C67.98267711 263.39788704 65.64771815 262.41796951 63.3125 261.4375 C61.6699356 260.7580155 60.02694324 260.07956472 58.38354492 259.40209961 C54.96747664 257.99114051 51.55472892 256.57254946 48.14453125 255.14746094 C43.16446919 253.06639892 38.17661892 251.00454461 33.1875 248.9453125 C25.04680266 245.58149477 16.92152952 242.18201133 8.80523682 238.75976562 C7.16616868 238.06993501 5.52532078 237.38433703 3.88427734 236.69921875 C-17.32416341 227.82392663 -32.03214065 215.81217508 -45 197 C-45.77190674 197.44915771 -46.54381348 197.89831543 -47.33911133 198.36108398 C-50.20600296 200.02752005 -53.0743069 201.69147073 -55.94360352 203.35375977 C-57.18473847 204.07347212 -58.42530363 204.79416802 -59.6652832 205.51586914 C-61.44853922 206.55354275 -63.23381997 207.58765249 -65.01953125 208.62109375 C-66.09307861 209.2442749 -67.16662598 209.86745605 -68.27270508 210.50952148 C-71 212 -71 212 -74 213 C-73.67 213.66 -73.34 214.32 -73 215 C-72.19338121 224.21850045 -72.23436805 232.34490794 -78 240 C-84.39455868 246.9197791 -90.75999661 250.40463105 -100.19921875 250.9921875 C-108.4080074 251.0150851 -114.82891979 248.45189417 -121 243 C-126.65036612 236.35961246 -129.54160627 229.23653728 -129.31640625 220.46875 C-128.37585458 213.13012465 -125.83820926 206.69904648 -120 202 C-119.21625 201.29875 -118.4325 200.5975 -117.625 199.875 C-109.84767067 194.31976476 -102.44665778 193.91757046 -93 195 C-88.37160415 196.5620836 -84.46462346 198.53537654 -81 202 C-77.01207914 201.66960723 -74.26132476 200.17126657 -70.91796875 198.05859375 C-69.98662109 197.47529297 -69.05527344 196.89199219 -68.09570312 196.29101562 C-66.65614258 195.37352539 -66.65614258 195.37352539 -65.1875 194.4375 C-64.20845703 193.82197266 -63.22941406 193.20644531 -62.22070312 192.57226562 C-59.80942697 191.054926 -57.40281955 189.5306827 -55 188 C-67.32190048 180.19966525 -67.32190048 180.19966525 -80 173 C-80.50789063 173.40992188 -81.01578125 173.81984375 -81.5390625 174.2421875 C-82.22742188 174.78101563 -82.91578125 175.31984375 -83.625 175.875 C-84.29789063 176.40867187 -84.97078125 176.94234375 -85.6640625 177.4921875 C-92.272544 181.75786285 -99.39384674 181.70692483 -107 181 C-114.21962127 179.3300876 -119.51747086 175.8892803 -124 170 C-128.09882825 163.42687908 -129.92403021 156.78825459 -129 149 C-126.97153844 140.61732149 -123.3204349 133.42098992 -115.91015625 128.65625 C-108.45178844 124.76734314 -100.51365472 123.54862308 -92.26953125 125.71875 C-83.66841828 128.9457939 -78.13359861 133.71633426 -74 142 C-72.76488941 145.31809726 -73.22543367 148.09697248 -73.62646484 151.55871582 C-73.94626109 155.16439746 -74.06331288 158.50765129 -73 162 C-68.99776529 166.42572005 -64.27249372 168.83468618 -59 171.5 C-57.64796684 172.24050713 -56.29895758 172.98656378 -54.953125 173.73828125 C-51.66687257 175.55817864 -48.34858183 177.29771942 -45 179 C-44.47180664 178.26539551 -43.94361328 177.53079102 -43.39941406 176.77392578 C-42.69526367 175.7992334 -41.99111328 174.82454102 -41.265625 173.8203125 C-40.22583496 172.37809326 -40.22583496 172.37809326 -39.16503906 170.90673828 C-29.56777674 158.02164523 -17.52521513 148.74230135 -3 142 C-2.34 142 -1.68 142 -1 142 C-1.2165625 141.38511719 -1.433125 140.77023437 -1.65625 140.13671875 C-1.9346875 139.32847656 -2.213125 138.52023437 -2.5 137.6875 C-2.7784375 136.88699219 -3.056875 136.08648437 -3.34375 135.26171875 C-4 133 -4 133 -4 130 C-5.2065625 129.566875 -5.2065625 129.566875 -6.4375 129.125 C-9 128 -9 128 -10 126 C-10.06996014 124.29297265 -10.08440154 122.58331997 -10.0625 120.875 C-10.05347656 119.96492188 -10.04445313 119.05484375 -10.03515625 118.1171875 C-10.02355469 117.41851562 -10.01195312 116.71984375 -10 116 C-8.68 115.34 -7.36 114.68 -6 114 C-6 111.36 -6 108.72 -6 106 C-6.639375 105.896875 -7.27875 105.79375 -7.9375 105.6875 C-8.618125 105.460625 -9.29875 105.23375 -10 105 C-11.66637622 100.00087135 -11.1845647 94.79613749 -11.1875 89.5625 C-11.19974609 88.41716797 -11.21199219 87.27183594 -11.22460938 86.09179688 C-11.22654297 84.99029297 -11.22847656 83.88878906 -11.23046875 82.75390625 C-11.23457764 81.74658447 -11.23868652 80.7392627 -11.24291992 79.70141602 C-10.99715033 76.96830998 -10.40116137 75.33202954 -9 73 C-8.01 73 -7.02 73 -6 73 C-6.103125 71.906875 -6.20625 70.81375 -6.3125 69.6875 C-6.209375 68.470625 -6.10625 67.25375 -6 66 C-5.1821553 65.55524826 -4.36431061 65.11049652 -3.52168274 64.65226746 C-0.71973897 63.23132605 -0.71973897 63.23132605 -0.36076355 60.24751282 C-0.35410172 59.13498642 -0.34743988 58.02246002 -0.34057617 56.8762207 C-0.31111153 54.98459953 -0.31111153 54.98459953 -0.28105164 53.05476379 C-0.2844951 51.67843485 -0.28848023 50.30210718 -0.29296875 48.92578125 C-0.27985448 47.51757161 -0.26455108 46.1093808 -0.24714661 44.70121765 C-0.20725036 40.99724431 -0.19710335 37.29376248 -0.19311523 33.58959961 C-0.18379226 29.80892991 -0.14638418 26.02855005 -0.11132812 22.24804688 C-0.04670559 14.8320289 -0.01350406 7.41630588 0 0 Z M-114.4375 142.5625 C-117.57810018 147.46183628 -117.60989857 152.34770058 -117 158 C-115.23615206 163.34193947 -111.85587731 166.31377 -107 169 C-102.32200067 170.55933311 -98.50249244 170.57094713 -93.875 168.8125 C-89.41415344 166.00022717 -86.03968357 162.90430582 -84 158 C-83.21463381 152.39024151 -83.73794856 147.73523597 -87 143 C-90.43016955 138.94096603 -93.62333896 136.6843876 -98.9375 135.875 C-105.49934972 135.59534735 -109.9735182 137.86959606 -114.4375 142.5625 Z M-114.953125 213.203125 C-117.31655354 217.25975608 -118.36371661 221.47239973 -117.69140625 226.14453125 C-116.00846246 231.6114853 -112.61376508 234.78704071 -108 238 C-103.84411134 240.07794433 -98.27658494 239.75028694 -93.92578125 238.31640625 C-88.64504309 235.55576005 -85.84958596 231.54875787 -84 226 C-83.4185281 220.06898664 -84.47318233 215.74878548 -88 211 C-91.7618206 207.48443854 -95.4617125 205.70896948 -100.625 205.5 C-106.78986569 205.902517 -111.15571582 208.22210777 -114.953125 213.203125 Z " fill="#3F3C39" transform="translate(169,244)"/>
<path d="M0 0 C0.61187164 0.27451492 1.22374329 0.54902985 1.85415649 0.8318634 C3.1922128 1.43293681 4.52853028 2.03789276 5.86328125 2.64627075 C9.58808308 4.34380745 13.32548059 6.01316543 17.0625 7.68359375 C17.87732849 8.04847397 18.69215698 8.41335419 19.53167725 8.78929138 C26.45206919 11.87587761 33.41494343 14.85720769 40.390625 17.81640625 C41.48297455 18.2805191 42.5753241 18.74463196 43.70077515 19.22280884 C48.0793937 21.08224871 52.45833966 22.94075141 56.84295654 24.78601074 C59.93194841 26.08653274 63.01698507 27.39608031 66.1015625 28.70703125 C67.01394684 29.08785355 67.92633118 29.46867584 68.86636353 29.86103821 C76.94141199 33.30782583 85.38121672 37.12480781 91.1015625 43.984375 C91.730625 44.71914063 92.3596875 45.45390625 93.0078125 46.2109375 C97.3189532 52.02252423 97.2970748 57.26697985 96.6015625 64.359375 C93.59931379 76.69003934 77.96981237 85.01353665 68.36572266 92.06005859 C66.55722435 93.3583444 66.55722435 93.3583444 64.78359985 94.91929626 C62.23624607 96.60047281 60.94540375 96.72484622 57.92480469 96.69995117 C56.54382599 96.69961128 56.54382599 96.69961128 55.13494873 96.69926453 C54.14940002 96.68378067 53.16385132 96.66829681 52.1484375 96.65234375 C51.13307922 96.64809891 50.11772095 96.64385406 49.07159424 96.63948059 C45.83131296 96.62269924 42.59165553 96.58504741 39.3515625 96.546875 C37.15365482 96.53182749 34.95573738 96.5181392 32.7578125 96.50585938 C27.37218328 96.47279755 21.98691747 96.42260336 16.6015625 96.359375 C16.54097656 95.21597656 16.48039063 94.07257813 16.41796875 92.89453125 C16.33357822 91.40363195 16.24892948 89.91274725 16.1640625 88.421875 C16.12474609 87.66712891 16.08542969 86.91238281 16.04492188 86.13476562 C16.16118226 82.43993313 16.16118226 82.43993313 14.6015625 79.359375 C11.6015625 79.19270833 11.6015625 79.19270833 8.6015625 79.359375 C6.54233848 81.41859902 7.18728671 85.57645624 7.0390625 88.421875 C6.97428711 89.55979492 6.97428711 89.55979492 6.90820312 90.72070312 C6.80182617 92.60002938 6.70116316 94.47967744 6.6015625 96.359375 C2.3115625 96.359375 -1.9784375 96.359375 -6.3984375 96.359375 C-6.45902344 94.27753906 -6.51960938 92.19570312 -6.58203125 90.05078125 C-6.64459157 88.04189998 -6.70718525 86.03301959 -6.77075195 84.02416992 C-6.81415184 82.62448301 -6.85582314 81.22474141 -6.89575195 79.82495117 C-6.95333195 77.81676005 -7.0175775 75.80876351 -7.08203125 73.80078125 C-7.11868896 72.59107666 -7.15534668 71.38137207 -7.19311523 70.13500977 C-7.08782016 67.45232044 -7.08782016 67.45232044 -8.3984375 66.359375 C-11.3984375 66.19270833 -11.3984375 66.19270833 -14.3984375 66.359375 C-16.25808825 68.21902575 -15.63931299 71.30826619 -15.71484375 73.80078125 C-15.75673828 75.10595703 -15.79863281 76.41113281 -15.84179688 77.75585938 C-15.88161358 79.1445283 -15.92132575 80.53320022 -15.9609375 81.921875 C-16.00411739 83.31446683 -16.0477315 84.70704528 -16.09179688 86.09960938 C-16.19829556 89.51940049 -16.29890806 92.93937396 -16.3984375 96.359375 C-20.6884375 96.359375 -24.9784375 96.359375 -29.3984375 96.359375 C-29.45902344 95.21597656 -29.51960938 94.07257813 -29.58203125 92.89453125 C-29.66642178 91.40363195 -29.75107052 89.91274725 -29.8359375 88.421875 C-29.87525391 87.66712891 -29.91457031 86.91238281 -29.95507812 86.13476562 C-29.83881774 82.43993313 -29.83881774 82.43993313 -31.3984375 79.359375 C-33.7084375 79.359375 -36.0184375 79.359375 -38.3984375 79.359375 C-38.7284375 84.969375 -39.0584375 90.579375 -39.3984375 96.359375 C-45.61938802 96.71042703 -51.834367 96.96167348 -58.06298828 97.12841797 C-60.17208411 97.19802615 -62.28052504 97.29296516 -64.38720703 97.41552734 C-78.23383502 98.19979613 -87.05539445 96.99609251 -97.71517944 87.67965698 C-99.03191845 86.470126 -100.33727132 85.24803875 -101.62887573 84.01170349 C-104.01863509 81.78026544 -106.56336956 79.89983592 -109.2109375 77.984375 C-114.68156225 73.59844309 -118.78702707 68.08039227 -119.70703125 60.9765625 C-120.06462959 53.36947044 -118.3955289 49.06391979 -113.3984375 43.359375 C-112.93824219 42.82828125 -112.47804687 42.2971875 -112.00390625 41.75 C-100.11091933 30.07667247 -79.537494 24.5637068 -64.56439209 18.20916748 C-60.28526678 16.3915221 -56.01010049 14.56457499 -51.73410034 12.73959351 C-49.35166541 11.72462477 -46.9679911 10.7125599 -44.58303833 9.70352173 C-39.0944326 7.37942575 -33.62571935 5.02653016 -28.19677734 2.56591797 C-27.24063034 2.1381456 -26.28448334 1.71037323 -25.29936218 1.26963806 C-23.53952326 0.47974593 -21.78551825 -0.32334286 -20.03913879 -1.14256287 C-12.51458101 -4.49549152 -7.45077788 -3.39006488 0 0 Z " fill="#4B4844" transform="translate(296.3984375,14.640625)"/>
<path d="M0 0 C1.28028076 -0.00942627 1.28028076 -0.00942627 2.58642578 -0.01904297 C7.21806313 0.07638785 7.21806313 0.07638785 9.0625 0.5 C11.50048223 4.15697335 11.31814453 5.900558 11.32992554 10.26078796 C11.33445665 10.95191061 11.33898776 11.64303326 11.34365618 12.35509902 C11.35634045 14.67649746 11.35467723 16.99766249 11.35302734 19.3190918 C11.35901026 20.98141279 11.36581526 22.643731 11.37338257 24.30604553 C11.39107817 28.82693682 11.39573956 33.34775243 11.39701414 37.86867499 C11.39891223 41.64329321 11.4062691 45.41789376 11.41335833 49.19250518 C11.42965494 58.10124626 11.43452629 67.0099469 11.43310547 75.91870117 C11.43190505 85.1032969 11.45298398 94.28765724 11.4845928 103.47219342 C11.51076782 111.35937373 11.52147218 119.24647727 11.52019465 127.13370067 C11.51968519 131.84340067 11.52535891 136.55289176 11.54655075 141.26254845 C11.56595271 145.69575442 11.56604429 150.12855272 11.55151749 154.5617733 C11.54943041 156.18549191 11.5541243 157.80923616 11.5662384 159.43291092 C11.649053 171.30556375 10.54363861 178.41071109 2.11460876 186.97889709 C1.47294266 187.61089523 0.83127655 188.24289337 0.17016602 188.89404297 C-0.85741821 189.92973167 -0.85741821 189.92973167 -1.90576172 190.98634338 C-4.15527201 193.24828252 -6.41886955 195.49548917 -8.68359375 197.7421875 C-10.2583938 199.31714263 -11.83252628 200.89276553 -13.40602112 202.46902466 C-16.69739893 205.7617837 -19.99561479 209.04748611 -23.29907227 212.328125 C-27.53228652 216.53289763 -31.7496922 220.75311748 -35.96234035 224.9784832 C-39.20720496 228.23030102 -42.45939459 231.47471025 -45.71394539 234.71683121 C-47.27212985 236.27050186 -48.82823095 237.82626484 -50.38220024 239.38415146 C-52.55279627 241.55765753 -54.73284503 243.72121166 -56.91577148 245.88232422 C-57.55541336 246.52646774 -58.19505524 247.17061127 -58.8540802 247.83427429 C-63.84341004 252.74103491 -67.67235822 254.78227089 -74.8125 254.875 C-80.50281941 254.75630622 -83.47860356 254.04891758 -87.9375 250.5 C-91.96200998 245.97111279 -93.73026515 242.24586173 -94.1875 236.1875 C-93.2531312 222.40556016 -78.88014962 212.25084342 -69.75390625 203.078125 C-68.73593617 202.05404163 -68.73593617 202.05404163 -67.69740105 201.00926971 C-64.11200695 197.4031352 -60.52343145 193.80020054 -56.93237305 190.19970703 C-53.23767359 186.49390351 -49.5548112 182.77656027 -45.87440586 179.05656815 C-43.02681171 176.18279273 -40.17033242 173.31797372 -37.31141472 170.45546722 C-35.94976212 169.08896117 -34.59147338 167.71909418 -33.23672676 166.34574127 C-31.33978092 164.42434844 -29.43048489 162.51608252 -27.51782227 160.61035156 C-26.96848526 160.0482045 -26.41914825 159.48605743 -25.85316467 158.90687561 C-21.37934013 154.49155767 -16.39774988 151.01455285 -10.07421875 150.07421875 C-9.26597656 150.11160156 -8.45773437 150.14898437 -7.625 150.1875 C-6.80386719 150.21199219 -5.98273438 150.23648438 -5.13671875 150.26171875 C-2.9375 150.5 -2.9375 150.5 0.0625 151.5 C0.0625 147.21 0.0625 142.92 0.0625 138.5 C-1.4225 138.4175 -2.9075 138.335 -4.4375 138.25 C-12.35962291 137.4219815 -17.48832665 134.6389931 -22.61328125 128.57421875 C-26.6712926 122.21786468 -27.37574056 117.04931356 -27.32568359 109.65258789 C-27.33094055 108.68905899 -27.33619751 107.72553009 -27.34161377 106.73280334 C-27.35476675 103.56258711 -27.34609147 100.39287719 -27.3359375 97.22265625 C-27.33795975 95.00980025 -27.34087244 92.79694491 -27.34463501 90.58409119 C-27.34905215 85.95158529 -27.34264743 81.31925323 -27.32861328 76.68676758 C-27.31153197 70.76087363 -27.32136003 64.83538766 -27.33933067 58.90950871 C-27.35019344 54.34119111 -27.34671052 49.77296953 -27.3389473 45.20464897 C-27.33695167 43.02025745 -27.33938207 40.83585711 -27.34638596 38.65147591 C-27.35404024 35.59301942 -27.3423398 32.53521483 -27.32568359 29.47680664 C-27.33175629 28.58149231 -27.33782898 27.68617798 -27.34408569 26.76373291 C-27.26918385 19.30587274 -25.78562033 12.52816547 -20.46875 6.88671875 C-14.05886173 1.08184545 -8.48510041 0.04906512 0 0 Z " fill="#232020" transform="translate(460.9375,257.5)"/>
<path d="M0 0 C4.89087946 1.38421117 10.68299827 1.25225087 15.3125 -1.0625 C29.37107037 -2.34245939 39.93854441 2.467183 52.08276367 8.85131836 C59.15368374 12.53762779 64.78738653 13.09918783 72.6875 13.0625 C73.5125 13.06636719 74.3375 13.07023438 75.1875 13.07421875 C78.95052143 13.0682457 82.57049589 12.96555039 86.2890625 12.36328125 C89.3125 11.9375 89.3125 11.9375 91.3125 13 C92.81518053 15.91144352 92.07752426 17.80436044 91.3125 20.9375 C83.65208863 33.69818525 71.48741302 41.2399663 57.3984375 45.04296875 C44.32707926 48.16034108 31.08904382 45.29059001 18.19824219 42.62866211 C11.52963857 41.29653227 5.99101569 40.63222655 -0.6875 41.9375 C-1.56196777 42.09162354 -2.43643555 42.24574707 -3.33740234 42.40454102 C-5.25904265 42.74591321 -7.17944576 43.09431381 -9.09863281 43.44921875 C-28.91821566 47.05626771 -45.79920748 48.53879105 -63.22265625 36.71484375 C-64.03605469 36.12832031 -64.84945312 35.54179687 -65.6875 34.9375 C-66.34621094 34.46441406 -67.00492188 33.99132812 -67.68359375 33.50390625 C-72.61264225 29.62873004 -76.9614718 24.59580196 -79.6875 18.9375 C-79.45001302 15.53846754 -79.11678435 14.36678435 -76.6875 11.9375 C-74.34589503 12.20665 -72.01325757 12.55486793 -69.6875 12.9375 C-53.07179331 14.27347458 -40.66416178 10.27456155 -26.01489258 2.6171875 C-17.81928399 -1.66473533 -8.99752374 -2.59250684 0 0 Z " fill="#262323" transform="translate(278.6875,237.0625)"/>
<path d="M0 0 C6.726275 14.81829112 7.42758135 28.8674422 7.29296875 44.8359375 C7.2873605 46.81132685 7.28309623 48.78672043 7.28010559 50.76211548 C7.26875347 55.91430564 7.23937132 61.06623451 7.20599365 66.21832275 C7.17508291 71.4944709 7.16155575 76.77066204 7.14648438 82.046875 C7.11449068 92.36469696 7.06341359 102.68232659 7 113 C5.86291498 112.04902443 4.72911343 111.09412181 3.59672546 110.13755798 C2.96499263 109.60621718 2.33325979 109.07487638 1.68238354 108.52743435 C-2.09649675 105.09659267 -3.70869009 100.53153827 -4.28369141 95.53466797 C-4.36423071 92.9974327 -4.34872017 90.47556809 -4.3125 87.9375 C-4.27846455 80.11167623 -4.27846455 80.11167623 -7.875 73.4375 C-9.21733973 72.25357303 -10.59712338 71.11152877 -12 70 C-13.42048392 68.67368074 -14.83965699 67.34547348 -16.22900391 65.98657227 C-17.61295859 64.63528206 -19.03031416 63.3184501 -20.44921875 62.00390625 C-26.64434789 54.70826412 -27.57654083 47.65906336 -27.625 38.3125 C-27.63465245 29.46291339 -27.63465245 29.46291339 -30 21 C-29.35675781 20.53851563 -28.71351563 20.07703125 -28.05078125 19.6015625 C-21.55738174 14.91445815 -15.17915087 10.10171995 -8.84765625 5.19921875 C-7.90792969 4.47347656 -6.96820313 3.74773437 -6 3 C-5.25621094 2.40832031 -4.51242187 1.81664063 -3.74609375 1.20703125 C-2 0 -2 0 0 0 Z " fill="#5A5353" transform="translate(395,97)"/>
<path d="M0 0 C6.65493631 4.94751744 13.19817123 10.03037975 19.72851562 15.140625 C20.49486328 15.73875 21.26121094 16.336875 22.05078125 16.953125 C23.08199097 17.75991699 23.08199097 17.75991699 24.1340332 18.58300781 C25.71245986 19.78164556 27.35091008 20.90060672 29 22 C28.67902344 22.75539063 28.35804688 23.51078125 28.02734375 24.2890625 C26.37931476 30.24201892 26.60445286 36.26649317 26.52148438 42.4140625 C26.2915677 50.98266462 25.06820293 57.4438815 18.9375 63.875 C17.75994141 65.16083984 17.75994141 65.16083984 16.55859375 66.47265625 C14 69 14 69 11.22265625 71.12109375 C6.01611597 75.31038342 6.01611597 75.31038342 3.53222656 81.36181641 C3.19618564 85.03464925 3.09903698 88.65059726 3.19726562 92.3371582 C3.33558954 98.36707713 2.79410379 103.11968615 -1 108 C-2.95862847 109.71893561 -4.98361226 111.348259 -7 113 C-7.06987116 101.65494186 -7.12299826 90.3099359 -7.15543652 78.96470547 C-7.17101443 73.69522372 -7.19210684 68.42589046 -7.22631836 63.15649414 C-7.25919517 58.06010058 -7.27691203 52.96384878 -7.28463173 47.86735725 C-7.29012487 45.93434484 -7.3008497 44.00133914 -7.31719017 42.06838799 C-7.43743151 27.23917887 -6.86370821 13.49073683 0 0 Z " fill="#5B5454" transform="translate(176,96)"/>
<path d="M0 0 C4.55872307 0.42828233 4.55872307 0.42828233 8.76953125 -0.9921875 C14.35423423 -3.51557343 22.72187058 -2.77536594 28.609375 -1.3828125 C31.15955918 -0.38912004 33.55581122 0.76597442 36 2 C38.13229127 3.02345739 40.26966918 4.03560968 42.40869141 5.04492188 C43.89300221 5.74843495 45.37340101 6.46028118 46.84912109 7.18164062 C52.87579471 10.09058609 58.71908232 12.07280129 65.4375 12.625 C66.30246094 12.69976562 67.16742188 12.77453125 68.05859375 12.8515625 C69.01958984 12.92503906 69.01958984 12.92503906 70 13 C65.06478853 18.95628971 57.59511997 22.59561933 50 24 C38.53120929 25.06615584 27.79264415 23.10165854 16.58178711 20.77880859 C5.21389439 18.46044919 -3.25042342 19.05855057 -14.5625 21.5 C-31.26475692 24.87657452 -45.22192013 26.45646839 -60.1875 16.8125 C-61.48624662 15.91406757 -62.76832427 14.98838176 -64 14 C-64 13.67 -64 13.34 -64 13 C-63.14019531 12.91363281 -62.28039062 12.82726562 -61.39453125 12.73828125 C-51.14885966 11.52042061 -42.20960858 8.96712834 -33.19140625 3.89453125 C-22.34284192 -2.13940798 -12.09297317 -5.21248843 0 0 Z " fill="#4B4844" transform="translate(282,249)"/>
<path d="M0 0 C0 38.61 0 77.22 0 117 C-6.7636577 117 -8.88689902 115.68370774 -13.8125 111.4375 C-15.97140144 108.82409299 -16.12927898 106.20912056 -16.16062927 102.96588135 C-16.1706749 102.14728638 -16.18072052 101.32869141 -16.19107056 100.48529053 C-16.19690155 99.59070129 -16.20273254 98.69611206 -16.20874023 97.77441406 C-16.21852402 96.82937012 -16.2283078 95.88432617 -16.23838806 94.91064453 C-16.26833484 91.77898568 -16.2897253 88.6473695 -16.30859375 85.515625 C-16.31516558 84.44592216 -16.3217374 83.37621933 -16.32850838 82.27410126 C-16.36109852 76.6121096 -16.38555051 70.95013674 -16.4050293 65.28808594 C-16.42284519 60.60291169 -16.45767123 55.91833898 -16.50756836 51.23339844 C-16.56775354 45.57590187 -16.59850281 39.91896327 -16.60820198 34.2611618 C-16.61676031 32.10658019 -16.63558759 29.95201364 -16.6649456 27.79761505 C-16.7038686 24.77880417 -16.70489345 21.76216642 -16.69702148 18.74316406 C-16.7270224 17.4134256 -16.7270224 17.4134256 -16.75762939 16.05682373 C-16.69224504 10.45897194 -15.51594899 7.48308898 -11.67862034 3.38402939 C-7.5383833 -0.02961312 -5.7298282 0 0 0 Z " fill="#FEFEFE" transform="translate(461,268)"/>
<path d="M0 0 C3.05167261 0.45775089 3.60459091 0.98448405 5.5 3.375 C6.2884354 5.43663319 7.01079545 7.52404004 7.6875 9.625 C10.61102971 17.40954657 14.09570374 21.31376725 21.61328125 24.83203125 C23.71324463 25.70471064 25.82878515 26.54124563 27.9609375 27.33203125 C30.5 28.375 30.5 28.375 32.5 30.375 C32.875 33.6875 32.875 33.6875 31.5 37.375 C28.59116481 39.01542169 25.65002667 40.12198372 22.515625 41.26953125 C15.93993853 43.68004844 11.79744803 47.30946015 8.5 53.375 C7.00340736 56.99217178 5.70527971 60.65142638 4.5 64.375 C1.1875 65.0625 1.1875 65.0625 -2.5 65.375 C-5.53908168 63.20947078 -6.24912893 60.60159217 -7.3125 57.125 C-9.7221941 50.24145874 -12.8269614 45.55309079 -19.375 42.125 C-23.34217154 40.3481973 -27.40766676 38.83654759 -31.5 37.375 C-32.1875 34.0625 -32.1875 34.0625 -32.5 30.375 C-30.33964189 27.34611954 -27.7842386 26.66309391 -24.3125 25.625 C-18.57712052 23.58693252 -14.21830495 21.29603685 -10.5 16.375 C-8.96426677 13.05091945 -7.7278103 9.7501511 -6.60546875 6.265625 C-5.15959238 2.48488819 -4.08595703 0.61289355 0 0 Z M-0.5 21.375 C-3.47675459 24.46827895 -3.47675459 24.46827895 -4.5 28.375 C-5.098125 28.643125 -5.69625 28.91125 -6.3125 29.1875 C-8.48316883 30.36586308 -9.80817212 31.60560981 -11.5 33.375 C-10.45199219 34.31472656 -10.45199219 34.31472656 -9.3828125 35.2734375 C-8.47273438 36.09070313 -7.56265625 36.90796875 -6.625 37.75 C-5.72007813 38.56210937 -4.81515625 39.37421875 -3.8828125 40.2109375 C-2.39103817 41.56576205 -0.92494565 42.95005435 0.5 44.375 C1.12648438 43.67632812 1.75296875 42.97765625 2.3984375 42.2578125 C3.21570313 41.34773438 4.03296875 40.43765625 4.875 39.5 C5.68710938 38.59507812 6.49921875 37.69015625 7.3359375 36.7578125 C8.69076205 35.26603817 10.07505435 33.79994565 11.5 32.375 C8.40672105 29.39824541 8.40672105 29.39824541 4.5 28.375 C4.0978125 27.4778125 4.0978125 27.4778125 3.6875 26.5625 C2.51506533 24.40275192 1.30630718 23.01709744 -0.5 21.375 Z " fill="#211E1E" transform="translate(109.5,271.625)"/>
<path d="M0 0 C2.9375 1.625 2.9375 1.625 5 4 C5.74948045 7.83067788 5.29971595 9.49856641 3.29730225 12.84866333 C0.96102038 16.05347051 -1.50950428 18.74993521 -4.31933594 21.54638672 C-4.83685928 22.06420212 -5.35438263 22.58201752 -5.8875885 23.11552429 C-7.58181523 24.80836914 -9.2829915 26.49403834 -10.984375 28.1796875 C-12.1673684 29.3589467 -13.349918 30.53865126 -14.53204346 31.71878052 C-17.63143355 34.81056618 -20.73678434 37.89629602 -23.84344482 40.98077393 C-27.01776445 44.13456621 -30.18636871 47.29408936 -33.35546875 50.453125 C-39.56475499 56.64101764 -45.78035449 62.82251996 -52 69 C-52.62632324 68.2061792 -53.25264648 67.4123584 -53.89794922 66.59448242 C-55.5765942 64.5225939 -57.05376426 62.94454701 -59.125 61.3125 C-62 59 -62 59 -64 57 C-56.70976469 49.54754225 -49.40070662 42.11411973 -42.06705379 34.70436859 C-38.66227371 31.26306404 -35.2643064 27.81555754 -31.88110352 24.35302734 C-28.61557429 21.01141509 -25.33321571 17.68721952 -22.03851509 14.37437439 C-20.78485888 13.10778858 -19.53737835 11.83505909 -18.296278 10.5561676 C-16.55586518 8.76490039 -14.79471538 6.99679364 -13.02709961 5.23242188 C-12.26536186 4.43293373 -12.26536186 4.43293373 -11.48823547 3.61729431 C-7.7314565 -0.0655926 -5.17088888 -0.67017007 0 0 Z " fill="#454950" transform="translate(456,419)"/>
<path d="M0 0 C0.495 2.97 0.495 2.97 1 6 C-2.80050502 9.33691794 -6.7031144 11.40460676 -11.3359375 13.3203125 C-12.0442421 13.62079498 -12.75254669 13.92127747 -13.48231506 14.23086548 C-14.99518658 14.87156083 -16.50958271 15.50866615 -18.02536011 16.14245605 C-20.39251032 17.13232225 -22.75544634 18.1316667 -25.11743164 19.13378906 C-28.26813925 20.46979529 -31.420201 21.8025042 -34.57373047 23.13183594 C-40.53858724 25.64749481 -46.49225391 28.18829115 -52.4375 30.75 C-53.82751221 31.33998779 -53.82751221 31.33998779 -55.24560547 31.94189453 C-56.0913916 32.30653809 -56.93717773 32.67118164 -57.80859375 33.046875 C-58.52845459 33.35463867 -59.24831543 33.66240234 -59.98999023 33.97949219 C-62.24828193 35.12605593 -64.11543127 36.302591 -66 38 C-66 38.99 -66 39.98 -66 41 C-64.62523331 42.4350696 -64.62523331 42.4350696 -62.74609375 43.70703125 C-62.05580078 44.21169922 -61.36550781 44.71636719 -60.65429688 45.23632812 C-59.92275391 45.75646484 -59.19121094 46.27660156 -58.4375 46.8125 C-43.32745955 57.71993085 -43.32745955 57.71993085 -42.3125 61.6875 C-43 64 -43 64 -44.625 65.9375 C-47 67 -47 67 -49.6875 66.421875 C-53.84766118 64.63614544 -56.91779673 62.19518902 -60.375 59.3125 C-61.36246216 58.50220337 -61.36246216 58.50220337 -62.36987305 57.67553711 C-63.66826015 56.60634314 -64.9632272 55.53297966 -66.25439453 54.45507812 C-67.72018098 53.23324774 -69.20026919 52.0286031 -70.68359375 50.828125 C-77.23024321 45.39861022 -77.23024321 45.39861022 -78 41 C-77.80933908 35.66149433 -76.87851997 32.68932387 -73 29 C-64.4415906 22.96795165 -54.64664437 19.18496827 -45.0625 15.125 C-43.39680928 14.41517819 -41.73128254 13.70497145 -40.06591797 12.99438477 C-37.60882827 11.94651094 -35.15137133 10.89956629 -32.69238281 9.8561554 C-28.30777585 7.99421576 -23.94249733 6.09808718 -19.59765625 4.14453125 C-18.72939209 3.75958496 -17.86112793 3.37463867 -16.96655273 2.97802734 C-15.46943511 2.3127458 -13.97742552 1.6357681 -12.49243164 0.94384766 C-7.95367362 -1.04047625 -4.80899513 -1.0873051 0 0 Z " fill="#5B5454" transform="translate(265,34)"/>
<path d="M0 0 C13.5215311 0 13.5215311 0 19 5 C27.27260709 14.2841049 26.71180796 23.47484334 26.22216797 35.4375 C25.70534535 41.39856617 23.56636698 45.52315745 19.3203125 49.62109375 C13.1298468 54.47717018 7.92814613 55 0 55 C0 47.41 0 39.82 0 32 C3.465 31.505 3.465 31.505 7 31 C8.35618499 29.87465895 8.35618499 29.87465895 8.0625 26.9375 C8.041875 25.968125 8.02125 24.99875 8 24 C5.36 23.34 2.72 22.68 0 22 C0 14.74 0 7.48 0 0 Z " fill="#FBFBFB" transform="translate(412,182)"/>
<path d="M0 0 C0 7.26 0 14.52 0 22 C-2.64 22.66 -5.28 23.32 -8 24 C-8.04254356 25.99954746 -8.04080783 28.00041636 -8 30 C-6.4 31.8 -6.4 31.8 0 32 C0 39.59 0 47.18 0 55 C-8.51203152 55 -12.91522932 54.70684898 -18.984375 49.19921875 C-26.5675481 41.13034654 -26.61812497 32.168842 -26.37890625 21.62890625 C-26.01020901 15.06503809 -23.96620891 10.17103663 -19.47265625 5.3671875 C-12.93179257 -0.45800916 -9.30579096 0 0 0 Z " fill="#FAFAFA" transform="translate(158,182)"/>
<path d="M0 0 C21.17322077 -0.75703136 38.62267246 11.2651625 54.06982422 24.38476562 C57.0258282 26.85844667 60.07468429 29.20698081 63.125 31.5625 C70.29044843 37.1343659 77.15620205 43.0402793 84 49 C79.82837194 50.39054269 77.24041077 48.72125539 73.39453125 47.0625 C72.63766525 46.74474609 71.88079926 46.42699219 71.10099792 46.09960938 C68.66762569 45.07531402 66.2401513 44.03777092 63.8125 43 C62.22757283 42.3311792 60.64228956 41.66320159 59.05664062 40.99609375 C55.13044496 39.34057497 51.21213999 37.6673428 47.29727173 35.98522949 C45.03205841 35.01374887 42.76360114 34.05015209 40.49487305 33.08691406 C39.07972095 32.48027103 37.66475428 31.87319521 36.25 31.265625 C35.29991814 30.864646 35.29991814 30.864646 34.3306427 30.45556641 C20.24805335 24.36127078 7.39343108 13.51213265 0 0 Z " fill="#F9F9F9" transform="translate(135,437)"/>
<path d="M0 0 C-6.89703647 5.65498541 -13.80216846 11.30008322 -20.73779297 16.90771484 C-24.2152278 19.72184756 -27.67132844 22.55588085 -31.08984375 25.44140625 C-46.11883479 38.05227233 -65.37885608 51.40598709 -86 50 C-74.76654295 30.80358605 -57.27240204 21.41728379 -37.34228516 13.35839844 C-34.15576728 12.06330819 -30.97914084 10.74673604 -27.80432129 9.42333984 C-24.87359842 8.20308661 -21.9396137 6.99082531 -19.00482178 5.78039551 C-17.54503785 5.17752698 -16.0860893 4.57263162 -14.62799072 3.96569824 C-12.5740976 3.11259042 -10.5162551 2.26983133 -8.45703125 1.4296875 C-7.26053955 0.93710449 -6.06404785 0.44452148 -4.83129883 -0.06298828 C-2 -1 -2 -1 0 0 Z " fill="#F9F9F9" transform="translate(221,377)"/>
<path d="M0 0 C4.89056575 2.78218852 8.51797132 5.82187885 11.63671875 10.5 C11.88671875 13.0625 11.88671875 13.0625 11.63671875 15.5 C9.63671875 17.5 9.63671875 17.5 7.01171875 18.0625 C2.59159401 17.32581254 0.89989347 15.25440382 -2.296875 12.2578125 C-7.16629623 8.11558272 -12.83216938 6.9029207 -19.1328125 7.15234375 C-24.69901641 8.0199307 -28.74203033 10.64371977 -32.48828125 14.75 C-35.36328125 17.5 -35.36328125 17.5 -38.61328125 18 C-41.36328125 17.5 -41.36328125 17.5 -43.36328125 15.5 C-43.50603469 11.8597873 -43.1741281 9.46577292 -40.7890625 6.625 C-29.00578051 -4.116538 -14.70901882 -6.9126497 0 0 Z " fill="#282425" transform="translate(351.36328125,175.5)"/>
<path d="M0 0 C2.8441055 1.81636076 5.4320162 3.81460521 8 6 C8.825 6.66 9.65 7.32 10.5 8 C12.57724986 10.76966648 12.44001639 12.62654102 12 16 C10 18 10 18 7.1875 18.4375 C2.96872144 17.85845196 1.77289029 16.13774428 -1 13 C-6.06517559 8.7262581 -10.743396 7.48008589 -17.3046875 7.6171875 C-23.43414894 8.48774869 -28.46948054 11.43469601 -32.75 15.8125 C-35 18 -35 18 -38.1875 18.5 C-39.115625 18.335 -40.04375 18.17 -41 18 C-43 15 -43 15 -42.8359375 12.5625 C-40.75440456 6.18172613 -34.61928626 1.99110764 -28.875 -1 C-19.81620418 -4.72417162 -8.76593813 -4.54342458 0 0 Z " fill="#282425" transform="translate(250,175)"/>
<path d="M0 0 C3.8563884 0.40290625 5.66611551 1.28979644 8.3125 4.0625 C13.79823369 9.14149678 20.45666155 11.91245943 27.13671875 15.09521484 C36.77585329 19.77585329 36.77585329 19.77585329 39 22 C39.25 24.9375 39.25 24.9375 39 28 C36 30 36 30 33.328125 29.8515625 C29.20938087 28.79770543 25.57420332 27.21020749 21.75 25.375 C20.99783203 25.01599609 20.24566406 24.65699219 19.47070312 24.28710938 C9.77025325 19.54968037 1.88480695 13.33248955 -6 6 C-4 4 -2 2 0 0 Z " fill="#5B5454" transform="translate(205,402)"/>
<path d="M0 0 C3.5 -0.375 3.5 -0.375 7 0 C9.24731913 3.3709787 9.2806686 4.66939204 9.37890625 8.62890625 C9.43014648 10.30629883 9.43014648 10.30629883 9.48242188 12.01757812 C9.50884766 13.18740234 9.53527344 14.35722656 9.5625 15.5625 C9.77095693 23.42620507 10.11164909 31.18104364 11 39 C8.03 39.99 5.06 40.98 2 42 C1.51526322 40.31409158 1.03751074 38.62617455 0.5625 36.9375 C0.16224609 35.52791016 0.16224609 35.52791016 -0.24609375 34.08984375 C-1.9442802 27.12991897 -2.18256007 20.37337383 -2.1875 13.25 C-2.19974609 12.30511719 -2.21199219 11.36023438 -2.22460938 10.38671875 C-2.22654297 9.48050781 -2.22847656 8.57429688 -2.23046875 7.640625 C-2.23457764 6.82110352 -2.23868652 6.00158203 -2.24291992 5.15722656 C-2 3 -2 3 0 0 Z " fill="#5B5454" transform="translate(181,338)"/>
<path d="M0 0 C5.46097618 -0.36406508 5.46097618 -0.36406508 7.67431641 1.13085938 C9.57219072 3.8067573 9.38837979 5.83505227 9.3984375 9.09375 C9.40230469 10.28871094 9.40617188 11.48367188 9.41015625 12.71484375 C9.39855469 13.96394531 9.38695312 15.21304687 9.375 16.5 C9.38660156 17.74910156 9.39820313 18.99820312 9.41015625 20.28515625 C9.40628906 21.48011719 9.40242187 22.67507813 9.3984375 23.90625 C9.39505371 25.00259766 9.39166992 26.09894531 9.38818359 27.22851562 C9 30 9 30 7.67431641 31.86914062 C5.16323743 33.56516247 2.94474597 33.1963164 0 33 C-1.99201679 29.67271873 -2.25694591 27.13228666 -2.265625 23.28125 C-2.26820313 22.18425781 -2.27078125 21.08726562 -2.2734375 19.95703125 C-2.26570312 18.81621094 -2.25796875 17.67539062 -2.25 16.5 C-2.25773438 15.35917969 -2.26546875 14.21835937 -2.2734375 13.04296875 C-2.27085937 11.94597656 -2.26828125 10.84898437 -2.265625 9.71875 C-2.26224121 8.21731445 -2.26224121 8.21731445 -2.25878906 6.68554688 C-1.99713221 3.97023996 -1.38963344 2.32111564 0 0 Z " fill="#211E1E" transform="translate(160,317)"/>
<path d="M0 0 C2.97672584 1.77280561 5.42804007 3.85608015 7 7 C7.40417552 9.96395382 7.56382171 12.08904926 5.953125 14.69140625 C4.15636794 16.88450678 2.55808759 18.7209562 0 20 C-4.18144011 20.39447548 -6.30946048 20.45035186 -9.875 18.125 C-12.80038857 15.19961143 -12.96503325 14.42659437 -13.3125 10.1875 C-13.28232024 6.86772673 -13.0060988 6.00955479 -11.125 3.0625 C-7.52217335 -0.43436116 -4.97275774 -0.49727577 0 0 Z " fill="#292526" transform="translate(238,195)"/>
<path d="M0 0 C2.66346536 2.1437648 3.7026198 3.58458461 4.40625 6.93359375 C4.7206953 11.09213286 4.3257515 12.59709683 1.625 15.9375 C-2.15401664 18.90672736 -4.17380821 19.55686828 -9 19 C-12.33144108 16.98856388 -14.30746955 15.70334511 -15.7734375 12.09765625 C-16.39419019 9.04659823 -16.52957215 6.95984953 -15 4.1875 C-10.44502912 -1.45198775 -6.73303467 -1.71016689 0 0 Z " fill="#282425" transform="translate(341,196)"/>
<path d="M0 0 C3.42123173 2.47493359 4.79477021 3.88263781 5.5625 8.0625 C4.86355315 11.71255579 4.01797955 12.85564611 1 15 C-1.9375 16 -1.9375 16 -5 16 C-7.74716387 14.22960551 -9.53145922 12.93708156 -11 10 C-11.38503376 6.45768939 -11.41935959 4.63742658 -9.4375 1.625 C-6.02544071 -0.64970619 -4.02388226 -0.63534983 0 0 Z " fill="#F6F6F6" transform="translate(389,486)"/>
<path d="M0 0 C3.5625 0.25 3.5625 0.25 7 1 C8.2220897 3.4441794 8.23641068 5.21029872 8.3125 7.9375 C8.34988281 8.81277344 8.38726562 9.68804687 8.42578125 10.58984375 C8 13 8 13 6.1484375 14.859375 C4 16 4 16 1.3125 15.3125 C-1 14 -1 14 -2 12 C-2.12082534 10.33654418 -2.1753794 8.66779409 -2.1875 7 C-2.20167969 6.113125 -2.21585938 5.22625 -2.23046875 4.3125 C-2 2 -2 2 0 0 Z " fill="#221F1F" transform="translate(161,358)"/>
<path d="M0 0 C3 0.25 3 0.25 5 2.25 C5.30078125 4.78125 5.30078125 4.78125 5.3125 7.75 C5.32925781 8.7296875 5.34601563 9.709375 5.36328125 10.71875 C5.18345703 11.97171875 5.18345703 11.97171875 5 13.25 C2 15.25 2 15.25 -0.5625 15.0625 C-3 14.25 -3 14.25 -5 11.25 C-5.265625 9.05859375 -5.265625 9.05859375 -5.25 6.6875 C-5.25515625 5.90246094 -5.2603125 5.11742187 -5.265625 4.30859375 C-4.80442958 0.73432925 -3.43132121 0.28594343 0 0 Z " fill="#242120" transform="translate(285,398.75)"/>
<path d="M0 0 C1 1 1 1 1.4375 3.8125 C1 7 1 7 -1.5625 9.4375 C-5.61466264 11.27939211 -7.73378035 11.02389272 -12 10 C-12.6875 7.1875 -12.6875 7.1875 -13 4 C-9.66276666 -0.91802808 -5.46056245 -1.33480415 0 0 Z " fill="#5B5454" transform="translate(289,23)"/>
<path d="M0 0 C3 0.25 3 0.25 5 2.25 C5.55186722 8.32053942 5.55186722 8.32053942 3.8125 11.25 C2 12.25 2 12.25 -0.5625 12.0625 C-3 11.25 -3 11.25 -5 9.25 C-5.25 5.75 -5.25 5.75 -5 2.25 C-3 0.25 -3 0.25 0 0 Z " fill="#232020" transform="translate(285,61.75)"/>
</svg>
