<svg width="2500" height="834" viewBox="0 0 2500 834" fill="none" xmlns="http://www.w3.org/2000/svg">
<path d="M303.538 150.215C303.538 150.215 304.111 150.788 304.541 150.788C309.768 150.788 314.853 151.862 320.008 152.506C328.888 153.652 337.553 155.729 346.217 158.235C359.465 162.03 372.068 167.401 384.242 173.703C384.6 173.917 384.958 174.061 385.244 174.275C385.388 174.347 385.459 174.562 385.96 175.35C377.367 171.411 369.204 167.831 360.754 164.966C352.161 162.102 343.425 159.739 334.545 157.877C325.88 156.087 317.144 154.583 308.265 153.938C317.86 156.23 327.313 158.951 336.335 162.89C345 166.685 353.164 171.554 360.468 177.713C362.329 179.288 364.191 180.935 365.91 182.654C377.582 194.111 384.528 208.075 387.822 224.044C389.326 231.348 389.899 238.652 389.398 246.028C388.825 254.12 387.536 262.211 385.244 270.017C383.168 277.106 380.375 283.981 377.081 290.569C371.137 302.384 363.332 312.911 353.378 321.575C347.435 326.803 340.704 330.885 333.256 333.749C327.814 335.897 322.228 337.473 316.5 338.332C310.413 339.263 304.183 339.335 297.953 338.69C288.859 337.687 280.767 334.322 273.248 329.524C265.872 324.798 259.714 318.568 255.847 310.619C252.911 304.676 250.977 298.374 250.762 291.643C250.762 289.781 250.118 287.991 250.19 286.057C250.691 274.457 253.77 263.715 261.504 254.764C266.373 249.179 271.816 244.166 278.69 241.015C280.194 240.299 281.626 239.511 283.488 238.58C281.411 237.435 279.549 237.578 277.759 237.22C269.882 235.788 261.862 235.859 253.913 236.003C242.742 236.217 232.072 238.724 222.19 244.094C215.459 247.746 209.874 252.831 204.933 258.774C197.557 267.654 193.475 278.037 190.969 289.065C190.038 293.075 189.608 297.157 188.964 301.238C188.391 304.962 189.107 308.757 187.961 312.409C187.46 314.128 187.174 314.558 185.527 314.773C184.739 314.844 183.951 314.773 183.163 314.773C169.558 314.773 155.88 314.773 142.275 314.773C141.559 314.773 140.914 314.773 140.198 314.773C138.766 314.701 137.978 315.202 137.334 316.706C135.114 322.22 133.395 327.805 132.178 333.606C130.531 341.626 130.602 349.718 131.104 357.738C131.605 365.758 133.753 373.635 136.689 381.154C137.907 384.377 138.479 384.663 141.988 384.663C155.952 384.663 169.844 384.663 183.808 384.663C184.524 384.663 185.169 384.663 185.885 384.663C188.176 384.735 188.463 385.021 188.534 387.169C188.534 387.957 188.534 388.745 188.534 389.532C188.534 401.778 191.112 413.522 195.838 424.764C199.276 432.999 204.073 440.232 210.447 446.39C218.252 453.837 227.561 458.564 238.088 460.998C242.313 461.929 246.609 462.431 250.906 462.932C254.844 463.361 258.783 463.433 262.721 463.361C266.015 463.361 269.381 462.717 272.675 462.431C276.327 462.073 279.836 461.285 284.061 460.855C281.626 459.638 279.693 458.564 277.687 457.633C273.248 455.556 269.452 452.549 266.015 449.183C258.496 441.879 253.412 433.142 251.407 422.688C250.404 417.46 250.046 412.304 250.619 406.933C251.622 398.412 254.415 390.678 259.069 383.589C262.506 378.361 267.089 374.208 272.102 370.413C279.621 364.684 288.286 362.035 297.38 360.459C299.313 360.101 301.319 360.459 303.324 360.316C306.976 359.886 310.628 360.101 314.137 360.531C320.653 361.247 327.026 362.894 333.256 365.4C339.987 368.121 346.146 371.845 351.731 376.356C360.897 383.732 368.13 392.683 373.859 402.995C377.797 410.084 381.377 417.317 383.884 424.979C386.032 431.495 387.607 438.155 388.467 445.03C389.04 449.899 389.613 454.768 389.541 459.709C389.398 467.3 388.252 474.747 386.175 482.051C384.743 486.992 383.096 491.79 380.733 496.373C377.153 503.248 372.713 509.406 367.342 514.992C361.184 521.365 354.381 526.807 346.719 531.175C341.42 534.183 335.834 536.689 330.034 538.766C323.517 541.057 316.858 542.776 310.198 544.495C309.912 544.495 309.697 544.709 309.482 544.996C322.586 543.85 335.476 541.415 348.151 537.978C360.826 534.541 372.999 530.03 385.101 524.301C384.743 525.59 383.884 525.661 383.239 526.019C371.281 532.393 358.677 537.334 345.716 541.129C338.054 543.349 330.32 545.067 322.443 546.356C316.929 547.287 311.344 547.645 305.83 548.576C305.758 548.576 305.615 548.576 305.543 548.576C298.669 548.576 291.723 549.937 284.848 549.078C280.552 548.576 276.255 548.72 271.887 548.218C267.877 547.789 263.939 547.073 259.928 546.714C256.348 546.356 252.768 545.497 249.187 544.781C240.809 543.062 232.502 540.771 224.41 537.907C218.538 535.83 212.81 533.467 207.153 530.96C195.91 526.019 185.455 519.718 175.43 512.772C170.918 509.621 166.622 506.184 162.325 502.746C156.668 498.235 151.655 493.151 146.5 488.067C139.912 481.55 134.111 474.389 128.597 466.942C123.37 459.781 118.572 452.334 114.347 444.528C107.473 431.997 102.174 418.964 98.235 405.287C96.588 399.701 95.0842 394.115 94.0101 388.387C93.1508 383.661 92.2915 378.934 91.7186 374.137C91.0741 369.052 90.4297 364.04 90.5729 358.884C90.5729 358.311 90.5729 357.666 90 357.308V340.695C90.5729 340.337 90.5729 339.693 90.5729 339.12C90.5729 336.184 90.7877 333.248 91.0741 330.312C91.5038 325.729 92.2915 321.217 92.936 316.634C94.2965 306.896 96.8745 297.372 99.8104 288.062C101.816 281.761 104.25 275.674 106.9 269.587C110.838 260.779 115.135 252.115 120.362 244.023C124.301 237.936 128.382 231.921 132.965 226.192C137.334 220.75 141.917 215.522 146.714 210.366C150.939 205.855 155.737 201.845 160.392 197.763C165.333 193.395 170.56 189.385 175.931 185.59C187.532 177.57 199.777 170.623 212.881 165.324C220.973 162.03 229.28 159.094 237.73 156.803C244.174 155.084 250.691 153.58 257.279 152.506C260.358 152.005 263.509 151.575 266.588 151.217C269.81 150.859 273.033 150.358 276.255 150.573C276.685 150.573 276.971 150.358 277.258 150H303.324L303.538 150.215ZM324.663 458.778C331.466 459.065 336.622 453.623 336.693 446.963C336.693 440.876 331.251 435.219 325.021 435.362C318.003 435.506 313.277 440.088 313.206 446.748C313.062 453.193 317.502 458.635 324.735 458.778H324.663ZM324.735 254.478C331.036 255.122 336.765 249.035 336.693 243.235C336.693 235.788 330.32 231.348 324.95 231.276C318.433 231.205 312.991 236.79 312.991 242.949C312.991 249.25 318.576 254.979 324.663 254.478H324.735Z" fill="#FF0077"/>
<path d="M412.599 192.464C444.752 217.742 467.738 249.537 480.198 288.492C494.09 331.816 493.16 374.996 477.764 417.818C463.155 458.349 436.732 488.425 413.387 506.255C413.96 504.895 414.819 504.179 415.607 503.606C417.397 502.317 418.686 500.598 420.19 499.094C425.417 494.01 429.571 488.21 433.438 482.123C437.018 476.609 439.811 470.737 442.174 464.722C444.895 457.848 446.685 450.687 447.688 443.382C448.189 439.802 448.475 436.15 448.905 432.57C449.335 428.846 449.335 425.122 449.335 421.399C449.335 416.672 448.619 412.018 448.261 407.292C447.616 399.2 445.826 391.394 443.964 383.589C443.176 380.223 442.174 376.929 441.1 373.635C439.023 366.976 436.875 360.316 434.655 353.656C433.796 351.007 433.796 348.5 434.655 345.851C437.233 338.189 440.026 330.598 442.174 322.793C443.892 316.634 445.325 310.404 446.399 304.103C447.186 299.591 447.616 294.937 448.547 290.497C448.547 290.211 448.69 289.924 448.619 289.638C448.261 284.983 449.406 280.4 449.192 275.817C448.977 270.59 448.69 265.434 448.117 260.278C447.33 252.687 445.754 245.312 443.32 238.151C440.097 228.842 435.729 220.249 430 212.228C426.205 206.929 421.98 201.988 417.397 197.405C415.75 195.758 413.53 194.684 412.456 192.464H412.599Z" fill="#FF0077"/>
<path d="M617 376V282.909H657.364C664.455 282.909 670.409 283.864 675.227 285.773C680.076 287.682 683.727 290.379 686.182 293.864C688.667 297.348 689.909 301.455 689.909 306.182C689.909 309.606 689.152 312.727 687.636 315.545C686.152 318.364 684.061 320.727 681.364 322.636C678.667 324.515 675.515 325.818 671.909 326.545V327.455C675.909 327.606 679.545 328.621 682.818 330.5C686.091 332.348 688.697 334.909 690.636 338.182C692.576 341.424 693.545 345.242 693.545 349.636C693.545 354.727 692.212 359.258 689.545 363.227C686.909 367.197 683.152 370.318 678.273 372.591C673.394 374.864 667.576 376 660.818 376H617ZM642.273 355.818H654.091C658.333 355.818 661.515 355.03 663.636 353.455C665.758 351.848 666.818 349.485 666.818 346.364C666.818 344.182 666.318 342.333 665.318 340.818C664.318 339.303 662.894 338.152 661.045 337.364C659.227 336.576 657.03 336.182 654.455 336.182H642.273V355.818ZM642.273 320.545H652.636C654.848 320.545 656.803 320.197 658.5 319.5C660.197 318.803 661.515 317.803 662.455 316.5C663.424 315.167 663.909 313.545 663.909 311.636C663.909 308.758 662.879 306.561 660.818 305.045C658.758 303.5 656.152 302.727 653 302.727H642.273V320.545ZM749.118 377.273C741.664 377.273 735.239 375.848 729.845 373C724.482 370.121 720.345 366 717.436 360.636C714.558 355.242 713.118 348.788 713.118 341.273C713.118 334.061 714.573 327.758 717.482 322.364C720.391 316.97 724.497 312.773 729.8 309.773C735.103 306.773 741.361 305.273 748.573 305.273C753.845 305.273 758.618 306.091 762.891 307.727C767.164 309.364 770.815 311.742 773.845 314.864C776.876 317.955 779.209 321.712 780.845 326.136C782.482 330.561 783.3 335.545 783.3 341.091V346.909H720.936V333.091H760.209C760.179 331.091 759.664 329.333 758.664 327.818C757.694 326.273 756.376 325.076 754.709 324.227C753.073 323.348 751.209 322.909 749.118 322.909C747.088 322.909 745.224 323.348 743.527 324.227C741.83 325.076 740.467 326.258 739.436 327.773C738.436 329.288 737.906 331.061 737.845 333.091V348C737.845 350.242 738.315 352.242 739.255 354C740.194 355.758 741.542 357.136 743.3 358.136C745.058 359.136 747.179 359.636 749.664 359.636C751.391 359.636 752.967 359.394 754.391 358.909C755.845 358.424 757.088 357.727 758.118 356.818C759.148 355.879 759.906 354.758 760.391 353.455H783.3C782.512 358.303 780.648 362.515 777.709 366.091C774.77 369.636 770.876 372.394 766.027 374.364C761.209 376.303 755.573 377.273 749.118 377.273ZM825.793 377.091C821.339 377.091 817.399 376.364 813.975 374.909C810.581 373.424 807.914 371.182 805.975 368.182C804.036 365.182 803.066 361.364 803.066 356.727C803.066 352.909 803.717 349.652 805.02 346.955C806.323 344.227 808.142 342 810.475 340.273C812.808 338.545 815.52 337.227 818.611 336.318C821.733 335.409 825.096 334.818 828.702 334.545C832.611 334.242 835.748 333.879 838.111 333.455C840.505 333 842.233 332.379 843.293 331.591C844.354 330.773 844.884 329.697 844.884 328.364V328.182C844.884 326.364 844.187 324.97 842.793 324C841.399 323.03 839.611 322.545 837.43 322.545C835.036 322.545 833.081 323.076 831.566 324.136C830.081 325.167 829.187 326.758 828.884 328.909H805.793C806.096 324.667 807.445 320.758 809.839 317.182C812.263 313.576 815.793 310.697 820.43 308.545C825.066 306.364 830.854 305.273 837.793 305.273C842.793 305.273 847.278 305.864 851.248 307.045C855.217 308.197 858.596 309.818 861.384 311.909C864.172 313.97 866.293 316.394 867.748 319.182C869.233 321.939 869.975 324.939 869.975 328.182V376H846.52V366.182H845.975C844.581 368.788 842.884 370.894 840.884 372.5C838.914 374.106 836.657 375.273 834.111 376C831.596 376.727 828.823 377.091 825.793 377.091ZM833.975 361.273C835.884 361.273 837.672 360.879 839.339 360.091C841.036 359.303 842.414 358.167 843.475 356.682C844.536 355.197 845.066 353.394 845.066 351.273V345.455C844.399 345.727 843.687 345.985 842.93 346.227C842.202 346.47 841.414 346.697 840.566 346.909C839.748 347.121 838.869 347.318 837.93 347.5C837.02 347.682 836.066 347.848 835.066 348C833.127 348.303 831.536 348.803 830.293 349.5C829.081 350.167 828.172 351 827.566 352C826.99 352.97 826.702 354.061 826.702 355.273C826.702 357.212 827.384 358.697 828.748 359.727C830.111 360.758 831.854 361.273 833.975 361.273ZM940.036 345.455V306.182H965.127V376H941.309V362.727H940.582C939.067 367.182 936.415 370.667 932.627 373.182C928.839 375.667 924.339 376.909 919.127 376.909C914.248 376.909 909.976 375.788 906.309 373.545C902.673 371.303 899.839 368.212 897.809 364.273C895.809 360.333 894.794 355.818 894.764 350.727V306.182H919.855V345.455C919.885 348.909 920.764 351.621 922.491 353.591C924.248 355.561 926.703 356.545 929.855 356.545C931.945 356.545 933.748 356.106 935.264 355.227C936.809 354.318 937.991 353.045 938.809 351.409C939.658 349.742 940.067 347.758 940.036 345.455ZM1032.33 306.182V324.364H986.325V306.182H1032.33ZM995.234 289.455H1020.33V353.545C1020.33 354.515 1020.49 355.333 1020.83 356C1021.16 356.636 1021.67 357.121 1022.37 357.455C1023.07 357.758 1023.96 357.909 1025.05 357.909C1025.81 357.909 1026.69 357.818 1027.69 357.636C1028.72 357.455 1029.48 357.303 1029.96 357.182L1033.6 374.818C1032.48 375.152 1030.87 375.561 1028.78 376.045C1026.72 376.53 1024.26 376.848 1021.42 377C1015.66 377.303 1010.83 376.712 1006.92 375.227C1003.01 373.712 1000.07 371.333 998.098 368.091C996.128 364.848 995.173 360.788 995.234 355.909V289.455ZM1088.25 377.273C1080.67 377.273 1074.19 375.773 1068.8 372.773C1063.4 369.742 1059.27 365.53 1056.39 360.136C1053.51 354.712 1052.07 348.424 1052.07 341.273C1052.07 334.121 1053.51 327.848 1056.39 322.455C1059.27 317.03 1063.4 312.818 1068.8 309.818C1074.19 306.788 1080.67 305.273 1088.25 305.273C1095.83 305.273 1102.31 306.788 1107.7 309.818C1113.1 312.818 1117.23 317.03 1120.11 322.455C1122.99 327.848 1124.43 334.121 1124.43 341.273C1124.43 348.424 1122.99 354.712 1120.11 360.136C1117.23 365.53 1113.1 369.742 1107.7 372.773C1102.31 375.773 1095.83 377.273 1088.25 377.273ZM1088.43 358.727C1090.55 358.727 1092.39 358.015 1093.93 356.591C1095.48 355.167 1096.67 353.136 1097.52 350.5C1098.37 347.864 1098.8 344.727 1098.8 341.091C1098.8 337.424 1098.37 334.288 1097.52 331.682C1096.67 329.045 1095.48 327.015 1093.93 325.591C1092.39 324.167 1090.55 323.455 1088.43 323.455C1086.19 323.455 1084.27 324.167 1082.66 325.591C1081.05 327.015 1079.83 329.045 1078.98 331.682C1078.13 334.288 1077.7 337.424 1077.7 341.091C1077.7 344.727 1078.13 347.864 1078.98 350.5C1079.83 353.136 1081.05 355.167 1082.66 356.591C1084.27 358.015 1086.19 358.727 1088.43 358.727ZM1172.5 336.727V376H1147.41V306.182H1171.23V319.455H1171.96C1173.47 315.03 1176.14 311.561 1179.96 309.045C1183.81 306.53 1188.29 305.273 1193.41 305.273C1198.35 305.273 1202.64 306.409 1206.28 308.682C1209.94 310.924 1212.78 314.015 1214.78 317.955C1216.81 321.894 1217.81 326.394 1217.78 331.455V376H1192.69V336.727C1192.72 333.273 1191.84 330.561 1190.05 328.591C1188.29 326.621 1185.84 325.636 1182.69 325.636C1180.63 325.636 1178.82 326.091 1177.28 327C1175.76 327.879 1174.6 329.152 1173.78 330.818C1172.96 332.455 1172.53 334.424 1172.5 336.727ZM1276.6 377.273C1269.02 377.273 1262.54 375.773 1257.15 372.773C1251.75 369.742 1247.62 365.53 1244.74 360.136C1241.86 354.712 1240.42 348.424 1240.42 341.273C1240.42 334.121 1241.86 327.848 1244.74 322.455C1247.62 317.03 1251.75 312.818 1257.15 309.818C1262.54 306.788 1269.02 305.273 1276.6 305.273C1284.18 305.273 1290.66 306.788 1296.05 309.818C1301.45 312.818 1305.58 317.03 1308.46 322.455C1311.34 327.848 1312.78 334.121 1312.78 341.273C1312.78 348.424 1311.34 354.712 1308.46 360.136C1305.58 365.53 1301.45 369.742 1296.05 372.773C1290.66 375.773 1284.18 377.273 1276.6 377.273ZM1276.78 358.727C1278.9 358.727 1280.74 358.015 1282.28 356.591C1283.83 355.167 1285.02 353.136 1285.87 350.5C1286.72 347.864 1287.15 344.727 1287.15 341.091C1287.15 337.424 1286.72 334.288 1285.87 331.682C1285.02 329.045 1283.83 327.015 1282.28 325.591C1280.74 324.167 1278.9 323.455 1276.78 323.455C1274.54 323.455 1272.62 324.167 1271.01 325.591C1269.4 327.015 1268.18 329.045 1267.33 331.682C1266.48 334.288 1266.05 337.424 1266.05 341.091C1266.05 344.727 1266.48 347.864 1267.33 350.5C1268.18 353.136 1269.4 355.167 1271.01 356.591C1272.62 358.015 1274.54 358.727 1276.78 358.727ZM1335.76 376V306.182H1359.58V319.455H1360.31C1361.76 315.091 1364.25 311.636 1367.76 309.091C1371.28 306.545 1375.46 305.273 1380.31 305.273C1385.22 305.273 1389.45 306.576 1392.99 309.182C1396.54 311.758 1398.67 315.182 1399.4 319.455H1400.13C1401.31 315.182 1403.82 311.758 1407.67 309.182C1411.52 306.576 1416.04 305.273 1421.22 305.273C1427.92 305.273 1433.34 307.424 1437.49 311.727C1441.67 316.03 1443.76 321.758 1443.76 328.909V376H1418.67V335.273C1418.67 332.212 1417.9 329.818 1416.35 328.091C1414.81 326.333 1412.73 325.455 1410.13 325.455C1407.55 325.455 1405.51 326.333 1403.99 328.091C1402.51 329.818 1401.76 332.212 1401.76 335.273V376H1377.76V335.273C1377.76 332.212 1376.99 329.818 1375.45 328.091C1373.9 326.333 1371.82 325.455 1369.22 325.455C1367.49 325.455 1366.01 325.848 1364.76 326.636C1363.52 327.424 1362.55 328.561 1361.85 330.045C1361.19 331.5 1360.85 333.242 1360.85 335.273V376H1335.76ZM1468.94 376V306.182H1494.03V376H1468.94ZM1481.48 298.909C1478.09 298.909 1475.18 297.788 1472.76 295.545C1470.33 293.303 1469.12 290.606 1469.12 287.455C1469.12 284.303 1470.33 281.606 1472.76 279.364C1475.18 277.121 1478.09 276 1481.48 276C1484.91 276 1487.82 277.121 1490.21 279.364C1492.64 281.606 1493.85 284.303 1493.85 287.455C1493.85 290.606 1492.64 293.303 1490.21 295.545C1487.82 297.788 1484.91 298.909 1481.48 298.909Z" fill="#FF0077"/>
</svg>
