<?xml version="1.0" encoding="UTF-8"?>
<svg version="1.1" xmlns="http://www.w3.org/2000/svg" width="512" height="512">
<path d="M0 0 C13.49796874 11.67234419 21.65795807 26.15304732 24.3125 43.8125 C24.40921664 45.74937805 24.49318864 47.68694772 24.5625 49.625 C24.94858706 54.79262677 26.64219483 56.9410038 30.21875 60.546875 C53.13179274 85.34083915 56.81933667 120.81705811 56.65307617 152.8605957 C56.65222754 155.18878671 56.65270964 157.51697852 56.65440369 159.84516907 C56.65525585 166.09586467 56.63775786 172.34638356 56.61668181 178.59703851 C56.5977835 185.15527438 56.59615429 191.71351539 56.59260559 198.27177429 C56.58487384 209.2568158 56.5657034 220.24179622 56.53881836 231.22680664 C56.51118408 242.52986334 56.48999669 253.83290256 56.47729492 265.13598633 C56.47650675 265.83540009 56.47571858 266.53481385 56.47490653 267.25542197 C56.47099076 270.76497936 56.46719979 274.27453687 56.46347082 277.78409445 C56.43248682 306.79360557 56.37891121 335.80304897 56.3125 364.8125 C66.2125 364.4825 76.1125 364.1525 86.3125 363.8125 C84.9925 361.1725 83.6725 358.5325 82.3125 355.8125 C81.51672363 352.86148071 81.51672363 352.86148071 81.09570312 350.08447266 C80.92872925 349.02781403 80.76175537 347.9711554 80.58972168 346.88247681 C80.42605103 345.75852509 80.26238037 344.63457336 80.09375 343.4765625 C79.90913208 342.28437103 79.72451416 341.09217957 79.53430176 339.86386108 C78.94773936 336.05688011 78.37977716 332.24739727 77.8125 328.4375 C77.43222615 325.94772749 77.05072584 323.45814197 76.66796875 320.96875 C75.91000108 316.0268957 75.16133842 311.08376778 74.41992188 306.1394043 C73.68433328 301.24461952 72.92994555 296.35332514 72.15820312 291.46411133 C71.97390747 290.29073212 71.78961182 289.11735291 71.59973145 287.90841675 C71.25297584 285.70593559 70.90318036 283.50392986 70.54968262 281.30252075 C68.59346793 268.82475245 67.12895726 257.40684168 74.85546875 246.66796875 C78.71115616 241.91232684 82.91761333 238.6598013 88.3125 235.8125 C89.09625 235.379375 89.88 234.94625 90.6875 234.5 C93.42888248 233.78201887 95.65060076 233.74442174 98.4765625 233.76953125 C99.83322021 233.77883667 99.83322021 233.77883667 101.21728516 233.78833008 C101.90870605 233.79630615 102.60012695 233.80428223 103.3125 233.8125 C103.30732455 233.21481686 103.30214911 232.61713371 103.29681683 232.00133896 C103.16986513 214.77876952 103.57691213 197.60277225 104.22335076 180.39345646 C104.3019508 178.29692921 104.37942614 176.20036306 104.45659447 174.10378265 C104.69953635 167.5111847 104.94607453 160.91873724 105.19825011 154.32648587 C105.48731285 146.76956652 105.76389095 139.21232036 106.03015739 131.65456414 C106.2385665 125.75980082 106.4577154 119.86549811 106.68506974 113.97143531 C106.81989315 110.47025422 106.95024644 106.96904759 107.06933022 103.46729279 C107.2016711 99.58593887 107.356274 95.70564733 107.51293945 91.82519531 C107.54890732 90.67620255 107.58487518 89.52720978 107.62193298 88.34339905 C107.66812775 87.28722885 107.71432251 86.23105865 107.76191711 85.1428833 C107.79602345 84.22867237 107.8301298 83.31446144 107.86526966 82.37254715 C108.40697736 79.2716903 109.47742776 77.35665419 111.3125 74.8125 C114.63862306 72.59508463 115.74002638 72.54934463 119.62255859 72.50610352 C120.7073349 72.49011612 121.79211121 72.47412872 122.90975952 72.45765686 C124.08164825 72.45229416 125.25353699 72.44693146 126.4609375 72.44140625 C127.66561676 72.43237778 128.87029602 72.4233493 130.11148071 72.41404724 C132.66186023 72.39952866 135.21227714 72.39065403 137.76269531 72.38696289 C141.66535181 72.37506751 145.56642737 72.32589417 149.46875 72.27539062 C151.94530477 72.26592666 154.42186927 72.2586915 156.8984375 72.25390625 C158.65019791 72.22460777 158.65019791 72.22460777 160.43734741 72.19471741 C165.14378988 72.22093406 168.37037826 72.28918652 172.52587891 74.59741211 C174.36147749 77.90063672 174.63053581 79.49723066 174.88838196 83.18287659 C174.96384373 84.2560743 175.0393055 85.32927202 175.11705399 86.43499088 C175.43842851 91.98867487 175.68034973 97.54243144 175.88500977 103.1015625 C175.93392365 104.37151062 175.98283752 105.64145874 176.03323364 106.94989014 C176.1658475 110.39606436 176.29508467 113.84235721 176.4235394 117.28868866 C176.55930021 120.91859783 176.69782581 124.54840173 176.83592224 128.17822266 C177.06726214 134.27043641 177.29638346 140.36273054 177.52416992 146.45507812 C177.78645352 153.46932971 178.05230111 160.48343937 178.32005268 167.49748421 C178.57897979 174.28264753 178.83532195 181.06790624 179.09052849 187.85321045 C179.19853963 190.72372646 179.30743889 193.59420666 179.41708565 196.46466064 C179.57048844 200.48415694 179.72010855 204.50378584 179.86938477 208.5234375 C179.91456741 209.69573914 179.95975006 210.86804077 180.00630188 212.0758667 C180.27166002 219.32499857 180.36486883 226.55869098 180.3125 233.8125 C181.611875 233.73 182.91125 233.6475 184.25 233.5625 C192.86316626 233.58950052 200.06655004 238.15424336 206.3125 243.8125 C211.82986552 249.51616617 214.35350043 256.96773316 214.28669739 264.86143494 C213.55391355 274.20710218 212.34356238 283.42690784 210.94921875 292.69140625 C210.7134327 294.27690573 210.47782549 295.86243182 210.24238586 297.44798279 C209.75105419 300.74706771 209.25543911 304.04547555 208.75708008 307.34350586 C208.1247006 311.5328418 207.50647658 315.72413168 206.89187908 319.91610813 C206.41062754 323.18345437 205.92009678 326.44936011 205.42707253 329.71494865 C205.19547276 331.25835575 204.96701405 332.80223811 204.74201012 334.34662056 C201.4049095 357.17388575 201.4049095 357.17388575 196.3125 364.8125 C197.36050781 364.78929687 198.40851563 364.76609375 199.48828125 364.7421875 C200.86718037 364.72342697 202.2460872 364.70522707 203.625 364.6875 C204.31529297 364.67074219 205.00558594 364.65398437 205.71679688 364.63671875 C209.48385396 364.60032206 211.09681704 364.66871136 214.3125 366.8125 C214.7109375 369.5625 214.7109375 369.5625 214.6875 372.8125 C214.69523438 373.885 214.70296875 374.9575 214.7109375 376.0625 C214.51371094 377.42375 214.51371094 377.42375 214.3125 378.8125 C210.51326731 381.34532179 207.48466522 381.09239633 203.08337498 381.06976891 C202.23017149 381.07327498 201.37696801 381.07678105 200.49790987 381.08039337 C197.61349763 381.08976304 194.72928484 381.08476979 191.84486389 381.07992554 C189.76622443 381.08365899 187.68758637 381.08825928 185.60895056 381.09365618 C179.87704188 381.10593918 174.14519134 381.10561951 168.4132725 381.10326743 C162.23935768 381.1028606 156.06546184 381.11388551 149.89155579 381.12338257 C137.78870016 381.14002216 125.68586932 381.1455193 113.58300526 381.14660732 C103.74996435 381.14752553 93.91692977 381.15163761 84.08389091 381.15800858 C81.25602943 381.15980359 78.42816794 381.16158322 75.60030645 381.16335833 C74.89734415 381.16380043 74.19438185 381.16424252 73.47011766 381.16469802 C53.69109061 381.17701028 33.91206576 381.18489875 14.13303471 381.18401146 C13.38697206 381.1839803 12.64090941 381.18394914 11.8722388 381.18391704 C8.09066229 381.18375082 4.30908579 381.18355274 0.52750928 381.18334763 C-0.2235605 381.18330774 -0.97463029 381.18326785 -1.74845976 381.18322675 C-3.26730613 381.18314587 -4.7861525 381.18306228 -6.30499887 381.18297596 C-29.94285912 381.18175009 -53.58066202 381.19676879 -77.21850586 381.22412109 C-103.75919271 381.25481954 -130.29984188 381.27205497 -156.84054762 381.27019465 C-159.66872346 381.27004538 -162.4968993 381.26994797 -165.32507515 381.26988602 C-166.0214738 381.26986271 -166.71787245 381.2698394 -167.43537409 381.26981538 C-178.65845644 381.26975375 -189.88148913 381.28254352 -201.1045567 381.29975055 C-212.37692744 381.31667615 -223.64922608 381.31836083 -234.92160886 381.3055319 C-241.03242014 381.29897625 -247.14305082 381.29897833 -253.25384521 381.3162384 C-258.84170646 381.3318597 -264.42924227 381.32921839 -270.01709504 381.31167014 C-272.04465538 381.30857597 -274.07223936 381.31232243 -276.09977185 381.32339029 C-278.84442669 381.33738711 -281.58792021 381.32702382 -284.33253384 381.31027794 C-285.52837059 381.32518248 -285.52837059 381.32518248 -286.74836567 381.34038812 C-290.32180251 381.29391873 -292.29806368 381.11073793 -295.17648226 378.90638888 C-296.81358706 376.63777519 -297.23070536 375.5776429 -297.1875 372.8125 C-297.20296875 371.8225 -297.20296875 371.8225 -297.21875 370.8125 C-296.6875 368.8125 -296.6875 368.8125 -294.67419434 367.11633301 C-291.93836105 363.943775 -292.24841102 362.11041975 -292.36914062 357.95117188 C-292.38538734 357.22232536 -292.40163406 356.49347885 -292.41837311 355.74254608 C-292.48541388 353.09806564 -292.58631991 350.45588956 -292.6875 347.8125 C-292.75813442 345.6238027 -292.827991 343.4350802 -292.8972168 341.24633789 C-293.13490538 334.07322354 -293.41329188 326.90193793 -293.69714546 319.73054695 C-293.83985658 316.10476551 -293.97851472 312.47882906 -294.11755371 308.85290527 C-294.38071507 302.00402359 -294.64687445 295.15526247 -294.91441298 288.3065505 C-295.39392274 276.03125405 -295.86999192 263.75582514 -296.34233522 251.48025084 C-296.5078165 247.18331103 -296.67517962 242.88645003 -296.84410858 238.58964443 C-296.92361809 236.56122135 -297.0023428 234.53276956 -297.08073425 232.50430298 C-297.17588927 230.04292709 -297.27227807 227.58159843 -297.37019348 225.12033081 C-297.48901204 222.01796479 -297.59349631 218.91570738 -297.6875 215.8125 C-297.73398933 214.48124336 -297.73398933 214.48124336 -297.78141785 213.12309265 C-297.90890691 207.16675106 -297.90890691 207.16675106 -295.8125 203.8125 C-292.22149715 200.43273262 -289.91113651 200.70246435 -285.0625 200.75 C-283.87398438 200.75902344 -282.68546875 200.76804687 -281.4609375 200.77734375 C-280.08808594 200.79474609 -280.08808594 200.79474609 -278.6875 200.8125 C-278.65446802 184.62570881 -278.66174444 168.43950205 -278.71596622 152.25279045 C-278.74022472 144.73562137 -278.75168673 137.21885362 -278.73217773 129.70166016 C-278.71519113 123.14352546 -278.72307638 116.58595264 -278.75984758 110.02789128 C-278.77844534 106.56074506 -278.78525462 103.09454722 -278.76219368 99.62740707 C-278.51770845 79.11335588 -278.51770845 79.11335588 -286.6875 60.8125 C-290.30206604 52.37890139 -291.03960649 43.25579301 -291.125 34.1875 C-291.13523193 33.34622559 -291.14546387 32.50495117 -291.15600586 31.63818359 C-291.08431595 26.65398055 -290.46363214 23.1158442 -287.6875 18.8125 C-285.14298021 17.5402401 -283.32387232 17.66469335 -280.47509766 17.63549805 C-279.38701813 17.62266281 -278.2989386 17.60982758 -277.17788696 17.59660339 C-275.40760635 17.58552299 -275.40760635 17.58552299 -273.6015625 17.57421875 C-271.78886368 17.56211113 -271.78886368 17.56211113 -269.93954468 17.54975891 C-267.37898192 17.53591005 -264.81840065 17.5251915 -262.2578125 17.51733398 C-258.33558372 17.50010142 -254.41419326 17.45621839 -250.4921875 17.41210938 C-248.00781871 17.40198459 -245.52344275 17.39346782 -243.0390625 17.38671875 C-241.86292389 17.36921066 -240.68678528 17.35170258 -239.4750061 17.33366394 C-237.83343033 17.33805229 -237.83343033 17.33805229 -236.15869141 17.3425293 C-235.19653717 17.33666306 -234.23438293 17.33079681 -233.24307251 17.32475281 C-229.92971704 17.95712768 -228.75672884 19.20092085 -226.6875 21.8125 C-222.76493196 37.18980131 -227.03523015 54.8106969 -233.6875 68.8125 C-234.36468079 69.60975494 -235.04186157 70.40700989 -235.73956299 71.22842407 C-238.91840161 75.97972446 -238.25736253 81.5500448 -238.23339844 87.06005859 C-238.24373611 88.28988464 -238.25407379 89.51971069 -238.26472473 90.7868042 C-238.28910966 94.14611249 -238.29599102 97.50459099 -238.29500484 100.86392927 C-238.29814001 104.37939114 -238.32377068 107.89468841 -238.34698486 111.4100647 C-238.38750245 118.06098139 -238.40787552 124.71180014 -238.42095876 131.36282122 C-238.43684325 138.93726912 -238.4752649 146.51155069 -238.51555204 154.08590198 C-238.59789285 169.66138517 -238.6520212 185.23683529 -238.6875 200.8125 C-237.73488281 200.76609375 -236.78226563 200.7196875 -235.80078125 200.671875 C-233.91939453 200.61773437 -233.91939453 200.61773437 -232 200.5625 C-230.75863281 200.51609375 -229.51726562 200.4696875 -228.23828125 200.421875 C-224.6875 200.8125 -224.6875 200.8125 -221.75427246 202.0292511 C-218.26040255 206.73432134 -219.13189504 211.91229431 -219.30664062 217.59448242 C-219.32739906 218.88336711 -219.3481575 220.1722518 -219.36954498 221.5001936 C-219.42782865 224.92523657 -219.51991042 228.34842063 -219.62503433 231.77231932 C-219.68534046 233.74196775 -219.73985729 235.71179081 -219.79415894 237.68161392 C-220.03418226 246.19219567 -220.3526978 254.69880171 -220.69714546 263.20563531 C-220.84141087 266.7994615 -220.97907614 270.39354159 -221.11755371 273.9875946 C-221.3786931 280.74063467 -221.64544585 287.49343979 -221.91441298 294.24617213 C-222.2790112 303.40844404 -222.63453748 312.5710682 -222.99067497 321.73367214 C-223.54905491 336.09357271 -224.11920806 350.45298033 -224.6875 364.8125 C-196.9675 364.8125 -169.2475 364.8125 -140.6875 364.8125 C-140.71106567 353.94969116 -140.71106567 353.94969116 -140.73510742 342.86743164 C-140.78335322 319.64246561 -140.81666839 296.41750343 -140.84069599 273.19250119 C-140.84444769 269.57926174 -140.84833069 265.96602243 -140.85229492 262.3527832 C-140.85308185 261.63351371 -140.85386878 260.91424421 -140.85467956 260.17317867 C-140.86770002 248.55782485 -140.89133515 236.94251601 -140.91895839 225.3271888 C-140.94710645 213.39078853 -140.96369603 201.45441166 -140.96976548 189.51797956 C-140.97349678 182.8210479 -140.98277821 176.12422415 -141.00469017 169.4273243 C-141.02518129 163.11300528 -141.03130842 156.79882902 -141.02682304 150.4844799 C-141.02764262 148.17759295 -141.03353245 145.87070079 -141.04511642 143.56384277 C-141.12152867 127.54995337 -140.38345513 112.08066936 -135.0625 96.8125 C-134.81089111 96.0788623 -134.55928223 95.34522461 -134.30004883 94.58935547 C-129.39688559 80.92125848 -122.04724131 67.64101185 -112.015625 57.046875 C-109.93969226 53.55442344 -109.79244481 49.86190313 -109.3125 45.875 C-106.5580558 26.30248377 -97.89710754 9.80947051 -81.95703125 -2.25390625 C-56.69506169 -19.13167235 -24.21684681 -18.78314988 0 0 Z M-46.6875 22.8125 C-47.0175 24.1325 -47.3475 25.4525 -47.6875 26.8125 C-49.3375 27.1425 -50.9875 27.4725 -52.6875 27.8125 C-51.6975 29.2975 -51.6975 29.2975 -50.6875 30.8125 C-50.5625 33.5 -50.5625 33.5 -50.6875 35.8125 C-48.0475 35.4825 -45.4075 35.1525 -42.6875 34.8125 C-42.378125 34.02875 -42.06875 33.245 -41.75 32.4375 C-40.6875 29.8125 -40.6875 29.8125 -39.6875 27.8125 C-40.47125 27.73 -41.255 27.6475 -42.0625 27.5625 C-44.6875 26.8125 -44.6875 26.8125 -46 24.75 C-46.3403125 23.7909375 -46.3403125 23.7909375 -46.6875 22.8125 Z M-12.6875 34.8125 C-13.0175 36.1325 -13.3475 37.4525 -13.6875 38.8125 C-15.3375 39.1425 -16.9875 39.4725 -18.6875 39.8125 C-17.6975 41.2975 -17.6975 41.2975 -16.6875 42.8125 C-16.5625 45.5 -16.5625 45.5 -16.6875 47.8125 C-15.759375 47.6475 -14.83125 47.4825 -13.875 47.3125 C-10.6875 46.8125 -10.6875 46.8125 -7.6875 46.8125 C-7.4709375 45.636875 -7.4709375 45.636875 -7.25 44.4375 C-6.6875 41.8125 -6.6875 41.8125 -5.6875 39.8125 C-6.47125 39.73 -7.255 39.6475 -8.0625 39.5625 C-10.6875 38.8125 -10.6875 38.8125 -12 36.75 C-12.3403125 35.7909375 -12.3403125 35.7909375 -12.6875 34.8125 Z M-74.6875 56.8125 C-75.0175 58.1325 -75.3475 59.4525 -75.6875 60.8125 C-77.3375 61.1425 -78.9875 61.4725 -80.6875 61.8125 C-79.6975 63.2975 -79.6975 63.2975 -78.6875 64.8125 C-78.5625 67.5 -78.5625 67.5 -78.6875 69.8125 C-77.759375 69.6475 -76.83125 69.4825 -75.875 69.3125 C-72.6875 68.8125 -72.6875 68.8125 -69.6875 68.8125 C-69.4709375 67.636875 -69.4709375 67.636875 -69.25 66.4375 C-68.6875 63.8125 -68.6875 63.8125 -67.6875 61.8125 C-68.47125 61.73 -69.255 61.6475 -70.0625 61.5625 C-72.6875 60.8125 -72.6875 60.8125 -74 58.75 C-74.3403125 57.7909375 -74.3403125 57.7909375 -74.6875 56.8125 Z M-42.6875 72.8125 C-43.0175 73.4725 -43.3475 74.1325 -43.6875 74.8125 C-45.0075 75.1425 -46.3275 75.4725 -47.6875 75.8125 C-47.0275 78.7825 -46.3675 81.7525 -45.6875 84.8125 C-44.73875 84.6475 -43.79 84.4825 -42.8125 84.3125 C-39.6875 83.8125 -39.6875 83.8125 -37.6875 83.8125 C-37.378125 82.86375 -37.06875 81.915 -36.75 80.9375 C-35.6875 77.8125 -35.6875 77.8125 -34.6875 75.8125 C-35.491875 75.68875 -36.29625 75.565 -37.125 75.4375 C-37.970625 75.23125 -38.81625 75.025 -39.6875 74.8125 C-40.0175 74.1525 -40.3475 73.4925 -40.6875 72.8125 C-41.3475 72.8125 -42.0075 72.8125 -42.6875 72.8125 Z M-261.6875 83.8125 C-261.6875 122.0925 -261.6875 160.3725 -261.6875 199.8125 C-259.7075 199.8125 -257.7275 199.8125 -255.6875 199.8125 C-255.6875 161.5325 -255.6875 123.2525 -255.6875 83.8125 C-257.6675 83.8125 -259.6475 83.8125 -261.6875 83.8125 Z M24.3125 83.8125 C24.30885437 84.82932861 24.30520874 85.84615723 24.30145264 86.89379883 C24.26428427 96.54279146 24.20627695 106.19147137 24.12859726 115.84022522 C24.08932463 120.79909461 24.05703809 125.75779179 24.04150391 130.71679688 C24.02620279 135.51515212 23.9915238 140.31303323 23.94419098 145.11117554 C23.92951441 146.92886195 23.92146701 148.74661611 23.92061615 150.56436157 C23.90143146 171.02557469 20.3995117 189.22365309 5.68359375 204.53515625 C-8.55131231 218.20723242 -24.79468269 224.35964257 -44.4519043 224.234375 C-62.81064429 223.67743887 -79.18651887 216.55528004 -92.0625 203.3828125 C-107.54442734 185.75642901 -108.77264419 165.62325893 -109.00390625 143.2109375 C-109.02451588 141.5212864 -109.04551329 139.83163999 -109.06687927 138.14199829 C-109.12168649 133.72641839 -109.1712755 129.31079521 -109.21972656 124.8951416 C-109.27024641 120.37667049 -109.32577224 115.85826108 -109.38085938 111.33984375 C-109.487934 102.49744873 -109.58948834 93.6549998 -109.6875 84.8125 C-120.25491499 98.60365686 -124.03827273 118.17836387 -123.92800903 135.24662781 C-123.92971788 136.23607905 -123.93142673 137.22553029 -123.93318737 138.2449649 C-123.93645555 141.5275624 -123.92552291 144.80995094 -123.91455078 148.0925293 C-123.91398609 150.45865372 -123.91430436 152.82477849 -123.91543579 155.19090271 C-123.91600804 161.59090461 -123.90427439 167.99083108 -123.89028788 174.3908155 C-123.87902989 180.40868476 -123.87703906 186.42655133 -123.87498413 192.4444289 C-123.87061679 204.35676558 -123.85733388 216.26907473 -123.83837891 228.18139648 C-123.81999516 239.7468248 -123.80587385 251.31224558 -123.79736328 262.87768555 C-123.79682729 263.5989383 -123.79629129 264.32019106 -123.79573905 265.06329995 C-123.79111279 271.33806106 -123.78680746 277.61282238 -123.78253365 283.88758373 C-123.76374526 310.86258175 -123.72389531 337.83750669 -123.6875 364.8125 C-69.8975 364.8125 -16.1075 364.8125 39.3125 364.8125 C39.39995507 323.68653205 39.39995507 323.68653205 39.45898438 282.56054688 C39.46485695 277.00056939 39.4709181 271.44059216 39.47729492 265.88061523 C39.47808617 265.18387567 39.47887741 264.48713611 39.47969264 263.76928324 C39.49269878 252.55814327 39.51632689 241.34705003 39.54395839 230.13593765 C39.57212986 218.60858977 39.58847674 207.08127455 39.59476548 195.55389291 C39.59866026 189.08828779 39.60774845 182.62278817 39.62969017 176.15721703 C39.65021899 170.05793373 39.65630098 163.95879829 39.65182304 157.85948372 C39.65264097 155.63406442 39.65850802 153.4086396 39.67011642 151.18325043 C39.78880017 127.23402294 37.01979679 105.05460552 25.3125 83.8125 C24.9825 83.8125 24.6525 83.8125 24.3125 83.8125 Z M-12.6875 102.8125 C-13.0175 104.1325 -13.3475 105.4525 -13.6875 106.8125 C-15.3375 107.1425 -16.9875 107.4725 -18.6875 107.8125 C-17.6975 109.2975 -17.6975 109.2975 -16.6875 110.8125 C-16.5625 113.5 -16.5625 113.5 -16.6875 115.8125 C-15.759375 115.6475 -14.83125 115.4825 -13.875 115.3125 C-10.6875 114.8125 -10.6875 114.8125 -7.6875 114.8125 C-7.4709375 113.636875 -7.4709375 113.636875 -7.25 112.4375 C-6.6875 109.8125 -6.6875 109.8125 -5.6875 107.8125 C-6.47125 107.73 -7.255 107.6475 -8.0625 107.5625 C-10.6875 106.8125 -10.6875 106.8125 -12 104.75 C-12.3403125 103.7909375 -12.3403125 103.7909375 -12.6875 102.8125 Z M136.4375 112.875 C134.11749009 115.63865524 134.11749009 115.63865524 133.75 118.875 C134.44786986 122.51943151 135.25626723 123.72139337 138.3125 125.8125 C141.66507076 126.30141657 143.57639315 126.17060604 146.625 124.6875 C148.99402223 122.05525308 149.3125 120.33647438 149.3125 116.8125 C147.39696662 113.36453991 146.06323771 112.10001657 142.375 110.6875 C139.13835317 110.53877638 139.13835317 110.53877638 136.4375 112.875 Z M-70.6875 120.8125 C-71.0175 121.4725 -71.3475 122.1325 -71.6875 122.8125 C-73.0075 123.1425 -74.3275 123.4725 -75.6875 123.8125 C-75.0275 126.7825 -74.3675 129.7525 -73.6875 132.8125 C-72.73875 132.626875 -71.79 132.44125 -70.8125 132.25 C-67.6875 131.8125 -67.6875 131.8125 -65.6875 132.8125 C-65.378125 131.69875 -65.06875 130.585 -64.75 129.4375 C-63.6875 125.8125 -63.6875 125.8125 -62.6875 123.8125 C-63.491875 123.68875 -64.29625 123.565 -65.125 123.4375 C-65.970625 123.23125 -66.81625 123.025 -67.6875 122.8125 C-68.0175 122.1525 -68.3475 121.4925 -68.6875 120.8125 C-69.3475 120.8125 -70.0075 120.8125 -70.6875 120.8125 Z M135.3125 145.8125 C134.03780593 148.36188815 134.19233816 150.14290998 134.19897461 152.99658203 C134.19905014 154.07755157 134.19912567 155.15852112 134.19920349 156.27224731 C134.20436478 157.44310883 134.20952606 158.61397034 134.21484375 159.8203125 C134.21696617 161.6139473 134.21696617 161.6139473 134.21913147 163.44381714 C134.22474337 167.27506987 134.23729792 171.10626484 134.25 174.9375 C134.25501347 177.52994707 134.25957664 180.12239506 134.26367188 182.71484375 C134.27471667 189.08075153 134.29198932 195.44661596 134.3125 201.8125 C139.2625 201.8125 144.2125 201.8125 149.3125 201.8125 C149.41139659 194.35607778 149.48398355 186.90003757 149.53222656 179.44311523 C149.55233841 176.90658925 149.57963161 174.3701096 149.61425781 171.83374023 C149.66279242 168.18722089 149.68547363 164.54131472 149.703125 160.89453125 C149.72377014 159.76102737 149.74441528 158.6275235 149.76568604 157.45967102 C149.80964501 151.24503804 149.80964501 151.24503804 147.44042969 145.61987305 C142.93413834 141.79242068 139.90319681 142.36947739 135.3125 145.8125 Z M-72.0625 168.1875 C-77.57999507 173.45661908 -82.00988669 178.62261241 -84.6875 185.8125 C-75.17349498 196.99089361 -65.56060586 206.35734786 -50.29443359 208.08300781 C-34.55307596 209.16945586 -20.68032356 206.32427475 -8.39453125 195.859375 C-4.52392447 192.16502536 -1.67866145 188.79040362 0.3125 183.8125 C-8.21738781 170.67482713 -17.63627494 161.19579056 -33.0546875 156.8671875 C-47.82810726 154.06838615 -60.79485249 158.42108098 -72.0625 168.1875 Z M-279.6875 217.8125 C-279.6875 221.4425 -279.6875 225.0725 -279.6875 228.8125 C-265.4975 228.8125 -251.3075 228.8125 -236.6875 228.8125 C-236.6875 225.1825 -236.6875 221.5525 -236.6875 217.8125 C-250.8775 217.8125 -265.0675 217.8125 -279.6875 217.8125 Z M120.3125 217.8125 C120.3125 223.0925 120.3125 228.3725 120.3125 233.8125 C134.5025 233.8125 148.6925 233.8125 163.3125 233.8125 C163.79757125 223.06560073 163.79757125 223.06560073 162.3125 217.8125 C148.4525 217.8125 134.5925 217.8125 120.3125 217.8125 Z M-265.6875 245.8125 C-265.75530964 253.30563876 -265.81033553 260.7986631 -265.84293652 268.29203415 C-265.8585844 271.77162843 -265.87980607 275.25100168 -265.91381836 278.73046875 C-265.95268654 282.73179227 -265.96721639 286.73288406 -265.98046875 290.734375 C-265.99595261 291.98240906 -266.01143646 293.23044312 -266.02738953 294.51629639 C-266.02761612 295.67719788 -266.02784271 296.83809937 -266.02807617 298.03417969 C-266.03473801 299.05566101 -266.04139984 300.07714233 -266.04826355 301.12957764 C-265.63013531 304.23910908 -264.8627548 305.58090493 -262.6875 307.8125 C-259.8278994 308.98360449 -259.8278994 308.98360449 -256.6875 308.8125 C-253.94033613 307.04210551 -252.15604078 305.74958156 -250.6875 302.8125 C-250.5965785 300.9945546 -250.56996533 299.17324055 -250.57397461 297.35302734 C-250.57408791 295.64147964 -250.57408791 295.64147964 -250.57420349 293.89535522 C-250.57936478 292.65887238 -250.58452606 291.42238953 -250.58984375 290.1484375 C-250.5912587 288.88609283 -250.59267365 287.62374817 -250.59413147 286.32315063 C-250.59878922 282.96611701 -250.60777592 279.609151 -250.61883545 276.25213623 C-250.6290623 272.82695094 -250.63363182 269.40175866 -250.63867188 265.9765625 C-250.64971762 259.25518716 -250.66699076 252.53385286 -250.6875 245.8125 C-255.6375 245.8125 -260.5875 245.8125 -265.6875 245.8125 Z M149.3125 267.8125 C148.9825 269.1325 148.6525 270.4525 148.3125 271.8125 C146.6625 271.8125 145.0125 271.8125 143.3125 271.8125 C144.3025 273.2975 144.3025 273.2975 145.3125 274.8125 C145.69749891 276.46799531 146.04043135 278.1347433 146.3125 279.8125 C148.9525 279.8125 151.5925 279.8125 154.3125 279.8125 C154.250625 278.6678125 154.250625 278.6678125 154.1875 277.5 C154.3125 274.8125 154.3125 274.8125 156.3125 271.8125 C155.714375 271.709375 155.11625 271.60625 154.5 271.5 C152.03006736 270.72373545 150.98998765 269.74161079 149.3125 267.8125 Z M177.3125 273.8125 C176.9825 275.1325 176.6525 276.4525 176.3125 277.8125 C174.6625 277.8125 173.0125 277.8125 171.3125 277.8125 C172.3025 279.2975 172.3025 279.2975 173.3125 280.8125 C173.69749891 282.46799531 174.04043135 284.1347433 174.3125 285.8125 C176.9525 285.8125 179.5925 285.8125 182.3125 285.8125 C182.250625 284.6678125 182.250625 284.6678125 182.1875 283.5 C182.3125 280.8125 182.3125 280.8125 184.3125 277.8125 C183.714375 277.709375 183.11625 277.60625 182.5 277.5 C180.03006736 276.72373545 178.98998765 275.74161079 177.3125 273.8125 Z M110.3125 274.8125 C109.9825 276.1325 109.6525 277.4525 109.3125 278.8125 C107.6625 278.8125 106.0125 278.8125 104.3125 278.8125 C105.3025 280.2975 105.3025 280.2975 106.3125 281.8125 C106.69749891 283.46799531 107.04043135 285.1347433 107.3125 286.8125 C107.89 286.626875 108.4675 286.44125 109.0625 286.25 C111.51942525 285.77226454 112.95647534 286.05520636 115.3125 286.8125 C115.250625 285.6678125 115.250625 285.6678125 115.1875 284.5 C115.3125 281.8125 115.3125 281.8125 117.3125 278.8125 C116.714375 278.709375 116.11625 278.60625 115.5 278.5 C113.03006736 277.72373545 111.98998765 276.74161079 110.3125 274.8125 Z M130.3125 296.8125 C129.9825 298.1325 129.6525 299.4525 129.3125 300.8125 C127.6625 300.8125 126.0125 300.8125 124.3125 300.8125 C125.3025 302.2975 125.3025 302.2975 126.3125 303.8125 C126.69749891 305.46799531 127.04043135 307.1347433 127.3125 308.8125 C129.9525 308.8125 132.5925 308.8125 135.3125 308.8125 C135.250625 307.6678125 135.250625 307.6678125 135.1875 306.5 C135.3125 303.8125 135.3125 303.8125 137.3125 300.8125 C136.714375 300.709375 136.11625 300.60625 135.5 300.5 C133.03006736 299.72373545 131.98998765 298.74161079 130.3125 296.8125 Z M174.3125 304.8125 C173.9825 306.1325 173.6525 307.4525 173.3125 308.8125 C171.6625 308.8125 170.0125 308.8125 168.3125 308.8125 C169.3025 310.2975 169.3025 310.2975 170.3125 311.8125 C170.69749891 313.46799531 171.04043135 315.1347433 171.3125 316.8125 C173.9525 316.8125 176.5925 316.8125 179.3125 316.8125 C179.250625 315.6678125 179.250625 315.6678125 179.1875 314.5 C179.3125 311.8125 179.3125 311.8125 181.3125 308.8125 C180.714375 308.709375 180.11625 308.60625 179.5 308.5 C177.03006736 307.72373545 175.98998765 306.74161079 174.3125 304.8125 Z M107.8125 315.1875 C107.3175 315.72375 106.8225 316.26 106.3125 316.8125 C105.6525 317.4725 104.9925 318.1325 104.3125 318.8125 C104.9725 321.1225 105.6325 323.4325 106.3125 325.8125 C107.075625 325.626875 107.83875 325.44125 108.625 325.25 C111.3125 324.8125 111.3125 324.8125 114.3125 325.8125 C114.9725 323.1725 115.6325 320.5325 116.3125 317.8125 C115.673125 317.52375 115.03375 317.235 114.375 316.9375 C112.3125 315.8125 112.3125 315.8125 111.3125 313.8125 C109.21907595 313.58725846 109.21907595 313.58725846 107.8125 315.1875 Z M145.3125 320.8125 C145.065 321.43125 144.8175 322.05 144.5625 322.6875 C143.10621361 325.16318687 141.93437494 325.76375002 139.3125 326.8125 C139.9725 327.4725 140.6325 328.1325 141.3125 328.8125 C141.4375 331.4375 141.4375 331.4375 141.3125 333.8125 C143.9525 333.8125 146.5925 333.8125 149.3125 333.8125 C149.621875 332.86375 149.93125 331.915 150.25 330.9375 C151.3125 327.8125 151.3125 327.8125 152.3125 325.8125 C150.6625 325.8125 149.0125 325.8125 147.3125 325.8125 C146.9825 324.1625 146.6525 322.5125 146.3125 320.8125 C145.9825 320.8125 145.6525 320.8125 145.3125 320.8125 Z M-264.0625 327.4375 C-266.1628727 330.50727548 -266.22043835 332.15806561 -265.6875 335.8125 C-264.1489746 338.97502443 -263.15044538 339.65147552 -259.8125 340.8125 C-256.59710529 341.07306125 -256.59710529 341.07306125 -253.875 339.1875 C-251.43886646 336.54255501 -250.6875 335.39301616 -250.6875 331.8125 C-252.43863525 328.09988773 -252.43863525 328.09988773 -255.6875 325.8125 C-259.2692622 325.42317802 -261.05031721 325.37653282 -264.0625 327.4375 Z M164.8125 342.1875 C164.3175 342.72375 163.8225 343.26 163.3125 343.8125 C162.6525 344.4725 161.9925 345.1325 161.3125 345.8125 C161.621875 346.410625 161.93125 347.00875 162.25 347.625 C163.3125 349.8125 163.3125 349.8125 164.3125 352.8125 C164.910625 352.626875 165.50875 352.44125 166.125 352.25 C168.3125 351.8125 168.3125 351.8125 171.3125 352.8125 C171.9725 350.1725 172.6325 347.5325 173.3125 344.8125 C172.673125 344.52375 172.03375 344.235 171.375 343.9375 C169.3125 342.8125 169.3125 342.8125 168.3125 340.8125 C166.21907595 340.58725846 166.21907595 340.58725846 164.8125 342.1875 Z M116.3125 341.8125 C115.9825 342.8025 115.6525 343.7925 115.3125 344.8125 C113.25 346 113.25 346 111.3125 346.8125 C111.6425 347.410625 111.9725 348.00875 112.3125 348.625 C113.3125 350.8125 113.3125 350.8125 113.3125 353.8125 C115.9525 353.8125 118.5925 353.8125 121.3125 353.8125 C121.621875 352.86375 121.93125 351.915 122.25 350.9375 C123.3125 347.8125 123.3125 347.8125 124.3125 345.8125 C122.6625 345.8125 121.0125 345.8125 119.3125 345.8125 C118.9825 344.4925 118.6525 343.1725 118.3125 341.8125 C117.6525 341.8125 116.9925 341.8125 116.3125 341.8125 Z " fill="#000000" transform="translate(297.6875,72.1875)"/>
</svg>
