<svg width="250" height="00" viewBox="0 0 2500 734" fill="none" xmlns="http://www.w3.org/2000/svg">
<path d="M329.917 213.75C329.917 213.75 330.583 214.417 331.083 214.417C337.167 214.417 343.083 215.667 349.083 216.417C359.417 217.75 369.5 220.167 379.583 223.083C395 227.5 409.667 233.75 423.833 241.083C424.25 241.333 424.667 241.5 425 241.75C425.167 241.833 425.25 242.083 425.833 243C415.833 238.417 406.333 234.25 396.5 230.917C386.5 227.583 376.333 224.833 366 222.667C355.917 220.583 345.75 218.833 335.417 218.083C346.583 220.75 357.583 223.917 368.083 228.5C378.167 232.917 387.667 238.583 396.167 245.75C398.333 247.583 400.5 249.5 402.5 251.5C416.083 264.833 424.167 281.083 428 299.667C429.75 308.167 430.417 316.667 429.833 325.25C429.167 334.667 427.667 344.083 425 353.167C422.583 361.417 419.333 369.417 415.5 377.083C408.583 390.833 399.5 403.083 387.917 413.167C381 419.25 373.167 424 364.5 427.333C358.167 429.833 351.667 431.667 345 432.667C337.917 433.75 330.667 433.833 323.417 433.083C312.833 431.917 303.417 428 294.667 422.417C286.083 416.917 278.917 409.667 274.417 400.417C271 393.5 268.75 386.167 268.5 378.333C268.5 376.167 267.75 374.083 267.833 371.833C268.417 358.333 272 345.833 281 335.417C286.667 328.917 293 323.083 301 319.417C302.75 318.583 304.417 317.667 306.583 316.583C304.167 315.25 302 315.417 299.917 315C290.75 313.333 281.417 313.417 272.167 313.583C259.167 313.833 246.75 316.75 235.25 323C227.417 327.25 220.917 333.167 215.167 340.083C206.583 350.417 201.833 362.5 198.917 375.333C197.833 380 197.333 384.75 196.583 389.5C195.917 393.833 196.75 398.25 195.417 402.5C194.833 404.5 194.5 405 192.583 405.25C191.667 405.333 190.75 405.25 189.833 405.25C174 405.25 158.083 405.25 142.25 405.25C141.417 405.25 140.667 405.25 139.833 405.25C138.167 405.167 137.25 405.75 136.5 407.5C133.917 413.917 131.917 420.417 130.5 427.167C128.583 436.5 128.667 445.917 129.25 455.25C129.833 464.583 132.333 473.75 135.75 482.5C137.167 486.25 137.833 486.583 141.917 486.583C158.167 486.583 174.333 486.583 190.583 486.583C191.417 486.583 192.167 486.583 193 486.583C195.667 486.667 196 487 196.083 489.5C196.083 490.417 196.083 491.333 196.083 492.25C196.083 506.5 199.083 520.167 204.583 533.25C208.583 542.833 214.167 551.25 221.583 558.417C230.667 567.083 241.5 572.583 253.75 575.417C258.667 576.5 263.667 577.083 268.667 577.667C273.25 578.167 277.833 578.25 282.417 578.167C286.25 578.167 290.167 577.417 294 577.083C298.25 576.667 302.333 575.75 307.25 575.25C304.417 573.833 302.167 572.583 299.833 571.5C294.667 569.083 290.25 565.583 286.25 561.667C277.5 553.167 271.583 543 269.25 530.833C268.083 524.75 267.667 518.75 268.333 512.5C269.5 502.583 272.75 493.583 278.167 485.333C282.167 479.25 287.5 474.417 293.333 470C302.083 463.333 312.167 460.25 322.75 458.417C325 458 327.333 458.417 329.667 458.25C333.917 457.75 338.167 458 342.25 458.5C349.833 459.333 357.25 461.25 364.5 464.167C372.333 467.333 379.5 471.667 386 476.917C396.667 485.5 405.083 495.917 411.75 507.917C416.333 516.167 420.5 524.583 423.417 533.5C425.917 541.083 427.75 548.833 428.75 556.833C429.417 562.5 430.083 568.167 430 573.917C429.833 582.75 428.5 591.417 426.083 599.917C424.417 605.667 422.5 611.25 419.75 616.583C415.583 624.583 410.417 631.75 404.167 638.25C397 645.667 389.083 652 380.167 657.083C374 660.583 367.5 663.5 360.75 665.917C353.167 668.583 345.417 670.583 337.667 672.583C337.333 672.583 337.083 672.833 336.833 673.167C352.083 671.833 367.083 669 381.833 665C396.583 661 410.75 655.75 424.833 649.083C424.417 650.583 423.417 650.667 422.667 651.083C408.75 658.5 394.083 664.25 379 668.667C370.083 671.25 361.083 673.25 351.917 674.75C345.5 675.833 339 676.25 332.583 677.333C332.5 677.333 332.333 677.333 332.25 677.333C324.25 677.333 316.167 678.917 308.167 677.917C303.167 677.333 298.167 677.5 293.083 676.917C288.417 676.417 283.833 675.583 279.167 675.167C275 674.75 270.833 673.75 266.667 672.917C256.917 670.917 247.25 668.25 237.833 664.917C231 662.5 224.333 659.75 217.75 656.833C204.667 651.083 192.5 643.75 180.833 635.667C175.583 632 170.583 628 165.583 624C159 618.75 153.167 612.833 147.167 606.917C139.5 599.333 132.75 591 126.333 582.333C120.25 574 114.667 565.333 109.75 556.25C101.75 541.667 95.5834 526.5 91.0001 510.583C89.0834 504.083 87.3334 497.583 86.0834 490.917C85.0834 485.417 84.0834 479.917 83.4167 474.333C82.6667 468.417 81.9167 462.583 82.0834 456.583C82.0834 455.917 82.0834 455.167 81.4167 454.75V435.417C82.0834 435 82.0834 434.25 82.0834 433.583C82.0834 430.167 82.3334 426.75 82.6667 423.333C83.1667 418 84.0834 412.75 84.8334 407.417C86.4167 396.083 89.4167 385 92.8334 374.167C95.1667 366.833 98.0001 359.75 101.083 352.667C105.667 342.417 110.667 332.333 116.75 322.917C121.333 315.833 126.083 308.833 131.417 302.167C136.5 295.833 141.833 289.75 147.417 283.75C152.333 278.5 157.917 273.833 163.333 269.083C169.083 264 175.167 259.333 181.417 254.917C194.917 245.583 209.167 237.5 224.417 231.333C233.833 227.5 243.5 224.083 253.333 221.417C260.833 219.417 268.417 217.667 276.083 216.417C279.667 215.833 283.333 215.333 286.917 214.917C290.667 214.5 294.417 213.917 298.167 214.167C298.667 214.167 299 213.917 299.333 213.5H329.667L329.917 213.75ZM354.5 572.833C362.417 573.167 368.417 566.833 368.5 559.083C368.5 552 362.167 545.417 354.917 545.583C346.75 545.75 341.25 551.083 341.167 558.833C341 566.333 346.167 572.667 354.583 572.833H354.5ZM354.583 335.083C361.917 335.833 368.583 328.75 368.5 322C368.5 313.333 361.083 308.167 354.833 308.083C347.25 308 340.917 314.5 340.917 321.667C340.917 329 347.417 335.667 354.5 335.083H354.583Z" fill="#FF0077"/>
<path d="M456.834 262.917C494.25 292.333 521 329.333 535.5 374.667C551.667 425.083 550.584 475.333 532.667 525.167C515.667 572.333 484.917 607.333 457.75 628.083C458.417 626.5 459.417 625.667 460.334 625C462.417 623.5 463.917 621.5 465.667 619.75C471.75 613.833 476.584 607.083 481.084 600C485.25 593.583 488.5 586.75 491.25 579.75C494.417 571.75 496.5 563.417 497.667 554.917C498.25 550.75 498.584 546.5 499.084 542.333C499.584 538 499.584 533.667 499.584 529.333C499.584 523.833 498.75 518.417 498.334 512.917C497.584 503.5 495.5 494.417 493.334 485.333C492.417 481.417 491.25 477.583 490 473.75C487.584 466 485.084 458.25 482.5 450.5C481.5 447.417 481.5 444.5 482.5 441.417C485.5 432.5 488.75 423.667 491.25 414.583C493.25 407.417 494.917 400.167 496.167 392.833C497.084 387.583 497.584 382.167 498.667 377C498.667 376.667 498.834 376.333 498.75 376C498.334 370.583 499.667 365.25 499.417 359.917C499.167 353.833 498.834 347.833 498.167 341.833C497.25 333 495.417 324.417 492.584 316.083C488.834 305.25 483.75 295.25 477.084 285.917C472.667 279.75 467.75 274 462.417 268.667C460.5 266.75 457.917 265.5 456.667 262.917H456.834Z" fill="#FF0077"/>
<path d="M740.227 434.5H720.318C719.955 431.924 719.212 429.636 718.091 427.636C716.97 425.606 715.53 423.879 713.773 422.455C712.015 421.03 709.985 419.939 707.682 419.182C705.409 418.424 702.939 418.045 700.273 418.045C695.455 418.045 691.258 419.242 687.682 421.636C684.106 424 681.333 427.455 679.364 432C677.394 436.515 676.409 442 676.409 448.455C676.409 455.091 677.394 460.667 679.364 465.182C681.364 469.697 684.152 473.106 687.727 475.409C691.303 477.712 695.439 478.864 700.136 478.864C702.773 478.864 705.212 478.515 707.455 477.818C709.727 477.121 711.742 476.106 713.5 474.773C715.258 473.409 716.712 471.758 717.864 469.818C719.045 467.879 719.864 465.667 720.318 463.182L740.227 463.273C739.712 467.545 738.424 471.667 736.364 475.636C734.333 479.576 731.591 483.106 728.136 486.227C724.712 489.318 720.621 491.773 715.864 493.591C711.136 495.379 705.788 496.273 699.818 496.273C691.515 496.273 684.091 494.394 677.545 490.636C671.03 486.879 665.879 481.439 662.091 474.318C658.333 467.197 656.455 458.576 656.455 448.455C656.455 438.303 658.364 429.667 662.182 422.545C666 415.424 671.182 410 677.727 406.273C684.273 402.515 691.636 400.636 699.818 400.636C705.212 400.636 710.212 401.394 714.818 402.909C719.455 404.424 723.561 406.636 727.136 409.545C730.712 412.424 733.621 415.955 735.864 420.136C738.136 424.318 739.591 429.106 740.227 434.5ZM786.686 496.318C782.232 496.318 778.262 495.545 774.777 494C771.292 492.424 768.535 490.106 766.505 487.045C764.505 483.955 763.505 480.106 763.505 475.5C763.505 471.621 764.217 468.364 765.641 465.727C767.065 463.091 769.005 460.97 771.459 459.364C773.914 457.758 776.702 456.545 779.823 455.727C782.974 454.909 786.277 454.333 789.732 454C793.792 453.576 797.065 453.182 799.55 452.818C802.035 452.424 803.838 451.848 804.959 451.091C806.08 450.333 806.641 449.212 806.641 447.727V447.455C806.641 444.576 805.732 442.348 803.914 440.773C802.126 439.197 799.58 438.409 796.277 438.409C792.792 438.409 790.02 439.182 787.959 440.727C785.898 442.242 784.535 444.152 783.868 446.455L765.959 445C766.868 440.758 768.656 437.091 771.323 434C773.989 430.879 777.429 428.485 781.641 426.818C785.883 425.121 790.792 424.273 796.368 424.273C800.247 424.273 803.959 424.727 807.505 425.636C811.08 426.545 814.247 427.955 817.005 429.864C819.792 431.773 821.989 434.227 823.595 437.227C825.202 440.197 826.005 443.758 826.005 447.909V495H807.641V485.318H807.095C805.974 487.5 804.474 489.424 802.595 491.091C800.717 492.727 798.459 494.015 795.823 494.955C793.186 495.864 790.141 496.318 786.686 496.318ZM792.232 482.955C795.08 482.955 797.595 482.394 799.777 481.273C801.959 480.121 803.671 478.576 804.914 476.636C806.156 474.697 806.777 472.5 806.777 470.045V462.636C806.171 463.03 805.338 463.394 804.277 463.727C803.247 464.03 802.08 464.318 800.777 464.591C799.474 464.833 798.171 465.061 796.868 465.273C795.565 465.455 794.383 465.621 793.323 465.773C791.05 466.106 789.065 466.636 787.368 467.364C785.671 468.091 784.353 469.076 783.414 470.318C782.474 471.53 782.005 473.045 782.005 474.864C782.005 477.5 782.959 479.515 784.868 480.909C786.808 482.273 789.262 482.955 792.232 482.955ZM853.827 495V425.182H872.6V437.364H873.327C874.6 433.03 876.736 429.758 879.736 427.545C882.736 425.303 886.191 424.182 890.1 424.182C891.07 424.182 892.115 424.242 893.236 424.364C894.358 424.485 895.342 424.652 896.191 424.864V442.045C895.282 441.773 894.024 441.53 892.418 441.318C890.812 441.106 889.342 441 888.009 441C885.161 441 882.615 441.621 880.373 442.864C878.161 444.076 876.403 445.773 875.1 447.955C873.827 450.136 873.191 452.652 873.191 455.5V495H853.827ZM947.57 496.364C940.389 496.364 934.207 494.909 929.025 492C923.873 489.061 919.904 484.909 917.116 479.545C914.328 474.152 912.934 467.773 912.934 460.409C912.934 453.227 914.328 446.924 917.116 441.5C919.904 436.076 923.828 431.848 928.889 428.818C933.98 425.788 939.949 424.273 946.798 424.273C951.404 424.273 955.692 425.015 959.661 426.5C963.661 427.955 967.146 430.152 970.116 433.091C973.116 436.03 975.449 439.727 977.116 444.182C978.783 448.606 979.616 453.788 979.616 459.727V465.045H920.661V453.045H961.389C961.389 450.258 960.783 447.788 959.57 445.636C958.358 443.485 956.677 441.803 954.525 440.591C952.404 439.348 949.934 438.727 947.116 438.727C944.177 438.727 941.57 439.409 939.298 440.773C937.055 442.106 935.298 443.909 934.025 446.182C932.752 448.424 932.101 450.924 932.07 453.682V465.091C932.07 468.545 932.707 471.53 933.98 474.045C935.283 476.561 937.116 478.5 939.48 479.864C941.843 481.227 944.646 481.909 947.889 481.909C950.04 481.909 952.01 481.606 953.798 481C955.586 480.394 957.116 479.485 958.389 478.273C959.661 477.061 960.631 475.576 961.298 473.818L979.207 475C978.298 479.303 976.434 483.061 973.616 486.273C970.828 489.455 967.222 491.939 962.798 493.727C958.404 495.485 953.328 496.364 947.57 496.364ZM1036.87 496.364C1029.69 496.364 1023.51 494.909 1018.33 492C1013.17 489.061 1009.2 484.909 1006.42 479.545C1003.63 474.152 1002.23 467.773 1002.23 460.409C1002.23 453.227 1003.63 446.924 1006.42 441.5C1009.2 436.076 1013.13 431.848 1018.19 428.818C1023.28 425.788 1029.25 424.273 1036.1 424.273C1040.7 424.273 1044.99 425.015 1048.96 426.5C1052.96 427.955 1056.45 430.152 1059.42 433.091C1062.42 436.03 1064.75 439.727 1066.42 444.182C1068.08 448.606 1068.92 453.788 1068.92 459.727V465.045H1009.96V453.045H1050.69C1050.69 450.258 1050.08 447.788 1048.87 445.636C1047.66 443.485 1045.98 441.803 1043.83 440.591C1041.7 439.348 1039.23 438.727 1036.42 438.727C1033.48 438.727 1030.87 439.409 1028.6 440.773C1026.36 442.106 1024.6 443.909 1023.33 446.182C1022.05 448.424 1021.4 450.924 1021.37 453.682V465.091C1021.37 468.545 1022.01 471.53 1023.28 474.045C1024.58 476.561 1026.42 478.5 1028.78 479.864C1031.14 481.227 1033.95 481.909 1037.19 481.909C1039.34 481.909 1041.31 481.606 1043.1 481C1044.89 480.394 1046.42 479.485 1047.69 478.273C1048.96 477.061 1049.93 475.576 1050.6 473.818L1068.51 475C1067.6 479.303 1065.73 483.061 1062.92 486.273C1060.13 489.455 1056.52 491.939 1052.1 493.727C1047.7 495.485 1042.63 496.364 1036.87 496.364ZM1094.35 495V425.182H1113.12V437.364H1113.85C1115.13 433.03 1117.26 429.758 1120.26 427.545C1123.26 425.303 1126.72 424.182 1130.62 424.182C1131.59 424.182 1132.64 424.242 1133.76 424.364C1134.88 424.485 1135.87 424.652 1136.72 424.864V442.045C1135.81 441.773 1134.55 441.53 1132.94 441.318C1131.34 441.106 1129.87 441 1128.53 441C1125.69 441 1123.14 441.621 1120.9 442.864C1118.69 444.076 1116.93 445.773 1115.62 447.955C1114.35 450.136 1113.72 452.652 1113.72 455.5V495H1094.35ZM1217.62 445.091L1199.89 446.182C1199.59 444.667 1198.94 443.303 1197.94 442.091C1196.94 440.848 1195.62 439.864 1193.98 439.136C1192.38 438.379 1190.45 438 1188.21 438C1185.21 438 1182.68 438.636 1180.62 439.909C1178.56 441.152 1177.53 442.818 1177.53 444.909C1177.53 446.576 1178.19 447.985 1179.53 449.136C1180.86 450.288 1183.15 451.212 1186.39 451.909L1199.03 454.455C1205.82 455.848 1210.88 458.091 1214.21 461.182C1217.54 464.273 1219.21 468.333 1219.21 473.364C1219.21 477.939 1217.86 481.955 1215.16 485.409C1212.5 488.864 1208.83 491.561 1204.16 493.5C1199.53 495.409 1194.18 496.364 1188.12 496.364C1178.88 496.364 1171.51 494.439 1166.03 490.591C1160.57 486.712 1157.38 481.439 1156.44 474.773L1175.48 473.773C1176.06 476.591 1177.45 478.742 1179.66 480.227C1181.88 481.682 1184.71 482.409 1188.16 482.409C1191.56 482.409 1194.28 481.758 1196.35 480.455C1198.44 479.121 1199.5 477.409 1199.53 475.318C1199.5 473.561 1198.75 472.121 1197.3 471C1195.85 469.848 1193.6 468.97 1190.57 468.364L1178.48 465.955C1171.66 464.591 1166.59 462.227 1163.25 458.864C1159.95 455.5 1158.3 451.212 1158.3 446C1158.3 441.515 1159.51 437.652 1161.94 434.409C1164.39 431.167 1167.83 428.667 1172.25 426.909C1176.71 425.152 1181.92 424.273 1187.89 424.273C1196.71 424.273 1203.65 426.136 1208.71 429.864C1213.8 433.591 1216.77 438.667 1217.62 445.091Z" fill="#FF0077"/>
</svg>
