<?xml version="1.0" encoding="UTF-8"?>
<svg version="1.1" xmlns="http://www.w3.org/2000/svg" width="512" height="512">
<path d="M0 0 C0.69765472 0.00087616 1.39530945 0.00175232 2.11410522 0.00265503 C40.80654083 0.16207839 73.71154586 16.26715371 101.203125 43.00390625 C105.26797963 47.31748451 105.26797963 47.31748451 106.5 49.375 C106.21211085 53.59546645 103.53104084 55.67226167 100.625 58.5078125 C100.14047363 58.98572235 99.65594727 59.4636322 99.15673828 59.95602417 C97.61144167 61.47796093 96.05633236 62.98935724 94.5 64.5 C92.9454518 66.01947959 91.39306623 67.54108158 89.84326172 69.06539917 C88.4387598 70.44517518 87.02811425 71.81868909 85.6171875 73.19189453 C83.25999505 75.62247743 82.62787767 76.70364225 82 80 C83.17245081 87.91404297 91.33133075 92.97392618 97.34105742 97.51029074 C116.01676989 111.75000897 136.55049779 128.63347856 140.37875656 153.00170866 C142.7452849 170.63163935 142.06375747 188.61207575 141.36628195 206.33641329 C141.02301396 215.30582808 140.95911299 224.27187157 140.90587706 233.24691779 C140.80400694 249.23815644 140.49412434 265.21787192 140.0456543 281.20288086 C139.61153542 296.69286979 139.28023675 312.17968477 139.08178711 327.67456055 C139.06943911 328.6359731 139.0570911 329.59738566 139.04436892 330.58793192 C138.98301427 335.41299993 138.9236243 340.23808974 138.86520946 345.06319416 C138.38110286 384.84225273 137.54290619 424.60694958 136.5 464.375 C125.94 464.375 115.38 464.375 104.5 464.375 C104.5 377.255 104.5 290.135 104.5 200.375 C109.78 200.375 115.06 200.375 120.5 200.375 C120.5 195.095 120.5 189.815 120.5 184.375 C118.47101563 184.42140625 116.44203125 184.4678125 114.3515625 184.515625 C99.64102797 184.75224829 85.66391273 184.90804657 71.5 180.375 C70.36433594 180.01277344 69.22867188 179.65054688 68.05859375 179.27734375 C54.82718509 174.58027329 42.84172214 167.89291497 32.5 158.375 C31.98195801 157.90465332 31.46391602 157.43430664 30.93017578 156.94970703 C8.96413491 136.80927953 8.96413491 136.80927953 8.38647461 126.31201172 C8.39171143 125.48459473 8.39694824 124.65717773 8.40234375 123.8046875 C8.40556641 122.90878906 8.40878906 122.01289063 8.41210938 121.08984375 C8.42048828 120.15269531 8.42886719 119.21554688 8.4375 118.25 C8.44201172 117.30511719 8.44652344 116.36023438 8.45117188 115.38671875 C8.46297643 113.04941613 8.47944241 110.71223939 8.5 108.375 C19.45556339 104.42958811 28.99157366 103.90526831 40.5 104.375 C40.5 99.095 40.5 93.815 40.5 88.375 C36.85345938 88.82817406 33.2078445 89.28738154 29.5625 89.75 C28.54091797 89.87632813 27.51933594 90.00265625 26.46679688 90.1328125 C20.37831838 90.91089282 14.46934161 91.94335394 8.5 93.375 C8.5 87.765 8.5 82.155 8.5 76.375 C19.62738544 72.58695389 28.86480344 71.90009402 40.5 72.375 C40.5 67.095 40.5 61.815 40.5 56.375 C36.85345938 56.82817406 33.2078445 57.28738154 29.5625 57.75 C28.54091797 57.87632813 27.51933594 58.00265625 26.46679688 58.1328125 C20.37831838 58.91089282 14.46934161 59.94335394 8.5 61.375 C8.5 55.765 8.5 50.155 8.5 44.375 C19.62738544 40.58695389 28.86480344 39.90009402 40.5 40.375 C40.5 35.095 40.5 29.815 40.5 24.375 C36.66584512 24.82714091 32.8327844 25.28650049 29 25.75 C27.92234375 25.87632813 26.8446875 26.00265625 25.734375 26.1328125 C19.84429281 26.85111521 14.21691849 27.77925819 8.5 29.375 C8.5 25.085 8.5 20.795 8.5 16.375 C3.22 16.375 -2.06 16.375 -7.5 16.375 C-7.5 20.665 -7.5 24.955 -7.5 29.375 C-9.253125 28.92125 -11.00625 28.4675 -12.8125 28 C-21.61084664 25.94640361 -30.51541942 25.18143015 -39.5 24.375 C-39.5 29.655 -39.5 34.935 -39.5 40.375 C-37.79457031 40.30539063 -37.79457031 40.30539063 -36.0546875 40.234375 C-25.60470598 39.94365611 -17.48500557 40.97584917 -7.5 44.375 C-7.5 49.985 -7.5 55.595 -7.5 61.375 C-9.43875 60.92125 -11.3775 60.4675 -13.375 60 C-22.01782172 58.13152112 -30.70678991 57.22241821 -39.5 56.375 C-39.5 61.655 -39.5 66.935 -39.5 72.375 C-38.36304687 72.32859375 -37.22609375 72.2821875 -36.0546875 72.234375 C-25.60470598 71.94365611 -17.48500557 72.97584917 -7.5 76.375 C-7.5 81.985 -7.5 87.595 -7.5 93.375 C-9.43875 92.92125 -11.3775 92.4675 -13.375 92 C-22.01782172 90.13152112 -30.70678991 89.22241821 -39.5 88.375 C-39.5 93.655 -39.5 98.935 -39.5 104.375 C-38.36304687 104.32859375 -37.22609375 104.2821875 -36.0546875 104.234375 C-25.7298246 103.94713691 -17.30914749 104.84244528 -7.5 108.375 C-6.34234839 122.58124325 -7.21149973 131.3616945 -16.5 142.375 C-17.25410156 143.28636719 -18.00820312 144.19773438 -18.78515625 145.13671875 C-20.95113438 147.63122267 -23.19456299 150.00942115 -25.5 152.375 C-26.23089844 153.15617188 -26.96179688 153.93734375 -27.71484375 154.7421875 C-40.97536606 168.58533381 -58.89801234 177.98825606 -77.5 182.375 C-78.66511108 182.65537109 -78.66511108 182.65537109 -79.85375977 182.94140625 C-88.11733543 184.69688488 -96.29216058 184.60281987 -104.6875 184.5 C-106.13085311 184.48994179 -107.57421306 184.480821 -109.01757812 184.47265625 C-112.51203201 184.45260775 -116.00550979 184.41342445 -119.5 184.375 C-119.5 189.655 -119.5 194.935 -119.5 200.375 C-114.22 200.375 -108.94 200.375 -103.5 200.375 C-103.5 287.495 -103.5 374.615 -103.5 464.375 C-114.06 464.375 -124.62 464.375 -135.5 464.375 C-135.59055364 420.76449205 -135.66210752 377.15400679 -135.70426132 333.54342334 C-135.70926374 328.38685889 -135.71444107 323.23029463 -135.71972656 318.07373047 C-135.7207758 317.04721458 -135.72182505 316.02069869 -135.72290608 314.96307626 C-135.74027912 298.37375127 -135.77179961 281.78448211 -135.80861118 265.19519016 C-135.84610711 248.15451007 -135.86825409 231.11385908 -135.87635398 214.07313943 C-135.88182386 203.57049154 -135.89905716 193.0680015 -135.93166587 182.56540224 C-135.95292073 175.34906741 -135.9591754 168.13281338 -135.95400551 160.91644958 C-135.95146067 156.76206721 -135.95517227 152.60795933 -135.9768219 148.45362663 C-136.18631399 106.1156756 -126.05458925 69.73587054 -95.921875 38.69921875 C-79.9604585 22.84317325 -59.6845392 11.53340262 -38.25 5 C-37.08198853 4.64204346 -37.08198853 4.64204346 -35.89038086 4.27685547 C-24.06922764 0.87053087 -12.26022811 -0.03789954 0 0 Z " fill="#FF0077" transform="translate(159.5,23.625)"/>
<path d="M0 0 C3.86071544 1.28690515 4.51436259 2.86113285 6.8125 6.1875 C15.49677674 18.20977275 26.23218232 28.42433891 39 36 C39.6919043 36.41233887 40.38380859 36.82467773 41.09667969 37.24951172 C54.5646935 45.12298425 68.42957614 50.33084817 83.79882812 53.07226562 C84.77662231 53.24745728 85.7544165 53.42264893 86.76184082 53.60314941 C87.50043335 53.73411011 88.23902588 53.8650708 89 54 C89.2823171 60.68435637 89.47291308 67.36714327 89.60424805 74.05615234 C89.65907098 76.32398901 89.73376386 78.59144612 89.82983398 80.85791016 C90.45289972 95.95142776 89.51097611 105.83461155 79.3789978 117.39471436 C77.43975951 119.65217364 75.80171165 122.08184121 74.14453125 124.55078125 C71.28352559 128.64575903 68.4127936 132.73387694 65.53613281 136.81787109 C64.60378387 138.14230448 63.67300363 139.46784656 62.74511719 140.79541016 C50.8565774 157.79189336 36.31903679 171.48968119 15.28808594 175.67041016 C1.87956805 177.60185479 -12.40708183 177.21590546 -25 172 C-26.02996094 171.57589844 -27.05992187 171.15179688 -28.12109375 170.71484375 C-45.1180207 162.94172684 -55.34974243 149.26656144 -65.47265625 134.21875 C-69.67284144 127.97698873 -74.00157384 121.82732505 -78.33056641 115.67456055 C-78.88276855 114.88863525 -79.4349707 114.10270996 -80.00390625 113.29296875 C-80.48674072 112.6074292 -80.9695752 111.92188965 -81.46704102 111.21557617 C-81.97291748 110.48443604 -82.47879395 109.7532959 -83 109 C-83.71373779 108.1546167 -84.42747559 107.3092334 -85.1628418 106.43823242 C-87.7976268 101.50724541 -87.49978839 97.19890437 -87.390625 91.6953125 C-87.38496521 90.61619598 -87.37930542 89.53707947 -87.37347412 88.42526245 C-87.35115097 84.99138324 -87.30096017 81.55856184 -87.25 78.125 C-87.22992984 75.79168178 -87.21167997 73.45834714 -87.1953125 71.125 C-87.15129951 65.41630805 -87.08442739 59.70822962 -87 54 C-86.01870117 53.8131665 -85.03740234 53.62633301 -84.02636719 53.43383789 C-50.3670054 46.93186338 -20.99128506 30.56475279 -1.2578125 1.9140625 C-0.84273438 1.28242188 -0.42765625 0.65078125 0 0 Z " fill="#FF0077" transform="translate(159,168)"/>
<path d="M0 0 C1.06091858 -0.01036789 2.12183716 -0.02073578 3.21490479 -0.03141785 C6.71544287 -0.05848003 10.21472724 -0.04882603 13.71533203 -0.03637695 C16.15382232 -0.04228655 18.5923097 -0.04953355 21.03079224 -0.05805969 C26.14014812 -0.06993956 31.24906838 -0.06323345 36.35839844 -0.04394531 C42.89784521 -0.02107798 49.43599098 -0.04781665 55.97530937 -0.08900738 C61.01120801 -0.11461678 66.04679679 -0.1119964 71.08273697 -0.10111427 C73.49321803 -0.09962965 75.90372307 -0.10729351 78.31414413 -0.12436485 C81.68939149 -0.14438633 85.06235682 -0.12590113 88.4375 -0.09765625 C89.42789276 -0.11137268 90.41828552 -0.12508911 91.43869019 -0.13922119 C98.51646051 -0.02118922 102.13749517 2.00018756 107.34814453 6.6628418 C115.22245181 11.6268051 123.15390062 13.21104342 132.34814453 15.6628418 C132.34814453 34.4728418 132.34814453 53.2828418 132.34814453 72.6628418 C74.26814453 72.6628418 16.18814453 72.6628418 -43.65185547 72.6628418 C-43.65185547 53.8528418 -43.65185547 35.0428418 -43.65185547 15.6628418 C-38.70185547 14.3428418 -33.75185547 13.0228418 -28.65185547 11.6628418 C-20.74645032 8.30538964 -20.74645032 8.30538964 -14.14987183 3.10050964 C-9.88441398 -0.46291552 -5.33774824 -0.04589345 0 0 Z " fill="#FF0077" transform="translate(115.65185546875,415.337158203125)"/>
<path d="M0 0 C58.08 0 116.16 0 176 0 C173.80010079 24.19889132 163.31289023 44.77195819 144.90625 60.72265625 C123.33110086 77.62898952 99.25520153 82.60221367 72.41943359 79.72314453 C51.08271113 76.54897502 30.58737652 63.16260098 17.375 46.4375 C7.19972365 32.2821598 1.58044808 17.38492893 0 0 Z " fill="#FF0077" transform="translate(312,408)"/>
<path d="M0 0 C3.42482707 1.61776117 5.65690522 3.42343244 8.328125 6.1328125 C9.12734375 6.93847656 9.9265625 7.74414062 10.75 8.57421875 C11.575 9.41597656 12.4 10.25773437 13.25 11.125 C14.09046875 11.97449219 14.9309375 12.82398437 15.796875 13.69921875 C17.86915683 15.79504923 19.93662393 17.89540713 22 20 C20.55902163 22.95367791 18.96045686 25.56484984 17.0625 28.25 C10.88091208 37.60550836 10.0167802 45.93049166 11 57 C13.72530435 68.73266618 22.66213046 76.94545299 30.95703125 85.1171875 C31.91064485 86.0645158 32.86373522 87.01237106 33.81632996 87.96072388 C36.30224035 90.43344929 38.7936909 92.90050689 41.28686523 95.36590576 C45.2952549 99.33083753 49.29661928 103.30283241 53.2949276 107.2779274 C54.68909375 108.66188139 56.08681201 110.04225407 57.48457336 111.4225769 C58.32602402 112.25749664 59.16747467 113.09241638 60.03442383 113.95263672 C60.77799637 114.68795624 61.52156891 115.42327576 62.28767395 116.18087769 C65.16189166 119.23435781 65.41213678 121.77369063 65.3359375 125.95703125 C65 128 65 128 63 131 C59.91990364 133.05339758 57.81659159 133.86044989 54.08610535 133.60752869 C46.65160139 131.4424058 40.10419692 122.16298922 34.85546875 116.77734375 C33.10933428 115.00395614 31.36256997 113.23118851 29.61523438 111.45898438 C26.89734973 108.69791586 24.18347218 105.93336466 21.48022461 103.15795898 C18.84615025 100.45682936 16.19604739 97.77229302 13.54296875 95.08984375 C12.74988815 94.26781967 11.95680756 93.44579559 11.13969421 92.59886169 C2.47754766 83.89637551 -6.2723596 78.80572088 -18.625 78.6875 C-28.60217097 78.6672212 -35.59417011 81.28094622 -43.2109375 87.828125 C-45 89 -45 89 -49 89 C-51.19824219 87.25585938 -51.19824219 87.25585938 -53.546875 84.84375 C-54.81337891 83.55791016 -54.81337891 83.55791016 -56.10546875 82.24609375 C-56.97816406 81.33988281 -57.85085938 80.43367188 -58.75 79.5 C-59.63816406 78.59378906 -60.52632813 77.68757813 -61.44140625 76.75390625 C-63.63681556 74.51128384 -65.82237387 72.25987232 -68 70 C-66.72829615 67.21617957 -65.41939717 65.17065422 -63.25387573 63.0133667 C-62.69579224 62.45253387 -62.13770874 61.89170105 -61.56271362 61.31387329 C-60.95275543 60.71110565 -60.34279724 60.10833801 -59.71435547 59.48730469 C-59.07032776 58.84298492 -58.42630005 58.19866516 -57.76275635 57.53482056 C-55.63560693 55.40906302 -53.50146388 53.29047492 -51.3671875 51.171875 C-49.88987407 49.69829219 -48.41300196 48.22426682 -46.93655396 46.74981689 C-43.05129631 42.87219179 -39.16006971 39.00061059 -35.26757812 35.13024902 C-31.29586322 31.17900061 -27.329811 27.22207739 -23.36328125 23.265625 C-15.5810588 15.50484579 -7.79252001 7.75043852 0 0 Z " fill="#FF0077" transform="translate(359,67)"/>
<path d="M0 0 C13.51191212 10.47862572 18.94469109 24.77876438 23 41 C23 50.24 23 59.48 23 69 C-16.6 69 -56.2 69 -97 69 C-97 51.63157895 -97 51.63157895 -90.625 44.25 C-83.07504523 37.7786102 -76.64263401 36.45376486 -66.91796875 35.6484375 C-40.7488573 33.40048124 -19.42445372 22.59861338 -2.1875 2.75 C-1.465625 1.8425 -0.74375 0.935 0 0 Z " fill="#FF0077" transform="translate(441,323)"/>
<path d="M0 0 C0.33 0 0.66 0 1 0 C1 39.27 1 78.54 1 119 C-13.92647904 116.01470419 -24.2682956 110.4388183 -32.9375 97.5625 C-38.9454072 88.12993808 -39.74305306 77.80359424 -39.94042969 66.89624023 C-39.98012296 65.34120751 -40.04848608 63.78664144 -40.14550781 62.23413086 C-40.92416955 49.68152096 -40.92416955 49.68152096 -37.74990845 45.25787354 C-34.69322345 42.08741914 -31.22532392 39.66525704 -27.59054565 37.21018982 C-22.73331997 33.51449894 -19.45264089 27.9523956 -16 23 C-15.34966797 22.06784668 -14.69933594 21.13569336 -14.02929688 20.17529297 C-11.09742547 15.96419144 -8.1667082 11.75279234 -5.26831055 7.51855469 C-4.600979 6.54692383 -3.93364746 5.57529297 -3.24609375 4.57421875 C-2.64466553 3.69338623 -2.0432373 2.81255371 -1.42358398 1.9050293 C-0.95380127 1.27636963 -0.48401855 0.64770996 0 0 Z " fill="#FF0077" transform="translate(247,297)"/>
<path d="M0 0 C2.63062608 2.63062608 4.5070044 4.51333234 6.48046875 7.46875 C6.9177832 8.11650391 7.35509766 8.76425781 7.80566406 9.43164062 C8.26166992 10.11419922 8.71767578 10.79675781 9.1875 11.5 C19.3545746 28.30704576 19.3545746 28.30704576 33.28198242 41.28710938 C36.15752315 42.93716897 37.95919358 44.36659358 40 47 C41.08480013 51.99174951 41.08828839 56.73481669 40.89868164 61.82250977 C40.81329912 64.16557058 40.7961965 66.50123483 40.79101562 68.84570312 C40.6120025 83.51543409 37.19017589 95.33789948 26.8984375 106.22265625 C18.59853832 114.06796731 11.24050309 116.75189938 0 119 C0 79.73 0 40.46 0 0 Z " fill="#FF0077" transform="translate(72,297)"/>
<path d="M0 0 C0.87914062 0.28681641 1.75828125 0.57363281 2.6640625 0.86914062 C23.65894949 7.5765642 43.19639754 6.63389688 64 0 C64.05945801 1.12474731 64.05945801 1.12474731 64.12011719 2.2722168 C65.04186595 21.52296732 65.04186595 21.52296732 70 40 C70.66 42.31 71.32 44.62 72 47 C45.6 47 19.2 47 -8 47 C-7.01 44.03 -6.02 41.06 -5 38 C-2.27583605 29.63549013 -1.32753029 21.57746497 -0.8125 12.8125 C-0.73064453 11.57435547 -0.64878906 10.33621094 -0.56445312 9.06054688 C-0.36624972 6.04085968 -0.17830352 3.02091626 0 0 Z " fill="#FF0077" transform="translate(128,353)"/>
<path d="M0 0 C3.46629835 1.48653506 5.69022036 3.45722351 8.328125 6.1328125 C9.12734375 6.93847656 9.9265625 7.74414062 10.75 8.57421875 C11.575 9.41597656 12.4 10.25773437 13.25 11.125 C14.09046875 11.97449219 14.9309375 12.82398437 15.796875 13.69921875 C17.86915683 15.79504923 19.93662393 17.89540713 22 20 C19.95933017 24.26615504 17.41446998 26.73398524 14 30 C10.53370165 28.51346494 8.30977964 26.54277649 5.671875 23.8671875 C4.87265625 23.06152344 4.0734375 22.25585938 3.25 21.42578125 C2.0125 20.16314453 2.0125 20.16314453 0.75 18.875 C-0.09046875 18.02550781 -0.9309375 17.17601563 -1.796875 16.30078125 C-3.86915683 14.20495077 -5.93662393 12.10459287 -8 10 C-5.95933017 5.73384496 -3.41446998 3.26601476 0 0 Z " fill="#FF0077" transform="translate(267,95)"/>
<path d="M0 0 C3.46629835 1.48653506 5.69022036 3.45722351 8.328125 6.1328125 C9.12734375 6.93847656 9.9265625 7.74414062 10.75 8.57421875 C11.575 9.41597656 12.4 10.25773437 13.25 11.125 C14.09046875 11.97449219 14.9309375 12.82398437 15.796875 13.69921875 C17.86915683 15.79504923 19.93662393 17.89540713 22 20 C19.95933017 24.26615504 17.41446998 26.73398524 14 30 C10.53370165 28.51346494 8.30977964 26.54277649 5.671875 23.8671875 C4.87265625 23.06152344 4.0734375 22.25585938 3.25 21.42578125 C2.0125 20.16314453 2.0125 20.16314453 0.75 18.875 C-0.09046875 18.02550781 -0.9309375 17.17601563 -1.796875 16.30078125 C-3.86915683 14.20495077 -5.93662393 12.10459287 -8 10 C-5.95933017 5.73384496 -3.41446998 3.26601476 0 0 Z " fill="#FF0077" transform="translate(287,75)"/>
<path d="M0 0 C3.46629835 1.48653506 5.69022036 3.45722351 8.328125 6.1328125 C9.12734375 6.93847656 9.9265625 7.74414062 10.75 8.57421875 C11.575 9.41597656 12.4 10.25773437 13.25 11.125 C14.09046875 11.97449219 14.9309375 12.82398437 15.796875 13.69921875 C17.86915683 15.79504923 19.93662393 17.89540713 22 20 C19.95933017 24.26615504 17.41446998 26.73398524 14 30 C10.53370165 28.51346494 8.30977964 26.54277649 5.671875 23.8671875 C4.87265625 23.06152344 4.0734375 22.25585938 3.25 21.42578125 C2.0125 20.16314453 2.0125 20.16314453 0.75 18.875 C-0.09046875 18.02550781 -0.9309375 17.17601563 -1.796875 16.30078125 C-3.86915683 14.20495077 -5.93662393 12.10459287 -8 10 C-5.95933017 5.73384496 -3.41446998 3.26601476 0 0 Z " fill="#FF0077" transform="translate(307,55)"/>
<path d="M0 0 C3.46629835 1.48653506 5.69022036 3.45722351 8.328125 6.1328125 C9.12734375 6.93847656 9.9265625 7.74414062 10.75 8.57421875 C11.575 9.41597656 12.4 10.25773437 13.25 11.125 C14.09046875 11.97449219 14.9309375 12.82398438 15.796875 13.69921875 C17.86915683 15.79504923 19.93662393 17.89540713 22 20 C19.95933017 24.26615504 17.41446998 26.73398524 14 30 C10.53370165 28.51346494 8.30977964 26.54277649 5.671875 23.8671875 C4.87265625 23.06152344 4.0734375 22.25585938 3.25 21.42578125 C2.0125 20.16314453 2.0125 20.16314453 0.75 18.875 C-0.09046875 18.02550781 -0.9309375 17.17601563 -1.796875 16.30078125 C-3.86915683 14.20495077 -5.93662393 12.10459287 -8 10 C-5.95933017 5.73384496 -3.41446998 3.26601476 0 0 Z " fill="#FF0077" transform="translate(327,35)"/>
</svg>
