<?xml version="1.0" encoding="UTF-8"?>
<svg version="1.1" xmlns="http://www.w3.org/2000/svg" width="512" height="512">
<path d="M0 0 C1.15060913 -0.02803711 1.15060913 -0.02803711 2.32446289 -0.05664062 C13.88434514 0.0707275 23.84205143 6.03416595 33.8125 11.3125 C35.06896614 11.97124619 36.32581016 12.62927206 37.58300781 13.28662109 C40.20159258 14.65637285 42.8185262 16.02921153 45.43457031 17.40380859 C49.43410445 19.50209117 53.44576608 21.5763603 57.4609375 23.64453125 C58.11246796 23.98029678 58.76399841 24.31606232 59.43527222 24.66200256 C61.96328664 25.96458457 64.49146234 27.26685134 67.02020264 28.56802368 C68.75896439 29.46325335 70.49668465 30.36050494 72.234375 31.2578125 C73.30365234 31.80598633 74.37292969 32.35416016 75.47460938 32.91894531 C78.80931085 34.69840533 82.00480041 36.6550078 85.15332031 38.74560547 C91.84587105 40.95594982 99.45830223 37.32083132 105.734375 35.03515625 C106.71353882 34.68581024 107.69270264 34.33646423 108.70153809 33.97653198 C110.78869504 33.23065034 112.87452259 32.4810398 114.95910645 31.72799683 C118.20892489 30.5547653 121.46274156 29.39330045 124.71777344 28.23461914 C133.97100838 24.93514386 143.21050988 21.60511259 152.40625 18.1484375 C153.67854971 17.67526613 154.95100307 17.20250762 156.22363281 16.73022461 C158.44303859 15.90193637 160.65662997 15.05779243 162.86230469 14.19360352 C170.1790377 11.47060796 178.3622263 9.5205633 185.91699219 12.46704102 C190.56791941 14.98863483 193.9164564 18.38202309 195.4375 23.5 C196.22282412 29.70135254 196.19662913 35.28572411 192.4375 40.5 C187.22310304 46.09727058 181.38509063 48.3983207 174.2421875 50.78515625 C173.15258728 51.16366226 172.06298706 51.54216827 170.94036865 51.93214417 C167.40273098 53.15731479 163.85795378 54.36015674 160.3125 55.5625 C157.87237304 56.40199902 155.43275945 57.24299166 152.99365234 58.08544922 C148.11188131 59.77026846 143.22764358 61.4476461 138.34179688 63.12060547 C132.18533463 65.23450861 126.04911252 67.40066392 119.921875 69.59765625 C119.06373199 69.90435745 118.20558899 70.21105865 117.32144165 70.52705383 C112.54462179 72.23407346 112.54462179 72.23407346 107.7723999 73.95388794 C105.65554512 74.71893498 103.53531662 75.47381633 101.4140625 76.2265625 C100.24955566 76.64502441 99.08504883 77.06348633 97.88525391 77.49462891 C85.92687075 80.98171443 78.45691718 77.28113834 67.80078125 71.75390625 C66.91770798 71.30152084 66.0346347 70.84913544 65.12480164 70.38304138 C63.27198382 69.43215205 61.42074868 68.47817304 59.57104492 67.52124023 C56.75113012 66.06308438 53.92584447 64.61578284 51.09960938 63.16992188 C49.29134034 62.24021777 47.4833866 61.3099001 45.67578125 60.37890625 C44.8381575 59.94961319 44.00053375 59.52032013 43.13752747 59.07801819 C30.6119943 52.58136971 30.6119943 52.58136971 27.18359375 46.69140625 C26.63896484 45.77939453 26.09433594 44.86738281 25.53320312 43.92773438 C24.71239258 42.50944336 24.71239258 42.50944336 23.875 41.0625 C16.62911413 28.59041348 16.62911413 28.59041348 4.4375 21.5 C-2.07360921 20.34910017 -7.55220306 21.53915456 -13.2890625 24.76953125 C-18.30275441 28.58579502 -20.98271519 33.28790752 -22.09765625 39.46484375 C-22.63667591 50.20377391 -16.83879382 58.39460555 -11.1875 67.125 C-10.14153783 68.76537686 -9.09598623 70.40601557 -8.05078125 72.046875 C-6.88819757 73.86469637 -5.72542561 75.68239735 -4.5625 77.5 C-1.82211689 81.78464679 0.90514242 86.0772993 3.625 90.375 C4.28483887 91.40318848 4.94467773 92.43137695 5.62451172 93.49072266 C6.54321045 94.94551025 6.54321045 94.94551025 7.48046875 96.4296875 C8.02727295 97.28804199 8.57407715 98.14639648 9.13745117 99.03076172 C11.03008003 102.62551257 11.72315592 105.14041294 10.88012695 109.15283203 C10.56519287 110.09497559 10.25025879 111.03711914 9.92578125 112.0078125 C9.5817627 113.06790527 9.23774414 114.12799805 8.88330078 115.22021484 C8.50931152 116.34379395 8.13532227 117.46737305 7.75 118.625 C5.17672683 126.6507097 2.74593931 134.61200511 1.0625 142.875 C0.90458984 143.63772217 0.74667969 144.40044434 0.58398438 145.1862793 C-0.0794906 148.53203614 -0.59122811 151.79191464 -0.92578125 155.19140625 C-1.66717788 162.614305 -1.66717788 162.614305 -4.015625 164.9375 C-6.49193591 166.18540471 -8.8689329 166.81821182 -11.5625 167.5 C-12.98266204 167.91755367 -14.40185404 168.33841403 -15.8203125 168.76171875 C-25.98530544 171.69757075 -36.03580574 173.52718825 -46.5625 174.5 C-46.2325 175.098125 -45.9025 175.69625 -45.5625 176.3125 C-44.5625 178.5 -44.5625 178.5 -44.5625 181.5 C-30.60458702 179.29936087 -17.09996252 176.54896915 -3.5625 172.5 C-3.11036133 173.37922119 -2.65822266 174.25844238 -2.19238281 175.16430664 C8.57331622 196.10765814 8.57331622 196.10765814 19.4375 217 C24.09561877 225.90985769 28.7300024 234.83187558 33.34448242 243.7644043 C34.10664444 245.23896961 34.8696469 246.71310086 35.63354492 248.18676758 C36.70729641 250.25870762 37.77784928 252.33227111 38.84765625 254.40625 C39.16589859 255.01887695 39.48414093 255.63150391 39.81202698 256.26269531 C40.70532321 257.99925211 41.57177972 259.74953262 42.4375 261.5 C43.00654053 262.49193359 43.57558105 263.48386719 44.16186523 264.50585938 C49.42642997 277.59993973 43.92660733 296.57375336 42.04296875 309.98828125 C41.69077441 312.54354454 41.33924897 315.09890011 40.98835754 317.65434265 C40.25415033 322.98475715 39.51312159 328.31415409 38.76635742 333.64282227 C37.90683203 339.77682974 37.06027348 345.91252149 36.22059363 352.04927474 C35.4068078 357.9946165 34.58392694 363.93865607 33.75704384 369.88219261 C33.40839283 372.39396829 33.06195514 374.90605226 32.71782494 377.41845131 C32.23527547 380.93155378 31.74241505 384.44306209 31.24682617 387.9543457 C31.10800018 388.97951294 30.96917419 390.00468018 30.82614136 391.06091309 C29.16008796 402.68555803 26.79175591 412.56373899 17.26171875 420.17578125 C9.90706133 425.51460109 2.31628092 425.35954156 -6.5625 424.5 C-14.64597488 422.29849497 -20.28816134 417.74497922 -24.4921875 410.56640625 C-29.40442086 401.08256885 -27.64966247 390.61245108 -26.15380859 380.45410156 C-26.00429245 379.39913986 -25.85477631 378.34417816 -25.70072937 377.25724792 C-25.37791016 374.98432324 -25.05205099 372.71182861 -24.72343063 370.43973541 C-24.20400022 366.84258302 -23.69444861 363.24415551 -23.18765259 359.64520264 C-21.74618274 349.4191312 -20.289564 339.19526063 -18.8203125 328.97314453 C-17.92026161 322.7062961 -17.03370742 316.43765845 -16.15547562 310.16771698 C-15.81859403 307.7827534 -15.47646268 305.39852523 -15.12897873 303.01508331 C-14.64413448 299.68781512 -14.17640411 296.3585495 -13.71240234 293.02832031 C-13.56495071 292.04637192 -13.41749908 291.06442352 -13.26557922 290.05271912 C-12.5731792 284.94402742 -12.34548412 281.31691511 -14.5625 276.5 C-14.89607513 275.76378922 -15.22965027 275.02757843 -15.57333374 274.26905823 C-15.92989044 273.57513474 -16.28644714 272.88121124 -16.65380859 272.16625977 C-17.06118256 271.36845596 -17.46855652 270.57065216 -17.88827515 269.74867249 C-18.32475372 268.90477463 -18.7612323 268.06087677 -19.2109375 267.19140625 C-19.66473785 266.30645981 -20.11853821 265.42151337 -20.58609009 264.50975037 C-21.54400174 262.64373798 -22.50395457 260.77877219 -23.46582031 258.91479492 C-24.92967327 256.07766917 -26.38725273 253.23739214 -27.84375 250.39648438 C-28.77827873 248.5779363 -29.71316292 246.75957085 -30.6484375 244.94140625 C-31.08086761 244.09953262 -31.51329773 243.257659 -31.95883179 242.39027405 C-34.38553965 237.69172881 -36.90321177 233.07110707 -39.5625 228.5 C-40.07039063 228.89832031 -40.57828125 229.29664063 -41.1015625 229.70703125 C-51.08751132 237.39284579 -59.02897564 239.24974807 -71.5625 238.5 C-83.78420741 236.77885516 -97.35051903 230.97026837 -105.5625 221.5 C-107.60817506 217.95914716 -108.11678581 215.61755177 -107.5625 211.5 C-106.10226844 208.68129518 -104.40005326 206.08569994 -102.5625 203.5 C-104.59341589 203.47310951 -104.59341589 203.47310951 -106.734375 203.67578125 C-114.55098901 204.09029866 -114.55098901 204.09029866 -118.125 201.125 C-121.88920972 197.07123568 -121.90588938 194.42193094 -121.84375 189.046875 C-121.4302722 185.30260377 -120.09506116 183.23790395 -117.5625 180.5 C-113.65600882 178.17722146 -110.03925079 178.02876307 -105.5625 178.5 C-101.21170085 180.75906879 -98.54553271 182.98309216 -96.5625 187.5 C-96.375 190.3125 -96.375 190.3125 -96.5625 192.5 C-93.7282676 192.41664022 -92.00548455 191.88608745 -89.859375 190.015625 C-87.47636453 187.4285064 -87.47636453 187.4285064 -85.5625 184.5 C-85.81326663 182.31000847 -85.81326663 182.31000847 -86.5625 180.5 C-87.738125 180.891875 -88.91375 181.28375 -90.125 181.6875 C-94.76875421 182.83816476 -97.40874238 181.97627858 -101.5625 179.5 C-105.05360462 176.10076655 -106.46661782 173.38999103 -106.5625 168.5 C-105.88356706 164.80517548 -104.82082642 161.74812377 -102.1171875 159.06640625 C-98.02930404 156.31896829 -94.4363333 156.07430438 -89.64453125 156.890625 C-85.63295125 158.06474598 -83.41071905 160.12669297 -81.25 163.625 C-80.22569391 167.90846182 -80.40933139 172.11767583 -80.5625 176.5 C-79.5725 175.51 -78.5825 174.52 -77.5625 173.5 C-77.76746094 172.8709375 -77.97242188 172.241875 -78.18359375 171.59375 C-78.45300781 170.7378125 -78.72242188 169.881875 -79 169 C-79.26683594 168.1646875 -79.53367188 167.329375 -79.80859375 166.46875 C-90.63422264 123.83933052 -69.30331018 67.51012196 -48.07421875 31.12109375 C-39.67536581 17.35660419 -28.95519759 5.81837403 -13.03125 1.125 C-8.66684427 0.33862059 -4.42919292 0.07305885 0 0 Z M-64.5625 161.5 C-65.119375 162.61117187 -65.67625 163.72234375 -66.25 164.8671875 C-70.63497861 173.47348276 -75.06471587 181.27606658 -81.5625 188.5 C-82.28308594 189.31597656 -83.00367187 190.13195312 -83.74609375 190.97265625 C-85.99951389 193.49945492 -88.27702018 196.00218675 -90.5625 198.5 C-92.21065194 200.31039189 -93.85654074 202.12284707 -95.5 203.9375 C-96.59634766 205.14212891 -96.59634766 205.14212891 -97.71484375 206.37109375 C-100.92396654 210.06746873 -100.92396654 210.06746873 -101.625 214.8125 C-99.94718665 220.63549928 -96.30240488 222.8826314 -91.2265625 225.87890625 C-80.2013834 231.7045135 -68.60254797 234.97113919 -56.21484375 232.34765625 C-51.20448683 230.74640816 -47.29115368 228.16890112 -44.40625 223.71484375 C-39.39152422 212.40849443 -43.37502325 198.41974552 -47.34228516 187.31787109 C-50.88939496 178.16853045 -55.01971141 168.08980186 -62.5625 161.5 C-63.2225 161.5 -63.8825 161.5 -64.5625 161.5 Z M-99 164.0625 C-100.88292676 166.51731429 -100.88292676 166.51731429 -100.5625 170.0625 C-99.84089081 173.47502893 -99.84089081 173.47502893 -97.8125 175.4375 C-95.06758782 176.73370853 -93.56175788 177.02487013 -90.5625 176.5 C-88.12554526 174.97981752 -88.12554526 174.97981752 -86.5625 172.5 C-85.95054855 168.8282913 -86.07543494 167.21186432 -88.1875 164.125 C-92.09296998 161.45283633 -95.0360783 161.52152455 -99 164.0625 Z M-112.25 184.75 C-114.59662952 186.44269415 -114.59662952 186.44269415 -116.5625 188.5 C-116.39066891 193.41952123 -116.39066891 193.41952123 -113.8125 197.4375 C-111.06758782 198.73370853 -109.56175788 199.02487013 -106.5625 198.5 C-104.2503553 196.70166523 -102.89935599 195.19616905 -101.625 192.5625 C-101.52995034 189.42586122 -102.64409699 187.92997715 -104.5625 185.5 C-107.76213497 183.47917791 -108.77227381 183.13245294 -112.25 184.75 Z " fill="#FF0077" transform="translate(127.5625,87.5)"/>
<path d="M0 0 C10.75680952 9.05836591 16.65596424 19.78908382 17.94921875 33.75 C18.51808441 43.95174159 16.5274126 53.07836737 13.75976562 62.87524414 C10.88156022 73.17029774 10.62124744 82.02198652 15.94921875 91.640625 C20.94084941 99.34424397 26.69300286 105.76506795 34 111.3125 C34.72550049 111.86486328 35.45100098 112.41722656 36.19848633 112.98632812 C45.15512561 119.61963215 54.84081389 125.01296328 64.52783203 130.49169922 C69.62820226 133.38724284 74.69163619 136.34435861 79.75 139.3125 C80.65580811 139.83650391 81.56161621 140.36050781 82.49487305 140.90039062 C94.57582626 147.98244718 99.08470919 155.09108682 103.5625 168.1875 C107.76995914 180.2381671 112.52305529 192.01929708 117.45874023 203.78686523 C118.00507958 205.1039898 118.55138648 206.42112783 119.09765625 207.73828125 C119.58500244 208.89884033 120.07234863 210.05939941 120.57446289 211.25512695 C121.625 214.25 121.625 214.25 121.625 218.25 C109.25 219.24 109.25 219.24 96.625 220.25 C97.22562256 222.1072168 97.82624512 223.96443359 98.44506836 225.87792969 C100.42987512 232.01631429 102.41346138 238.15509223 104.39621639 244.29413986 C105.59832498 248.01598105 106.80092198 251.73766294 108.00463867 255.45898438 C109.16640805 259.05068613 110.32688988 262.64280155 111.48648262 266.2352066 C111.92897333 267.60526571 112.37192668 268.97517549 112.81535149 270.34493256 C113.43664031 272.26438906 114.05612775 274.18442835 114.67553711 276.10449219 C115.02861435 277.19703308 115.38169159 278.28957397 115.74546814 279.41522217 C118.42172648 288.04094472 119.21762272 296.90009608 114.94921875 305.15234375 C109.94167349 313.08464995 104.45453424 317.30682192 95.625 320.25 C85.83543695 321.15892442 77.72671084 319.62888408 69.8125 313.625 C62.02809073 306.08557997 59.53177682 294.44486078 56.39453125 284.390625 C55.91396091 282.87206047 55.43263901 281.35373361 54.9506073 279.83563232 C53.69306387 275.86846688 52.44536025 271.89827684 51.19989014 267.92730713 C49.93135066 263.88851548 48.65389577 259.85254734 47.37695312 255.81640625 C45.94097118 251.27630781 44.50586004 246.73595206 43.07759094 242.19342041 C42.86026306 241.50252823 42.64293518 240.81163605 42.41902161 240.09980774 C41.83462361 238.24124939 41.25082269 236.38250333 40.66706848 234.52374268 C39.6802879 231.42369141 38.6537883 228.33636491 37.625 225.25 C4.955 224.755 4.955 224.755 -28.375 224.25 C-28.375 229.2 -28.375 234.15 -28.375 239.25 C-33.325 239.25 -38.275 239.25 -43.375 239.25 C-43.375 258.72 -43.375 278.19 -43.375 298.25 C-25.8733904 298.05235906 -25.8733904 298.05235906 -8.37255859 297.79956055 C-6.1728639 297.78495277 -3.97315567 297.77221279 -1.7734375 297.76171875 C-0.63817627 297.73613892 0.49708496 297.71055908 1.66674805 297.6842041 C10.6508789 297.67924925 10.6508789 297.67924925 14.34301758 300.65161133 C17.09992256 303.79077253 17.58500976 305.30634577 17.796875 309.32421875 C17.45406603 313.16523748 15.61332526 315.35807862 12.83822441 317.86248875 C10.14458711 319.55117971 8.56390257 319.62930493 5.40090942 319.63768005 C3.81539276 319.652537 3.81539276 319.652537 2.19784546 319.66769409 C1.04345978 319.66319244 -0.1109259 319.6586908 -1.30029297 319.65405273 C-3.13013733 319.66434761 -3.13013733 319.66434761 -4.99694824 319.67485046 C-8.34017092 319.69001795 -11.68283613 319.69161169 -15.026052 319.68590808 C-17.81921531 319.68281679 -20.61232819 319.68890816 -23.40548432 319.69494683 C-29.99709083 319.7089942 -36.58856776 319.70742975 -43.18017578 319.69604492 C-49.97401419 319.68456987 -56.76745756 319.69862819 -63.56124389 319.7254414 C-69.39919017 319.74761712 -75.23701262 319.7542314 -81.07499802 319.74836498 C-84.55949302 319.74499784 -88.04373495 319.74739362 -91.52819443 319.76461601 C-95.41592565 319.78299268 -99.30317349 319.76887868 -103.19091797 319.75170898 C-104.34125519 319.76137695 -105.49159241 319.77104492 -106.67678833 319.78100586 C-112.8506537 319.72387078 -116.72281947 319.48295427 -121.375 315.25 C-123.11131636 311.77736727 -122.97690402 308.03806987 -122.375 304.25 C-120.19340855 301.49430553 -118.50322506 299.81411253 -115.375 298.25 C-113.64893547 298.15938144 -111.91935493 298.13245499 -110.19091797 298.13647461 C-109.09481201 298.13659546 -107.99870605 298.13671631 -106.86938477 298.13684082 C-105.71365967 298.14195679 -104.55793457 298.14707275 -103.3671875 298.15234375 C-101.77789429 298.15385437 -101.77789429 298.15385437 -100.15649414 298.15539551 C-96.1876518 298.16063893 -92.21882484 298.17460012 -88.25 298.1875 C-74.946875 298.2184375 -74.946875 298.2184375 -61.375 298.25 C-61.375 278.78 -61.375 259.31 -61.375 239.25 C-66.325 239.25 -71.275 239.25 -76.375 239.25 C-76.375 234.3 -76.375 229.35 -76.375 224.25 C-78.88649658 224.28927612 -78.88649658 224.28927612 -81.44873047 224.3293457 C-87.01654054 224.4103768 -92.58426527 224.46760551 -98.15250969 224.50906086 C-101.52453797 224.53501814 -104.89592106 224.57015506 -108.26757812 224.62719727 C-112.15511759 224.68820924 -116.0417547 224.7162944 -119.9296875 224.73828125 C-121.12488007 224.76408768 -122.32007263 224.7898941 -123.55148315 224.81648254 C-131.9774012 224.8192728 -138.98324211 223.39443554 -145.2789917 217.45323181 C-149.13108527 213.01780478 -149.97396625 207.94368322 -150.7421875 202.2890625 C-150.86257889 201.44553726 -150.98297028 200.60201202 -151.10700989 199.73292542 C-153.07556683 185.6150524 -154.74713357 171.45423892 -156.4465332 157.30200195 C-156.9611832 153.01837595 -157.48460141 148.73586895 -158.01007366 144.45355892 C-158.41861568 141.11242062 -158.82120091 137.77058362 -159.22217751 134.42852974 C-159.41261328 132.84923239 -159.60513934 131.27018543 -159.79993248 129.6914196 C-162.99302639 103.75161516 -162.99302639 103.75161516 -157.375 95.25 C-152.41501963 89.51149107 -146.40611994 86.68975854 -138.9375 85.875 C-132.32439462 86.57111636 -126.05058643 88.31465877 -121.375 93.25 C-118.03496884 98.09813387 -115.59705097 102.18199754 -116.375 108.25 C-115.715 108.25 -115.055 108.25 -114.375 108.25 C-114.024375 106.991875 -113.67375 105.73375 -113.3125 104.4375 C-110.74642924 95.89991879 -107.51342637 87.58952889 -104.375 79.25 C-104.04307648 78.36615631 -103.71115295 77.48231262 -103.36917114 76.57168579 C-99.18750071 65.45512598 -94.92327484 54.38399104 -90.3125 43.4375 C-89.68891602 41.94959961 -89.68891602 41.94959961 -89.05273438 40.43164062 C-80.0370498 19.42407929 -67.57539645 5.26756927 -46.375 -3.75 C-31.62553219 -8.81511349 -13.21747199 -9.26742289 0 0 Z M-71.6796875 24.05859375 C-79.36789648 35.01634356 -83.78427855 47.69506822 -88.55273438 60.1114502 C-89.41048827 62.34229796 -90.27316647 64.57119544 -91.13671875 66.79980469 C-101.17446321 92.73112981 -110.82320229 118.80710369 -120.33494568 144.93539429 C-122.20202393 150.05875675 -124.08736998 155.17427111 -126.00784302 160.27786255 C-126.7706178 162.30777068 -127.52662867 164.3400414 -128.27978516 166.37353516 C-129.14410099 168.70358005 -130.02039785 171.02923485 -130.91162109 173.34912109 C-131.27594238 174.34250488 -131.64026367 175.33588867 -132.015625 176.359375 C-132.48790527 177.61186035 -132.48790527 177.61186035 -132.96972656 178.88964844 C-133.49360093 181.94074325 -132.76805741 183.52673635 -131.375 186.25 C-112.69661786 209.07407183 -71.79560091 211.9286481 -44.96484375 214.671875 C-42.76881025 214.871096 -40.57216561 215.06367932 -38.375 215.25 C-37.2921875 215.34571289 -36.209375 215.44142578 -35.09375 215.54003906 C-20.59146113 216.63833944 -6.03529196 216.49186198 8.5 216.5 C9.22136517 216.50088371 9.94273033 216.50176743 10.68595505 216.50267792 C31.05709079 216.52477759 51.34926407 216.15945385 71.6875 214.875 C72.69528503 214.81187622 73.70307007 214.74875244 74.74139404 214.68371582 C86.75268721 213.91029606 98.68794107 212.79045704 110.625 211.25 C109.89205131 206.42720967 108.14899171 202.10073776 106.38671875 197.58203125 C106.06467972 196.74717697 105.74264069 195.91232269 105.4108429 195.0521698 C104.38182618 192.3874732 103.34718086 189.72500163 102.3125 187.0625 C101.29232363 184.42288113 100.27320171 181.7828569 99.25418091 179.14279175 C98.28161656 176.63337178 97.29806602 174.12844846 96.31396484 171.62353516 C95.32766161 169.10250574 94.40287564 166.59436045 93.53369141 164.02880859 C89.6773164 152.84087386 79.91819533 148.37374815 70.0625 142.875 C68.89353908 142.21251933 67.72524949 141.54885278 66.55761719 140.8840332 C64.27244821 139.58337256 61.98536313 138.28636977 59.69677734 136.99169922 C13.00797683 110.51912706 13.00797683 110.51912706 5.34375 86.96484375 C2.43511092 75.97840811 4.28895785 66.29141459 7.75 55.625 C11.36341641 43.4178779 11.48002322 29.23914905 5.3359375 17.86328125 C0.74423876 10.43553329 -4.95401398 4.95513669 -13.25 1.9453125 C-35.68166846 -3.04573373 -57.42564378 6.68798793 -71.6796875 24.05859375 Z " fill="#FF0077" transform="translate(384.375,190.75)"/>
<path d="M0 0 C9.95329707 8.40830768 16.59621422 19.96026939 18.3046875 32.9609375 C19.25152113 48.16490066 16.15899575 61.42413933 6.1171875 73.1484375 C-3.15475941 82.91080144 -14.41701664 89.33728361 -28.04296875 90.1640625 C-43.92106159 90.36441698 -56.76608968 86.81993816 -68.5703125 75.6484375 C-79.05635736 64.45952369 -83.06391441 51.7605001 -82.90625 36.65625 C-82.14488696 23.31829754 -76.51147537 11.95556884 -67.3671875 2.3203125 C-47.99575044 -14.78545941 -20.49924776 -15.50812656 0 0 Z " fill="#FF0077" transform="translate(434.6953125,94.0390625)"/>
<path d="M0 0 C8.64822802 6.87119486 15.44311132 18.01837448 17 29 C18.40895106 46.55709566 15.56638733 59.95954698 4.4140625 73.99609375 C-3.81286908 83.00558711 -15.56118495 88.6401856 -27.6484375 89.3125 C-44.13318085 89.87527929 -57.29779856 86.1831071 -69.75 74.8125 C-80.88341536 62.87619411 -83.80272194 49.59143924 -83.34375 33.85546875 C-82.66010765 21.18611097 -76.33281061 9.26446012 -67.0703125 0.625 C-46.64754218 -15.40494803 -20.73790664 -15.44661826 0 0 Z " fill="#FF0077" transform="translate(222,11)"/>
<path d="M0 0 C6.26874691 4.67966336 10.00170485 12.10752562 14.01953125 18.6484375 C15.35766726 20.80884506 16.69621392 22.96899832 18.03515625 25.12890625 C18.69708984 26.19931152 19.35902344 27.2697168 20.04101562 28.37255859 C22.75791708 32.75186586 25.51114162 37.10769053 28.26953125 41.4609375 C29.2293067 42.9803803 30.18894463 44.49990999 31.1484375 46.01953125 C33.06734193 49.05695938 34.99324012 52.08983676 36.921875 55.12109375 C37.8504346 56.58843145 38.77882764 58.05587458 39.70703125 59.5234375 C40.13798096 60.19697266 40.56893066 60.87050781 41.01293945 61.56445312 C43.95703125 66.23401327 43.95703125 66.23401327 43.95703125 68.4609375 C44.89160156 68.40558838 45.82617188 68.35023926 46.7890625 68.29321289 C85.23152249 66.0273147 85.23152249 66.0273147 102.95703125 65.4609375 C103.73530273 65.43225586 104.51357422 65.40357422 105.31542969 65.37402344 C107.40433678 65.30167637 109.49229481 65.2513874 111.58203125 65.2109375 C112.68804687 65.18515625 113.7940625 65.159375 114.93359375 65.1328125 C119.36341586 65.61356839 122.57715136 67.16205685 125.8203125 70.21484375 C126.53767578 71.11009766 126.53767578 71.11009766 127.26953125 72.0234375 C127.76066406 72.62285156 128.25179687 73.22226563 128.7578125 73.83984375 C132.15710146 78.43497378 131.46222706 83.98096628 130.95703125 89.4609375 C129.37056717 94.33241689 126.26557297 97.75557409 121.95703125 100.4609375 C117.22274866 102.0349396 112.9337207 102.75841107 107.95874023 102.96337891 C107.29745621 102.99293167 106.63617218 103.02248444 105.95484924 103.05293274 C103.78786707 103.14766377 101.62061497 103.23028052 99.453125 103.3125 C97.92722354 103.37624398 96.40134994 103.44065823 94.87550354 103.50570679 C91.68078 103.64017207 88.4858999 103.76908656 85.29077148 103.89355469 C81.23509614 104.05162318 77.17990746 104.21948274 73.12478542 104.39110756 C69.97179023 104.52410784 66.81866466 104.65375957 63.66548347 104.78226852 C62.1726364 104.84312238 60.6798109 104.90450853 59.18700981 104.96648026 C29.6516582 106.17987755 29.6516582 106.17987755 23.95703125 102.4609375 C18.59927948 97.14454894 14.62444282 91.09398951 10.76953125 84.6484375 C9.62841335 82.77294493 8.48646937 80.89795474 7.34375 79.0234375 C6.77575684 78.08757812 6.20776367 77.15171875 5.62255859 76.1875 C3.15375562 72.14592984 0.62100366 68.14616028 -1.91796875 64.1484375 C-6.62018945 56.72016538 -11.30875581 49.2834389 -15.98046875 41.8359375 C-16.92092041 40.34259888 -16.92092041 40.34259888 -17.88037109 38.8190918 C-19.61910944 36.04351903 -21.33867336 33.25777594 -23.04296875 30.4609375 C-23.54908691 29.63263428 -24.05520508 28.80433105 -24.57666016 27.95092773 C-28.12811166 21.89935012 -29.02471114 17.47494145 -28.04296875 10.4609375 C-26.05393389 4.49383293 -22.10548908 1.15338295 -16.66796875 -1.8515625 C-10.31663724 -3.51500647 -5.75863307 -2.8368845 0 0 Z " fill="#FF0077" transform="translate(137.04296875,114.5390625)"/>
<path d="M0 0 C0.125 2.375 0.125 2.375 0 5 C-2.21652218 7.21652218 -3.63479958 7.67494633 -6.5625 8.6875 C-21.11265737 14.42382104 -28.58526092 26.79507534 -34.69140625 40.5625 C-42.89675373 59.65115186 -50.13283904 79.12839579 -57.125 98.6875 C-57.41682159 99.50238892 -57.70864319 100.31727783 -58.00930786 101.15686035 C-60.83689143 109.0563968 -63.6480053 116.96076616 -66.38562012 124.89198303 C-67.36790986 127.72779534 -68.36555849 130.55804676 -69.36639404 133.38735962 C-69.82642505 134.70091855 -70.27892856 136.01714068 -70.72344971 137.33602905 C-71.32970141 139.13400386 -71.96295254 140.92280838 -72.59765625 142.7109375 C-72.94320557 143.71431152 -73.28875488 144.71768555 -73.64477539 145.75146484 C-75 148 -75 148 -77.52514648 148.95556641 C-78.34184814 148.97022949 -79.1585498 148.98489258 -80 149 C-80.66 148.34 -81.32 147.68 -82 147 C-81.72549104 140.16939927 -79.533436 134.19644668 -77.203125 127.8203125 C-76.81795212 126.7468457 -76.43277924 125.67337891 -76.03593445 124.56738281 C-74.78273811 121.08334682 -73.51702295 117.60402926 -72.25 114.125 C-71.37937352 111.71868316 -70.50901369 109.31226982 -69.63891602 106.90576172 C-53.03229022 61.07873741 -53.03229022 61.07873741 -43.5625 39 C-43.18536865 38.11586426 -42.8082373 37.23172852 -42.41967773 36.32080078 C-35.81094819 21.29577593 -26.31301561 7.36999567 -10.875 0.5625 C-6.90593374 -0.92589985 -4.14998238 -1.31052075 0 0 Z " fill="#FF0077" transform="translate(351,208)"/>
<path d="M0 0 C1.65 1.65 3.3 3.3 5 5 C4.55720703 5.46784912 4.11441406 5.93569824 3.65820312 6.41772461 C-7.85092475 18.5443142 -7.85092475 18.5443142 -19 31 C-10.52970527 30.50073466 -2.23034641 29.35039689 6.14355469 28.01635742 C6.97274414 27.88592041 7.80193359 27.7554834 8.65625 27.62109375 C9.39681641 27.5017749 10.13738281 27.38245605 10.90039062 27.25952148 C13 27 13 27 17 27 C17.495 29.97 17.495 29.97 18 33 C13.84174914 33.67717653 9.68320745 34.35253257 5.52441406 35.02636719 C4.11645976 35.25473597 2.70857922 35.48356007 1.30078125 35.71289062 C-0.06660725 35.93557961 -1.43411561 36.1575338 -2.80174255 36.37875366 C-4.1716093 36.6007476 -5.54112796 36.82489997 -6.91029358 37.05117798 C-10.25407468 37.59585752 -13.5738025 38.06387821 -16.94311523 38.43896484 C-25.99467418 39.39190024 -25.99467418 39.39190024 -32.8125 44.875 C-33.60269531 45.73867187 -34.39289063 46.60234375 -35.20703125 47.4921875 C-36.86351358 49.80909743 -37.82040769 51.17441428 -38 54 C-37.360625 54.86625 -36.72125 55.7325 -36.0625 56.625 C-33.28533011 61.16945982 -33.16932015 64.79553646 -34 70 C-36.32968931 74.83858548 -39.16141452 77.67031069 -44 80 C-49.16059216 80.65323951 -53.42679191 80.63433646 -58 78 C-58 77.34 -58 76.68 -58 76 C-55.27608682 74.25669557 -53.93338231 74.00246732 -50.625 74.125 C-46.1235816 73.96977868 -44.28870886 73.05380109 -41 70 C-39.75161619 66.59471004 -39.75161619 66.59471004 -40 63 C-40.99335201 61.32936253 -41.99431758 59.66324401 -43 58 C-44.05642548 53.92521602 -44.99644003 49.86418855 -42.94140625 46.01953125 C-41.5625 44.375 -41.5625 44.375 -39 42 C-40.175625 42.12375 -41.35125 42.2475 -42.5625 42.375 C-47.10699027 42.375 -49.25883837 40.80191657 -52.47265625 37.7265625 C-54.59047379 35.33250789 -56.24350398 32.66502844 -58 30 C-60.65100247 27.96756477 -61.69821521 27.96920563 -65.0625 28.3125 C-68.03616818 28.96110214 -68.03616818 28.96110214 -71 30 C-71.33 30.99 -71.66 31.98 -72 33 C-73.98 33 -75.96 33 -78 33 C-76.76141604 28.04566415 -75.27241667 25.81354269 -71 23 C-66.92952653 21.64317551 -63.25608283 21.47527746 -59 22 C-54.6518429 24.2150989 -51.61809838 26.87146025 -49 31 C-48.8984375 33.66015625 -48.8984375 33.66015625 -49 36 C-48.04738281 35.855625 -47.09476562 35.71125 -46.11328125 35.5625 C-44.85902344 35.376875 -43.60476563 35.19125 -42.3125 35 C-40.45044922 34.7215625 -40.45044922 34.7215625 -38.55078125 34.4375 C-35.64113629 34.07899589 -32.92299978 33.91057744 -30 34 C-29.75636719 33.42765625 -29.51273437 32.8553125 -29.26171875 32.265625 C-27.77482702 29.59566462 -26.01916092 27.86170993 -23.8125 25.75 C-20.38103347 22.39478828 -17.16156075 18.96857319 -14.0390625 15.328125 C-9.47437744 10.11633899 -4.71334605 5.07710182 0 0 Z " fill="#FF0077" transform="translate(315,143)"/>
</svg>
