<?xml version="1.0" encoding="UTF-8"?>
<svg version="1.1" xmlns="http://www.w3.org/2000/svg" width="512" height="512">
<path d="M0 0 C1.24702698 -0.00570007 2.49405396 -0.01140015 3.77886963 -0.01727295 C6.41458295 -0.02668871 9.05030786 -0.03324326 11.68603516 -0.03710938 C15.6489295 -0.04360375 19.61144595 -0.07777158 23.57421875 -0.109375 C58.2897563 -0.25499821 94.40226105 4.26785002 120.7734375 28.99609375 C136.49598251 44.91587499 138.42493123 64.35283831 138.30957031 85.55249023 C138.31036311 87.44990127 138.31246625 89.34731213 138.31576538 91.24472046 C138.32085817 96.35432678 138.30744573 101.46372845 138.29023838 106.57330203 C138.27508592 111.9482817 138.27637361 117.32325999 138.27557373 122.69825745 C138.27189227 131.72180625 138.25698376 140.7452785 138.234375 149.76879883 C138.20551541 161.30976798 138.19514949 172.85067557 138.1906929 184.3916769 C138.18669531 194.36569943 138.17419725 204.33970887 138.16034603 214.3137219 C138.15627177 217.49472031 138.15333367 220.67571828 138.15055084 223.85671806 C138.14561029 228.87767049 138.13532871 233.89858688 138.12111282 238.91952133 C138.11664034 240.74951285 138.11376336 242.57950917 138.11270523 244.40950584 C138.10494461 255.38328629 137.78158175 266.25787115 136.953125 277.203125 C135.98375 276.378125 135.014375 275.553125 134.015625 274.703125 C133.36335937 274.14882813 132.71109375 273.59453125 132.0390625 273.0234375 C130.70574011 271.85990148 129.39540019 270.66913316 128.1171875 269.4453125 C115.58619574 257.6077353 100.03880726 249.30207784 84.953125 241.203125 C82.255227 239.75186947 79.55896778 238.2978577 76.86669922 236.83618164 C75.14009454 235.89913065 73.41013138 234.96823139 71.67626953 234.04467773 C59.99391551 227.71048395 59.99391551 227.71048395 57.578125 221.890625 C57.371875 221.00375 57.165625 220.116875 56.953125 219.203125 C57.489375 219.0071875 58.025625 218.81125 58.578125 218.609375 C80.13263808 210.38462659 98.454627 199.68722612 108.640625 178.20703125 C110.65718935 173.59173964 111.11283398 169.86846445 111.14257812 164.90527344 C111.15087143 164.16505447 111.15916473 163.42483551 111.16770935 162.66218567 C111.18510229 161.05474732 111.20027118 159.44728373 111.21348572 157.8398056 C111.23454442 155.29200208 111.2615681 152.74432363 111.29016113 150.19659424 C111.34984353 144.78215297 111.40195524 139.3676525 111.453125 133.953125 C111.51246819 127.6915146 111.57493803 121.42996498 111.64500427 115.16846466 C111.67144851 112.66536928 111.69234617 110.16226742 111.7130127 107.65911865 C111.72963062 106.11226109 111.74650375 104.56540624 111.76367188 103.01855469 C111.7699485 101.98336449 111.7699485 101.98336449 111.77635193 100.92726135 C111.83246298 96.53464987 112.32270139 92.61609025 112.953125 88.203125 C108.003125 88.203125 103.053125 88.203125 97.953125 88.203125 C97.97407227 90.54390137 97.99501953 92.88467773 98.01660156 95.29638672 C98.08309624 103.05950547 98.12714976 110.82263731 98.16037369 118.58596611 C98.18118396 123.28956126 98.20938066 127.99286283 98.25488281 132.69628906 C98.29857598 137.24154644 98.32231136 141.78652272 98.33263397 146.33197403 C98.33998345 148.05980983 98.35433464 149.7876315 98.37604523 151.51534653 C98.56358919 167.06880165 95.68178471 176.69898519 85.0625 188.26171875 C70.21532091 202.79722042 47.08962891 208.2823726 26.89453125 208.40625 C26.14711166 208.41195007 25.39969208 208.41765015 24.62962341 208.42352295 C23.05395899 208.4329088 21.4782755 208.43948116 19.90258789 208.44335938 C17.55252418 208.45297404 15.20337159 208.48402034 12.85351562 208.515625 C-11.28080142 208.68495361 -35.59909673 203.41506434 -53.3671875 186.09765625 C-57.01540544 182.1569427 -59.67155704 178.00070396 -62.046875 173.203125 C-62.376875 172.543125 -62.706875 171.883125 -63.046875 171.203125 C-63.16372114 169.25390526 -63.21660055 167.30072613 -63.23974609 165.34814453 C-63.25580902 164.11991974 -63.27187195 162.89169495 -63.28842163 161.62625122 C-63.29990743 160.279487 -63.31051625 158.93271507 -63.3203125 157.5859375 C-63.32563618 156.90874538 -63.33095985 156.23155327 -63.33644485 155.53384018 C-63.36316547 151.95014325 -63.38254463 148.36648104 -63.39697266 144.78271484 C-63.41362782 141.0812063 -63.45841381 137.3805869 -63.5093441 133.67941475 C-63.54299626 130.83294653 -63.55454758 127.98669006 -63.56019974 125.14004135 C-63.56691693 123.77564566 -63.58215162 122.41126413 -63.60609055 121.04706192 C-63.63769433 119.13725045 -63.63478068 117.22696238 -63.63037109 115.31689453 C-63.63845795 114.23038605 -63.6465448 113.14387756 -63.65487671 112.02444458 C-62.84523563 108.26745476 -61.13803378 107.33593605 -58.046875 105.203125 C-56.30764584 101.72466669 -56.57830066 98.00648812 -57.046875 94.203125 C-57.94067618 92.04473176 -59.01477273 90.07419151 -60.13671875 88.02734375 C-61.58370352 85.12716397 -61.6220047 83.39829002 -61.046875 80.203125 C-56.81077939 69.83892271 -51.12959374 62.86295744 -40.8125 58.19140625 C-35.28876956 56.18366735 -29.89185613 55.61474339 -24.046875 55.203125 C-23.716875 50.253125 -23.386875 45.303125 -23.046875 40.203125 C-24.036875 40.698125 -24.036875 40.698125 -25.046875 41.203125 C-27.18959647 41.497567 -29.33621983 41.76386968 -31.484375 42.015625 C-45.15457391 43.93057106 -57.20517642 49.27715504 -66.046875 60.203125 C-67.88942094 63.12321047 -69.52287016 66.10595387 -71.046875 69.203125 C-74.70190747 68.61708604 -74.70190747 68.61708604 -76.2578125 66.75 C-76.64195312 66.15703125 -77.02609375 65.5640625 -77.421875 64.953125 C-81.7416621 59.4971439 -88.6259951 58.11179752 -95.046875 56.203125 C-95.82486296 47.02286709 -93.46808779 38.8796497 -87.9921875 31.39453125 C-85.77400371 28.87317009 -83.47174804 26.52524918 -81.046875 24.203125 C-80.43070313 23.56761719 -79.81453125 22.93210937 -79.1796875 22.27734375 C-59.73194509 3.45560163 -25.72438832 0.09278845 0 0 Z M0.828125 40.203125 C-0.08195312 40.945625 -0.99203125 41.688125 -1.9296875 42.453125 C-2.97769531 43.319375 -2.97769531 43.319375 -4.046875 44.203125 C-2.60519429 48.64219836 -0.15910505 51.70617766 2.890625 55.140625 C11.00144934 64.49448755 18.58937305 74.25210885 25.953125 84.203125 C30.15545934 81.78359917 34.03240149 79.04757147 37.953125 76.203125 C36.51144429 71.76405164 34.06535505 68.70007234 31.015625 65.265625 C26.93731199 60.56228318 22.97593401 55.79454052 19.140625 50.890625 C18.68123535 50.30466553 18.2218457 49.71870605 17.74853516 49.11499023 C15.23566601 45.89414832 12.79222975 42.6332461 10.390625 39.328125 C9.58625 38.296875 8.781875 37.265625 7.953125 36.203125 C4.78767298 36.203125 3.2254275 38.23610756 0.828125 40.203125 Z M48.828125 40.203125 C47.91804687 40.945625 47.00796875 41.688125 46.0703125 42.453125 C45.02230469 43.319375 45.02230469 43.319375 43.953125 44.203125 C45.39480571 48.64219836 47.84089495 51.70617766 50.890625 55.140625 C59.00144934 64.49448755 66.58937305 74.25210885 73.953125 84.203125 C78.15545934 81.78359917 82.03240149 79.04757147 85.953125 76.203125 C84.51144429 71.76405164 82.06535505 68.70007234 79.015625 65.265625 C74.93731199 60.56228318 70.97593401 55.79454052 67.140625 50.890625 C66.68123535 50.30466553 66.2218457 49.71870605 65.74853516 49.11499023 C63.23566601 45.89414832 60.79222975 42.6332461 58.390625 39.328125 C57.58625 38.296875 56.781875 37.265625 55.953125 36.203125 C52.78767298 36.203125 51.2254275 38.23610756 48.828125 40.203125 Z M-16.109375 100.140625 C-23.78796306 103.54928731 -30.0239244 103.78193055 -38.046875 101.203125 C-39.366875 100.543125 -40.686875 99.883125 -42.046875 99.203125 C-45.346875 102.503125 -48.646875 105.803125 -52.046875 109.203125 C-44.8579469 116.3920531 -37.23131297 118.84020516 -27.046875 119.203125 C-18.51227962 118.32213451 -11.18040118 115.97768088 -4.046875 111.203125 C-5.67066012 106.47938646 -8.15680518 102.26130666 -11.046875 98.203125 C-12.86665624 98.203125 -14.49839071 99.36414715 -16.109375 100.140625 Z M71.890625 100.140625 C64.21203694 103.54928731 57.9760756 103.78193055 49.953125 101.203125 C48.633125 100.543125 47.313125 99.883125 45.953125 99.203125 C42.653125 102.503125 39.353125 105.803125 35.953125 109.203125 C43.1420531 116.3920531 50.76868703 118.84020516 60.953125 119.203125 C69.48772038 118.32213451 76.81959882 115.97768088 83.953125 111.203125 C82.32933988 106.47938646 79.84319482 102.26130666 76.953125 98.203125 C75.13334376 98.203125 73.50160929 99.36414715 71.890625 100.140625 Z M-47.046875 128.203125 C-47.046875 143.713125 -47.046875 159.223125 -47.046875 175.203125 C-41.766875 175.203125 -36.486875 175.203125 -31.046875 175.203125 C-31.046875 159.693125 -31.046875 144.183125 -31.046875 128.203125 C-36.326875 128.203125 -41.606875 128.203125 -47.046875 128.203125 Z M-15.046875 128.203125 C-15.046875 148.993125 -15.046875 169.783125 -15.046875 191.203125 C-9.766875 191.203125 -4.486875 191.203125 0.953125 191.203125 C0.953125 189.553125 0.953125 187.903125 0.953125 186.203125 C2.314375 186.698125 2.314375 186.698125 3.703125 187.203125 C19.02767692 191.42425906 34.77977262 185.57528653 48.0390625 178.10546875 C51.13458894 176.35722721 51.13458894 176.35722721 52.953125 173.203125 C50.313125 169.903125 47.673125 166.603125 44.953125 163.203125 C41.17481149 164.14770338 38.3043656 165.42763415 34.828125 167.140625 C23.32451398 172.51241201 14.30817357 173.29188714 1.953125 170.203125 C1.458125 149.413125 1.458125 149.413125 0.953125 128.203125 C-4.326875 128.203125 -9.606875 128.203125 -15.046875 128.203125 Z " fill="#000000" transform="translate(335.046875,23.796875)"/>
<path d="M0 0 C0.029729 0.86782104 0.029729 0.86782104 0.06005859 1.75317383 C-0.42721622 21.84086231 -0.42721622 21.84086231 8 39 C15.79574079 44.47939481 24.60954164 43.58126598 33.74609375 43.53125 C35.48430091 43.53394862 37.22250659 43.53783411 38.96070862 43.54284668 C42.59447679 43.54872594 46.22785019 43.54023089 49.86157227 43.52148438 C54.49948588 43.49871263 59.13647252 43.51181633 63.77435207 43.53577423 C67.36138276 43.55028955 70.94819692 43.5455998 74.53523445 43.53526306 C76.24431533 43.53261069 77.95341642 43.53581261 79.66247368 43.54518127 C92.43174816 43.82645401 92.43174816 43.82645401 104 39 C111.77971104 31.22028896 111.12901226 20.30421674 111.5625 10 C111.62727539 8.55173828 111.62727539 8.55173828 111.69335938 7.07421875 C111.79841713 4.71625575 111.90056914 2.35820584 112 0 C143.61829626 15.24824537 172.76605117 34.32852271 184.96826172 68.85644531 C188.41596622 79.14571744 192 90.06015036 192 101 C181.11 101 170.22 101 159 101 C158.01 93.08 158.01 93.08 157 85 C152.4703701 68.66097784 144.82128259 55.74867375 130 47 C129.731875 47.845625 129.46375 48.69125 129.1875 49.5625 C127.9521405 53.13854067 126.523012 56.53860908 125 60 C125.64066406 60.48726563 126.28132812 60.97453125 126.94140625 61.4765625 C136.89838862 69.63802346 142.77210016 80.37359707 144.26611328 93.30297852 C146.85866965 129.72514571 133.32947599 168.76616579 124.2578125 203.68359375 C124.04655731 204.50457047 123.83530212 205.32554718 123.61764526 206.17140198 C122.11789374 211.88210626 122.11789374 211.88210626 121 213 C119.31708304 213.09616807 117.63010439 213.12187691 115.94444275 213.12025452 C114.30162071 213.12231651 114.30162071 213.12231651 112.62561035 213.12442017 C111.41360962 213.12082489 110.20160889 213.11722961 108.95288086 213.11352539 C107.05071556 213.11374443 107.05071556 213.11374443 105.11012268 213.1139679 C101.62267578 213.11425585 98.13526299 213.10835945 94.64782405 213.10139394 C91.00696277 213.09516007 87.36610078 213.09455658 83.72523499 213.09336853 C76.82623028 213.09025531 69.92724135 213.08204205 63.0282436 213.07201904 C55.17589315 213.06085761 47.32354197 213.05534738 39.47118556 213.05032361 C23.31411447 213.03985943 7.15705924 213.02226017 -9 213 C-12.20120241 203.55878219 -12.20120241 203.55878219 -13.33105469 199.12744141 C-13.54870987 198.27889587 -13.76636505 197.43035034 -13.99061584 196.55609131 C-14.32783913 195.21734955 -14.32783913 195.21734955 -14.671875 193.8515625 C-14.91534164 192.89268127 -15.15880829 191.93380005 -15.40965271 190.94586182 C-16.1950665 187.84021345 -16.97346319 184.73287918 -17.75 181.625 C-18.14851669 180.03561615 -18.14851669 180.03561615 -18.55508423 178.41412354 C-23.31071559 159.3905223 -27.51503692 140.29740024 -31 121 C-31.2774707 119.47862427 -31.2774707 119.47862427 -31.56054688 117.92651367 C-34.04588973 101.37551103 -32.90884649 84.61903652 -23.79296875 70.30078125 C-20.68806738 66.31649605 -16.93989614 63.13440626 -13 60 C-13.3609375 59.22914063 -13.721875 58.45828125 -14.09375 57.6640625 C-14.78984375 56.15972656 -14.78984375 56.15972656 -15.5 54.625 C-15.9640625 53.62726563 -16.428125 52.62953125 -16.90625 51.6015625 C-18 49 -18 49 -18 47 C-33.08401557 56.92661319 -41.16195069 69.2130592 -45.45703125 86.7578125 C-46.24574549 91.46740113 -46.56767598 96.24443576 -47 101 C-57.89 101 -68.78 101 -80 101 C-77.11183341 72.11833409 -66.18925787 45.75574564 -44.04296875 26.41796875 C-10.96850394 0 -10.96850394 0 0 0 Z " fill="#000000" transform="translate(296,275)"/>
<path d="M0 0 C4.09424948 0.12571182 8.15231527 0.03758179 12.24477196 -0.10637474 C26.88744762 -0.54350331 39.8996286 -0.25260976 51.25629902 9.90931988 C60.623315 18.86367194 69.52261857 28.67929546 70.05327415 42.26044464 C70.1046103 44.97366095 70.11358142 47.68449312 70.11230469 50.39819336 C70.1156633 51.42663864 70.11902191 52.45508392 70.1224823 53.51469421 C70.13196526 56.9078391 70.13393417 60.30093449 70.13500977 63.6940918 C70.13822451 66.06052673 70.14158875 68.42696147 70.14509583 70.793396 C70.15108068 75.75297506 70.15293642 80.71253672 70.15234375 85.67211914 C70.15224224 92.0114001 70.16588605 98.35056877 70.18311596 104.68982315 C70.19426324 109.57817085 70.19626211 114.46649166 70.19573402 119.35485077 C70.19691034 121.69110246 70.20131251 124.02735493 70.20906639 126.36359406 C70.21892001 129.63952881 70.21596687 132.91522306 70.20996094 136.19116211 C70.21558044 137.1463121 70.22119995 138.1014621 70.22698975 139.08555603 C70.18132888 148.94156091 69.39131513 157.67467926 62.10375977 164.90112305 C55.58810527 170.87687397 50.78702453 172.35350436 42.08105469 172.34399414 C41.19584641 172.35071136 40.31063812 172.35742859 39.39860535 172.36434937 C36.47734943 172.38331938 33.55632342 172.38725317 30.63500977 172.3894043 C28.59865729 172.39583329 26.56230574 172.40256173 24.5259552 172.40957642 C20.25816711 172.42154696 15.99045994 172.4252575 11.72265625 172.42407227 C6.26521012 172.42386918 0.80828531 172.45116194 -4.64903736 172.48561668 C-8.85534529 172.50790131 -13.06152811 172.51190931 -17.26788902 172.51085281 C-19.27925092 172.51320677 -21.29061638 172.52201868 -23.30191994 172.53751755 C-26.12124293 172.55720743 -28.93944639 172.55132752 -31.75878906 172.53930664 C-32.58243958 172.55054565 -33.40609009 172.56178467 -34.25469971 172.57336426 C-41.55948907 172.49458577 -47.67437742 170.01270202 -52.84545898 164.7409668 C-53.65950195 163.94239258 -53.65950195 163.94239258 -54.48999023 163.12768555 C-59.40113096 156.52562042 -59.47007594 150.33459899 -59.43701172 142.37011719 C-59.44387497 141.21151688 -59.45073822 140.05291656 -59.45780945 138.85920715 C-59.47606999 135.03972017 -59.47224084 131.22064421 -59.46655273 127.40112305 C-59.46996115 125.41283315 -59.47337771 123.42454306 -59.47790581 121.4362554 C-59.49192687 115.18922933 -59.49041003 108.94234009 -59.47900391 102.6953125 C-59.46752505 96.26669084 -59.48159953 89.83848648 -59.50840038 83.4099198 C-59.53060496 77.87506248 -59.53718411 72.3403357 -59.53132397 66.80543703 C-59.52796446 63.50646117 -59.53202596 60.20781071 -59.547575 56.90886116 C-59.5624817 53.22766357 -59.55180871 49.54738027 -59.53466797 45.86621094 C-59.54433594 44.78388184 -59.55400391 43.70155273 -59.56396484 42.58642578 C-59.43373225 29.20340922 -51.6597562 20.34541056 -42.57969666 11.10215759 C-30.34352237 -0.56898337 -16.12914253 -0.50252356 0 0 Z M-35.03295898 60.0534668 C-35.03295898 75.5634668 -35.03295898 91.0734668 -35.03295898 107.0534668 C-8.63295898 107.0534668 17.76704102 107.0534668 44.96704102 107.0534668 C44.96704102 91.5434668 44.96704102 76.0334668 44.96704102 60.0534668 C18.56704102 60.0534668 -7.83295898 60.0534668 -35.03295898 60.0534668 Z " fill="#000000" transform="translate(83.032958984375,315.946533203125)"/>
<path d="M0 0 C0.00364563 0.62481262 0.00729126 1.24962524 0.01104736 1.89337158 C0.05314457 8.44848662 0.12267756 15.00291912 0.20751953 21.55761719 C0.23559187 23.99765161 0.25687407 26.43777465 0.27099609 28.87792969 C0.29261622 32.40345179 0.33936501 35.92792364 0.390625 39.453125 C0.39185364 40.5286261 0.39308228 41.6041272 0.39434814 42.71221924 C0.69280974 58.45629713 7.45562683 71.03642784 18.109375 82.328125 C28.72181054 92.13745731 42.16458422 98.23942555 56 102 C55.48786342 106.48119511 54.04671314 108.70718725 51 112 C48.62963107 113.740294 46.12182163 115.18140162 43.5625 116.625 C42.82314209 117.05248535 42.08378418 117.4799707 41.32202148 117.92041016 C35.49293227 121.25252776 29.53809093 124.31649237 23.5625 127.375 C10.7640841 133.94833207 -1.39950015 141.66625013 -12.46875 150.890625 C-14 152 -14 152 -16 152 C-16 102.5 -16 53 -16 2 C-5 0 -5 0 0 0 Z " fill="#000000" transform="translate(256,140)"/>
<path d="M0 0 C11.22 0 22.44 0 34 0 C34 32.01 34 64.02 34 97 C15.85 97 -2.3 97 -21 97 C-19.80011082 90.40060951 -18.60067236 84.00161142 -16.93359375 77.5390625 C-16.52979978 75.93757895 -16.12667264 74.33592716 -15.72412109 72.73413086 C-15.51422546 71.90203094 -15.30432983 71.06993103 -15.08807373 70.21261597 C-9.2432179 46.96507065 -4.52957643 23.53410364 0 0 Z " fill="#000000" transform="translate(454,391)"/>
<path d="M0 0 C11.22 0 22.44 0 34 0 C34.51046875 2.67996094 35.0209375 5.35992187 35.546875 8.12109375 C40.11039991 31.78684308 45.30368231 55.21822316 51.18847656 78.59155273 C51.442155 79.6020015 51.69583344 80.61245026 51.9571991 81.65351868 C52.4344666 83.54956519 52.91531883 85.44471423 53.40034485 87.33879089 C53.61184677 88.17590103 53.82334869 89.01301117 54.04125977 89.87548828 C54.22729263 90.60357697 54.4133255 91.33166565 54.60499573 92.08181763 C55 94 55 94 55 97 C36.85 97 18.7 97 0 97 C0 64.99 0 32.98 0 0 Z " fill="#000000" transform="translate(216,391)"/>
<path d="M0 0 C16.5 0 33 0 50 0 C52.33333333 4.66666667 54.66666667 9.33333333 57 14 C58.88316159 15.10836423 58.88316159 15.10836423 61 16 C63.10400391 17.03881836 63.10400391 17.03881836 65 19 C65.38040878 21.9012382 65.51382855 24.41783221 65.4609375 27.31640625 C65.46002106 28.12867172 65.45910461 28.94093719 65.4581604 29.77781677 C65.45212206 31.49345754 65.4363689 33.20908765 65.41162109 34.92456055 C65.37508718 37.55621997 65.37060185 40.18647274 65.37109375 42.81835938 C65.36126361 44.48438721 65.34960706 46.15040549 65.3359375 47.81640625 C65.33371185 48.60600235 65.33148621 49.39559845 65.32919312 50.2091217 C65.23215606 55.76784394 65.23215606 55.76784394 63 58 C60.57169939 58.19815184 58.25745981 58.27283267 55.828125 58.25878906 C55.08977417 58.2622937 54.35142334 58.26579834 53.59069824 58.26940918 C51.14370392 58.27823049 48.6969974 58.27237604 46.25 58.265625 C44.55371037 58.26697154 42.85742112 58.26891197 41.16113281 58.27142334 C37.6034783 58.27437514 34.04592412 58.27007519 30.48828125 58.26074219 C25.92148859 58.24934759 21.354931 58.25590677 16.78814697 58.26788712 C13.28464986 58.27510422 9.78120874 58.27281848 6.27770996 58.26763153 C4.59354627 58.26629462 2.90937754 58.2679442 1.22521973 58.27259064 C-1.12603274 58.27765347 -3.47690123 58.26994933 -5.828125 58.25878906 C-6.52844849 58.26283752 -7.22877197 58.26688599 -7.95031738 58.27105713 C-12.77147085 58.22852915 -12.77147085 58.22852915 -15 56 C-15.24895172 53.26209684 -15.37649325 50.62904644 -15.40625 47.88671875 C-15.41765015 47.08015335 -15.42905029 46.27358795 -15.4407959 45.44258118 C-15.45970346 43.73366549 -15.47276692 42.02467675 -15.48046875 40.31567383 C-15.49985367 37.70719104 -15.56185978 35.10188089 -15.625 32.49414062 C-15.63806359 30.83335204 -15.64856316 29.17254092 -15.65625 27.51171875 C-15.6809436 26.73446945 -15.70563721 25.95722015 -15.7310791 25.15641785 C-15.70666637 22.1712856 -15.59884586 19.74924101 -13.69018555 17.36123657 C-9.81511483 14 -9.81511483 14 -7 14 C-6.34 12.68 -5.68 11.36 -5 10 C-3.35 6.7 -1.7 3.4 0 0 Z " fill="#000000" transform="translate(327,246)"/>
<path d="M0 0 C0.94212341 -0.0049649 1.88424683 -0.00992981 2.85491943 -0.01504517 C5.96611263 -0.02962809 9.07725483 -0.03646257 12.18847656 -0.04199219 C14.35695395 -0.04774708 16.52543132 -0.05350477 18.69390869 -0.05926514 C23.23995195 -0.0697643 27.78597758 -0.07561398 32.33203125 -0.07910156 C38.1435036 -0.08458217 43.95474118 -0.1086057 49.76613998 -0.13707352 C54.24612091 -0.15574191 58.72604578 -0.16090775 63.20606232 -0.16243744 C65.34777357 -0.16545529 67.48948403 -0.17345438 69.63115692 -0.18662262 C72.63449213 -0.20376991 75.63726005 -0.20178156 78.640625 -0.1953125 C79.51678467 -0.20452728 80.39294434 -0.21374207 81.2956543 -0.22323608 C87.45103274 -0.18192131 94.41476117 0.34091465 99.20824814 4.61310959 C103.65239315 9.8342358 103.92830557 13.50173816 103.85644531 20.17675781 C103.36479322 25.46721129 100.99459899 27.95481229 97.08691406 31.28503418 C92.312695 33.83845055 88.41238755 33.72282577 83.07910156 33.67871094 C82.03447754 33.68572021 80.98985352 33.69272949 79.91357422 33.69995117 C76.46847776 33.71752303 73.02420605 33.70591063 69.57910156 33.69238281 C67.18066246 33.69507794 64.78222443 33.69896054 62.38378906 33.70397949 C57.36024561 33.70987347 52.33698689 33.7013144 47.31347656 33.68261719 C40.87721084 33.65982818 34.44161234 33.67295173 28.00537109 33.69690704 C23.05365988 33.71136742 18.10210662 33.70675782 13.15039062 33.69639587 C10.77734295 33.69372928 8.40428088 33.69699596 6.03125 33.70631409 C2.71348128 33.71648312 -0.60320988 33.70097215 -3.92089844 33.67871094 C-5.38922119 33.69085632 -5.38922119 33.69085632 -6.88720703 33.70324707 C-12.58127728 33.63253837 -15.92070437 32.99630506 -20.42089844 29.16113281 C-24.04923507 25.34183109 -24.73090302 22.27834275 -24.92089844 17.16113281 C-24.73090302 12.04392287 -24.04923507 8.98043453 -20.42089844 5.16113281 C-13.83851086 -0.02074677 -8.02620948 0.01014657 0 0 Z " fill="#000000" transform="translate(48.4208984375,270.8388671875)"/>
<path d="M0 0 C5.94719722 0.67338569 11.29395635 2.75735106 16.87890625 4.796875 C17.94777069 5.18227448 19.01663513 5.56767395 20.1178894 5.9647522 C23.60119707 7.22166245 27.08191818 8.48556302 30.5625 9.75 C35.36632082 11.48938146 40.17122872 13.22574063 44.9765625 14.9609375 C46.17149826 15.39286407 47.36643402 15.82479065 48.59757996 16.26980591 C55.88650228 18.89814422 63.19206378 21.46921087 70.5234375 23.9765625 C71.38486862 24.27256348 72.24629974 24.56856445 73.13383484 24.87353516 C77.94166619 26.5255149 77.94166619 26.5255149 82.75857544 28.15075684 C84.90423874 28.86797052 87.04413471 29.60046324 89.18359375 30.3359375 C90.36493896 30.73345215 91.54628418 31.1309668 92.76342773 31.54052734 C97.72211553 33.77655628 101.51354187 37.04737186 104.88671875 41.33984375 C105.35013672 41.92830078 105.81355469 42.51675781 106.29101562 43.12304688 C106.75185547 43.72181641 107.21269531 44.32058594 107.6875 44.9375 C108.39616211 45.82985352 108.39616211 45.82985352 109.11914062 46.74023438 C111.90798317 50.31918379 114.10474644 53.84819037 116 58 C110.97597153 60.84179244 106.15488928 62.06377518 100.5625 63.1875 C99.74201172 63.36474609 98.92152344 63.54199219 98.07617188 63.72460938 C88.60564532 65.68220425 81.89853303 64.61522851 72.875 61.3359375 C71.79055099 60.95181198 70.70610199 60.56768646 69.58879089 60.17192078 C66.05518365 58.91722288 62.52749105 57.64678165 59 56.375 C56.57098729 55.50633063 54.14170476 54.63841538 51.7121582 53.77124023 C48.0326337 52.45695722 44.35371572 51.1410949 40.67658997 49.82011414 C33.06476199 47.08609593 25.43703326 44.40409342 17.79296875 41.76171875 C15.10187776 40.82409895 12.41145241 39.88460534 9.72143555 38.94390869 C8.03672649 38.35789647 6.35019648 37.77709241 4.66186523 37.20159912 C2.34595911 36.41080332 0.03778398 35.60061356 -2.26953125 34.78515625 C-2.94603226 34.5598674 -3.62253326 34.33457855 -4.3195343 34.10246277 C-8.68558542 32.52842971 -8.68558542 32.52842971 -10.05126953 30.2331543 C-9.97764438 27.02625301 -9.01775612 24.49267094 -7.91015625 21.484375 C-7.68678085 20.86854553 -7.46340546 20.25271606 -7.23326111 19.6182251 C-6.51972759 17.65829803 -5.79138364 15.70426368 -5.0625 13.75 C-4.57518403 12.41963227 -4.0888444 11.08890646 -3.60351562 9.7578125 C-2.41363144 6.50098203 -1.21040601 3.24926768 0 0 Z " fill="#000000" transform="translate(148,63)"/>
<path d="M0 0 C4.42106411 4.83553887 4.27490262 9.77842697 4.1953125 15.98828125 C4.1924826 16.82465622 4.18965271 17.66103119 4.18673706 18.52275085 C4.1755832 21.18198226 4.15048763 23.84087118 4.125 26.5 C4.11496399 28.30793783 4.10583923 30.11588096 4.09765625 31.92382812 C4.07736501 36.34528872 4.03820776 40.76601305 4 45.1875 C-6.56 45.1875 -17.12 45.1875 -28 45.1875 C-28.06902853 39.88508639 -28.12871364 34.5842439 -28.16479492 29.28173828 C-28.1798424 27.47960108 -28.2002853 25.67750027 -28.22631836 23.87548828 C-28.26288021 21.27887979 -28.27976681 18.68275725 -28.29296875 16.0859375 C-28.31619453 14.88558365 -28.31619453 14.88558365 -28.33988953 13.66098022 C-28.34135058 8.75840539 -27.71860915 5.43299922 -25 1.1875 C-17.38286879 -5.07547455 -8.34895556 -5.04416065 0 0 Z " fill="#000000" transform="translate(100,210.8125)"/>
<path d="M0 0 C1.41629698 0.2950382 2.83144101 0.59561362 4.24609375 0.8984375 C5.42836548 1.14859619 5.42836548 1.14859619 6.63452148 1.40380859 C9.9624565 2.24257599 12.89551145 3.54683515 16 5 C14.63018235 11.80786791 12.68096507 18.1817674 10.33203125 24.7109375 C9.9741301 25.71855133 9.61622894 26.72616516 9.2474823 27.76431274 C8.10743913 30.96966407 6.95998297 34.1723056 5.8125 37.375 C5.06138588 39.48551233 4.31073114 41.59618822 3.56054688 43.70703125 C-0.87580661 56.16922086 -5.39662296 68.59857772 -10 81 C-14.33719777 80.42867256 -17.97836086 79.82570482 -21.9375 77.9375 C-22.70964844 77.57527344 -23.48179688 77.21304688 -24.27734375 76.83984375 C-25.13005859 76.42412109 -25.13005859 76.42412109 -26 76 C-25.31401687 70.44739818 -23.56503782 65.44401816 -21.71875 60.1953125 C-21.38891113 59.2463208 -21.05907227 58.2973291 -20.71923828 57.31958008 C-19.65136132 54.25287575 -18.57603401 51.18885077 -17.5 48.125 C-16.7687845 46.03242276 -16.03766478 43.93981206 -15.30664062 41.84716797 C-10.39635015 27.82357893 -5.36409115 13.85723546 0 0 Z " fill="#000000" transform="translate(126,30)"/>
<path d="M0 0 C1.41629698 0.2950382 2.83144101 0.59561362 4.24609375 0.8984375 C5.42836548 1.14859619 5.42836548 1.14859619 6.63452148 1.40380859 C9.9624565 2.24257599 12.89551145 3.54683515 16 5 C14.6393319 11.75523606 12.71290027 18.08575595 10.375 24.5625 C10.05015625 25.47580078 9.7253125 26.38910156 9.390625 27.33007812 C8.59846371 29.55511941 7.8015341 31.77832175 7 34 C1.08076422 32.75493866 -4.37922114 31.24831154 -10 29 C-7.24809142 19.12550449 -3.59872163 9.58969974 0 0 Z " fill="#000000" transform="translate(87,44)"/>
</svg>
