<svg width="28" height="28" viewBox="0 0 28 28" xmlns="http://www.w3.org/2000/svg">
  <path fill-rule="evenodd" clip-rule="evenodd" d="M7 12.6087V8.96C7 8.5925 7.30625 8.25125 7.67375 8.25125H9.87875V6.43125C9.87875 2.19625 12.0487 0.035 16.3712 0C17.815 0 19.1887 0.18375 20.475 0.56C20.8775 0.6825 21.0262 0.9275 21 1.33L20.51 4.8825C20.475 5.04 20.3875 5.18875 20.23 5.34625C20.0462 5.4425 19.8625 5.50375 19.6787 5.46875C18.9087 5.25 18.1212 5.1625 17.2287 5.1625C16.0037 5.1625 15.82 5.4075 15.82 6.67625V8.25125H19.775C20.1425 8.25125 20.4837 8.61875 20.4837 9.02125L20.1775 12.67C20.1775 13.0375 19.8712 13.2912 19.5037 13.2912H15.82V27.2913C15.82 27.6588 15.5137 28 15.1462 28H10.5875C10.22 28 9.8875 27.6588 9.8875 27.2913V13.2912H7.6825C7.50149 13.2912 7.32789 13.2193 7.1999 13.0914C7.07191 12.9634 7 12.7898 7 12.6087Z" fill="#222222"/>
</svg>