<?xml version="1.0" encoding="UTF-8"?>
<svg version="1.1" xmlns="http://www.w3.org/2000/svg" width="512" height="512">
<path d="M0 0 C15.52762019 9.87934565 31.60470697 12.15417598 49.61132812 12.05639648 C51.21480058 12.058872 52.81827139 12.06271796 54.42173767 12.06781006 C57.84281359 12.07607329 61.2637226 12.07540492 64.68479919 12.06762505 C70.10899375 12.0559213 75.53297911 12.06830401 80.95715332 12.08424377 C94.42363261 12.1202319 107.89010531 12.12667255 121.35662842 12.12414551 C131.84058978 12.12242865 142.32437703 12.12970324 152.80829 12.16412407 C158.18579031 12.18079131 163.56286322 12.17923475 168.94036102 12.16330135 C172.30083417 12.1574543 175.66110984 12.1683327 179.02154732 12.18354797 C180.56331354 12.18723513 182.10511451 12.18428136 183.64684868 12.17367744 C202.84812451 12.05055071 218.61730199 16.94862358 232.82421875 30.453125 C248.04806929 46.08695356 251.45038281 64.95742679 251.26367188 85.95703125 C251.23862449 87.7005258 251.21322991 89.44401539 251.1875 91.1875 C251.17240419 92.99347824 251.15872457 94.7994689 251.14648438 96.60546875 C251.1139164 100.96646088 251.06241407 105.32683714 251 109.6875 C244.73970022 108.88436627 239.10276415 107.33337466 233.125 105.375 C232.16335938 105.07916016 231.20171875 104.78332031 230.2109375 104.47851562 C228.84195313 104.03088867 228.84195313 104.03088867 227.4453125 103.57421875 C226.61531738 103.30826904 225.78532227 103.04231934 224.93017578 102.76831055 C223 101.6875 223 101.6875 222.21948242 99.74316406 C221.9319806 97.05043287 222.06378959 94.45491141 222.1875 91.75 C222.24465855 84.48269916 220.58267088 78.43663992 218 71.6875 C217.58427734 70.57761719 217.58427734 70.57761719 217.16015625 69.4453125 C211.90615384 57.38774014 200.5619305 48.76585452 188.7890625 43.72265625 C175.68312419 38.85840744 162.9984314 40.05885688 150 44.6875 C136.41794233 50.95492147 127.68559266 60.44551029 121.93359375 74.24609375 C118.16520629 85.04152255 117.47647327 96.02490128 122 106.6875 C126.81350776 115.71647365 132.80507956 121.17799058 142.27734375 124.92578125 C148.38006577 126.6331425 154.6412852 126.84515784 160.9453125 126.85546875 C161.67765106 126.85879715 162.40998962 126.86212555 163.16452026 126.86555481 C164.70570251 126.87058292 166.24689549 126.87296442 167.78808594 126.87280273 C170.09849884 126.87497508 172.4084221 126.89313591 174.71875 126.91210938 C184.00880942 126.94606373 192.8283902 126.31116011 202 124.6875 C201.76933838 125.43386719 201.53867676 126.18023437 201.30102539 126.94921875 C196.97833465 141.38892937 197.6255752 155.99706806 204.4375 169.546875 C208.67513066 176.75899641 214.12700795 183.8325354 221 188.6875 C224.51461666 189.27627339 226.82100493 188.13765846 230 186.6875 C232.14082679 185.9641761 234.28692864 185.25631528 236.4375 184.5625 C237.95150391 184.03269531 237.95150391 184.03269531 239.49609375 183.4921875 C242 182.6875 242 182.6875 244 182.6875 C241.11803674 202.9402007 223.36243345 223.32924255 208.015625 235.4609375 C195.95961604 244.36239489 183.5011573 251.5033396 169.125 255.9375 C168.33528809 256.18395264 167.54557617 256.43040527 166.73193359 256.68432617 C152.81135748 260.76128777 138.94934154 261.0003649 124.578125 260.98828125 C122.62343253 260.99218054 120.66874089 260.99651769 118.71405029 261.00126648 C114.63616173 261.00868281 110.5583598 261.00847137 106.48046875 261.00317383 C101.305714 260.99739096 96.13131856 261.01430435 90.95662308 261.0375185 C86.92407222 261.05239347 82.89160512 261.05310894 78.85903168 261.05000877 C76.95363403 261.05051529 75.04823084 261.05562389 73.14286041 261.06582069 C57.74467015 261.13812248 42.38385337 260.18605027 27.75 254.9375 C27.01168945 254.68000977 26.27337891 254.42251953 25.51269531 254.15722656 C-4.12541861 243.50183213 -27.06611196 221.73880891 -40.75 193.5 C-43.28318985 187.98386901 -45.1931386 182.34613817 -46.8125 176.5 C-47.0074707 175.81977783 -47.20244141 175.13955566 -47.40332031 174.4387207 C-51.75505575 157.39058605 -51.30170184 139.23474094 -51.265625 121.78515625 C-51.2669767 119.44591736 -51.26892141 117.10667874 -51.27142334 114.7674408 C-51.27434678 109.90409629 -51.27016482 105.04082601 -51.26074219 100.17749023 C-51.24930459 93.97565644 -51.25595211 87.77399501 -51.26788712 81.5721674 C-51.27514328 76.75663473 -51.27280133 71.94114239 -51.26763153 67.12560844 C-51.26630773 64.8392885 -51.26789766 62.55296476 -51.27259064 60.26664925 C-51.33322151 22.47029845 -51.33322151 22.47029845 -37.9375 7.75 C-26.77059091 -2.46410115 -13.05622326 -8.76243555 0 0 Z M-11.77734375 59.65625 C-20.62232635 70.63933273 -24.14564493 83.77609734 -23 97.6875 C-21.28097161 107.69831237 -15.88193349 114.72989147 -8.203125 121.1484375 C0.31690745 127.10037506 9.94609863 127.83916695 20.05078125 127.85546875 C21.15996162 127.86046135 21.15996162 127.86046135 22.29154968 127.86555481 C23.84532049 127.8705814 25.39910193 127.87296447 26.95288086 127.87280273 C29.29624729 127.87498487 31.63913865 127.89317425 33.98242188 127.91210938 C47.75691969 127.96519293 60.97746748 127.31082968 71.75 117.625 C79.01566246 109.79116963 82.36670459 100.00255952 82.2109375 89.48828125 C81.12327714 75.04656869 74.48512174 62.49176968 64 52.6875 C40.1832331 32.36385891 8.49059962 37.20560504 -11.77734375 59.65625 Z M37 169.6875 C31.69524028 176.39609543 29.47113915 183.52657886 29.69140625 192.078125 C30.84250465 201.8114634 36.4302774 209.91904383 43.8515625 216.0390625 C65.82238718 232.02270381 92.78077011 236.13017015 119.375 231.95703125 C135.29657026 228.92202267 153.97483124 221.90490256 163.7578125 208.23046875 C169.21771823 199.43395396 171.67538837 191.49002299 169.453125 181.140625 C165.11071856 168.27727008 153.87974216 160.10879421 142.19921875 154.29296875 C131.67881153 149.58085131 119.56087771 146.13357888 108 145.6875 C106.86820312 145.6359375 105.73640625 145.584375 104.5703125 145.53125 C79.47066413 144.93482271 54.84573604 151.04932452 37 169.6875 Z " fill="#FF0077" transform="translate(103,128.3125)"/>
<path d="M0 0 C1.00759369 -0.0049649 2.01518738 -0.00992981 3.05331421 -0.01504517 C6.37490535 -0.02960413 9.69644864 -0.03646048 13.01806641 -0.04199219 C14.15987995 -0.04481956 15.3016935 -0.04764694 16.47810745 -0.05056 C22.52772501 -0.06553204 28.57731888 -0.07477239 34.62695312 -0.07910156 C40.83440877 -0.08456463 47.04164268 -0.10855263 53.24902916 -0.13707352 C58.05702312 -0.15583224 62.86496526 -0.16091262 67.67299271 -0.16243744 C69.9588097 -0.16543776 72.24462637 -0.17337599 74.53040695 -0.18662262 C91.14131739 -0.27596888 106.63588862 0.87786387 122.61962891 5.78613281 C123.44350098 6.0377417 124.26737305 6.28935059 125.11621094 6.54858398 C143.81326977 12.52061315 160.89771715 22.36528579 175.74462891 35.16113281 C177.17742187 36.39283203 177.17742187 36.39283203 178.63916016 37.64941406 C207.99078615 63.4268918 225.85645443 100.2432815 228.74462891 139.16113281 C228.85830704 142.33207763 228.86271639 145.49630423 228.84228516 148.66894531 C228.84016273 149.94618973 228.84016273 149.94618973 228.83799744 151.24923706 C228.8324681 153.9282404 228.81992965 156.60715539 228.80712891 159.28613281 C228.80210475 161.11946493 228.79754346 162.95279837 228.79345703 164.78613281 C228.78337929 169.24452631 228.76379109 173.70273245 228.74462891 178.16113281 C220.82462891 177.83113281 212.90462891 177.50113281 204.74462891 177.16113281 C204.04337891 175.55238281 203.34212891 173.94363281 202.61962891 172.28613281 C193.03062394 151.43004701 178.31348827 137.504311 156.74462891 129.16113281 C146.21416414 125.68280572 136.45263988 125.02260367 125.42822266 124.98535156 C123.45826082 124.96808585 121.48829889 124.95079566 119.51834965 124.93214893 C114.69593685 124.88694104 109.87363847 124.84891826 105.05102539 124.83520508 C102.33915951 124.82699409 99.62774403 124.80821771 96.91603088 124.77827454 C94.37720188 124.75051262 91.83815675 124.73715714 89.29917908 124.74113464 C73.64139759 124.52186424 60.19832409 119.75376436 48.62353516 109.13769531 C39.88875943 99.94892916 33.65971729 87.98941638 33.61962891 75.16113281 C33.66087891 73.84113281 33.70212891 72.52113281 33.74462891 71.16113281 C28.13462891 71.16113281 22.52462891 71.16113281 16.74462891 71.16113281 C19.60647797 91.67105107 25.2806174 106.15362022 39.49462891 121.70019531 C40.74462891 123.16113281 40.74462891 123.16113281 40.74462891 124.16113281 C24.74488015 124.80017603 10.49667771 121.9525763 -2.06787109 111.41113281 C-11.18893334 102.68592137 -18.86834446 90.15890465 -19.36889648 77.22851562 C-19.36365967 76.11831055 -19.35842285 75.00810547 -19.35302734 73.86425781 C-19.34980469 72.65898438 -19.34658203 71.45371094 -19.34326172 70.21191406 C-19.33069336 68.33052734 -19.33069336 68.33052734 -19.31787109 66.41113281 C-19.31335938 65.14140625 -19.30884766 63.87167969 -19.30419922 62.56347656 C-19.29241676 59.42934186 -19.27448145 56.2952314 -19.25537109 53.16113281 C-24.86537109 53.16113281 -30.47537109 53.16113281 -36.25537109 53.16113281 C-35.84190721 78.94060583 -33.42537524 99.74336375 -15.51318359 119.61425781 C-13.25537109 122.16113281 -13.25537109 122.16113281 -12.25537109 124.16113281 C-29.78694953 124.86135858 -43.29107329 121.09301401 -56.71240234 109.60253906 C-65.55348157 101.11455977 -71.83684404 88.78502459 -72.37562561 76.3959198 C-72.373405 75.39442398 -72.37118439 74.39292816 -72.36889648 73.36108398 C-72.36882095 72.22027878 -72.36874542 71.07947357 -72.3686676 69.90409851 C-72.36350632 68.68309952 -72.35834503 67.46210052 -72.35302734 66.20410156 C-72.3516124 64.94600174 -72.35019745 63.68790192 -72.34873962 62.39167786 C-72.34409682 59.05934752 -72.33512337 55.7270865 -72.32403564 52.39477539 C-72.31377612 48.98942664 -72.3092323 45.58407071 -72.30419922 42.17871094 C-72.29317939 35.50616583 -72.2764481 28.83365332 -72.25537109 22.16113281 C-54.67110281 12.05001057 -54.67110281 12.05001057 -47.56787109 9.41113281 C-46.84365967 9.1351123 -46.11944824 8.8590918 -45.37329102 8.57470703 C-30.78627235 3.23916086 -15.52139373 0.01847191 0 0 Z " fill="#FF0077" transform="translate(160.25537109375,-0.1611328125)"/>
<path d="M0 0 C0.01458252 1.19375244 0.02916504 2.38750488 0.04418945 3.61743164 C0.10290882 8.11868742 0.18012487 12.61948064 0.26245117 17.12036133 C0.2953589 19.05485431 0.32349258 20.98943545 0.34643555 22.92407227 C0.60011738 44.81062587 0.60011738 44.81062587 7.6875 65.3125 C11 71.83752515 11 71.83752515 11 74 C10.26136719 74.27972656 9.52273437 74.55945313 8.76171875 74.84765625 C-7.67287298 81.34213913 -21.51608528 91.27461236 -29.09016418 107.73500061 C-34.87716878 122.14151402 -34.58220593 136.26132546 -34.50437045 151.60606718 C-34.4903245 155.07206665 -34.49700214 158.53804103 -34.50050354 162.00405884 C-34.5031912 167.82212768 -34.48985818 173.63998853 -34.46655273 179.45800781 C-34.43997723 186.13763671 -34.43819335 192.81691779 -34.4499411 199.49658144 C-34.4608085 205.97911513 -34.45446068 212.4615258 -34.44038582 218.94404984 C-34.43470047 221.67645888 -34.43464875 224.40877566 -34.43945122 227.14118576 C-34.45345385 245.36505419 -33.82381719 262.32354896 -27.75 279.6875 C-27.45061523 280.56978271 -27.15123047 281.45206543 -26.84277344 282.36108398 C-24.56965474 288.861042 -21.72764241 294.79069184 -18.48828125 300.8671875 C-17.00567851 303.98804681 -16.17376691 306.82047822 -15.4375 310.1875 C-13.34733435 319.73892366 -7.77997476 327.55275307 -2.41796875 335.58984375 C-0.03001652 339.6487047 0.17805 343.1417456 0.25 347.8125 C0.27578125 348.80894531 0.3015625 349.80539062 0.328125 350.83203125 C-0.38968692 357.76233443 -4.08806934 362.84307825 -8 368.375 C-11.64802456 373.70536916 -14.75752871 378.56399872 -16 385 C-16.14953125 385.68835938 -16.2990625 386.37671875 -16.453125 387.0859375 C-18.80650753 401.25739316 -13.14967072 412.68497327 -5.25 423.875 C-4.849021 424.42285156 -4.44804199 424.97070312 -4.03491211 425.53515625 C0.65937657 432.0252332 0.6865248 438.13978857 0 446 C-1.71440651 452.70474903 -5.98338373 457.71502295 -10.09375 463.13671875 C-13.01087869 467.5183895 -14.43846021 471.99005983 -16 477 C-22.27 477 -28.54 477 -35 477 C-32.69085041 472.38170082 -30.50677131 468.79174284 -27.5 464.6875 C-19.44530705 453.1833359 -18.18052486 441.751444 -20.515625 427.953125 C-23.08724781 419.63316883 -28.83481122 412.57325525 -33.94018555 405.63476562 C-37.41492769 400.27496986 -36.46333005 393.09142744 -36 387 C-34.73708464 382.10193639 -31.54322552 378.34704291 -28.64990234 374.27685547 C-20.42828561 362.65136359 -18.68008737 353.14002119 -20 339 C-21.41991647 331.05450997 -25.86570369 324.76057073 -30.47021484 318.30004883 C-34.60081293 312.46285741 -36 308.3535864 -36 301 C-41.61 301 -47.22 301 -53 301 C-50.68448411 311.74399375 -48.08986898 319.74707407 -42 329 C-40.86505316 330.80628816 -39.73944454 332.61849076 -38.625 334.4375 C-38.14289062 335.19933594 -37.66078125 335.96117187 -37.1640625 336.74609375 C-33.97964394 342.91189747 -34.29584997 350.18339987 -35.9375 356.75 C-37.82340416 361.2924903 -40.80796367 365.15876949 -43.65209961 369.13598633 C-50.84302952 379.2860615 -53.06427233 388.91558346 -51.76171875 401.2578125 C-50.29932336 409.5004047 -45.93138183 416.67720141 -40.8125 423.1875 C-35.86215772 429.58006798 -34.0326018 435.94295497 -35 444 C-36.27074469 450.96417926 -39.83361976 455.80236353 -44.06640625 461.35546875 C-47.62160747 466.21783487 -49.76428864 471.4107216 -52 477 C-57.94 477 -63.88 477 -70 477 C-65.56271186 468.12542373 -65.56271186 468.12542373 -62.4375 463.9375 C-55.39924612 454.11107275 -54.29235 444.96452683 -55 433 C-56.71436233 422.64118356 -63.0161084 414.31490628 -68.80078125 405.8125 C-72.46354608 400.27659484 -71.88277898 392.43053313 -71 386 C-69.55786842 382.18350179 -67.45665551 379.23441763 -65 376 C-56.59675558 363.74970064 -53.04244992 353.32727485 -55.43359375 338.26953125 C-57.59267041 329.83438083 -62.83820628 322.95487505 -67.875 316 C-72.29034549 309.76657107 -72.03615885 301.39902383 -71 294 C-69.54476798 290.18316307 -67.49101601 287.21567521 -65 284 C-56.74383727 272.50612639 -54.40156973 262.54396968 -54.50170898 248.50463867 C-54.4978776 246.97222365 -54.4922516 245.43981225 -54.48498535 243.90740967 C-54.47309882 240.6259192 -54.47347486 237.34474911 -54.48357964 234.0632534 C-54.49927095 228.85164997 -54.48536872 223.64036864 -54.46754456 218.42878723 C-54.43680935 208.28690555 -54.43521748 198.145124 -54.43719482 188.00320435 C-54.43858952 175.13502894 -54.4278539 162.26693249 -54.3886171 149.39881307 C-54.37626106 145.0778116 -54.37035628 140.75700752 -54.38012505 136.4359951 C-54.45097312 104.56487776 -52.15873637 76.0126045 -38 47 C-37.50628906 45.98292969 -37.01257812 44.96585938 -36.50390625 43.91796875 C-31.80029225 34.81720851 -11.74808358 0 0 0 Z " fill="#FF0077" transform="translate(71,35)"/>
<path d="M0 0 C69.96 0 139.92 0 212 0 C212 58.46195652 212 58.46195652 196.8125 74.75 C185.12775323 85.8197601 172.13448372 89.46743116 156.39111328 89.40405273 C154.57660172 89.41434761 154.57660172 89.41434761 152.72543335 89.42485046 C149.44007904 89.4399068 146.15508507 89.44164256 142.8697114 89.43590808 C140.11165138 89.43279348 137.35364141 89.43893377 134.59558856 89.44494683 C128.08077226 89.45894078 121.56608723 89.45747419 115.05126953 89.44604492 C108.36478095 89.43457258 101.67869389 89.44863593 94.99225819 89.4754414 C89.21945341 89.49770447 83.44677369 89.50421196 77.6739291 89.49836498 C74.24017449 89.49501891 70.806677 89.4972514 67.37295914 89.51461601 C63.53756673 89.52960399 59.70304227 89.51879008 55.86767578 89.50170898 C54.19641632 89.51621094 54.19641632 89.51621094 52.49139404 89.53100586 C37.82380735 89.39520389 25.31536266 84.22952093 14.6875 74.125 C-4.91579771 53.12146674 0 28.63353022 0 0 Z M45 28 C45 39.22 45 50.44 45 62 C85.26 62 125.52 62 167 62 C167 50.78 167 39.56 167 28 C126.74 28 86.48 28 45 28 Z " fill="#FF0077" transform="translate(300,423)"/>
<path d="M0 0 C0.71600876 -0.01139008 1.43201752 -0.02278015 2.16972351 -0.03451538 C9.6975658 -0.1456627 17.22639243 -0.19270089 24.75488281 -0.23535156 C28.31169801 -0.2574973 31.86744246 -0.29906919 35.42382812 -0.35839844 C39.73926636 -0.43023146 44.05370939 -0.46629348 48.36971474 -0.47846985 C50.00056383 -0.48875413 51.63139011 -0.51089411 53.26189232 -0.54606628 C73.76287763 -0.96494612 89.58572557 8.02026137 104.52661133 21.79492188 C109.30491752 26.61195016 111.43150395 29.16608927 111.40551758 36.15039062 C111.4163993 37.51041883 111.42755855 38.87044484 111.43896484 40.23046875 C111.43776642 40.93453857 111.43656799 41.6386084 111.43533325 42.36401367 C111.4508205 65.8281774 115.78202022 86.04374012 132.81176758 103.06445312 C134.93676758 105.22460938 134.93676758 105.22460938 134.93676758 106.22460938 C120.74676758 106.22460938 106.55676758 106.22460938 91.93676758 106.22460938 C91.92258789 101.431875 91.9084082 96.63914062 91.89379883 91.70117188 C91.87371933 88.64771436 91.85218107 85.59440438 91.82543945 82.54101562 C91.78321877 77.70453191 91.74612752 72.86842257 91.74121094 68.03173828 C91.7369026 64.12804342 91.70823312 60.22518977 91.6633358 56.32175827 C91.65044107 54.8396331 91.6460244 53.35740685 91.65061378 51.8752327 C91.67365346 42.16661661 90.91090078 34.04797295 84.37995911 26.40200806 C75.44477052 17.87998085 63.79251052 18.77825147 52.31176758 18.82617188 C50.59741085 18.82414732 48.88305497 18.82123272 47.16870117 18.81747437 C43.58805078 18.81306895 40.00762598 18.81942429 36.42700195 18.83349609 C31.85763588 18.85058696 27.28879862 18.84073617 22.7194519 18.8227787 C19.18306559 18.81189247 15.64680282 18.8154093 12.1104126 18.82316208 C10.42645199 18.82515073 8.74247983 18.82275218 7.05853271 18.81572342 C-8.94772773 18.62151987 -8.94772773 18.62151987 -22.50642395 26.40200806 C-29.57995492 34.68319813 -29.80243235 43.68706766 -29.77026367 54.07617188 C-29.78340357 55.58647637 -29.79871476 57.09676339 -29.81608582 58.60702515 C-29.85568181 62.54926966 -29.86610965 66.49105184 -29.87011719 70.43347168 C-29.88115111 75.18117836 -29.92902511 79.92864416 -29.97060394 84.67616272 C-30.02944846 91.85918359 -30.04197895 99.04093664 -30.06323242 106.22460938 C-41.61323242 106.22460938 -53.16323242 106.22460938 -65.06323242 106.22460938 C-60.69614381 97.49043216 -60.69614381 97.49043216 -57.56323242 93.47460938 C-50.73192427 83.83732303 -48.92749478 73.89670828 -50.06323242 62.22460938 C-51.02806525 57.13667798 -52.59324799 52.81319529 -55.31323242 48.41210938 C-57.06323242 45.22460938 -57.06323242 45.22460938 -56.85620117 42.84570312 C-52.18292516 27.39856911 -36.85276681 14.55049482 -23.02026367 7.12841797 C-15.402922 3.29295067 -8.6563898 0.12626797 0 0 Z " fill="#FF0077" transform="translate(172.063232421875,405.775390625)"/>
<path d="M0 0 C7.816875 -0.0825 15.63375 -0.165 23.6875 -0.25 C27.37812622 -0.30462402 27.37812622 -0.30462402 31.14331055 -0.36035156 C33.09943774 -0.372037 35.05557467 -0.38222917 37.01171875 -0.390625 C38.52795837 -0.4213208 38.52795837 -0.4213208 40.0748291 -0.45263672 C47.22410927 -0.45618519 47.22410927 -0.45618519 51.12426758 1.83691406 C54.27627536 5.47179483 54.12262948 8.58159392 54.11352539 13.21557617 C54.11344986 14.4966777 54.11337433 15.77777924 54.11329651 17.09770203 C54.10818987 18.49612466 54.10297387 19.8945469 54.09765625 21.29296875 C54.09579089 22.72357636 54.09436754 24.15418461 54.09336853 25.58479309 C54.08955267 29.34786751 54.07973032 33.11090325 54.06866455 36.8739624 C54.05663068 41.39023794 54.05204376 45.90652643 54.04621124 50.42281342 C54.03651807 57.2819025 54.01735503 64.14090674 54 71 C36.18 71 18.36 71 0 71 C0 47.57 0 24.14 0 0 Z " fill="#FF0077" transform="translate(194,441)"/>
<path d="M0 0 C1.01535771 -0.00679667 1.01535771 -0.00679667 2.05122769 -0.01373065 C4.32435138 -0.02641287 6.59723664 -0.02475185 8.87039185 -0.02310181 C10.49817209 -0.02908469 12.12594949 -0.03588968 13.75372314 -0.04345703 C18.17937503 -0.06114896 22.60494962 -0.06581376 27.03063345 -0.0670886 C30.7235188 -0.06898623 34.41638609 -0.07634222 38.10926449 -0.08343279 C46.82131623 -0.09972658 55.53332662 -0.10460085 64.24539185 -0.10317993 C73.23578047 -0.10197831 82.2259291 -0.12308199 91.21625698 -0.15466726 C98.93184219 -0.18080924 106.64734893 -0.1915481 114.3629781 -0.19026911 C118.97253863 -0.18975885 123.58188596 -0.1954771 128.19140244 -0.21662521 C132.52692994 -0.23597263 136.86204012 -0.23615622 141.19758224 -0.22159195 C142.78869739 -0.21949837 144.37983842 -0.22423742 145.97090912 -0.23631287 C148.1436957 -0.25173494 150.31503782 -0.24247943 152.48779297 -0.22705078 C154.31124646 -0.22868508 154.31124646 -0.22868508 156.1715374 -0.2303524 C159.98925724 0.36363733 161.6468655 1.58026526 164.37088013 4.26742554 C165.9229545 8.02075924 165.69752075 11.38357445 164.30838013 15.14242554 C161.20760845 18.54327189 157.64937262 19.16759186 153.14778042 19.51910782 C151.39597517 19.5202389 151.39597517 19.5202389 149.60877991 19.52139282 C148.95381281 19.5245128 148.29884571 19.52763278 147.62403113 19.53084731 C145.44311865 19.53878465 143.26248772 19.53252056 141.08157349 19.5262146 C139.51246478 19.52892633 137.94335735 19.53248829 136.37425232 19.53683472 C132.12230953 19.54593852 127.87046399 19.54242295 123.61851954 19.53607655 C119.16589903 19.53100706 114.71328674 19.53571056 110.26066589 19.53884888 C102.78493762 19.54248537 95.30924888 19.53769733 87.83352661 19.52816772 C79.19248632 19.5172798 70.55154039 19.52081247 61.91050237 19.53182054 C54.48785118 19.54089767 47.06522837 19.54217672 39.64257342 19.5369432 C35.21086204 19.53382636 30.77919502 19.53340639 26.3474865 19.54001617 C22.18190914 19.54579534 18.01645343 19.54178228 13.85088921 19.53022766 C12.32266949 19.52758431 10.79443954 19.52834064 9.26622391 19.53275299 C7.17934352 19.53822265 5.09285234 19.53135744 3.0059967 19.52139282 C1.25475699 19.52026175 1.25475699 19.52026175 -0.53186131 19.51910782 C-4.35601707 19.20835809 -7.21219502 18.22891026 -10.37911987 16.07992554 C-12.36515747 13.20017102 -12.51002935 10.72105075 -12.62911987 7.26742554 C-9.84912102 1.01242811 -6.54607311 0.0180597 0 0 Z " fill="#FF0077" transform="translate(329.6291198730469,387.7325744628906)"/>
<path d="M0 0 C9.76249516 3.13381871 16.38315481 8.30995692 21.515625 17.03515625 C23.66180708 24.30832886 23.76535236 31.22368923 20.640625 38.22265625 C17.01726772 44.62529326 11.57695025 48.56881319 4.640625 50.84765625 C1.92791643 51.03449264 -0.67997766 51.12122638 -3.39086914 51.10644531 C-4.18496689 51.10994995 -4.97906464 51.11345459 -5.79722595 51.11706543 C-8.4130842 51.12584337 -11.02867042 51.12004811 -13.64453125 51.11328125 C-15.46626334 51.1146289 -17.28799509 51.11657026 -19.10972595 51.11907959 C-22.92352734 51.1220254 -26.73723492 51.11775015 -30.55102539 51.10839844 C-35.43925715 51.09699613 -40.32726947 51.10357173 -45.2154932 51.11554337 C-48.97555699 51.12276969 -52.73556873 51.12047061 -56.49563408 51.11528778 C-58.29816145 51.11395385 -60.10069356 51.11559004 -61.90321541 51.12024689 C-64.42136285 51.12532569 -66.93915445 51.11758326 -69.45727539 51.10644531 C-70.57406174 51.11251801 -70.57406174 51.11251801 -71.71340942 51.11871338 C-75.39756253 51.08852402 -78.30062586 51.02318434 -81.359375 48.84765625 C-83.65085323 45.44994716 -84.359375 43.40098772 -84.359375 39.28515625 C-83.09732342 34.94685396 -82.07636067 33.44954622 -78.359375 30.84765625 C-74.76275001 29.71079203 -71.09426643 29.31552602 -67.359375 28.84765625 C-42.97208172 25.70679172 -20.70982032 20.59869356 -4.02734375 1 C-2.359375 -0.15234375 -2.359375 -0.15234375 0 0 Z " fill="#FF0077" transform="translate(454.359375,320.15234375)"/>
<path d="M0 0 C1.50741822 0.00748049 3.01484632 0.01316484 4.52227783 0.01715088 C8.44824099 0.03226544 12.37359165 0.07142013 16.29931641 0.1159668 C20.32185587 0.1572299 24.34449642 0.17522745 28.3671875 0.1953125 C36.2294446 0.23793215 44.09120815 0.30600573 51.953125 0.390625 C44.18675147 14.21189719 33.03720323 24.10140277 17.953125 29.390625 C11.18067637 31.19336312 4.3206843 32.2264397 -2.6171875 33.1328125 C-3.5868042 33.25962402 -4.5564209 33.38643555 -5.55541992 33.51708984 C-7.46304352 33.76037267 -9.37206359 33.99301784 -11.2824707 34.21337891 C-20.22257666 35.31845399 -27.91714264 37.42772513 -34.046875 44.390625 C-40.46933098 52.75927976 -39.44611632 61.32974366 -39.046875 71.390625 C-47.956875 71.390625 -56.866875 71.390625 -66.046875 71.390625 C-66.046875 70.730625 -66.046875 70.070625 -66.046875 69.390625 C-64.3907112 68.04426806 -62.72204839 66.71325483 -61.046875 65.390625 C-47.44356565 50.52131423 -31.84411111 28.53772464 -29.6640625 7.73828125 C-28.046875 4.390625 -28.046875 4.390625 -25.82809448 3.20243835 C-17.17422385 0.20709352 -9.04457789 -0.13369545 0 0 Z " fill="#FF0077" transform="translate(394.046875,299.609375)"/>
<path d="M0 0 C15.16851716 -0.06946547 30.33701589 -0.12299336 45.50565624 -0.15543652 C52.54882919 -0.17090127 59.59190145 -0.1919832 66.63500977 -0.22631836 C73.43012256 -0.25942874 80.22513061 -0.27684623 87.02031898 -0.28463173 C89.614705 -0.29018109 92.2090852 -0.3010174 94.80342674 -0.31719017 C98.433124 -0.33892031 102.06238699 -0.3419687 105.69213867 -0.34057617 C107.30622871 -0.35675491 107.30622871 -0.35675491 108.95292664 -0.3732605 C115.4965811 -0.34603848 119.23952958 0.23952958 124 5 C124.50421994 8.03704568 124.45467228 10.95802594 124 14 C122.12379387 16.50160818 120.76108697 17.61945652 118 19 C116.42879781 19.09255054 114.8536794 19.12192535 113.27975464 19.12025452 C111.78632538 19.12231651 111.78632538 19.12231651 110.26272583 19.12442017 C109.16652924 19.12082489 108.07033264 19.11722961 106.94091797 19.11352539 C105.78970459 19.11367142 104.63849121 19.11381744 103.45239258 19.1139679 C99.63230531 19.11326904 95.81226629 19.1054779 91.9921875 19.09765625 C89.34945706 19.09579197 86.70672627 19.09436812 84.06399536 19.09336853 C77.80959377 19.09025748 71.55520961 19.08204714 65.3008157 19.07201904 C58.18119741 19.06085088 51.06157829 19.05534568 43.94195342 19.05032361 C29.29462639 19.03986435 14.64731402 19.0220684 0 19 C0 12.73 0 6.46 0 0 Z " fill="#FF0077" transform="translate(388,264)"/>
<path d="M0 0 C3.75131012 1.76423001 7.23536211 3.93897248 10.75 6.125 C11.35199219 6.49753906 11.95398438 6.87007813 12.57421875 7.25390625 C14.05042343 8.16774724 15.52534154 9.08366598 17 10 C16.53666699 15.23801899 14.80676755 18.13135413 11.6875 22.3125 C3.34069492 33.81733326 0.84031175 43.9295831 2 58 C3.58731698 66.67885543 8.79570166 73.62544194 13.7578125 80.71484375 C18.73530113 88.00764504 18.72298145 94.35167756 18 103 C16.91068864 107.02458149 14.77259662 109.93264496 12.3515625 113.27734375 C7.76895188 119.61095187 4.80839026 125.68116478 2 133 C-3.94 133 -9.88 133 -16 133 C-14.2975086 127.89252581 -13.28894218 125.73776108 -10.125 121.75 C-3.09214357 112.38136729 -0.11601108 102.67532541 -1 91 C-2.82684182 79.53614857 -9.24347979 70.24449912 -15.8359375 60.9375 C-19.08021785 55.53762397 -18.85506397 48.46927231 -17.38671875 42.51171875 C-15.60423578 37.58829664 -13.14687208 33.67430233 -10 29.5 C-3.02860792 20.23504585 -1.25141364 11.42738241 0 0 Z " fill="#FF0077" transform="translate(88,379)"/>
<path d="M0 0 C8.13290499 1.04290484 15.97129247 4.18283109 23.72314453 6.7956543 C26.02056658 7.56942683 28.32061463 8.33497951 30.62109375 9.09960938 C32.08088914 9.58806384 33.54053046 10.07697905 35 10.56640625 C36.03265991 10.91017052 36.03265991 10.91017052 37.08618164 11.26087952 C41.88443803 12.88443803 41.88443803 12.88443803 43 14 C43.08726223 15.78071246 43.10699041 17.5648314 43.09765625 19.34765625 C43.09443359 20.42724609 43.09121094 21.50683594 43.08789062 22.61914062 C43.07532227 24.32360352 43.07532227 24.32360352 43.0625 26.0625 C43.05798828 27.20267578 43.05347656 28.34285156 43.04882812 29.51757812 C43.03699747 32.34510351 43.0205141 35.1725264 43 38 C37.54251576 39.88513282 32.07993912 41.75436242 26.61206055 43.60913086 C24.75315702 44.24216638 22.89571297 44.87950472 21.03979492 45.52124023 C18.370108 46.4435217 15.69553557 47.35014448 13.01953125 48.25390625 C12.19226028 48.54342667 11.36498932 48.83294708 10.51264954 49.13124084 C3.079341 51.61092877 3.079341 51.61092877 -1 50 C-7.581499 43.57902536 -10.73330582 35.33388367 -11.1875 26.25 C-10.98842364 16.5857476 -7.79395501 8.82642027 -1.63061523 1.33569336 C-1.09251221 0.89491455 -0.55440918 0.45413574 0 0 Z " fill="#FF0077" transform="translate(328,248)"/>
<path d="M0 0 C6.27 0 12.54 0 19 0 C17.6114943 12.49655128 14.71866934 20.64711999 5 29 C-3.87758013 34.55412056 -11.19354847 36.15847328 -21.45703125 36.09765625 C-22.35999435 36.0962413 -23.26295746 36.09482635 -24.19328308 36.09336853 C-27.06638963 36.08778823 -29.93941716 36.07523934 -32.8125 36.0625 C-34.76497283 36.05748245 -36.71744689 36.05291999 -38.66992188 36.04882812 C-43.44666924 36.03867779 -48.22324656 36.01909853 -53 36 C-53 29.73 -53 23.46 -53 17 C-50.10992187 16.97421875 -47.21984375 16.9484375 -44.2421875 16.921875 C-41.43219409 16.88342344 -38.62238224 16.83827324 -35.8125 16.79248047 C-33.86499755 16.76431679 -31.91738178 16.7430794 -29.96972656 16.72900391 C-27.16412532 16.70751054 -24.35988 16.66082802 -21.5546875 16.609375 C-20.68883026 16.60814636 -19.82297302 16.60691772 -18.93087769 16.60565186 C-12.23865926 16.44480136 -8.49052557 14.55970683 -3.75 9.6875 C-1.48474719 6.49715587 -1.48474719 6.49715587 0 0 Z " fill="#FF0077" transform="translate(229,300)"/>
<path d="M0 0 C5.94 0 11.88 0 18 0 C18.42317708 3.28776042 18.84635417 6.57552083 19.26953125 9.86328125 C20.00366096 13.01572059 20.34925408 14.21814467 23 16 C27.73214872 16.57921311 27.73214872 16.57921311 31.875 14.625 C34.02522008 11.51912655 34.25809659 9.11481332 34.5625 5.375 C34.706875 3.60125 34.85125 1.8275 35 0 C41.27 0 47.54 0 54 0 C54.34666033 9.937596 53.99267619 19.2460843 47.65625 27.3984375 C40.76334843 34.06374327 33.28055539 36.39790741 23.9453125 36.2734375 C16.50871207 35.58303693 10.42903466 32.53051536 5.47265625 26.953125 C-1.02551377 18.33486237 -0.35074362 10.43462275 0 0 Z " fill="#000000" transform="translate(247,194)"/>
<path d="M0 0 C6.27 0 12.54 0 19 0 C19.1953125 2.734375 19.390625 5.46875 19.5859375 8.203125 C19.98910348 10.92639708 20.52789508 12.69123113 22 15 C25.12860495 16.56430248 27.55602925 16.35627284 31 16 C33.98751585 13.72005369 34.85002445 11.90493721 35.4609375 8.21875 C35.72156541 5.48567892 35.86784159 2.74228711 36 0 C41.94 0 47.88 0 54 0 C54.82488098 19.46719106 54.82488098 19.46719106 47.16796875 28.0546875 C41.31508244 33.61896994 35.66798072 36.07550931 27.625 36.4375 C20.04999145 36.18569916 13.71134192 33.9441094 8.125 28.75 C0.26383844 20.091598 -0.13731136 11.25953119 0 0 Z " fill="#000000" transform="translate(105,194)"/>
<path d="M0 0 C0 23.43 0 46.86 0 71 C-6.27 71 -12.54 71 -19 71 C-19.06788391 62.88943963 -19.12287807 54.7791016 -19.15543652 46.66833305 C-19.17106606 42.90182786 -19.19225424 39.13552779 -19.22631836 35.36914062 C-19.25900935 31.73164998 -19.2768734 28.09435615 -19.28463173 24.45672989 C-19.29015785 23.07169626 -19.30094905 21.68667291 -19.31719017 20.30172348 C-19.33909128 18.35604179 -19.34022648 16.41016039 -19.34057617 14.46435547 C-19.34723801 13.35849091 -19.35389984 12.25262634 -19.36076355 11.11325073 C-18.93977321 7.48026595 -17.90409134 5.10943868 -16 2 C-13 0 -13 0 0 0 Z " fill="#000000" transform="translate(177,441)"/>
<path d="M0 0 C11.55487006 -0.38839899 18.47271031 -0.26784326 28.25 6.125 C33.47651076 11.58907943 36.62515892 18.18644753 37.06640625 25.78125 C36.82456566 33.86157072 34.14538957 40.59122933 28.5859375 46.50390625 C23.3599101 51.18497357 16.99820041 53.88138643 10 54 C6.5440059 52.91556783 3.27745768 51.53651437 0 50 C-0.71783637 46.46157424 -0.8947215 43.51856769 0 40 C3.22307336 36.62344696 7.01861197 34.39497378 11 32 C12.69155765 30.83922437 14.37950808 29.67316049 16.0625 28.5 C19.7393617 26 19.7393617 26 22 26 C19.36 21.71 16.72 17.42 14 13 C9.15739531 14.72922889 9.15739531 14.72922889 5.875 17.125 C3 19 3 19 0 19 C0 12.73 0 6.46 0 0 Z " fill="#000000" transform="translate(370,194)"/>
<path d="M0 0 C0 5.61 0 11.22 0 17 C-1.381875 17.268125 -2.76375 17.53625 -4.1875 17.8125 C-7.94705191 18.64729814 -10.87579954 19.65684966 -14 22 C-14.33 22.66 -14.66 23.32 -15 24 C-19.05214179 22.25477062 -22.30603961 19.5771843 -25.75 16.875 C-26.35199219 16.40707031 -26.95398438 15.93914062 -27.57421875 15.45703125 C-29.05186616 14.30774993 -30.52626005 13.15428765 -32 12 C-29.27306669 10.58262616 -26.55672869 9.41407971 -23.6640625 8.37890625 C-22.84679687 8.08306641 -22.02953125 7.78722656 -21.1875 7.48242188 C-19.48732921 6.87207093 -17.78681119 6.26268631 -16.0859375 5.65429688 C-12.46557736 4.34220095 -9.0299816 3.01512802 -5.5859375 1.27734375 C-3 0 -3 0 0 0 Z " fill="#000000" transform="translate(302,390)"/>
<path d="M0 0 C5.39795989 1.15058556 10.70987333 2.42421759 16 4 C12.753585 7.34567589 9.42501121 10.32378512 5.75 13.1875 C-1.60465894 19.14268942 -8.08468131 25.87903868 -13 34 C-13.66 33.67 -14.32 33.34 -15 33 C-14.74808647 22.76843514 -10.41726186 16.47101516 -4.53125 8.56640625 C-2.50587821 5.8299843 -1.0578178 3.26790143 0 0 Z " fill="#000000" transform="translate(120,397)"/>
</svg>
