<svg xmlns="http://www.w3.org/2000/svg" viewBox="0 0 16 16" style="display:block;height:16px;width:16px;fill:currentColor" aria-hidden="true" role="presentation" focusable="false"><path d="M4.5 0a2.5 2.5 0 0 1 1.24 4.67A4.5 4.5 0 0 1 7.86 6H8a3 3 0 0 0-3 3v.2a3 3 0 0 0 .23.95l.06.14-.1.07A5 5 0 0 0 3 14.5V16H0V9a4.5 4.5 0 0 1 3.26-4.33A2.5 2.5 0 0 1 4.5 0zm7 0a2.5 2.5 0 0 1 1.24 4.67 4.5 4.5 0 0 1 3.25 4.11L16 9v7h-3v-1.73a5 5 0 0 0-2.2-3.9l-.1-.07.07-.15a3 3 0 0 0-2.45-4.13L8.14 6l.02-.02a4.5 4.5 0 0 1 2.1-1.3A2.5 2.5 0 0 1 11.5 0zM8 7a2 2 0 0 1 1.12 3.66A4 4 0 0 1 12 14.5V16H4v-1.5a4 4 0 0 1 2.88-3.84A2 2 0 0 1 8 7z"/></svg>