<svg width="60" height="60" viewBox="0 0 500 500" fill="none" xmlns="http://www.w3.org/2000/svg">
<path d="M264.922 4.49219C265.234 4.88281 265.625 5.15625 266.133 5.15625C272.539 5.15625 278.789 6.44531 285.117 7.26562C296.016 8.67188 306.602 11.25 317.148 14.2578C333.359 18.8672 348.75 25.4297 363.672 33.1641C364.102 33.3984 364.531 33.5938 364.922 33.8672C365.117 33.9844 365.195 34.2578 365.781 35.1562C355.234 30.3516 345.273 25.9375 334.961 22.4609C324.453 18.9453 313.75 16.0547 302.891 13.7891C292.266 11.5625 281.562 9.76562 270.703 8.94531C282.461 11.7969 294.023 15.1172 305.078 19.9219C315.742 24.5703 325.664 30.5078 334.57 38.0469C336.875 40 339.102 41.9922 341.25 44.1016C355.547 58.1641 364.062 75.2344 368.047 94.7656C369.883 103.672 370.625 112.656 370 121.68C369.336 131.602 367.734 141.445 364.883 151.094C362.305 159.805 358.945 168.164 354.844 176.25C347.539 190.742 338.047 203.555 325.82 214.219C318.516 220.586 310.273 225.586 301.172 229.141C294.531 231.758 287.656 233.711 280.664 234.805C273.164 235.977 265.625 236.055 258.008 235.234C246.914 234.023 236.953 229.922 227.773 224.023C218.711 218.203 211.25 210.664 206.484 200.898C202.93 193.633 200.508 185.938 200.234 177.695C200.156 175.43 199.453 173.242 199.531 170.898C200.117 156.68 203.945 143.516 213.359 132.578C219.297 125.703 226.016 119.648 234.414 115.742C236.25 114.883 238.008 113.906 240.234 112.773C237.734 111.406 235.391 111.523 233.242 111.133C223.594 109.336 213.789 109.453 204.062 109.648C190.352 109.922 177.305 113.008 165.234 119.57C156.992 124.062 150.156 130.273 144.141 137.5C135.117 148.359 130.156 161.016 127.07 174.57C125.937 179.453 125.391 184.492 124.648 189.453C123.945 193.984 124.766 198.633 123.437 203.086C122.812 205.195 122.5 205.742 120.469 205.977C119.492 206.094 118.555 206.016 117.578 206.016C100.898 206.016 84.2188 206.016 67.5 206.016C66.6406 206.016 65.8203 206.055 64.9609 206.016C63.2031 205.898 62.2266 206.523 61.4844 208.359C58.75 215.078 56.6406 221.953 55.1953 229.023C53.2031 238.789 53.2422 248.711 53.8672 258.555C54.4922 268.398 57.1094 278.008 60.6641 287.227C62.1875 291.172 62.8516 291.523 67.1094 291.523C84.1406 291.523 101.211 291.523 118.242 291.523C119.102 291.523 119.922 291.523 120.781 291.523C123.594 291.602 123.945 291.953 124.062 294.609C124.102 295.586 124.062 296.523 124.062 297.5C124.102 312.5 127.187 326.836 133.008 340.664C137.227 350.703 143.086 359.609 150.898 367.109C160.43 376.211 171.836 382.031 184.687 384.961C189.844 386.133 195.078 386.719 200.352 387.344C205.195 387.891 209.961 387.969 214.805 387.852C218.867 387.773 222.93 387.07 226.992 386.68C231.445 386.25 235.781 385.312 240.977 384.727C238.008 383.203 235.625 381.914 233.203 380.781C227.773 378.281 223.086 374.609 218.906 370.469C209.727 361.523 203.477 350.781 201.055 338.086C199.844 331.719 199.336 325.391 200.117 318.789C201.328 308.359 204.766 298.867 210.469 290.195C214.648 283.789 220.312 278.711 226.406 274.063C235.586 267.07 246.211 263.789 257.383 261.875C259.727 261.484 262.227 261.953 264.609 261.68C269.062 261.172 273.516 261.445 277.852 261.914C285.859 262.773 293.672 264.844 301.211 267.891C309.453 271.211 316.992 275.82 323.828 281.289C335.039 290.273 343.906 301.289 350.898 313.867C355.703 322.539 360.078 331.367 363.203 340.781C365.859 348.789 367.734 356.953 368.789 365.352C369.531 371.328 370.234 377.266 370.117 383.32C369.961 392.617 368.516 401.719 365.977 410.664C364.258 416.68 362.227 422.617 359.336 428.203C355 436.602 349.531 444.18 342.93 450.977C335.43 458.75 327.109 465.469 317.695 470.781C311.172 474.492 304.336 477.539 297.266 480.039C289.297 482.891 281.133 484.961 272.969 487.07C272.656 487.148 272.344 487.305 272.07 487.695C288.125 486.289 303.867 483.32 319.414 479.141C334.883 474.961 349.844 469.375 364.609 462.383C364.18 463.984 363.125 464.063 362.344 464.492C347.695 472.305 332.305 478.32 316.445 483.008C307.109 485.742 297.617 487.852 287.969 489.414C281.211 490.508 274.375 490.977 267.617 492.109C267.5 492.109 267.383 492.109 267.266 492.109C258.828 492.031 250.352 493.75 241.992 492.695C236.719 492.031 231.445 492.227 226.172 491.68C221.289 491.133 216.406 490.313 211.523 489.844C207.109 489.453 202.773 488.398 198.398 487.5C188.125 485.352 178.008 482.617 168.125 479.102C160.977 476.563 153.945 473.672 146.992 470.625C133.242 464.57 120.43 456.914 108.164 448.32C102.656 444.453 97.3828 440.234 92.1484 436.016C85.2734 430.469 79.0625 424.219 72.8125 418.047C64.7266 410.078 57.6172 401.289 50.8984 392.148C44.4531 383.398 38.6719 374.258 33.4375 364.727C25.0781 349.414 18.5156 333.438 13.6719 316.68C11.6797 309.844 9.84375 303.008 8.51562 296.016C7.46094 290.234 6.44531 284.453 5.74219 278.633C5 272.422 4.17969 266.25 4.375 259.961C4.375 259.219 4.375 258.516 3.67188 258.008V237.695C4.375 237.227 4.375 236.484 4.375 235.742C4.41406 232.148 4.64844 228.555 4.96094 224.961C5.46875 219.336 6.44531 213.789 7.22656 208.203C8.86719 196.25 12.0703 184.688 15.6641 173.203C18.0859 165.508 21.0547 158.008 24.3359 150.625C29.1406 139.805 34.4141 129.258 40.8594 119.297C45.7031 111.836 50.7031 104.453 56.2891 97.5C61.6406 90.8203 67.2656 84.4141 73.0859 78.1641C78.2812 72.6172 84.1016 67.7344 89.8047 62.7344C95.8594 57.4219 102.227 52.4609 108.867 47.8516C123.086 38.0078 138.047 29.5312 154.102 23.0078C164.023 18.9453 174.141 15.3906 184.492 12.5781C192.383 10.4297 200.352 8.67188 208.438 7.30469C212.227 6.67969 216.055 6.17188 219.844 5.74219C223.789 5.3125 227.734 4.72656 231.719 4.92187C232.227 4.92187 232.617 4.64844 232.93 4.25781H264.844L264.922 4.49219ZM290.781 382.109C299.102 382.461 305.43 375.82 305.508 367.695C305.586 360.234 298.867 353.281 291.172 353.477C282.578 353.672 276.797 359.258 276.68 367.461C276.562 375.352 281.914 381.992 290.742 382.148L290.781 382.109ZM290.898 132.07C298.594 132.852 305.586 125.43 305.586 118.281C305.586 109.18 297.773 103.75 291.25 103.633C283.32 103.516 276.562 110.391 276.602 117.93C276.602 125.625 283.438 132.695 290.938 132.07H290.898Z" fill="black"/>
<path d="M398.398 56.25C437.734 87.1484 465.82 126.094 481.133 173.789C498.125 226.758 496.992 279.688 478.164 332.031C460.313 381.641 428.008 418.477 399.414 440.234C400.117 438.555 401.133 437.656 402.109 436.953C404.297 435.391 405.859 433.242 407.734 431.406C414.102 425.195 419.18 418.086 423.984 410.664C428.32 403.945 431.758 396.758 434.688 389.336C438.008 380.938 440.156 372.188 441.406 363.203C442.031 358.789 442.383 354.375 442.93 350C443.477 345.43 443.477 340.859 443.477 336.289C443.477 330.508 442.617 324.805 442.187 319.062C441.445 309.18 439.18 299.609 436.953 290.039C436.016 285.938 434.766 281.914 433.477 277.891C430.898 269.727 428.32 261.562 425.586 253.477C424.492 250.234 424.492 247.188 425.586 243.945C428.75 234.57 432.148 225.313 434.805 215.781C436.875 208.242 438.672 200.664 440 192.93C440.977 187.383 441.484 181.758 442.656 176.25C442.734 175.898 442.773 175.508 442.773 175.156C442.344 169.492 443.711 163.867 443.516 158.203C443.281 151.836 442.852 145.508 442.187 139.18C441.172 129.922 439.336 120.898 436.289 112.109C432.383 100.742 427.031 90.1562 420 80.3906C415.352 73.9062 410.234 67.8906 404.57 62.2656C402.539 60.2344 399.844 58.9453 398.516 56.2109L398.398 56.25Z" fill="black"/>
</svg>
