<svg xmlns="http://www.w3.org/2000/svg" viewBox="0 0 32 32" style="display:block;height:32px;width:32px;fill:currentColor" aria-hidden="true" role="presentation" focusable="false"><path d="M16 1a15 15 0 1 1 0 30 15 15 0 0 1 0-30zm4.4 21h-8.8c.89 4.18 2.63 7 4.4 7 1.77 0 3.51-2.82 4.4-7zM9.55 22H4.46a13.04 13.04 0 0 0 7.48 6.35A17.63 17.63 0 0 1 9.55 22zm17.98 0h-5.08a17.62 17.62 0 0 1-2.39 6.35A13.04 13.04 0 0 0 27.54 22zM9.23 12h-5.6A12.99 12.99 0 0 0 3 16a13 13 0 0 0 .63 4h5.6A33.06 33.06 0 0 1 9 16c0-1.38.08-2.72.24-4zm11.51 0h-9.48a30.45 30.45 0 0 0-.26 4c0 1.4.1 2.74.26 4h9.48c.17-1.26.26-2.6.26-4a30.31 30.31 0 0 0-.26-4zm7.63 0h-5.6a33.25 33.25 0 0 1 0 8h5.6a12.99 12.99 0 0 0 .63-4 13 13 0 0 0-.63-4zM11.94 3.65l-.05.01A13.04 13.04 0 0 0 4.46 10h5.1c.5-2.57 1.32-4.77 2.38-6.35zM16 3h-.13c-1.72.14-3.4 2.92-4.27 7h8.8c-.89-4.18-2.63-7-4.4-7zm4.06.65.04.05a17.74 17.74 0 0 1 2.35 6.3h5.09a13.04 13.04 0 0 0-7.48-6.35z"/></svg>