<svg width="204" height="197" viewBox="0 0 1054 197" fill="none" xmlns="http://www.w3.org/2000/svg">
<path d="M105.336 0.105967C105.336 0.105967 105.618 0.388557 105.83 0.388557C108.409 0.388557 110.917 0.918414 113.46 1.23633C117.84 1.80151 122.114 2.8259 126.389 4.06224C132.924 5.9344 139.141 8.58368 145.146 11.6922C145.322 11.7982 145.499 11.8688 145.64 11.9748C145.711 12.0101 145.746 12.1161 145.993 12.5046C141.754 10.5618 137.728 8.79562 133.559 7.38267C129.32 5.96972 125.011 4.80403 120.631 3.88561C116.357 3.00252 112.047 2.26072 107.667 1.94281C112.4 3.07317 117.063 4.41547 121.514 6.35828C125.788 8.23045 129.815 10.6325 133.418 13.6703C134.336 14.4474 135.255 15.2599 136.103 16.1077C141.86 21.7595 145.287 28.6476 146.912 36.5248C147.654 40.1278 147.936 43.7309 147.689 47.3692C147.406 51.3608 146.77 55.3524 145.64 59.2027C144.616 62.6998 143.238 66.0909 141.613 69.3406C138.681 75.1691 134.831 80.3617 129.921 84.6359C126.989 87.2145 123.669 89.228 119.995 90.6409C117.31 91.7006 114.555 92.4777 111.729 92.9016C108.727 93.3608 105.654 93.3962 102.58 93.0783C98.0942 92.5837 94.1027 90.9235 90.3937 88.5568C86.7553 86.2254 83.7174 83.1523 81.81 79.2313C80.3617 76.2994 79.4079 73.1909 79.302 69.8705C79.302 68.9521 78.9841 68.069 79.0194 67.1152C79.2666 61.3928 80.7856 56.0942 84.6005 51.6787C87.0026 48.9235 89.6872 46.4508 93.0783 44.8966C93.8201 44.5433 94.5265 44.1548 95.445 43.6956C94.4206 43.1304 93.5022 43.201 92.6191 43.0244C88.7334 42.3179 84.7772 42.3533 80.8562 42.4239C75.3457 42.5299 70.0825 43.7662 65.2078 46.4155C61.8873 48.217 59.1321 50.725 56.6947 53.6569C53.0564 58.037 51.0429 63.159 49.8066 68.5988C49.3474 70.577 49.1354 72.5904 48.8175 74.6039C48.5349 76.4407 48.8882 78.3129 48.323 80.1144C48.0757 80.9622 47.9344 81.1741 47.122 81.2801C46.7334 81.3154 46.3448 81.2801 45.9563 81.2801C39.2448 81.2801 32.4979 81.2801 25.7864 81.2801C25.4331 81.2801 25.1152 81.2801 24.762 81.2801C24.0555 81.2448 23.667 81.492 23.349 82.2338C22.254 84.9538 21.4062 87.709 20.8057 90.5703C19.9933 94.5265 20.0286 98.5181 20.2759 102.474C20.5231 106.431 21.5829 110.316 23.0311 114.025C23.6316 115.615 23.9142 115.756 25.6451 115.756C32.5332 115.756 39.3861 115.756 46.2742 115.756C46.6274 115.756 46.9454 115.756 47.2986 115.756C48.429 115.791 48.5703 115.933 48.6056 116.992C48.6056 117.381 48.6056 117.77 48.6056 118.158C48.6056 124.199 49.8772 129.992 52.2086 135.537C53.9041 139.6 56.2708 143.167 59.4147 146.205C63.265 149.879 67.8571 152.21 73.0497 153.411C75.1338 153.871 77.2532 154.118 79.3726 154.365C81.3154 154.577 83.2582 154.612 85.201 154.577C86.8259 154.577 88.4862 154.259 90.1111 154.118C91.9126 153.941 93.6434 153.553 95.7275 153.341C94.5265 152.74 93.5728 152.21 92.5837 151.751C90.3936 150.727 88.5215 149.243 86.8259 147.583C83.1169 143.98 80.609 139.67 79.6199 134.513C79.1254 131.934 78.9487 129.391 79.2313 126.742C79.7259 122.538 81.1035 118.723 83.3995 115.226C85.0951 112.648 87.3558 110.599 89.8285 108.727C93.5375 105.901 97.8116 104.594 102.298 103.817C103.252 103.64 104.241 103.817 105.23 103.746C107.031 103.534 108.833 103.64 110.564 103.852C113.778 104.205 116.922 105.018 119.995 106.254C123.315 107.596 126.353 109.433 129.109 111.659C133.63 115.297 137.198 119.712 140.024 124.799C141.966 128.296 143.733 131.864 144.969 135.643C146.029 138.858 146.806 142.143 147.23 145.534C147.512 147.936 147.795 150.338 147.76 152.775C147.689 156.52 147.124 160.193 146.099 163.797C145.393 166.234 144.58 168.601 143.415 170.861C141.648 174.252 139.458 177.29 136.809 180.045C133.771 183.189 130.416 185.874 126.636 188.029C124.022 189.512 121.267 190.749 118.405 191.773C115.191 192.903 111.906 193.751 108.621 194.599C108.479 194.599 108.373 194.705 108.267 194.846C114.732 194.281 121.09 193.08 127.342 191.384C133.595 189.689 139.6 187.463 145.569 184.638C145.393 185.273 144.969 185.309 144.651 185.485C138.752 188.629 132.535 191.066 126.141 192.939C122.362 194.034 118.547 194.881 114.661 195.517C111.941 195.977 109.186 196.153 106.466 196.612C106.431 196.612 106.36 196.612 106.325 196.612C102.934 196.612 99.5072 197.283 96.1161 196.86C93.9967 196.612 91.8772 196.683 89.7225 196.436C87.7444 196.224 85.8016 195.871 83.8234 195.694C82.0572 195.517 80.291 195.093 78.5248 194.74C74.392 193.892 70.2944 192.762 66.3028 191.349C63.4063 190.325 60.5803 189.159 57.7898 187.923C52.2439 185.485 47.0867 182.377 42.1413 178.95C39.9159 177.396 37.7965 175.701 35.6771 174.005C32.8865 171.78 30.4138 169.272 27.8705 166.764C24.6207 163.549 21.7595 160.017 19.0395 156.343C16.4609 152.811 14.0942 149.137 12.0101 145.287C8.61901 139.105 6.00505 132.676 4.06224 125.929C3.24979 123.174 2.50799 120.419 1.97813 117.593C1.55425 115.262 1.13036 112.93 0.847771 110.564C0.529856 108.056 0.211943 105.583 0.28259 103.04C0.28259 102.757 0.282591 102.439 0 102.262V94.0673C0.282591 93.8907 0.28259 93.5728 0.28259 93.2902C0.28259 91.8419 0.388561 90.3936 0.529856 88.9454C0.741799 86.6846 1.13036 84.4592 1.44828 82.1985C2.11943 77.3945 3.39109 72.6964 4.83936 68.1043C5.82843 64.9958 7.02944 61.9933 8.33642 58.9908C10.2792 54.6459 12.3987 50.3718 14.9773 46.3802C16.9201 43.3776 18.9336 40.4104 21.1943 37.5845C23.349 34.8999 25.6098 32.3213 27.9765 29.778C30.0606 27.5526 32.4273 25.5744 34.7233 23.561C37.1607 21.4062 39.7393 19.4281 42.3886 17.5559C48.111 13.5997 54.1514 10.1733 60.6157 7.55929C64.6073 5.9344 68.7048 4.48612 72.873 3.35576C76.0522 2.50799 79.2666 1.76619 82.5164 1.23633C84.0354 0.989061 85.5896 0.777124 87.1085 0.600505C88.6981 0.423886 90.2877 0.176619 91.8772 0.28259C92.0892 0.28259 92.2305 0.176619 92.3718 0H105.23L105.336 0.105967ZM115.756 152.316C119.112 152.458 121.655 149.773 121.691 146.488C121.691 143.485 119.006 140.695 115.933 140.765C112.471 140.836 110.14 143.097 110.104 146.382C110.034 149.561 112.224 152.246 115.791 152.316H115.756ZM115.791 51.5374C118.9 51.8554 121.726 48.8528 121.691 45.9916C121.691 42.3179 118.547 40.1279 115.897 40.0925C112.683 40.0572 109.998 42.8125 109.998 45.8503C109.998 48.9588 112.754 51.7847 115.756 51.5374H115.791Z" fill="black"/>
<path d="M159.134 20.947C174.994 33.4163 186.333 49.1001 192.479 68.3163C199.332 89.6872 198.873 110.987 191.278 132.111C184.072 152.104 171.038 166.94 159.522 175.736C159.805 175.065 160.229 174.712 160.617 174.429C161.5 173.793 162.136 172.945 162.878 172.204C165.457 169.696 167.506 166.834 169.413 163.832C171.179 161.112 172.557 158.215 173.722 155.248C175.065 151.857 175.948 148.325 176.442 144.722C176.69 142.955 176.831 141.154 177.043 139.388C177.255 137.551 177.255 135.714 177.255 133.877C177.255 131.546 176.902 129.25 176.725 126.918C176.407 122.927 175.524 119.077 174.606 115.226C174.217 113.566 173.722 111.941 173.193 110.316C172.168 107.031 171.109 103.746 170.014 100.461C169.59 99.154 169.59 97.9176 170.014 96.6106C171.285 92.831 172.663 89.0867 173.722 85.2364C174.57 82.1985 175.277 79.1253 175.807 76.0168C176.195 73.7915 176.407 71.4954 176.866 69.3053C176.866 69.164 176.937 69.0227 176.902 68.8814C176.725 66.5854 177.29 64.3247 177.184 62.0639C177.078 59.4853 176.937 56.942 176.654 54.3987C176.266 50.6544 175.489 47.016 174.288 43.4836C172.698 38.8915 170.543 34.6527 167.717 30.6964C165.845 28.0824 163.761 25.6451 161.5 23.3844C160.688 22.5719 159.593 22.0421 159.063 20.947H159.134Z" fill="black"/>
<path d="M259.032 144V54.4H272.728L328.92 123.392H322.136V54.4H338.648V144H324.952L268.76 75.008H275.544V144H259.032ZM406.049 144.896C398.454 144.896 391.798 143.403 386.081 140.416C380.449 137.344 376.054 133.163 372.897 127.872C369.825 122.581 368.289 116.565 368.289 109.824C368.289 102.997 369.782 96.9813 372.769 91.776C375.841 86.4853 380.022 82.3467 385.313 79.36C390.689 76.3733 396.79 74.88 403.617 74.88C410.273 74.88 416.204 76.3307 421.409 79.232C426.614 82.1333 430.71 86.2293 433.697 91.52C436.684 96.8107 438.177 103.04 438.177 110.208C438.177 110.891 438.134 111.659 438.049 112.512C438.049 113.365 438.006 114.176 437.921 114.944H380.961V104.32H429.473L423.201 107.648C423.286 103.723 422.476 100.267 420.769 97.28C419.062 94.2933 416.716 91.9467 413.729 90.24C410.828 88.5333 407.457 87.68 403.617 87.68C399.692 87.68 396.236 88.5333 393.249 90.24C390.348 91.9467 388.044 94.336 386.337 97.408C384.716 100.395 383.905 103.936 383.905 108.032V110.592C383.905 114.688 384.844 118.315 386.721 121.472C388.598 124.629 391.244 127.061 394.657 128.768C398.07 130.475 401.996 131.328 406.433 131.328C410.273 131.328 413.729 130.731 416.801 129.536C419.873 128.341 422.604 126.464 424.993 123.904L433.569 133.76C430.497 137.344 426.614 140.117 421.921 142.08C417.313 143.957 412.022 144.896 406.049 144.896ZM480.2 144L455.112 75.648H470.216L491.72 135.936H484.552L507.08 75.648H520.52L542.408 135.936H535.368L557.512 75.648H571.72L546.504 144H531.144L511.176 90.624H515.912L495.56 144H480.2ZM615.766 144.896C610.049 144.896 604.545 144.171 599.254 142.72C594.049 141.184 589.91 139.349 586.838 137.216L592.982 125.056C596.054 127.019 599.723 128.64 603.99 129.92C608.257 131.2 612.523 131.84 616.79 131.84C621.825 131.84 625.451 131.157 627.67 129.792C629.974 128.427 631.126 126.592 631.126 124.288C631.126 122.411 630.358 121.003 628.822 120.064C627.286 119.04 625.281 118.272 622.806 117.76C620.331 117.248 617.558 116.779 614.486 116.352C611.499 115.925 608.47 115.371 605.398 114.688C602.411 113.92 599.681 112.853 597.206 111.488C594.731 110.037 592.726 108.117 591.19 105.728C589.654 103.339 588.886 100.181 588.886 96.256C588.886 91.904 590.123 88.1493 592.598 84.992C595.073 81.7493 598.529 79.2747 602.966 77.568C607.489 75.776 612.822 74.88 618.966 74.88C623.574 74.88 628.225 75.392 632.918 76.416C637.611 77.44 641.494 78.8907 644.566 80.768L638.422 92.928C635.179 90.9653 631.894 89.6427 628.566 88.96C625.323 88.192 622.081 87.808 618.838 87.808C613.974 87.808 610.347 88.5333 607.958 89.984C605.654 91.4347 604.502 93.2693 604.502 95.488C604.502 97.536 605.27 99.072 606.806 100.096C608.342 101.12 610.347 101.931 612.822 102.528C615.297 103.125 618.027 103.637 621.014 104.064C624.086 104.405 627.115 104.96 630.102 105.728C633.089 106.496 635.819 107.563 638.294 108.928C640.854 110.208 642.902 112.043 644.438 114.432C645.974 116.821 646.742 119.936 646.742 123.776C646.742 128.043 645.462 131.755 642.902 134.912C640.427 138.069 636.886 140.544 632.278 142.336C627.67 144.043 622.166 144.896 615.766 144.896ZM673.321 144V75.648H688.553V94.464L686.761 88.96C688.809 84.352 692.009 80.8533 696.361 78.464C700.798 76.0747 706.302 74.88 712.873 74.88V90.112C712.19 89.9413 711.55 89.856 710.953 89.856C710.356 89.7707 709.758 89.728 709.161 89.728C703.102 89.728 698.281 91.52 694.697 95.104C691.113 98.6027 689.321 103.851 689.321 110.848V144H673.321ZM769.341 144.896C762.344 144.896 756.114 143.403 750.653 140.416C745.192 137.344 740.882 133.163 737.725 127.872C734.568 122.581 732.989 116.565 732.989 109.824C732.989 102.997 734.568 96.9813 737.725 91.776C740.882 86.4853 745.192 82.3467 750.653 79.36C756.114 76.3733 762.344 74.88 769.341 74.88C776.424 74.88 782.696 76.3733 788.157 79.36C793.704 82.3467 798.013 86.4427 801.085 91.648C804.242 96.8533 805.821 102.912 805.821 109.824C805.821 116.565 804.242 122.581 801.085 127.872C798.013 133.163 793.704 137.344 788.157 140.416C782.696 143.403 776.424 144.896 769.341 144.896ZM769.341 131.2C773.266 131.2 776.765 130.347 779.837 128.64C782.909 126.933 785.298 124.459 787.005 121.216C788.797 117.973 789.693 114.176 789.693 109.824C789.693 105.387 788.797 101.589 787.005 98.432C785.298 95.1893 782.909 92.7147 779.837 91.008C776.765 89.3013 773.309 88.448 769.469 88.448C765.544 88.448 762.045 89.3013 758.973 91.008C755.986 92.7147 753.597 95.1893 751.805 98.432C750.013 101.589 749.117 105.387 749.117 109.824C749.117 114.176 750.013 117.973 751.805 121.216C753.597 124.459 755.986 126.933 758.973 128.64C762.045 130.347 765.501 131.2 769.341 131.2ZM864.641 144.896C857.644 144.896 851.414 143.403 845.953 140.416C840.492 137.344 836.182 133.163 833.025 127.872C829.868 122.581 828.289 116.565 828.289 109.824C828.289 102.997 829.868 96.9813 833.025 91.776C836.182 86.4853 840.492 82.3467 845.953 79.36C851.414 76.3733 857.644 74.88 864.641 74.88C871.724 74.88 877.996 76.3733 883.457 79.36C889.004 82.3467 893.313 86.4427 896.385 91.648C899.542 96.8533 901.121 102.912 901.121 109.824C901.121 116.565 899.542 122.581 896.385 127.872C893.313 133.163 889.004 137.344 883.457 140.416C877.996 143.403 871.724 144.896 864.641 144.896ZM864.641 131.2C868.566 131.2 872.065 130.347 875.137 128.64C878.209 126.933 880.598 124.459 882.305 121.216C884.097 117.973 884.993 114.176 884.993 109.824C884.993 105.387 884.097 101.589 882.305 98.432C880.598 95.1893 878.209 92.7147 875.137 91.008C872.065 89.3013 868.609 88.448 864.769 88.448C860.844 88.448 857.345 89.3013 854.273 91.008C851.286 92.7147 848.897 95.1893 847.105 98.432C845.313 101.589 844.417 105.387 844.417 109.824C844.417 114.176 845.313 117.973 847.105 121.216C848.897 124.459 851.286 126.933 854.273 128.64C857.345 130.347 860.801 131.2 864.641 131.2ZM1015.49 74.88C1020.95 74.88 1025.78 75.9467 1029.96 78.08C1034.22 80.2133 1037.55 83.4987 1039.94 87.936C1042.33 92.288 1043.52 97.92 1043.52 104.832V144H1027.52V106.88C1027.52 100.821 1026.2 96.2987 1023.56 93.312C1020.91 90.3253 1017.11 88.832 1012.16 88.832C1008.67 88.832 1005.55 89.6 1002.82 91.136C1000.18 92.672 998.085 94.9333 996.549 97.92C995.098 100.907 994.373 104.704 994.373 109.312V144H978.373V106.88C978.373 100.821 977.05 96.2987 974.405 93.312C971.76 90.3253 967.962 88.832 963.013 88.832C959.514 88.832 956.4 89.6 953.669 91.136C951.024 92.672 948.933 94.9333 947.397 97.92C945.946 100.907 945.221 104.704 945.221 109.312V144H929.221V75.648H944.453V93.824L941.765 88.448C944.069 84.0107 947.397 80.64 951.749 78.336C956.186 76.032 961.221 74.88 966.853 74.88C973.253 74.88 978.8 76.4587 983.493 79.616C988.272 82.7733 991.429 87.552 992.965 93.952L986.693 91.776C988.912 86.656 992.581 82.56 997.701 79.488C1002.82 76.416 1008.75 74.88 1015.49 74.88Z" fill="black"/>
</svg>
