<svg width="1168" height="197" viewBox="0 0 1168 197" fill="none" xmlns="http://www.w3.org/2000/svg">
<path d="M105.336 0.105967C105.336 0.105967 105.618 0.388557 105.83 0.388557C108.409 0.388557 110.917 0.918414 113.46 1.23633C117.84 1.80151 122.114 2.8259 126.389 4.06224C132.924 5.9344 139.141 8.58369 145.146 11.6922C145.322 11.7982 145.499 11.8688 145.64 11.9748C145.711 12.0101 145.746 12.1161 145.993 12.5046C141.754 10.5618 137.728 8.79562 133.559 7.38267C129.321 5.96972 125.011 4.80403 120.631 3.88561C116.357 3.00252 112.047 2.26072 107.667 1.94281C112.4 3.07317 117.063 4.41547 121.514 6.35828C125.788 8.23045 129.815 10.6325 133.418 13.6703C134.336 14.4474 135.255 15.2599 136.103 16.1077C141.86 21.7595 145.287 28.6476 146.912 36.5248C147.654 40.1278 147.936 43.7309 147.689 47.3692C147.406 51.3608 146.77 55.3524 145.64 59.2027C144.616 62.6998 143.238 66.0909 141.613 69.3406C138.681 75.1691 134.831 80.3617 129.921 84.6359C126.989 87.2145 123.669 89.228 119.995 90.6409C117.31 91.7006 114.555 92.4777 111.729 92.9016C108.727 93.3608 105.654 93.3962 102.58 93.0783C98.0942 92.5837 94.1027 90.9235 90.3937 88.5568C86.7553 86.2254 83.7174 83.1523 81.81 79.2313C80.3617 76.2994 79.4079 73.1909 79.302 69.8705C79.302 68.9521 78.9841 68.069 79.0194 67.1152C79.2666 61.3928 80.7856 56.0942 84.6005 51.6787C87.0026 48.9235 89.6872 46.4508 93.0783 44.8966C93.8201 44.5433 94.5265 44.1548 95.445 43.6956C94.4206 43.1304 93.5021 43.201 92.6191 43.0244C88.7334 42.3179 84.7772 42.3533 80.8562 42.4239C75.3457 42.5299 70.0825 43.7662 65.2078 46.4155C61.8873 48.217 59.1321 50.725 56.6947 53.6569C53.0564 58.037 51.0429 63.159 49.8066 68.5988C49.3474 70.577 49.1354 72.5904 48.8175 74.6039C48.5349 76.4407 48.8882 78.3129 48.323 80.1144C48.0757 80.9622 47.9344 81.1741 47.122 81.2801C46.7334 81.3154 46.3448 81.2801 45.9563 81.2801C39.2448 81.2801 32.4979 81.2801 25.7864 81.2801C25.4331 81.2801 25.1152 81.2801 24.762 81.2801C24.0555 81.2448 23.667 81.492 23.349 82.2338C22.254 84.9538 21.4062 87.709 20.8057 90.5703C19.9933 94.5265 20.0286 98.5181 20.2759 102.474C20.5231 106.431 21.5829 110.316 23.0311 114.025C23.6316 115.615 23.9142 115.756 25.6451 115.756C32.5332 115.756 39.3861 115.756 46.2742 115.756C46.6274 115.756 46.9454 115.756 47.2986 115.756C48.429 115.791 48.5703 115.933 48.6056 116.992C48.6056 117.381 48.6056 117.77 48.6056 118.158C48.6056 124.199 49.8772 129.992 52.2086 135.537C53.9041 139.6 56.2708 143.167 59.4147 146.205C63.265 149.879 67.8571 152.21 73.0497 153.411C75.1338 153.871 77.2532 154.118 79.3726 154.365C81.3154 154.577 83.2582 154.612 85.201 154.577C86.8259 154.577 88.4862 154.259 90.1111 154.118C91.9126 153.941 93.6434 153.553 95.7275 153.341C94.5265 152.74 93.5728 152.21 92.5837 151.751C90.3936 150.727 88.5215 149.243 86.8259 147.583C83.1169 143.98 80.609 139.67 79.6199 134.513C79.1254 131.934 78.9487 129.391 79.2313 126.742C79.7259 122.538 81.1035 118.723 83.3995 115.226C85.0951 112.648 87.3558 110.599 89.8285 108.727C93.5375 105.901 97.8116 104.594 102.298 103.817C103.252 103.64 104.241 103.817 105.23 103.746C107.031 103.534 108.833 103.64 110.564 103.852C113.778 104.205 116.922 105.018 119.995 106.254C123.315 107.596 126.353 109.433 129.109 111.659C133.63 115.297 137.198 119.712 140.024 124.799C141.966 128.296 143.733 131.864 144.969 135.643C146.029 138.858 146.806 142.143 147.23 145.534C147.512 147.936 147.795 150.338 147.76 152.776C147.689 156.52 147.124 160.193 146.099 163.797C145.393 166.234 144.58 168.601 143.415 170.861C141.649 174.252 139.458 177.29 136.809 180.045C133.771 183.189 130.416 185.874 126.636 188.029C124.022 189.512 121.267 190.749 118.405 191.773C115.191 192.903 111.906 193.751 108.621 194.599C108.479 194.599 108.373 194.705 108.267 194.846C114.732 194.281 121.09 193.08 127.342 191.384C133.595 189.689 139.6 187.463 145.569 184.638C145.393 185.273 144.969 185.309 144.651 185.485C138.752 188.629 132.535 191.067 126.141 192.939C122.362 194.034 118.547 194.881 114.661 195.517C111.941 195.977 109.186 196.153 106.466 196.612C106.431 196.612 106.36 196.612 106.325 196.612C102.934 196.612 99.5072 197.283 96.1161 196.86C93.9967 196.612 91.8772 196.683 89.7225 196.436C87.7444 196.224 85.8016 195.871 83.8234 195.694C82.0572 195.517 80.291 195.093 78.5248 194.74C74.392 193.892 70.2944 192.762 66.3028 191.349C63.4063 190.325 60.5803 189.159 57.7898 187.923C52.2439 185.485 47.0867 182.377 42.1413 178.95C39.9159 177.396 37.7965 175.701 35.6771 174.005C32.8865 171.78 30.4138 169.272 27.8705 166.764C24.6207 163.549 21.7595 160.017 19.0395 156.343C16.4609 152.811 14.0942 149.137 12.0101 145.287C8.61901 139.105 6.00505 132.676 4.06224 125.929C3.24979 123.174 2.50799 120.419 1.97813 117.593C1.55425 115.262 1.13036 112.93 0.847771 110.564C0.529856 108.056 0.211943 105.583 0.28259 103.04C0.28259 102.757 0.282591 102.439 0 102.262V94.0673C0.282591 93.8907 0.28259 93.5728 0.28259 93.2902C0.28259 91.8419 0.388561 90.3936 0.529856 88.9454C0.741799 86.6846 1.13036 84.4592 1.44828 82.1985C2.11943 77.3945 3.39109 72.6964 4.83936 68.1043C5.82843 64.9958 7.02944 61.9933 8.33642 58.9908C10.2792 54.6459 12.3987 50.3718 14.9773 46.3802C16.9201 43.3776 18.9336 40.4104 21.1943 37.5845C23.349 34.8999 25.6098 32.3213 27.9765 29.778C30.0606 27.5526 32.4273 25.5744 34.7233 23.561C37.1607 21.4062 39.7393 19.4281 42.3886 17.5559C48.111 13.5997 54.1514 10.1733 60.6157 7.55929C64.6073 5.9344 68.7048 4.48612 72.873 3.35576C76.0522 2.50799 79.2666 1.76619 82.5164 1.23633C84.0354 0.989061 85.5896 0.777124 87.1085 0.600505C88.6981 0.423886 90.2877 0.176619 91.8772 0.28259C92.0892 0.28259 92.2305 0.176619 92.3718 0H105.23L105.336 0.105967ZM115.756 152.316C119.112 152.458 121.655 149.773 121.691 146.488C121.691 143.485 119.006 140.695 115.933 140.765C112.471 140.836 110.14 143.097 110.104 146.382C110.034 149.561 112.224 152.246 115.791 152.316H115.756ZM115.791 51.5374C118.9 51.8554 121.726 48.8528 121.691 45.9916C121.691 42.3179 118.547 40.1279 115.897 40.0925C112.683 40.0572 109.998 42.8125 109.998 45.8503C109.998 48.9588 112.754 51.7847 115.756 51.5374H115.791Z" fill="black"/>
<path d="M159.134 20.947C174.994 33.4163 186.333 49.1001 192.479 68.3163C199.332 89.6872 198.873 110.987 191.278 132.111C184.072 152.104 171.038 166.94 159.522 175.736C159.805 175.065 160.229 174.712 160.617 174.429C161.5 173.793 162.136 172.945 162.878 172.204C165.457 169.696 167.506 166.834 169.413 163.832C171.179 161.112 172.557 158.215 173.723 155.248C175.065 151.857 175.948 148.325 176.442 144.722C176.69 142.955 176.831 141.154 177.043 139.388C177.255 137.551 177.255 135.714 177.255 133.877C177.255 131.546 176.902 129.25 176.725 126.918C176.407 122.927 175.524 119.077 174.606 115.226C174.217 113.566 173.722 111.941 173.193 110.316C172.168 107.031 171.109 103.746 170.014 100.461C169.59 99.154 169.59 97.9176 170.014 96.6106C171.285 92.831 172.663 89.0867 173.723 85.2364C174.57 82.1985 175.277 79.1253 175.807 76.0169C176.195 73.7914 176.407 71.4954 176.866 69.3053C176.866 69.164 176.937 69.0227 176.902 68.8814C176.725 66.5854 177.29 64.3247 177.184 62.0639C177.078 59.4853 176.937 56.942 176.654 54.3987C176.266 50.6544 175.489 47.016 174.288 43.4836C172.698 38.8915 170.543 34.6527 167.717 30.6964C165.845 28.0824 163.761 25.6451 161.5 23.3844C160.688 22.5719 159.593 22.0421 159.063 20.947H159.134Z" fill="black"/>
<path d="M322.008 54.4H338.648V144H322.008V54.4ZM275.672 144H259.032V54.4H275.672V144ZM323.288 105.6H274.264V91.392H323.288V105.6ZM406.049 144.896C398.454 144.896 391.798 143.403 386.081 140.416C380.449 137.344 376.054 133.163 372.897 127.872C369.825 122.581 368.289 116.565 368.289 109.824C368.289 102.997 369.782 96.9813 372.769 91.776C375.841 86.4853 380.022 82.3467 385.313 79.36C390.689 76.3733 396.79 74.88 403.617 74.88C410.273 74.88 416.204 76.3307 421.409 79.232C426.614 82.1333 430.71 86.2293 433.697 91.52C436.684 96.8107 438.177 103.04 438.177 110.208C438.177 110.891 438.134 111.659 438.049 112.512C438.049 113.365 438.006 114.176 437.921 114.944H380.961V104.32H429.473L423.201 107.648C423.286 103.723 422.476 100.267 420.769 97.28C419.062 94.2933 416.716 91.9467 413.729 90.24C410.828 88.5333 407.457 87.68 403.617 87.68C399.692 87.68 396.236 88.5333 393.249 90.24C390.348 91.9467 388.044 94.336 386.337 97.408C384.716 100.395 383.905 103.936 383.905 108.032V110.592C383.905 114.688 384.844 118.315 386.721 121.472C388.598 124.629 391.244 127.061 394.657 128.768C398.07 130.475 401.996 131.328 406.433 131.328C410.273 131.328 413.729 130.731 416.801 129.536C419.873 128.341 422.604 126.464 424.993 123.904L433.569 133.76C430.497 137.344 426.614 140.117 421.921 142.08C417.313 143.957 412.022 144.896 406.049 144.896ZM466.346 144V49.024H482.346V144H466.346ZM554.034 144.896C548.487 144.896 543.41 143.616 538.802 141.056C534.279 138.496 530.653 134.656 527.922 129.536C525.277 124.331 523.954 117.76 523.954 109.824C523.954 101.803 525.234 95.232 527.794 90.112C530.439 84.992 534.023 81.1947 538.546 78.72C543.069 76.16 548.231 74.88 554.034 74.88C560.775 74.88 566.706 76.3307 571.826 79.232C577.031 82.1333 581.127 86.1867 584.114 91.392C587.186 96.5973 588.722 102.741 588.722 109.824C588.722 116.907 587.186 123.093 584.114 128.384C581.127 133.589 577.031 137.643 571.826 140.544C566.706 143.445 560.775 144.896 554.034 144.896ZM516.146 168.832V75.648H531.378V91.776L530.866 109.952L532.146 128.128V168.832H516.146ZM552.242 131.2C556.082 131.2 559.495 130.347 562.482 128.64C565.554 126.933 567.986 124.459 569.778 121.216C571.57 117.973 572.466 114.176 572.466 109.824C572.466 105.387 571.57 101.589 569.778 98.432C567.986 95.1893 565.554 92.7147 562.482 91.008C559.495 89.3013 556.082 88.448 552.242 88.448C548.402 88.448 544.946 89.3013 541.874 91.008C538.802 92.7147 536.37 95.1893 534.578 98.432C532.786 101.589 531.89 105.387 531.89 109.824C531.89 114.176 532.786 117.973 534.578 121.216C536.37 124.459 538.802 126.933 541.874 128.64C544.946 130.347 548.402 131.2 552.242 131.2ZM707.879 145.28C701.052 145.28 694.695 144.171 688.807 141.952C683.004 139.648 677.927 136.448 673.575 132.352C669.308 128.171 665.98 123.264 663.591 117.632C661.202 112 660.007 105.856 660.007 99.2C660.007 92.544 661.202 86.4 663.591 80.768C665.98 75.136 669.351 70.272 673.703 66.176C678.055 61.9947 683.132 58.7947 688.935 56.576C694.738 54.272 701.095 53.12 708.007 53.12C715.346 53.12 722.044 54.4 728.103 56.96C734.162 59.4347 739.282 63.1467 743.463 68.096L732.711 78.208C729.468 74.7093 725.842 72.1067 721.831 70.4C717.82 68.608 713.468 67.712 708.775 67.712C704.082 67.712 699.772 68.48 695.847 70.016C692.007 71.552 688.636 73.728 685.735 76.544C682.919 79.36 680.7 82.688 679.079 86.528C677.543 90.368 676.775 94.592 676.775 99.2C676.775 103.808 677.543 108.032 679.079 111.872C680.7 115.712 682.919 119.04 685.735 121.856C688.636 124.672 692.007 126.848 695.847 128.384C699.772 129.92 704.082 130.688 708.775 130.688C713.468 130.688 717.82 129.835 721.831 128.128C725.842 126.336 729.468 123.648 732.711 120.064L743.463 130.304C739.282 135.168 734.162 138.88 728.103 141.44C722.044 144 715.303 145.28 707.879 145.28ZM800.174 144.896C792.579 144.896 785.923 143.403 780.206 140.416C774.574 137.344 770.179 133.163 767.022 127.872C763.95 122.581 762.414 116.565 762.414 109.824C762.414 102.997 763.907 96.9813 766.894 91.776C769.966 86.4853 774.147 82.3467 779.438 79.36C784.814 76.3733 790.915 74.88 797.742 74.88C804.398 74.88 810.329 76.3307 815.534 79.232C820.739 82.1333 824.835 86.2293 827.822 91.52C830.809 96.8107 832.302 103.04 832.302 110.208C832.302 110.891 832.259 111.659 832.174 112.512C832.174 113.365 832.131 114.176 832.046 114.944H775.086V104.32H823.598L817.326 107.648C817.411 103.723 816.601 100.267 814.894 97.28C813.187 94.2933 810.841 91.9467 807.854 90.24C804.953 88.5333 801.582 87.68 797.742 87.68C793.817 87.68 790.361 88.5333 787.374 90.24C784.473 91.9467 782.169 94.336 780.462 97.408C778.841 100.395 778.03 103.936 778.03 108.032V110.592C778.03 114.688 778.969 118.315 780.846 121.472C782.723 124.629 785.369 127.061 788.782 128.768C792.195 130.475 796.121 131.328 800.558 131.328C804.398 131.328 807.854 130.731 810.926 129.536C813.998 128.341 816.729 126.464 819.118 123.904L827.694 133.76C824.622 137.344 820.739 140.117 816.046 142.08C811.438 143.957 806.147 144.896 800.174 144.896ZM899.255 74.88C904.716 74.88 909.58 75.9467 913.847 78.08C918.199 80.2133 921.612 83.4987 924.087 87.936C926.562 92.288 927.799 97.92 927.799 104.832V144H911.799V106.88C911.799 100.821 910.348 96.2987 907.447 93.312C904.631 90.3253 900.663 88.832 895.543 88.832C891.788 88.832 888.46 89.6 885.559 91.136C882.658 92.672 880.396 94.976 878.775 98.048C877.239 101.035 876.471 104.832 876.471 109.44V144H860.471V75.648H875.703V94.08L873.015 88.448C875.404 84.096 878.86 80.768 883.383 78.464C887.991 76.0747 893.282 74.88 899.255 74.88ZM986.624 144.896C979.115 144.896 973.312 142.976 969.216 139.136C965.12 135.211 963.072 129.451 963.072 121.856V60.544H979.072V121.472C979.072 124.715 979.883 127.232 981.504 129.024C983.211 130.816 985.557 131.712 988.544 131.712C992.128 131.712 995.115 130.773 997.504 128.896L1001.98 140.288C1000.11 141.824 997.803 142.976 995.072 143.744C992.341 144.512 989.525 144.896 986.624 144.896ZM951.808 88.96V76.16H997.376V88.96H951.808ZM1057.82 144.896C1050.23 144.896 1043.57 143.403 1037.86 140.416C1032.22 137.344 1027.83 133.163 1024.67 127.872C1021.6 122.581 1020.06 116.565 1020.06 109.824C1020.06 102.997 1021.56 96.9813 1024.54 91.776C1027.62 86.4853 1031.8 82.3467 1037.09 79.36C1042.46 76.3733 1048.57 74.88 1055.39 74.88C1062.05 74.88 1067.98 76.3307 1073.18 79.232C1078.39 82.1333 1082.49 86.2293 1085.47 91.52C1088.46 96.8107 1089.95 103.04 1089.95 110.208C1089.95 110.891 1089.91 111.659 1089.82 112.512C1089.82 113.365 1089.78 114.176 1089.7 114.944H1032.74V104.32H1081.25L1074.98 107.648C1075.06 103.723 1074.25 100.267 1072.54 97.28C1070.84 94.2933 1068.49 91.9467 1065.5 90.24C1062.6 88.5333 1059.23 87.68 1055.39 87.68C1051.47 87.68 1048.01 88.5333 1045.02 90.24C1042.12 91.9467 1039.82 94.336 1038.11 97.408C1036.49 100.395 1035.68 103.936 1035.68 108.032V110.592C1035.68 114.688 1036.62 118.315 1038.5 121.472C1040.37 124.629 1043.02 127.061 1046.43 128.768C1049.85 130.475 1053.77 131.328 1058.21 131.328C1062.05 131.328 1065.5 130.731 1068.58 129.536C1071.65 128.341 1074.38 126.464 1076.77 123.904L1085.34 133.76C1082.27 137.344 1078.39 140.117 1073.7 142.08C1069.09 143.957 1063.8 144.896 1057.82 144.896ZM1118.12 144V75.648H1133.35V94.464L1131.56 88.96C1133.61 84.352 1136.81 80.8533 1141.16 78.464C1145.6 76.0747 1151.1 74.88 1157.67 74.88V90.112C1156.99 89.9413 1156.35 89.856 1155.75 89.856C1155.16 89.7707 1154.56 89.728 1153.96 89.728C1147.9 89.728 1143.08 91.52 1139.5 95.104C1135.91 98.6027 1134.12 103.851 1134.12 110.848V144H1118.12Z" fill="black"/>
</svg>
