<svg width="1247" height="197" viewBox="0 0 1247 197" fill="none" xmlns="http://www.w3.org/2000/svg">
<path d="M105.168 0.105798C105.168 0.105798 105.45 0.387937 105.661 0.387937C108.236 0.387937 110.74 0.916948 113.279 1.23436C117.652 1.79863 121.92 2.82139 126.187 4.05576C132.711 5.92493 138.918 8.56999 144.914 11.6735C145.09 11.7793 145.267 11.8499 145.408 11.9557C145.478 11.9909 145.513 12.0967 145.76 12.4847C141.528 10.545 137.508 8.78159 133.346 7.37089C129.114 5.96019 124.812 4.79637 120.438 3.87941C116.171 2.99773 111.868 2.25711 107.495 1.93971C112.221 3.06827 116.876 4.40843 121.32 6.34814C125.587 8.21731 129.608 10.6155 133.205 13.6485C134.122 14.4244 135.039 15.2355 135.885 16.082C141.634 21.7247 145.055 28.6019 146.677 36.4665C147.418 40.0638 147.7 43.6611 147.453 47.2936C147.171 51.2789 146.536 55.2641 145.408 59.1083C144.385 62.5997 143.01 65.9854 141.387 69.23C138.46 75.0491 134.616 80.2335 129.714 84.5008C126.786 87.0753 123.471 89.0856 119.804 90.4963C117.123 91.5543 114.372 92.3302 111.551 92.7534C108.553 93.2119 105.485 93.2471 102.417 92.9297C97.9377 92.436 93.9525 90.7784 90.2494 88.4155C86.6169 86.0878 83.5839 83.0196 81.6794 79.1049C80.2335 76.1777 79.2812 73.0742 79.1754 69.759C79.1754 68.8421 78.858 67.9604 78.8933 67.0082C79.1402 61.2948 80.6567 56.0047 84.4655 51.5963C86.8637 48.8454 89.5441 46.3767 92.9297 44.8249C93.6703 44.4723 94.3757 44.0843 95.2927 43.6258C94.2699 43.0616 93.3529 43.1321 92.4713 42.9558C88.5918 42.2504 84.6419 42.2857 80.7272 42.3562C75.2255 42.462 69.9706 43.6964 65.1037 46.3414C61.7886 48.1401 59.0377 50.6441 56.6043 53.5713C52.9717 57.9444 50.9615 63.0582 49.7271 68.4894C49.2686 70.4644 49.057 72.4746 48.7396 74.4849C48.4575 76.3188 48.8102 78.1879 48.2459 79.9866C47.999 80.833 47.8579 81.0446 47.0468 81.1504C46.6588 81.1857 46.2709 81.1504 45.883 81.1504C39.1821 81.1504 32.4461 81.1504 25.7452 81.1504C25.3926 81.1504 25.0752 81.1504 24.7225 81.1504C24.0171 81.1151 23.6292 81.362 23.3118 82.1026C22.2185 84.8182 21.3721 87.5691 20.7725 90.4257C19.9614 94.3757 19.9966 98.3609 20.2435 102.311C20.4904 106.261 21.5484 110.14 22.9944 113.843C23.5939 115.43 23.8761 115.571 25.6042 115.571C32.4813 115.571 39.3232 115.571 46.2004 115.571C46.553 115.571 46.8704 115.571 47.2231 115.571C48.3517 115.607 48.4927 115.748 48.528 116.806C48.528 117.194 48.528 117.582 48.528 117.97C48.528 124 49.7976 129.784 52.1253 135.321C53.8181 139.377 56.181 142.939 59.3199 145.972C63.164 149.64 67.7488 151.967 72.9331 153.167C75.0139 153.625 77.1299 153.872 79.246 154.119C81.1857 154.33 83.1254 154.366 85.0651 154.33C86.6874 154.33 88.345 154.013 89.9673 153.872C91.7659 153.696 93.494 153.308 95.5748 153.096C94.3757 152.496 93.4235 151.967 92.436 151.509C90.2494 150.486 88.3802 149.005 86.6874 147.347C82.9843 143.75 80.4803 139.448 79.4928 134.298C78.9991 131.724 78.8228 129.185 79.1049 126.54C79.5986 122.343 80.9741 118.534 83.2665 115.042C84.9593 112.468 87.2164 110.422 89.6851 108.553C93.3882 105.732 97.6556 104.427 102.135 103.651C103.087 103.475 104.074 103.651 105.062 103.581C106.86 103.369 108.659 103.475 110.387 103.686C113.596 104.039 116.735 104.85 119.804 106.084C123.119 107.425 126.152 109.259 128.903 111.48C133.417 115.113 136.979 119.521 139.8 124.6C141.74 128.091 143.503 131.653 144.738 135.427C145.796 138.636 146.572 141.916 146.995 145.302C147.277 147.7 147.559 150.098 147.524 152.532C147.453 156.27 146.889 159.938 145.866 163.535C145.161 165.969 144.35 168.332 143.186 170.589C141.422 173.974 139.236 177.007 136.591 179.758C133.558 182.897 130.207 185.577 126.434 187.729C123.824 189.21 121.073 190.444 118.216 191.467C115.007 192.596 111.727 193.442 108.447 194.288C108.306 194.288 108.201 194.394 108.095 194.535C114.549 193.971 120.897 192.772 127.139 191.079C133.382 189.386 139.377 187.164 145.337 184.343C145.161 184.978 144.738 185.013 144.42 185.189C138.531 188.328 132.323 190.762 125.94 192.631C122.166 193.724 118.358 194.571 114.478 195.205C111.763 195.664 109.012 195.84 106.296 196.299C106.261 196.299 106.19 196.299 106.155 196.299C102.769 196.299 99.3484 196.969 95.9627 196.546C93.8467 196.299 91.7306 196.369 89.5793 196.122C87.6043 195.911 85.6646 195.558 83.6897 195.382C81.9263 195.205 80.1629 194.782 78.3995 194.429C74.2732 193.583 70.1822 192.454 66.197 191.044C63.3051 190.021 60.4837 188.857 57.6975 187.623C52.1606 185.189 47.0115 182.086 42.0741 178.665C39.8522 177.113 37.7362 175.42 35.6201 173.727C32.834 171.506 30.3653 169.002 27.826 166.498C24.5814 163.288 21.7247 159.762 19.0092 156.094C16.4346 152.567 14.0717 148.899 11.9909 145.055C8.60526 138.883 5.99547 132.465 4.05576 125.728C3.2446 122.978 2.50399 120.227 1.97498 117.405C1.55177 115.078 1.12856 112.75 0.846418 110.387C0.529011 107.883 0.211604 105.414 0.282139 102.875C0.282139 102.593 0.28214 102.276 0 102.099V93.9172C0.28214 93.7409 0.282139 93.4235 0.282139 93.1413C0.282139 91.6954 0.387941 90.2494 0.52901 88.8034C0.740615 86.5463 1.12856 84.3245 1.44596 82.0674C2.11605 77.271 3.38567 72.5804 4.83164 67.9957C5.81913 64.8921 7.01822 61.8944 8.32312 58.8966C10.2628 54.5587 12.3789 50.2914 14.9534 46.3062C16.8931 43.3084 18.9034 40.346 21.1605 37.5246C23.3118 34.8442 25.5689 32.2697 27.9318 29.7305C30.0126 27.5086 32.3755 25.5336 34.6679 23.5234C37.1014 21.3721 39.6759 19.3971 42.3209 17.5279C48.0343 13.578 54.065 10.157 60.5189 7.54723C64.5042 5.92493 68.5952 4.47896 72.7567 3.3504C75.9308 2.50399 79.1402 1.76337 82.3848 1.23436C83.9013 0.987483 85.453 0.775884 86.9695 0.599547C88.5566 0.42321 90.1436 0.176337 91.7306 0.282139C91.9422 0.282139 92.0833 0.176337 92.2244 0H105.062L105.168 0.105798ZM115.571 152.073C118.922 152.214 121.461 149.534 121.496 146.254C121.496 143.256 118.816 140.47 115.748 140.541C112.292 140.611 109.964 142.868 109.929 146.148C109.858 149.322 112.045 152.003 115.607 152.073H115.571ZM115.607 51.4552C118.71 51.7726 121.532 48.7749 121.496 45.9182C121.496 42.2504 118.358 40.0638 115.713 40.0286C112.503 39.9933 109.823 42.7441 109.823 45.7771C109.823 48.8807 112.574 51.7021 115.571 51.4552H115.607Z" fill="#FF0077"/>
<path d="M158.88 20.9136C174.715 33.363 186.036 49.0217 192.173 68.2072C199.014 89.544 198.556 110.81 190.973 131.9C183.779 151.862 170.765 166.674 159.268 175.456C159.55 174.785 159.973 174.433 160.361 174.151C161.243 173.516 161.878 172.669 162.618 171.929C165.193 169.425 167.238 166.568 169.143 163.57C170.906 160.855 172.282 157.963 173.446 155C174.786 151.615 175.667 148.088 176.161 144.491C176.408 142.727 176.549 140.929 176.761 139.165C176.972 137.331 176.972 135.498 176.972 133.664C176.972 131.336 176.62 129.044 176.443 126.716C176.126 122.731 175.244 118.887 174.327 115.042C173.939 113.385 173.446 111.763 172.917 110.14C171.894 106.86 170.836 103.58 169.742 100.301C169.319 98.9957 169.319 97.7614 169.742 96.4565C171.012 92.6828 172.388 88.9445 173.446 85.1003C174.292 82.0673 174.997 78.9991 175.526 75.8955C175.914 73.6737 176.126 71.3813 176.584 69.1947C176.584 69.0537 176.655 68.9126 176.62 68.7715C176.443 66.4791 177.008 64.222 176.902 61.9649C176.796 59.3904 176.655 56.8511 176.373 54.3119C175.985 50.5735 175.209 46.941 174.01 43.4142C172.423 38.8294 170.271 34.5974 167.45 30.6474C165.581 28.0376 163.5 25.6042 161.243 23.347C160.432 22.5359 159.339 22.0069 158.81 20.9136H158.88Z" fill="#FF0077"/>
<path d="M248.032 144V54.4H290.016C300.768 54.4 308.96 56.5333 314.592 60.8C320.224 64.9813 323.04 70.6133 323.04 77.696C323.04 82.4747 321.931 86.5707 319.712 89.984C317.493 93.312 314.507 95.9147 310.752 97.792C307.083 99.584 303.072 100.48 298.72 100.48L301.024 95.872C306.059 95.872 310.581 96.8107 314.592 98.688C318.603 100.48 321.76 103.125 324.064 106.624C326.453 110.123 327.648 114.475 327.648 119.68C327.648 127.36 324.704 133.333 318.816 137.6C312.928 141.867 304.181 144 292.576 144H248.032ZM264.672 130.944H291.552C297.781 130.944 302.56 129.92 305.888 127.872C309.216 125.824 310.88 122.539 310.88 118.016C310.88 113.579 309.216 110.336 305.888 108.288C302.56 106.155 297.781 105.088 291.552 105.088H263.392V92.16H288.224C294.027 92.16 298.464 91.136 301.536 89.088C304.693 87.04 306.272 83.968 306.272 79.872C306.272 75.6907 304.693 72.576 301.536 70.528C298.464 68.48 294.027 67.456 288.224 67.456H264.672V130.944ZM388.799 144.896C381.204 144.896 374.548 143.403 368.831 140.416C363.199 137.344 358.804 133.163 355.647 127.872C352.575 122.581 351.039 116.565 351.039 109.824C351.039 102.997 352.532 96.9813 355.519 91.776C358.591 86.4853 362.772 82.3467 368.063 79.36C373.439 76.3733 379.54 74.88 386.367 74.88C393.023 74.88 398.954 76.3307 404.159 79.232C409.364 82.1333 413.46 86.2293 416.447 91.52C419.434 96.8107 420.927 103.04 420.927 110.208C420.927 110.891 420.884 111.659 420.799 112.512C420.799 113.365 420.756 114.176 420.671 114.944H363.711V104.32H412.223L405.951 107.648C406.036 103.723 405.226 100.267 403.519 97.28C401.812 94.2933 399.466 91.9467 396.479 90.24C393.578 88.5333 390.207 87.68 386.367 87.68C382.442 87.68 378.986 88.5333 375.999 90.24C373.098 91.9467 370.794 94.336 369.087 97.408C367.466 100.395 366.655 103.936 366.655 108.032V110.592C366.655 114.688 367.594 118.315 369.471 121.472C371.348 124.629 373.994 127.061 377.407 128.768C380.82 130.475 384.746 131.328 389.183 131.328C393.023 131.328 396.479 130.731 399.551 129.536C402.623 128.341 405.354 126.464 407.743 123.904L416.319 133.76C413.247 137.344 409.364 140.117 404.671 142.08C400.063 143.957 394.772 144.896 388.799 144.896ZM489.333 144V130.176L488.437 127.232V103.04C488.437 98.3467 487.029 94.72 484.213 92.16C481.397 89.5147 477.13 88.192 471.413 88.192C467.573 88.192 463.776 88.7893 460.021 89.984C456.352 91.1787 453.237 92.8427 450.677 94.976L444.405 83.328C448.074 80.512 452.426 78.4213 457.461 77.056C462.581 75.6053 467.872 74.88 473.333 74.88C483.232 74.88 490.869 77.2693 496.245 82.048C501.706 86.7413 504.437 94.0373 504.437 103.936V144H489.333ZM467.829 144.896C462.709 144.896 458.229 144.043 454.389 142.336C450.549 140.544 447.562 138.112 445.429 135.04C443.381 131.883 442.357 128.341 442.357 124.416C442.357 120.576 443.253 117.12 445.045 114.048C446.922 110.976 449.952 108.544 454.133 106.752C458.314 104.96 463.861 104.064 470.773 104.064H490.613V114.688H471.925C466.464 114.688 462.794 115.584 460.917 117.376C459.04 119.083 458.101 121.216 458.101 123.776C458.101 126.677 459.253 128.981 461.557 130.688C463.861 132.395 467.061 133.248 471.157 133.248C475.082 133.248 478.581 132.352 481.653 130.56C484.81 128.768 487.072 126.123 488.437 122.624L491.125 132.224C489.589 136.235 486.816 139.349 482.805 141.568C478.88 143.787 473.888 144.896 467.829 144.896ZM566.699 144.896C560.896 144.896 555.776 143.829 551.339 141.696C546.902 139.477 543.446 136.149 540.971 131.712C538.496 127.189 537.259 121.515 537.259 114.688V75.648H553.259V112.512C553.259 118.656 554.624 123.264 557.355 126.336C560.171 129.323 564.139 130.816 569.259 130.816C573.014 130.816 576.256 130.048 578.987 128.512C581.803 126.976 583.979 124.672 585.515 121.6C587.136 118.528 587.947 114.731 587.947 110.208V75.648H603.947V144H588.715V125.568L591.403 131.2C589.099 135.637 585.728 139.051 581.291 141.44C576.854 143.744 571.99 144.896 566.699 144.896ZM663.424 144.896C655.915 144.896 650.112 142.976 646.016 139.136C641.92 135.211 639.872 129.451 639.872 121.856V60.544H655.872V121.472C655.872 124.715 656.683 127.232 658.304 129.024C660.011 130.816 662.357 131.712 665.344 131.712C668.928 131.712 671.915 130.773 674.304 128.896L678.784 140.288C676.907 141.824 674.603 142.976 671.872 143.744C669.141 144.512 666.325 144.896 663.424 144.896ZM628.608 88.96V76.16H674.176V88.96H628.608ZM733.216 144.896C726.219 144.896 719.989 143.403 714.528 140.416C709.067 137.344 704.757 133.163 701.6 127.872C698.443 122.581 696.864 116.565 696.864 109.824C696.864 102.997 698.443 96.9813 701.6 91.776C704.757 86.4853 709.067 82.3467 714.528 79.36C719.989 76.3733 726.219 74.88 733.216 74.88C740.299 74.88 746.571 76.3733 752.032 79.36C757.579 82.3467 761.888 86.4427 764.96 91.648C768.117 96.8533 769.696 102.912 769.696 109.824C769.696 116.565 768.117 122.581 764.96 127.872C761.888 133.163 757.579 137.344 752.032 140.416C746.571 143.403 740.299 144.896 733.216 144.896ZM733.216 131.2C737.141 131.2 740.64 130.347 743.712 128.64C746.784 126.933 749.173 124.459 750.88 121.216C752.672 117.973 753.568 114.176 753.568 109.824C753.568 105.387 752.672 101.589 750.88 98.432C749.173 95.1893 746.784 92.7147 743.712 91.008C740.64 89.3013 737.184 88.448 733.344 88.448C729.419 88.448 725.92 89.3013 722.848 91.008C719.861 92.7147 717.472 95.1893 715.68 98.432C713.888 101.589 712.992 105.387 712.992 109.824C712.992 114.176 713.888 117.973 715.68 121.216C717.472 124.459 719.861 126.933 722.848 128.64C725.92 130.347 729.376 131.2 733.216 131.2ZM836.58 74.88C842.041 74.88 846.905 75.9467 851.172 78.08C855.524 80.2133 858.937 83.4987 861.412 87.936C863.887 92.288 865.124 97.92 865.124 104.832V144H849.124V106.88C849.124 100.821 847.673 96.2987 844.772 93.312C841.956 90.3253 837.988 88.832 832.868 88.832C829.113 88.832 825.785 89.6 822.884 91.136C819.983 92.672 817.721 94.976 816.1 98.048C814.564 101.035 813.796 104.832 813.796 109.44V144H797.796V75.648H813.028V94.08L810.34 88.448C812.729 84.096 816.185 80.768 820.708 78.464C825.316 76.0747 830.607 74.88 836.58 74.88ZM929.066 144.896C922.069 144.896 915.839 143.403 910.378 140.416C904.917 137.344 900.607 133.163 897.45 127.872C894.293 122.581 892.714 116.565 892.714 109.824C892.714 102.997 894.293 96.9813 897.45 91.776C900.607 86.4853 904.917 82.3467 910.378 79.36C915.839 76.3733 922.069 74.88 929.066 74.88C936.149 74.88 942.421 76.3733 947.882 79.36C953.429 82.3467 957.738 86.4427 960.81 91.648C963.967 96.8533 965.546 102.912 965.546 109.824C965.546 116.565 963.967 122.581 960.81 127.872C957.738 133.163 953.429 137.344 947.882 140.416C942.421 143.403 936.149 144.896 929.066 144.896ZM929.066 131.2C932.991 131.2 936.49 130.347 939.562 128.64C942.634 126.933 945.023 124.459 946.73 121.216C948.522 117.973 949.418 114.176 949.418 109.824C949.418 105.387 948.522 101.589 946.73 98.432C945.023 95.1893 942.634 92.7147 939.562 91.008C936.49 89.3013 933.034 88.448 929.194 88.448C925.269 88.448 921.77 89.3013 918.698 91.008C915.711 92.7147 913.322 95.1893 911.53 98.432C909.738 101.589 908.842 105.387 908.842 109.824C908.842 114.176 909.738 117.973 911.53 121.216C913.322 124.459 915.711 126.933 918.698 128.64C921.77 130.347 925.226 131.2 929.066 131.2ZM1079.92 74.88C1085.38 74.88 1090.2 75.9467 1094.38 78.08C1098.65 80.2133 1101.98 83.4987 1104.37 87.936C1106.76 92.288 1107.95 97.92 1107.95 104.832V144H1091.95V106.88C1091.95 100.821 1090.63 96.2987 1087.98 93.312C1085.34 90.3253 1081.54 88.832 1076.59 88.832C1073.09 88.832 1069.98 89.6 1067.25 91.136C1064.6 92.672 1062.51 94.9333 1060.97 97.92C1059.52 100.907 1058.8 104.704 1058.8 109.312V144H1042.8V106.88C1042.8 100.821 1041.48 96.2987 1038.83 93.312C1036.18 90.3253 1032.39 88.832 1027.44 88.832C1023.94 88.832 1020.82 89.6 1018.09 91.136C1015.45 92.672 1013.36 94.9333 1011.82 97.92C1010.37 100.907 1009.65 104.704 1009.65 109.312V144H993.646V75.648H1008.88V93.824L1006.19 88.448C1008.49 84.0107 1011.82 80.64 1016.17 78.336C1020.61 76.032 1025.65 74.88 1031.28 74.88C1037.68 74.88 1043.22 76.4587 1047.92 79.616C1052.7 82.7733 1055.85 87.552 1057.39 93.952L1051.12 91.776C1053.34 86.656 1057.01 82.56 1062.13 79.488C1067.25 76.416 1073.18 74.88 1079.92 74.88ZM1141.2 144V75.648H1157.2V144H1141.2ZM1149.26 64.384C1146.27 64.384 1143.8 63.4453 1141.84 61.568C1139.96 59.6907 1139.02 57.4293 1139.02 54.784C1139.02 52.0533 1139.96 49.792 1141.84 48C1143.8 46.1227 1146.27 45.184 1149.26 45.184C1152.25 45.184 1154.68 46.08 1156.56 47.872C1158.52 49.5787 1159.5 51.7547 1159.5 54.4C1159.5 57.216 1158.56 59.6053 1156.68 61.568C1154.81 63.4453 1152.33 64.384 1149.26 64.384Z" fill="#FF0077"/>
</svg>
