<svg width="82" height="38" viewBox="0 0 82 38" fill="none" xmlns="http://www.w3.org/2000/svg">
<path d="M14 7L17.1432 16.6738H27.3148L19.0858 22.6525L22.229 32.3262L14 26.3475L5.77101 32.3262L8.9142 22.6525L0.685208 16.6738H10.8568L14 7Z" fill="#FCC913"/>
<path d="M40 0L44.2658 13.1287H58.0701L46.9022 21.2426L51.1679 34.3713L40 26.2574L28.8321 34.3713L33.0978 21.2426L21.9299 13.1287H35.7342L40 0Z" fill="black"/>
<path d="M68 6L71.1432 15.6738H81.3148L73.0858 21.6525L76.229 31.3262L68 25.3475L59.771 31.3262L62.9142 21.6525L54.6852 15.6738H64.8568L68 6Z" fill="#FCC913"/>
</svg>
