<svg width="1258" height="197" viewBox="0 0 1258 197" fill="none" xmlns="http://www.w3.org/2000/svg">
<path d="M105.168 0.105798C105.168 0.105798 105.45 0.387938 105.661 0.387938C108.236 0.387938 110.74 0.916949 113.279 1.23436C117.652 1.79864 121.92 2.8214 126.187 4.05576C132.712 5.92494 138.919 8.57 144.914 11.6735C145.09 11.7793 145.267 11.8499 145.408 11.9557C145.478 11.9909 145.514 12.0967 145.761 12.4847C141.528 10.545 137.508 8.7816 133.346 7.3709C129.114 5.9602 124.812 4.79637 120.438 3.87942C116.171 2.99773 111.868 2.25712 107.495 1.93971C112.221 3.06827 116.876 4.40843 121.32 6.34814C125.588 8.21732 129.608 10.6155 133.205 13.6485C134.122 14.4244 135.039 15.2356 135.886 16.082C141.634 21.7248 145.055 28.6019 146.677 36.4666C147.418 40.0639 147.7 43.6611 147.453 47.2937C147.171 51.2789 146.536 55.2641 145.408 59.1083C144.385 62.5998 143.01 65.9855 141.387 69.2301C138.46 75.0492 134.616 80.2335 129.714 84.5009C126.787 87.0754 123.471 89.0857 119.804 90.4964C117.123 91.5544 114.372 92.3303 111.551 92.7535C108.553 93.212 105.485 93.2472 102.417 92.9298C97.9378 92.4361 93.9526 90.7785 90.2495 88.4156C86.617 86.0879 83.5839 83.0197 81.6795 79.105C80.2335 76.1778 79.2813 73.0742 79.1755 69.7591C79.1755 68.8421 78.8581 67.9604 78.8934 67.0082C79.1402 61.2949 80.6567 56.0048 84.4656 51.5963C86.8638 48.8455 89.5441 46.3767 92.9298 44.825C93.6704 44.4723 94.3758 44.0844 95.2927 43.6259C94.27 43.0616 93.353 43.1321 92.4714 42.9558C88.5919 42.2504 84.642 42.2857 80.7273 42.3563C75.2255 42.4621 69.9707 43.6964 65.1038 46.3415C61.7886 48.1401 59.0378 50.6441 56.6043 53.5713C52.9718 57.9445 50.9615 63.0583 49.7272 68.4895C49.2687 70.4644 49.0571 72.4747 48.7397 74.4849C48.4575 76.3188 48.8102 78.188 48.2459 79.9866C47.9991 80.8331 47.858 81.0447 47.0468 81.1505C46.6589 81.1858 46.2709 81.1505 45.883 81.1505C39.1822 81.1505 32.4461 81.1505 25.7453 81.1505C25.3926 81.1505 25.0752 81.1505 24.7225 81.1505C24.0172 81.1152 23.6292 81.3621 23.3118 82.1027C22.2185 84.8183 21.3721 87.5692 20.7725 90.4258C19.9614 94.3758 19.9967 98.361 20.2435 102.311C20.4904 106.261 21.5484 110.14 22.9944 113.843C23.594 115.43 23.8761 115.572 25.6042 115.572C32.4814 115.572 39.3232 115.572 46.2004 115.572C46.5531 115.572 46.8705 115.572 47.2232 115.572C48.3517 115.607 48.4928 115.748 48.5281 116.806C48.5281 117.194 48.5281 117.582 48.5281 117.97C48.5281 124 49.7977 129.784 52.1253 135.321C53.8182 139.377 56.1811 142.939 59.3199 145.972C63.1641 149.64 67.7488 151.968 72.9332 153.167C75.0139 153.625 77.13 153.872 79.246 154.119C81.1858 154.331 83.1255 154.366 85.0652 154.33C86.6875 154.33 88.345 154.013 89.9674 153.872C91.766 153.696 93.4941 153.308 95.5749 153.096C94.3758 152.497 93.4236 151.968 92.4361 151.509C90.2495 150.486 88.3803 149.005 86.6875 147.348C82.9844 143.75 80.4804 139.448 79.4929 134.299C78.9992 131.724 78.8228 129.185 79.105 126.54C79.5987 122.343 80.9742 118.534 83.2665 115.043C84.9594 112.468 87.2165 110.422 89.6852 108.553C93.3883 105.732 97.6557 104.427 102.135 103.651C103.087 103.475 104.074 103.651 105.062 103.581C106.86 103.369 108.659 103.475 110.387 103.686C113.597 104.039 116.735 104.85 119.804 106.085C123.119 107.425 126.152 109.259 128.903 111.481C133.417 115.113 136.979 119.522 139.8 124.6C141.74 128.092 143.503 131.654 144.738 135.427C145.796 138.636 146.572 141.916 146.995 145.302C147.277 147.7 147.559 150.098 147.524 152.532C147.453 156.27 146.889 159.938 145.866 163.535C145.161 165.969 144.35 168.332 143.186 170.589C141.423 173.974 139.236 177.007 136.591 179.758C133.558 182.897 130.208 185.577 126.434 187.729C123.824 189.21 121.073 190.444 118.217 191.467C115.007 192.596 111.727 193.442 108.448 194.289C108.306 194.289 108.201 194.394 108.095 194.535C114.549 193.971 120.897 192.772 127.139 191.079C133.382 189.386 139.377 187.165 145.337 184.343C145.161 184.978 144.738 185.013 144.42 185.19C138.531 188.328 132.324 190.762 125.94 192.631C122.167 193.724 118.358 194.571 114.478 195.206C111.763 195.664 109.012 195.84 106.296 196.299C106.261 196.299 106.19 196.299 106.155 196.299C102.769 196.299 99.3485 196.969 95.9628 196.546C93.8468 196.299 91.7307 196.369 89.5794 196.122C87.6044 195.911 85.6647 195.558 83.6897 195.382C81.9264 195.206 80.163 194.782 78.3996 194.43C74.2733 193.583 70.1823 192.455 66.1971 191.044C63.3051 190.021 60.4837 188.857 57.6976 187.623C52.1606 185.19 47.0116 182.086 42.0741 178.665C39.8523 177.113 37.7362 175.42 35.6202 173.728C32.834 171.506 30.3653 169.002 27.826 166.498C24.5814 163.288 21.7248 159.762 19.0092 156.094C16.4346 152.567 14.0717 148.899 11.9909 145.055C8.60527 138.883 5.99547 132.465 4.05576 125.729C3.24461 122.978 2.50399 120.227 1.97498 117.405C1.55177 115.078 1.12856 112.75 0.846419 110.387C0.529011 107.883 0.211605 105.415 0.28214 102.875C0.28214 102.593 0.28214 102.276 0 102.099V93.9173C0.28214 93.741 0.28214 93.4236 0.28214 93.1414C0.28214 91.6954 0.387941 90.2495 0.529011 88.8035C0.740616 86.5464 1.12856 84.3245 1.44597 82.0674C2.11605 77.271 3.38568 72.5805 4.83165 67.9957C5.81913 64.8922 7.01823 61.8944 8.32313 58.8967C10.2628 54.5588 12.3789 50.2914 14.9534 46.3062C16.8931 43.3085 18.9034 40.346 21.1605 37.5246C23.3118 34.8443 25.5689 32.2697 27.9319 29.7305C30.0126 27.5086 32.3756 25.5337 34.6679 23.5234C37.1014 21.3721 39.6759 19.3971 42.321 17.5279C48.0343 13.578 54.0651 10.157 60.519 7.54724C64.5042 5.92494 68.5953 4.47897 72.7568 3.35041C75.9309 2.50399 79.1402 1.76337 82.3848 1.23436C83.9014 0.987484 85.4531 0.775885 86.9696 0.599548C88.5567 0.42321 90.1437 0.176337 91.7307 0.28214C91.9423 0.28214 92.0834 0.176337 92.2245 0H105.062L105.168 0.105798ZM115.572 152.073C118.922 152.214 121.461 149.534 121.496 146.254C121.496 143.257 118.816 140.47 115.748 140.541C112.292 140.611 109.964 142.869 109.929 146.148C109.858 149.323 112.045 152.003 115.607 152.073H115.572ZM115.607 51.4553C118.71 51.7727 121.532 48.7749 121.496 45.9183C121.496 42.2504 118.358 40.0639 115.713 40.0286C112.503 39.9933 109.823 42.7442 109.823 45.7772C109.823 48.8807 112.574 51.7021 115.572 51.4553H115.607Z" fill="#FF0077"/>
<path d="M158.88 20.9141C174.715 33.3635 186.036 49.0223 192.173 68.2078C199.014 89.5446 198.556 110.811 190.973 131.901C183.779 151.862 170.765 166.675 159.268 175.456C159.55 174.786 159.973 174.433 160.361 174.151C161.243 173.516 161.878 172.67 162.618 171.929C165.193 169.425 167.238 166.569 169.143 163.571C170.906 160.855 172.282 157.964 173.445 155.001C174.786 151.615 175.667 148.089 176.161 144.491C176.408 142.728 176.549 140.929 176.761 139.166C176.972 137.332 176.972 135.498 176.972 133.664C176.972 131.337 176.62 129.044 176.443 126.717C176.126 122.731 175.244 118.887 174.327 115.043C173.939 113.385 173.445 111.763 172.916 110.141C171.894 106.861 170.836 103.581 169.742 100.301C169.319 98.9963 169.319 97.7619 169.742 96.457C171.012 92.6834 172.387 88.9451 173.445 85.1009C174.292 82.0679 174.997 78.9996 175.526 75.8961C175.914 73.6742 176.126 71.3818 176.584 69.1953C176.584 69.0542 176.655 68.9131 176.62 68.772C176.443 66.4797 177.007 64.2225 176.902 61.9654C176.796 59.3909 176.655 56.8516 176.373 54.3124C175.985 50.574 175.209 46.9415 174.01 43.4147C172.423 38.83 170.271 34.5979 167.45 30.6479C165.581 28.0381 163.5 25.6046 161.243 23.3475C160.432 22.5364 159.338 22.0074 158.809 20.9141H158.88Z" fill="#FF0077"/>
<path d="M300.504 145.28C293.677 145.28 287.32 144.171 281.432 141.952C275.629 139.648 270.552 136.448 266.2 132.352C261.933 128.171 258.605 123.264 256.216 117.632C253.827 112 252.632 105.856 252.632 99.2C252.632 92.544 253.827 86.4 256.216 80.768C258.605 75.136 261.976 70.272 266.328 66.176C270.68 61.9947 275.757 58.7947 281.56 56.576C287.363 54.272 293.72 53.12 300.632 53.12C307.971 53.12 314.669 54.4 320.728 56.96C326.787 59.4347 331.907 63.1467 336.088 68.096L325.336 78.208C322.093 74.7093 318.467 72.1067 314.456 70.4C310.445 68.608 306.093 67.712 301.4 67.712C296.707 67.712 292.397 68.48 288.472 70.016C284.632 71.552 281.261 73.728 278.36 76.544C275.544 79.36 273.325 82.688 271.704 86.528C270.168 90.368 269.4 94.592 269.4 99.2C269.4 103.808 270.168 108.032 271.704 111.872C273.325 115.712 275.544 119.04 278.36 121.856C281.261 124.672 284.632 126.848 288.472 128.384C292.397 129.92 296.707 130.688 301.4 130.688C306.093 130.688 310.445 129.835 314.456 128.128C318.467 126.336 322.093 123.648 325.336 120.064L336.088 130.304C331.907 135.168 326.787 138.88 320.728 141.44C314.669 144 307.928 145.28 300.504 145.28ZM404.783 144V130.176L403.887 127.232V103.04C403.887 98.3467 402.479 94.72 399.663 92.16C396.847 89.5147 392.58 88.192 386.863 88.192C383.023 88.192 379.226 88.7893 375.471 89.984C371.802 91.1787 368.687 92.8427 366.127 94.976L359.855 83.328C363.524 80.512 367.876 78.4213 372.911 77.056C378.031 75.6053 383.322 74.88 388.783 74.88C398.682 74.88 406.319 77.2693 411.695 82.048C417.156 86.7413 419.887 94.0373 419.887 103.936V144H404.783ZM383.279 144.896C378.159 144.896 373.679 144.043 369.839 142.336C365.999 140.544 363.012 138.112 360.879 135.04C358.831 131.883 357.807 128.341 357.807 124.416C357.807 120.576 358.703 117.12 360.495 114.048C362.372 110.976 365.402 108.544 369.583 106.752C373.764 104.96 379.311 104.064 386.223 104.064H406.063V114.688H387.375C381.914 114.688 378.244 115.584 376.367 117.376C374.49 119.083 373.551 121.216 373.551 123.776C373.551 126.677 374.703 128.981 377.007 130.688C379.311 132.395 382.511 133.248 386.607 133.248C390.532 133.248 394.031 132.352 397.103 130.56C400.26 128.768 402.522 126.123 403.887 122.624L406.575 132.224C405.039 136.235 402.266 139.349 398.255 141.568C394.33 143.787 389.338 144.896 383.279 144.896ZM453.221 144V75.648H468.453V94.464L466.661 88.96C468.709 84.352 471.909 80.8533 476.261 78.464C480.698 76.0747 486.202 74.88 492.773 74.88V90.112C492.09 89.9413 491.45 89.856 490.853 89.856C490.256 89.7707 489.658 89.728 489.061 89.728C483.002 89.728 478.181 91.52 474.597 95.104C471.013 98.6027 469.221 103.851 469.221 110.848V144H453.221ZM550.649 144.896C543.054 144.896 536.398 143.403 530.681 140.416C525.049 137.344 520.654 133.163 517.497 127.872C514.425 122.581 512.889 116.565 512.889 109.824C512.889 102.997 514.382 96.9813 517.369 91.776C520.441 86.4853 524.622 82.3467 529.913 79.36C535.289 76.3733 541.39 74.88 548.217 74.88C554.873 74.88 560.804 76.3307 566.009 79.232C571.214 82.1333 575.31 86.2293 578.297 91.52C581.284 96.8107 582.777 103.04 582.777 110.208C582.777 110.891 582.734 111.659 582.649 112.512C582.649 113.365 582.606 114.176 582.521 114.944H525.561V104.32H574.073L567.801 107.648C567.886 103.723 567.076 100.267 565.369 97.28C563.662 94.2933 561.316 91.9467 558.329 90.24C555.428 88.5333 552.057 87.68 548.217 87.68C544.292 87.68 540.836 88.5333 537.849 90.24C534.948 91.9467 532.644 94.336 530.937 97.408C529.316 100.395 528.505 103.936 528.505 108.032V110.592C528.505 114.688 529.444 118.315 531.321 121.472C533.198 124.629 535.844 127.061 539.257 128.768C542.67 130.475 546.596 131.328 551.033 131.328C554.873 131.328 558.329 130.731 561.401 129.536C564.473 128.341 567.204 126.464 569.593 123.904L578.169 133.76C575.097 137.344 571.214 140.117 566.521 142.08C561.913 143.957 556.622 144.896 550.649 144.896ZM643.074 144.896C635.479 144.896 628.823 143.403 623.106 140.416C617.474 137.344 613.079 133.163 609.922 127.872C606.85 122.581 605.314 116.565 605.314 109.824C605.314 102.997 606.807 96.9813 609.794 91.776C612.866 86.4853 617.047 82.3467 622.338 79.36C627.714 76.3733 633.815 74.88 640.642 74.88C647.298 74.88 653.229 76.3307 658.434 79.232C663.639 82.1333 667.735 86.2293 670.722 91.52C673.709 96.8107 675.202 103.04 675.202 110.208C675.202 110.891 675.159 111.659 675.074 112.512C675.074 113.365 675.031 114.176 674.946 114.944H617.986V104.32H666.498L660.226 107.648C660.311 103.723 659.501 100.267 657.794 97.28C656.087 94.2933 653.741 91.9467 650.754 90.24C647.853 88.5333 644.482 87.68 640.642 87.68C636.717 87.68 633.261 88.5333 630.274 90.24C627.373 91.9467 625.069 94.336 623.362 97.408C621.741 100.395 620.93 103.936 620.93 108.032V110.592C620.93 114.688 621.869 118.315 623.746 121.472C625.623 124.629 628.269 127.061 631.682 128.768C635.095 130.475 639.021 131.328 643.458 131.328C647.298 131.328 650.754 130.731 653.826 129.536C656.898 128.341 659.629 126.464 662.018 123.904L670.594 133.76C667.522 137.344 663.639 140.117 658.946 142.08C654.338 143.957 649.047 144.896 643.074 144.896ZM703.371 144V75.648H718.603V94.464L716.811 88.96C718.859 84.352 722.059 80.8533 726.411 78.464C730.848 76.0747 736.352 74.88 742.923 74.88V90.112C742.24 89.9413 741.6 89.856 741.003 89.856C740.406 89.7707 739.808 89.728 739.211 89.728C733.152 89.728 728.331 91.52 724.747 95.104C721.163 98.6027 719.371 103.851 719.371 110.848V144H703.371ZM791.041 144.896C785.324 144.896 779.82 144.171 774.529 142.72C769.324 141.184 765.185 139.349 762.113 137.216L768.257 125.056C771.329 127.019 774.998 128.64 779.265 129.92C783.532 131.2 787.798 131.84 792.065 131.84C797.1 131.84 800.726 131.157 802.945 129.792C805.249 128.427 806.401 126.592 806.401 124.288C806.401 122.411 805.633 121.003 804.097 120.064C802.561 119.04 800.556 118.272 798.081 117.76C795.606 117.248 792.833 116.779 789.761 116.352C786.774 115.925 783.745 115.371 780.673 114.688C777.686 113.92 774.956 112.853 772.481 111.488C770.006 110.037 768.001 108.117 766.465 105.728C764.929 103.339 764.161 100.181 764.161 96.256C764.161 91.904 765.398 88.1493 767.873 84.992C770.348 81.7493 773.804 79.2747 778.241 77.568C782.764 75.776 788.097 74.88 794.241 74.88C798.849 74.88 803.5 75.392 808.193 76.416C812.886 77.44 816.769 78.8907 819.841 80.768L813.697 92.928C810.454 90.9653 807.169 89.6427 803.841 88.96C800.598 88.192 797.356 87.808 794.113 87.808C789.249 87.808 785.622 88.5333 783.233 89.984C780.929 91.4347 779.777 93.2693 779.777 95.488C779.777 97.536 780.545 99.072 782.081 100.096C783.617 101.12 785.622 101.931 788.097 102.528C790.572 103.125 793.302 103.637 796.289 104.064C799.361 104.405 802.39 104.96 805.377 105.728C808.364 106.496 811.094 107.563 813.569 108.928C816.129 110.208 818.177 112.043 819.713 114.432C821.249 116.821 822.017 119.936 822.017 123.776C822.017 128.043 820.737 131.755 818.177 134.912C815.702 138.069 812.161 140.544 807.553 142.336C802.945 144.043 797.441 144.896 791.041 144.896Z" fill="#FF0077"/>
</svg>
