<svg width="82" height="38" viewBox="0 0 82 38" fill="none" xmlns="http://www.w3.org/2000/svg">
<path d="M14.0001 7L17.1433 16.6738H27.3149L19.0859 22.6525L22.2291 32.3262L14.0001 26.3475L5.7711 32.3262L8.91429 22.6525L0.685303 16.6738H10.8569L14.0001 7Z" fill="#FCC913"/>
<path d="M40 0L44.2658 13.1287H58.0701L46.9022 21.2426L51.1679 34.3713L40 26.2574L28.8321 34.3713L33.0978 21.2426L21.9299 13.1287H35.7342L40 0Z" fill="#FCC913"/>
<path d="M68.0001 6L71.1433 15.6738H81.3149L73.0859 21.6525L76.2291 31.3262L68.0001 25.3475L59.7711 31.3262L62.9143 21.6525L54.6853 15.6738H64.8569L68.0001 6Z" fill="#FCC913"/>
</svg>
