<?xml version="1.0" encoding="UTF-8"?>
<svg version="1.1" xmlns="http://www.w3.org/2000/svg" width="512" height="512">
<path d="M0 0 C2.76645057 1.79467795 5.36918056 3.71690031 7.98046875 5.73046875 C10.7925305 7.84406238 13.65605006 9.76725853 16.60839844 11.67382812 C42.57138676 28.46348674 56.89725757 53.28918402 63.45777893 83.0786438 C65.63710208 93.92481941 66.42765756 104.45764068 66.28125 115.50683594 C66.24973158 117.8953413 66.24021533 120.28318062 66.234375 122.671875 C66.20169712 129.09535901 66.11828605 135.47295728 65.5 141.87109375 C64.67240686 150.6195056 64.75572606 159.40731537 64.75 168.1875 C64.74932526 169.11930084 64.74865051 170.05110168 64.74795532 171.01113892 C64.76500865 185.87192257 65.34449985 200.34081733 68 215 C68.17692383 215.97904297 68.35384766 216.95808594 68.53613281 217.96679688 C70.9841755 231.03148063 74.51781096 243.49981883 79 256 C79.28488281 257.11246094 79.56976563 258.22492188 79.86328125 259.37109375 C80.72886055 262.17596511 80.72886055 262.17596511 83.23046875 263.02734375 C84.14441406 263.34832031 85.05835938 263.66929687 86 264 C88.20039222 265.80595571 90.25794862 267.60540966 92.3125 269.5625 C92.88645508 270.10406738 93.46041016 270.64563477 94.05175781 271.20361328 C105.42321216 282.04012879 113.97944287 293.74668137 120.3125 308.125 C120.62574219 308.80868652 120.93898438 309.49237305 121.26171875 310.19677734 C127.50406334 325.1257179 128.60777726 341.4133406 128.4609375 357.3828125 C128.4585436 359.14305485 128.45764974 360.9032998 128.4581604 362.6635437 C128.45507347 366.30206939 128.43880674 369.94018943 128.41162109 373.57861328 C128.37718677 378.24580438 128.37000761 382.91256302 128.37151146 387.57986641 C128.37096947 391.19143816 128.36003736 394.80291509 128.34550858 398.41445541 C128.3391488 400.13768678 128.3352036 401.86092883 128.33372116 403.5841713 C128.32940517 405.97183161 128.31195528 408.35902211 128.29052734 410.74658203 C128.29143372 411.45602966 128.29234009 412.16547729 128.29327393 412.89642334 C128.22900605 417.77099395 128.22900605 417.77099395 126 420 C123.79823542 420.25069833 123.79823542 420.25069833 120.99619293 420.25168228 C119.93100858 420.25689778 118.86582423 420.26211327 117.76836157 420.26748681 C115.99903761 420.26079465 115.99903761 420.26079465 114.19396973 420.25396729 C112.94818854 420.25708727 111.70240735 420.26020725 110.41887522 420.26342177 C106.94973885 420.27180626 103.48071186 420.26762805 100.01157498 420.26144934 C96.27465128 420.2569407 92.53774693 420.26390068 88.80082703 420.26940918 C81.47576466 420.27832188 74.15074318 420.27637284 66.82567918 420.2705839 C60.87465285 420.26607477 54.92363802 420.26545125 48.97261047 420.26763153 C47.70415534 420.26809123 47.70415534 420.26809123 46.41007486 420.26856022 C44.69240439 420.26919964 42.97473392 420.26984807 41.25706345 420.2705054 C25.13466341 420.27621419 9.01228609 420.2696422 -7.11011022 420.25890467 C-20.95639345 420.24996866 -34.80264316 420.25152054 -48.64892578 420.26074219 C-64.71199359 420.27143514 -80.77504148 420.27566482 -96.83811235 420.26951766 C-98.54961172 420.26888053 -100.2611111 420.26825179 -101.97261047 420.26763153 C-102.81479271 420.26732298 -103.65697494 420.26701443 -104.52467784 420.26669653 C-110.47142806 420.26496666 -116.41816568 420.26789096 -122.36491394 420.27259064 C-129.6078954 420.27818866 -136.8508335 420.27670584 -144.09380996 420.26602915 C-147.79223257 420.26075783 -151.49058276 420.25874037 -155.1890049 420.26532745 C-159.19072343 420.27234715 -163.19225767 420.26398932 -167.19396973 420.25396729 C-168.37351903 420.25842873 -169.55306834 420.26289017 -170.76836157 420.26748681 C-171.83354592 420.26227132 -172.89873027 420.25705582 -173.99619293 420.25168228 C-174.92086695 420.25135758 -175.84554097 420.25103287 -176.79823542 420.25069833 C-179 420 -179 420 -181 418 C-181.25396729 414.96844482 -181.25396729 414.96844482 -181.25878906 411.01855469 C-181.26404602 409.93994171 -181.26404602 409.93994171 -181.26940918 408.83953857 C-181.27824391 406.45022039 -181.27236397 404.0611965 -181.265625 401.671875 C-181.26697292 400.00433292 -181.26891451 398.33679123 -181.27142334 396.66925049 C-181.27437839 393.16194951 -181.27007132 389.65475012 -181.26074219 386.14746094 C-181.24945306 381.68946417 -181.25583688 377.23171105 -181.26788712 372.7737236 C-181.27518643 369.3212101 -181.27277939 365.86875226 -181.26763153 362.41623688 C-181.26631167 360.77548442 -181.26788333 359.13472664 -181.27259064 357.49398041 C-181.34357015 325.74550826 -171.76789309 297.65091542 -149.55308533 274.47338867 C-148 273 -148 273 -146.10035706 271.55200195 C-140.16895017 266.95899452 -138.13280032 262.61717321 -136.0859375 255.515625 C-135.76418549 254.47891663 -135.44243347 253.44220825 -135.1109314 252.37408447 C-134.04783065 248.92344312 -133.02404019 245.46241602 -132 242 C-131.24062468 239.50654602 -130.47918133 237.01372104 -129.71582031 234.52148438 C-127.71144096 227.95421283 -125.75576998 221.3732037 -123.81591797 214.78662109 C-122.81525579 211.38950076 -121.80413233 207.99558834 -120.7904911 204.60232162 C-119.99449594 201.93205329 -119.2051152 199.25986216 -118.41752243 196.5871048 C-117.87118218 194.73826875 -117.31859504 192.89128222 -116.76577759 191.04437256 C-114.63045936 183.7464137 -113.06088435 176.5304677 -112 169 C-116.89940732 170.83967565 -121.76972195 172.73897637 -126.62402344 174.69458008 C-128.27416109 175.34970599 -129.93077107 175.98878762 -131.59375 176.6105957 C-143.26155449 180.76337047 -143.26155449 180.76337047 -150.72265625 190.109375 C-151.51698516 192.39431073 -152.27517821 194.69207386 -153 197 C-154.03613426 199.43188163 -155.09177335 201.84415338 -156.17578125 204.25390625 C-157.22324489 206.68929183 -158.26881162 209.12549414 -159.3125 211.5625 C-159.85473365 212.81839567 -160.39705108 214.07425517 -160.93945312 215.33007812 C-161.70612305 217.11768555 -161.70612305 217.11768555 -162.48828125 218.94140625 C-162.94759033 220.01076416 -163.40689941 221.08012207 -163.88012695 222.18188477 C-167.24756527 230.65590712 -166.32579316 237.08199614 -162.97265625 245.38671875 C-158.02061363 258.69160435 -160.91590078 273.58177475 -166.625 286.0625 C-173.36416781 298.86027927 -183.37406456 306.61198689 -197 311 C-201.35886785 312.19868866 -205.50727461 312.07614789 -210 312 C-209.69012383 314.25036286 -209.37700182 316.50027894 -209.0625 318.75 C-208.88847656 320.00296875 -208.71445313 321.2559375 -208.53515625 322.546875 C-208.08436637 325.8052392 -208.08436637 325.8052392 -207.453125 328.1796875 C-206.17949646 333.29616078 -206.36112554 337.74506802 -208.75 342.4375 C-211.35446557 345.40369689 -213.25579694 346.75974305 -217.18359375 347.30078125 C-225.45356732 347.34377938 -225.45356732 347.34377938 -229 344 C-235.62315807 333.23157867 -235.26624956 320.77314455 -234.5703125 308.609375 C-234.37257973 301.79484869 -234.37257973 301.79484869 -237.83984375 296.171875 C-238.38592285 295.63723633 -238.93200195 295.10259766 -239.49462891 294.55175781 C-244.40546743 289.48959601 -246.61188253 279.85674204 -247 273 C-247.061875 272.31421875 -247.12375 271.6284375 -247.1875 270.921875 C-247.97913542 255.97975644 -242.20969191 243.07152262 -232.875 231.8125 C-226.18304447 224.68411259 -218.54511479 220.5696649 -209.1875 217.9375 C-202.02790844 215.91395077 -197.95861639 213.26436065 -194.125 206.875 C-192.27128473 201.83698857 -192.25291209 196.31115384 -192 191 C-200.18590166 189.63568306 -207.0099508 188.8960615 -214.55859375 192.9296875 C-218.22199465 196.03625146 -219.98399642 199.95221435 -222.03125 204.1953125 C-228.68682201 217.88066539 -239.86464331 226.10624203 -254 231 C-266.36543973 234.22932145 -280.61884167 232.60844319 -291.7421875 226.4921875 C-301.35220323 220.21208603 -308.76518075 211.96947726 -311.578125 200.6796875 C-313.66797592 187.40526409 -311.45819726 176.0227211 -303.62109375 165.05859375 C-295.28627179 154.47437405 -284.28996052 148.18622727 -271 146 C-256.4492772 145.01814813 -245.21066701 147.38256128 -232.8515625 155.51171875 C-226.07325407 159.04943863 -219.95568687 157.70670572 -212.8671875 156.0859375 C-211.43489304 155.76866196 -211.43489304 155.76866196 -209.97366333 155.44497681 C-207.96361555 154.9954617 -205.95498765 154.53955513 -203.94775391 154.07763672 C-200.88251877 153.37671929 -197.81128698 152.70887676 -194.73828125 152.04296875 C-192.78079943 151.60094897 -190.82375135 151.15700304 -188.8671875 150.7109375 C-187.95250702 150.51486908 -187.03782654 150.31880066 -186.09542847 150.11679077 C-179.06080814 148.45183732 -175.86724355 145.76470393 -171.78125 139.71484375 C-171.01468106 138.45946528 -170.25462232 137.20009582 -169.5 135.9375 C-168.61891122 134.49634058 -167.73601342 133.056286 -166.8515625 131.6171875 C-166.38782227 130.86147461 -165.92408203 130.10576172 -165.44628906 129.32714844 C-162.98418688 125.36550799 -160.42814824 121.46584458 -157.875 117.5625 C-153.5768248 110.9815803 -149.31685593 104.37821915 -145.09423828 97.74853516 C-142.40301022 93.52833253 -139.69594 89.31838633 -136.98876953 85.10839844 C-135.02747008 82.04293507 -133.08959338 78.96351191 -131.15234375 75.8828125 C-129.93590469 73.98372841 -128.71850258 72.08526074 -127.5 70.1875 C-126.96125244 69.31617432 -126.42250488 68.44484863 -125.86743164 67.54711914 C-122.41901338 62.23887979 -119.20248798 58.80440247 -113 57 C-109.5 56.75 -109.5 56.75 -107 57 C-106.29037109 55.16888672 -106.29037109 55.16888672 -105.56640625 53.30078125 C-99.15129487 37.16191919 -91.36190639 21.4228619 -74.82421875 13.69140625 C-70.97508024 12.23252506 -67.68864395 11.90192657 -63.5703125 12.0078125 C-62.52746094 12.02457031 -61.48460937 12.04132812 -60.41015625 12.05859375 C-58.22768899 12.10271021 -56.04536671 12.1547384 -53.86328125 12.21484375 C-46.00320552 12.3421616 -46.00320552 12.3421616 -39 9 C-37.29206554 7.37662263 -37.29206554 7.37662263 -36 5.5625 C-26.51630728 -6.1439332 -12.71977752 -6.35091854 0 0 Z M-30.625 52.625 C-38.16750239 60.39434456 -46.56591674 65.86378969 -56.0625 70.875 C-68.98595582 77.80249849 -80.44100861 88.39546432 -84.86743164 102.82836914 C-86.90728495 110.82519851 -87.50922924 118.45585296 -87.4375 126.6875 C-87.43065186 127.90703369 -87.42380371 129.12656738 -87.41674805 130.38305664 C-87.24102853 140.34378652 -86.02297702 149.51436165 -83 159 C-82.62617188 160.17433594 -82.25234375 161.34867187 -81.8671875 162.55859375 C-75.48006382 180.51444807 -64.0910419 196.93758331 -46.7421875 205.6328125 C-34.50525212 210.89439405 -22.88735412 211.68113224 -10.14453125 207.3359375 C7.95604105 199.64600492 20.22932072 184.1725491 27.5078125 166.296875 C28.81391977 162.55843622 29.94802924 158.81737876 31 155 C31.47953125 153.33324219 31.47953125 153.33324219 31.96875 151.6328125 C35.38994114 137.66294869 36.46192739 119.07340426 33 105 C31.48336421 102.69712271 31.48336421 102.69712271 29.3125 101.25 C28.58804688 100.68667969 27.86359375 100.12335938 27.1171875 99.54296875 C26.41851562 99.03378906 25.71984375 98.52460938 25 98 C20.0359232 94.0490001 16.02284972 89.87353138 12 85 C11.22398437 84.09636719 10.44796875 83.19273437 9.6484375 82.26171875 C1.66756195 72.53888739 -4.23175322 61.46480903 -8.1484375 49.48828125 C-8.71366446 46.91678134 -8.71366446 46.91678134 -10.625 46.125 C-11.40875 46.08375 -12.1925 46.0425 -13 46 C-14.27875 45.9175 -15.5575 45.835 -16.875 45.75 C-22.95976415 45.88471803 -26.48299522 48.34663292 -30.625 52.625 Z M-114.38671875 66.53515625 C-117.50105235 69.47259197 -119.45969148 72.52562692 -121.625 76.1875 C-122.50257554 77.63101817 -123.3815285 79.07369967 -124.26171875 80.515625 C-124.93726807 81.6284082 -124.93726807 81.6284082 -125.62646484 82.76367188 C-127.83600213 86.36114104 -130.13462587 89.89931743 -132.4375 93.4375 C-132.89825928 94.14737061 -133.35901855 94.85724121 -133.83374023 95.58862305 C-134.76563707 97.02407229 -135.69800831 98.45921366 -136.63085938 99.89404297 C-138.81957794 103.26064182 -141.00452934 106.62967167 -143.1875 110 C-143.629729 110.68271973 -144.07195801 111.36543945 -144.52758789 112.06884766 C-149.35841686 119.53735817 -154.14223121 127.03589851 -158.93164062 134.53100586 C-163.83468953 142.19698591 -168.77428378 149.83824383 -173.75146484 157.45629883 C-174.71564375 158.93376215 -175.67673631 160.4132456 -176.63427734 161.89501953 C-177.54528716 163.29915371 -178.46756013 164.69604368 -179.40087891 166.08544922 C-185.51451412 175.39094218 -185.17313321 183.76430927 -184.74609375 194.57617188 C-184.54768309 204.21076012 -186.56779076 212.38417284 -193.32421875 219.54296875 C-198.06659397 223.66629266 -203.54239511 225.1875859 -209.5 226.875 C-220.09181039 230.03910483 -227.72467051 237.11617835 -233.54296875 246.484375 C-239.14064328 257.05593628 -240.63606579 268.19672615 -237.6875 279.84765625 C-235.98657378 285.17271505 -233.61955098 289.3273676 -229.87109375 293.453125 C-225.77536067 298.85976746 -226.4539166 304.17495138 -226.8125 310.6875 C-227.26067863 324.08732232 -227.26067863 324.08732232 -224 337 C-222.17296773 339.2491908 -222.17296773 339.2491908 -219.5 339.25 C-216.82703227 339.2491908 -216.82703227 339.2491908 -215 337 C-214.94077803 334.75421495 -214.94077803 334.75421495 -215.3125 332.25 C-215.42078125 331.34636719 -215.5290625 330.44273437 -215.640625 329.51171875 C-215.90155074 327.68807471 -216.21603025 325.87184202 -216.5625 324.0625 C-216.97591241 321.16861311 -217.23875837 318.35696354 -217.375 315.4375 C-217.44847656 314.07431641 -217.44847656 314.07431641 -217.5234375 312.68359375 C-216.76476186 308.79396568 -215.10463757 307.38624376 -212 305 C-208.87109375 304.28515625 -208.87109375 304.28515625 -205.4375 304.0625 C-194.08871764 302.76719395 -185.13401848 297.95343259 -178 289 C-170.29722272 278.45473999 -167.48471653 266.98814404 -169 254 C-170.02325673 249.92283751 -171.42432644 246.01324513 -172.90625 242.08203125 C-175.84044638 232.72317964 -173.72275113 224.71697563 -169.9375 216 C-169.49196777 214.93152832 -169.04643555 213.86305664 -168.58740234 212.76220703 C-167.34297858 209.79369836 -166.08048063 206.83378261 -164.80718994 203.87756348 C-163.99244938 201.98243689 -163.18351141 200.08493832 -162.37646484 198.18652344 C-159.35072669 191.06923852 -156.30367915 183.96134941 -153.2421875 176.859375 C-145.53024695 158.96524044 -137.92774211 141.02412542 -130.31207275 123.08886719 C-128.97633583 119.94429008 -127.63940978 116.80022065 -126.30224609 113.65625 C-124.09655413 108.46936334 -121.89465993 103.28087918 -119.69543457 98.09124756 C-118.86564126 96.13456997 -118.03469302 94.1783817 -117.20251465 92.22271729 C-116.04708555 89.50662998 -114.89606943 86.78871239 -113.74609375 84.0703125 C-113.40950241 83.28172852 -113.07291107 82.49314453 -112.72612 81.68066406 C-110.55447292 76.53022985 -108.6934842 71.32651695 -107 66 C-110.24355431 64.88792424 -111.43931451 64.63936269 -114.38671875 66.53515625 Z M-116 108 C-121.94 121.86 -121.94 121.86 -128 136 C-124.51764187 138.01234214 -124.51764187 138.01234214 -114 134 C-114.33 125.42 -114.66 116.84 -115 108 C-115.33 108 -115.66 108 -116 108 Z M-120.28515625 141.99609375 C-124.88656268 142.53379688 -128.34190865 143.03305599 -132 146 C-137.02773129 153.33914257 -140.70154393 162.41489146 -143 171 C-142.67 171.66 -142.34 172.32 -142 173 C-141.16750732 172.64172119 -140.33501465 172.28344238 -139.47729492 171.91430664 C-136.38591453 170.58455767 -133.29406987 169.25590005 -130.2019043 167.92797852 C-128.8641515 167.35321986 -127.52658479 166.77802788 -126.18920898 166.20239258 C-124.26595129 165.37467046 -122.34202795 164.54851323 -120.41796875 163.72265625 C-119.26063232 163.22515869 -118.1032959 162.72766113 -116.91088867 162.21508789 C-114 161 -114 161 -111 160 C-111.14139481 157.74971671 -111.28828003 155.49977794 -111.4375 153.25 C-111.51871094 151.99703125 -111.59992188 150.7440625 -111.68359375 149.453125 C-111.92515522 146.81682447 -112.24283934 144.51962706 -113 142 C-115.42838577 142 -117.8567722 141.99898125 -120.28515625 141.99609375 Z M-296.13671875 168.4609375 C-297.9312353 170.90629548 -299.5063028 173.36156049 -301 176 C-301.35964844 176.63421875 -301.71929687 177.2684375 -302.08984375 177.921875 C-305.25187578 184.74137266 -305.22856956 193.50845536 -303.2734375 200.65625 C-302.32845979 202.89961171 -301.26384949 204.92130019 -300 207 C-299.649375 207.62390625 -299.29875 208.2478125 -298.9375 208.890625 C-294.25785631 216.36505589 -286.26719481 220.58011557 -278.08203125 223.3046875 C-266.50223608 225.91711277 -255.19301401 224.26672222 -245.0234375 218.234375 C-236.59180543 212.46177514 -232.18050513 206.35615347 -227.5625 197.375 C-223.80614285 190.2732657 -220.23205931 186.04205281 -212.6875 183.125 C-206.09810003 181.21013163 -199.64302995 181.53947568 -193 183 C-192.85304688 182.17757812 -192.70609375 181.35515625 -192.5546875 180.5078125 C-191.13155643 173.42487279 -189.24764739 167.93263396 -185.20703125 161.92578125 C-183.82297335 160.09635715 -183.82297335 160.09635715 -184 158 C-187.06302163 158.60161043 -190.12542672 159.20609476 -193.1875 159.8125 C-194.10354004 159.99264648 -195.01958008 160.17279297 -195.96337891 160.35839844 C-200.97729438 161.35535858 -205.92548361 162.46497028 -210.875 163.75 C-224.70872268 166.86919607 -233.29135206 164.56614355 -245.29492188 157.92724609 C-262.29250465 148.68371525 -283.74600942 154.19010225 -296.13671875 168.4609375 Z M-47 214 C-49.51648893 235.21486489 -49.51648893 235.21486489 -42.70263672 254.28271484 C-40.44189969 256.56221318 -38.12156169 258.68364665 -35.60742188 260.68066406 C-33.34925964 262.53411314 -31.54353287 264.69031971 -29.6875 266.9375 C-28.79206669 267.95868424 -27.89643451 268.97969454 -27 270 C-23.25262573 268.75087524 -22.31022558 267.2061277 -19.875 264.125 C-19.17117188 263.24070312 -18.46734375 262.35640625 -17.7421875 261.4453125 C-17.34410889 260.92074463 -16.94603027 260.39617676 -16.53588867 259.85571289 C-15 258 -15 258 -12.70825195 255.76733398 C-6.66710685 249.48690025 -5.06425036 244.94780939 -5.14105225 236.51580811 C-5.20971062 234.27907506 -5.32227085 232.04726906 -5.4375 229.8125 C-5.48274881 228.27290505 -5.52379502 226.73318059 -5.56054688 225.19335938 C-5.65867734 221.45950177 -5.81335808 217.73060516 -6 214 C-6.93521484 214.21221191 -7.87042969 214.42442383 -8.83398438 214.64306641 C-10.07470703 214.91812012 -11.31542969 215.19317383 -12.59375 215.4765625 C-13.81771484 215.75064941 -15.04167969 216.02473633 -16.30273438 216.30712891 C-24.62984107 217.86763662 -32.17439159 217.31995259 -40.40625 215.4765625 C-41.64697266 215.20150879 -42.88769531 214.92645508 -44.16601562 214.64306641 C-45.10123047 214.43085449 -46.03644531 214.21864258 -47 214 Z M10 262 C8.52746122 263.69097821 7.02777856 265.35875948 5.5 267 C0.79283037 272.16881849 -3.62249338 277.55113421 -8 283 C-9.08861328 284.30517578 -9.08861328 284.30517578 -10.19921875 285.63671875 C-13.30469986 289.71224168 -13.1284581 293.08404956 -13.1418457 298.07006836 C-13.14532013 298.78584549 -13.14879456 299.50162262 -13.15237427 300.23908997 C-13.1597223 301.79252789 -13.16507276 303.34597626 -13.16866493 304.89942741 C-13.17583482 307.35821414 -13.19150425 309.81680182 -13.21000671 312.27552795 C-13.26245877 319.26593333 -13.31047214 326.25622812 -13.32592773 333.24682617 C-13.33600283 337.52339741 -13.36531174 341.79946553 -13.40724754 346.07583809 C-13.41956633 347.70527913 -13.42467719 349.33479119 -13.42244911 350.96427727 C-13.42009892 353.24357806 -13.44223701 355.52143178 -13.4699707 357.80053711 C-13.47583694 359.0972081 -13.48170319 360.39387909 -13.48774719 361.72984314 C-14.08245419 365.52637705 -14.97377899 366.71288947 -18 369 C-19.96704102 369.4699707 -19.96704102 369.4699707 -22.00390625 369.42578125 C-23.11475586 369.41321289 -23.11475586 369.41321289 -24.24804688 369.40039062 C-25.01181641 369.37138672 -25.77558594 369.34238281 -26.5625 369.3125 C-27.33013672 369.30283203 -28.09777344 369.29316406 -28.88867188 369.28320312 C-32.15430724 369.21771959 -34.88597325 369.03800892 -38 368 C-38.98315223 363.8930096 -39.13026971 360.043781 -39.1418457 355.82641602 C-39.14532013 355.12331299 -39.14879456 354.42020996 -39.15237427 353.69580078 C-39.15970049 352.17568812 -39.16506248 350.65556497 -39.16866493 349.13543892 C-39.17586359 346.72634959 -39.19155409 344.31746005 -39.21000671 341.90843201 C-39.2623255 335.06129645 -39.31045864 328.21427467 -39.32592773 321.36694336 C-39.3360232 317.17234402 -39.36538074 312.97825487 -39.40724754 308.78385735 C-39.41953394 307.18956299 -39.42468311 305.59519654 -39.42244911 304.0008564 C-39.4200892 301.76767817 -39.44230969 299.53595907 -39.4699707 297.30297852 C-39.47583694 296.03454605 -39.48170319 294.76611359 -39.48774719 293.45924377 C-40.2602378 288.24261385 -43.20842528 284.7349897 -46.59375 280.84375 C-47.06119629 280.30274658 -47.52864258 279.76174316 -48.01025391 279.2043457 C-48.50187012 278.64191162 -48.99348633 278.07947754 -49.5 277.5 C-50.55993365 276.2747723 -51.61982827 275.04951083 -52.6796875 273.82421875 C-53.22334961 273.19821777 -53.76701172 272.5722168 -54.32714844 271.92724609 C-57.10221946 268.73016339 -59.86460916 265.52225679 -62.625 262.3125 C-63.13353516 261.7246875 -63.64207031 261.136875 -64.16601562 260.53125 C-66.26944199 258.08726889 -68.20865522 255.68701718 -70 253 C-73.62605799 253.54940273 -74.96930216 254.70182858 -77.125 257.625 C-77.62257813 258.27726562 -78.12015625 258.92953125 -78.6328125 259.6015625 C-82.14133817 265.75651897 -82.35402722 272.29863664 -82.8125 279.1875 C-83.50294962 287.61783165 -84.97962052 294.465919 -89 302 C-97.49912898 317.99321958 -99.98271475 332.99814337 -100.5625 351 C-100.62727539 352.87751953 -100.62727539 352.87751953 -100.69335938 354.79296875 C-100.79878017 357.86188523 -100.90090342 360.93087389 -101 364 C-110.86294285 350.34923848 -118.19011205 335.36084089 -118.09765625 318.1640625 C-118.09443359 317.10058594 -118.09121094 316.03710938 -118.08789062 314.94140625 C-118.07532227 313.29978516 -118.07532227 313.29978516 -118.0625 311.625 C-118.05798828 310.50738281 -118.05347656 309.38976562 -118.04882812 308.23828125 C-118.03709244 305.49213196 -118.02067363 302.74609414 -118 300 C-118.66 300 -119.32 300 -120 300 C-124.47202187 305.31531742 -126.70415391 311.49736213 -128.375 318.125 C-128.54241699 318.78113281 -128.70983398 319.43726563 -128.88232422 320.11328125 C-129.98166683 324.85619317 -130.13982647 329.17060901 -130 334 C-130.66 334 -131.32 334 -132 334 C-132.26039063 333.45085937 -132.52078125 332.90171875 -132.7890625 332.3359375 C-133.99526638 329.93028339 -133.99526638 329.93028339 -135.5859375 327.4765625 C-144.78990938 312.80647631 -145.62667061 299.83815726 -145 283 C-160.92708613 294.7151947 -169.43643869 318.34520966 -172.52075195 337.18005371 C-172.99255258 340.9406388 -173.12027788 344.52411083 -173.11352539 348.31225586 C-173.11367142 349.00578156 -173.11381744 349.69930725 -173.1139679 350.41384888 C-173.1132774 352.68088023 -173.10552592 354.94782695 -173.09765625 357.21484375 C-173.095789 358.79667618 -173.09436655 360.37850919 -173.09336853 361.96034241 C-173.08956755 366.10476301 -173.07975814 370.24914805 -173.06866455 374.39355469 C-173.0565902 379.3763175 -173.05203666 384.35909226 -173.04621124 389.34186554 C-173.03654491 396.89460169 -173.0173715 404.44725995 -173 412 C-158.15 412 -143.3 412 -128 412 C-127.67 391.54 -127.34 371.08 -127 350 C-125.35 350 -123.7 350 -122 350 C-112.75277819 368.49444361 -120.34457575 391.32545471 -120 412 C-57.96 412 4.08 412 68 412 C68.495 381.31 68.495 381.31 69 350 C71.97 349.505 71.97 349.505 75 349 C75.33 369.79 75.66 390.58 76 412 C90.52 412 105.04 412 120 412 C120.1167231 399.28714403 120.1167231 399.28714403 120.1953125 386.57421875 C120.2190423 381.37401601 120.24682846 376.17410013 120.30175781 370.97412109 C120.34585366 366.77246885 120.3692683 362.57112502 120.37950897 358.36925888 C120.386788 356.78200309 120.40099397 355.19476035 120.42292023 353.60763931 C120.61582258 339.03864881 118.66977883 324.58869304 112.75 311.125 C112.45335449 310.43067871 112.15670898 309.73635742 111.85107422 309.02099609 C100.98273338 284.49218726 80.48621171 266.92893907 56 257 C47.83043148 254.01227208 39.63782661 252.00888001 31 251 C29.97648438 250.83371094 28.95296875 250.66742188 27.8984375 250.49609375 C18.06404669 249.51265467 15.28250807 254.43706496 10 262 Z " fill="#000000" transform="translate(348,48)"/>
<path d="M0 0 C4.72659098 3.13311611 8.15789357 6.58275652 9.5390625 12.1875 C10.60999387 18.9070694 9.54906283 24.1826656 6 30 C0.51247231 36.59764823 -6.73631151 40.44259376 -15.24609375 41.34375 C-23.33446429 41.56816722 -29.72727882 40.66656967 -36.3125 35.6875 C-40.90577951 31.09422049 -42.18711533 27.54615531 -42.4375 21.125 C-42.21916766 13.77447802 -40.22903089 8.86345052 -34.9375 3.75 C-25.2312258 -3.80850288 -10.98490382 -6.16825696 0 0 Z " fill="#000000" transform="translate(99,218)"/>
<path d="M0 0 C5.49549618 2.83248041 8.98104559 7.59938677 10.8984375 13.3515625 C11.86728421 23.93529299 11.31186148 32.4000601 4.8984375 41.3515625 C-0.51464596 47.58886031 -6.45874996 50.77121093 -14.6015625 51.7890625 C-20.3986207 51.06443022 -25.05031385 48.86472275 -28.9765625 44.4765625 C-33.68730719 37.54899679 -33.85888072 30.49033682 -33.1015625 22.3515625 C-31.09948628 13.80377601 -26.04469479 6.90631103 -18.8515625 1.9140625 C-13.14168346 -1.33018696 -6.32435492 -1.95138089 0 0 Z " fill="#000000" transform="translate(155.1015625,287.6484375)"/>
<path d="M0 0 C4.875 0.875 4.875 0.875 6 2 C6.125 4.5 6.125 4.5 6 7 C5 8 5 8 2.4375 8.0625 C1.633125 8.041875 0.82875 8.02125 0 8 C-1.125 5.6875 -1.125 5.6875 -2 3 C-1.34 2.01 -0.68 1.02 0 0 Z " fill="#000000" transform="translate(183,210)"/>
</svg>
