<?xml version="1.0" encoding="UTF-8"?>
<svg version="1.1" xmlns="http://www.w3.org/2000/svg" width="512" height="512">
<path d="M0 0 C-1.73855412 5.00703586 -6.32584511 7.39932255 -10.4765625 10.2890625 C-12.45320954 11.6864608 -12.45320954 11.6864608 -15 14 C-15 15.32 -15 16.64 -15 18 C-9.09357151 17.64561429 -5.98474618 15.08275751 -1.625 11.4375 C-0.98433594 10.91736328 -0.34367188 10.39722656 0.31640625 9.86132812 C1.88604815 8.58452987 3.44421446 7.29364633 5 6 C19.14718589 12.47517619 28.33203067 32.0854632 33.47265625 45.83203125 C34.77770453 49.52105386 36.01781696 53.21078773 37 57 C37.18546387 57.70334473 37.37092773 58.40668945 37.56201172 59.13134766 C40.00962079 70.16867912 39.41179471 81.73041475 39.53173828 92.97558594 C39.32205055 116.562743 39.32205055 116.562743 50.1875 136.8125 C55.7246663 141.93861029 62.81637542 144.92052973 70 147 C68.56544399 156.29988033 61.89222235 164.85138296 55 171 C40.43912928 181.65617223 23.14293526 183.96665082 5.75 186.8125 C5.07083527 186.92395355 4.39167053 187.0354071 3.69192505 187.15023804 C-2.93846268 188.22490214 -9.26838629 189.12558981 -16 189 C-15.319375 188.319375 -14.63875 187.63875 -13.9375 186.9375 C-13.47730469 186.47085938 -13.01710937 186.00421875 -12.54296875 185.5234375 C-11.52953839 184.52283537 -10.49050686 183.54739815 -9.42578125 182.6015625 C5.95306086 168.47740448 12.66315981 148.26799947 14 128 C14.14313826 124.1440863 14.18636878 120.2919521 14.203125 116.43359375 C14.20882507 115.39227798 14.21452515 114.35096222 14.22039795 113.27809143 C14.22975723 111.1026407 14.23634527 108.92717637 14.24023438 106.75170898 C14.25006833 103.41430906 14.28122617 100.07749372 14.3125 96.74023438 C14.31901955 94.61719112 14.32427411 92.49414352 14.328125 90.37109375 C14.3466452 88.8758744 14.3466452 88.8758744 14.36553955 87.35044861 C14.3610379 85.96739281 14.3610379 85.96739281 14.35644531 84.55639648 C14.36009094 83.74653793 14.36373657 82.93667938 14.36749268 82.10227966 C13.90865865 79.4774724 13.09781099 78.59733289 11 77 C8.54035901 76.54337352 8.54035901 76.54337352 5.765625 76.59375 C4.72398193 76.57417236 3.68233887 76.55459473 2.60913086 76.53442383 C1.50061768 76.52306396 0.39210449 76.5117041 -0.75 76.5 C-26.5346678 75.81648916 -50.77685308 68.14014985 -69.92578125 50.1953125 C-70.52777344 49.63585937 -71.12976563 49.07640625 -71.75 48.5 C-72.51570313 47.74203125 -72.51570313 47.74203125 -73.296875 46.96875 C-75.030125 45.78990521 -75.030125 45.78990521 -77.4609375 46.0546875 C-80.73914183 47.27518819 -81.8269 48.81204938 -83.875 51.625 C-92.610748 63.0662222 -104.36869398 72.78778845 -119.04638672 75.35839844 C-121.9127891 75.74179024 -124.77247695 76.0664252 -127.65673828 76.28027344 C-131.41534627 76.55396442 -131.41534627 76.55396442 -134.68742371 78.25485229 C-136.35826095 80.47632909 -136.37450255 81.7141292 -136.37231445 84.47705078 C-136.37854324 85.38294952 -136.38477203 86.28884827 -136.39118958 87.22219849 C-136.38197983 88.20332611 -136.37277008 89.18445374 -136.36328125 90.1953125 C-136.36377975 91.21615936 -136.36427826 92.23700623 -136.36479187 93.28878784 C-136.36244781 95.45930924 -136.35269984 97.62983316 -136.33618164 99.80029297 C-136.31293638 103.06373575 -136.31557507 106.32634118 -136.32226562 109.58984375 C-136.28719864 135.8888223 -133.74139566 159.77062964 -115 180 C-112.87592634 181.98609965 -110.72003566 183.88266316 -108.46875 185.72265625 C-107.9840625 186.14417969 -107.499375 186.56570313 -107 187 C-107 187.33 -107 187.66 -107 188 C-116.70100391 187.53690071 -125.87560673 186.29244911 -135.375 184.25 C-136.63997314 183.98050537 -137.90494629 183.71101074 -139.20825195 183.43334961 C-165.28788094 177.75673225 -165.28788094 177.75673225 -176 169 C-176.886875 168.401875 -177.77375 167.80375 -178.6875 167.1875 C-183.9537007 162.2059588 -188.16532173 155.66983123 -191 149 C-191 148.34 -191 147.68 -191 147 C-189.87464844 146.61521484 -189.87464844 146.61521484 -188.7265625 146.22265625 C-178.96531246 142.57140781 -171.09481822 137.46797568 -166 128.125 C-162.37162277 119.56519281 -161.71628942 110.69698461 -161.7265625 101.49609375 C-161.70625979 99.51757261 -161.68540876 97.53905703 -161.6640625 95.56054688 C-161.64162873 92.50931049 -161.62504021 89.4582971 -161.61914062 86.40698242 C-161.51878581 55.47010056 -153.49119464 30.03345353 -131.47265625 7.40234375 C-95.47501506 -26.79805837 -39.39904929 -30.04858368 0 0 Z M-63 13 C-63.77482458 15.31798034 -63.77482458 15.31798034 -64 18 C-54.83827665 33.07866968 -32.07876645 42.40989162 -16.375 48.5 C-15.724104 48.75563721 -15.07320801 49.01127441 -14.40258789 49.2746582 C-10.47039064 50.72707301 -7.18138139 51.25731578 -3 51 C-2.67 49.35 -2.34 47.7 -2 46 C-5.81791555 43.96338253 -9.58411291 42.41832964 -13.70776367 41.11254883 C-29.53738143 36.03554 -46.38844695 26.69227791 -57.6328125 14.18359375 C-59.20264012 12.56365383 -59.20264012 12.56365383 -63 13 Z M-103 21 C-104.90562774 23.85844161 -105.32660852 25.07251362 -105.875 28.3125 C-107.12636256 34.19676973 -109.19435332 37.72542587 -114.1875 41.25 C-118.24031022 43.36450968 -122.52376084 44.22858463 -127 45 C-127.38218767 46.65614657 -127.71395102 48.32457024 -128 50 C-126.76850197 51.44379184 -126.76850197 51.44379184 -123.0625 51.375 C-116.33782599 51.26808944 -110.89036362 48.59210846 -105.91796875 44.1328125 C-100.18630393 37.93054783 -97.59766863 32.19030918 -97.89453125 23.72265625 C-97.94673828 22.86994141 -97.94673828 22.86994141 -98 22 C-99.65 21.67 -101.3 21.34 -103 21 Z " fill="#FF0077" transform="translate(253,168)"/>
<path d="M0 0 C1.11181641 0.00322266 2.22363281 0.00644531 3.36914062 0.00976562 C4.51962891 0.01814453 5.67011719 0.02652344 6.85546875 0.03515625 C8.02529297 0.03966797 9.19511719 0.04417969 10.40039062 0.04882812 C13.28130233 0.06058695 16.16210919 0.07702199 19.04296875 0.09765625 C19.49285156 1.22300781 19.94273437 2.34835937 20.40625 3.5078125 C21.67442334 7.13348674 21.67442334 7.13348674 24.23046875 8.53515625 C24.82859375 8.72078125 25.42671875 8.90640625 26.04296875 9.09765625 C26.04296875 9.75765625 26.04296875 10.41765625 26.04296875 11.09765625 C25.12515625 11.58234375 24.20734375 12.06703125 23.26171875 12.56640625 C10.52353475 19.44947078 2.07592351 26.80674651 -2.61328125 41.09765625 C-3.06140851 43.70494212 -3.05100377 46.20396434 -3.01953125 48.84765625 C-3.01050781 49.8325 -3.00148438 50.81734375 -2.9921875 51.83203125 C-2.98058594 52.5796875 -2.96898438 53.32734375 -2.95703125 54.09765625 C-1.63703125 54.09765625 -0.31703125 54.09765625 1.04296875 54.09765625 C2.31039349 51.56280678 2.47482145 49.28304285 2.85546875 46.47265625 C3.75668867 41.00003096 5.00112367 36.73378026 8.04296875 32.09765625 C8.43355469 31.46601563 8.82414062 30.834375 9.2265625 30.18359375 C15.17447628 22.09185196 26.61827411 16.23922113 36.04296875 13.09765625 C38.46515255 13.6494727 40.7934308 14.26123714 43.16796875 14.97265625 C47.42539176 16.21766952 51.38387605 17.20655725 55.79638672 17.66064453 C56.595112 17.7443631 57.39383728 17.82808167 58.21676636 17.91433716 C58.81941315 17.97483246 59.42205994 18.03532776 60.04296875 18.09765625 C60.03773193 19.3594873 60.03249512 20.62131836 60.02709961 21.92138672 C60.00903417 26.59162693 59.99753106 31.26186404 59.98803711 35.93212891 C59.98300044 37.95557168 59.97617086 39.97901081 59.9675293 42.00244141 C59.95543463 44.90658468 59.94973387 47.81067994 59.9453125 50.71484375 C59.93757057 52.07740799 59.93757057 52.07740799 59.92967224 53.46749878 C59.92959671 54.3082193 59.92952118 55.14893982 59.92944336 56.01513672 C59.92722275 56.75682098 59.92500214 57.49850525 59.92271423 58.26266479 C59.93027402 60.1954054 59.93027402 60.1954054 61.04296875 62.09765625 C62.36296875 62.09765625 63.68296875 62.09765625 65.04296875 62.09765625 C66.18612622 59.81134131 66.16409607 58.55418219 66.15649414 56.01513672 C66.15641861 55.1744162 66.15634308 54.33369568 66.15626526 53.46749878 C66.15110397 52.55912262 66.14594269 51.65074646 66.140625 50.71484375 C66.13921005 49.78543976 66.1377951 48.85603577 66.13633728 47.89846802 C66.13072928 44.92316501 66.11817543 41.94793661 66.10546875 38.97265625 C66.10045478 36.95833442 66.0958917 34.94401141 66.09179688 32.9296875 C66.08075725 27.98564823 66.06348724 23.0416649 66.04296875 18.09765625 C66.98325928 17.98010986 67.9235498 17.86256348 68.89233398 17.74145508 C70.13700439 17.57669678 71.3816748 17.41193848 72.6640625 17.2421875 C73.89310303 17.08339111 75.12214355 16.92459473 76.38842773 16.76098633 C79.88377156 16.12655189 82.83093862 15.133236 86.10546875 13.78515625 C89.0390625 13.00390625 89.0390625 13.00390625 92.04296875 13.09765625 C96.49925924 15.68347047 99.9423954 18.88531584 103.52636719 22.55761719 C104.89291282 23.94528136 106.32787987 25.26475317 107.76953125 26.57421875 C120.32246355 38.19442543 128.1004418 53.89715124 133.04296875 70.09765625 C134.36296875 70.09765625 135.68296875 70.09765625 137.04296875 70.09765625 C136.10016854 51.24165204 123.23814876 32.44589626 109.84765625 19.6640625 C106.37167497 16.64703113 102.73102034 13.84905982 99.04296875 11.09765625 C100.7191948 9.40706255 102.40785497 7.76496587 104.16796875 6.16015625 C106.13439763 3.99708449 106.47395415 2.87886024 107.04296875 0.09765625 C131.27814957 -0.64452832 151.83209374 2.28703292 170.65625 18.83203125 C183.44120119 30.96831879 191.57678862 45.76675559 195.04296875 63.09765625 C195.04296875 73.98765625 195.04296875 84.87765625 195.04296875 96.09765625 C107.92296875 96.09765625 20.80296875 96.09765625 -68.95703125 96.09765625 C-68.95703125 55.69609094 -68.95703125 55.69609094 -61.26953125 40.91015625 C-60.75797485 39.91145508 -60.75797485 39.91145508 -60.23608398 38.89257812 C-50.23879902 20.07309184 -33.73119749 8.73162046 -14.015625 2.0078125 C-9.24078729 0.58694764 -4.98765667 -0.02557773 0 0 Z " fill="#FF0077" transform="translate(128.95703125,387.90234375)"/>
<path d="M0 0 C4.16389358 0.55386708 6.51977959 2.87172493 9.6875 5.5 C28.44117293 20.43328031 50.8432042 27.06222247 74.46484375 29.08203125 C75.48058472 29.17150024 76.49632568 29.26096924 77.54284668 29.35314941 C80.02832647 29.57166116 82.51402537 29.78720486 85 30 C85.10225721 37.71879632 85.17182211 45.437415 85.21972656 53.15673828 C85.23971814 55.77724739 85.26692055 58.39771261 85.30175781 61.01806641 C85.66540337 89.09364282 85.66540337 89.09364282 81 100 C80.72269043 100.68771484 80.44538086 101.37542969 80.15966797 102.08398438 C72.8205295 118.7761921 59.85976062 130.27883382 43.49609375 137.7109375 C34.65228683 140.97178251 26.62507598 142.53430738 17.1875 142.4375 C16.13651123 142.42920166 15.08552246 142.42090332 14.00268555 142.41235352 C-4.11288546 142.01990301 -19.99556364 134.68773775 -33 122 C-45.74407917 107.64529471 -51.54011504 91.45177101 -51.29296875 72.45703125 C-51.28872391 71.20742111 -51.28447906 69.95781097 -51.28010559 68.67033386 C-51.26626728 65.38723578 -51.23943162 62.1046007 -51.20599365 58.82165527 C-51.17501412 55.4560302 -51.16154142 52.09033667 -51.14648438 48.72460938 C-51.11358191 42.1495623 -51.06350882 35.57481892 -51 29 C-49.99042236 28.81026611 -48.98084473 28.62053223 -47.94067383 28.42504883 C-46.59190657 28.16515153 -45.24319532 27.90496348 -43.89453125 27.64453125 C-42.90072449 27.45896667 -42.90072449 27.45896667 -41.88684082 27.26965332 C-24.76137739 23.93284164 -9.83286955 14.33960143 0 0 Z M-26 56 C-25.67958603 58.60280568 -25.67958603 58.60280568 -25 61 C-24.319375 60.855625 -23.63875 60.71125 -22.9375 60.5625 C-21.4834375 60.2840625 -21.4834375 60.2840625 -20 60 C-18.2365625 59.6596875 -18.2365625 59.6596875 -16.4375 59.3125 C-12.81730254 58.98339114 -12.03836584 59.37953822 -9 61 C-6.31006947 60.69621948 -6.31006947 60.69621948 -4 60 C-4.30630976 57.16663471 -4.62394159 55.43873481 -6.5 53.25 C-13.56629545 49.71685228 -20.2962418 50.2962418 -26 56 Z M38 56 C38.32041397 58.60280568 38.32041397 58.60280568 39 61 C39.680625 60.855625 40.36125 60.71125 41.0625 60.5625 C42.5165625 60.2840625 42.5165625 60.2840625 44 60 C45.7634375 59.6596875 45.7634375 59.6596875 47.5625 59.3125 C51.18269746 58.98339114 51.96163416 59.37953822 55 61 C57.68993053 60.69621948 57.68993053 60.69621948 60 60 C59.69369024 57.16663471 59.37605841 55.43873481 57.5 53.25 C50.43370455 49.71685228 43.7037582 50.2962418 38 56 Z M-9 95 C-9.33 96.65 -9.66 98.3 -10 100 C0.88408681 107.32360097 11.81312405 110.68674478 24.99609375 108.50390625 C31.22841626 107.09865646 38.13684566 105.36644261 43 101 C43.79160376 98.41628732 43.79160376 98.41628732 44 96 C39.53117858 94.63635229 37.18115118 95.44441744 33 97.375 C21.05722866 102.82845936 11.14052993 101.50745962 -1 97 C-1.70382813 96.62617188 -2.40765625 96.25234375 -3.1328125 95.8671875 C-5.26151508 94.7191848 -5.26151508 94.7191848 -9 95 Z " fill="#FF0077" transform="translate(175,222)"/>
<path d="M0 0 C9.06797832 6.6923852 16.00791399 16.0664532 18.234375 27.23828125 C19.76984591 42.02180864 17.89845381 54.71417178 8.5625 66.6953125 C0.81983213 75.15248831 -8.73901607 80.84781211 -20.26171875 81.61328125 C-34.92348358 82.17629302 -46.66444917 79.40156972 -57.765625 69.23828125 C-67.70846012 58.20925406 -70.69387135 47.35865427 -70.140625 32.8359375 C-69.35650357 20.84133005 -64.103324 10.95181293 -55.1875 2.9140625 C-38.98195864 -9.61050589 -17.48409611 -11.13746801 0 0 Z M-42.63671875 28.5546875 C-45.76025723 33.212975 -45.17430413 38.87147606 -44.765625 44.23828125 C-42.74410981 50.54065215 -37.96204413 54.43517302 -32.328125 57.61328125 C-26.04506835 59.14573409 -21.26802709 58.67908023 -15.66015625 55.58203125 C-11.51805951 52.6441317 -8.37294434 49.06023927 -6.765625 44.23828125 C-6.06745104 37.05052306 -6.34903622 32.04958227 -10.765625 26.23828125 C-15.19496347 21.68759104 -19.26622104 19.48412426 -25.578125 18.86328125 C-33.07507873 19.10329672 -38.03484338 22.9246002 -42.63671875 28.5546875 Z " fill="#FF0077" transform="translate(445.765625,34.76171875)"/>
<path d="M0 0 C5.00186675 2.66692453 8.26576726 6.74522156 11.078125 11.56640625 C12.74551512 18.23596674 12.53938059 24.45292765 9.109375 30.4921875 C6.10594047 34.56952449 2.58068793 37.71138527 -2.234375 39.31640625 C-4.37775265 39.43656953 -6.52516624 39.49172289 -8.671875 39.50390625 C-9.80496094 39.51808594 -10.93804687 39.53226563 -12.10546875 39.546875 C-15.15662394 39.32213323 -16.61497166 38.74713704 -19.234375 37.31640625 C-21.41418637 45.71219583 -22.82345892 55.13944665 -19.234375 63.31640625 C-13.93967211 71.34597925 -6.36781142 77.78943682 0.73852539 84.17016602 C1.45017349 84.80980286 2.16182159 85.4494397 2.89503479 86.10845947 C4.26088403 87.31946652 5.64204378 88.51347791 7.03965759 89.68768311 C11.637359 93.66851458 11.637359 93.66851458 12.31445312 97.08862305 C11.765625 99.31640625 11.765625 99.31640625 9.765625 101.31640625 C7.49926758 101.76953125 7.49926758 101.76953125 4.765625 101.31640625 C2.63694987 99.62381974 0.88447675 98.01955166 -0.97265625 96.06640625 C-1.49828659 95.53370117 -2.02391693 95.00099609 -2.56547546 94.45214844 C-4.23805828 92.75162516 -5.89240433 91.03453812 -7.546875 89.31640625 C-8.67917818 88.15901989 -9.81262942 87.00275553 -10.94726562 85.84765625 C-13.7231145 83.01674284 -16.48273548 80.17084871 -19.234375 77.31640625 C-19.25419434 78.27530762 -19.27401367 79.23420898 -19.29443359 80.22216797 C-19.37041645 83.77452178 -19.4591443 87.32646201 -19.55175781 90.87841797 C-19.59007801 92.41674646 -19.62492556 93.9551655 -19.65625 95.49365234 C-19.70183559 97.70312901 -19.7598384 99.91198073 -19.8203125 102.12109375 C-19.83186371 102.81073212 -19.84341492 103.50037048 -19.85531616 104.21090698 C-20.00663159 109.08866284 -20.00663159 109.08866284 -22.234375 111.31640625 C-25.359375 111.44140625 -25.359375 111.44140625 -28.234375 111.31640625 C-29.63157926 108.52199772 -29.22254932 105.97614798 -29.11538696 102.91853333 C-28.98598983 99.15220912 -28.95397368 95.38609727 -28.91308594 91.61791992 C-28.87768569 89.64789639 -28.81739085 87.67814014 -28.73046875 85.7097168 C-28.08475027 72.79725222 -28.08475027 72.79725222 -33.66699219 61.57568359 C-37.23267995 57.80309856 -41.09330641 54.44214134 -45.234375 51.31640625 C-45.64349121 51.96633545 -46.05260742 52.61626465 -46.47412109 53.28588867 C-50.31583444 59.337397 -54.01008397 64.38992864 -61.234375 66.31640625 C-68.06765297 67.09667675 -73.61361644 66.45675088 -79.234375 62.31640625 C-84.50781034 57.26126127 -86.38352573 53.46010994 -86.546875 46.06640625 C-86.4797512 39.35402634 -85.58754875 35.74307422 -80.80859375 30.859375 C-75.44489853 26.05006688 -70.98618659 25.10521515 -64.02734375 24.85546875 C-54.06429985 26.49971935 -47.90877887 34.17194427 -41.234375 41.06640625 C-40.16370281 42.15717583 -39.09209541 43.24702826 -38.01953125 44.3359375 C-35.41360415 46.98559857 -32.82057896 49.64747431 -30.234375 52.31640625 C-30.2250293 51.20716797 -30.21568359 50.09792969 -30.20605469 48.95507812 C-30.16595398 44.80982419 -30.10014102 40.66529685 -30.02685547 36.52050781 C-29.99876166 34.73219185 -29.97748986 32.94375439 -29.96337891 31.15527344 C-29.94178749 28.57294023 -29.89505791 25.99205006 -29.84375 23.41015625 C-29.84190704 22.22528625 -29.84190704 22.22528625 -29.84002686 21.01647949 C-29.67029097 14.4728924 -27.78305952 9.20491537 -23.41796875 4.2578125 C-22.55365234 3.57525391 -22.55365234 3.57525391 -21.671875 2.87890625 C-21.09308594 2.40582031 -20.51429687 1.93273438 -19.91796875 1.4453125 C-14.61272804 -2.11202988 -5.92664147 -1.81322073 0 0 Z M-18.234375 12.31640625 C-20.52291494 15.58574903 -20.70599718 18.38622145 -20.234375 22.31640625 C-18.19443592 25.97422805 -16.73018238 27.98586799 -13.234375 30.31640625 C-8.73155089 31.04158017 -5.24151846 30.91640661 -1.296875 28.56640625 C1.54768965 25.46324481 2.59472142 23.62666699 3.140625 19.44140625 C2.66423998 15.47153111 1.23522074 13.42104089 -1.234375 10.31640625 C-7.03913869 6.44656379 -13.47263482 7.1217806 -18.234375 12.31640625 Z M-75.234375 38.31640625 C-77.91905538 42.34342682 -77.91625237 45.58484255 -77.234375 50.31640625 C-75.16424661 53.79126463 -73.11803188 56.05992903 -69.234375 57.31640625 C-65.24346919 57.83695918 -63.53914137 57.48637211 -59.984375 55.50390625 C-57.24363242 53.32377011 -55.47019945 51.78071157 -54.8984375 48.23046875 C-54.82973807 44.20468226 -54.88009417 41.91109193 -56.984375 38.37890625 C-60.08753644 35.5343416 -61.92411426 34.48730983 -66.109375 33.94140625 C-70.07925014 34.41779127 -72.12974036 35.84681051 -75.234375 38.31640625 Z " fill="#FF0077" transform="translate(106.234375,52.68359375)"/>
<path d="M0 0 C0.08636719 0.72703125 0.17273438 1.4540625 0.26171875 2.203125 C2.37392653 17.31800634 8.32660393 28.67876699 20.10546875 38.39453125 C22.18775126 40.15910467 24.07999507 42.06155983 26 44 C15.13542147 49.45761681 4.24247319 54.85457749 -6.68554688 60.18408203 C-8.33054257 60.98715339 -9.97473208 61.79187796 -11.61816406 62.59814453 C-14.0379586 63.78520457 -16.46009527 64.96735616 -18.8828125 66.1484375 C-19.61098175 66.50674652 -20.339151 66.86505554 -21.08938599 67.23422241 C-24.99377785 69.1300932 -28.83497033 70.73131809 -33 72 C-33.42821045 71.25427734 -33.8564209 70.50855469 -34.29760742 69.74023438 C-35.9085472 66.93648126 -37.52084824 64.13351651 -39.1340332 61.33105469 C-39.82792711 60.12498185 -40.52129975 58.91860895 -41.21411133 57.71191406 C-42.21814525 55.96337267 -43.22417526 54.21599176 -44.23046875 52.46875 C-44.87290527 51.35113281 -45.5153418 50.23351562 -46.17724609 49.08203125 C-47.72762446 46.46055034 -49.35564868 43.93458333 -51.05078125 41.40625 C-53 38 -53 38 -52.79785156 35.92407227 C-51.44183918 32.65395794 -48.3377837 31.23986053 -45.4375 29.4375 C-44.05517984 28.5481323 -42.67369552 27.65746439 -41.29296875 26.765625 C-40.57931152 26.30865234 -39.8656543 25.85167969 -39.13037109 25.38085938 C-35.79076713 23.21620203 -32.52125829 20.95358158 -29.25 18.6875 C-27.92976699 17.77853037 -26.60945238 16.86967925 -25.2890625 15.9609375 C-22.13343841 13.78520989 -18.98427805 11.60031304 -15.8359375 9.4140625 C-14.09902956 8.21343861 -12.36205153 7.01291613 -10.625 5.8125 C-9.79774414 5.2352417 -8.97048828 4.6579834 -8.11816406 4.06323242 C-7.34956055 3.53318604 -6.58095703 3.00313965 -5.7890625 2.45703125 C-4.76353271 1.7451062 -4.76353271 1.7451062 -3.71728516 1.01879883 C-2 0 -2 0 0 0 Z " fill="#FF0077" transform="translate(369,74)"/>
<path d="M0 0 C2.17023916 3.78538159 4.33894474 7.57163665 6.50634766 11.35864258 C7.24097207 12.64175021 7.97598581 13.92463503 8.71142578 15.20727539 C10.8245299 18.89295564 12.92639716 22.58470629 15.01919556 26.2819519 C15.94678345 27.90678204 16.89408505 29.52031184 17.8425293 31.13305664 C22.02590162 38.40074293 23.10396048 43.61217655 22 52 C20.2705513 57.83688936 15.80995603 61.47981041 11 65 C5.1809392 66.93968693 -1.46672482 66.76476232 -7.3125 65 C-15.59718581 58.83465242 -20.26461721 49.83883847 -25.1875 41 C-25.89176765 39.75474961 -26.59684158 38.50995487 -27.30273438 37.265625 C-30.699761 31.25469439 -33.99288265 25.21626326 -37 19 C-35.90945313 18.77957031 -35.90945313 18.77957031 -34.796875 18.5546875 C-22.30769362 15.76863935 -13.21574985 10.85547594 -4.1796875 1.9765625 C-2 0 -2 0 0 0 Z " fill="#FF0077" transform="translate(462,104)"/>
<path d="M0 0 C5.15694501 1.20990889 9.0432824 3.48422022 12.33984375 7.72265625 C15.53696576 13.2635759 16.22896321 18.75406671 15 25 C12.85161799 30.62824629 9.98375243 35.77663457 7 41 C6.45875488 41.95293945 5.91750977 42.90587891 5.35986328 43.88769531 C1.31825843 50.97198245 -2.7823497 58.01898016 -7 65 C-7.6079541 66.01223633 -8.2159082 67.02447266 -8.84228516 68.06738281 C-9.44476074 69.04674805 -10.04723633 70.02611328 -10.66796875 71.03515625 C-11.20574951 71.91437744 -11.74353027 72.79359863 -12.29760742 73.69946289 C-15.56954411 78.12101164 -19.88197932 80.29399311 -25 82 C-31.89430907 82.60476395 -36.76040943 80.86407436 -43 78 C-42.40978811 73.99837244 -41.15443329 71.14707221 -39.11328125 67.66796875 C-38.51177246 66.63454346 -37.91026367 65.60111816 -37.29052734 64.53637695 C-36.63777832 63.43124756 -35.9850293 62.32611816 -35.3125 61.1875 C-34.63164703 60.02277515 -33.95148143 58.85764824 -33.27197266 57.69213867 C-31.52572812 54.70036791 -29.77166108 51.71326882 -28.01531982 48.72741699 C-25.29235521 44.09469414 -22.58496665 39.45283281 -19.875 34.8125 C-19.30998779 33.84658936 -18.74497559 32.88067871 -18.1628418 31.88549805 C-11.9951688 21.32127735 -5.98689289 10.66744514 0 0 Z " fill="#FF0077" transform="translate(405,321)"/>
<path d="M0 0 C2.289375 0.94875 4.57875 1.8975 6.9375 2.875 C12.55650649 5.13933981 17.96547246 7.18228529 24 8 C24.94746094 8.13277344 25.89492187 8.26554687 26.87109375 8.40234375 C43.11640952 10.17202931 57.15910312 6.36038438 72 0 C72 9.57 72 19.14 72 29 C48.64075676 38.73301802 28.91927989 40.9333342 5.16796875 31.33984375 C3.42633508 30.60324653 1.69135763 29.84567882 0 29 C0 19.43 0 9.86 0 0 Z " fill="#FF0077" transform="translate(156,362)"/>
<path d="M0 0 C1 1 1 1 1.05004883 3.05029297 C1.01935303 3.93861816 0.98865723 4.82694336 0.95703125 5.7421875 C0.55870019 21.76907712 1.492766 32.78931595 12.7421875 44.87109375 C19.38864731 51.28313486 28.37670852 55.49953995 37.66015625 56.0703125 C46.94959173 55.79116419 57.97847808 54.21302296 64.625 47.25 C66.73123182 42.27163389 66.93489078 38.33722696 64.875 33.1875 C62.08867576 29.93678838 59.29758796 28.37605232 55.04296875 27.6796875 C49.78511573 27.37808981 47.33719415 28.98282146 43 32 C39.625 32.25 39.625 32.25 37 32 C36.34 30.35 35.68 28.7 35 27 C38.34621437 22.4369804 41.29751687 19.29943589 47 18 C54.59920313 17.05447703 61.37977258 18.03482 68 22 C72.75735047 26.15652567 75.59984073 30.71026961 76.37109375 37.05078125 C76.51872199 44.30193319 76.10213128 49.57032449 71 55 C67.5341463 58.08861793 64.23780051 59.96411787 59.9375 61.6875 C58.91527344 62.10386719 57.89304687 62.52023438 56.83984375 62.94921875 C45.86128964 67.01143478 31.34320242 66.57366961 20.546875 62.2734375 C16.41546359 60.2077318 12.66082114 57.81061124 9 55 C8.1853125 54.40058594 7.370625 53.80117187 6.53125 53.18359375 C-2.2240804 45.63077015 -8.281114 34.18362413 -9.18212891 22.67333984 C-9.9403766 6.66276825 -9.9403766 6.66276825 -7 0 C-4.31633121 -1.3418344 -2.84719317 -0.73004953 0 0 Z " fill="#FF0077" transform="translate(303,186)"/>
<path d="M0 0 C4.00554271 3.61475806 7.14562244 6.7861259 7.80078125 12.328125 C7.99533033 18.18507623 7.24219183 21.66446821 3.5625 26.3125 C0.4375 27.375 0.4375 27.375 -2.4375 27.3125 C-3.0975 26.6525 -3.7575 25.9925 -4.4375 25.3125 C-3.86057692 18.73557692 -3.86057692 18.73557692 -2.4375 17.3125 C-2.58585494 13.3069166 -2.67331639 11.07668361 -5.5625 8.1875 C-8.84635999 7.18806435 -10.65640191 7.48445095 -13.7265625 9.01953125 C-17.7293371 12.04445909 -19.8834545 16.65036351 -21.4375 21.3125 C-22.07864199 28.9956933 -22.39952479 36.06829826 -17.4375 42.3125 C-9.16328805 51.38496616 1.51381932 57.49751326 13.88037109 58.50048828 C21.76232081 58.71375579 28.64348089 57.0262242 36.1875 54.875 C51.46688898 50.59778745 51.46688898 50.59778745 58.5625 50.3125 C59.2225 50.9725 59.8825 51.6325 60.5625 52.3125 C60.1875 55.4375 60.1875 55.4375 59.5625 58.3125 C14.90652982 73.01808842 14.90652982 73.01808842 -7.5625 62.6875 C-17.72073037 57.30257422 -26.19322303 49.28894648 -30.5703125 38.52734375 C-32.88115648 29.96056631 -32.60642188 19.53593878 -28.76953125 11.49609375 C-22.34036073 0.95677903 -12.30442086 -6.04035206 0 0 Z " fill="#FF0077" transform="translate(203.4375,73.6875)"/>
<path d="M0 0 C1.97752845 2.54816776 3.5536637 5.09937401 5.10229492 7.9296875 C5.69848633 9.00863281 6.29467773 10.08757812 6.90893555 11.19921875 C7.5205957 12.32199219 8.13225586 13.44476563 8.76245117 14.6015625 C9.97801828 16.81613757 11.19542866 19.02970201 12.41479492 21.2421875 C12.98955566 22.29470703 13.56431641 23.34722656 14.15649414 24.43164062 C15.97824627 27.61984014 17.98416924 30.61622928 20.17480469 33.56152344 C20.82495117 35.3515625 20.82495117 35.3515625 20.11547852 37.79467773 C18.01226668 41.96171095 15.46614054 45.77916424 12.88745117 49.6640625 C12.34926758 50.50001953 11.81108398 51.33597656 11.2565918 52.19726562 C10.73387695 52.98681641 10.21116211 53.77636719 9.67260742 54.58984375 C9.19831299 55.31212158 8.72401855 56.03439941 8.23535156 56.77856445 C7.53720337 57.55719849 7.53720337 57.55719849 6.82495117 58.3515625 C5.83495117 58.3515625 4.84495117 58.3515625 3.82495117 58.3515625 C2.30043929 55.70907524 0.77593541 53.06658336 -0.74853516 50.42407227 C-2.08548081 48.10677638 -3.42253711 45.78954474 -4.75976562 43.47241211 C-7.97197658 37.90597165 -11.18321469 32.33898264 -14.38893127 26.76879883 C-15.42466526 24.96922099 -16.46080582 23.16987787 -17.49707031 21.37060547 C-18.80729064 19.09535717 -20.11671943 16.81965285 -21.42529297 14.54345703 C-22.01947021 13.5120459 -22.61364746 12.48063477 -23.22583008 11.41796875 C-24.00953979 10.0558728 -24.00953979 10.0558728 -24.80908203 8.66625977 C-25.87482848 6.86030049 -27.01185635 5.09635121 -28.17504883 3.3515625 C-28.17504883 2.3615625 -28.17504883 1.3715625 -28.17504883 0.3515625 C-23.92800447 -0.1000988 -19.67772902 -0.50367394 -15.42504883 -0.8984375 C-14.21848633 -1.02734375 -13.01192383 -1.15625 -11.76879883 -1.2890625 C-10.02856445 -1.44375 -10.02856445 -1.44375 -8.25317383 -1.6015625 C-6.65070801 -1.75866699 -6.65070801 -1.75866699 -5.01586914 -1.91894531 C-2.17504883 -1.6484375 -2.17504883 -1.6484375 0 0 Z " fill="#FF0077" transform="translate(310.175048828125,113.6484375)"/>
<path d="M0 0 C3.13497967 2.68712543 4.38843554 4.55828904 4.9609375 8.65234375 C5.02630442 12.89465711 5.0519368 15.51810834 2.875 19.25 C-1.11874413 22.79999478 -3.85050991 23.70745032 -9.34375 23.57421875 C-12.69051204 23.04002404 -14.81751471 21.38123774 -17.375 19.25 C-20.34551564 14.79422653 -20.00237491 10.47557394 -19.375 5.25 C-15.05748705 -2.30564766 -7.58183538 -3.93132205 0 0 Z " fill="#FF0077" transform="translate(427.375,62.75)"/>
<path d="M0 0 C4.85656988 1.11860908 9.02541226 3.48065161 13.3125 5.9375 C14.26092773 6.45860352 14.26092773 6.45860352 15.22851562 6.99023438 C19.87898892 9.63696677 19.87898892 9.63696677 21 13 C19.0625 16.1875 19.0625 16.1875 17 19 C14.78904188 17.92177933 12.58132694 16.83762596 10.375 15.75 C9.75753906 15.44964844 9.14007813 15.14929688 8.50390625 14.83984375 C4.45842607 12.83839566 0.6037292 10.74517763 -3 8 C-3.5625 4.875 -3.5625 4.875 -3 2 C-2.01 1.34 -1.02 0.68 0 0 Z " fill="#FF0077" transform="translate(365,330)"/>
<path d="M0 0 C6.15158271 -0.78614476 9.86822464 1.86015783 14.875 5 C15.65875 5.47695313 16.4425 5.95390625 17.25 6.4453125 C19.17421505 7.61861436 21.09012729 8.80354526 23 10 C21.87548273 12.9719385 20.77706209 15.33440687 19 18 C14.30291545 16.61934181 10.4244724 14.673929 6.25 12.125 C5.12078125 11.44695312 3.9915625 10.76890625 2.828125 10.0703125 C0.15587623 8.11410829 -1.07526881 7.13887628 -2 4 C-1.125 1.75 -1.125 1.75 0 0 Z " fill="#FF0077" transform="translate(337,376)"/>
<path d="M0 0 C5.18111662 1.1263297 9.42479896 3.8651854 13.875 6.625 C14.56335938 7.04523438 15.25171875 7.46546875 15.9609375 7.8984375 C17.64391658 8.92692472 19.32242532 9.962721 21 11 C19.87548273 13.9719385 18.77706209 16.33440687 17 19 C12.6366679 17.4095488 8.75213615 15.25824078 4.75 12.9375 C4.11320312 12.57333984 3.47640625 12.20917969 2.8203125 11.83398438 C-1.85925752 9.14074248 -1.85925752 9.14074248 -3 8 C-3.25 5.0625 -3.25 5.0625 -3 2 C-2.01 1.34 -1.02 0.68 0 0 Z " fill="#FF0077" transform="translate(353,351)"/>
<path d="M0 0 C5.17935061 1.46828943 9.34373412 3.81491263 13.875 6.625 C14.56335938 7.04523438 15.25171875 7.46546875 15.9609375 7.8984375 C17.64391658 8.92692472 19.32242532 9.962721 21 11 C19.68 13.64 18.36 16.28 17 19 C12.73855295 17.41717681 8.77998031 15.3888919 4.8125 13.1875 C4.18408203 12.85685547 3.55566406 12.52621094 2.90820312 12.18554688 C-0.11780999 10.49939411 -1.81790741 9.35271085 -3.42578125 6.23828125 C-3.61527344 5.49964844 -3.80476563 4.76101563 -4 4 C-2.68 2.68 -1.36 1.36 0 0 Z " fill="#FF0077" transform="translate(379,306)"/>
<path d="M0 0 C1 1 1 1 1.625 3.625 C0.73887081 8.41009764 -1.84703977 9.93296698 -5.54296875 12.875 C-8 14 -8 14 -10.6875 13.28125 C-12.91730103 12.0458197 -14.42160648 10.99376023 -16 9 C-16 8.34 -16 7.68 -16 7 C-14.0234375 5.2734375 -14.0234375 5.2734375 -11.375 3.375 C-10.51648438 2.74335938 -9.65796875 2.11171875 -8.7734375 1.4609375 C-5.57280529 -0.22502933 -3.5682498 -0.3578474 0 0 Z " fill="#FF0077" transform="translate(275,156)"/>
</svg>
