<?xml version="1.0" encoding="UTF-8"?>
<svg version="1.1" xmlns="http://www.w3.org/2000/svg" width="512" height="512">
<path d="M0 0 C10.75950906 9.17563719 19.86927425 19.14590852 27.515625 31.04296875 C28.16144531 32.03941406 28.80726563 33.03585938 29.47265625 34.0625 C35.81105439 44.37793227 39.92962324 55.46302548 43.265625 67.04296875 C43.46430176 67.71730957 43.66297852 68.39165039 43.86767578 69.08642578 C47.91162201 83.85878463 47.86471255 98.95919953 47.97192383 114.14282227 C48.05965222 124.61527836 48.6857119 134.42326339 50.84106445 144.68139648 C53.13262852 156.10106554 51.66687465 167.04624921 47.42578125 177.80859375 C43.05720995 188.93989997 44.10366094 196.1000328 48.515625 207.04296875 C53.50350897 219.81529089 52.47221735 232.22948521 47.42578125 244.74609375 C43.04925179 255.89767772 44.10484198 263.08715287 48.515625 274.04296875 C52.70609925 284.93118845 53.11121707 295.70388069 48.67578125 306.59375 C47.61340086 308.83655305 46.43579829 310.95365928 45.203125 313.10546875 C43.12989432 317.07445512 43.50389047 320.06967588 44.140625 324.4140625 C46.0294721 337.65566772 42.99006886 349.98400665 35.515625 361.04296875 C27.94630892 370.56607411 27.94630892 370.56607411 23.515625 372.04296875 C23.515625 372.70296875 23.515625 373.36296875 23.515625 374.04296875 C24.82660156 374.43162109 24.82660156 374.43162109 26.1640625 374.828125 C52.23621715 384.27852138 70.77635126 413.72601948 82.26904297 437.36132812 C84.55295913 442.2744764 86.62889955 447.26305364 88.640625 452.29296875 C89.0312915 453.2571875 89.42195801 454.22140625 89.82446289 455.21484375 C91.81896193 460.37995698 93.09578373 464.49841382 92.515625 470.04296875 C91.453125 471.98046875 91.453125 471.98046875 89.515625 473.04296875 C86.015625 473.48046875 86.015625 473.48046875 82.515625 473.04296875 C80.578125 471.16796875 80.578125 471.16796875 79.515625 469.04296875 C79.515625 468.38296875 79.515625 467.72296875 79.515625 467.04296875 C36.945625 467.04296875 -5.624375 467.04296875 -49.484375 467.04296875 C-46.77508689 465.23677668 -44.34227643 464.21053106 -41.29370117 463.14111328 C-23.70811917 456.96583244 -1.60117852 446.38803242 8.515625 430.04296875 C8.28988609 426.85061603 8.28988609 426.85061603 7.515625 424.04296875 C5.11186047 423.18448142 3.94528269 422.8729664 1.53125 423.828125 C-0.80065074 425.07923946 -0.80065074 425.07923946 -2.984375 428.10546875 C-20.14194844 448.78034475 -51.62627953 458.58734806 -77.484375 461.04296875 C-80.5992595 461.19442194 -83.70988195 461.22944099 -86.828125 461.24609375 C-87.70661102 461.25310806 -88.58509705 461.26012238 -89.49020386 461.26734924 C-92.32164664 461.28480841 -95.15288031 461.29120463 -97.984375 461.29296875 C-98.95078918 461.29364349 -99.91720337 461.29431824 -100.91290283 461.29501343 C-115.63472338 461.27866841 -129.98990207 460.87182587 -144.484375 458.04296875 C-145.39219727 457.86604492 -146.30001953 457.68912109 -147.23535156 457.50683594 C-160.41045149 454.83489798 -174.8579888 451.69712845 -186.171875 444.10546875 C-189.25059111 441.75631155 -189.25059111 441.75631155 -192.421875 442.16796875 C-194.43732088 442.8709849 -194.43732088 442.8709849 -195.484375 444.04296875 C-195.52530437 446.37594308 -195.52679223 448.710021 -195.484375 451.04296875 C-194.76507813 451.31625 -194.04578125 451.58953125 -193.3046875 451.87109375 C-190.53678037 453.02119367 -187.99287952 454.36488758 -185.359375 455.79296875 C-179.11481385 458.96975298 -172.68825606 461.04025981 -165.98388672 463.03808594 C-165.20029785 463.27172852 -164.41670898 463.50537109 -163.609375 463.74609375 C-162.56136719 464.05015137 -162.56136719 464.05015137 -161.4921875 464.36035156 C-159.37405988 465.08047374 -157.47444644 466.02661454 -155.484375 467.04296875 C-156.76810501 467.04439377 -158.05183502 467.04581879 -159.37446594 467.04728699 C-171.45566138 467.06393591 -183.53651908 467.1066451 -195.61753559 467.17505932 C-201.82897612 467.20939169 -208.04016906 467.23444904 -214.25170898 467.23852539 C-220.2430493 467.24279488 -226.23383049 467.27114583 -232.22499657 467.31640053 C-234.51396621 467.32941871 -236.80300262 467.33366804 -239.09200478 467.32912254 C-242.29152895 467.32424738 -245.48939943 467.35017291 -248.6887207 467.38354492 C-249.64106094 467.37491928 -250.59340118 467.36629364 -251.57460022 467.35740662 C-253.9854747 467.39973201 -256.14403345 467.46232671 -258.484375 468.04296875 C-260.55172745 470.40638016 -260.55172745 470.40638016 -261.484375 473.04296875 C-264.35308755 473.85529725 -266.4504657 473.38006978 -269.484375 473.04296875 C-271.484375 471.04296875 -271.484375 471.04296875 -271.828125 467.54296875 C-271.68668919 462.30984396 -269.91885912 457.85407031 -267.984375 453.04296875 C-267.4418811 451.66310791 -267.4418811 451.66310791 -266.88842773 450.25537109 C-259.59794545 432.04733235 -250.38271349 414.88962223 -237.484375 400.04296875 C-236.73607422 399.09550781 -236.73607422 399.09550781 -235.97265625 398.12890625 C-231.55546511 392.58526809 -226.07201849 388.35650672 -220.484375 384.04296875 C-219.6903125 383.42164063 -218.89625 382.8003125 -218.078125 382.16015625 C-209.97696575 376.13829454 -200.17671557 370.69506847 -190.171875 368.85546875 C-188.3465625 368.45328125 -188.3465625 368.45328125 -186.484375 368.04296875 C-185.39199139 366.20274497 -185.39199139 366.20274497 -184.484375 364.04296875 C-171.7973292 347.41265195 -155.69749421 341.11086603 -135.484375 338.04296875 C-133.8180307 338.01019011 -132.15051539 338.00108823 -130.484375 338.04296875 C-128.74742899 322.82935735 -128.74742899 322.82935735 -133.0390625 308.81347656 C-136.98009825 305.30571733 -141.59813873 303.14801648 -146.39355469 301.03125 C-157.79570044 295.64172571 -166.74633361 284.31848188 -173.484375 274.04296875 C-173.13044046 279.58794324 -171.53163568 283.19817874 -168.640625 287.9296875 C-166.72432351 291.43211691 -166.31474815 294.64709133 -166.234375 298.60546875 C-166.20859375 299.36988281 -166.1828125 300.13429688 -166.15625 300.921875 C-166.484375 303.04296875 -166.484375 303.04296875 -167.7578125 304.79296875 C-170.98907645 307.13234536 -174.72291618 306.5232698 -178.484375 306.04296875 C-191.08652968 303.25822296 -201.37780772 298.24552294 -208.6015625 287.359375 C-209.64914724 284.61062389 -209.79796179 282.02373417 -209.96484375 279.10424805 C-210.72552052 265.95302039 -213.60993357 253.33777523 -216.56494141 240.54321289 C-216.74006256 239.77375336 -216.91518372 239.00429382 -217.09561157 238.21151733 C-217.41948343 236.79277198 -217.74979679 235.37546715 -218.08920288 233.96035767 C-221.9313548 217.14058383 -221.79555181 200.33222161 -221.78515625 183.171875 C-221.78747503 181.16054629 -221.7909794 179.14922186 -221.794563 177.13789505 C-221.80558068 170.83141376 -221.80613917 164.52499207 -221.80004883 158.21850586 C-221.7940108 151.76438615 -221.80633358 145.31048453 -221.8276189 138.85640198 C-221.84536406 133.26518789 -221.85121628 127.67404242 -221.84798115 122.08280128 C-221.84618911 118.76525102 -221.84995606 115.44797927 -221.86269569 112.13043404 C-221.92323089 94.16807872 -221.15579726 77.6232413 -215.296875 60.48046875 C-214.88791992 59.23620117 -214.88791992 59.23620117 -214.47070312 57.96679688 C-213.81897262 55.98873763 -213.15335257 54.01526184 -212.484375 52.04296875 C-211.494375 52.04296875 -210.504375 52.04296875 -209.484375 52.04296875 C-208.13267501 54.74636872 -208.03821613 57.29376474 -207.671875 60.29296875 C-206.87744039 65.47679749 -206.25249043 69.17569239 -202.484375 73.04296875 C-198.14875421 76.09717273 -193.83724171 77.75417295 -188.5 77.41796875 C-183.98288084 76.57757449 -180.11670642 75.05199203 -177.1640625 71.41796875 C-174.90115131 67.39501553 -174.14911135 63.45845605 -173.484375 58.91796875 C-172.75692241 54.02924072 -172.04230139 50.69452478 -168.484375 47.04296875 C-163.92661168 44.80406747 -159.92269285 43.93800204 -154.921875 43.23046875 C-149.39218835 42.30885431 -146.06630355 40.34342788 -142.484375 36.04296875 C-140.04790165 32.01749104 -139.8061881 27.64616233 -140.484375 23.04296875 C-141.84419772 18.78579648 -143.72244738 15.78535976 -146.921875 12.66796875 C-151.37695433 10.6358273 -155.5866551 10.2260414 -160.4140625 9.59375 C-165.63278606 8.65756677 -168.2024548 6.7384116 -171.421875 2.48046875 C-172.484375 0.04296875 -172.484375 0.04296875 -171.484375 -2.95703125 C-123.08298664 -43.62417714 -47.62000574 -39.34087613 0 0 Z M-110.921875 31.16796875 C-112.67662419 32.97051565 -112.67662419 32.97051565 -112.984375 35.54296875 C-112.71261102 38.10363908 -112.71261102 38.10363908 -110.921875 39.60546875 C-109.00099229 40.73829702 -107.05878302 41.83496429 -105.109375 42.91796875 C-102.58325515 44.32197098 -100.42193896 45.84219837 -98.234375 47.73046875 C-94.75034507 50.66022119 -92.43779894 51.17017294 -88.03515625 51.140625 C-87.18759766 51.13740234 -86.34003906 51.13417969 -85.46679688 51.13085938 C-84.14518555 51.11829102 -84.14518555 51.11829102 -82.796875 51.10546875 C-81.90419922 51.10095703 -81.01152344 51.09644531 -80.09179688 51.09179688 C-77.88925513 51.08001858 -75.68684901 51.06357039 -73.484375 51.04296875 C-73.15824219 51.8628125 -72.83210938 52.68265625 -72.49609375 53.52734375 C-72.05910156 54.605 -71.62210937 55.68265625 -71.171875 56.79296875 C-70.52798828 58.39398438 -70.52798828 58.39398438 -69.87109375 60.02734375 C-68.63014828 62.7259632 -67.47282198 64.84661444 -65.484375 67.04296875 C-64.824375 67.04296875 -64.164375 67.04296875 -63.484375 67.04296875 C-63.484375 67.70296875 -63.484375 68.36296875 -63.484375 69.04296875 C-69.27422925 67.07195454 -72.89256973 64.12924931 -77.2734375 59.8828125 C-81.39171384 56.45576629 -85.11676239 55.71996434 -90.44140625 55.83984375 C-93.56530969 56.15044218 -96.4765859 57.16797556 -99.484375 58.04296875 C-104.92834703 58.45976284 -108.09092224 57.56485241 -112.859375 54.98046875 C-118.63184752 52.19966578 -122.35049235 50.98419153 -128.484375 53.04296875 C-131.34982929 54.19391299 -134.13307519 55.43085554 -136.90625 56.7890625 C-139.484375 58.04296875 -139.484375 58.04296875 -142.1875 59.015625 C-144.80030957 59.93939644 -144.80030957 59.93939644 -146.484375 63.04296875 C-146.40104167 65.62630208 -146.40104167 65.62630208 -145.484375 68.04296875 C-142.29629053 70.16835839 -141.29585605 70.28430527 -137.64453125 69.671875 C-134.90617212 68.8746312 -132.48339315 67.66910483 -129.921875 66.41796875 C-124.86780365 64.05894494 -124.86780365 64.05894494 -121.484375 63.91796875 C-118.60883473 64.99629635 -115.93606674 66.27116319 -113.171875 67.60546875 C-105.23451344 71.33182845 -99.72484943 70.53065914 -91.484375 68.04296875 C-88.359375 67.66796875 -88.359375 67.66796875 -85.484375 68.04296875 C-84.80632812 68.66042969 -84.12828125 69.27789062 -83.4296875 69.9140625 C-79.36314803 72.85340469 -75.34243808 73.48808634 -70.484375 74.48046875 C-59.43899099 76.92263074 -49.15040792 79.97359924 -39.484375 86.04296875 C-38.59699909 82.7153091 -38.33668267 79.47027585 -38.234375 76.04296875 C-38.20859375 75.21796875 -38.1828125 74.39296875 -38.15625 73.54296875 C-38.58772824 70.25551548 -39.40188238 68.64295453 -41.484375 66.04296875 C-44.58727959 64.21087832 -47.68361652 62.67743193 -50.94726562 61.16992188 C-58.34722094 57.53961674 -60.82535721 51.61098472 -64.04296875 44.3125 C-65.93315108 41.33635926 -67.19146688 40.36363044 -70.484375 39.04296875 C-73.70779014 38.88972258 -76.89202914 39.14802322 -80.109375 39.35546875 C-88.4253873 39.66663502 -92.88571434 38.56298382 -99.2890625 32.90234375 C-103.04750579 29.71903591 -106.33257233 29.04982905 -110.921875 31.16796875 Z M-157.09570312 116.39550781 C-171.08019451 132.98611046 -177.90094246 153.89887851 -177.08203125 175.48046875 C-176.60765692 180.84276976 -174.59558195 184.58926144 -171.2109375 188.75390625 C-166.89082485 194.48147642 -166.70868471 201.15521283 -167.484375 208.04296875 C-168.84874245 212.72752102 -170.8160916 216.91380024 -173.296875 221.10546875 C-174.98856303 225.29017071 -174.65203651 228.72262116 -173.484375 233.04296875 C-171.61259384 236.22585229 -171.61259384 236.22585229 -169.484375 239.04296875 C-167.69626047 243.38293487 -167.42568851 246.46971177 -167.859375 251.10546875 C-168.02590452 262.35261656 -160.31024749 270.61828974 -153.05078125 278.53125 C-152.20386719 279.36011719 -151.35695313 280.18898438 -150.484375 281.04296875 C-149.89124512 281.6251416 -149.29811523 282.20731445 -148.68701172 282.80712891 C-142.77729985 288.35081287 -136.26527369 292.56854041 -129.33691406 296.68994141 C-127.48067163 297.79517378 -125.63448138 298.91587035 -123.7890625 300.0390625 C-109.23306889 308.8343677 -95.33071412 315.14207727 -77.984375 310.91796875 C-66.42818646 307.3469577 -56.46247234 300.68519331 -46.484375 294.04296875 C-46.814375 292.86734375 -47.144375 291.69171875 -47.484375 290.48046875 C-50.09768324 277.9946627 -48.47478903 268.25401873 -43.97485352 256.54003906 C-41.00128526 248.62969663 -40.30975153 242.09813317 -43.296875 234.04296875 C-43.65910156 233.01429688 -44.02132812 231.985625 -44.39453125 230.92578125 C-45.03204173 229.2394632 -45.69505518 227.5616659 -46.41796875 225.91015625 C-50.20127336 216.67816893 -50.08555975 204.28932448 -46.671875 194.98046875 C-45.96307531 193.32576201 -45.23514691 191.6790595 -44.484375 190.04296875 C-41.93328047 183.72393961 -40.57292045 177.89663347 -41.484375 171.04296875 C-42.42889904 168.81287326 -42.42889904 168.81287326 -43.484375 167.04296875 C-44.33 167.70296875 -45.175625 168.36296875 -46.046875 169.04296875 C-49.9534375 171.31587784 -52.04044256 171.64119042 -56.484375 171.04296875 C-58.484375 168.04296875 -58.484375 168.04296875 -59.046875 165.73046875 C-58.15234989 161.45662655 -54.96662018 159.45647608 -51.484375 157.04296875 C-50.16516678 156.34877002 -48.83515671 155.67353278 -47.484375 155.04296875 C-47.64292969 154.38425781 -47.80148438 153.72554688 -47.96484375 153.046875 C-49.90051526 141.85490968 -48.80954504 131.50061202 -44.484375 121.04296875 C-41.40121994 113.22929835 -41.40121994 113.22929835 -42.484375 105.04296875 C-44.13496789 102.86138712 -45.88299842 100.89531928 -47.79296875 98.9375 C-49.484375 97.04296875 -49.484375 97.04296875 -50.34765625 94.96484375 C-53.35163166 89.8859575 -62.35431461 88.69837195 -67.68359375 87.05859375 C-101.29439633 78.4633101 -134.32334598 91.16670237 -157.09570312 116.39550781 Z M-47.703125 309.06396484 C-50.86810056 312.58031516 -50.28472755 316.54684344 -50.1875 321.08007812 C-50.12046875 322.32595703 -50.0534375 323.57183594 -49.984375 324.85546875 C-49.93023437 326.75329102 -49.93023437 326.75329102 -49.875 328.68945312 C-49.78083743 331.80858839 -49.63734701 334.92616414 -49.484375 338.04296875 C-45.194375 338.70296875 -40.904375 339.36296875 -36.484375 340.04296875 C-37.28875 338.49609375 -38.093125 336.94921875 -38.921875 335.35546875 C-44.01520043 325.56061215 -42.63517562 316.48971461 -40.484375 306.04296875 C-43.15881774 306.04296875 -45.52217912 307.68383503 -47.703125 309.06396484 Z M-117.484375 319.04296875 C-117.484375 324.65296875 -117.484375 330.26296875 -117.484375 336.04296875 C-99.334375 336.04296875 -81.184375 336.04296875 -62.484375 336.04296875 C-62.484375 330.43296875 -62.484375 324.82296875 -62.484375 319.04296875 C-64.65 319.72359375 -64.65 319.72359375 -66.859375 320.41796875 C-81.47362011 324.73674427 -94.29500264 325.13422381 -108.98828125 321.015625 C-111.78926616 320.23635657 -114.6334683 319.61315009 -117.484375 319.04296875 Z M-196.484375 385.04296875 C-200.78618872 390.91693126 -203.61750324 397.72091558 -203.484375 405.04296875 C-202.60566586 407.25594975 -202.60566586 407.25594975 -200.484375 408.04296875 C-197.45793917 408.4426993 -197.45793917 408.4426993 -194.484375 407.04296875 C-193.38904276 405.45257439 -193.38904276 405.45257439 -192.5546875 403.4921875 C-192.21671143 402.77168213 -191.87873535 402.05117676 -191.53051758 401.30883789 C-191.18529053 400.56110107 -190.84006348 399.81336426 -190.484375 399.04296875 C-189.78766604 397.63677756 -189.08590193 396.23307877 -188.37890625 394.83203125 C-188.03537109 394.14496094 -187.69183594 393.45789063 -187.33789062 392.75 C-185.38671875 388.84765625 -183.43554688 384.9453125 -181.484375 381.04296875 C-187.16336884 380.84050908 -191.73449347 381.82579659 -196.484375 385.04296875 Z M3.515625 382.04296875 C5.15730156 386.29009219 7.02953559 390.41807426 8.953125 394.54296875 C9.25283203 395.19394531 9.55253906 395.84492188 9.86132812 396.515625 C12.62922895 403.48882886 12.62922895 403.48882886 17.953125 408.10546875 C20.60982475 408.2414933 20.60982475 408.2414933 22.953125 406.66796875 C24.71152252 403.71386092 24.68708267 403.15808314 24.078125 399.91796875 C23.60146959 398.27946578 23.07699895 396.65441271 22.515625 395.04296875 C22.226875 394.16253906 21.938125 393.28210938 21.640625 392.375 C20.00411816 388.3017826 18.71165325 385.73992225 14.84765625 383.48828125 C9.26159282 381.23492913 9.26159282 381.23492913 3.515625 382.04296875 Z " fill="#000000" transform="translate(275.484375,34.95703125)"/>
<path d="M0 0 C0.66 0 1.32 0 2 0 C3.70171593 2.00668294 5.29525516 4.02510873 6.875 6.125 C15.2370764 16.99736729 24.22713841 27.26346136 33.54296875 37.32421875 C35.61394231 39.57957151 37.63150624 41.86404866 39.625 44.1875 C42.83426564 47.89581413 46.2950591 51.31153692 49.78515625 54.75390625 C52.51502863 57.52229535 55.06483203 60.4162928 57.58984375 63.37109375 C58.67629098 64.62607573 59.82625655 65.82625655 61 67 C61.17015625 66.19175781 61.3403125 65.38351563 61.515625 64.55078125 C64.0384475 53.42620757 64.0384475 53.42620757 68 50 C73.44089082 46.59697442 78.00787325 45.39725321 84.375 45.46875 C85.14376465 45.4649231 85.9125293 45.46109619 86.70458984 45.45715332 C88.3180473 45.45445057 89.93154982 45.46169619 91.54492188 45.47851562 C93.99449679 45.49995184 96.44113974 45.47866093 98.890625 45.453125 C100.46875638 45.45576857 102.04688596 45.46089416 103.625 45.46875 C104.34606934 45.46065308 105.06713867 45.45255615 105.81005859 45.44421387 C112.40230795 45.56392691 117.74554481 47.68621704 122.375 52.4375 C125.32693623 57.09247636 126.24736893 60.71275574 126.20776367 66.22387695 C126.20503952 67.45898514 126.20231537 68.69409332 126.19950867 69.96662903 C126.19396154 70.62162699 126.18841442 71.27662495 126.1826992 71.95147133 C126.16776268 74.01677455 126.16947033 76.08143452 126.17634583 78.14677429 C126.19511104 84.01626933 126.20172613 89.88526305 126.15454102 95.75463867 C126.12681655 99.35297158 126.13338139 102.94989765 126.16155434 106.54820824 C126.16579059 107.91204012 126.1574563 109.27597582 126.1358242 110.63964272 C125.94974217 119.92950327 125.94974217 119.92950327 130.46118164 127.71313477 C131.08650284 128.29128433 131.71182404 128.8694339 132.35609436 129.46510315 C134.60365847 131.56362936 135.3741013 133.7139249 136.25 136.625 C136.71599609 138.02685547 136.71599609 138.02685547 137.19140625 139.45703125 C137.45824219 140.29621094 137.72507812 141.13539063 138 142 C140.01689173 147.62606641 142.90042112 149.44937103 147.78125 152.5078125 C153.40583023 156.29054075 156.2744724 161.50682967 158 168 C158.73880695 171.80016172 159.43235348 175.593603 160.05859375 179.4140625 C161.66219305 185.52237852 164.85917437 189.4503823 170 193 C171.5778125 193.7734375 171.5778125 193.7734375 173.1875 194.5625 C176 196 176 196 178 199 C177.65551896 207.4512681 170.4278074 212.8951397 164.5625 218.3125 C153.68438037 227.18080538 141.63966567 228.77889193 128 228 C127.34 227.67 126.68 227.34 126 227 C126 230.96 126 234.92 126 239 C127.093125 238.938125 128.18625 238.87625 129.3125 238.8125 C133 239 133 239 134.70776367 240.08984375 C136.64442316 242.9525726 136.37164076 245.32305447 136.36328125 248.75 C136.36402901 249.73178223 136.36402901 249.73178223 136.36479187 250.73339844 C136.36245457 252.11526531 136.35274615 253.49713669 136.33618164 254.87890625 C136.3125829 256.99257524 136.3156232 259.10498268 136.32226562 261.21875 C136.27925898 271.58111153 136.27925898 271.58111153 134 275 C130.23699626 276.25433458 126.72789091 276.10695422 122.8125 276.0625 C122.06291016 276.05798828 121.31332031 276.05347656 120.54101562 276.04882812 C118.69397617 276.03706354 116.84697787 276.01912865 115 276 C115.00888245 276.61752136 115.01776489 277.23504272 115.0269165 277.87127686 C115.11536919 284.29494984 115.17572569 290.71845002 115.21972656 297.14257812 C115.23984936 299.54043606 115.26715059 301.93824488 115.30175781 304.3359375 C115.3502449 307.78137323 115.37296241 311.22616052 115.390625 314.671875 C115.41127014 315.74491882 115.43191528 316.81796265 115.45318604 317.92352295 C115.45363922 319.42462616 115.45363922 319.42462616 115.45410156 320.95605469 C115.46298401 321.83541687 115.47186646 322.71477905 115.48101807 323.62078857 C115 326 115 326 113.59661865 328.31524658 C111 330 111 330 101 330 C101.33 347.82 101.66 365.64 102 384 C105.78763543 385.89381772 107.05831028 386.25530492 111.0625 386.265625 C112.50496094 386.26949219 112.50496094 386.26949219 113.9765625 386.2734375 C114.97429687 386.26570313 115.97203125 386.25796875 117 386.25 C117.99773437 386.25773437 118.99546875 386.26546875 120.0234375 386.2734375 C120.98507812 386.27085937 121.94671875 386.26828125 122.9375 386.265625 C123.81277344 386.26336914 124.68804687 386.26111328 125.58984375 386.25878906 C128.16603953 385.98217161 129.73514839 385.20485621 132 384 C132.00586624 383.10321533 132.01173248 382.20643066 132.01777649 381.2824707 C132.07581285 372.80829011 132.14795209 364.33437002 132.23571491 355.86044312 C132.28033726 351.50447459 132.31961103 347.14859784 132.34643555 342.79248047 C132.37255008 338.58423004 132.41300933 334.37633432 132.46318626 330.16830444 C132.47980009 328.56729564 132.49134839 326.96622556 132.49761391 325.36514282 C132.58353932 305.41646068 132.58353932 305.41646068 140 298 C144.44551003 295.35040869 147.70875634 294.62360473 152.859375 294.63671875 C154.13941406 294.63736328 155.41945313 294.63800781 156.73828125 294.63867188 C157.39650879 294.64697021 158.05473633 294.65526855 158.73291016 294.66381836 C160.7585369 294.68760023 162.78286106 294.68434482 164.80859375 294.67773438 C174.7329253 294.7329253 174.7329253 294.7329253 177 297 C177.265625 298.875 177.265625 298.875 177.25 301 C177.25515625 301.70125 177.2603125 302.4025 177.265625 303.125 C177 305 177 305 175 307 C172.72509766 307.28710938 172.72509766 307.28710938 169.9140625 307.34375 C168.39425781 307.38822266 168.39425781 307.38822266 166.84375 307.43359375 C165.25046875 307.46646484 165.25046875 307.46646484 163.625 307.5 C161.53365724 307.54346311 159.44246638 307.59522108 157.3515625 307.65625 C156.42166504 307.67494141 155.49176758 307.69363281 154.53369141 307.71289062 C151.88472063 308.01306307 150.23799481 308.57081993 148 310 C146.51208475 312.9758305 146.8752031 315.66481087 146.87402344 318.98486328 C146.8721553 319.70382278 146.87028717 320.42278229 146.86836243 321.16352844 C146.8643542 322.72789272 146.8622832 324.29226287 146.86190033 325.85663223 C146.8584853 329.18829669 146.83711791 332.51976592 146.81666946 335.85136223 C146.77867013 342.05523012 146.74737864 348.25889312 146.74951172 354.46289062 C146.75030126 358.77729514 146.72682783 363.09098963 146.6876297 367.40520859 C146.67720058 369.04530516 146.67562287 370.685484 146.68328094 372.32559586 C146.74999131 388.20436529 146.74999131 388.20436529 142.52388 393.55711365 C137.67806595 398.1453745 132.81467109 399.61476719 126.16015625 399.56640625 C125.43436874 399.57260483 124.70858124 399.57880341 123.96080017 399.58518982 C122.43555024 399.59224969 120.91022262 399.58918133 119.38500977 399.57641602 C117.07096371 399.56255071 114.76097111 399.59666679 112.44726562 399.63476562 C99.21224999 399.7096508 99.21224999 399.7096508 93.54077148 395.75756836 C87.4085804 388.76253689 87.45522045 382.88761773 87.609375 373.84765625 C87.61503479 372.59238632 87.62069458 371.33711639 87.62652588 370.04380798 C87.64505946 366.7274968 87.68091233 363.41231293 87.7253418 360.09631348 C87.76646721 356.70428135 87.78457346 353.31213215 87.8046875 349.91992188 C87.84869906 343.27963958 87.91557096 336.63988479 88 330 C87.25234375 330.04640625 86.5046875 330.0928125 85.734375 330.140625 C84.74953125 330.17671875 83.7646875 330.2128125 82.75 330.25 C81.77546875 330.29640625 80.8009375 330.3428125 79.796875 330.390625 C77 330 77 330 74.66900635 328.29962158 C72.69546623 325.58040158 72.51228704 324.28358322 72.54589844 320.95605469 C72.54620056 319.95531921 72.54650269 318.95458374 72.54681396 317.92352295 C72.56745911 316.85047913 72.58810425 315.7774353 72.609375 314.671875 C72.61503479 313.56773254 72.62069458 312.46359009 72.62652588 311.32598877 C72.64891232 307.80021774 72.69911504 304.27546376 72.75 300.75 C72.77006197 298.35938968 72.78831326 295.96876342 72.8046875 293.578125 C72.84878457 287.71840313 72.91572002 281.85927422 73 276 C71.90300781 276.04640625 70.80601562 276.0928125 69.67578125 276.140625 C68.2213815 276.1781579 66.76695217 276.21455643 65.3125 276.25 C64.59126953 276.28351563 63.87003906 276.31703125 63.12695312 276.3515625 C59.41625413 276.41933782 57.35813739 276.19064894 54.01757812 274.41235352 C51.33101305 271.20011374 51.38202915 269.30924634 51.40625 265.15234375 C51.40620972 264.49923721 51.40616943 263.84613068 51.40612793 263.17323303 C51.41147349 261.79727516 51.42901597 260.42131709 51.45800781 259.0456543 C51.49994432 256.94029527 51.4990697 254.83812901 51.4921875 252.73242188 C51.57034288 242.75545481 51.57034288 242.75545481 53.09179688 240.08032227 C55 239 55 239 62 239 C62 230.09 62 221.18 62 212 C57.565625 212.0825 53.13125 212.165 48.5625 212.25 C37.06264812 212.33212347 26.91958349 211.55637811 16 208 C14.49953125 207.63648438 14.49953125 207.63648438 12.96875 207.265625 C8.67871313 206.02908496 6.63761124 204.94592121 4.1015625 201.18359375 C0.31888544 193.80470962 -2.09908344 187.3366648 -1 179 C0.36745079 175.4761845 2.06720497 172.24433451 4 169 C7.66680385 170.39751145 11.08999813 172.05134596 14.5625 173.875 C29.70032292 181.41638815 45.38407044 183.21316134 62 185 C62 181.37 62 177.74 62 174 C60.88625 173.97421875 59.7725 173.9484375 58.625 173.921875 C41.27712677 173.35306087 19.74827907 170.20272054 7 157 C6.3984375 153.96875 6.3984375 153.96875 6.375 150.5 C6.00490488 140.86752433 4.00711754 132.4078134 -0.23046875 123.7421875 C-1 122 -1 122 -1 120 C2.41208862 121.47882847 4.64981404 123.42469061 7.3125 126 C22.74011202 140.03733303 42.4176208 150.15796389 62 157 C61.67 153.37 61.34 149.74 61 146 C59.99582031 145.57589844 58.99164063 145.15179688 57.95703125 144.71484375 C38.73268889 136.51062927 22.02598029 126.58403969 7 112 C6.02804687 111.23042969 5.05609375 110.46085937 4.0546875 109.66796875 C2 107 2 107 2.3515625 103.28515625 C2.75053033 101.87016152 3.17658515 100.46261055 3.625 99.0625 C5.80889887 91.28934367 6.74333003 84.09793771 7 76 C10.18775003 78.98851565 12.93083735 82.11995884 15.625 85.5625 C20.44541045 91.66774575 25.67052398 97.34094854 31 103 C31.61746094 103.66 32.23492187 104.32 32.87109375 105 C41.59764558 114.04045657 52.02561576 121.40424475 62 129 C62.37735355 123.32214536 62.72366087 118.0420236 58.90625 113.51953125 C56.00865537 111.23392859 53.01357156 109.12983708 50 107 C47.85589387 105.1888625 45.7994684 103.29203522 43.75 101.375 C42.98695557 100.66706299 42.98695557 100.66706299 42.20849609 99.94482422 C40.80100178 98.63487446 39.4002726 97.31766659 38 96 C37.34128906 95.38382812 36.68257813 94.76765625 36.00390625 94.1328125 C26.98164758 85.42310321 19.46044719 75.09007288 12.30908203 64.82177734 C11.12385933 63.17236821 9.84564997 61.59076949 8.55859375 60.01953125 C0.41505697 48.75843298 2.098553 34.94634277 2.06396484 21.66943359 C1.97833942 16.75741037 1.54772293 11.93416367 0.9375 7.0625 C0.79948975 5.95503418 0.79948975 5.95503418 0.65869141 4.82519531 C0.45000764 3.21534908 0.22710178 1.60735142 0 0 Z M75 63 C74.52199942 65.1253849 74.52199942 65.1253849 74.75 67.25 C74.8325 68.4875 74.915 69.725 75 71 C82.72367961 74.05649089 90.35811811 76.14384712 98.5 77.75 C99.56992187 77.97042969 100.63984375 78.19085938 101.7421875 78.41796875 C107.32863742 79.59480671 107.32863742 79.59480671 113 80 C113.08086376 77.06195004 113.1404283 74.12611925 113.1875 71.1875 C113.21263672 70.35412109 113.23777344 69.52074219 113.26367188 68.66210938 C113.27817383 67.45844727 113.27817383 67.45844727 113.29296875 66.23046875 C113.31653442 65.12288208 113.31653442 65.12288208 113.34057617 63.99291992 C113.12098666 61.9493136 113.12098666 61.9493136 111.91503906 60.26269531 C109.00784911 58.3458179 106.5192669 58.59317261 103.06640625 58.56640625 C102.39206039 58.5611644 101.71771454 58.55592255 101.02293396 58.55052185 C99.59822973 58.54410561 98.17347249 58.54543361 96.7487793 58.55395508 C94.57309178 58.5624586 92.40003697 58.53371658 90.22460938 58.50195312 C88.83854245 58.50034073 87.45247089 58.50091938 86.06640625 58.50390625 C84.80771729 58.50205322 83.54902832 58.5002002 82.25219727 58.49829102 C78.46034161 59.08325186 77.27829642 59.97316565 75 63 Z M75 85 C75 88.96 75 92.92 75 97 C82.77525025 100.01870229 90.31958284 102.10926815 98.5 103.6875 C100.61486563 104.10665108 102.7294627 104.52716014 104.84375 104.94921875 C105.76349609 105.12799561 106.68324219 105.30677246 107.63085938 105.4909668 C110 106 110 106 113 107 C113 103.04 113 99.08 113 95 C105.2392771 91.08130348 97.43162447 89.38952727 88.9375 87.75 C87.58118772 87.48013229 86.22506585 87.20930576 84.86914062 86.9375 C81.58116896 86.28224586 78.29160689 85.63669419 75 85 Z M75 111 C75 114.96 75 118.92 75 123 C82.38593031 126.20147996 89.48262827 128.17048665 97.375 129.6875 C99.4870702 130.10761553 101.59905312 130.5281701 103.7109375 130.94921875 C104.63181152 131.12799561 105.55268555 131.30677246 106.50146484 131.4909668 C108.68706177 131.93624426 110.8417843 132.43851042 113 133 C113.16264275 131.25309636 113.27869612 129.50181351 113.375 127.75 C113.44460938 126.77546875 113.51421875 125.8009375 113.5859375 124.796875 C113.24059139 121.77203964 113.24059139 121.77203964 110.5078125 119.76953125 C106.5073347 117.75147285 102.87092222 116.78155306 98.5 115.9375 C97.7177002 115.77540039 96.93540039 115.61330078 96.12939453 115.44628906 C94.53165838 115.11576774 92.9328515 114.7903794 91.33300781 114.47021484 C87.83904824 113.76601161 84.35821296 113.00552379 80.875 112.25 C78.91682064 111.8326103 76.95855126 111.4156411 75 111 Z M75 137 C75 140.96 75 144.92 75 149 C79.16452001 151.25463642 82.93715785 152.61853264 87.5703125 153.5703125 C89.40916016 153.95509766 89.40916016 153.95509766 91.28515625 154.34765625 C93.18587891 154.73244141 93.18587891 154.73244141 95.125 155.125 C97.64851288 155.64807395 100.17195361 156.17149617 102.6953125 156.6953125 C103.80922363 156.92234863 104.92313477 157.14938477 106.07080078 157.38330078 C108.39785799 157.87322798 110.69934136 158.40052768 113 159 C113.16264275 157.25309636 113.27869612 155.50181351 113.375 153.75 C113.44460938 152.77546875 113.51421875 151.8009375 113.5859375 150.796875 C113.25932235 147.76214438 113.25932235 147.76214438 110.4375 145.9453125 C106.80891935 143.89186572 103.45452557 142.87820104 99.4140625 142.078125 C98.71227875 141.92841248 98.010495 141.77869995 97.28744507 141.62445068 C95.06899062 141.15407836 92.84730492 140.70178991 90.625 140.25 C89.11042627 139.9321825 87.59609999 139.61318333 86.08203125 139.29296875 C82.39074024 138.5149589 78.69644349 137.7531321 75 137 Z M75 163 C75 166.96 75 170.92 75 175 C79.16452001 177.25463642 82.93715785 178.61853264 87.5703125 179.5703125 C89.40916016 179.95509766 89.40916016 179.95509766 91.28515625 180.34765625 C93.18587891 180.73244141 93.18587891 180.73244141 95.125 181.125 C97.64851288 181.64807395 100.17195361 182.17149617 102.6953125 182.6953125 C103.80922363 182.92234863 104.92313477 183.14938477 106.07080078 183.38330078 C108.39785799 183.87322798 110.69934136 184.40052768 113 185 C113.16264275 183.25309636 113.27869612 181.50181351 113.375 179.75 C113.44460938 178.77546875 113.51421875 177.8009375 113.5859375 176.796875 C113.25970921 173.74938197 113.25970921 173.74938197 110.37402344 171.92944336 C106.9563764 169.97505374 104.27097308 169.10311651 100.4296875 168.33203125 C99.20378906 168.07873047 97.97789062 167.82542969 96.71484375 167.56445312 C95.44769531 167.31630859 94.18054688 167.06816406 92.875 166.8125 C90.35152438 166.29836417 87.82808526 165.78404913 85.3046875 165.26953125 C84.19077637 165.04885986 83.07686523 164.82818848 81.92919922 164.60083008 C79.60697665 164.12450154 77.29979161 163.5749479 75 163 Z M126 172 C125.53618672 180.33575527 125.68100575 186.74835533 130 194 C130.45890625 194.78375 130.9178125 195.5675 131.390625 196.375 C135.61488048 203.13380877 139.92410071 208.10989591 148 210 C150.45672892 210.66685938 150.45672892 210.66685938 153 210 C155.57727961 208.24227374 157.91242472 206.3222019 160 204 C160.23063512 201.89439669 160.23063512 201.89439669 158.5625 200.5 C156.02238529 199.01310358 154.41320564 198.62862466 151.5625 198.125 C146.93141423 197.15482164 144.84944951 195.95756876 142 192 C141.22362183 190.07291848 140.47653305 188.13392132 139.75 186.1875 C137.28124173 179.80658806 133.67802585 175.79278741 128 172 C127.34 172 126.68 172 126 172 Z M75 190 C75 193.63 75 197.26 75 201 C81.97988696 204.42423325 88.63302454 206.22883044 96.25 207.6875 C97.3121875 207.89955078 98.374375 208.11160156 99.46875 208.33007812 C102.31079053 208.89598695 105.15505489 209.44893064 108 210 C109.66690333 210.33214783 111.33364539 210.66511016 113 211 C113.10815225 209.23050905 113.18566083 207.45912513 113.25 205.6875 C113.29640625 204.70136719 113.3428125 203.71523438 113.390625 202.69921875 C113.24825627 199.95441863 113.24825627 199.95441863 111.4453125 198.26953125 C108.28373833 196.62813891 105.0741353 195.78606667 101.625 195 C100.9247168 194.83338867 100.22443359 194.66677734 99.50292969 194.49511719 C97.33784573 193.98482475 95.16965429 193.49046202 93 193 C92.32356445 192.84466797 91.64712891 192.68933594 90.95019531 192.52929688 C83.05176585 190.65191297 83.05176585 190.65191297 75 190 Z M75 216 C75 223.59 75 231.18 75 239 C87.54 239 100.08 239 113 239 C113 234.71 113 230.42 113 226 C109.12133137 223.09099853 106.25386959 222.04681403 101.6875 221 C100.99052002 220.83338867 100.29354004 220.66677734 99.57543945 220.49511719 C87.39730481 217.31639387 87.39730481 217.31639387 75 216 Z M65 252 C65 255.63 65 259.26 65 263 C84.14 263 103.28 263 123 263 C123 259.37 123 255.74 123 252 C103.86 252 84.72 252 65 252 Z " fill="#000000" transform="translate(331,109)"/>
<path d="M0 0 C2.71876767 4.98392121 3.71735517 10.38347939 5 15.875 C5.27199219 17.03016113 5.54398438 18.18532227 5.82421875 19.37548828 C7.51329376 26.8887823 8.52407905 34.19649539 9 41.875 C9.56353675 50.3310608 10.95415642 56.94527256 16 64 C16.45761719 64.65613281 16.91523437 65.31226563 17.38671875 65.98828125 C25.5928594 75.70211178 41.55567858 81.06093395 53.75 82.2734375 C58.90619254 82.47293304 62.65599621 82.03070032 67 79 C68.83853564 77.08343632 70.39301896 75.12688667 72 73 C83.63976328 77.48992697 83.63976328 77.48992697 88 82 C88.94858045 86.47187928 88.66996611 90.49972262 88 95 C86.71867187 95.27972656 85.43734375 95.55945313 84.1171875 95.84765625 C65.85380969 100.00261012 50.4828828 106.35412368 39.0625 121.875 C35.77938852 125.92609077 31.29428189 127.02512634 26.5 128.703125 C15.40902844 132.81272607 4.40621266 139.59378734 -4 148 C-4.99 148 -5.98 148 -7 148 C-23.35047129 126.69906619 -28.30449628 100.50250395 -25.73193359 74.26611328 C-23.06479569 54.85674338 -14.38340383 14.38340383 0 0 Z " fill="#000000" transform="translate(46,269)"/>
<path d="M0 0 C3.40520014 3.24570598 3.45766856 6.45815761 3.8125 11 C4.85892574 20.68445201 8.11115613 28.63912881 15.25 35.5 C23.09702995 41.7932919 31.02760146 43.43620458 40.8984375 44.41015625 C44.1503052 45.02858449 45.70514687 45.63846833 48 48 C48.73461684 53.87693469 48.73461684 53.87693469 46.9140625 56.66015625 C44.05451374 58.66184038 41.38684161 58.62519949 37.9375 58.9375 C26.82064082 60.19344643 18.43918094 63.3375503 11 72 C5.80701375 79.57264162 4.21842526 86.80415672 3.51953125 95.75 C2.97989071 99.12579648 2.37315927 100.59202666 0 103 C-3.07506514 104.2138415 -4.46802216 104.19888533 -7.5703125 103.0390625 C-11.09205388 100.08351748 -11.05281038 96.76912728 -11.5 92.4375 C-12.47582881 85.14526556 -13.93815645 79.25986648 -18 73 C-18.556875 72.0925 -19.11375 71.185 -19.6875 70.25 C-27.44015109 62.70688002 -37.31382549 59.36362955 -47.9375 58.5625 C-50.9106915 58.27959309 -51.99557592 58.00273871 -54.625 56.375 C-56 54 -56 54 -55.9375 50.375 C-55 47 -55 47 -52 45 C-49.73538995 44.71584741 -47.46248473 44.49592809 -45.1875 44.3125 C-35.16943292 43.19843028 -25.55826502 39.67038004 -18.875 31.75 C-13.49784014 23.7316659 -11.60478973 15.23803434 -10.58984375 5.75 C-9.28317476 -0.34201967 -5.78115375 -0.72264422 0 0 Z " fill="#000000" transform="translate(437,39)"/>
<path d="M0 0 C2.97908156 2.99310077 3.46353838 5.63878238 3.9375 9.75 C5.08765655 17.31342947 6.76327806 22.52294594 12.875 27.375 C17.65903716 30.62603078 21.82346911 31.93368608 27.5625 32.3125 C31.09061161 32.65874446 32.06011281 33.04207897 35.125 35.1875 C37 38 37 38 36.9375 41.1875 C36 44 36 44 34 46 C31.59919576 46.52835111 29.23404882 46.97392916 26.8125 47.375 C17.89956416 49.02284939 12.35678732 51.26241832 7 59 C4.87372803 63.19052768 3.90792977 67.07518377 3.5625 71.75 C3.2866861 74.82108174 3.06276986 75.9046828 1.3125 78.5625 C-1.70997602 80.44133644 -3.50127633 80.5210865 -7 80 C-9.35004101 78.29805183 -9.936128 77.29552046 -10.5546875 74.43359375 C-10.66039062 73.44488281 -10.76609375 72.45617187 -10.875 71.4375 C-12.08027797 63.46338094 -14.27446313 56.62166856 -20.875 51.5625 C-26.10325799 48.41847999 -31.8020919 47.62029545 -37.7421875 46.73828125 C-40.94887205 46.01158655 -42.19696112 45.69472357 -44 43 C-44.42478586 38.92205575 -44.31282587 37.46923881 -42 34 C-39.57381066 33.39271924 -37.27375873 32.93801641 -34.8125 32.5625 C-29.10601347 31.57353802 -24.79904764 30.27207793 -20 27 C-19.01 26.67 -18.02 26.34 -17 26 C-15.89831016 24.30230766 -15.89831016 24.30230766 -15 22 C-14.505 21.01 -14.01 20.02 -13.5 19 C-11.64016587 14.72238151 -11.18545587 10.27228356 -10.625 5.671875 C-9.21870445 -0.34003848 -5.74096001 -0.71762 0 0 Z " fill="#000000" transform="translate(361,4)"/>
<path d="M0 0 C2.26586784 3.39880177 2.73271764 6.37852057 3.375 10.3125 C4.54047345 17.36852899 6.62517718 21.67915042 11.75 26.6875 C17.97183876 31.11457758 24.17948229 32.37218705 31.6796875 33.375 C34 34 34 34 36 37 C36.54080629 42.19174041 36.54080629 42.19174041 34.92578125 44.60546875 C32.0853374 46.66234188 29.32211532 46.8006556 25.875 47.3125 C18.18032119 48.67804235 12.12962142 50.66489478 7.41796875 57.19140625 C4.33327003 62.72964055 3.22459401 68.16751696 2.5546875 74.43359375 C1.936128 77.29552046 1.35004101 78.29805183 -1 80 C-3.9375 80.4375 -3.9375 80.4375 -7 80 C-9.8309912 77.82749943 -10.87555657 76.56334872 -11.65234375 73.046875 C-11.74644531 71.95890625 -11.84054688 70.8709375 -11.9375 69.75 C-12.91672161 62.15464627 -15.28532647 57.22107485 -21 52.125 C-26.47335102 48.24804303 -31.72388734 47.47496835 -38.2578125 46.5625 C-41 46 -41 46 -44 44 C-44.875 41.6875 -44.875 41.6875 -45 39 C-42.80597015 34.40298507 -42.80597015 34.40298507 -40 33 C-38.12800508 32.70912079 -36.25231794 32.44176964 -34.375 32.1875 C-26.80005182 30.92802895 -21.4961422 29.26076565 -16.625 23.125 C-13.37655474 18.34476755 -12.06664035 14.09792656 -11.5625 8.375 C-11.28636931 5.73394359 -10.96387684 3.91287944 -9.9375 1.4375 C-6.67320256 -0.9843981 -3.98233096 -0.44248122 0 0 Z " fill="#000000" transform="translate(89,22)"/>
<path d="M0 0 C1.66192383 -0.01902626 1.66192383 -0.01902626 3.35742188 -0.03843689 C4.54916016 -0.03550125 5.74089844 -0.03256561 6.96875 -0.02954102 C8.19658203 -0.03478287 9.42441406 -0.04002472 10.68945312 -0.04542542 C13.28514856 -0.05184826 15.88087308 -0.05050528 18.4765625 -0.04199219 C22.45365041 -0.03347958 26.42930392 -0.06224748 30.40625 -0.09399414 C32.9270829 -0.09560611 35.44791835 -0.09502871 37.96875 -0.09204102 C39.75635742 -0.10889198 39.75635742 -0.10889198 41.58007812 -0.12608337 C42.68802734 -0.11670242 43.79597656 -0.10732147 44.9375 -0.09765625 C46.39833008 -0.097407 46.39833008 -0.097407 47.88867188 -0.09715271 C51.23214805 0.55235028 52.42019033 1.72511411 54.46875 4.40405273 C55.52789121 13.33110004 52.38297571 21.09653713 47.2578125 28.32983398 C41.37365924 35.15185446 33.1989092 38.48456229 24.41015625 39.68530273 C15.1354133 40.13317765 6.44133465 36.32139948 -0.53125 30.40405273 C-7.49074107 23.06467678 -9.81652008 15.78695367 -10.02734375 5.82202148 C-9.53125 3.40405273 -9.53125 3.40405273 -7.84594727 1.77818298 C-5.02019651 0.10066358 -3.27377338 0.01816243 0 0 Z M4.46875 13.40405273 C7.72114694 19.90884662 10.11959053 23.03958036 16.84375 25.77905273 C23.17132758 26.87001439 28.36238732 26.13716463 33.859375 22.72045898 C36.74426464 20.3607313 38.50551562 17.55712614 40.46875 14.40405273 C40.46875 14.07405273 40.46875 13.74405273 40.46875 13.40405273 C28.58875 13.40405273 16.70875 13.40405273 4.46875 13.40405273 Z " fill="#000000" transform="translate(163.53125,286.595947265625)"/>
<path d="M0 0 C2.6875 0.875 2.6875 0.875 4.6875 2.875 C4.94628906 5.45703125 4.94628906 5.45703125 4.953125 8.6875 C4.95699219 10.42386719 4.95699219 10.42386719 4.9609375 12.1953125 C4.95320313 13.40960938 4.94546875 14.62390625 4.9375 15.875 C4.94523437 17.08929688 4.95296875 18.30359375 4.9609375 19.5546875 C4.95835937 20.71226562 4.95578125 21.86984375 4.953125 23.0625 C4.95086914 24.12855469 4.94861328 25.19460937 4.94628906 26.29296875 C4.6875 28.875 4.6875 28.875 2.6875 30.875 C-0.31607687 31.20873076 -2.4199552 31.43809786 -5.3125 30.875 C-8.85669824 27.21647278 -8.89984819 22.7442914 -9.3125 17.875 C-9.90417969 17.83761719 -10.49585938 17.80023438 -11.10546875 17.76171875 C-19.95171709 17.02573398 -19.95171709 17.02573398 -23.3125 13.875 C-24.50238061 10.02538625 -24.89605204 7.98652769 -23 4.375 C-19.32671202 2.32479275 -16.89374434 3.16215211 -12.83984375 3.78125 C-9.98847042 3.88701964 -8.90952227 3.42225745 -6.5625 1.875 C-3.3125 -0.125 -3.3125 -0.125 0 0 Z " fill="#000000" transform="translate(144.3125,216.125)"/>
<path d="M0 0 C2.03131672 1.28511874 4.03277992 2.61876037 6 4 C11.22305062 5.66693105 14.20040443 4.44507699 19 2 C19.99 1.34 20.98 0.68 22 0 C25.5 -0.375 25.5 -0.375 29 0 C31 1.625 31 1.625 32 4 C32.14284053 7.28533224 31.74476935 9.15964528 29.5390625 11.6484375 C23.28387101 17.24806307 17.31964483 18.86320464 9 19 C1.90760427 18.46539731 -3.54644785 15.47970355 -9 11 C-10.39935013 8.20129973 -10.25265405 6.09501208 -10 3 C-7.71193337 -1.03776464 -4.22519531 -0.50129436 0 0 Z " fill="#000000" transform="translate(175,259)"/>
<path d="M0 0 C3.55549429 2.10959328 6.38761599 4.05439312 8.3125 7.8125 C8.16634044 11.53956873 7.97038293 13.15461707 5.3125 15.8125 C2.38675335 16.10027836 0.16123159 16.29006514 -2.6875 15.8125 C-3.47125 15.1525 -4.255 14.4925 -5.0625 13.8125 C-8.54124585 11.16202697 -10.98582487 11.25430443 -15.265625 11.40625 C-18.69121002 11.98086426 -20.88948393 13.82279968 -23.6875 15.8125 C-27.21420088 16.23092214 -29.51528491 16.49314102 -32.625 14.6875 C-34.24574231 11.82736651 -34.20492613 10.04641331 -33.6875 6.8125 C-25.7675895 -3.58238253 -11.57292731 -5.41784449 0 0 Z " fill="#000000" transform="translate(147.6875,191.1875)"/>
</svg>
