<?xml version="1.0" encoding="UTF-8"?>
<svg version="1.1" xmlns="http://www.w3.org/2000/svg" width="512" height="512">
<path d="M0 0 C6.87133927 6.56594642 11.8813401 15.15742 17 23.125 C18.28128148 25.10498947 19.56397378 27.08406631 20.84765625 29.0625 C21.20865417 29.61896713 21.5696521 30.17543427 21.94158936 30.74876404 C25.62166433 36.41187594 29.33929571 42.05009705 33.05859375 47.6875 C33.7020726 48.66284195 34.34555145 49.6381839 35.00852966 50.64308167 C37.63690343 54.62599752 40.26594243 58.60847233 42.89633179 62.59005737 C44.76762347 65.42279344 46.63777111 68.2562822 48.5078125 71.08984375 C49.06879135 71.93808716 49.6297702 72.78633057 50.20774841 73.66027832 C51.75002871 75.9979535 53.28176831 78.34225346 54.8125 80.6875 C55.30330048 81.42318207 55.79410095 82.15886414 56.29977417 82.9168396 C56.75514557 83.61435333 57.21051697 84.31186707 57.6796875 85.03051758 C58.28296875 85.94284904 58.28296875 85.94284904 58.8984375 86.87361145 C59.9416349 88.94375854 60.11176646 90.49390775 60.2421875 92.796875 C61.00104385 97.97373067 63.1197358 99.62606638 66.9375 102.9375 C77.41181714 112.71267149 83.57146677 124.29442325 84.8125 138.6875 C84.92782124 142.83437989 84.90700278 146.97694722 84.875 151.125 C84.87048828 152.23810547 84.86597656 153.35121094 84.86132812 154.49804688 C84.84961193 157.22792101 84.83320699 159.95768174 84.8125 162.6875 C98.63541679 163.73377609 106.40896116 158.22811976 116.8125 149.6875 C115.96631104 149.63251343 115.96631104 149.63251343 115.10302734 149.57641602 C107.19498406 148.90594787 99.36334784 146.75265006 93.8125 140.6875 C92.0469094 136.01738854 91.57345451 131.58477201 91.08300781 126.64892578 C89.6293777 116.10879551 82.3803102 105.54846659 74.5 98.6875 C70.5980726 95.0520977 69.53046614 89.82620146 68.8125 84.6875 C69.3075 83.2025 69.3075 83.2025 69.8125 81.6875 C70.58625977 82.11458252 71.36001953 82.54166504 72.15722656 82.98168945 C73.24487305 83.58198975 74.33251953 84.18229004 75.453125 84.80078125 C76.0432135 85.12656662 76.633302 85.45235199 77.24127197 85.78800964 C80.50797851 87.59128731 83.77560634 89.39286249 87.04492188 91.19140625 C93.05233124 94.49784609 99.0531981 97.812015 105.015625 101.19921875 C105.92151367 101.7099292 106.82740234 102.22063965 107.76074219 102.74682617 C109.42251281 103.6850302 111.07969774 104.63141851 112.73144531 105.5871582 C117.9378273 108.6369843 117.9378273 108.6369843 123.8125 108.6875 C125.67596806 107.39354128 127.09070644 105.90998461 128.67578125 104.29296875 C135.37619143 99.25847408 142.61278126 99.2318059 150.65234375 99.25390625 C151.77387344 99.2486644 152.89540314 99.24342255 154.05091858 99.23802185 C156.41341324 99.23162277 158.77593986 99.23291111 161.13842773 99.24145508 C164.73544516 99.24996556 168.33087345 99.22117061 171.92773438 99.18945312 C174.23177036 99.18784081 176.53580914 99.18841922 178.83984375 99.19140625 C179.90573227 99.18017227 180.97162079 99.16893829 182.06980896 99.15736389 C190.1046415 99.23165526 196.2775798 100.79529257 202.5625 105.9375 C209.52792732 114.45080006 211.31568966 122.33483497 213.15625 132.94140625 C213.48155508 134.73798851 213.80867043 136.53424366 214.1373291 138.33021545 C214.91199846 142.57562095 215.67690625 146.82266878 216.4375 151.07061768 C218.01126077 159.82697268 219.63868992 168.57321971 221.265625 177.31982422 C224.26369226 193.44708997 227.2402763 209.57820638 230.20327759 225.7119503 C232.11658553 236.12885715 234.03634758 246.54453001 235.9645133 256.95869726 C237.33878223 264.38430969 238.70557284 271.81127544 240.06687403 279.23927599 C240.87342785 283.63912846 241.68317501 288.03833321 242.50114441 292.43607903 C243.26489982 296.54311962 244.01933378 300.6517661 244.76680374 304.76180077 C245.04075352 306.25913595 245.31798917 307.75587462 245.59890366 309.25191879 C249.43533528 329.71155356 249.43533528 329.71155356 246.5625 336.75 C244.05688937 339.52406891 241.9910377 340.5831947 238.24707031 340.91455078 C237.30444336 340.90407715 236.36181641 340.89360352 235.390625 340.8828125 C234.36582031 340.87636719 233.34101563 340.86992187 232.28515625 340.86328125 C231.22167969 340.84652344 230.15820312 340.82976562 229.0625 340.8125 C227.98355469 340.80347656 226.90460938 340.79445313 225.79296875 340.78515625 C223.13258722 340.76161305 220.47265664 340.72872799 217.8125 340.6875 C214.9299651 378.62095982 223.11946241 412.92512788 232.39331055 449.42553711 C232.75598211 450.86128145 232.75598211 450.86128145 233.12598038 452.32603073 C234.27295265 456.86488275 235.43490031 461.39824815 236.63656616 465.92294312 C242.7549677 489.40529706 242.7549677 489.40529706 236.37109375 500.52734375 C232.79346163 505.48581634 228.66647012 508.83360361 222.8125 510.6875 C214.78937281 511.46016398 206.37554025 512.00401315 199.8125 506.6875 C189.20540417 497.34981321 188.08497853 481.80672868 184.9609375 468.63671875 C184.49702377 466.68995315 184.03287807 464.74324282 183.56851196 462.79658508 C182.6002213 458.73484444 181.63381753 454.67266146 180.66894531 450.61010742 C179.43305853 445.40656166 178.19383151 440.20381895 176.95337486 435.00136089 C175.76721576 430.02592766 174.58278815 425.05008271 173.3984375 420.07421875 C173.17311718 419.12828039 172.94779686 418.18234203 172.71564865 417.20773888 C172.07819006 414.53023983 171.44197308 411.85244894 170.80615234 409.17456055 C170.61809525 408.38538239 170.43003815 407.59620422 170.23628235 406.78311157 C168.88962854 401.10256101 167.68552944 395.9196918 167.69897461 390.07104492 C167.69905014 388.97028122 167.69912567 387.86951752 167.69920349 386.73539734 C167.70436478 385.5581459 167.70952606 384.38089447 167.71484375 383.16796875 C167.71696617 381.34740715 167.71696617 381.34740715 167.71913147 379.49006653 C167.72472335 375.61835248 167.73727442 371.74669653 167.75 367.875 C167.75501605 365.24804771 167.75957877 362.62109451 167.76367188 359.99414062 C167.77469013 353.55857397 167.79142024 347.12304114 167.8125 340.6875 C165.1725 341.0175 162.5325 341.3475 159.8125 341.6875 C144.83504018 381.54755065 145.23853859 423.34489907 144.22926331 465.36347961 C143.45627132 497.30128174 143.45627132 497.30128174 135.84375 504.56640625 C133.88434124 506.0834858 131.9472849 507.43124487 129.8125 508.6875 C128.92498047 509.24824219 128.92498047 509.24824219 128.01953125 509.8203125 C122.31835576 512.06042039 114.20539572 511.51991851 108.296875 510.0703125 C102.48716924 507.48567962 97.53644438 502.63945853 94.99526978 496.81408691 C92.18256337 488.7697875 92.67911412 480.93714179 93.10546875 472.5703125 C93.17365095 470.98938983 93.24037502 469.4084037 93.30574036 467.82736206 C93.48214009 463.66148204 93.67927191 459.49683092 93.88061523 455.33209229 C94.07499327 451.22978153 94.24824668 447.12658767 94.42382812 443.0234375 C94.74105683 435.6845356 95.09071666 428.34763115 95.45797634 421.01107311 C95.70099024 416.11360734 95.91751908 411.2158302 96.11427689 406.31629658 C96.77690733 390.01317785 97.46609097 374.30843391 102.375 358.625 C102.79453973 357.17744903 103.21052876 355.72886447 103.62304688 354.27929688 C104.93287194 349.72012788 106.31234839 345.18795484 107.8125 340.6875 C106.49894531 340.72230469 105.18539062 340.75710938 103.83203125 340.79296875 C102.09636699 340.82111466 100.36068885 340.84841396 98.625 340.875 C97.32852539 340.91270508 97.32852539 340.91270508 96.00585938 340.95117188 C91.10934349 341.00745367 87.76296007 340.9294955 83.8125 337.6875 C79.69874479 332.20249305 80.93473715 327.0896938 81.8125 320.6875 C82.87828303 314.20758423 84.13656297 307.76114457 85.375 301.3125 C85.87056011 298.72787068 86.3644869 296.14299126 86.85276794 293.55697632 C87.15450068 291.95900928 87.46032817 290.3618082 87.77088928 288.76553345 C88.47709668 285.02653782 88.99290137 281.49618272 88.8125 277.6875 C87.61625 277.171875 86.42 276.65625 85.1875 276.125 C79.02009516 273.02492394 75.12050075 268.34721754 72.45378113 261.98490906 C71.05454175 256.97209162 71.45350996 251.69733401 71.51953125 246.53515625 C71.52377609 245.27988632 71.52802094 244.02461639 71.53239441 242.73130798 C71.54629372 239.41520663 71.57318498 236.09973948 71.60650635 232.78381348 C71.6373508 229.3917383 71.65093025 225.99959726 71.66601562 222.60742188 C71.69902362 215.96727447 71.74917785 209.3274238 71.8125 202.6875 C70.92763916 202.75678711 70.04277832 202.82607422 69.13110352 202.89746094 C60.05211017 203.56144614 51.01450284 203.90287094 41.91137695 203.92773438 C39.71985551 203.9376362 37.52920173 203.96890724 35.33789062 204 C33.92188041 204.00651604 32.50586371 204.01177197 31.08984375 204.015625 C29.20640259 204.02964355 29.20640259 204.02964355 27.28491211 204.04394531 C21.96321644 203.49766987 17.99218988 201.47366785 14.5625 197.375 C10.83747973 192.68206108 9.58221 188.80554534 9.875 182.8125 C10.64785689 176.9139141 12.76556073 172.03916454 17.55859375 168.33984375 C22.32745973 165.47852416 26.50662691 164.59378784 31.96875 164.37109375 C32.98267822 164.32911865 33.99660645 164.28714355 35.04125977 164.24389648 C36.12076904 164.20466064 37.20027832 164.1654248 38.3125 164.125 C39.417146 164.0825415 40.52179199 164.04008301 41.65991211 163.99633789 C51.71348969 163.63741051 61.75412469 163.58635433 71.8125 163.6875 C71.31681988 141.11077656 69.9081715 125.79714534 53.88671875 108.9375 C50.91726457 106.76417648 50.10480376 106.42066964 46.70776367 105.91552734 C41.09857993 104.75729863 37.06708382 102.02126113 32.4140625 98.7890625 C31.53962494 98.19886322 30.66518738 97.60866394 29.76425171 97.00057983 C26.97959521 95.1175255 24.20823752 93.21596038 21.4375 91.3125 C17.808058 88.8413768 14.17364068 86.37762281 10.5390625 83.9140625 C9.64351654 83.30509125 8.74797058 82.69612 7.82528687 82.06869507 C0.33082615 76.98981764 -7.29575788 72.14418216 -14.96826172 67.34033203 C-20.40387676 63.93447486 -25.75197441 60.41071645 -31.0625 56.8125 C-31.98417969 56.20148437 -32.90585938 55.59046875 -33.85546875 54.9609375 C-39.33992586 51.2464282 -44.15659275 47.7493145 -47.1875 41.6875 C-47.78016465 35.9888014 -47.41519466 31.58881411 -44.1875 26.6875 C-43.1975 26.0275 -42.2075 25.3675 -41.1875 24.6875 C-21.4735352 37.61714174 -1.77478452 50.56642824 17.8125 63.6875 C11.9874233 54.51931131 11.9874233 54.51931131 6.125 45.375 C5.69219727 44.70057861 5.25939453 44.02615723 4.81347656 43.33129883 C1.93430914 38.87491927 -1.00792732 34.46607481 -3.99909973 30.08439636 C-5.85244065 27.36860743 -7.69686901 24.64680516 -9.54165649 21.92520142 C-10.47076863 20.56053051 -11.40450119 19.19899369 -12.34286499 17.84066772 C-13.67230325 15.91562653 -14.98585522 13.98058248 -16.296875 12.04296875 C-16.70462662 11.46131958 -17.11237823 10.87967041 -17.53248596 10.28039551 C-20.22245793 6.2602111 -20.22245793 6.2602111 -20.04785156 3.3996582 C-16.52475634 -3.61154122 -6.11865974 -2.51944813 0 0 Z M159.8125 166.6875 C158.86632812 167.40292969 157.92015625 168.11835938 156.9453125 168.85546875 C147.30859462 176.12308821 137.5835942 183.25734042 127.76855469 190.28222656 C126.06027433 191.50949338 124.36134717 192.74975828 122.6640625 193.9921875 C121.80554688 194.61351562 120.94703125 195.23484375 120.0625 195.875 C119.36640625 196.38417969 118.6703125 196.89335937 117.953125 197.41796875 C113.42534568 200.10323933 108.96427072 200.94053802 103.7578125 201.1015625 C102.64921875 201.14023438 101.540625 201.17890625 100.3984375 201.21875 C99.25632812 201.2496875 98.11421875 201.280625 96.9375 201.3125 C95.18953125 201.37050781 95.18953125 201.37050781 93.40625 201.4296875 C90.54182136 201.52360319 87.67739308 201.60927983 84.8125 201.6875 C84.6856156 209.55272173 84.59811221 217.41767905 84.5378418 225.28369141 C84.51553822 227.95930927 84.478614 230.63358993 84.43530273 233.30908203 C84.3745802 237.15674766 84.3462716 241.00350477 84.32421875 244.8515625 C84.29841232 246.04552643 84.2726059 247.23949036 84.24601746 248.46963501 C84.12468453 255.4134916 84.12468453 255.4134916 87.15551758 261.42724609 C89.66239148 263.84515015 89.66239148 263.84515015 92.8125 264.6875 C93.93440403 258.81608787 95.05538983 252.94450144 96.17553711 247.07275391 C96.55647151 245.07661234 96.93765371 243.08051804 97.3190918 241.08447266 C97.8683331 238.21008596 98.41667356 235.33552863 98.96484375 232.4609375 C99.1346727 231.57320648 99.30450165 230.68547546 99.47947693 229.77084351 C100.3088185 225.41709373 101.10817693 221.06369403 101.8125 216.6875 C102.97007812 216.58953125 104.12765625 216.4915625 105.3203125 216.390625 C106.85946119 216.24046415 108.39851932 216.08937309 109.9375 215.9375 C110.69804687 215.875625 111.45859375 215.81375 112.2421875 215.75 C119.75338593 214.97297947 124.16999253 211.78919875 129.125 206.125 C129.8984375 205.24199219 130.671875 204.35898438 131.46875 203.44921875 C134.47956206 199.90147854 137.42361183 196.30377591 140.3515625 192.6875 C144.59266527 187.51739377 148.97127019 182.4649237 153.33740234 177.40039062 C155.83451198 174.50073468 158.32334373 171.59398342 160.8125 168.6875 C160.3175 167.6975 160.3175 167.6975 159.8125 166.6875 Z " fill="#000000" transform="translate(255.1875,1.3125)"/>
<path d="M0 0 C2.05565525 0.33313858 4.11386537 0.64441904 6.1730957 0.95458984 C17.41928403 2.71827892 26.72201299 5.37804942 34.49536133 14.08349609 C38.473319 20.2343844 39.63114927 25.63391715 39.58520508 32.92504883 C39.57951759 33.91657408 39.57951759 33.91657408 39.57371521 34.92813015 C39.5188543 41.82841632 39.30216759 48.72276497 39.05786133 55.61865234 C39.01273425 56.95372061 38.96790067 58.28879882 38.92333984 59.62388611 C38.7834657 63.79801997 38.63967937 67.97201385 38.49536133 72.14599609 C38.32773527 76.9985879 38.16184677 81.85122904 37.99972534 86.7040081 C37.93518383 88.61247668 37.86779158 90.5208482 37.80029297 92.42921448 C37.52400814 100.65268367 37.4458535 108.85571781 37.49536133 117.08349609 C37.82243324 115.92768288 37.82243324 115.92768288 38.15611267 114.7485199 C40.25667666 107.32622727 42.35828062 99.90423014 44.46092892 92.48252773 C45.54072895 88.67103823 46.62018674 84.85945264 47.69873047 81.04760742 C49.99638325 72.92805738 52.30053769 64.81042273 54.61577415 56.69586754 C55.88099209 52.25670483 57.1325965 47.81395959 58.37430859 43.36816692 C59.17618956 40.50402189 59.98665074 37.64235014 60.7989521 34.7811451 C61.17749512 33.44052645 61.55235916 32.09886262 61.92323112 30.75610161 C66.44879292 14.38691618 66.44879292 14.38691618 74.49536133 9.08349609 C81.08436744 5.84459647 86.84332302 5.19764048 93.99536133 7.14599609 C99.67105349 9.21868914 103.63402389 12.77150777 106.59301758 18.03662109 C109.52961732 24.97519164 108.87015363 31.75468704 106.86254883 38.87255859 C106.67859055 39.53567551 106.49463226 40.19879242 106.30509949 40.88200378 C105.6701109 43.16040711 105.02011335 45.43426231 104.37036133 47.70849609 C103.89609673 49.39794771 103.42275004 51.08765721 102.95019531 52.77758789 C101.82810334 56.78068906 100.69836885 60.78155138 99.56420898 64.78125 C97.3613539 72.55045494 95.17218591 80.3234917 92.983181 88.09660721 C89.87585064 99.130478 86.76627252 110.16369904 83.64575195 121.19384766 C77.53975962 142.78117254 77.53975962 142.78117254 71.54614258 164.39990234 C71.26362137 165.42640396 70.98110016 166.45290558 70.6900177 167.51051331 C69.44843108 172.02282852 68.21404109 176.53679852 66.99560547 181.05541992 C61.88684023 199.80069771 61.88684023 199.80069771 56.05786133 204.45849609 C55.50227539 204.91998047 54.94668945 205.38146484 54.37426758 205.85693359 C50.36118967 208.47669755 46.8227722 209.33326894 42.0625 209.31054688 C40.4714167 209.31032028 40.4714167 209.31032028 38.84819031 209.31008911 C37.14793449 209.29460526 37.14793449 209.29460526 35.41333008 209.27880859 C34.24401443 209.2759787 33.07469879 209.2731488 31.86994934 209.27023315 C28.14081525 209.25905172 24.41192265 209.23395044 20.68286133 209.20849609 C18.15226584 209.19846368 15.62166659 209.18933829 13.09106445 209.18115234 C6.8923292 209.16082196 0.69411511 209.12166837 -5.50463867 209.08349609 C-5.50463867 224.92349609 -5.50463867 240.76349609 -5.50463867 257.08349609 C-2.86463867 257.41349609 -0.22463867 257.74349609 2.49536133 258.08349609 C22.88873084 263.18183847 40.26134393 274.80257701 53.49536133 291.08349609 C55.05311069 294.19899481 55.06016755 297.68793489 54.49536133 301.08349609 C53.3397665 302.68255711 53.3397665 302.68255711 51.49536133 304.08349609 C48.87287235 304.46381283 48.87287235 304.46381283 45.65675354 304.47117615 C43.82916 304.4860331 43.82916 304.4860331 41.96464539 304.50119019 C40.6123342 304.49695194 39.26002399 304.49239405 37.90771484 304.48754883 C36.48520368 304.49325034 35.06269709 304.50021375 33.64019775 304.50834656 C29.77446189 304.52631798 25.90895251 304.52510212 22.04318738 304.51940417 C18.81744112 304.5163179 15.59173872 304.52239853 12.36599869 304.52844292 C4.75665747 304.54249975 -2.85257151 304.54091741 -10.46191406 304.52954102 C-18.31514063 304.51805953 -26.16802571 304.53213315 -34.02120727 304.55893749 C-40.76100175 304.58108133 -47.50068892 304.58773483 -54.2405172 304.58186108 C-58.26709642 304.578487 -62.29345674 304.58093619 -66.32000542 304.59811211 C-70.1064721 304.61355831 -73.89243229 304.60965216 -77.67887878 304.59080696 C-79.06883712 304.58711449 -80.45883279 304.59024878 -81.84875679 304.60069275 C-83.74548208 304.61385709 -85.64233776 304.59997526 -87.53904724 304.58470154 C-88.60074347 304.58449225 -89.66243971 304.58428297 -90.75630856 304.58406734 C-94.20463139 303.95600186 -95.39027576 302.83112025 -97.50463867 300.08349609 C-98.05529359 296.53272131 -97.79225098 294.65533703 -96.17651367 291.44287109 C-83.2639369 273.91116116 -62.72949964 261.81294881 -41.50463867 257.08349609 C-40.18463867 257.08349609 -38.86463867 257.08349609 -37.50463867 257.08349609 C-37.50463867 241.24349609 -37.50463867 225.40349609 -37.50463867 209.08349609 C-62.74963867 209.57849609 -62.74963867 209.57849609 -88.50463867 210.08349609 C-89.50043945 218.24712891 -89.50043945 218.24712891 -90.51635742 226.57568359 C-90.94727398 230.03950465 -91.37927522 233.50312135 -91.81518555 236.96630859 C-92.50573256 242.4533452 -93.19238784 247.94066052 -93.85498047 253.43115234 C-94.38992949 257.86180052 -94.94306044 262.28984402 -95.50843239 266.71670914 C-95.72012133 268.39903865 -95.92544258 270.08218306 -96.12402916 271.76610947 C-98.70356939 293.55023453 -98.70356939 293.55023453 -107.62963867 300.64599609 C-114.08148734 305.07693496 -120.91149301 304.67341862 -128.50463867 304.08349609 C-134.70895504 302.46667268 -139.04571726 298.38203494 -142.50463867 293.08349609 C-148.72545961 280.16174784 -143.30319486 260.55090815 -141.51245117 246.99365234 C-141.20259206 244.5943728 -140.8935139 242.19499229 -140.58517456 239.79551697 C-139.94068158 234.79652303 -139.28955485 229.79845665 -138.63305664 224.80102539 C-137.79385575 218.41166424 -136.96723099 212.02075704 -136.14502144 205.62918949 C-135.50851038 200.68640582 -134.86750839 195.74421339 -134.22494125 190.80221367 C-133.91867821 188.44571813 -133.61329949 186.08910747 -133.30884171 183.73237801 C-132.88240207 180.44007551 -132.45044009 177.14854464 -132.0168457 173.85717773 C-131.89312592 172.89544144 -131.76940613 171.93370514 -131.64193726 170.94282532 C-129.21378204 152.68561348 -129.21378204 152.68561348 -121.75463867 145.39599609 C-118.08959968 142.78817989 -114.77629933 141.3738101 -110.50463867 140.08349609 C-109.80725586 139.86564453 -109.10987305 139.64779297 -108.39135742 139.42333984 C-104.37982232 138.28258316 -101.46380126 137.72241315 -97.50463867 139.08349609 C-95.55102539 141.23803711 -95.55102539 141.23803711 -93.68432617 144.08740234 C-92.98895752 145.1314624 -92.29358887 146.17552246 -91.57714844 147.2512207 C-90.84447117 148.38269984 -90.11197117 149.51429378 -89.37963867 150.64599609 C-88.62461393 151.78839075 -87.86801414 152.92974596 -87.10986328 154.07006836 C-85.60162952 156.34148137 -84.10029672 158.61719654 -82.60473633 160.89697266 C-79.80855492 165.13967897 -76.94903229 169.3362402 -74.06713867 173.52099609 C-73.62547363 174.1694751 -73.18380859 174.8179541 -72.72875977 175.48608398 C-71.10113001 177.86174606 -69.54595802 180.04217674 -67.50463867 182.08349609 C-64.96273865 182.33357339 -64.96273865 182.33357339 -62.50463867 182.08349609 C-61.20193902 180.9932844 -61.20193902 180.9932844 -61.24536133 178.33911133 C-61.54601815 174.56391477 -62.44859361 173.03396462 -64.65307617 169.99365234 C-65.32467773 169.05086426 -65.9962793 168.10807617 -66.68823242 167.13671875 C-67.41139648 166.14978027 -68.13456055 165.1628418 -68.87963867 164.14599609 C-70.3468627 162.09338095 -71.81300735 160.03999384 -73.27807617 157.98583984 C-73.99833984 156.98407715 -74.71860352 155.98231445 -75.46069336 154.95019531 C-78.21662636 151.08491039 -80.878407 147.16265875 -83.50463867 143.20849609 C-83.91891113 142.59111572 -84.33318359 141.97373535 -84.76000977 141.33764648 C-87.50463867 137.20993049 -87.50463867 137.20993049 -87.50463867 136.08349609 C-76.63884033 135.10100931 -65.77316921 134.18701106 -54.87963867 133.57568359 C-54.14917831 133.53420197 -53.41871796 133.49272034 -52.66612244 133.44998169 C-49.04967704 133.24601276 -45.43303675 133.05131888 -41.81542969 132.86914062 C-27.73213739 132.37206998 -27.73213739 132.37206998 -15.50463867 126.08349609 C-11.98936523 121.42167024 -10.00582897 116.68855783 -8.05151367 111.25537109 C-7.74642883 110.42515442 -7.44134399 109.59493774 -7.12701416 108.73956299 C-6.48809704 106.99619272 -5.85296207 105.25143215 -5.22143555 103.50537109 C-4.25157982 100.82504253 -3.26974187 98.14933946 -2.28588867 95.47412109 C-1.6653964 93.77646033 -1.04558053 92.07855216 -0.42651367 90.38037109 C0.01401337 89.17728302 0.01401337 89.17728302 0.46343994 87.94989014 C1.95625918 84.11529304 1.95625918 84.11529304 2.49536133 80.08349609 C1.81022461 81.14785889 1.12508789 82.21222168 0.41918945 83.30883789 C-2.1434699 87.2801709 -4.72797551 91.23688437 -7.3190918 95.18969727 C-8.4344169 96.89774076 -9.54389557 98.60961752 -10.6472168 100.32543945 C-12.24045336 102.80085168 -13.85468188 105.26140448 -15.47338867 107.72021484 C-15.95706909 108.48186447 -16.44074951 109.2435141 -16.93908691 110.02824402 C-20.72097037 115.70523585 -25.08102409 119.95872611 -31.85432434 121.68093872 C-34.85464386 122.13665853 -37.81594972 122.37584869 -40.84521484 122.56420898 C-42.10810837 122.64421646 -43.37100189 122.72422394 -44.67216492 122.80665588 C-46.04729814 122.89005712 -47.42244607 122.97321611 -48.79760742 123.05615234 C-50.22708508 123.14426036 -51.65655372 123.23251473 -53.08601379 123.32090759 C-56.08763878 123.50562831 -59.08941388 123.68763804 -62.09130859 123.86791992 C-65.13552072 124.05101647 -68.17943544 124.23816775 -71.22314453 124.42944336 C-100.02530463 126.23814528 -100.02530463 126.23814528 -111.11791992 126.45458984 C-113.0269812 126.49797485 -113.0269812 126.49797485 -114.97460938 126.54223633 C-120.57790122 125.81406803 -124.98779916 123.68016926 -128.87963867 119.58349609 C-132.91147446 113.3806718 -133.11748339 108.43763273 -132.50463867 101.08349609 C-130.8126356 95.7088981 -127.18767543 92.10246348 -122.50463867 89.08349609 C-118.25340985 87.44902006 -114.47314746 86.75761557 -109.93603516 86.48925781 C-108.00889931 86.36935989 -108.00889931 86.36935989 -106.04283142 86.24703979 C-104.65381061 86.16887081 -103.26477728 86.0909241 -101.87573242 86.01318359 C-100.43892972 85.927029 -99.00216758 85.84019558 -97.56544495 85.75271606 C-93.79488842 85.52514691 -90.02381624 85.30759615 -86.25256348 85.09191895 C-83.17783083 84.9143587 -80.10355028 84.72960613 -77.0292654 84.54447746 C-73.3532323 84.32326492 -69.67701101 84.10527411 -66.00073242 83.88818359 C-64.9547479 83.8262916 -64.9547479 83.8262916 -63.88763237 83.76314926 C-61.90647077 83.64670108 -59.92516166 83.53277089 -57.94384766 83.41894531 C-56.81832993 83.35391815 -55.69281219 83.28889099 -54.53318787 83.22189331 C-51.85095594 83.09932194 -49.18902319 83.05666494 -46.50463867 83.08349609 C-46.24183105 82.36331299 -45.97902344 81.64312988 -45.70825195 80.90112305 C-44.47096102 78.0046576 -43.00715591 75.60995346 -41.24682617 73.00146484 C-40.62163086 72.07011719 -39.99643555 71.13876953 -39.35229492 70.17919922 C-38.70131836 69.21949219 -38.0503418 68.25978516 -37.37963867 67.27099609 C-36.72092773 66.29195313 -36.0622168 65.31291016 -35.38354492 64.30419922 C-33.76138078 61.89446263 -32.13497021 59.48771115 -30.50463867 57.08349609 C-34.72164105 60.65377332 -38.61100723 64.07794122 -42.00463867 68.45849609 C-46.42348632 73.07334102 -51.16820907 72.99307804 -57.22143555 73.13574219 C-58.98256764 73.14448953 -60.74381677 73.11768681 -62.50463867 73.08349609 C-60.00066853 63.56622388 -57.19092066 54.14039731 -54.37109375 44.71313477 C-53.56824106 42.02468756 -52.77178408 39.3343951 -51.9753418 36.64404297 C-43.12534062 6.91970965 -43.12534062 6.91970965 -30.50463867 0.08349609 C-20.58626032 -3.73126481 -10.19785144 -1.66738948 0 0 Z M3.49536133 77.08349609 C4.49536133 79.08349609 4.49536133 79.08349609 4.49536133 79.08349609 Z " fill="#000000" transform="translate(153.504638671875,207.91650390625)"/>
<path d="M0 0 C22.95606779 14.52348419 44.89038369 22.46358362 72.15014648 22.00292969 C84.61451034 21.83679708 95.7722105 23.18560901 107 29 C107 29.66 107 30.32 107 31 C106.38592285 31.01458252 105.7718457 31.02916504 105.13916016 31.04418945 C102.30054015 31.11961945 99.46297742 31.21595776 96.625 31.3125 C95.65949219 31.33505859 94.69398438 31.35761719 93.69921875 31.38085938 C82.43997685 31.79646898 72.11655535 34.42937722 64.2109375 42.921875 C58.18817573 50.57641952 55.75230004 58.26893009 56 68 C56.72973628 72.09488956 57.75510916 76.03322917 59 80 C57.60550891 80.483059 56.20933293 80.96125517 54.8125 81.4375 C54.03519531 81.70433594 53.25789063 81.97117187 52.45703125 82.24609375 C38.82818979 86.42791633 21.04022756 85.71128954 8 80 C4.78350239 78.27499308 1.68426493 76.47233249 -1.37890625 74.48828125 C-4.67970142 72.61405926 -7.27691044 71.55682533 -11.03515625 72.5234375 C-11.70417969 72.80445313 -12.37320313 73.08546875 -13.0625 73.375 C-24.58728815 77.52239474 -36.10199303 76.46064242 -47.125 71.4375 C-58.32992972 65.41412457 -64.84525971 56.55566263 -68.80859375 44.55078125 C-71.58785467 33.5679088 -69.99496123 22.28985977 -64.75 12.25 C-58.38552376 1.80621555 -49.80967382 -5.36236189 -37.83203125 -8.53125 C-23.04755005 -10.97833654 -12.27219589 -7.8155373 0 0 Z " fill="#000000" transform="translate(196,121)"/>
<path d="M0 0 C8.82053004 6.34788965 15.07310091 14.9315593 17.3828125 25.71484375 C18.59422913 38.22617071 17.98601495 50.06636589 10.328125 60.51953125 C8.12949492 63.08333172 5.85416941 65.414645 3.3828125 67.71484375 C2.7434375 68.31167969 2.1040625 68.90851563 1.4453125 69.5234375 C-7.20481883 76.74990138 -17.72656852 78.59247693 -28.72265625 78.08984375 C-40.18987994 76.98567778 -49.39869831 72.03873106 -57.4609375 63.83984375 C-65.10163898 54.48388276 -68.52779497 42.6355234 -67.6171875 30.71484375 C-65.54582323 18.18879841 -60.28691086 7.84446318 -50.1171875 0.08984375 C-34.48853502 -10.33696434 -15.60551732 -10.00416392 0 0 Z " fill="#000000" transform="translate(417.6171875,12.28515625)"/>
<path d="M0 0 C0 10.89 0 21.78 0 33 C-3.09687798 29.90312202 -5.0377703 26.69174147 -7.1875 22.9375 C-10.50951687 17.24663326 -14.0772941 12.07322569 -18.37109375 7.05078125 C-19.91768563 5.10363319 -20.98430774 3.26106367 -22 1 C-19.08340625 0.83196579 -16.16673658 0.66552033 -13.25 0.5 C-12.0125 0.42845703 -12.0125 0.42845703 -10.75 0.35546875 C-9.55117188 0.28779297 -9.55117188 0.28779297 -8.328125 0.21875 C-7.5949707 0.17685547 -6.86181641 0.13496094 -6.10644531 0.09179688 C-4.07266386 0.00316662 -2.03571175 0 0 0 Z " fill="#000000" transform="translate(317,218)"/>
</svg>
