<svg width="250" height="0" viewBox="0 0 2500 734" fill="none" xmlns="http://www.w3.org/2000/svg">
<path d="M329.917 213.75C329.917 213.75 330.583 214.417 331.083 214.417C337.167 214.417 343.083 215.667 349.083 216.417C359.417 217.75 369.5 220.167 379.583 223.083C395 227.5 409.667 233.75 423.833 241.083C424.25 241.333 424.667 241.5 425 241.75C425.167 241.833 425.25 242.083 425.833 243C415.833 238.417 406.333 234.25 396.5 230.917C386.5 227.583 376.333 224.833 366 222.667C355.917 220.583 345.75 218.833 335.417 218.083C346.583 220.75 357.583 223.917 368.083 228.5C378.167 232.917 387.667 238.583 396.167 245.75C398.333 247.583 400.5 249.5 402.5 251.5C416.083 264.833 424.167 281.083 428 299.667C429.75 308.167 430.417 316.667 429.833 325.25C429.167 334.667 427.667 344.083 425 353.167C422.583 361.417 419.333 369.417 415.5 377.083C408.583 390.833 399.5 403.083 387.917 413.167C381 419.25 373.167 424 364.5 427.333C358.167 429.833 351.667 431.667 345 432.667C337.917 433.75 330.667 433.833 323.417 433.083C312.833 431.917 303.417 428 294.667 422.417C286.083 416.917 278.917 409.667 274.417 400.417C271 393.5 268.75 386.167 268.5 378.333C268.5 376.167 267.75 374.083 267.833 371.833C268.417 358.333 272 345.833 281 335.417C286.667 328.917 293 323.083 301 319.417C302.75 318.583 304.417 317.667 306.583 316.583C304.167 315.25 302 315.417 299.917 315C290.75 313.333 281.417 313.417 272.167 313.583C259.167 313.833 246.75 316.75 235.25 323C227.417 327.25 220.917 333.167 215.167 340.083C206.583 350.417 201.833 362.5 198.917 375.333C197.833 380 197.333 384.75 196.583 389.5C195.917 393.833 196.75 398.25 195.417 402.5C194.833 404.5 194.5 405 192.583 405.25C191.667 405.333 190.75 405.25 189.833 405.25C174 405.25 158.083 405.25 142.25 405.25C141.417 405.25 140.667 405.25 139.833 405.25C138.167 405.167 137.25 405.75 136.5 407.5C133.917 413.917 131.917 420.417 130.5 427.167C128.583 436.5 128.667 445.917 129.25 455.25C129.833 464.583 132.333 473.75 135.75 482.5C137.167 486.25 137.833 486.583 141.917 486.583C158.167 486.583 174.333 486.583 190.583 486.583C191.417 486.583 192.167 486.583 193 486.583C195.667 486.667 196 487 196.083 489.5C196.083 490.417 196.083 491.333 196.083 492.25C196.083 506.5 199.083 520.167 204.583 533.25C208.583 542.833 214.167 551.25 221.583 558.417C230.667 567.083 241.5 572.583 253.75 575.417C258.667 576.5 263.667 577.083 268.667 577.667C273.25 578.167 277.833 578.25 282.417 578.167C286.25 578.167 290.167 577.417 294 577.083C298.25 576.667 302.333 575.75 307.25 575.25C304.417 573.833 302.167 572.583 299.833 571.5C294.667 569.083 290.25 565.583 286.25 561.667C277.5 553.167 271.583 543 269.25 530.833C268.083 524.75 267.667 518.75 268.333 512.5C269.5 502.583 272.75 493.583 278.167 485.333C282.167 479.25 287.5 474.417 293.333 470C302.083 463.333 312.167 460.25 322.75 458.417C325 458 327.333 458.417 329.667 458.25C333.917 457.75 338.167 458 342.25 458.5C349.833 459.333 357.25 461.25 364.5 464.167C372.333 467.333 379.5 471.667 386 476.917C396.667 485.5 405.083 495.917 411.75 507.917C416.333 516.167 420.5 524.583 423.417 533.5C425.917 541.083 427.75 548.833 428.75 556.833C429.417 562.5 430.083 568.167 430 573.917C429.833 582.75 428.5 591.417 426.083 599.917C424.417 605.667 422.5 611.25 419.75 616.583C415.583 624.583 410.417 631.75 404.167 638.25C397 645.667 389.083 652 380.167 657.083C374 660.583 367.5 663.5 360.75 665.917C353.167 668.583 345.417 670.583 337.667 672.583C337.333 672.583 337.083 672.833 336.833 673.167C352.083 671.833 367.083 669 381.833 665C396.583 661 410.75 655.75 424.833 649.083C424.417 650.583 423.417 650.667 422.667 651.083C408.75 658.5 394.083 664.25 379 668.667C370.083 671.25 361.083 673.25 351.917 674.75C345.5 675.833 339 676.25 332.583 677.333C332.5 677.333 332.333 677.333 332.25 677.333C324.25 677.333 316.167 678.917 308.167 677.917C303.167 677.333 298.167 677.5 293.083 676.917C288.417 676.417 283.833 675.583 279.167 675.167C275 674.75 270.833 673.75 266.667 672.917C256.917 670.917 247.25 668.25 237.833 664.917C231 662.5 224.333 659.75 217.75 656.833C204.667 651.083 192.5 643.75 180.833 635.667C175.583 632 170.583 628 165.583 624C159 618.75 153.167 612.833 147.167 606.917C139.5 599.333 132.75 591 126.333 582.333C120.25 574 114.667 565.333 109.75 556.25C101.75 541.667 95.5833 526.5 91 510.583C89.0833 504.083 87.3333 497.583 86.0833 490.917C85.0833 485.417 84.0833 479.917 83.4167 474.333C82.6667 468.417 81.9167 462.583 82.0833 456.583C82.0833 455.917 82.0833 455.167 81.4167 454.75V435.417C82.0833 435 82.0833 434.25 82.0833 433.583C82.0833 430.167 82.3333 426.75 82.6667 423.333C83.1667 418 84.0833 412.75 84.8333 407.417C86.4167 396.083 89.4167 385 92.8333 374.167C95.1667 366.833 98 359.75 101.083 352.667C105.667 342.417 110.667 332.333 116.75 322.917C121.333 315.833 126.083 308.833 131.417 302.167C136.5 295.833 141.833 289.75 147.417 283.75C152.333 278.5 157.917 273.833 163.333 269.083C169.083 264 175.167 259.333 181.417 254.917C194.917 245.583 209.167 237.5 224.417 231.333C233.833 227.5 243.5 224.083 253.333 221.417C260.833 219.417 268.417 217.667 276.083 216.417C279.667 215.833 283.333 215.333 286.917 214.917C290.667 214.5 294.417 213.917 298.167 214.167C298.667 214.167 299 213.917 299.333 213.5H329.667L329.917 213.75ZM354.5 572.833C362.417 573.167 368.417 566.833 368.5 559.083C368.5 552 362.167 545.417 354.917 545.583C346.75 545.75 341.25 551.083 341.167 558.833C341 566.333 346.167 572.667 354.583 572.833H354.5ZM354.583 335.083C361.917 335.833 368.583 328.75 368.5 322C368.5 313.333 361.083 308.167 354.833 308.083C347.25 308 340.917 314.5 340.917 321.667C340.917 329 347.417 335.667 354.5 335.083H354.583Z" fill="black"/>
<path d="M456.833 262.917C494.25 292.333 521 329.333 535.5 374.667C551.667 425.083 550.583 475.333 532.667 525.167C515.667 572.333 484.917 607.333 457.75 628.083C458.417 626.5 459.417 625.667 460.333 625C462.417 623.5 463.917 621.5 465.667 619.75C471.75 613.833 476.583 607.083 481.083 600C485.25 593.583 488.5 586.75 491.25 579.75C494.417 571.75 496.5 563.417 497.667 554.917C498.25 550.75 498.583 546.5 499.083 542.333C499.583 538 499.583 533.667 499.583 529.333C499.583 523.833 498.75 518.417 498.333 512.917C497.583 503.5 495.5 494.417 493.333 485.333C492.417 481.417 491.25 477.583 490 473.75C487.583 466 485.083 458.25 482.5 450.5C481.5 447.417 481.5 444.5 482.5 441.417C485.5 432.5 488.75 423.667 491.25 414.583C493.25 407.417 494.917 400.167 496.167 392.833C497.083 387.583 497.583 382.167 498.667 377C498.667 376.667 498.833 376.333 498.75 376C498.333 370.583 499.667 365.25 499.417 359.917C499.167 353.833 498.833 347.833 498.167 341.833C497.25 333 495.417 324.417 492.583 316.083C488.833 305.25 483.75 295.25 477.083 285.917C472.667 279.75 467.75 274 462.417 268.667C460.5 266.75 457.917 265.5 456.667 262.917H456.833Z" fill="black"/>
<path d="M657.045 495V401.909H679.545V439.273H716.227V401.909H738.682V495H716.227V457.591H679.545V495H657.045ZM771.995 495V401.909H836.905V420.182H794.495V439.273H833.586V457.591H794.495V476.727H836.905V495H771.995ZM863.795 495V401.909H886.295V476.727H925.023V495H863.795ZM949.47 495V401.909H987.925C994.895 401.909 1000.91 403.273 1005.97 406C1011.06 408.697 1014.99 412.47 1017.74 417.318C1020.5 422.136 1021.88 427.742 1021.88 434.136C1021.88 440.561 1020.47 446.182 1017.65 451C1014.86 455.788 1010.88 459.5 1005.7 462.136C1000.52 464.773 994.364 466.091 987.243 466.091H963.516V448.364H983.061C986.455 448.364 989.289 447.773 991.561 446.591C993.864 445.409 995.607 443.758 996.789 441.636C997.97 439.485 998.561 436.985 998.561 434.136C998.561 431.258 997.97 428.773 996.789 426.682C995.607 424.561 993.864 422.924 991.561 421.773C989.258 420.621 986.425 420.045 983.061 420.045H971.97V495H949.47ZM1170.57 435.636H1147.84C1147.54 433.303 1146.92 431.197 1145.98 429.318C1145.04 427.439 1143.8 425.833 1142.25 424.5C1140.71 423.167 1138.87 422.152 1136.75 421.455C1134.66 420.727 1132.34 420.364 1129.8 420.364C1125.28 420.364 1121.39 421.47 1118.12 423.682C1114.87 425.894 1112.37 429.091 1110.62 433.273C1108.89 437.455 1108.02 442.515 1108.02 448.455C1108.02 454.636 1108.9 459.818 1110.66 464C1112.45 468.152 1114.95 471.288 1118.16 473.409C1121.4 475.5 1125.24 476.545 1129.66 476.545C1132.15 476.545 1134.4 476.227 1136.43 475.591C1138.49 474.955 1140.3 474.03 1141.84 472.818C1143.42 471.576 1144.71 470.076 1145.71 468.318C1146.74 466.53 1147.45 464.515 1147.84 462.273L1170.57 462.409C1170.18 466.53 1168.98 470.591 1166.98 474.591C1165.01 478.591 1162.3 482.242 1158.84 485.545C1155.39 488.818 1151.18 491.424 1146.21 493.364C1141.27 495.303 1135.6 496.273 1129.21 496.273C1120.78 496.273 1113.24 494.424 1106.57 490.727C1099.93 487 1094.69 481.576 1090.84 474.455C1086.99 467.333 1085.07 458.667 1085.07 448.455C1085.07 438.212 1087.02 429.53 1090.93 422.409C1094.84 415.288 1100.13 409.879 1106.8 406.182C1113.46 402.485 1120.93 400.636 1129.21 400.636C1134.84 400.636 1140.06 401.424 1144.84 403C1149.63 404.545 1153.84 406.818 1157.48 409.818C1161.12 412.788 1164.07 416.439 1166.34 420.773C1168.62 425.106 1170.02 430.061 1170.57 435.636ZM1196.25 495V401.909H1261.15V420.182H1218.75V439.273H1257.84V457.591H1218.75V476.727H1261.15V495H1196.25ZM1367.27 401.909V495H1348.18L1311.14 441.273H1310.55V495H1288.05V401.909H1307.41L1344.05 455.545H1344.82V401.909H1367.27ZM1391.17 420.182V401.909H1469.86V420.182H1441.63V495H1419.45V420.182H1391.17ZM1493.65 495V401.909H1558.55V420.182H1516.15V439.273H1555.24V457.591H1516.15V476.727H1558.55V495H1493.65ZM1585.45 495V401.909H1623.9C1630.87 401.909 1636.88 403.167 1641.95 405.682C1647.04 408.167 1650.96 411.742 1653.72 416.409C1656.48 421.045 1657.85 426.545 1657.85 432.909C1657.85 439.364 1656.45 444.848 1653.63 449.364C1650.81 453.848 1646.81 457.273 1641.63 459.636C1636.45 461.97 1630.31 463.136 1623.22 463.136H1598.9V445.409H1619.04C1622.43 445.409 1625.26 444.97 1627.54 444.091C1629.84 443.182 1631.58 441.818 1632.76 440C1633.95 438.152 1634.54 435.788 1634.54 432.909C1634.54 430.03 1633.95 427.652 1632.76 425.773C1631.58 423.864 1629.84 422.439 1627.54 421.5C1625.23 420.53 1622.4 420.045 1619.04 420.045H1607.95V495H1585.45ZM1637.85 452.455L1661.04 495H1636.49L1613.76 452.455H1637.85Z" fill="black"/>
</svg>
