<svg xmlns="http://www.w3.org/2000/svg" viewBox="0 0 32 32" style="display: block; height: 22.5px; width: 22.5px; fill: currentcolor;" aria-hidden="true" role="presentation" focusable="false"><path d="m17.16 2.68.13.1 12.36 10.46c.19.16.31.39.34.64L30 14v14a2 2 0 0 1-1.85 2H21a6.32 6.32 0 0 1-4.75-2.17l-.25-.26v.01c-1.2 1.35-2.37 2.21-3.77 2.4L12 30H4a2 2 0 0 1-2-1.85V14c0-.25.1-.5.26-.68l.1-.08L14.7 2.78a2 2 0 0 1 2.45-.1zM16 4.3 4 14.46V28h7.92c.82-.06 1.8-.84 2.83-2.04-1.34-1.96-2.14-3.59-2.41-4.94-.52-2.6 1.15-4.84 3.76-4.84 2.6 0 4.28 2.23 3.75 4.84-.27 1.37-1.13 3-2.58 4.96 1.18 1.4 2.25 1.96 3.53 2.02H28V14.46zm.54 3.35.1.07 9 7.5c.2.16.32.4.35.64L26 16v9h-2v-8.53L16 9.8l-8 6.67v9.03H6V16c0-.25.1-.5.27-.68l.09-.09 9-7.5a1 1 0 0 1 1.18-.07zm-.44 10.52c-1.3 0-2.08 1.04-1.8 2.45.17.84.65 1.9 1.45 3.2l.28.45.28-.4c.76-1.13 1.26-2.1 1.49-2.87l.05-.2.04-.18c.29-1.41-.5-2.45-1.8-2.45z"/></svg>