<?xml version="1.0" encoding="UTF-8"?>
<svg version="1.1" xmlns="http://www.w3.org/2000/svg" width="64" height="64">
<path d="M0 0 C0.73734375 0.00773438 1.4746875 0.01546875 2.234375 0.0234375 C3.34039062 0.01183594 3.34039062 0.01183594 4.46875 0 C9.9810554 0.0201179 9.9810554 0.0201179 12.234375 2.2734375 C12.72547285 7.18441599 11.79841175 10.44126379 9.96118164 14.94873047 C6.64765167 25.547129 7.9200763 38.50117723 7.62890625 49.51171875 C7.59152344 50.75824219 7.55414063 52.00476562 7.515625 53.2890625 C7.48533203 54.41602539 7.45503906 55.54298828 7.42382812 56.70410156 C7.234375 59.2734375 7.234375 59.2734375 6.234375 60.2734375 C3.27732179 60.36212049 0.34372444 60.38864046 -2.61328125 60.37109375 C-3.94292152 60.36897133 -3.94292152 60.36897133 -5.29942322 60.36680603 C-8.14235754 60.36118965 -10.98521431 60.34863441 -13.828125 60.3359375 C-15.75064991 60.33092461 -17.67317604 60.32636134 -19.59570312 60.32226562 C-24.31904049 60.31121491 -29.04231958 60.29393933 -33.765625 60.2734375 C-33.85788013 41.29194547 -33.85788013 41.29194547 -33.265625 33.1484375 C-33.19408203 32.12556641 -33.19408203 32.12556641 -33.12109375 31.08203125 C-33.00818758 29.4787637 -32.88789275 27.87601831 -32.765625 26.2734375 C-29.890625 26.1484375 -29.890625 26.1484375 -26.765625 26.2734375 C-24.2001656 28.8388969 -24.22516413 30.75030418 -23.765625 34.2734375 C-23.188125 33.6134375 -22.610625 32.9534375 -22.015625 32.2734375 C-17.1890893 29.30326168 -12.31109553 29.59407786 -6.765625 30.2734375 C-5.775625 30.9334375 -4.785625 31.5934375 -3.765625 32.2734375 C-3.88859762 22.30853983 -3.88859762 22.30853983 -6.328125 12.7734375 C-7.89123612 8.96760174 -8.17305888 6.34777627 -7.765625 2.2734375 C-5.20613501 -0.28605249 -3.49355305 0.01275019 0 0 Z M-4.765625 3.2734375 C-4.435625 5.5834375 -4.105625 7.8934375 -3.765625 10.2734375 C-3.435625 9.6134375 -3.105625 8.9534375 -2.765625 8.2734375 C-1.775625 8.2734375 -0.785625 8.2734375 0.234375 8.2734375 C0.564375 9.5934375 0.894375 10.9134375 1.234375 12.2734375 C1.234375 10.9534375 1.234375 9.6334375 1.234375 8.2734375 C1.894375 8.2734375 2.554375 8.2734375 3.234375 8.2734375 C3.564375 9.5934375 3.894375 10.9134375 4.234375 12.2734375 C4.234375 10.9534375 4.234375 9.6334375 4.234375 8.2734375 C5.224375 8.2734375 6.214375 8.2734375 7.234375 8.2734375 C7.564375 8.9334375 7.894375 9.5934375 8.234375 10.2734375 C8.564375 7.9634375 8.894375 5.6534375 9.234375 3.2734375 C6.74682714 2.02966357 5.00782199 2.14037515 2.234375 2.1484375 C0.9040625 2.14457031 0.9040625 2.14457031 -0.453125 2.140625 C-2.79239466 2.12215848 -2.79239466 2.12215848 -4.765625 3.2734375 Z M-1.765625 17.2734375 C-1.435625 21.2334375 -1.105625 25.1934375 -0.765625 29.2734375 C0.224375 29.2734375 1.214375 29.2734375 2.234375 29.2734375 C2.234375 27.6234375 2.234375 25.9734375 2.234375 24.2734375 C2.894375 24.2734375 3.554375 24.2734375 4.234375 24.2734375 C4.234375 25.9234375 4.234375 27.5734375 4.234375 29.2734375 C4.564375 29.2734375 4.894375 29.2734375 5.234375 29.2734375 C5.564375 25.3134375 5.894375 21.3534375 6.234375 17.2734375 C3.594375 17.2734375 0.954375 17.2734375 -1.765625 17.2734375 Z M0.234375 31.2734375 C0.20504928 34.46091779 0.18746761 37.64836278 0.171875 40.8359375 C0.16349609 41.73119141 0.15511719 42.62644531 0.14648438 43.54882812 C0.12807929 48.57341693 0.37171102 53.32161041 1.234375 58.2734375 C2.224375 58.2734375 3.214375 58.2734375 4.234375 58.2734375 C4.234375 49.3634375 4.234375 40.4534375 4.234375 31.2734375 C2.914375 31.2734375 1.594375 31.2734375 0.234375 31.2734375 Z M-30.765625 32.2734375 C-30.765625 34.2534375 -30.765625 36.2334375 -30.765625 38.2734375 C-29.445625 38.2734375 -28.125625 38.2734375 -26.765625 38.2734375 C-26.765625 36.2934375 -26.765625 34.3134375 -26.765625 32.2734375 C-28.085625 32.2734375 -29.405625 32.2734375 -30.765625 32.2734375 Z M-16.765625 33.2734375 C-16.765625 33.6034375 -16.765625 33.9334375 -16.765625 34.2734375 C-14.125625 34.2734375 -11.485625 34.2734375 -8.765625 34.2734375 C-8.765625 33.9434375 -8.765625 33.6134375 -8.765625 33.2734375 C-11.405625 33.2734375 -14.045625 33.2734375 -16.765625 33.2734375 Z M-17.765625 38.2734375 C-19.9175687 41.50135305 -19.96648943 42.55744559 -19.765625 46.2734375 C-17.820525 43.3557875 -17.31286183 41.64806465 -16.765625 38.2734375 C-17.095625 38.2734375 -17.425625 38.2734375 -17.765625 38.2734375 Z M-13.765625 38.2734375 C-12.765625 40.2734375 -12.765625 40.2734375 -12.765625 40.2734375 Z M-9.765625 38.2734375 C-11.085625 42.5634375 -12.405625 46.8534375 -13.765625 51.2734375 C-13.105625 51.2734375 -12.445625 51.2734375 -11.765625 51.2734375 C-11.09504613 49.4832314 -10.4292781 47.69122261 -9.765625 45.8984375 C-9.394375 44.90070312 -9.023125 43.90296875 -8.640625 42.875 C-7.65936223 40.41495689 -7.65936223 40.41495689 -7.765625 38.2734375 C-8.425625 38.2734375 -9.085625 38.2734375 -9.765625 38.2734375 Z M-30.765625 40.2734375 C-30.765625 40.9334375 -30.765625 41.5934375 -30.765625 42.2734375 C-29.445625 42.2734375 -28.125625 42.2734375 -26.765625 42.2734375 C-26.765625 41.6134375 -26.765625 40.9534375 -26.765625 40.2734375 C-28.085625 40.2734375 -29.405625 40.2734375 -30.765625 40.2734375 Z M-23.765625 40.2734375 C-23.765625 43.9034375 -23.765625 47.5334375 -23.765625 51.2734375 C-22.775625 50.9434375 -21.785625 50.6134375 -20.765625 50.2734375 C-21.095625 49.9434375 -21.425625 49.6134375 -21.765625 49.2734375 C-21.99755365 47.75874302 -22.17777738 46.23589188 -22.328125 44.7109375 C-22.41191406 43.88464844 -22.49570312 43.05835938 -22.58203125 42.20703125 C-22.64261719 41.56894531 -22.70320313 40.93085937 -22.765625 40.2734375 C-23.095625 40.2734375 -23.425625 40.2734375 -23.765625 40.2734375 Z M-2.765625 40.2734375 C-2.765625 42.9134375 -2.765625 45.5534375 -2.765625 48.2734375 C-2.435625 48.2734375 -2.105625 48.2734375 -1.765625 48.2734375 C-1.765625 45.6334375 -1.765625 42.9934375 -1.765625 40.2734375 C-2.095625 40.2734375 -2.425625 40.2734375 -2.765625 40.2734375 Z M-14.765625 41.2734375 C-13.765625 43.2734375 -13.765625 43.2734375 -13.765625 43.2734375 Z M-31.765625 44.2734375 C-31.765625 44.9334375 -31.765625 45.5934375 -31.765625 46.2734375 C-29.785625 46.2734375 -27.805625 46.2734375 -25.765625 46.2734375 C-25.765625 45.6134375 -25.765625 44.9534375 -25.765625 44.2734375 C-27.745625 44.2734375 -29.725625 44.2734375 -31.765625 44.2734375 Z M-15.765625 44.2734375 C-14.765625 46.2734375 -14.765625 46.2734375 -14.765625 46.2734375 Z M-6.765625 44.2734375 C-5.765625 47.2734375 -5.765625 47.2734375 -5.765625 47.2734375 Z M-16.765625 47.2734375 C-15.765625 49.2734375 -15.765625 49.2734375 -15.765625 49.2734375 Z M-7.765625 47.2734375 C-6.765625 49.2734375 -6.765625 49.2734375 -6.765625 49.2734375 Z M-31.765625 48.2734375 C-31.765625 51.5734375 -31.765625 54.8734375 -31.765625 58.2734375 C-29.785625 58.2734375 -27.805625 58.2734375 -25.765625 58.2734375 C-25.765625 54.9734375 -25.765625 51.6734375 -25.765625 48.2734375 C-27.745625 48.2734375 -29.725625 48.2734375 -31.765625 48.2734375 Z M-23.765625 53.2734375 C-23.765625 54.5934375 -23.765625 55.9134375 -23.765625 57.2734375 C-20.06115947 58.50825934 -16.6213242 58.41901952 -12.765625 58.3984375 C-11.67894531 58.40423828 -11.67894531 58.40423828 -10.5703125 58.41015625 C-7.37279621 58.40425677 -4.81979893 58.29149548 -1.765625 57.2734375 C-1.03238704 55.25835392 -1.03238704 55.25835392 -0.765625 53.2734375 C-3.68196629 53.0232218 -3.68196629 53.0232218 -6.765625 53.2734375 C-7.755625 54.7584375 -7.755625 54.7584375 -8.765625 56.2734375 C-10.640625 56.671875 -10.640625 56.671875 -12.765625 56.6484375 C-13.466875 56.65617187 -14.168125 56.66390625 -14.890625 56.671875 C-16.765625 56.2734375 -16.765625 56.2734375 -18.765625 53.2734375 C-21.34942677 53.02312773 -21.34942677 53.02312773 -23.765625 53.2734375 Z M-14.765625 53.2734375 C-14.435625 53.9334375 -14.105625 54.5934375 -13.765625 55.2734375 C-12.445625 54.6134375 -11.125625 53.9534375 -9.765625 53.2734375 C-11.415625 53.2734375 -13.065625 53.2734375 -14.765625 53.2734375 Z " fill="#000000" transform="translate(47.765625,1.7265625)"/>
<path d="M0 0 C0.66 0 1.32 0 2 0 C2 0.66 2 1.32 2 2 C2.66 2 3.32 2 4 2 C5.125 9.625 5.125 9.625 4 13 C3.34 13 2.68 13 2 13 C2 14.32 2 15.64 2 17 C2.99 17 3.98 17 5 17 C5.83211276 22.03854106 6.1078534 26.8125662 6.0625 31.9375 C6.05798828 32.62134766 6.05347656 33.30519531 6.04882812 34.00976562 C6.0371956 35.67321604 6.01926694 37.3366205 6 39 C2.7 39 -0.6 39 -4 39 C-4.02726927 36.64575325 -4.04696719 34.29183038 -4.0625 31.9375 C-4.07990234 29.97103516 -4.07990234 29.97103516 -4.09765625 27.96484375 C-4.00452335 24.1836481 -3.61448726 20.72079293 -3 17 C-2.01 17 -1.02 17 0 17 C0 15.68 0 14.36 0 13 C-0.66 13 -1.32 13 -2 13 C-3.125 5.375 -3.125 5.375 -2 2 C-1.34 2 -0.68 2 0 2 C0 1.34 0 0.68 0 0 Z M-1 19 C-1 20.32 -1 21.64 -1 23 C0.32 23 1.64 23 3 23 C3 21.68 3 20.36 3 19 C1.68 19 0.36 19 -1 19 Z M-1 25 C-1 25.66 -1 26.32 -1 27 C0.32 27 1.64 27 3 27 C3 26.34 3 25.68 3 25 C1.68 25 0.36 25 -1 25 Z M-2 29 C-2 31.31 -2 33.62 -2 36 C-0.34385343 36.38218767 1.32457024 36.71395102 3 37 C4.41577477 35.81575674 4.41577477 35.81575674 4.0625 32.4375 C4.041875 31.303125 4.02125 30.16875 4 29 C2.02 29 0.04 29 -2 29 Z " fill="#000000" transform="translate(6,23)"/>
<path d="M0 0 C0.66 0 1.32 0 2 0 C2 0.99 2 1.98 2 3 C1.34 3 0.68 3 0 3 C0 2.01 0 1.02 0 0 Z " fill="#000000" transform="translate(50,21)"/>
</svg>
