<svg xmlns="http://www.w3.org/2000/svg" viewBox="0 0 32 32" style="display:block;height:32px;width:32px;fill:currentColor" aria-hidden="true" role="presentation" focusable="false"><path d="M21 1a5 5 0 0 1 1.66 9.72l-.07.02.03.03c.73 1.03.92 2.08.4 3.37l-.08.2-2.4 5.25 4.33.79a2 2 0 0 1 1.76 2.29l-.04.18-1.3 6.15H31v2H13.37a8.14 8.14 0 0 1-.74 0H1v-2h6.7a8 8 0 0 1 4-13.88L14.2 10h-3.58l-2.73 5.45-1.78-.9 3-6a1 1 0 0 1 .77-.54L10 8h6.42l-.07-.17c-.2-.5-.32-1.04-.34-1.6L16 6a5 5 0 0 1 5-5zm-8 16a6 6 0 0 0-.32 12h.64A6 6 0 0 0 13 17zm7.9 4.69A8.06 8.06 0 0 1 18.3 29h4.86l1.5-6.64h-.08zM21 3a3 3 0 0 0-2.03 5.2l-.9 1.92-.26-.11h-1.38l-2.48 5.05a7.99 7.99 0 0 1 5.18 2.8l1.99-4.33c.38-.85.11-1.49-.88-2.42l-.22-.2-.09-.04.88-1.88L21 9a3 3 0 1 0 0-6z"/></svg>