<?xml version="1.0" encoding="UTF-8"?>
<!DOCTYPE svg PUBLIC "-//W3C//DTD SVG 1.1//EN" "http://www.w3.org/Graphics/SVG/1.1/DTD/svg11.dtd">
<svg xmlns="http://www.w3.org/2000/svg" version="1.1" width="64px" height="64px" style="shape-rendering:geometricPrecision; text-rendering:geometricPrecision; image-rendering:optimizeQuality; fill-rule:evenodd; clip-rule:evenodd" xmlns:xlink="http://www.w3.org/1999/xlink">
<g><path style="opacity:0.721" fill="#000000" d="M 63.5,22.5 C 63.5,23.5 63.5,24.5 63.5,25.5C 59.0666,25.1733 54.7332,24.6733 50.5,24C 54.2287,31.9717 58.562,39.4717 63.5,46.5C 63.5,47.5 63.5,48.5 63.5,49.5C 62.4246,50.5624 61.4246,50.5624 60.5,49.5C 57.7547,43.675 54.7547,38.0084 51.5,32.5C 49.5,31.8333 47.5,31.1667 45.5,30.5C 46.7287,29.7189 48.062,29.2189 49.5,29C 47.4213,28.1923 45.4213,28.359 43.5,29.5C 48.7461,39.6605 54.2461,49.6605 60,59.5C 60.5791,60.9285 60.4124,62.2618 59.5,63.5C 58.8333,63.5 58.1667,63.5 57.5,63.5C 55.5383,58.2432 53.0383,53.2432 50,48.5C 49.5172,49.448 49.3505,50.448 49.5,51.5C 48.1667,51.5 46.8333,51.5 45.5,51.5C 45.5,52.5 45.5,53.5 45.5,54.5C 43.5328,54.7394 41.6995,54.4061 40,53.5C 39.5172,54.448 39.3505,55.448 39.5,56.5C 36.9512,56.6126 34.6179,55.9459 32.5,54.5C 31.5713,55.6888 31.238,57.0222 31.5,58.5C 28.6711,58.6751 27.0045,57.3418 26.5,54.5C 25.3887,55.6113 24.0554,56.278 22.5,56.5C 20.0983,54.951 17.4317,54.2843 14.5,54.5C 14.5,53.5 14.5,52.5 14.5,51.5C 13.1667,51.5 11.8333,51.5 10.5,51.5C 10.5,50.1667 10.5,48.8333 10.5,47.5C 9.5,47.5 8.5,47.5 7.5,47.5C 5.61544,31.2149 12.6154,24.3815 28.5,27C 32.1532,27.7733 35.6532,28.9399 39,30.5C 38.3353,26.8338 36.8353,23.5005 34.5,20.5C 33.6993,18.9582 33.366,17.2915 33.5,15.5C 37.5138,15.3345 41.5138,15.5012 45.5,16C 47.0412,17.5793 48.2078,19.4127 49,21.5C 50.9452,20.3078 52.9452,20.3078 55,21.5C 56.033,21.4519 56.3663,21.1186 56,20.5C 54.0616,17.8941 51.5616,16.0608 48.5,15C 35.2145,13.43 21.8811,13.0967 8.5,14C 4.90051,14.7636 2.90051,16.9302 2.5,20.5C 11.8571,20.1684 21.1904,20.5017 30.5,21.5C 20.1881,22.4986 9.85478,22.8319 -0.5,22.5C -0.5,20.5 -0.5,18.5 -0.5,16.5C 0.646381,14.525 2.31305,13.025 4.5,12C 19.5,11.3333 34.5,11.3333 49.5,12C 54.8705,14.534 59.5372,18.034 63.5,22.5 Z M 37.5,17.5 C 42.8686,17.528 46.2019,20.1947 47.5,25.5C 41.7248,26.4307 38.3914,23.764 37.5,17.5 Z M 16.5,29.5 C 25.776,28.8132 34.4426,30.8132 42.5,35.5C 43.9587,37.583 45.2921,39.7497 46.5,42C 40.359,43.8788 34.0256,45.0455 27.5,45.5C 21.8955,44.5456 16.2289,44.2123 10.5,44.5C 10.2362,38.5198 12.2362,33.5198 16.5,29.5 Z M 19.5,48.5 C 27.3989,47.2067 32.7322,47.2067 35.5,48.5C 35.6495,49.552 35.4828,50.552 35,51.5C 33.7488,48.1837 32.0821,47.8504 30,50.5C 27.9783,49.0091 26.3117,49.3424 25,51.5C 24.5172,50.552 24.3505,49.552 24.5,48.5C 22.8333,48.5 21.1667,48.5 19.5,48.5 Z"/></g>
<g><path style="opacity:1" fill="#000000" d="M 34.5,20.5 C 34.3605,22.337 33.6939,22.6704 32.5,21.5C 32.9569,20.7025 33.6236,20.3691 34.5,20.5 Z"/></g>
</svg>
