<?xml version="1.0" encoding="UTF-8"?>
<svg version="1.1" xmlns="http://www.w3.org/2000/svg" width="64" height="64">
<path d="M0 0 C3.465 1.485 3.465 1.485 7 3 C7 5.31 7 7.62 7 10 C7.66 10 8.32 10 9 10 C9 13.3 9 16.6 9 20 C9.66 20 10.32 20 11 20 C11.02892385 24.12498538 11.04677267 28.24994485 11.0625 32.375 C11.07087891 33.550625 11.07925781 34.72625 11.08789062 35.9375 C11.09272461 37.61972656 11.09272461 37.61972656 11.09765625 39.3359375 C11.10551147 40.89127197 11.10551147 40.89127197 11.11352539 42.47802734 C11 45 11 45 10 47 C6.37296974 48.20901009 2.75982637 48.78660475 -1 48 C-3.65212327 45.88858594 -4.8749839 44.73154584 -5.45410156 41.34277344 C-5.4331543 40.35825195 -5.41220703 39.37373047 -5.390625 38.359375 C-5.37773437 37.28945313 -5.36484375 36.21953125 -5.3515625 35.1171875 C-5.31804688 34.00601563 -5.28453125 32.89484375 -5.25 31.75 C-5.23195313 30.62335937 -5.21390625 29.49671875 -5.1953125 28.3359375 C-5.14820222 25.55643104 -5.08243361 22.7786466 -5 20 C-4.34 20 -3.68 20 -3 20 C-3 16.7 -3 13.4 -3 10 C-2.34 10 -1.68 10 -1 10 C-1.01160156 9.36191406 -1.02320313 8.72382813 -1.03515625 8.06640625 C-1.04869141 6.82697266 -1.04869141 6.82697266 -1.0625 5.5625 C-1.07410156 4.73878906 -1.08570313 3.91507813 -1.09765625 3.06640625 C-1 1 -1 1 0 0 Z M1 4 C1 5.98 1 7.96 1 10 C2.32 10 3.64 10 5 10 C5 8.35 5 6.7 5 5 C3.68 4.67 2.36 4.34 1 4 Z M-1 12 C-1 14.64 -1 17.28 -1 20 C1.64 20 4.28 20 7 20 C7 17.36 7 14.72 7 12 C4.36 12 1.72 12 -1 12 Z M1 22 C1 22.66 1 23.32 1 24 C3.64 24 6.28 24 9 24 C9 23.34 9 22.68 9 22 C6.36 22 3.72 22 1 22 Z M1 27 C0.67 31.95 0.34 36.9 0 42 C-0.66 42 -1.32 42 -2 42 C-2 42.99 -2 43.98 -2 45 C-0.35425434 45.02688151 1.29161413 45.04634123 2.9375 45.0625 C4.31228516 45.07990234 4.31228516 45.07990234 5.71484375 45.09765625 C7.96593327 45.25949049 7.96593327 45.25949049 9 44 C9.07325168 41.13732433 9.09238205 38.299281 9.0625 35.4375 C9.05798828 34.63119141 9.05347656 33.82488281 9.04882812 32.99414062 C9.03700518 30.99606244 9.01906914 28.99802217 9 27 C6.36 27 3.72 27 1 27 Z " fill="#FF0077" transform="translate(22,12)"/>
<path d="M0 0 C1.32 0.33 2.64 0.66 4 1 C5.79172099 7.07806891 6.28545662 11.03241883 4 17 C4.66 17.33 5.32 17.66 6 18 C6.0867562 22.29154022 6.1403089 26.58285668 6.1875 30.875 C6.21263672 32.09832031 6.23777344 33.32164063 6.26367188 34.58203125 C6.27333984 35.74863281 6.28300781 36.91523437 6.29296875 38.1171875 C6.31653442 39.73536377 6.31653442 39.73536377 6.34057617 41.38623047 C6.22818604 42.24877441 6.1157959 43.11131836 6 44 C3 46 3 46 -0.125 45.75 C-1.07375 45.5025 -2.0225 45.255 -3 45 C-4.30475618 42.39048764 -4.11301572 40.47298715 -4.09765625 37.5546875 C-4.09443359 36.47832031 -4.09121094 35.40195312 -4.08789062 34.29296875 C-4.07951172 33.16503906 -4.07113281 32.03710938 -4.0625 30.875 C-4.05798828 29.73933594 -4.05347656 28.60367188 -4.04882812 27.43359375 C-4.03701615 24.62234362 -4.02054507 21.8111977 -4 19 C-3.01 18.67 -2.02 18.34 -1 18 C-1.26296875 17.45472656 -1.5259375 16.90945312 -1.796875 16.34765625 C-3.28960654 12.7687712 -4.32948001 10.23973832 -3.30859375 6.3984375 C-2.3029614 4.19095185 -1.23749631 2.08550175 0 0 Z M-1 20 C-1 23.3 -1 26.6 -1 30 C1.672336 26.43688534 2.77263971 24.15414253 4 20 C2.35 20 0.7 20 -1 20 Z M3 32 C2.32591692 33.26691507 1.66099503 34.53870749 1 35.8125 C0.62875 36.52019531 0.2575 37.22789063 -0.125 37.95703125 C-1.19685358 40.08920729 -1.19685358 40.08920729 -1 43 C0.65 42.67 2.3 42.34 4 42 C4 38.7 4 35.4 4 32 C3.67 32 3.34 32 3 32 Z " fill="#FF0077" transform="translate(40,14)"/>
<path d="M0 0 C2.375 0.6875 2.375 0.6875 3.375 1.6875 C3.625 4.625 3.625 4.625 3.375 7.6875 C0.375 9.6875 0.375 9.6875 -2.25 9.375 C-4.625 8.6875 -4.625 8.6875 -5.625 7.6875 C-5.875 4.75 -5.875 4.75 -5.625 1.6875 C-2.625 -0.3125 -2.625 -0.3125 0 0 Z M-1.625 1.6875 C-2.285 3.0075 -2.945 4.3275 -3.625 5.6875 C-2.14 6.6775 -2.14 6.6775 -0.625 7.6875 C0.035 6.3675 0.695 5.0475 1.375 3.6875 C0.385 3.0275 -0.605 2.3675 -1.625 1.6875 Z " fill="#FF0077" transform="translate(54.625,11.3125)"/>
<path d="M0 0 C2.5625 -0.25 2.5625 -0.25 5 0 C6 1 6 1 6.125 3.5 C6 6 6 6 5 7 C3.33382885 7.04063832 1.66611905 7.042721 0 7 C-0.66 5.68 -1.32 4.36 -2 3 C-1.34 2.01 -0.68 1.02 0 0 Z M1 2 C1 2.99 1 3.98 1 5 C1.99 4.67 2.98 4.34 4 4 C3.67 3.34 3.34 2.68 3 2 C2.34 2 1.68 2 1 2 Z " fill="#FF0077" transform="translate(6,27)"/>
<path d="M0 0 C0.99 0.33 1.98 0.66 3 1 C3 1.66 3 2.32 3 3 C2.01 3 1.02 3 0 3 C0 2.01 0 1.02 0 0 Z " fill="#FF0077" transform="translate(7,6)"/>
<path d="M0 0 C0.99 0.33 1.98 0.66 3 1 C2.67 1.66 2.34 2.32 2 3 C1.34 3 0.68 3 0 3 C0 2.01 0 1.02 0 0 Z " fill="#FF0077" transform="translate(9,53)"/>
<path d="M0 0 C0.99 0 1.98 0 3 0 C2.67 0.99 2.34 1.98 2 3 C1.34 2.67 0.68 2.34 0 2 C0 1.34 0 0.68 0 0 Z " fill="#FF0077" transform="translate(5,39)"/>
<path d="M0 0 C0.99 0 1.98 0 3 0 C3 0.66 3 1.32 3 2 C2.01 2 1.02 2 0 2 C0 1.34 0 0.68 0 0 Z " fill="#FF0077" transform="translate(56,38)"/>
<path d="M0 0 C0.99 0 1.98 0 3 0 C3 0.66 3 1.32 3 2 C2.01 2 1.02 2 0 2 C0 1.34 0 0.68 0 0 Z " fill="#FF0077" transform="translate(48,24)"/>
<path d="M0 0 C0.66 0 1.32 0 2 0 C2 0.99 2 1.98 2 3 C1.34 3 0.68 3 0 3 C0 2.01 0 1.02 0 0 Z " fill="#FF0077" transform="translate(14,17)"/>
<path d="M0 0 C0.99 0 1.98 0 3 0 C3 0.66 3 1.32 3 2 C2.01 2 1.02 2 0 2 C0 1.34 0 0.68 0 0 Z " fill="#FF0077" transform="translate(33,11)"/>
<path d="M0 0 C0.66 0 1.32 0 2 0 C2 0.99 2 1.98 2 3 C1.34 3 0.68 3 0 3 C0 2.01 0 1.02 0 0 Z " fill="#FF0077" transform="translate(46,5)"/>
<path d="M0 0 C0.66 0 1.32 0 2 0 C2 0.66 2 1.32 2 2 C1.34 2 0.68 2 0 2 C0 1.34 0 0.68 0 0 Z " fill="#FF0077" transform="translate(48,48)"/>
</svg>
