<?xml version="1.0" encoding="UTF-8"?>
<!DOCTYPE svg PUBLIC "-//W3C//DTD SVG 1.1//EN" "http://www.w3.org/Graphics/SVG/1.1/DTD/svg11.dtd">
<svg xmlns="http://www.w3.org/2000/svg" version="1.1" width="64px" height="64px" style="shape-rendering:geometricPrecision; text-rendering:geometricPrecision; image-rendering:optimizeQuality; fill-rule:evenodd; clip-rule:evenodd" xmlns:xlink="http://www.w3.org/1999/xlink">
<g><path style="opacity:0.519" fill="#FF0077" d="M 23.5,1.5 C 40.1854,-0.810113 47.5187,6.18989 45.5,22.5C 54.1528,22.9997 57.9862,27.6664 57,36.5C 61.4228,44.323 59.2561,49.323 50.5,51.5C 50.7839,54.7766 50.4505,57.9433 49.5,61C 36.8377,61.4999 24.1711,61.6666 11.5,61.5C 10.6259,53.8483 10.4593,46.1816 11,38.5C 12.586,37.624 14.086,36.624 15.5,35.5C 13.6415,32.4102 13.3081,29.2435 14.5,26C 12.8659,25.5065 11.1992,25.3398 9.5,25.5C 9.5,26.5 9.5,27.5 9.5,28.5C 8.16667,28.5 6.83333,28.5 5.5,28.5C 5.5,27.1667 5.5,25.8333 5.5,24.5C 6.83333,24.5 8.16667,24.5 9.5,24.5C 8.83333,20.5 10.5,18.8333 14.5,19.5C 14.3343,15.1539 14.501,10.8206 15,6.5C 17.9334,4.92035 20.7667,3.25368 23.5,1.5 Z M 29.5,4.5 C 31.2884,3.37753 33.2884,3.21086 35.5,4C 34.5494,4.71752 34.3828,5.55085 35,6.5C 41.5702,10.5437 43.5702,16.2103 41,23.5C 40.3268,18.4805 38.6601,13.8139 36,9.5C 34.2228,7.21008 32.0562,5.54341 29.5,4.5 Z M 17.5,8.5 C 19.1661,6.17161 21.4995,5.17161 24.5,5.5C 25.8333,5.66667 27.1667,5.83333 28.5,6C 28.9574,6.41395 29.2907,6.91395 29.5,7.5C 25.544,7.3327 21.544,7.66604 17.5,8.5 Z M 31.5,8.5 C 36.1819,13.1977 38.6819,18.8644 39,25.5C 38.3333,24.1667 37.6667,24.1667 37,25.5C 35.1531,20.3056 32.6531,15.4722 29.5,11C 30.3805,10.2917 31.0472,9.45837 31.5,8.5 Z M 31.5,19.5 C 29.5351,18.871 27.5351,18.2043 25.5,17.5C 24.5,17.8333 23.5,18.1667 22.5,18.5C 23.7287,19.2811 25.062,19.7811 26.5,20C 25.2412,20.9234 23.9079,21.7568 22.5,22.5C 23.1667,23.1667 23.8333,23.8333 24.5,24.5C 23.1931,25.865 23.1931,27.1984 24.5,28.5C 22.396,28.7989 20.396,28.4656 18.5,27.5C 17.3192,25.802 17.3192,24.1353 18.5,22.5C 19.4519,24.0453 19.7852,25.712 19.5,27.5C 20.675,27.719 21.675,27.3857 22.5,26.5C 21.8108,24.556 21.3108,22.556 21,20.5C 19.512,21.1958 18.012,20.8625 16.5,19.5C 21.8014,19.2939 21.8014,17.9606 16.5,15.5C 18.0349,10.9032 21.0349,9.23655 25.5,10.5C 26.7782,14.043 28.7782,17.043 31.5,19.5 Z M 11.5,21.5 C 12.2891,21.7828 12.9558,22.2828 13.5,23C 12.184,23.5281 11.5173,23.0281 11.5,21.5 Z M 45.5,29.5 C 47.7942,28.7879 49.7942,29.6213 51.5,32C 50.5,32.6667 49.5,32.6667 48.5,32C 47.6266,30.955 46.6266,30.1217 45.5,29.5 Z M 21.5,30.5 C 22.9221,30.7496 23.9221,31.583 24.5,33C 22.5106,33.5192 21.5106,32.6859 21.5,30.5 Z M 32.5,30.5 C 34.8444,30.5062 36.1777,31.6729 36.5,34C 35.6681,36.4783 35.5014,38.9783 36,41.5C 37.8742,47.624 40.0409,53.624 42.5,59.5C 45.1303,52.6259 45.1303,45.7925 42.5,39C 46.9778,38.8994 49.3111,41.0661 49.5,45.5C 48.9341,50.1594 48.4341,54.8261 48,59.5C 43.9341,60.4637 39.7675,60.797 35.5,60.5C 34.7771,54.4944 33.9438,48.4944 33,42.5C 32.4217,39.0967 31.2551,35.9301 29.5,33C 30.9423,32.6232 31.9423,31.7899 32.5,30.5 Z M 38.5,30.5 C 39.9473,31.6222 40.9473,33.1222 41.5,35C 40.552,35.4828 39.552,35.6495 38.5,35.5C 38.5,33.8333 38.5,32.1667 38.5,30.5 Z M 16.5,33.5 C 17.2506,32.4265 18.2506,32.2599 19.5,33C 20.5505,34.3848 21.8839,35.3848 23.5,36C 22.8841,37.4002 22.5507,38.9002 22.5,40.5C 23.3153,47.2077 24.3153,53.8744 25.5,60.5C 21.5633,60.7935 17.73,60.4601 14,59.5C 12.5755,53.2241 12.2422,46.8907 13,40.5C 14.0793,38.6063 15.4126,38.273 17,39.5C 17.6888,45.1905 17.5222,50.8571 16.5,56.5C 16.8333,57.5 17.1667,58.5 17.5,59.5C 19.4505,52.6294 19.9505,45.6294 19,38.5C 18.6264,36.5087 17.793,34.842 16.5,33.5 Z M 27.5,34.5 C 29.6013,37.7966 30.9347,41.4632 31.5,45.5C 25.4979,46.1956 23.1645,43.5289 24.5,37.5C 25.5,37.5 26.5,37.5 27.5,37.5C 27.5,36.5 27.5,35.5 27.5,34.5 Z M 46.5,36.5 C 45.2438,36.5386 44.2438,36.0386 43.5,35C 44.9976,34.4153 45.9976,34.9153 46.5,36.5 Z M 39.5,37.5 C 41.5064,41.8648 42.3397,46.5315 42,51.5C 39.8964,47.0783 39.0631,42.4116 39.5,37.5 Z M 54.5,40.5 C 56.4959,39.3122 57.3293,39.9789 57,42.5C 56.2917,41.6195 55.4584,40.9528 54.5,40.5 Z M 25.5,47.5 C 27.604,47.2011 29.604,47.5344 31.5,48.5C 32.4451,52.448 33.1118,56.448 33.5,60.5C 31.5,60.5 29.5,60.5 27.5,60.5C 26.8333,56.1667 26.1667,51.8333 25.5,47.5 Z"/></g>
<g><path style="opacity:0.433" fill="#FF0077" d="M 8.5,14.5 C 11.8606,15.2032 12.1939,16.5365 9.5,18.5C 7.35765,17.5629 7.02431,16.2296 8.5,14.5 Z"/></g>
</svg>
