<?xml version="1.0" encoding="UTF-8"?>
<svg version="1.1" xmlns="http://www.w3.org/2000/svg" width="50" height="50">
<path d="M0 0 C1.2219104 0.00607269 1.2219104 0.00607269 2.46850586 0.01226807 C3.30438232 0.01035461 4.14025879 0.00844116 5.00146484 0.00646973 C6.77010397 0.00510771 8.53875309 0.0088053 10.30737305 0.01715088 C13.02016579 0.02785031 15.7322963 0.01725631 18.44506836 0.00445557 C20.16121566 0.00577716 21.87736255 0.00833955 23.59350586 0.01226807 C24.40811279 0.0082196 25.22271973 0.00417114 26.06201172 0 C31.80108658 0.04797379 31.80108658 0.04797379 34.03100586 2.27789307 C34.23090813 5.12329449 34.31077562 7.8692709 34.29663086 10.71539307 C34.29950104 11.96920776 34.29950104 11.96920776 34.3024292 13.24835205 C34.30379121 15.01699118 34.30009362 16.78564029 34.29174805 18.55426025 C34.28104861 21.267053 34.29164262 23.9791835 34.30444336 26.69195557 C34.30312177 28.40810287 34.30055938 30.12424975 34.29663086 31.84039307 C34.30067932 32.655 34.30472778 33.46960693 34.30889893 34.30889893 C34.26092514 40.04797379 34.26092514 40.04797379 32.03100586 42.27789307 C29.18560444 42.47779534 26.43962802 42.55766282 23.59350586 42.54351807 C22.75762939 42.54543152 21.92175293 42.54734497 21.06054688 42.54931641 C19.29190775 42.55067842 17.52325863 42.54698083 15.75463867 42.53863525 C13.04184592 42.52793582 10.32971542 42.53852983 7.61694336 42.55133057 C5.90079606 42.55000897 4.18464917 42.54744659 2.46850586 42.54351807 C1.65389893 42.54756653 0.83929199 42.55161499 0 42.55578613 C-5.73907486 42.50781235 -5.73907486 42.50781235 -7.96899414 40.27789307 C-8.16889641 37.43249164 -8.2487639 34.68651523 -8.23461914 31.84039307 C-8.23653259 31.0045166 -8.23844604 30.16864014 -8.24041748 29.30743408 C-8.2417795 27.53879496 -8.2380819 25.77014584 -8.22973633 24.00152588 C-8.21903689 21.28873313 -8.2296309 18.57660263 -8.24243164 15.86383057 C-8.24111005 14.14768327 -8.23854766 12.43153638 -8.23461914 10.71539307 C-8.2386676 9.90078613 -8.24271606 9.0861792 -8.24688721 8.24688721 C-8.18797962 1.19980856 -7.04707865 0.05890759 0 0 Z M1.03100586 7.27789307 C0.37100586 7.93789307 -0.28899414 8.59789307 -0.96899414 9.27789307 C-0.63899414 10.26789307 -0.30899414 11.25789307 0.03100586 12.27789307 C1.35100586 10.62789307 2.67100586 8.97789307 4.03100586 7.27789307 C3.04100586 7.27789307 2.05100586 7.27789307 1.03100586 7.27789307 Z M16.03100586 9.27789307 C15.69767253 12.77789307 15.69767253 12.77789307 16.03100586 16.27789307 C17.91038758 18.57616619 17.91038758 18.57616619 20.96850586 18.59039307 C23.95360633 18.50486882 23.95360633 18.50486882 25.90600586 17.15289307 C27.5363188 14.43570483 27.36116251 12.38136561 27.03100586 9.27789307 C25.08768254 6.89794939 25.08768254 6.89794939 21.53100586 7.02789307 C17.97432918 6.89794939 17.97432918 6.89794939 16.03100586 9.27789307 Z M5.30444336 9.73883057 C4.3647168 10.6862915 4.3647168 10.6862915 3.40600586 11.65289307 C2.77436523 12.27937744 2.14272461 12.90586182 1.49194336 13.55133057 C-0.18430822 15.1554026 -0.18430822 15.1554026 0.03100586 17.27789307 C3.85037114 15.72185536 6.29145024 13.32184375 9.03100586 10.27789307 C9.03100586 9.61789307 9.03100586 8.95789307 9.03100586 8.27789307 C6.90851539 8.06257899 6.90851539 8.06257899 5.30444336 9.73883057 Z M9.03100586 13.27789307 C7.67272615 14.92429271 6.33846335 16.59085114 5.03100586 18.27789307 C6.35100586 17.94789307 7.67100586 17.61789307 9.03100586 17.27789307 C9.36100586 15.95789307 9.69100586 14.63789307 10.03100586 13.27789307 C9.70100586 13.27789307 9.37100586 13.27789307 9.03100586 13.27789307 Z M-0.96899414 26.27789307 C-1.30232747 29.77789307 -1.30232747 29.77789307 -0.96899414 33.27789307 C0.91038758 35.57616619 0.91038758 35.57616619 3.96850586 35.59039307 C6.95360633 35.50486882 6.95360633 35.50486882 8.90600586 34.15289307 C10.5363188 31.43570483 10.36116251 29.38136561 10.03100586 26.27789307 C8.08768254 23.89794939 8.08768254 23.89794939 4.53100586 24.02789307 C0.97432918 23.89794939 0.97432918 23.89794939 -0.96899414 26.27789307 Z M18.03100586 24.27789307 C17.37100586 24.93789307 16.71100586 25.59789307 16.03100586 26.27789307 C16.36100586 27.26789307 16.69100586 28.25789307 17.03100586 29.27789307 C18.35100586 27.62789307 19.67100586 25.97789307 21.03100586 24.27789307 C20.04100586 24.27789307 19.05100586 24.27789307 18.03100586 24.27789307 Z M22.30444336 26.73883057 C21.3647168 27.6862915 21.3647168 27.6862915 20.40600586 28.65289307 C19.77436523 29.27937744 19.14272461 29.90586182 18.49194336 30.55133057 C16.81569178 32.1554026 16.81569178 32.1554026 17.03100586 34.27789307 C20.85037114 32.72185536 23.29145024 30.32184375 26.03100586 27.27789307 C26.03100586 26.61789307 26.03100586 25.95789307 26.03100586 25.27789307 C23.90851539 25.06257899 23.90851539 25.06257899 22.30444336 26.73883057 Z M26.03100586 30.27789307 C24.67272615 31.92429271 23.33846335 33.59085114 22.03100586 35.27789307 C23.35100586 34.94789307 24.67100586 34.61789307 26.03100586 34.27789307 C26.36100586 32.95789307 26.69100586 31.63789307 27.03100586 30.27789307 C26.70100586 30.27789307 26.37100586 30.27789307 26.03100586 30.27789307 Z " fill="#000000" transform="translate(11.968994140625,3.72210693359375)"/>
</svg>
