<?xml version="1.0" encoding="UTF-8"?>
<!DOCTYPE svg PUBLIC "-//W3C//DTD SVG 1.1//EN" "http://www.w3.org/Graphics/SVG/1.1/DTD/svg11.dtd">
<svg xmlns="http://www.w3.org/2000/svg" version="1.1" width="80px" height="80px" style="shape-rendering:geometricPrecision; text-rendering:geometricPrecision; image-rendering:optimizeQuality; fill-rule:evenodd; clip-rule:evenodd" xmlns:xlink="http://www.w3.org/1999/xlink">
<g><path style="opacity:0.645" fill="#000000" d="M 32.5,6.5 C 39.799,5.48862 46.4657,6.98862 52.5,11C 54.7744,13.3443 55.9411,16.1776 56,19.5C 62.7734,25.9156 64.2734,33.4156 60.5,42C 62.4782,44.4973 62.9782,47.3307 62,50.5C 59.8112,52.5367 58.3112,55.0367 57.5,58C 58.5174,60.7866 58.6841,63.62 58,66.5C 55.8807,67.6508 54.0473,69.1508 52.5,71C 47.7376,71.3449 43.071,72.1782 38.5,73.5C 34.1984,72.508 29.8651,71.6747 25.5,71C 24.3333,68.5 22.5,66.6667 20,65.5C 20.4156,59.9553 18.7489,55.2887 15,51.5C 13.1628,48.2697 13.3295,45.2697 15.5,42.5C 13.5828,36.9551 14.4161,31.9551 18,27.5C 18.4222,17.2855 23.2556,10.2855 32.5,6.5 Z M 47.5,29.5 C 36.2905,29.1813 26.7905,33.1813 19,41.5C 16.1281,35.5467 17.4614,30.88 23,27.5C 21.5034,19.2065 25.0034,13.3731 33.5,10C 38.184,8.8978 42.5174,9.56447 46.5,12C 45.269,13.1827 45.269,14.3493 46.5,15.5C 48.0511,11.8101 49.8845,11.8101 52,15.5C 52.4974,18.146 52.6641,20.8127 52.5,23.5C 56.224,23.0502 58.3907,24.7168 59,28.5C 59.7599,32.2255 59.5932,35.8922 58.5,39.5C 57.9984,40.521 57.3317,40.6877 56.5,40C 53.3647,36.5994 49.698,33.9327 45.5,32C 46.3805,31.2917 47.0472,30.4584 47.5,29.5 Z M 37.5,33.5 C 45.1475,34.6489 51.1475,38.3156 55.5,44.5C 56.6888,45.4287 58.0222,45.762 59.5,45.5C 59.7135,47.1439 59.3802,48.6439 58.5,50C 55.6229,51.1268 52.6229,51.7935 49.5,52C 48,54.1667 46.1667,56 44,57.5C 43.5012,61.4862 43.3345,65.4862 43.5,69.5C 40.8004,70.516 38.1337,70.516 35.5,69.5C 34.6725,65.2044 34.1725,60.8711 34,56.5C 32.6152,55.4495 31.6152,54.1161 31,52.5C 26.3613,50.3181 23.3613,51.6514 22,56.5C 20.9804,52.5052 19.147,49.0052 16.5,46C 17.8333,45.6667 19.1667,45.3333 20.5,45C 24.8547,39.1611 30.5213,35.3277 37.5,33.5 Z M 26.5,54.5 C 28.6237,55.0312 30.1237,56.3645 31,58.5C 30.6096,61.7313 30.7762,65.0646 31.5,68.5C 28.0504,69.2436 26.3838,67.9103 26.5,64.5C 22.65,64.2993 21.65,62.4659 23.5,59C 24.448,58.5172 25.448,58.3505 26.5,58.5C 26.5,57.1667 26.5,55.8333 26.5,54.5 Z M 50.5,54.5 C 54.1579,54.3241 55.1579,55.8241 53.5,59C 55.0028,60.9214 55.6695,63.088 55.5,65.5C 52.6819,66.9697 49.6819,67.9697 46.5,68.5C 46.3354,65.4816 46.502,62.4816 47,59.5C 48.0113,58.6634 49.1779,58.33 50.5,58.5C 50.5,57.1667 50.5,55.8333 50.5,54.5 Z"/></g>
<g><path style="opacity:0.459" fill="#000000" d="M 42.5,18.5 C 42.9483,16.5354 43.9483,16.2021 45.5,17.5C 44.675,18.3857 43.675,18.719 42.5,18.5 Z"/></g>
<g><path style="opacity:0.458" fill="#000000" d="M 42.5,18.5 C 42.0517,20.4646 41.0517,20.7979 39.5,19.5C 40.325,18.6143 41.325,18.281 42.5,18.5 Z"/></g>
<g><path style="opacity:0.344" fill="#000000" d="M 35.5,19.5 C 38.9571,19.6672 39.2904,20.6672 36.5,22.5C 35.6143,21.675 35.281,20.675 35.5,19.5 Z"/></g>
<g><path style="opacity:0.305" fill="#000000" d="M 31.5,20.5 C 32.5,20.5 33.5,20.5 34.5,20.5C 34.5,21.5 34.5,22.5 34.5,23.5C 33.5,23.5 32.5,23.5 31.5,23.5C 31.5,22.5 31.5,21.5 31.5,20.5 Z"/></g>
<g><path style="opacity:0.344" fill="#000000" d="M 28.5,21.5 C 30.0481,21.8212 30.7148,22.8212 30.5,24.5C 27.7524,24.5983 27.0857,23.5983 28.5,21.5 Z"/></g>
<g><path style="opacity:0.55" fill="#000000" d="M 24.5,23.5 C 26.9732,23.9473 27.1399,24.9473 25,26.5C 24.5172,25.552 24.3505,24.552 24.5,23.5 Z"/></g>
<g><path style="opacity:0.393" fill="#000000" d="M 50.5,24.5 C 53.5476,24.494 54.0476,25.494 52,27.5C 50.9614,26.7562 50.4614,25.7562 50.5,24.5 Z"/></g>
<g><path style="opacity:0.392" fill="#000000" d="M 47.5,29.5 C 47.9522,26.3259 48.9522,25.9925 50.5,28.5C 49.675,29.3857 48.675,29.719 47.5,29.5 Z"/></g>
<g><path style="opacity:0.766" fill="#000000" d="M 26.5,44.5 C 27.8333,44.5 29.1667,44.5 30.5,44.5C 30.5,45.8333 30.5,47.1667 30.5,48.5C 29.1667,48.5 27.8333,48.5 26.5,48.5C 26.5,47.1667 26.5,45.8333 26.5,44.5 Z"/></g>
<g><path style="opacity:0.766" fill="#000000" d="M 46.5,44.5 C 47.8333,44.5 49.1667,44.5 50.5,44.5C 50.5,45.8333 50.5,47.1667 50.5,48.5C 49.1667,48.5 47.8333,48.5 46.5,48.5C 46.5,47.1667 46.5,45.8333 46.5,44.5 Z"/></g>
<g><path style="opacity:0.672" fill="#000000" d="M 64.5,50.5 C 71.1584,49.3445 73.1584,51.8445 70.5,58C 63.7496,59.4689 61.7496,56.9689 64.5,50.5 Z M 66.5,53.5 C 68.337,53.6395 68.6704,54.3061 67.5,55.5C 66.7025,55.0431 66.3691,54.3764 66.5,53.5 Z"/></g>
<g><path style="opacity:0.766" fill="#000000" d="M 9.5,52.5 C 10.5,52.5 11.5,52.5 12.5,52.5C 12.5,53.5 12.5,54.5 12.5,55.5C 11.5,55.5 10.5,55.5 9.5,55.5C 9.5,54.5 9.5,53.5 9.5,52.5 Z"/></g>
<g><path style="opacity:0.672" fill="#000000" d="M 5.5,61.5 C 12.1584,60.3445 14.1584,62.8445 11.5,69C 4.74962,70.4689 2.74962,67.9689 5.5,61.5 Z M 7.5,64.5 C 9.33702,64.6395 9.67036,65.3061 8.5,66.5C 7.70245,66.0431 7.36912,65.3764 7.5,64.5 Z"/></g>
<g><path style="opacity:0.766" fill="#000000" d="M 68.5,66.5 C 69.5,66.5 70.5,66.5 71.5,66.5C 71.5,67.5 71.5,68.5 71.5,69.5C 70.5,69.5 69.5,69.5 68.5,69.5C 68.5,68.5 68.5,67.5 68.5,66.5 Z"/></g>
</svg>
