<?xml version="1.0" encoding="UTF-8"?>
<svg version="1.1" xmlns="http://www.w3.org/2000/svg" width="80" height="80">
<path d="M0 0 C1.08809212 0.00636726 1.08809212 0.00636726 2.19816589 0.01286316 C4.50098766 0.02957332 6.80291428 0.06720915 9.10546875 0.10546875 C10.67251335 0.12052559 12.23957175 0.13421225 13.80664062 0.14648438 C17.63575832 0.17945144 21.46421209 0.23117883 25.29296875 0.29296875 C25.29296875 0.95296875 25.29296875 1.61296875 25.29296875 2.29296875 C26.35837891 2.60041016 26.35837891 2.60041016 27.4453125 2.9140625 C28.36441406 3.18347656 29.28351562 3.45289063 30.23046875 3.73046875 C31.14699219 3.99730469 32.06351563 4.26414062 33.0078125 4.5390625 C35.29296875 5.29296875 35.29296875 5.29296875 36.29296875 6.29296875 C36.37928749 7.63564288 36.40003348 8.98271197 36.390625 10.328125 C36.38740234 11.13701172 36.38417969 11.94589844 36.38085938 12.77929688 C36.36829102 14.05450195 36.36829102 14.05450195 36.35546875 15.35546875 C36.35095703 16.20947266 36.34644531 17.06347656 36.34179688 17.94335938 C36.32997248 20.05992538 36.31203644 22.1764556 36.29296875 24.29296875 C34.83671425 24.96416424 33.37789008 25.62978682 31.91796875 26.29296875 C31.10585938 26.66421875 30.29375 27.03546875 29.45703125 27.41796875 C27.29296875 28.29296875 27.29296875 28.29296875 25.29296875 28.29296875 C25.29296875 28.95296875 25.29296875 29.61296875 25.29296875 30.29296875 C22.32296875 30.29296875 19.35296875 30.29296875 16.29296875 30.29296875 C16.29296875 33.59296875 16.29296875 36.89296875 16.29296875 40.29296875 C14.31296875 40.29296875 12.33296875 40.29296875 10.29296875 40.29296875 C10.34517578 41.54013672 10.34517578 41.54013672 10.3984375 42.8125 C10.42550781 43.89917969 10.45257813 44.98585937 10.48046875 46.10546875 C10.53267578 47.72388672 10.53267578 47.72388672 10.5859375 49.375 C10.29296875 52.29296875 10.29296875 52.29296875 9 54.15625 C6.13509193 56.06400343 3.61552727 55.64895716 0.29296875 55.29296875 C-1.4074707 54.08862305 -1.4074707 54.08862305 -2.70703125 52.29296875 C-3.04760742 49.93286133 -3.04760742 49.93286133 -3 47.1875 C-2.99033203 46.20458984 -2.98066406 45.22167969 -2.97070312 44.20898438 C-2.94556641 43.18482422 -2.92042969 42.16066406 -2.89453125 41.10546875 C-2.87422852 39.55182617 -2.87422852 39.55182617 -2.85351562 37.96679688 C-2.81814514 35.40833176 -2.76878669 32.85091095 -2.70703125 30.29296875 C-3.80402344 30.17695312 -4.90101562 30.0609375 -6.03125 29.94140625 C-10.50847544 29.15158752 -11.84264758 27.73022915 -14.70703125 24.29296875 C-17.82570658 19.61495576 -17.29380048 14.76948153 -16.70703125 9.29296875 C-13.10086037 1.67994134 -8.05903945 -0.17928152 0 0 Z M-12.70703125 9.29296875 C-13.03703125 9.62296875 -13.36703125 9.95296875 -13.70703125 10.29296875 C-14.2544387 15.13887075 -14.45314981 19.05801389 -11.89453125 23.29296875 C-7.89490564 26.94976931 -5.02122445 27.69136197 0.29296875 28.29296875 C-0.03703125 28.95296875 -0.36703125 29.61296875 -0.70703125 30.29296875 C-0.83197164 33.26248224 -0.89220756 36.1982927 -0.89453125 39.16796875 C-0.90677734 39.98394531 -0.91902344 40.79992188 -0.93164062 41.640625 C-0.93357422 42.43082031 -0.93550781 43.22101562 -0.9375 44.03515625 C-0.94366333 45.11579346 -0.94366333 45.11579346 -0.94995117 46.21826172 C-0.67139247 48.59734896 0.11643993 50.2231873 1.29296875 52.29296875 C2.94296875 52.29296875 4.59296875 52.29296875 6.29296875 52.29296875 C9.27085321 47.80212686 8.71287617 42.50418819 8.859375 37.31640625 C9.09186398 31.49407352 9.09186398 31.49407352 11.29296875 29.29296875 C13.89453125 28.87890625 13.89453125 28.87890625 16.91796875 28.66796875 C17.92085937 28.59320313 18.92375 28.5184375 19.95703125 28.44140625 C21.11332031 28.36792969 21.11332031 28.36792969 22.29296875 28.29296875 C22.78796875 26.80796875 22.78796875 26.80796875 23.29296875 25.29296875 C25.54296875 24.37890625 25.54296875 24.37890625 28.29296875 23.66796875 C31.57735882 23.00585275 31.57735882 23.00585275 34.29296875 21.29296875 C34.36540928 19.27332676 34.37674063 17.25129751 34.35546875 15.23046875 C34.34644531 14.12574219 34.33742187 13.02101563 34.328125 11.8828125 C34.31652344 11.02816406 34.30492187 10.17351563 34.29296875 9.29296875 C32.83671425 8.62177326 31.37789008 7.95615068 29.91796875 7.29296875 C29.10585938 6.92171875 28.29375 6.55046875 27.45703125 6.16796875 C25.37298442 5.16801862 25.37298442 5.16801862 23.29296875 5.29296875 C22.79796875 3.80796875 22.79796875 3.80796875 22.29296875 2.29296875 C18.41803259 2.2346248 14.54321039 2.19925674 10.66796875 2.16796875 C9.57355469 2.15121094 8.47914062 2.13445313 7.3515625 2.1171875 C-1.37661843 2.06428943 -6.63843364 2.53081713 -12.70703125 9.29296875 Z M11.29296875 32.29296875 C10.63524447 35.32231366 10.63524447 35.32231366 10.29296875 38.29296875 C11.61296875 37.96296875 12.93296875 37.63296875 14.29296875 37.29296875 C14.29296875 35.31296875 14.29296875 33.33296875 14.29296875 31.29296875 C13.06936195 31.21843315 13.06936195 31.21843315 11.29296875 32.29296875 Z " fill="#FF0077" transform="translate(24.70703125,13.70703125)"/>
<path d="M0 0 C3.3 0 6.6 0 10 0 C10.33 0.99 10.66 1.98 11 3 C7.04 3 3.08 3 -1 3 C-0.67 2.01 -0.34 1.02 0 0 Z " fill="#FF0077" transform="translate(64,32)"/>
<path d="M0 0 C3.3 0 6.6 0 10 0 C10.33 0.99 10.66 1.98 11 3 C7.04 3 3.08 3 -1 3 C-0.67 2.01 -0.34 1.02 0 0 Z " fill="#FF0077" transform="translate(64,27)"/>
<path d="M0 0 C3.3 0 6.6 0 10 0 C10.33 0.99 10.66 1.98 11 3 C7.04 3 3.08 3 -1 3 C-0.67 2.01 -0.34 1.02 0 0 Z " fill="#FF0077" transform="translate(64,22)"/>
<path d="M0 0 C0.66 0 1.32 0 2 0 C2 0.66 2 1.32 2 2 C1.34 2 0.68 2 0 2 C0 1.34 0 0.68 0 0 Z " fill="#FF0077" transform="translate(31,42)"/>
<path d="M0 0 C0.66 0 1.32 0 2 0 C2 0.66 2 1.32 2 2 C1.34 2 0.68 2 0 2 C0 1.34 0 0.68 0 0 Z " fill="#FF0077" transform="translate(27,42)"/>
<path d="M0 0 C0.66 0 1.32 0 2 0 C2 0.66 2 1.32 2 2 C1.34 2 0.68 2 0 2 C0 1.34 0 0.68 0 0 Z " fill="#FF0077" transform="translate(48,36)"/>
<path d="M0 0 C0.66 0 1.32 0 2 0 C2 0.66 2 1.32 2 2 C1.34 2 0.68 2 0 2 C0 1.34 0 0.68 0 0 Z " fill="#FF0077" transform="translate(17,35)"/>
<path d="M0 0 C0.66 0 1.32 0 2 0 C2 0.66 2 1.32 2 2 C1.34 2 0.68 2 0 2 C0 1.34 0 0.68 0 0 Z " fill="#FF0077" transform="translate(48,32)"/>
<path d="M0 0 C0.66 0 1.32 0 2 0 C2 0.66 2 1.32 2 2 C1.34 2 0.68 2 0 2 C0 1.34 0 0.68 0 0 Z " fill="#FF0077" transform="translate(13,32)"/>
<path d="M0 0 C0.66 0 1.32 0 2 0 C2 0.66 2 1.32 2 2 C1.34 2 0.68 2 0 2 C0 1.34 0 0.68 0 0 Z " fill="#FF0077" transform="translate(17,30)"/>
<path d="M0 0 C0.66 0 1.32 0 2 0 C2 0.66 2 1.32 2 2 C1.34 2 0.68 2 0 2 C0 1.34 0 0.68 0 0 Z " fill="#FF0077" transform="translate(48,28)"/>
<path d="M0 0 C0.66 0 1.32 0 2 0 C2 0.66 2 1.32 2 2 C1.34 2 0.68 2 0 2 C0 1.34 0 0.68 0 0 Z " fill="#FF0077" transform="translate(13,28)"/>
<path d="M0 0 C0.66 0 1.32 0 2 0 C2 0.66 2 1.32 2 2 C1.34 2 0.68 2 0 2 C0 1.34 0 0.68 0 0 Z " fill="#FF0077" transform="translate(17,26)"/>
<path d="M0 0 C0.66 0 1.32 0 2 0 C2 0.66 2 1.32 2 2 C1.34 2 0.68 2 0 2 C0 1.34 0 0.68 0 0 Z " fill="#FF0077" transform="translate(48,24)"/>
<path d="M0 0 C0.66 0 1.32 0 2 0 C2 0.66 2 1.32 2 2 C1.34 2 0.68 2 0 2 C0 1.34 0 0.68 0 0 Z " fill="#FF0077" transform="translate(13,24)"/>
<path d="M0 0 C0.66 0 1.32 0 2 0 C2 0.66 2 1.32 2 2 C1.34 2 0.68 2 0 2 C0 1.34 0 0.68 0 0 Z " fill="#FF0077" transform="translate(17,21)"/>
<path d="M0 0 C0.66 0 1.32 0 2 0 C2 0.66 2 1.32 2 2 C1.34 2 0.68 2 0 2 C0 1.34 0 0.68 0 0 Z " fill="#FF0077" transform="translate(48,20)"/>
</svg>
