<?xml version="1.0" encoding="UTF-8"?>
<!DOCTYPE svg PUBLIC "-//W3C//DTD SVG 1.1//EN" "http://www.w3.org/Graphics/SVG/1.1/DTD/svg11.dtd">
<svg xmlns="http://www.w3.org/2000/svg" version="1.1" width="64px" height="64px" style="shape-rendering:geometricPrecision; text-rendering:geometricPrecision; image-rendering:optimizeQuality; fill-rule:evenodd; clip-rule:evenodd" xmlns:xlink="http://www.w3.org/1999/xlink">
<g><path style="opacity:0.623" fill="#000000" d="M 22.5,30.5 C 19.1133,30.2835 17.1133,28.4502 16.5,25C 17.8677,23.1266 19.5343,21.46 21.5,20C 19.4372,17.4894 17.9372,14.656 17,11.5C 13.9005,9.17646 10.4005,7.67646 6.5,7C 5.26899,5.81732 5.26899,4.65066 6.5,3.5C 10.1138,4.82036 13.7805,5.98703 17.5,7C 19.9378,9.29492 21.4378,12.1283 22,15.5C 27.483,22.9882 34.6497,25.4882 43.5,23C 44.0219,23.5613 44.3552,24.228 44.5,25C 43.7963,28.1275 43.2963,31.2942 43,34.5C 41.4905,35.0897 39.9905,35.7564 38.5,36.5C 43.7135,44.1049 50.7135,49.2715 59.5,52C 60.4231,54.0408 60.7564,56.2075 60.5,58.5C 54.7496,59.4248 49.0829,58.7581 43.5,56.5C 35.1595,59.9107 30.4929,57.2441 29.5,48.5C 22.5447,44.0423 16.3781,38.709 11,32.5C 10.1034,29.7076 8.93671,27.0409 7.5,24.5C 6.26381,23.7542 4.93047,23.4208 3.5,23.5C 3.5,22.5 3.5,21.5 3.5,20.5C 5.65472,20.372 7.65472,20.872 9.5,22C 13.3566,31.858 20.0232,39.1913 29.5,44C 32.348,46.5288 34.0147,49.6955 34.5,53.5C 37.2973,54.5672 40.1307,54.5672 43,53.5C 47.0727,54.3515 51.0727,55.3515 55,56.5C 55.7504,55.8742 56.5838,55.3742 57.5,55C 47.7397,51.0924 39.7397,44.7591 33.5,36C 29.0422,35.1389 28.7088,33.9722 32.5,32.5C 38.4742,34.8494 41.1409,32.8494 40.5,26.5C 34.395,27.349 28.895,26.0157 24,22.5C 22.9264,23.6184 21.7598,24.6184 20.5,25.5C 21.9501,26.8498 22.6168,28.5165 22.5,30.5 Z"/></g>
<g><path style="opacity:0.541" fill="#000000" d="M 2.5,29.5 C 9.16667,30.5 9.16667,31.5 2.5,32.5C 2.5,31.5 2.5,30.5 2.5,29.5 Z"/></g>
<g><path style="opacity:0.517" fill="#000000" d="M 22.5,30.5 C 24.9583,29.3799 26.9583,30.0465 28.5,32.5C 25.7892,33.9886 23.7892,33.3219 22.5,30.5 Z"/></g>
<g><path style="opacity:0.468" fill="#000000" d="M 5.5,33.5 C 6.5,33.5 7.5,33.5 8.5,33.5C 8.54986,35.5901 7.54986,36.9234 5.5,37.5C 2.87528,36.1353 2.87528,34.802 5.5,33.5 Z"/></g>
<g><path style="opacity:0.503" fill="#000000" d="M 9.5,41.5 C 8.5,41.5 7.5,41.5 6.5,41.5C 6.16667,38.5 7.5,37.1667 10.5,37.5C 10.5674,38.9587 10.2341,40.2921 9.5,41.5 Z"/></g>
<g><path style="opacity:0.471" fill="#000000" d="M 9.5,41.5 C 14.4529,40.8146 14.7862,42.1479 10.5,45.5C 9.57131,44.3112 9.23798,42.9778 9.5,41.5 Z"/></g>
<g><path style="opacity:0.441" fill="#000000" d="M 14.5,43.5 C 16.3442,44.2039 16.8442,45.5372 16,47.5C 14.9887,48.3366 13.8221,48.67 12.5,48.5C 12.3915,46.4862 13.0582,44.8195 14.5,43.5 Z"/></g>
<g><path style="opacity:0.502" fill="#000000" d="M 17.5,46.5 C 18.5,46.5 19.5,46.5 20.5,46.5C 20.7163,48.6807 19.883,50.3474 18,51.5C 16.3721,50.0383 16.2054,48.3717 17.5,46.5 Z"/></g>
<g><path style="opacity:0.54" fill="#000000" d="M 21.5,48.5 C 22.5,48.5 23.5,48.5 24.5,48.5C 23.5,55.1667 22.5,55.1667 21.5,48.5 Z"/></g>
</svg>
