<?xml version="1.0" encoding="UTF-8"?>
<svg version="1.1" xmlns="http://www.w3.org/2000/svg" width="80" height="80">
<path d="M0 0 C5.4389165 -0.21755666 9.87080814 -0.10428384 15 2 C15.33 5.63 15.66 9.26 16 13 C16.99 13 17.98 13 19 13 C19 16.3 19 19.6 19 23 C20.65 23 22.3 23 24 23 C24.09918586 28.30186559 24.17161755 33.60318618 24.21972656 38.90576172 C24.23979033 40.70794081 24.26704813 42.51005521 24.30175781 44.31201172 C24.35050829 46.90869136 24.37302082 49.50450729 24.390625 52.1015625 C24.41127014 52.9017984 24.43191528 53.7020343 24.45318604 54.52651978 C24.45535024 59.9730212 23.44766124 62.76021918 20 67 C17.68638823 69.31361177 12.2907058 68.32755696 9.1875 68.375 C7.81368164 68.43107422 7.81368164 68.43107422 6.41210938 68.48828125 C-0.38035718 68.57733034 -0.38035718 68.57733034 -3.57421875 65.6015625 C-6.06841809 61.05050289 -6.12990332 57.62095107 -6.09765625 52.4921875 C-6.0962413 51.65156769 -6.09482635 50.81094788 -6.09336853 49.94485474 C-6.08776237 47.25486725 -6.07520886 44.56496241 -6.0625 41.875 C-6.05748579 40.05338662 -6.05292275 38.23177193 -6.04882812 36.41015625 C-6.03779094 31.94007223 -6.0205222 27.47005014 -6 23 C-4.35 23 -2.7 23 -1 23 C-1 19.7 -1 16.4 -1 13 C-0.01 13 0.98 13 2 13 C2.16681109 10.08347826 2.16681109 10.08347826 2 7 C1.34 6.34 0.68 5.68 0 5 C-0.125 2.375 -0.125 2.375 0 0 Z M4 3 C4 6.3 4 9.6 4 13 C7.3 13 10.6 13 14 13 C13.67 10.36 13.34 7.72 13 5 C9.62902617 3.50178941 7.79557881 3 4 3 Z M1 15 C0.40371521 22.18010841 0.40371521 22.18010841 2 25 C0.02 25 -1.96 25 -4 25 C-4.07493036 28.96516109 -4.12896449 32.93004014 -4.16479492 36.89575195 C-4.18705458 38.89744576 -4.22520146 40.89894275 -4.26367188 42.90039062 C-4.3293603 51.59315918 -3.89197208 58.66204188 1 66 C3.7885289 66.22107787 6.34653181 66.28107535 9.125 66.1875 C9.87910156 66.17396484 10.63320313 66.16042969 11.41015625 66.14648438 C13.27374127 66.11109985 15.13695978 66.05729167 17 66 C17.639375 64.948125 18.27875 63.89625 18.9375 62.8125 C19.47697266 61.92498047 19.47697266 61.92498047 20.02734375 61.01953125 C22.17088914 56.56887676 22.11908499 52.03229227 22.09765625 47.16796875 C22.09443359 45.87568359 22.09121094 44.58339844 22.08789062 43.25195312 C22.07953665 41.89713474 22.07107172 40.54231703 22.0625 39.1875 C22.05748 37.81315265 22.05291797 36.43880355 22.04882812 35.06445312 C22.03705668 31.70959076 22.02061283 28.35481779 22 25 C20.02 25 18.04 25 16 25 C16.33 24.34 16.66 23.68 17 23 C17 20.36 17 17.72 17 15 C11.72 15 6.44 15 1 15 Z " fill="#FF0077" transform="translate(31,5)"/>
<path d="M0 0 C0.66 0 1.32 0 2 0 C2 0.66 2 1.32 2 2 C1.34 2 0.68 2 0 2 C0 1.34 0 0.68 0 0 Z " fill="#FF0077" transform="translate(49,43)"/>
<path d="M0 0 C0.66 0 1.32 0 2 0 C2 0.66 2 1.32 2 2 C1.34 2 0.68 2 0 2 C0 1.34 0 0.68 0 0 Z " fill="#FF0077" transform="translate(45,43)"/>
<path d="M0 0 C0.66 0 1.32 0 2 0 C2 0.66 2 1.32 2 2 C1.34 2 0.68 2 0 2 C0 1.34 0 0.68 0 0 Z " fill="#FF0077" transform="translate(41,43)"/>
<path d="M0 0 C0.66 0 1.32 0 2 0 C2 0.66 2 1.32 2 2 C1.34 2 0.68 2 0 2 C0 1.34 0 0.68 0 0 Z " fill="#FF0077" transform="translate(37,43)"/>
<path d="M0 0 C0.66 0 1.32 0 2 0 C2 0.66 2 1.32 2 2 C1.34 2 0.68 2 0 2 C0 1.34 0 0.68 0 0 Z " fill="#FF0077" transform="translate(33,43)"/>
<path d="M0 0 C0.66 0 1.32 0 2 0 C2 0.66 2 1.32 2 2 C1.34 2 0.68 2 0 2 C0 1.34 0 0.68 0 0 Z " fill="#FF0077" transform="translate(29,43)"/>
<path d="M0 0 C0.66 0 1.32 0 2 0 C2 0.66 2 1.32 2 2 C1.34 2 0.68 2 0 2 C0 1.34 0 0.68 0 0 Z " fill="#FF0077" transform="translate(43,28)"/>
<path d="M0 0 C0.66 0 1.32 0 2 0 C2 0.66 2 1.32 2 2 C1.34 2 0.68 2 0 2 C0 1.34 0 0.68 0 0 Z " fill="#FF0077" transform="translate(39,28)"/>
<path d="M0 0 C0.66 0 1.32 0 2 0 C2 0.66 2 1.32 2 2 C1.34 2 0.68 2 0 2 C0 1.34 0 0.68 0 0 Z " fill="#FF0077" transform="translate(35,28)"/>
</svg>
