<svg width="28" height="28" viewBox="0 0 28 28" xmlns="http://www.w3.org/2000/svg">
  <path fill-rule="evenodd" clip-rule="evenodd" d="M26.9383 1.06167C26.2267 0.35 25.3867 0 24.4067 0H3.59333C2.60167 0 1.76167 0.35 1.06167 1.06167C0.361667 1.77333 0 2.61333 0 3.59333V24.4067C0 25.3983 0.35 26.2383 1.06167 26.9383C1.77333 27.6383 2.61333 28 3.59333 28H24.4067C25.3983 28 26.2383 27.65 26.9383 26.9383C27.6383 26.2267 28 25.3867 28 24.4067V3.59333C28 2.60167 27.65 1.76167 26.9383 1.06167ZM10.045 10.0917C11.1417 9.03 12.4717 8.49333 14.0117 8.49333C15.5633 8.49333 16.8933 9.03 17.99 10.0917C19.0867 11.1533 19.635 12.4367 19.635 13.9417C19.635 15.4467 19.0867 16.73 17.99 17.7917C16.8933 18.8533 15.5633 19.39 14.0117 19.39C12.4717 19.39 11.1417 18.8533 10.045 17.7917C8.94833 16.73 8.4 15.4467 8.4 13.9417C8.4 12.4367 8.94833 11.1533 10.045 10.0917ZM24.815 23.66C24.815 23.975 24.71 24.2433 24.4883 24.4533C24.387 24.558 24.2655 24.6409 24.1311 24.697C23.9967 24.7532 23.8523 24.7814 23.7067 24.78H4.22333C4.07584 24.7823 3.92941 24.7546 3.79301 24.6984C3.6566 24.6422 3.53308 24.5589 3.43 24.4533C3.32603 24.3497 3.24443 24.2258 3.19025 24.0893C3.13606 23.9529 3.11045 23.8067 3.115 23.66V11.8417H5.68167C5.43848 12.6155 5.31648 13.4222 5.32 14.2333C5.32 16.5667 6.17167 18.5617 7.875 20.2067C9.57833 21.8517 11.62 22.68 14.0233 22.68C15.5556 22.6924 17.0642 22.3021 18.3983 21.5483C19.7077 20.8227 20.8024 19.7642 21.5717 18.48C22.3439 17.2031 22.7477 15.7373 22.7383 14.245C22.7383 13.4167 22.61 12.6233 22.3767 11.8533H24.8383V23.66H24.815ZM24.815 7.385C24.815 7.735 24.6867 8.03833 24.4533 8.28333C24.336 8.4015 24.1959 8.49452 24.0414 8.5567C23.887 8.61889 23.7215 8.64893 23.555 8.645H20.3817C20.0317 8.645 19.7283 8.51667 19.4833 8.28333C19.3652 8.16603 19.2721 8.02588 19.21 7.87142C19.1478 7.71697 19.1177 7.55146 19.1217 7.385V4.375C19.1217 4.03667 19.25 3.745 19.4833 3.48833C19.7167 3.23167 20.0317 3.115 20.3817 3.115H23.555C23.905 3.115 24.2083 3.24333 24.4533 3.48833C24.6983 3.73333 24.815 4.03667 24.815 4.375V7.385Z" fill="#222222"/>
</svg>