<svg xmlns="http://www.w3.org/2000/svg" viewBox="0 0 24 24" role="presentation" aria-hidden="true" focusable="false" style="height:48px;width:48px;display:block;fill:#9B3197"><path d="m21.501 5.501c-.552 0-.999.447-.999.999s.447.999.999.999.999-.447.999-.999-.447-.999-.999-.999m-11.76 11.868h-3.653c-1.534 0-2.782-1.248-2.782-2.782s1.248-2.782 2.782-2.782h4.869c1.535 0 2.783 1.248 2.783 2.782 0 .384-.311.695-.695.695s-.695-.311-.695-.695c0-.768-.625-1.392-1.393-1.392h-4.869c-.768 0-1.392.624-1.392 1.392s.624 1.392 1.392 1.392h3.653c.384 0 .696.311.696.695s-.312.695-.696.695m8.173 0h-4.869c-1.535 0-2.783-1.248-2.783-2.782 0-.384.311-.695.695-.695s.695.311.695.695c0 .768.625 1.392 1.393 1.392h4.869c.768 0 1.392-.624 1.392-1.392s-.624-1.392-1.392-1.392h-3.653c-.384 0-.696-.311-.696-.695s.312-.695.696-.695h3.653c1.534 0 2.782 1.248 2.782 2.782s-1.248 2.782-2.782 2.782"/><path d="m20.501 8.5c0-.276-.224-.5-.5-.5h-16c-.276 0-.5.224-.5.5s.224.5.5.5h16c.276 0 .5-.224.5-.5m3.501 10.995v-10.495c0-.276-.224-.5-.5-.5s-.5.224-.5.5v10.495c0 .278-.227.505-.505.505h-20.992c-.278 0-.505-.227-.505-.505v-.495c0-.276-.224-.5-.5-.5s-.5.224-.5.5v.495c0 .83.675 1.505 1.505 1.505h20.992c.83 0 1.505-.675 1.505-1.505m-23.502-2.995c-.276 0-.5-.224-.5-.5v-10.495c0-.83.675-1.505 1.505-1.505h20.992c.83 0 1.505.675 1.505 1.505v1.495c0 .276-.224.5-.5.5s-.5-.224-.5-.5v-1.495c0-.278-.227-.505-.505-.505h-20.992c-.278 0-.505.227-.505.505v10.495c0 .276-.224.5-.5.5" fill="#484848"/></svg>