<svg width="28" height="28" viewBox="0 0 28 28" xmlns="http://www.w3.org/2000/svg">
  <path fill-rule="evenodd" clip-rule="evenodd" d="M0 2.3391C0 1.04725 1.04653 0 2.3391 0H25.6609C26.9527 0 28 1.04653 28 2.3391V25.6609C28 26.9527 26.9535 28 25.6609 28H2.3391C1.04725 28 0 26.9535 0 25.6609V2.3391ZM11.0833 10.675H14.875V12.5802C15.4216 11.4847 16.8222 10.5 18.9263 10.5C22.9594 10.5 23.9167 12.6805 23.9167 16.6816V24.0917H19.8333V17.5928C19.8333 15.3143 19.2868 14.0292 17.8967 14.0292C15.9688 14.0292 15.1667 15.4146 15.1667 17.5928V24.0917H11.0833V10.675ZM4.08333 23.9167H8.16667V10.5H4.08333V23.9167ZM8.75 6.125C8.75 7.57458 7.57458 8.75 6.125 8.75C4.67542 8.75 3.5 7.57458 3.5 6.125C3.5 4.67542 4.67542 3.5 6.125 3.5C7.57458 3.5 8.75 4.67542 8.75 6.125Z" fill="#222222"/>
</svg>