<svg width="924" height="399" viewBox="0 0 924 399" fill="none" role="img" xmlns="http://www.w3.org/2000/svg">
<g clip-path="url(#clip0_1805:64063)">
<path d="M560.308 296.206C560.324 295.952 560.324 295.698 560.308 295.444C560.292 295.258 560.225 295.079 560.115 294.928C560.006 294.791 559.857 294.692 559.689 294.644C559.445 294.575 559.193 294.544 558.94 294.554C558.734 294.554 558.475 294.554 558.179 294.554L557.223 294.67L557.133 293.882C558.062 293.637 558.863 293.456 559.521 293.353C560.066 293.248 560.618 293.187 561.173 293.172C561.504 293.16 561.834 293.218 562.141 293.34C562.355 293.444 562.528 293.617 562.632 293.831C562.744 294.083 562.806 294.355 562.812 294.631C562.812 294.958 562.812 295.319 562.812 295.715C562.812 295.715 562.812 295.948 562.812 296.348C562.812 296.748 562.812 297.251 562.812 297.897C562.812 298.542 562.812 299.304 562.812 300.156C562.812 301.007 562.812 301.924 562.735 302.879C562.658 303.834 562.67 304.815 562.632 305.822C562.593 306.829 562.554 307.823 562.503 308.778C562.451 309.733 562.412 310.637 562.361 311.489C562.309 312.34 562.244 313.089 562.18 313.722C562.787 313.631 563.355 313.567 563.897 313.528C564.439 313.489 564.929 313.528 565.394 313.528C565.859 313.528 566.685 313.528 567.214 313.528C567.743 313.528 568.337 313.528 568.892 313.528C569.243 313.535 569.593 313.478 569.925 313.36C570.231 313.24 570.495 313.034 570.686 312.766C570.937 312.416 571.121 312.022 571.228 311.605C571.39 310.996 571.498 310.374 571.551 309.746L572.377 309.823C572.381 310.74 572.312 311.655 572.171 312.56C572.084 313.155 571.896 313.732 571.615 314.264C571.423 314.636 571.115 314.935 570.738 315.116C570.371 315.288 569.968 315.372 569.563 315.361C569.192 315.354 568.821 315.324 568.453 315.27L567.162 315.051C566.685 314.974 566.168 314.896 565.613 314.845C565.013 314.776 564.41 314.741 563.806 314.741C563.238 314.741 562.606 314.741 561.935 314.845C561.24 314.929 560.55 315.054 559.869 315.219H559.702C559.805 314.341 559.895 313.412 559.973 312.418C560.05 311.424 560.115 310.391 560.179 309.32C560.244 308.249 560.27 307.139 560.308 306.016C560.347 304.893 560.373 303.77 560.399 302.647V299.317C560.295 298.284 560.308 297.29 560.308 296.206Z" fill="#DDDDDD"/>
<path d="M577.623 301.649C577.52 302.372 577.43 303.095 577.352 303.818C577.275 304.54 577.21 305.237 577.171 305.922C577.133 306.606 577.081 307.212 577.068 307.832C577.055 308.451 577.068 308.981 577.068 309.471C577.068 309.962 577.068 310.697 577.068 311.162C577.068 311.627 577.068 312.027 577.158 312.35C577.194 312.612 577.251 312.871 577.326 313.124C577.386 313.286 577.469 313.438 577.572 313.576C577.669 313.669 577.789 313.736 577.92 313.769C578.066 313.791 578.213 313.791 578.359 313.769C578.691 313.764 579.02 313.717 579.34 313.627C579.708 313.531 580.066 313.401 580.411 313.24L580.592 313.744C580.318 313.95 580.029 314.136 579.727 314.299C579.377 314.494 579.015 314.666 578.643 314.815C578.285 314.976 577.913 315.106 577.533 315.202C577.227 315.296 576.91 315.348 576.591 315.357C576.427 315.371 576.263 315.371 576.1 315.357C575.952 315.331 575.817 315.259 575.713 315.151C575.578 315.004 575.473 314.833 575.403 314.647C575.295 314.355 575.217 314.052 575.171 313.744C575.1 313.273 575.056 312.799 575.042 312.324C575.042 311.756 575.042 311.033 575.042 310.259C575.042 309.781 575.042 309.252 575.042 308.645C575.042 308.038 575.042 307.354 575.042 306.722C575.042 306.089 575.042 305.315 575.119 304.553C575.197 303.792 575.197 303.017 575.248 302.204C575.249 302.06 575.291 301.92 575.369 301.799C575.446 301.678 575.557 301.581 575.687 301.52C575.808 301.457 575.939 301.413 576.074 301.391C576.199 301.379 576.324 301.379 576.449 301.391C576.855 301.383 577.257 301.472 577.623 301.649ZM576.797 297.364C576.596 297.37 576.396 297.326 576.216 297.235C576.045 297.148 575.895 297.025 575.777 296.873C575.659 296.717 575.568 296.543 575.506 296.357C575.444 296.165 575.413 295.965 575.416 295.763C575.407 295.506 575.456 295.25 575.558 295.015C575.637 294.809 575.76 294.624 575.919 294.472C576.124 294.258 576.39 294.111 576.68 294.051C576.971 293.991 577.273 294.021 577.546 294.137C577.71 294.222 577.859 294.336 577.985 294.472C578.106 294.614 578.202 294.776 578.269 294.95C578.336 295.136 578.371 295.333 578.372 295.531C578.371 295.755 578.332 295.978 578.256 296.189C578.182 296.404 578.073 296.604 577.933 296.783C577.805 296.961 577.637 297.107 577.442 297.209C577.244 297.316 577.022 297.369 576.797 297.364V297.364Z" fill="#DDDDDD"/>
<path d="M584.64 315.364C584.563 314.757 584.46 314.073 584.356 313.453C584.253 312.834 584.111 312.163 583.982 311.427C583.853 310.691 583.724 310.136 583.582 309.426C583.44 308.716 583.285 308.136 583.156 307.529C583.027 306.922 582.872 306.38 582.743 305.864C582.614 305.347 582.485 304.921 582.368 304.573C582.272 304.262 582.16 303.956 582.033 303.657C581.946 303.455 581.828 303.268 581.684 303.102C581.589 302.974 581.459 302.875 581.31 302.818C581.157 302.764 580.995 302.737 580.832 302.74C580.618 302.722 580.402 302.722 580.187 302.74L579.361 302.921L579.219 302.237L580.329 301.862C580.69 301.746 581.026 301.643 581.336 301.565C581.646 301.488 581.917 301.411 582.162 301.372C582.351 301.358 582.541 301.358 582.73 301.372C582.889 301.368 583.048 301.399 583.195 301.462C583.357 301.527 583.5 301.634 583.608 301.772C583.767 301.948 583.898 302.149 583.995 302.366C584.134 302.673 584.254 302.987 584.356 303.308C584.434 303.553 584.524 303.889 584.64 304.289L584.989 305.657C585.105 306.161 585.234 306.716 585.363 307.309C585.492 307.903 585.608 308.536 585.737 309.168C585.866 309.801 585.97 310.459 586.073 311.117C586.176 311.775 586.267 312.408 586.344 313.066C586.654 312.602 586.977 312.124 587.286 311.633C587.596 311.143 587.919 310.64 588.216 310.136C588.513 309.633 588.771 309.116 589.029 308.6C589.279 308.105 589.504 307.596 589.7 307.077C589.88 306.589 590.027 306.088 590.139 305.58C590.24 305.118 590.292 304.646 590.294 304.173C590.301 303.625 590.2 303.081 589.997 302.572C589.777 302.059 589.425 301.614 588.977 301.282L589.093 301.049H589.416H589.739C590.429 301.003 591.112 301.219 591.649 301.656C591.868 301.869 592.039 302.127 592.151 302.412C592.262 302.697 592.311 303.003 592.294 303.308C592.279 303.934 592.161 304.553 591.946 305.141C591.7 305.881 591.397 306.602 591.042 307.297C590.655 308.085 590.224 308.852 589.752 309.594C589.287 310.381 588.797 311.13 588.306 311.853C587.816 312.576 587.325 313.26 586.86 313.892C586.396 314.525 585.983 315.08 585.57 315.545L584.64 315.364Z" fill="#DDDDDD"/>
<path d="M603.548 312.06L603.69 312.137C603.751 312.168 603.808 312.207 603.858 312.253C603.907 312.29 603.951 312.333 603.987 312.382C604.024 312.421 604.047 312.471 604.052 312.524C604.052 312.524 604.052 312.524 604.052 312.602C603.717 313.073 603.332 313.505 602.903 313.893C602.512 314.246 602.078 314.55 601.612 314.796C601.206 315.03 600.773 315.212 600.321 315.338C599.9 315.45 599.467 315.511 599.031 315.519C598.307 315.528 597.591 315.368 596.94 315.054C596.312 314.745 595.757 314.305 595.313 313.763C594.844 313.206 594.481 312.567 594.242 311.879C593.98 311.133 593.849 310.347 593.855 309.556C593.855 308.873 593.933 308.194 594.087 307.529C594.226 306.861 594.442 306.211 594.732 305.593C595.006 304.981 595.353 304.405 595.765 303.876C596.158 303.361 596.618 302.901 597.133 302.508C597.648 302.12 598.218 301.811 598.824 301.591C599.464 301.372 600.136 301.263 600.812 301.269C601.248 301.273 601.682 301.334 602.103 301.45C602.5 301.567 602.876 301.75 603.213 301.992C603.53 302.223 603.79 302.523 603.974 302.869C604.169 303.234 604.267 303.643 604.258 304.057C604.261 304.677 604.041 305.277 603.639 305.748C603.152 306.273 602.557 306.687 601.896 306.961C601.07 307.33 600.203 307.603 599.315 307.774C598.245 307.991 597.163 308.147 596.075 308.239V308.394C596.066 309.145 596.171 309.894 596.385 310.614C596.565 311.232 596.854 311.813 597.236 312.331C597.579 312.792 598.02 313.171 598.527 313.441C599.009 313.708 599.551 313.846 600.102 313.841C600.707 313.837 601.302 313.695 601.845 313.428C602.482 313.066 603.057 312.604 603.548 312.06ZM601.767 304.444C601.767 304.167 601.719 303.892 601.625 303.631C601.526 303.39 601.386 303.167 601.212 302.973C601.038 302.786 600.827 302.636 600.593 302.534C600.35 302.42 600.086 302.363 599.818 302.366C599.433 302.362 599.051 302.437 598.695 302.585C598.365 302.736 598.06 302.936 597.792 303.179C597.529 303.442 597.295 303.731 597.094 304.044C596.889 304.384 596.716 304.743 596.578 305.115C596.433 305.489 596.317 305.873 596.23 306.264C596.14 306.638 596.075 307.017 596.036 307.4C596.848 307.356 597.655 307.248 598.45 307.077C599.074 306.954 599.681 306.755 600.257 306.483C600.693 306.279 601.077 305.979 601.38 305.606C601.646 305.277 601.791 304.867 601.793 304.444H601.767Z" fill="#DDDDDD"/>
<path d="M618.104 294.509C617.833 295.709 617.614 296.948 617.433 298.226C617.252 299.504 617.097 300.808 616.968 302.021H617.846H618.633H619.795C620.266 302.026 620.737 301.992 621.202 301.918C621.202 302.021 621.202 302.124 621.279 302.202C621.284 302.288 621.284 302.374 621.279 302.46C621.291 302.575 621.262 302.69 621.199 302.786C621.135 302.883 621.041 302.954 620.931 302.989C620.61 303.09 620.273 303.133 619.937 303.118C619.511 303.118 619.046 303.118 618.53 303.041C618.014 302.963 617.459 302.938 616.839 302.899C616.775 303.583 616.71 304.19 616.671 304.874C616.633 305.558 616.581 306.164 616.555 306.694C616.529 307.223 616.555 307.791 616.555 308.268C616.555 308.746 616.555 309.185 616.555 309.559C616.553 310.163 616.588 310.767 616.658 311.366C616.717 311.812 616.838 312.246 617.02 312.657C617.182 313 617.437 313.29 617.756 313.496C618.109 313.71 618.518 313.814 618.93 313.793C619.315 313.784 619.697 313.723 620.066 313.612C620.566 313.466 621.05 313.271 621.512 313.031C621.676 313.205 621.78 313.427 621.809 313.664C621.408 313.922 621.021 314.154 620.621 314.361C620.24 314.567 619.848 314.752 619.446 314.916C619.079 315.052 618.704 315.168 618.323 315.264C617.989 315.339 617.647 315.378 617.304 315.381C616.904 315.394 616.506 315.315 616.142 315.148C615.765 314.97 615.447 314.688 615.226 314.335C614.939 313.839 614.738 313.298 614.632 312.735C614.475 311.883 614.406 311.018 614.425 310.153C614.425 309.585 614.425 308.991 614.425 308.385C614.425 307.778 614.425 307.094 614.503 306.526C614.58 305.958 614.567 305.235 614.619 304.641C614.671 304.048 614.735 303.351 614.8 302.796H613.406C613.036 302.824 612.669 302.88 612.308 302.963C612.302 302.921 612.302 302.877 612.308 302.834C612.313 302.762 612.332 302.691 612.365 302.626C612.399 302.562 612.445 302.505 612.502 302.46C612.665 302.325 612.848 302.216 613.044 302.137C613.312 302.036 613.589 301.958 613.87 301.905C614.219 301.833 614.573 301.79 614.929 301.776C615.071 300.485 615.226 299.194 615.393 298.02C615.561 296.845 615.729 295.8 615.884 294.883C615.913 294.824 615.947 294.768 615.987 294.715C616.07 294.613 616.171 294.525 616.284 294.457C616.403 294.399 616.529 294.356 616.658 294.328H617.046C617.233 294.327 617.419 294.349 617.601 294.393C617.772 294.414 617.941 294.453 618.104 294.509V294.509Z" fill="#DDDDDD"/>
<path d="M625.759 309.95C626.169 308.561 626.687 307.206 627.308 305.897C627.762 304.936 628.321 304.027 628.973 303.186C629.434 302.582 630.008 302.074 630.664 301.689C631.154 301.402 631.709 301.242 632.277 301.225C632.63 301.224 632.981 301.289 633.31 301.418C633.642 301.562 633.937 301.778 634.175 302.051C634.451 302.372 634.662 302.745 634.794 303.148C634.954 303.67 635.028 304.215 635.013 304.761C635.013 304.955 635.013 305.2 635.013 305.536C635.013 305.871 635.013 306.22 634.936 306.62C634.859 307.02 634.859 307.446 634.82 307.911C634.781 308.375 634.742 308.776 634.717 309.201C634.691 309.627 634.652 310.04 634.626 310.415C634.6 310.789 634.626 311.138 634.626 311.409C634.602 311.813 634.602 312.218 634.626 312.622C634.648 312.872 634.713 313.117 634.82 313.345C634.9 313.512 635.037 313.645 635.207 313.719C635.392 313.791 635.589 313.827 635.788 313.822C636.132 313.818 636.475 313.77 636.808 313.68C637.176 313.584 637.534 313.454 637.879 313.293L638.06 313.797C637.786 314.003 637.497 314.189 637.195 314.352C636.841 314.547 636.474 314.719 636.098 314.868C635.732 315.031 635.352 315.161 634.962 315.255C634.635 315.351 634.296 315.403 633.955 315.41C633.809 315.419 633.663 315.398 633.526 315.35C633.388 315.301 633.262 315.225 633.155 315.126C632.938 314.923 632.781 314.664 632.703 314.377C632.603 314.015 632.542 313.643 632.522 313.267C632.522 312.841 632.522 312.39 632.522 311.977C632.522 311.564 632.522 310.776 632.522 310.157C632.522 309.537 632.613 308.93 632.651 308.35C632.69 307.769 632.755 307.252 632.793 306.775C632.832 306.297 632.793 305.91 632.793 305.626C632.836 305.067 632.695 304.51 632.393 304.038C632.267 303.869 632.1 303.733 631.909 303.643C631.718 303.553 631.507 303.512 631.296 303.522C630.872 303.545 630.468 303.709 630.147 303.987C629.682 304.356 629.274 304.791 628.934 305.278C628.492 305.88 628.104 306.519 627.772 307.188C627.381 307.959 627.045 308.757 626.765 309.576C626.461 310.453 626.215 311.35 626.03 312.261C625.829 313.183 625.704 314.119 625.655 315.062L623.629 315.307H623.487C623.487 314.558 623.564 313.732 623.616 312.829C623.668 311.925 623.706 310.983 623.771 309.963C623.835 308.943 623.874 307.898 623.939 306.801C624.003 305.703 624.055 304.593 624.119 303.458C624.184 302.322 624.236 301.173 624.3 300.011C624.365 298.85 624.429 297.714 624.481 296.591C624.532 295.468 624.597 294.358 624.662 293.273C624.726 292.189 624.765 291.169 624.816 290.176C624.824 290.035 624.874 289.9 624.958 289.788C625.036 289.672 625.143 289.579 625.268 289.517C625.407 289.449 625.555 289.401 625.707 289.375C625.879 289.362 626.052 289.362 626.223 289.375C626.642 289.386 627.052 289.492 627.424 289.685C627.269 290.976 627.14 292.15 627.024 293.235C626.907 294.319 626.817 295.3 626.714 296.229C626.611 297.159 626.546 297.998 626.482 298.811C626.417 299.624 626.34 300.373 626.275 301.095C626.21 301.818 626.159 302.541 626.107 303.238C626.056 303.935 626.004 304.632 625.952 305.355C625.901 306.078 625.862 306.814 625.797 307.588C625.733 308.362 625.694 309.201 625.63 310.092L625.759 309.95Z" fill="#DDDDDD"/>
<path d="M648.845 312.06L648.987 312.137C649.048 312.168 649.105 312.207 649.155 312.253L649.297 312.383C649.313 312.429 649.313 312.478 649.297 312.525C649.297 312.525 649.297 312.525 649.297 312.602C648.962 313.073 648.577 313.506 648.148 313.893C647.757 314.246 647.324 314.55 646.858 314.796C646.452 315.03 646.018 315.212 645.567 315.338C645.145 315.45 644.712 315.511 644.276 315.519C643.552 315.528 642.837 315.369 642.185 315.054C641.557 314.745 641.002 314.305 640.559 313.764C640.09 313.206 639.726 312.567 639.487 311.879C639.236 311.13 639.109 310.346 639.113 309.556C639.109 308.874 639.183 308.194 639.332 307.529C639.471 306.861 639.688 306.211 639.978 305.593C640.256 304.984 640.603 304.408 641.01 303.876C641.403 303.361 641.863 302.901 642.379 302.508C642.897 302.118 643.471 301.809 644.082 301.592C644.721 301.37 645.394 301.261 646.07 301.269C646.506 301.273 646.94 301.334 647.361 301.45C647.76 301.564 648.135 301.748 648.471 301.992C648.788 302.223 649.049 302.523 649.233 302.87C649.427 303.235 649.525 303.643 649.517 304.057C649.526 304.68 649.3 305.284 648.884 305.748C648.405 306.276 647.814 306.69 647.154 306.961C646.328 307.331 645.462 307.604 644.573 307.774C643.498 307.991 642.412 308.146 641.32 308.239V308.394C641.312 309.145 641.416 309.894 641.63 310.614C641.811 311.232 642.099 311.813 642.482 312.331C642.824 312.792 643.265 313.171 643.773 313.441C644.254 313.709 644.797 313.847 645.347 313.841C645.952 313.837 646.548 313.696 647.09 313.428C647.748 313.074 648.341 312.611 648.845 312.06V312.06ZM647.064 304.444C647.064 304.167 647.016 303.892 646.922 303.631C646.823 303.39 646.683 303.167 646.509 302.973C646.337 302.783 646.126 302.633 645.889 302.534C645.647 302.421 645.382 302.363 645.115 302.366C644.73 302.363 644.348 302.437 643.992 302.586C643.662 302.736 643.357 302.936 643.089 303.179C642.826 303.442 642.592 303.732 642.391 304.044C642.186 304.384 642.013 304.743 641.875 305.115C641.73 305.489 641.614 305.873 641.527 306.264C641.441 306.638 641.381 307.018 641.346 307.4C642.158 307.355 642.965 307.247 643.76 307.077C644.38 306.954 644.982 306.754 645.554 306.484C645.99 306.28 646.374 305.98 646.677 305.606C646.933 305.274 647.07 304.864 647.064 304.444V304.444Z" fill="#DDDDDD"/>
<path d="M663.146 289.547C663.017 290.619 662.901 291.716 662.772 292.852C662.643 293.988 662.527 295.111 662.424 296.272C662.32 297.434 662.204 298.583 662.114 299.744C662.023 300.906 661.933 302.055 661.869 303.178C661.804 304.301 661.752 305.411 661.701 306.495C661.649 307.579 661.701 308.625 661.701 309.619C661.701 310.251 661.701 310.78 661.701 311.232C661.701 311.684 661.701 312.058 661.778 312.368C661.794 312.623 661.842 312.874 661.92 313.117C661.958 313.278 662.034 313.428 662.14 313.556C662.222 313.651 662.329 313.723 662.449 313.762C662.591 313.783 662.734 313.783 662.875 313.762C663.207 313.757 663.537 313.709 663.856 313.62C664.224 313.524 664.583 313.394 664.928 313.233L665.108 313.736C664.835 313.943 664.546 314.129 664.244 314.291C663.895 314.489 663.533 314.662 663.159 314.808C662.801 314.969 662.43 315.099 662.049 315.195C661.744 315.29 661.427 315.342 661.107 315.35C660.812 315.364 660.522 315.267 660.294 315.079C660.062 314.846 659.905 314.549 659.842 314.227C659.724 313.727 659.659 313.217 659.648 312.704C659.648 312.071 659.648 311.31 659.648 310.406C659.648 310.083 659.648 309.606 659.648 308.999C659.648 308.393 659.648 307.708 659.726 306.869C659.803 306.03 659.79 305.179 659.842 304.223C659.894 303.268 659.932 302.261 659.984 301.242L660.139 298.131C660.203 297.085 660.255 296.079 660.32 295.098C660.384 294.117 660.423 293.2 660.475 292.335C660.526 291.471 660.578 290.709 660.617 290.038C660.626 289.9 660.67 289.767 660.746 289.651C660.831 289.537 660.941 289.444 661.068 289.38C661.206 289.309 661.354 289.261 661.507 289.238C661.67 289.224 661.834 289.224 661.998 289.238C662.399 289.253 662.792 289.359 663.146 289.547V289.547Z" fill="#DDDDDD"/>
<path d="M670.001 301.649C669.885 302.372 669.794 303.095 669.717 303.818C669.64 304.541 669.588 305.238 669.536 305.922C669.485 306.606 669.459 307.212 669.433 307.832C669.407 308.452 669.433 308.981 669.433 309.471C669.433 309.962 669.433 310.698 669.433 311.162C669.438 311.56 669.468 311.956 669.523 312.35C669.547 312.614 669.603 312.874 669.691 313.124C669.742 313.29 669.825 313.443 669.936 313.576C670.027 313.671 670.144 313.739 670.272 313.77C670.418 313.79 670.565 313.79 670.711 313.77C671.043 313.764 671.372 313.717 671.692 313.628C672.06 313.531 672.418 313.401 672.763 313.24L672.944 313.744C672.67 313.95 672.381 314.136 672.079 314.299C671.73 314.496 671.368 314.669 670.995 314.815C670.637 314.976 670.265 315.106 669.885 315.202C669.579 315.297 669.262 315.349 668.942 315.357C668.784 315.372 668.624 315.372 668.465 315.357C668.314 315.331 668.174 315.259 668.065 315.151C667.93 315.005 667.825 314.834 667.755 314.647C667.647 314.355 667.569 314.052 667.523 313.744C667.523 313.369 667.419 312.892 667.394 312.324C667.368 311.756 667.394 311.033 667.394 310.259C667.394 309.781 667.394 309.252 667.394 308.645C667.394 308.039 667.394 307.354 667.394 306.722C667.394 306.089 667.394 305.315 667.471 304.553C667.548 303.792 667.548 303.017 667.6 302.204C667.607 302.048 667.656 301.896 667.742 301.765C667.819 301.66 667.921 301.576 668.039 301.52C668.162 301.46 668.292 301.417 668.426 301.391C668.551 301.379 668.676 301.379 668.8 301.391C669.216 301.379 669.627 301.468 670.001 301.649ZM669.175 297.364C668.969 297.369 668.766 297.324 668.581 297.235C668.413 297.144 668.263 297.021 668.142 296.873C668.024 296.717 667.933 296.543 667.871 296.357C667.809 296.165 667.778 295.965 667.781 295.763C667.772 295.506 667.82 295.251 667.923 295.015C668.006 294.812 668.129 294.628 668.284 294.473C668.425 294.325 668.597 294.21 668.788 294.137C668.959 294.064 669.143 294.025 669.33 294.021C669.529 294.017 669.728 294.056 669.911 294.137C670.077 294.219 670.227 294.333 670.349 294.473C670.475 294.611 670.572 294.773 670.633 294.95C670.701 295.136 670.736 295.333 670.737 295.531C670.736 295.755 670.697 295.978 670.62 296.189C670.547 296.404 670.438 296.604 670.298 296.783C670.169 296.961 670.002 297.107 669.807 297.209C669.613 297.314 669.395 297.367 669.175 297.364Z" fill="#DDDDDD"/>
<path d="M678.169 301.989H679.086H681.125H681.951H682.61C682.674 302.172 682.709 302.363 682.713 302.557C682.723 302.672 682.696 302.786 682.636 302.884C682.575 302.982 682.485 303.058 682.377 303.099C682.053 303.206 681.712 303.254 681.37 303.241C680.932 303.241 680.454 303.241 679.912 303.164L678.144 303.022C678.144 303.783 678.079 304.596 678.04 305.487C678.002 306.378 677.963 307.281 677.898 308.236C677.834 309.192 677.769 310.147 677.679 311.115C677.589 312.083 677.472 313.038 677.343 313.98C677.214 314.923 677.072 315.787 676.892 316.639C676.729 317.412 676.522 318.175 676.272 318.924C675.956 319.878 675.522 320.788 674.981 321.635C674.578 322.288 674.078 322.876 673.497 323.377C673.016 323.79 672.459 324.106 671.857 324.306C671.314 324.495 670.742 324.591 670.167 324.59C669.735 324.576 669.306 324.511 668.889 324.397C668.512 324.303 668.152 324.155 667.817 323.958C667.539 323.799 667.297 323.584 667.107 323.325C666.935 323.104 666.84 322.832 666.836 322.551C666.838 322.395 666.873 322.241 666.94 322.099C667.012 321.948 667.113 321.812 667.237 321.699C667.363 321.587 667.507 321.495 667.662 321.428C667.837 321.349 668.026 321.309 668.218 321.312C668.381 321.617 668.585 321.9 668.824 322.151C669.03 322.376 669.269 322.568 669.534 322.719C669.776 322.874 670.042 322.987 670.321 323.054C670.588 323.12 670.861 323.155 671.135 323.158C671.476 323.168 671.816 323.111 672.135 322.989C672.454 322.867 672.746 322.683 672.993 322.448C673.57 321.887 674.011 321.203 674.284 320.447C674.672 319.44 674.944 318.392 675.097 317.323C675.291 316.11 675.446 314.742 675.549 313.257C675.652 311.773 675.717 310.147 675.756 308.417C675.794 306.687 675.82 304.867 675.833 302.957C675.239 302.957 674.684 302.957 674.181 302.957C673.741 302.983 673.306 303.07 672.89 303.215C672.878 303.156 672.878 303.094 672.89 303.035C672.894 302.952 672.916 302.871 672.954 302.798C672.992 302.724 673.045 302.66 673.11 302.609C673.295 302.458 673.504 302.341 673.729 302.26C674.034 302.146 674.35 302.064 674.671 302.015C675.077 301.947 675.487 301.908 675.898 301.899C675.898 301.305 675.962 300.737 676.001 300.195C676.04 299.653 676.078 299.111 676.143 298.594C676.207 298.078 676.272 297.536 676.362 297.007C676.453 296.477 676.556 295.922 676.698 295.355C676.849 294.667 677.07 293.997 677.356 293.354C677.605 292.799 677.917 292.275 678.286 291.792C678.605 291.352 678.978 290.953 679.396 290.605C679.798 290.292 680.231 290.02 680.686 289.791C681.096 289.588 681.53 289.436 681.977 289.34C682.4 289.238 682.833 289.186 683.268 289.185C683.824 289.173 684.379 289.256 684.907 289.43C685.345 289.569 685.756 289.783 686.121 290.062C686.435 290.301 686.695 290.605 686.882 290.953C687.047 291.259 687.135 291.6 687.14 291.947C687.141 292.189 687.097 292.43 687.011 292.657C686.929 292.853 686.811 293.033 686.663 293.186C686.513 293.329 686.338 293.442 686.146 293.522C685.893 293.606 685.626 293.639 685.36 293.619C685.094 293.599 684.835 293.526 684.597 293.405V293.302C684.7 293.066 684.79 292.825 684.868 292.579C684.931 292.37 684.961 292.152 684.959 291.934C684.965 291.661 684.903 291.39 684.778 291.147C684.653 290.938 684.486 290.758 684.288 290.617C684.092 290.472 683.868 290.371 683.629 290.321C683.395 290.249 683.151 290.214 682.906 290.217C682.274 290.193 681.649 290.359 681.112 290.695C680.605 291.02 680.185 291.463 679.886 291.986C679.538 292.596 679.277 293.252 679.112 293.935C678.91 294.728 678.767 295.534 678.686 296.348C678.582 297.226 678.518 298.13 678.466 299.072C678.415 300.014 678.208 301.047 678.169 301.989Z" fill="#DDDDDD"/>
<path d="M692.346 312.06L692.488 312.137C692.549 312.168 692.605 312.207 692.656 312.253C692.705 312.29 692.748 312.333 692.785 312.382C692.8 312.428 692.8 312.478 692.785 312.524C692.795 312.549 692.795 312.577 692.785 312.602C692.454 313.072 692.074 313.505 691.649 313.893C691.253 314.24 690.82 314.543 690.358 314.796C689.951 315.028 689.518 315.21 689.067 315.338C688.625 315.455 688.169 315.515 687.712 315.519C686.993 315.526 686.282 315.367 685.634 315.054C685.004 314.742 684.446 314.302 683.995 313.764C683.53 313.205 683.171 312.567 682.936 311.879C682.674 311.133 682.543 310.347 682.549 309.556C682.552 308.874 682.625 308.195 682.768 307.529C682.913 306.862 683.129 306.213 683.414 305.593C683.697 304.986 684.043 304.411 684.446 303.876C684.844 303.361 685.308 302.9 685.827 302.508C686.342 302.12 686.912 301.811 687.518 301.592C688.158 301.371 688.83 301.261 689.506 301.269C689.942 301.272 690.377 301.333 690.797 301.45C691.199 301.567 691.578 301.75 691.92 301.992C692.233 302.227 692.493 302.526 692.681 302.869C692.876 303.234 692.974 303.643 692.965 304.057C692.975 304.68 692.749 305.284 692.333 305.748C691.851 306.279 691.255 306.693 690.59 306.961C689.765 307.333 688.898 307.606 688.009 307.774C686.939 307.991 685.857 308.146 684.769 308.239V308.394C684.76 309.145 684.865 309.894 685.079 310.614C685.249 311.234 685.534 311.816 685.918 312.331C686.26 312.792 686.701 313.171 687.209 313.441C687.689 313.71 688.232 313.848 688.783 313.841C689.388 313.835 689.983 313.694 690.526 313.428C691.205 313.077 691.82 312.614 692.346 312.06V312.06ZM690.565 304.444C690.567 304.166 690.514 303.889 690.41 303.631C690.315 303.39 690.18 303.167 690.01 302.973C689.833 302.782 689.617 302.633 689.377 302.534C689.136 302.418 688.87 302.36 688.603 302.366C688.221 302.363 687.844 302.437 687.493 302.585C687.163 302.736 686.858 302.936 686.589 303.179C686.319 303.435 686.084 303.726 685.892 304.044C685.686 304.384 685.514 304.743 685.376 305.115C685.231 305.489 685.114 305.873 685.027 306.264C684.938 306.638 684.873 307.018 684.834 307.4C685.645 307.356 686.452 307.248 687.247 307.077C687.867 306.953 688.47 306.754 689.041 306.484C689.477 306.28 689.861 305.979 690.164 305.606C690.43 305.278 690.572 304.866 690.565 304.444V304.444Z" fill="#DDDDDD"/>
<path d="M706.04 315.076C705.872 314.469 705.691 313.85 705.51 313.191C705.33 312.533 705.136 311.901 704.943 311.204L704.362 309.242C704.168 308.596 703.987 307.951 703.807 307.409C703.626 306.867 703.458 306.286 703.29 305.795C703.123 305.305 702.993 304.866 702.864 304.504C702.753 304.192 702.624 303.886 702.477 303.588C702.374 303.386 702.244 303.199 702.09 303.033C701.973 302.914 701.833 302.821 701.677 302.762C701.519 302.708 701.353 302.682 701.186 302.685C700.972 302.667 700.756 302.667 700.541 302.685L699.715 302.865L699.573 302.181L700.683 301.807C701.044 301.691 701.38 301.6 701.69 301.523C701.961 301.442 702.237 301.378 702.516 301.329C702.702 301.288 702.893 301.266 703.084 301.265C703.246 301.264 703.407 301.29 703.561 301.342C703.723 301.409 703.868 301.51 703.987 301.639C704.156 301.813 704.295 302.014 704.4 302.233C704.562 302.534 704.696 302.849 704.8 303.175C704.891 303.407 704.994 303.717 705.123 304.104C705.252 304.492 705.381 304.905 705.523 305.395L705.988 306.944C706.156 307.512 706.324 308.093 706.491 308.699C706.659 309.306 706.814 309.99 706.982 310.584C707.15 311.178 707.305 311.875 707.459 312.469L708.44 309.887C708.789 308.983 709.138 308.067 709.499 307.163C709.86 306.26 710.209 305.356 710.557 304.466C710.906 303.575 711.254 302.71 711.59 301.884C711.637 301.754 711.717 301.638 711.822 301.549C711.916 301.457 712.025 301.382 712.145 301.329C712.265 301.277 712.391 301.238 712.519 301.213H712.907C713.112 301.211 713.317 301.241 713.513 301.303C713.705 301.357 713.891 301.431 714.068 301.523C713.784 301.988 713.487 302.491 713.178 303.059C712.868 303.627 712.558 304.233 712.235 304.879C711.913 305.524 711.59 306.17 711.267 306.88C710.945 307.589 710.622 308.274 710.299 309.009L709.344 311.178L708.44 313.346C708.144 314.056 707.86 314.753 707.601 315.45L706.814 317.49C706.569 318.135 706.324 318.78 706.078 319.374C705.833 319.968 705.588 320.536 705.33 321.065C705.105 321.532 704.85 321.985 704.568 322.42C704.319 322.822 704.015 323.187 703.665 323.505C703.348 323.81 702.981 324.058 702.58 324.24C702.172 324.411 701.733 324.499 701.29 324.499C701.018 324.502 700.748 324.463 700.489 324.382C700.267 324.313 700.058 324.209 699.87 324.073C699.718 323.947 699.591 323.794 699.495 323.621C699.408 323.454 699.363 323.267 699.366 323.079C699.369 322.851 699.431 322.629 699.547 322.433C699.661 322.223 699.831 322.049 700.038 321.93C700.288 322.081 700.557 322.198 700.838 322.278C701.074 322.34 701.317 322.375 701.561 322.382C702.055 322.391 702.539 322.242 702.942 321.956C703.402 321.604 703.788 321.166 704.078 320.665C704.492 319.99 704.85 319.282 705.149 318.548C705.497 317.709 705.898 316.715 706.337 315.579L706.517 315.076H706.04Z" fill="#DDDDDD"/>
<path d="M714.363 309.538C714.365 308.888 714.43 308.24 714.557 307.602C714.694 306.948 714.893 306.308 715.151 305.692C715.407 305.079 715.727 304.495 716.106 303.949C716.469 303.423 716.903 302.949 717.397 302.542C717.894 302.133 718.457 301.81 719.062 301.587C719.699 301.339 720.378 301.216 721.062 301.226C721.809 301.209 722.548 301.387 723.205 301.742C723.822 302.074 724.36 302.536 724.78 303.097C725.204 303.671 725.527 304.312 725.735 304.995C725.951 305.706 726.06 306.446 726.058 307.189C726.056 307.843 725.991 308.496 725.864 309.138C725.731 309.789 725.532 310.425 725.27 311.035C725.039 311.648 724.74 312.232 724.38 312.778C724.014 313.307 723.58 313.784 723.089 314.198C722.583 314.595 722.022 314.917 721.424 315.153C720.783 315.389 720.106 315.507 719.423 315.502C718.672 315.518 717.93 315.34 717.268 314.985C716.663 314.669 716.131 314.229 715.706 313.694C715.283 313.115 714.961 312.47 714.751 311.784C714.507 311.06 714.377 310.302 714.363 309.538V309.538ZM716.622 308.635C716.626 309.067 716.66 309.498 716.725 309.925C716.788 310.364 716.892 310.797 717.035 311.216C717.167 311.616 717.34 312.001 717.551 312.365C717.746 312.708 717.99 313.021 718.274 313.294C718.554 313.559 718.877 313.773 719.23 313.927C719.599 314.075 719.993 314.149 720.391 314.146C720.815 314.159 721.234 314.056 721.605 313.849C721.958 313.649 722.269 313.381 722.521 313.062C722.78 312.717 722.992 312.339 723.153 311.939C723.319 311.519 723.452 311.088 723.554 310.648C723.649 310.222 723.722 309.791 723.773 309.358C723.773 308.919 723.773 308.506 723.773 308.067C723.776 307.634 723.742 307.202 723.67 306.776C723.605 306.339 723.506 305.907 723.373 305.485C723.235 305.088 723.062 304.703 722.857 304.336C722.655 303.994 722.408 303.682 722.121 303.407C721.842 303.151 721.524 302.942 721.179 302.787C720.809 302.64 720.415 302.566 720.017 302.568C719.567 302.544 719.12 302.647 718.726 302.865C718.373 303.062 718.066 303.33 717.823 303.652C717.557 303.993 717.343 304.371 717.19 304.775C717.024 305.195 716.891 305.626 716.79 306.066C716.689 306.491 716.615 306.922 716.571 307.357C716.635 307.86 716.635 308.273 716.635 308.635H716.622Z" fill="#DDDDDD"/>
<path d="M732.391 303.124C732.391 303.55 732.391 304.015 732.391 304.505C732.391 304.996 732.326 305.499 732.288 306.003C732.249 306.506 732.197 307.009 732.146 307.5C732.094 307.99 732.055 308.481 732.017 308.933C731.978 309.384 731.939 309.797 731.913 310.223C731.888 310.649 731.913 310.908 731.913 311.166C731.864 311.749 732.014 312.331 732.339 312.818C732.475 312.987 732.648 313.122 732.846 313.212C733.043 313.301 733.259 313.343 733.475 313.334C733.794 313.307 734.105 313.217 734.389 313.069C734.672 312.92 734.924 312.716 735.127 312.469C735.802 311.704 736.343 310.832 736.728 309.888C737.269 308.676 737.7 307.419 738.019 306.132C738.389 304.664 738.618 303.164 738.703 301.653L740.716 301.395H740.871C740.807 302.001 740.755 302.685 740.716 303.305C740.678 303.924 740.626 304.596 740.587 305.331C740.549 306.067 740.587 306.622 740.497 307.293C740.407 307.965 740.497 308.584 740.497 309.088C740.486 309.93 740.546 310.772 740.678 311.605C740.756 312.141 740.913 312.663 741.142 313.153C741.28 313.468 741.504 313.736 741.788 313.928C742.009 314.065 742.263 314.141 742.524 314.147C742.665 314.166 742.808 314.166 742.949 314.147L743.363 314.018L743.698 313.838L743.969 313.67L744.279 314.109C744.087 314.301 743.88 314.478 743.659 314.638C743.426 314.804 743.18 314.951 742.924 315.077C742.663 315.198 742.39 315.293 742.11 315.361C741.828 315.433 741.537 315.468 741.246 315.464C740.877 315.468 740.512 315.393 740.174 315.244C739.814 315.083 739.499 314.834 739.258 314.522C738.964 314.109 738.75 313.645 738.625 313.153C738.444 312.459 738.362 311.742 738.38 311.024C738.38 310.766 738.38 310.482 738.38 310.21C738.38 309.939 738.38 309.643 738.38 309.333C738.38 309.023 738.445 308.687 738.483 308.326C738.522 307.965 738.574 307.577 738.625 307.151H738.522C738.174 308.519 737.708 309.853 737.128 311.14C736.717 312.059 736.197 312.926 735.579 313.721C735.153 314.295 734.612 314.774 733.992 315.128C733.607 315.361 733.176 315.504 732.729 315.546C732.282 315.589 731.831 315.53 731.41 315.374C731.075 315.242 730.774 315.034 730.532 314.767C730.252 314.443 730.042 314.065 729.913 313.657C729.744 313.101 729.666 312.521 729.68 311.94C729.68 311.501 729.68 310.985 729.758 310.404C729.835 309.823 729.861 309.204 729.913 308.545C729.964 307.887 730.029 307.255 730.08 306.493C730.132 305.732 730.158 305.086 730.158 304.402C730.158 304.131 730.158 303.886 730.158 303.679C730.146 303.505 730.102 303.334 730.029 303.176C729.974 303.053 729.878 302.952 729.758 302.892C729.596 302.818 729.419 302.783 729.242 302.789C728.964 302.799 728.687 302.833 728.415 302.892C728.045 302.953 727.679 303.035 727.318 303.137L727.176 302.466C727.705 302.272 728.183 302.117 728.622 301.988C729.061 301.859 729.474 301.73 729.822 301.653C730.171 301.575 730.468 301.485 730.713 301.446C730.889 301.434 731.066 301.434 731.242 301.446C731.438 301.441 731.632 301.481 731.81 301.562C731.954 301.653 732.074 301.777 732.159 301.924C732.257 302.099 732.318 302.292 732.339 302.492C732.371 302.701 732.388 302.912 732.391 303.124Z" fill="#DDDDDD"/>
<path d="M761.523 315.367C761.355 314.18 761.136 312.928 760.878 311.65C760.62 310.372 760.349 309.068 760.052 307.778C759.884 308.165 759.677 308.578 759.458 309.068L758.761 310.359C758.503 310.811 758.245 311.288 757.974 311.753C757.703 312.218 757.432 312.682 757.16 313.134C756.889 313.586 756.631 313.999 756.373 314.425L755.624 315.535L754.592 315.419C754.502 314.812 754.411 314.128 754.308 313.509C754.205 312.889 754.076 312.218 753.946 311.482C753.817 310.746 753.688 310.191 753.546 309.481C753.404 308.771 753.288 308.191 753.146 307.61C753.004 307.029 752.875 306.474 752.746 305.983C752.617 305.493 752.501 305.067 752.41 304.693C752.32 304.318 752.152 303.957 752.049 303.712C751.959 303.499 751.842 303.3 751.701 303.118C751.605 302.99 751.475 302.892 751.326 302.834C751.181 302.781 751.028 302.755 750.874 302.756C750.66 302.738 750.444 302.738 750.229 302.756L749.403 302.937L749.261 302.253C750.1 301.956 750.836 301.724 751.455 301.569C751.875 301.438 752.308 301.356 752.746 301.324C752.896 301.322 753.045 301.348 753.185 301.401C753.341 301.472 753.481 301.573 753.598 301.698C753.743 301.873 753.869 302.063 753.972 302.266C754.111 302.561 754.223 302.868 754.308 303.182C754.398 303.441 754.489 303.776 754.605 304.176C754.721 304.576 754.824 305.015 754.94 305.467C755.057 305.919 755.173 306.5 755.302 307.068C755.431 307.636 755.547 308.242 755.676 308.862C755.805 309.481 755.908 310.153 756.012 310.746C756.115 311.34 756.231 312.037 756.321 312.657L756.799 311.869C756.98 311.547 757.173 311.211 757.367 310.837C757.561 310.462 757.767 310.101 757.974 309.714C758.18 309.326 758.348 308.939 758.516 308.578C758.684 308.216 758.838 307.868 758.968 307.558C759.077 307.294 759.168 307.022 759.239 306.745C759.277 306.597 759.303 306.446 759.316 306.293C759.329 306.147 759.329 306 759.316 305.854C759.316 305.661 759.316 305.454 759.316 305.222C759.316 304.989 759.252 304.783 759.213 304.551C759.174 304.318 759.122 304.099 759.071 303.866C759.019 303.634 758.968 303.428 758.916 303.221C758.881 303.09 758.86 302.956 758.851 302.821C758.847 302.732 758.862 302.643 758.895 302.561C758.928 302.478 758.98 302.404 759.045 302.343C759.236 302.219 759.463 302.16 759.69 302.176C759.905 302.175 760.118 302.205 760.323 302.266C760.529 302.314 760.728 302.388 760.917 302.485L761.536 304.951C761.743 305.816 761.949 306.68 762.156 307.532C762.362 308.384 762.556 309.288 762.737 310.114C762.917 310.94 763.085 311.818 763.227 312.618C763.679 311.921 764.105 311.198 764.518 310.462C764.937 309.757 765.316 309.029 765.654 308.281C765.981 307.577 766.248 306.848 766.454 306.1C766.655 305.416 766.759 304.708 766.764 303.996C766.764 303.712 766.764 303.441 766.764 303.169C766.722 302.905 766.653 302.645 766.557 302.395C766.469 302.145 766.343 301.91 766.183 301.698C766.026 301.499 765.843 301.321 765.641 301.169L765.744 300.936H766.08H766.389C767.069 300.884 767.742 301.102 768.261 301.543C768.467 301.764 768.626 302.024 768.728 302.308C768.83 302.592 768.873 302.894 768.855 303.195C768.841 303.818 768.736 304.435 768.545 305.028C768.309 305.756 768.025 306.468 767.693 307.158C767.345 307.907 766.945 308.668 766.506 309.443C766.067 310.217 765.615 310.966 765.15 311.689C764.686 312.411 764.234 313.096 763.782 313.741C763.33 314.386 762.943 314.941 762.595 315.419L761.523 315.367Z" fill="#DDDDDD"/>
<path d="M778.202 305.253C778.214 304.81 778.13 304.37 777.957 303.962C777.812 303.616 777.592 303.307 777.311 303.059C777.046 302.83 776.739 302.655 776.408 302.542C776.085 302.426 775.744 302.365 775.401 302.362C775.017 302.353 774.633 302.406 774.265 302.516C773.99 302.589 773.735 302.722 773.517 302.904C773.327 303.055 773.184 303.256 773.103 303.485C773.014 303.715 772.97 303.96 772.974 304.207C772.974 304.521 773.031 304.831 773.142 305.124C773.255 305.443 773.416 305.744 773.62 306.014V306.118C773.285 306.292 772.913 306.385 772.536 306.389C772.329 306.388 772.124 306.353 771.929 306.286C771.752 306.224 771.59 306.128 771.451 306.002C771.315 305.869 771.206 305.711 771.129 305.537C771.048 305.34 771.009 305.13 771.012 304.917C771.01 304.551 771.104 304.191 771.284 303.872C771.467 303.532 771.707 303.227 771.993 302.968C772.309 302.685 772.655 302.438 773.026 302.233C773.419 302.028 773.825 301.847 774.239 301.69C774.661 301.548 775.093 301.436 775.53 301.355C775.917 301.281 776.311 301.242 776.705 301.239C777.284 301.221 777.861 301.308 778.409 301.497C778.848 301.659 779.242 301.925 779.557 302.271C779.863 302.65 780.083 303.09 780.203 303.562C780.343 304.093 780.412 304.64 780.409 305.188C780.409 305.601 780.409 306.066 780.345 306.57C780.28 307.073 780.345 307.589 780.229 308.131C780.112 308.673 780.151 309.241 780.112 309.822C780.074 310.403 780.112 310.984 780.112 311.565C780.062 312.281 780.238 312.994 780.616 313.604C780.759 313.816 780.951 313.989 781.176 314.111C781.401 314.232 781.651 314.297 781.907 314.301C782.487 314.269 783.049 314.081 783.533 313.759L783.804 314.159C783.407 314.564 782.939 314.892 782.423 315.127C781.927 315.348 781.391 315.463 780.848 315.463C780.46 315.469 780.074 315.399 779.712 315.256C779.37 315.117 779.062 314.906 778.809 314.637C778.54 314.336 778.342 313.979 778.228 313.591C778.075 313.125 778.001 312.636 778.008 312.146C778.008 311.978 778.008 311.823 778.008 311.655C778.008 311.487 778.008 311.32 778.008 311.139C777.726 311.69 777.412 312.225 777.066 312.739C776.723 313.247 776.33 313.718 775.892 314.146C775.486 314.546 775.025 314.885 774.523 315.153C774.057 315.409 773.533 315.542 773 315.54C772.593 315.546 772.188 315.467 771.813 315.308C771.463 315.168 771.147 314.957 770.883 314.688C770.625 314.416 770.424 314.096 770.29 313.746C770.144 313.367 770.069 312.965 770.07 312.559C770.069 312.035 770.175 311.517 770.38 311.036C770.588 310.583 770.877 310.172 771.232 309.822C771.614 309.446 772.048 309.129 772.523 308.88C773.051 308.611 773.604 308.395 774.175 308.235C774.79 308.05 775.421 307.92 776.059 307.847C776.731 307.755 777.408 307.707 778.086 307.705C778.086 307.318 778.163 306.931 778.202 306.557C778.241 306.182 778.202 305.692 778.202 305.253ZM772.381 311.707C772.38 311.946 772.406 312.184 772.458 312.417C772.512 312.623 772.6 312.819 772.716 312.998C772.828 313.17 772.984 313.308 773.168 313.398C773.366 313.505 773.589 313.558 773.813 313.553C774.118 313.551 774.418 313.48 774.691 313.346C775.016 313.207 775.32 313.025 775.595 312.804C775.899 312.551 776.18 312.27 776.434 311.965C776.708 311.636 776.95 311.282 777.157 310.906C777.38 310.496 777.562 310.063 777.699 309.616C777.838 309.197 777.929 308.764 777.97 308.325C777.508 308.329 777.047 308.359 776.589 308.415C776.153 308.454 775.722 308.527 775.298 308.635C774.902 308.729 774.517 308.863 774.149 309.035C773.81 309.182 773.5 309.387 773.233 309.642C772.973 309.885 772.766 310.179 772.626 310.506C772.451 310.9 772.367 311.328 772.381 311.758V311.707Z" fill="#DDDDDD"/>
<path d="M786.186 304.094C786.209 303.875 786.209 303.655 786.186 303.436C786.159 303.288 786.102 303.148 786.018 303.023C785.941 302.921 785.839 302.841 785.721 302.79C785.58 302.769 785.437 302.769 785.295 302.79C785.022 302.798 784.749 302.832 784.482 302.894C784.16 302.894 783.798 303.036 783.398 303.139L783.256 302.468C783.708 302.3 784.134 302.158 784.547 302.029L785.696 301.693C786.044 301.603 786.341 301.526 786.612 301.474C786.816 301.429 787.023 301.403 787.232 301.396C787.39 301.389 787.548 301.414 787.697 301.469C787.846 301.525 787.981 301.61 788.096 301.719C788.328 302.045 788.433 302.444 788.393 302.842C788.393 302.92 788.393 303.062 788.393 303.294C788.393 303.526 788.393 303.81 788.393 304.172C788.393 304.533 788.393 304.933 788.316 305.385C788.238 305.837 788.251 306.327 788.2 306.843C788.148 307.36 788.109 307.902 788.058 308.457C788.006 309.012 787.967 309.554 787.903 310.109C788.303 308.693 788.816 307.312 789.439 305.979C789.893 305.01 790.456 304.096 791.117 303.255C791.579 302.644 792.158 302.13 792.821 301.745C793.306 301.456 793.857 301.296 794.421 301.28C794.774 301.279 795.125 301.345 795.454 301.474C795.788 301.613 796.085 301.83 796.319 302.106C796.596 302.437 796.806 302.819 796.938 303.229C797.098 303.77 797.177 304.331 797.171 304.894C797.171 305.088 797.171 305.333 797.171 305.656C797.171 305.979 797.171 306.327 797.093 306.727C797.016 307.127 797.016 307.528 796.977 308.018C796.938 308.509 796.977 308.896 796.874 309.309C796.77 309.722 796.809 310.148 796.796 310.522C796.783 310.897 796.796 311.232 796.796 311.516C796.771 311.92 796.771 312.325 796.796 312.729C796.815 312.982 796.885 313.228 797.003 313.452C797.078 313.618 797.211 313.752 797.377 313.827C797.562 313.899 797.759 313.934 797.958 313.93C798.302 313.925 798.645 313.878 798.978 313.788C799.346 313.691 799.704 313.562 800.049 313.401L800.23 313.904C799.956 314.111 799.667 314.296 799.365 314.459C799.01 314.654 798.644 314.827 798.268 314.975C797.902 315.139 797.521 315.268 797.132 315.363C796.804 315.458 796.466 315.51 796.125 315.517C795.979 315.526 795.833 315.506 795.696 315.457C795.558 315.408 795.432 315.332 795.325 315.233C795.112 315.03 794.96 314.77 794.886 314.485C794.774 314.125 794.709 313.752 794.692 313.375C794.692 312.953 794.692 312.523 794.692 312.084C794.692 311.49 794.692 310.871 794.692 310.251C794.692 309.632 794.783 308.96 794.834 308.444C794.886 307.928 794.937 307.36 794.976 306.895C795.015 306.43 795.041 306.069 795.041 305.785C795.087 305.206 794.937 304.629 794.615 304.146C794.487 303.975 794.319 303.838 794.125 303.748C793.931 303.658 793.718 303.617 793.505 303.629C793.081 303.652 792.677 303.816 792.356 304.094C791.891 304.463 791.482 304.898 791.143 305.385C790.701 305.984 790.316 306.624 789.994 307.295C789.603 308.067 789.266 308.865 788.987 309.683C788.682 310.561 788.437 311.458 788.251 312.368C788.051 313.29 787.925 314.227 787.877 315.169L785.902 315.414H785.747C785.747 314.808 785.85 314.123 785.889 313.452L786.005 311.297C786.005 310.561 786.083 309.838 786.109 309.128C786.134 308.418 786.109 307.734 786.186 307.115C786.263 306.495 786.186 305.927 786.186 305.437C786.186 304.946 786.186 304.378 786.186 304.094Z" fill="#DDDDDD"/>
<path d="M806.201 294.505C805.929 295.705 805.71 296.945 805.529 298.222C805.349 299.5 805.194 300.804 805.065 302.017H805.929H806.717H807.879C808.354 302.023 808.829 301.988 809.298 301.914C809.298 302.017 809.298 302.121 809.376 302.198C809.381 302.284 809.381 302.37 809.376 302.456C809.387 302.571 809.359 302.686 809.295 302.783C809.232 302.879 809.137 302.95 809.027 302.985C808.702 303.087 808.361 303.13 808.021 303.114C807.607 303.114 807.143 303.089 806.626 303.037C806.11 303.037 805.555 302.934 804.936 302.895C804.871 303.579 804.806 304.186 804.768 304.87C804.729 305.554 804.677 306.161 804.652 306.69C804.626 307.219 804.652 307.787 804.587 308.265C804.523 308.742 804.587 309.181 804.587 309.555C804.582 310.16 804.621 310.764 804.703 311.362C804.756 311.809 804.878 312.244 805.065 312.653C805.227 312.996 805.482 313.286 805.8 313.492C806.153 313.706 806.563 313.81 806.975 313.789C807.36 313.78 807.742 313.719 808.111 313.608C808.61 313.462 809.095 313.268 809.557 313.028C809.722 313.199 809.823 313.423 809.84 313.66C809.458 313.914 809.061 314.147 808.653 314.357C808.274 314.568 807.882 314.754 807.478 314.912C807.116 315.05 806.745 315.166 806.368 315.261C806.029 315.335 805.683 315.374 805.336 315.377C804.936 315.386 804.539 315.307 804.174 315.144C803.801 314.966 803.487 314.683 803.271 314.331C802.978 313.838 802.777 313.296 802.677 312.731C802.515 311.88 802.441 311.015 802.457 310.149C802.457 309.581 802.457 308.987 802.457 308.381C802.457 307.774 802.457 307.09 802.535 306.522C802.612 305.954 802.535 305.231 802.651 304.638C802.767 304.044 802.754 303.347 802.819 302.792H801.425C801.059 302.819 800.697 302.875 800.34 302.96C800.328 302.917 800.328 302.873 800.34 302.831C800.341 302.757 800.359 302.685 800.392 302.62C800.426 302.555 800.475 302.499 800.534 302.456C800.697 302.322 800.88 302.213 801.076 302.134C801.344 302.031 801.62 301.953 801.902 301.901C802.251 301.829 802.605 301.786 802.961 301.772C803.116 300.481 803.258 299.191 803.425 298.016C803.593 296.841 803.748 295.796 803.916 294.879C803.944 294.73 804.006 294.589 804.097 294.466C804.177 294.361 804.278 294.273 804.393 294.208C804.509 294.152 804.63 294.108 804.755 294.079H805.155C805.342 294.079 805.528 294.101 805.71 294.144C805.885 294.248 806.049 294.369 806.201 294.505V294.505Z" fill="#DDDDDD"/>
<path d="M813.142 315.363C812.932 315.37 812.724 315.326 812.535 315.234C812.36 315.142 812.206 315.015 812.083 314.86C811.959 314.706 811.862 314.531 811.799 314.343C811.733 314.152 811.698 313.952 811.696 313.75C811.688 313.487 811.741 313.227 811.851 312.988C811.934 312.774 812.061 312.581 812.225 312.42C812.375 312.278 812.55 312.164 812.741 312.085C812.922 312.004 813.118 311.962 813.316 311.962C813.514 311.962 813.71 312.004 813.89 312.085C814.062 312.166 814.218 312.275 814.355 312.407C814.483 312.551 814.584 312.717 814.652 312.898C814.721 313.088 814.756 313.289 814.755 313.491C814.754 313.72 814.715 313.947 814.639 314.163C814.485 314.592 814.189 314.957 813.8 315.195C813.597 315.304 813.371 315.361 813.142 315.363V315.363Z" fill="#DDDDDD"/>
<path d="M371.496 164.945C373.269 167.527 375.02 170.147 376.75 172.806H376.879C376.685 170.005 376.595 167.127 376.595 164.209V148.811H380.144V177.724H376.621L365.275 161.602C363.313 158.788 361.57 156.168 360.021 153.741H359.892C360.09 156.374 360.185 159.446 360.176 162.957V177.737H356.652V148.811H360.15L371.496 164.945Z" fill="#DDDDDD"/>
<path d="M384.55 177.737L396.322 148.811H399.368L411.153 177.724H407.281L403.822 169.011H391.74L388.281 177.724L384.55 177.737ZM397.794 153.315C396.503 156.921 395.272 160.191 394.102 163.125L393.018 165.849H402.595L401.498 163.125C400.324 160.131 399.11 156.865 397.884 153.315H397.794Z" fill="#DDDDDD"/>
<path d="M423.628 177.737H420.117V151.999H410.449V148.811H433.295V151.986H423.628V177.737Z" fill="#DDDDDD"/>
<path d="M437.813 177.737V148.811H441.337V177.724L437.813 177.737Z" fill="#DDDDDD"/>
<path d="M474.544 163.303C474.567 165.351 474.249 167.388 473.601 169.331C473.026 171.07 472.109 172.676 470.904 174.056C469.734 175.383 468.289 176.44 466.67 177.153C464.926 177.921 463.037 178.304 461.132 178.276C459.181 178.31 457.245 177.927 455.453 177.153C453.824 176.451 452.373 175.392 451.206 174.056C450.013 172.674 449.109 171.068 448.547 169.331C447.915 167.386 447.605 165.349 447.631 163.303C447.605 161.243 447.924 159.193 448.573 157.237C449.162 155.497 450.083 153.889 451.284 152.5C452.451 151.166 453.896 150.105 455.518 149.389C457.277 148.629 459.177 148.251 461.094 148.279C463.031 148.25 464.953 148.628 466.734 149.389C468.356 150.105 469.801 151.166 470.968 152.5C472.162 153.885 473.066 155.496 473.627 157.237C474.261 159.195 474.571 161.245 474.544 163.303V163.303ZM471.046 163.303C471.076 161.552 470.818 159.808 470.284 158.14C469.837 156.774 469.122 155.51 468.18 154.423C467.29 153.45 466.197 152.683 464.979 152.177C462.466 151.161 459.657 151.161 457.144 152.177C455.932 152.686 454.847 153.457 453.969 154.436C453.022 155.519 452.306 156.784 451.865 158.153C451.324 159.82 451.067 161.565 451.103 163.316C451.067 165.069 451.329 166.815 451.878 168.479C452.332 169.842 453.051 171.101 453.994 172.184C454.893 173.153 456.001 173.904 457.234 174.378C458.488 174.89 459.83 175.149 461.184 175.14C462.513 175.146 463.829 174.887 465.056 174.378C466.259 173.872 467.335 173.105 468.206 172.132C469.145 171.048 469.86 169.789 470.31 168.428C470.834 166.771 471.083 165.04 471.046 163.303V163.303Z" fill="#DDDDDD"/>
<path d="M495.844 164.945C497.617 167.527 499.364 170.147 501.085 172.806H501.214C501.033 170.005 500.943 167.127 500.943 164.209V148.811H504.479V177.724H500.955L489.622 161.602C487.661 158.788 485.909 156.168 484.369 153.741H484.305C484.485 156.374 484.576 159.446 484.576 162.957V177.737H481.065V148.811H484.563L495.844 164.945Z" fill="#DDDDDD"/>
<path d="M508.877 177.737L520.649 148.811H523.695L535.467 177.724H531.594L528.174 169.024H516.079L512.684 177.737H508.877ZM522.146 153.315C520.855 156.921 519.62 160.191 518.441 163.125L517.357 165.849H526.947L525.85 163.125C524.663 160.131 523.454 156.861 522.223 153.315H522.146Z" fill="#DDDDDD"/>
<path d="M543.393 148.811V174.626H557.501V177.801H539.869V148.811H543.393Z" fill="#DDDDDD"/>
<path d="M575.294 177.737H571.77V148.811H589.015V151.986H575.294V161.331H587.53V164.506H575.358L575.294 177.737Z" fill="#DDDDDD"/>
<path d="M597.637 174.626H612.468V177.801H594.126V148.811H611.668V151.986H597.637V161.331H610.106V164.506H597.637V174.626Z" fill="#DDDDDD"/>
<path d="M641.977 163.151C641.987 164.755 641.779 166.353 641.357 167.901C640.956 169.336 640.314 170.694 639.46 171.915C638.6 173.117 637.533 174.157 636.31 174.987C634.954 175.895 633.459 176.575 631.883 177.001C630.862 177.286 629.816 177.476 628.76 177.569C627.546 177.687 626.326 177.743 625.107 177.737H618.575V148.811H625.184C626.475 148.811 627.766 148.811 628.837 148.965C629.893 149.069 630.938 149.263 631.961 149.546C633.533 149.969 635.027 150.64 636.388 151.534C637.598 152.345 638.655 153.363 639.512 154.542C640.356 155.712 640.985 157.023 641.37 158.414C641.794 159.957 641.998 161.551 641.977 163.151ZM638.479 163.151C638.592 160.76 637.951 158.394 636.646 156.387C635.351 154.596 633.492 153.291 631.367 152.683C630.407 152.398 629.421 152.212 628.424 152.128C627.353 152.025 626.126 151.973 624.771 151.973H622.073V174.626H624.771C626.126 174.626 627.353 174.626 628.424 174.471C629.423 174.389 630.409 174.198 631.367 173.903C633.523 173.28 635.392 171.919 636.646 170.057C637.944 167.994 638.583 165.586 638.479 163.151V163.151Z" fill="#DDDDDD"/>
<path d="M651.696 174.626H666.527V177.801H648.198V148.811H665.74V151.986H651.696V161.331H664.165V164.506H651.696V174.626Z" fill="#DDDDDD"/>
<path d="M676.158 165.758V177.737H672.647V148.811H680.134C681.424 148.811 682.47 148.811 683.36 148.953C684.179 149.036 684.991 149.183 685.787 149.391C687.585 149.813 689.203 150.793 690.408 152.192C691.496 153.6 692.058 155.345 691.996 157.123C692.017 158.195 691.828 159.26 691.441 160.26C691.084 161.159 690.548 161.975 689.866 162.66C689.154 163.345 688.329 163.899 687.426 164.3C686.424 164.746 685.371 165.067 684.29 165.255V165.332L692.848 177.698H689.324L680.418 165.72L676.158 165.758ZM676.158 151.999V162.583H679.643C680.727 162.583 681.644 162.583 682.405 162.48C683.1 162.415 683.787 162.285 684.458 162.093C685.562 161.791 686.551 161.166 687.297 160.298C687.991 159.37 688.342 158.23 688.291 157.071C688.324 155.997 687.987 154.945 687.336 154.09C686.661 153.295 685.761 152.724 684.754 152.451C684.146 152.279 683.524 152.163 682.896 152.102C682.173 152.102 681.257 151.999 680.146 151.999H676.158Z" fill="#DDDDDD"/>
<path d="M695.821 177.737L707.554 148.811H710.6L722.372 177.724H718.5L715.04 169.011H702.959L699.5 177.724L695.821 177.737ZM709.09 153.315C707.799 156.921 706.569 160.191 705.398 163.125L704.314 165.849H713.905L712.807 163.125C711.62 160.131 710.411 156.861 709.18 153.315H709.09Z" fill="#DDDDDD"/>
<path d="M734.903 177.737H731.379V151.999H721.724V148.811H744.558V151.986H734.903V177.737Z" fill="#DDDDDD"/>
<path d="M749.073 177.737V148.811H752.584V177.724L749.073 177.737Z" fill="#DDDDDD"/>
<path d="M785.818 163.303C785.835 165.351 785.517 167.387 784.875 169.331C784.291 171.069 783.37 172.674 782.165 174.056C780.997 175.386 779.552 176.443 777.931 177.153C776.187 177.921 774.299 178.304 772.394 178.276C770.442 178.31 768.506 177.927 766.714 177.153C765.085 176.451 763.634 175.392 762.468 174.056C761.279 172.671 760.375 171.066 759.809 169.331C759.182 167.384 758.873 165.349 758.892 163.303C758.864 161.242 759.187 159.19 759.847 157.237C760.427 155.496 761.343 153.886 762.545 152.5C763.715 151.169 765.16 150.108 766.779 149.389C768.538 148.629 770.439 148.251 772.355 148.279C774.292 148.25 776.214 148.628 777.996 149.389C779.619 150.101 781.064 151.164 782.229 152.5C783.428 153.882 784.332 155.494 784.888 157.237C785.527 159.195 785.841 161.244 785.818 163.303ZM782.307 163.303C782.343 161.552 782.086 159.807 781.545 158.14C781.103 156.771 780.388 155.506 779.441 154.423C778.565 153.448 777.486 152.677 776.279 152.164C773.761 151.149 770.948 151.149 768.431 152.164C767.222 152.673 766.142 153.445 765.269 154.423C764.303 155.506 763.569 156.776 763.113 158.153C762.579 159.821 762.321 161.565 762.351 163.316C762.316 165.069 762.577 166.815 763.126 168.479C763.58 169.842 764.3 171.101 765.243 172.184C766.118 173.163 767.204 173.93 768.418 174.43C769.667 174.942 771.005 175.201 772.355 175.191C773.683 175.198 775 174.939 776.227 174.43C777.43 173.923 778.506 173.156 779.377 172.184C780.32 171.103 781.036 169.843 781.481 168.479C782.048 166.814 782.327 165.063 782.307 163.303V163.303Z" fill="#DDDDDD"/>
<path d="M807.096 164.945C808.86 167.527 810.611 170.147 812.349 172.806H812.478C812.285 170.005 812.194 167.127 812.194 164.209V148.811H815.731V177.724H812.22L800.874 161.602C798.912 158.788 797.161 156.168 795.621 153.741H795.492C795.673 156.323 795.776 159.446 795.776 162.957V177.737H792.252V148.811H795.75L807.096 164.945Z" fill="#DDDDDD"/>
<path d="M402.108 222.775C402.151 226.37 401.592 229.947 400.456 233.359C399.44 236.422 397.826 239.252 395.706 241.684C393.648 244.014 391.112 245.871 388.271 247.131C385.198 248.468 381.876 249.133 378.526 249.08C375.1 249.14 371.7 248.476 368.548 247.131C365.691 245.886 363.144 244.026 361.087 241.684C359.015 239.242 357.448 236.412 356.479 233.359C354.282 226.43 354.282 218.99 356.479 212.061C357.507 209.004 359.12 206.176 361.229 203.736C363.285 201.395 365.827 199.532 368.677 198.276C371.755 196.961 375.076 196.315 378.422 196.378C381.831 196.32 385.214 196.984 388.348 198.327C391.197 199.581 393.735 201.444 395.783 203.787C397.889 206.204 399.491 209.017 400.494 212.061C401.613 215.52 402.158 219.139 402.108 222.775V222.775ZM395.964 222.775C396.031 219.712 395.595 216.66 394.673 213.739C393.888 211.336 392.628 209.115 390.969 207.208C389.426 205.49 387.522 204.137 385.392 203.245C380.979 201.438 376.033 201.438 371.62 203.245C369.491 204.137 367.586 205.49 366.044 207.208C364.384 209.115 363.124 211.336 362.339 213.739C361.417 216.66 360.981 219.712 361.049 222.775C360.99 225.842 361.453 228.897 362.417 231.81C363.206 234.21 364.47 236.427 366.134 238.328C367.674 240.046 369.579 241.396 371.71 242.278C373.907 243.165 376.26 243.604 378.629 243.569C380.977 243.606 383.309 243.166 385.483 242.278C387.598 241.388 389.49 240.039 391.02 238.328C392.68 236.426 393.94 234.209 394.725 231.81C395.633 228.887 396.052 225.834 395.964 222.775V222.775Z" fill="#DDDDDD"/>
<path d="M419.743 248.199H413.548V197.317H443.855V202.906H419.743V219.312H441.119V224.888H419.743V248.199Z" fill="#DDDDDD"/>
<path d="M481.246 248.199H475.05V203.023H458.076V197.317H498.219V202.906H481.246V248.199Z" fill="#DDDDDD"/>
<path d="M512.392 219.312H539.021V197.369H545.204V248.199H539.021V224.966H512.392V248.199H506.248V197.317H512.431L512.392 219.312Z" fill="#DDDDDD"/>
<path d="M564.346 242.559H590.407V248.199H558.138V197.317H588.974V202.906H564.346V219.312H586.289V224.888H564.346V242.559Z" fill="#DDDDDD"/>
<path d="M641.249 221.855C642.718 222.066 644.146 222.501 645.482 223.146C646.692 223.721 647.785 224.513 648.709 225.482C649.634 226.444 650.35 227.587 650.813 228.838C651.321 230.271 651.566 231.784 651.536 233.304C651.528 234.565 651.354 235.819 651.02 237.034C650.637 238.387 650.045 239.672 649.264 240.842C648.391 242.138 647.314 243.284 646.076 244.237C644.6 245.37 642.941 246.242 641.171 246.818C639.55 247.353 637.875 247.708 636.176 247.877C633.993 248.101 631.8 248.204 629.606 248.187H616.569V197.317H629.103C630.251 197.317 631.297 197.317 632.239 197.317C633.181 197.317 634.033 197.408 634.821 197.485C635.608 197.563 636.331 197.653 637.015 197.769C637.699 197.885 638.306 198.014 638.925 198.169C640.429 198.568 641.874 199.163 643.224 199.938C644.46 200.642 645.572 201.544 646.515 202.61C647.41 203.657 648.114 204.854 648.593 206.146C649.093 207.519 649.342 208.971 649.329 210.432C649.329 211.637 649.182 212.838 648.89 214.007C648.603 215.129 648.128 216.194 647.483 217.156C646.803 218.154 645.956 219.028 644.979 219.738C643.836 220.558 642.573 221.198 641.236 221.635L641.249 221.855ZM632.213 219.273C633.265 219.278 634.317 219.222 635.363 219.106C636.173 219.008 636.973 218.835 637.751 218.589C639.441 218.11 640.914 217.061 641.92 215.62C642.806 214.202 643.255 212.555 643.211 210.883C643.283 209.241 642.802 207.623 641.842 206.288C640.737 204.964 639.234 204.031 637.557 203.629C636.464 203.325 635.345 203.126 634.214 203.035C632.923 202.919 631.452 202.868 629.735 202.868H622.778V219.273H632.213ZM622.791 224.849V242.52H630.277C631.924 242.525 633.57 242.438 635.208 242.262C636.524 242.149 637.822 241.89 639.08 241.487C640.142 241.164 641.144 240.671 642.049 240.029C642.808 239.488 643.467 238.82 643.998 238.054C644.486 237.356 644.849 236.579 645.069 235.756C645.28 234.947 645.388 234.115 645.392 233.278C645.396 232.363 645.279 231.452 645.044 230.568C644.831 229.741 644.449 228.967 643.921 228.296C643.358 227.584 642.666 226.984 641.881 226.527C640.893 225.968 639.82 225.572 638.706 225.353C637.856 225.159 636.993 225.029 636.124 224.966C635.156 224.888 633.943 224.849 632.497 224.849H622.791Z" fill="#DDDDDD"/>
<path d="M668.832 197.317V242.559H693.628V248.199H662.65V197.317H668.832Z" fill="#DDDDDD"/>
<path d="M703.184 248.199V197.317H709.366V248.199H703.184Z" fill="#DDDDDD"/>
<path d="M748.371 225.647C751.486 230.122 754.562 234.73 757.6 239.471H757.819C757.501 234.54 757.337 229.502 757.329 224.356V197.25H763.563V248.197H757.367L737.425 219.8C733.983 214.869 730.906 210.261 728.196 205.976H727.976C728.303 210.605 728.467 216.009 728.467 222.188V248.197H722.271V197.315H728.428L748.371 225.647Z" fill="#DDDDDD"/>
<path d="M817.6 222.5C817.62 225.321 817.251 228.132 816.503 230.852C815.807 233.375 814.68 235.759 813.173 237.899C811.667 240.02 809.791 241.852 807.635 243.307C805.264 244.901 802.648 246.096 799.891 246.844C798.091 247.341 796.251 247.678 794.392 247.851C792.417 248.045 790.275 248.135 787.938 248.135H776.438V197.317H788.054C790.365 197.317 792.495 197.421 794.508 197.601C796.372 197.774 798.216 198.111 800.02 198.608C802.77 199.357 805.384 200.538 807.764 202.106C809.895 203.532 811.757 205.324 813.263 207.398C814.741 209.485 815.846 211.813 816.529 214.278C817.266 216.956 817.626 219.723 817.6 222.5V222.5ZM811.443 222.5C811.639 218.297 810.51 214.139 808.216 210.612C805.935 207.486 802.672 205.214 798.949 204.158C797.267 203.651 795.536 203.322 793.785 203.177C791.884 202.997 789.732 202.906 787.332 202.906H782.594V242.559H787.332C789.724 242.559 791.875 242.468 793.785 242.288C795.537 242.139 797.267 241.806 798.949 241.294C802.712 240.22 805.986 237.875 808.216 234.659C810.497 231.026 811.622 226.786 811.443 222.5V222.5Z" fill="#DDDDDD"/>
<path d="M309.154 161.718C309.154 180.615 265.126 193.484 256.233 191.406C267.475 191.535 309.477 166.714 302.287 149.095C306.392 155.381 308.483 159.537 309.154 161.718Z" fill="#DDDDDD"/>
<path d="M246.23 182.962C246.23 182.962 292.027 130.04 309.168 161.768C305.451 140.121 284.334 138.056 267.67 151.312C252.168 163.084 246.23 182.962 246.23 182.962Z" fill="#DDDDDD"/>
<path d="M330.958 125.889C326.453 129.039 324.504 134.034 326.595 137.042C328.686 140.049 334.043 139.92 338.548 136.784C343.053 133.647 345.002 128.639 342.911 125.644C340.82 122.65 335.463 122.753 330.958 125.889Z" fill="#DDDDDD"/>
<path d="M305.244 181.765C318.745 183.34 332.272 170.497 328.142 152.542C325.831 142.578 316.938 127.166 301.307 124.249C284.953 121.189 283.172 130.56 283.649 135.375C284.32 129.67 296.466 118.595 314.628 144.191C331.253 167.464 311.762 181.417 305.244 181.765Z" fill="#DDDDDD"/>
<path d="M289.809 124.738C301.064 121.563 314.411 137.31 319.69 153.587C318.46 150.241 316.77 147.083 314.669 144.203C296.469 118.672 283.445 136.73 282.774 142.422C282.413 138.911 281.122 127.539 289.809 124.738Z" fill="#DDDDDD"/>
<path d="M237.93 118.726C253.742 129.052 240.369 172.938 233.761 179.211C240.034 169.892 242.293 121.127 223.602 117.513C231.076 117.539 235.697 118.068 237.93 118.726Z" fill="#DDDDDD"/>
<path d="M221.232 182.991C221.232 182.991 202.025 115.665 238.012 118.724C217.863 109.973 204.568 126.469 206.53 147.715C207.859 167.128 221.232 182.991 221.232 182.991Z" fill="#DDDDDD"/>
<path d="M219.879 80.878C220.046 86.3766 223.144 90.7523 226.81 90.6362C230.476 90.52 233.264 85.9894 233.148 80.4907C233.031 74.9921 229.882 70.6293 226.165 70.7454C222.447 70.8616 219.711 75.3922 219.879 80.878Z" fill="#DDDDDD"/>
<path d="M252.488 132.987C261.214 122.558 257.871 104.203 240.588 97.8267C230.984 94.29 213.21 93.309 202.226 104.758C190.699 116.762 197.566 123.41 201.852 125.643C197.45 121.951 194.881 105.752 226.221 104.526C254.773 103.39 255.806 127.347 252.488 132.987Z" fill="#DDDDDD"/>
<path d="M196.34 114.64C199.864 103.475 220.335 100.945 236.857 105.45C233.383 104.633 229.811 104.316 226.247 104.507C194.894 105.746 202.897 126.541 207.273 130.219C204.188 128.593 193.939 123.443 196.34 114.64Z" fill="#DDDDDD"/>
<path d="M157.122 147.595C174.057 139.231 205.087 173.036 207.126 181.891C202.273 171.759 161.42 145.078 148.809 159.328C152.591 152.9 155.418 149.183 157.122 147.595Z" fill="#DDDDDD"/>
<path d="M203.997 194.643C203.997 194.643 136.245 177.024 157.129 147.595C139.368 160.502 146.868 180.367 166.165 189.429C183.577 198.128 203.997 194.643 203.997 194.643Z" fill="#DDDDDD"/>
<path d="M115.256 143.979C120.071 146.626 125.415 146.174 127.183 142.96C128.951 139.746 126.473 134.996 121.646 132.35C116.818 129.704 111.5 130.155 109.745 133.318C107.989 136.48 110.442 141.333 115.256 143.979Z" fill="#DDDDDD"/>
<path d="M176.784 142.351C172.228 129.443 154.725 122.989 140.449 134.697C132.536 141.15 122.649 155.968 126.947 171.277C131.439 187.295 140.655 184.74 144.747 182.184C139.352 184.107 124.095 178.105 138.926 150.47C152.453 125.3 173.583 136.594 176.784 142.351Z" fill="#DDDDDD"/>
<path d="M132.427 181.375C124.592 172.675 132.801 153.739 145.063 141.8C142.606 144.385 140.52 147.3 138.868 150.461C124.024 178.096 145.993 181.762 151.388 179.852C148.394 181.723 138.777 187.906 132.427 181.375Z" fill="#DDDDDD"/>
<path d="M147.56 182.074C146.772 181.752 147.03 180.241 147.03 180.241L220.708 166.043L220.475 167.502C220.475 167.502 149.251 181.687 147.56 182.074Z" fill="#DDDDDD"/>
<path d="M151.438 231.09C153.219 212.283 198.28 203.648 206.941 206.565C195.763 205.365 151.605 226.081 157.091 244.307C153.58 237.711 151.889 233.374 151.438 231.09Z" fill="#DDDDDD"/>
<path d="M216.092 215.927C216.092 215.927 165.481 264.318 151.438 231.08C153.09 253.023 173.923 257.038 191.761 245.408C208.309 235.159 216.092 215.927 216.092 215.927Z" fill="#DDDDDD"/>
<path d="M126.436 264.744C131.225 262.033 133.639 257.245 131.832 254.056C130.025 250.868 124.694 250.468 119.905 253.192C115.116 255.915 112.703 260.665 114.51 263.853C116.317 267.042 121.635 267.442 126.436 264.744Z" fill="#DDDDDD"/>
<path d="M157.267 211.555C143.985 208.702 129.296 220.216 131.71 238.48C133.065 248.613 140.448 264.799 155.744 269.187C171.737 273.783 174.396 264.618 174.383 259.778C173.169 265.393 160.042 275.267 144.334 248.058C130.019 223.326 150.749 211.284 157.267 211.555Z" fill="#DDDDDD"/>
<path d="M167.202 269.783C155.688 271.874 143.968 254.939 140.173 238.236C141.075 241.687 142.456 244.993 144.278 248.059C159.986 275.165 174.65 258.463 175.863 252.861C175.902 256.385 176.108 267.821 167.202 269.783Z" fill="#DDDDDD"/>
<path d="M175.825 257.328C175.128 257.819 173.979 256.799 173.979 256.799L200.608 186.697L201.731 187.652C201.731 187.652 176.329 255.676 175.825 257.328Z" fill="#DDDDDD"/>
<path d="M300.736 250.858C283.375 258.331 254.152 222.951 252.59 213.993C256.901 224.319 296.295 253.155 309.642 239.589C305.498 245.798 302.517 249.36 300.736 250.858Z" fill="#DDDDDD"/>
<path d="M256.407 201.417C256.407 201.417 323.153 222.546 300.758 250.853C319.164 238.888 312.711 218.661 293.943 208.606C277.008 199.003 256.407 201.417 256.407 201.417Z" fill="#DDDDDD"/>
<path d="M342.337 256.656C337.652 253.765 332.295 253.933 330.359 257.056C328.423 260.18 330.656 265.033 335.328 267.938C340.001 270.842 345.358 270.661 347.281 267.537C349.204 264.414 346.945 259.548 342.337 256.656Z" fill="#DDDDDD"/>
<path d="M280.77 255.132C284.642 268.156 301.822 275.513 316.666 264.619C324.914 258.527 335.55 244.328 332.065 228.839C328.399 212.601 319.08 214.641 314.846 217.016C320.345 215.376 335.279 222.179 319.015 248.988C304.197 273.383 283.674 260.979 280.77 255.132Z" fill="#DDDDDD"/>
<path d="M327.047 218.422C334.418 227.457 325.227 245.993 312.358 257.274C314.949 254.82 317.187 252.018 319.006 248.948C335.27 222.139 313.533 217.312 308.034 218.938C311.119 217.221 321.045 211.555 327.047 218.422Z" fill="#DDDDDD"/>
<path d="M203.433 128.015C203.317 127.163 204.724 126.621 204.724 126.621L254.302 182.912L252.934 183.454C252.934 183.454 204.621 129.267 203.433 128.015Z" fill="#DDDDDD"/>
<path d="M220.299 280.311C204.809 269.417 219.757 226.021 226.572 219.993C219.976 229.106 216.026 277.729 234.562 281.95C227.101 281.756 222.506 281.047 220.299 280.311Z" fill="#DDDDDD"/>
<path d="M239.231 216.665C239.231 216.665 256.011 284.624 220.244 280.313C240.07 289.761 253.933 273.691 252.72 252.432C252.049 232.98 239.231 216.665 239.231 216.665Z" fill="#DDDDDD"/>
<path d="M237.055 318.766C237.055 313.268 234.125 308.789 230.46 308.763C226.794 308.737 223.812 313.19 223.786 318.689C223.76 324.187 226.703 328.654 230.356 328.679C234.009 328.705 237.03 324.252 237.055 318.766Z" fill="#DDDDDD"/>
<path d="M206.17 265.559C197.135 275.665 199.716 294.136 216.845 301.106C226.306 304.979 244.028 306.592 255.426 295.504C267.365 283.888 260.718 277.046 256.523 274.659C260.795 278.531 262.783 294.782 231.43 294.924C202.879 295.053 202.698 271.083 206.17 265.559Z" fill="#DDDDDD"/>
<path d="M261.677 285.836C257.805 296.872 237.23 298.743 220.876 293.58C224.324 294.491 227.881 294.925 231.447 294.871C262.8 294.729 255.559 273.664 251.299 269.83C254.371 271.624 264.401 277.136 261.677 285.836Z" fill="#DDDDDD"/>
<path d="M255.111 272.228C255.189 273.08 253.743 273.519 253.743 273.519L206.153 215.589L207.534 215.086C207.534 215.086 253.963 270.937 255.111 272.228Z" fill="#DDDDDD"/>
<path d="M312.02 216.926C312.782 217.3 312.446 218.797 312.446 218.797L238.137 229.124L238.434 227.678C238.434 227.678 310.304 217.223 312.02 216.926Z" fill="#DDDDDD"/>
<path d="M282.455 137.956C283.1 137.388 284.34 138.292 284.34 138.292L264.423 210.575L263.223 209.723C263.223 209.723 282.055 139.647 282.455 137.956Z" fill="#DDDDDD"/>
</g>
<defs>
<clipPath id="clip0_1805:64063">
<rect width="711" height="258.99" fill="white" transform="translate(108 70.0723)"/>
</clipPath>
</defs>
</svg>
