<svg width="924" height="399" viewBox="0 0 924 399" fill="none" role="img" xmlns="http://www.w3.org/2000/svg">
<g clip-path="url(#clip0_1805:64022)">
<path d="M391.953 302.929C332.743 276.369 297.23 204.486 326.297 144.679C345.715 104.669 391.833 74.0894 436.738 71.9805C438.727 71.9805 458.981 69.991 477.783 77.4916C499.212 84.7059 518.634 96.8812 534.465 113.025C470.66 31.6321 338.414 55.4273 303.676 151.822C263.467 263.655 399.672 390.251 500.643 303.546C467.377 318.309 424.88 318.726 391.853 302.929" fill="#DDDDDD"/>
<path d="M366.048 250.524V234.747H368.276L373.33 242.705C374.388 244.349 375.332 246.065 376.155 247.838V247.838C375.956 245.73 375.916 243.859 375.916 241.352V234.747H377.906V250.524H375.916L370.902 242.566C369.816 240.869 368.833 239.108 367.958 237.294V237.294C368.077 239.283 368.117 241.273 368.117 243.8V250.544L366.048 250.524Z" fill="#DDDDDD"/>
<path d="M387.655 250.522L387.496 249.09C387.095 249.626 386.572 250.06 385.97 250.354C385.368 250.648 384.704 250.794 384.034 250.781C383.59 250.814 383.143 250.754 382.723 250.606C382.302 250.458 381.917 250.224 381.592 249.919C381.266 249.614 381.008 249.245 380.832 248.835C380.657 248.425 380.568 247.984 380.572 247.538C380.572 244.792 383 243.3 387.377 243.32V243.081C387.424 242.73 387.391 242.373 387.28 242.037C387.169 241.701 386.982 241.395 386.735 241.141C386.487 240.888 386.185 240.695 385.852 240.576C385.518 240.457 385.162 240.415 384.81 240.455C383.762 240.464 382.737 240.76 381.846 241.311L381.388 239.938C382.513 239.271 383.801 238.927 385.109 238.943C388.57 238.943 389.406 241.311 389.406 243.579V247.816C389.395 248.722 389.462 249.628 389.605 250.522H387.655ZM387.337 244.753C385.109 244.753 382.542 245.091 382.542 247.299C382.518 247.567 382.552 247.836 382.644 248.089C382.735 248.341 382.881 248.57 383.071 248.76C383.26 248.95 383.49 249.096 383.742 249.187C383.995 249.279 384.264 249.313 384.532 249.289C385.143 249.299 385.741 249.11 386.236 248.752C386.731 248.393 387.096 247.883 387.277 247.299C387.341 247.086 387.374 246.865 387.377 246.643L387.337 244.753Z" fill="#DDDDDD"/>
<path d="M395.136 235.939V239.202H398.081V240.774H395.136V246.882C395.136 248.275 395.534 249.071 396.688 249.071C397.091 249.081 397.493 249.034 397.882 248.931V250.483C397.293 250.685 396.673 250.779 396.051 250.762C395.639 250.788 395.225 250.723 394.84 250.572C394.455 250.42 394.108 250.186 393.823 249.886C393.198 249.039 392.914 247.988 393.027 246.942V240.774H391.456V239.202H393.206V236.477L395.136 235.939Z" fill="#DDDDDD"/>
<path d="M402.696 236.021C402.696 236.358 402.562 236.682 402.323 236.921C402.084 237.16 401.76 237.294 401.422 237.294C401.085 237.294 400.761 237.16 400.522 236.921C400.283 236.682 400.149 236.358 400.149 236.021C400.144 235.849 400.173 235.679 400.236 235.519C400.299 235.36 400.394 235.215 400.516 235.094C400.637 234.973 400.782 234.878 400.941 234.814C401.1 234.751 401.271 234.722 401.442 234.727C401.612 234.721 401.781 234.751 401.938 234.814C402.096 234.878 402.238 234.974 402.356 235.096C402.474 235.217 402.566 235.363 402.624 235.522C402.683 235.681 402.707 235.851 402.696 236.021V236.021ZM400.408 250.524V239.204H402.397V250.524H400.408Z" fill="#DDDDDD"/>
<path d="M416.127 244.773C416.188 245.544 416.087 246.319 415.83 247.048C415.574 247.778 415.167 248.445 414.637 249.008C414.106 249.57 413.463 250.015 412.75 250.314C412.037 250.612 411.269 250.758 410.496 250.742C409.746 250.75 409.003 250.601 408.314 250.306C407.625 250.011 407.005 249.575 406.494 249.026C405.983 248.477 405.592 247.828 405.346 247.12C405.099 246.412 405.004 245.66 405.065 244.912C405.004 244.143 405.104 243.37 405.359 242.642C405.615 241.914 406.02 241.248 406.548 240.686C407.077 240.124 407.717 239.678 408.428 239.378C409.138 239.078 409.904 238.93 410.675 238.944C411.428 238.927 412.177 239.069 412.871 239.361C413.566 239.653 414.191 240.089 414.705 240.639C415.22 241.189 415.612 241.842 415.857 242.554C416.102 243.267 416.194 244.023 416.127 244.773V244.773ZM407.154 244.893C407.154 247.36 408.566 249.23 410.596 249.23C412.625 249.23 414.038 247.399 414.038 244.833C414.038 242.843 413.063 240.496 410.636 240.496C408.208 240.496 407.154 242.724 407.154 244.893V244.893Z" fill="#DDDDDD"/>
<path d="M418.732 242.267C418.732 241.093 418.732 240.138 418.732 239.202H420.563L420.682 241.073C421.052 240.41 421.596 239.862 422.256 239.487C422.915 239.112 423.664 238.924 424.423 238.944C425.994 238.944 428.402 239.879 428.402 243.759V250.523H426.412V243.997C426.412 242.167 425.736 240.655 423.786 240.655C423.162 240.662 422.557 240.872 422.062 241.252C421.567 241.632 421.208 242.163 421.04 242.764C420.938 243.072 420.891 243.395 420.901 243.719V250.523H418.911L418.732 242.267Z" fill="#DDDDDD"/>
<path d="M437.992 250.522L437.833 249.09C437.434 249.629 436.911 250.064 436.309 250.358C435.706 250.652 435.042 250.797 434.371 250.781C433.927 250.814 433.48 250.754 433.06 250.606C432.639 250.458 432.254 250.224 431.929 249.919C431.603 249.614 431.345 249.245 431.169 248.835C430.994 248.425 430.905 247.984 430.909 247.538C430.909 244.792 433.337 243.3 437.714 243.32V243.081C437.761 242.73 437.728 242.373 437.617 242.037C437.506 241.701 437.319 241.394 437.072 241.141C436.824 240.888 436.522 240.695 436.189 240.576C435.855 240.457 435.499 240.415 435.147 240.455C434.105 240.461 433.086 240.757 432.203 241.31L431.725 239.938C432.851 239.273 434.138 238.929 435.446 238.943C438.907 238.943 439.763 241.31 439.763 243.579V247.816C439.746 248.722 439.806 249.627 439.942 250.522H437.992ZM437.694 244.752C435.446 244.752 432.899 245.091 432.899 247.299C432.871 247.567 432.903 247.838 432.993 248.092C433.083 248.347 433.229 248.578 433.419 248.768C433.61 248.959 433.841 249.105 434.095 249.195C434.349 249.285 434.62 249.317 434.888 249.289C435.5 249.299 436.098 249.11 436.593 248.751C437.088 248.393 437.453 247.883 437.634 247.299C437.704 247.087 437.745 246.866 437.753 246.643L437.694 244.752Z" fill="#DDDDDD"/>
<path d="M443.005 233.909H444.995V250.522H443.005V233.909Z" fill="#DDDDDD"/>
<path d="M464.571 250.006C463.255 250.553 461.837 250.811 460.412 250.762C459.357 250.829 458.3 250.667 457.313 250.289C456.326 249.91 455.432 249.323 454.692 248.568C453.952 247.813 453.383 246.907 453.024 245.912C452.666 244.918 452.526 243.858 452.613 242.804C452.566 241.707 452.746 240.612 453.143 239.588C453.539 238.564 454.143 237.633 454.917 236.854C455.69 236.074 456.617 235.464 457.638 235.06C458.659 234.656 459.753 234.468 460.85 234.507C462.142 234.457 463.428 234.702 464.61 235.224L464.113 236.875C463.114 236.422 462.027 236.197 460.93 236.218C460.084 236.19 459.241 236.341 458.458 236.663C457.675 236.984 456.969 237.469 456.388 238.084C455.806 238.7 455.363 239.432 455.086 240.232C454.809 241.032 454.705 241.881 454.782 242.724C454.692 243.547 454.781 244.38 455.044 245.166C455.307 245.951 455.737 246.67 456.304 247.273C456.871 247.876 457.562 248.349 458.33 248.66C459.098 248.97 459.924 249.11 460.751 249.071C461.892 249.089 463.025 248.866 464.073 248.414L464.571 250.006Z" fill="#DDDDDD"/>
<path d="M477.006 244.773C477.068 245.546 476.966 246.322 476.708 247.053C476.45 247.784 476.042 248.452 475.509 249.015C474.976 249.578 474.331 250.022 473.616 250.32C472.9 250.617 472.13 250.761 471.356 250.742C470.606 250.75 469.863 250.601 469.173 250.306C468.484 250.011 467.864 249.575 467.353 249.026C466.842 248.477 466.451 247.828 466.205 247.12C465.959 246.412 465.863 245.66 465.924 244.912C465.863 244.143 465.963 243.37 466.219 242.642C466.474 241.914 466.879 241.248 467.408 240.686C467.936 240.124 468.576 239.678 469.287 239.378C469.998 239.078 470.763 238.93 471.535 238.944C472.289 238.927 473.038 239.069 473.733 239.361C474.428 239.653 475.055 240.088 475.571 240.638C476.087 241.188 476.481 241.84 476.729 242.553C476.976 243.265 477.07 244.022 477.006 244.773V244.773ZM468.013 244.893C468.013 247.36 469.446 249.23 471.455 249.23C473.465 249.23 475.016 247.459 475.016 244.833C475.016 242.843 474.042 240.496 471.614 240.496C469.187 240.496 468.093 242.724 468.093 244.893H468.013Z" fill="#DDDDDD"/>
<path d="M489.164 247.46C489.164 248.634 489.164 249.648 489.164 250.544H487.354L487.234 248.693C486.853 249.345 486.306 249.883 485.649 250.254C484.992 250.624 484.248 250.814 483.494 250.802C481.723 250.802 479.515 249.827 479.515 245.848V239.223H481.504V245.47C481.504 247.619 482.161 249.071 484.031 249.071C484.619 249.063 485.191 248.881 485.676 248.548C486.161 248.215 486.537 247.747 486.757 247.201C486.881 246.864 486.941 246.506 486.936 246.147V239.203H488.925L489.164 247.46Z" fill="#DDDDDD"/>
<path d="M492.564 242.267C492.564 241.093 492.564 240.138 492.564 239.202H494.375L494.494 241.073C494.864 240.41 495.408 239.862 496.068 239.487C496.727 239.112 497.476 238.924 498.235 238.944C499.806 238.944 502.214 239.879 502.214 243.759V250.523H500.224V243.997C500.224 242.167 499.548 240.655 497.618 240.655C496.992 240.664 496.385 240.874 495.888 241.254C495.39 241.633 495.027 242.163 494.852 242.764C494.75 243.072 494.703 243.395 494.713 243.719V250.523H492.724L492.564 242.267Z" fill="#DDDDDD"/>
<path d="M513.634 250.104C512.608 250.561 511.494 250.785 510.371 250.761C509.608 250.8 508.844 250.676 508.133 250.396C507.421 250.117 506.777 249.689 506.244 249.141C505.711 248.593 505.302 247.938 505.042 247.218C504.783 246.499 504.68 245.733 504.74 244.971C504.708 244.169 504.845 243.368 505.141 242.621C505.437 241.875 505.887 241.199 506.46 240.636C507.034 240.074 507.719 239.638 508.471 239.357C509.224 239.075 510.027 238.955 510.829 239.002C511.807 238.99 512.777 239.187 513.674 239.579L513.216 241.171C512.479 240.791 511.657 240.606 510.829 240.634C510.278 240.632 509.733 240.745 509.229 240.964C508.724 241.184 508.27 241.506 507.896 241.91C507.522 242.313 507.236 242.791 507.056 243.311C506.876 243.831 506.805 244.383 506.849 244.931C506.814 245.475 506.891 246.021 507.075 246.534C507.259 247.047 507.546 247.516 507.919 247.914C508.292 248.311 508.743 248.628 509.244 248.844C509.744 249.059 510.283 249.17 510.829 249.169C511.704 249.172 512.568 248.974 513.355 248.592L513.634 250.104Z" fill="#DDDDDD"/>
<path d="M518.329 236.021C518.338 236.191 518.311 236.361 518.248 236.52C518.186 236.679 518.09 236.823 517.968 236.942C517.845 237.061 517.699 237.152 517.538 237.209C517.377 237.266 517.206 237.288 517.036 237.274C516.87 237.277 516.706 237.246 516.553 237.184C516.4 237.122 516.26 237.03 516.144 236.913C516.027 236.796 515.934 236.657 515.872 236.503C515.81 236.35 515.78 236.186 515.782 236.021C515.777 235.849 515.807 235.679 515.87 235.519C515.933 235.36 516.028 235.215 516.149 235.094C516.27 234.973 516.415 234.878 516.574 234.814C516.734 234.751 516.904 234.722 517.076 234.727C517.245 234.721 517.414 234.751 517.572 234.814C517.729 234.878 517.871 234.974 517.99 235.096C518.108 235.217 518.199 235.363 518.257 235.522C518.316 235.681 518.34 235.851 518.329 236.021V236.021ZM516.041 250.524V239.204H518.031V250.524H516.041Z" fill="#DDDDDD"/>
<path d="M521.513 233.909H523.502V250.522H521.513V233.909Z" fill="#DDDDDD"/>
<path d="M345.455 130.075H367.102L415.886 189.901V144.002C415.886 139.088 415.329 136.044 414.234 134.81C413.335 133.924 412.253 133.244 411.064 132.818C409.876 132.392 408.608 132.23 407.35 132.343H404.585V130.075H432.439V132.244H429.614C428.255 132.106 426.884 132.314 425.628 132.85C424.372 133.386 423.272 134.232 422.431 135.308C421.576 136.561 421.138 139.426 421.138 143.903V211.15H419.029L366.425 146.887V196.029C366.425 200.924 366.942 203.988 367.997 205.201C368.902 206.08 369.984 206.755 371.172 207.18C372.359 207.606 373.624 207.772 374.881 207.668H377.706V209.857H349.852V207.668H352.618C353.983 207.808 355.362 207.602 356.627 207.07C357.892 206.538 359.004 205.697 359.86 204.624C360.735 203.371 361.153 200.506 361.153 196.029V140.62C359.594 138.657 357.834 136.863 355.9 135.268C354.276 134.202 352.498 133.39 350.628 132.861C348.938 132.439 347.196 132.258 345.455 132.323V130.075Z" fill="#DDDDDD"/>
<path d="M506.611 128.324L508.442 155.441H506.611C504.184 147.324 500.716 141.481 496.206 137.913C491.573 134.298 485.826 132.405 479.951 132.561C474.612 132.412 469.364 133.969 464.97 137.007C460.576 140.045 457.265 144.405 455.519 149.453C452.867 156.436 451.617 163.872 451.839 171.338C451.688 177.764 452.867 184.151 455.301 190.1C457.421 195.152 461.075 199.411 465.746 202.276C470.553 205.144 476.066 206.611 481.662 206.514C486.443 206.62 491.169 205.474 495.37 203.191C499.349 200.989 503.707 196.586 508.442 189.98L510.272 191.154C507.027 197.45 502.235 202.818 496.345 206.752C490.6 210.165 484.006 211.883 477.325 211.706C464.061 211.706 453.828 206.799 446.626 196.984C441.146 189.528 438.285 180.47 438.489 171.219C438.422 163.589 440.269 156.065 443.861 149.334C447.213 142.881 452.316 137.503 458.583 133.815C464.772 130.186 471.822 128.289 478.996 128.324C484.942 128.366 490.792 129.819 496.067 132.561C497.142 133.224 498.34 133.664 499.588 133.855C500.62 133.856 501.611 133.456 502.354 132.741C503.462 131.488 504.217 129.964 504.542 128.324H506.611Z" fill="#DDDDDD"/>
<path d="M551.635 207.668V209.857H517.434V207.668H520.259C521.597 207.788 522.945 207.591 524.193 207.094C525.44 206.596 526.553 205.811 527.442 204.803C528.397 203.53 528.854 200.526 528.854 195.731V144.261C529 141.585 528.745 138.903 528.098 136.303C527.602 135.207 526.745 134.315 525.671 133.776C524.016 132.853 522.154 132.367 520.259 132.363H517.434V130.075H551.635V132.244H548.75C547.419 132.126 546.079 132.327 544.841 132.828C543.603 133.33 542.501 134.118 541.627 135.129C540.652 136.382 540.155 139.406 540.155 144.181V195.731C540.009 198.406 540.264 201.089 540.911 203.689C541.421 204.795 542.3 205.689 543.398 206.216C545.025 207.152 546.872 207.64 548.75 207.628L551.635 207.668Z" fill="#DDDDDD"/>
<path d="M623.659 187.872L625.648 188.27L618.824 209.936H557.147V207.668H560.152C561.537 207.801 562.934 207.567 564.201 206.991C565.468 206.415 566.562 205.516 567.374 204.385C568.209 203.125 568.627 200.221 568.627 195.671V144.261C568.627 139.287 568.07 136.163 566.976 134.91C566.097 134.006 565.03 133.305 563.851 132.858C562.672 132.411 561.409 132.229 560.152 132.323H556.988V130.075H593.119V132.244C590.099 132.023 587.065 132.423 584.206 133.418C582.718 134.032 581.484 135.133 580.704 136.541C579.848 139.457 579.525 142.503 579.749 145.534V195.731C579.587 198.008 579.912 200.294 580.704 202.436C581.188 203.282 581.957 203.931 582.873 204.266C585.901 204.84 588.988 205.041 592.064 204.863H597.874C602.215 205.075 606.563 204.619 610.766 203.51C613.389 202.497 615.715 200.841 617.531 198.695C620.136 195.437 622.205 191.783 623.659 187.872V187.872Z" fill="#DDDDDD"/>
<path d="M421.041 280.249C421.083 280.764 421.016 281.282 420.845 281.769C420.674 282.256 420.402 282.702 420.047 283.077C419.693 283.452 419.263 283.749 418.786 283.947C418.31 284.145 417.797 284.241 417.28 284.228C416.771 284.237 416.266 284.137 415.799 283.936C415.331 283.734 414.912 283.434 414.57 283.058C414.227 282.681 413.969 282.236 413.812 281.752C413.655 281.267 413.603 280.755 413.659 280.249C413.621 279.737 413.689 279.222 413.86 278.738C414.031 278.254 414.301 277.81 414.653 277.436C415.005 277.061 415.431 276.764 415.904 276.564C416.377 276.363 416.886 276.263 417.4 276.27C417.91 276.262 418.415 276.362 418.884 276.563C419.352 276.765 419.772 277.064 420.116 277.44C420.461 277.816 420.721 278.261 420.88 278.745C421.04 279.23 421.094 279.742 421.041 280.249V280.249ZM415.072 280.249C415.072 281.9 416.007 283.134 417.36 283.134C418.713 283.134 419.648 281.92 419.648 280.209C419.648 278.936 419.011 277.305 417.4 277.305C415.788 277.305 415.052 278.876 415.052 280.329L415.072 280.249Z" fill="#DDDDDD"/>
<path d="M422.772 278.577C422.772 277.801 422.772 277.144 422.772 276.587H423.986V277.84C424.235 277.397 424.599 277.029 425.041 276.777C425.482 276.525 425.984 276.397 426.493 276.408C427.527 276.408 429.159 277.045 429.159 279.631V284.147H427.786V279.79C427.786 278.577 427.328 277.562 426.035 277.562C425.623 277.576 425.226 277.717 424.898 277.967C424.57 278.216 424.328 278.561 424.205 278.955C424.13 279.158 424.096 279.375 424.105 279.591V284.147H422.732L422.772 278.577Z" fill="#DDDDDD"/>
<path d="M440.718 268.31V284.087H438.728V268.31H440.718Z" fill="#DDDDDD"/>
<path d="M444.438 275.811C444.438 274.657 444.438 273.682 444.339 272.747H446.169L446.289 274.618C446.664 273.955 447.212 273.407 447.874 273.032C448.536 272.657 449.288 272.469 450.049 272.489C451.601 272.489 454.028 273.424 454.028 277.323V284.088H452.039V277.542C452.039 275.732 451.362 274.2 449.412 274.2C448.788 274.207 448.183 274.416 447.688 274.797C447.193 275.177 446.835 275.707 446.667 276.309C446.566 276.617 446.519 276.94 446.527 277.264V284.088H444.538L444.438 275.811Z" fill="#DDDDDD"/>
<path d="M467.219 267.454V281.162C467.219 282.156 467.219 283.31 467.219 284.086H465.389L465.289 282.097C464.92 282.793 464.362 283.371 463.679 283.765C462.997 284.159 462.217 284.353 461.429 284.325C458.704 284.325 456.595 281.997 456.595 278.555C456.595 274.795 458.903 272.467 461.668 272.467C462.341 272.426 463.012 272.565 463.614 272.869C464.215 273.173 464.725 273.632 465.09 274.198V267.434L467.219 267.454ZM465.229 277.401C465.259 277.11 465.259 276.817 465.229 276.526C465.076 275.849 464.697 275.244 464.155 274.81C463.613 274.376 462.939 274.139 462.245 274.138C460.116 274.138 458.843 276.128 458.843 278.515C458.843 280.903 459.977 282.713 462.205 282.713C462.916 282.71 463.603 282.464 464.154 282.015C464.704 281.566 465.084 280.942 465.229 280.246C465.261 279.955 465.261 279.662 465.229 279.371V277.401Z" fill="#DDDDDD"/>
<path d="M471.774 278.796C471.72 279.323 471.783 279.856 471.957 280.357C472.132 280.857 472.414 281.313 472.784 281.693C473.154 282.072 473.603 282.366 474.099 282.553C474.595 282.74 475.125 282.816 475.654 282.775C476.731 282.805 477.802 282.609 478.797 282.198L479.156 283.671C477.96 284.169 476.671 284.407 475.375 284.367C474.619 284.416 473.861 284.301 473.154 284.029C472.446 283.757 471.806 283.336 471.277 282.793C470.747 282.251 470.342 281.6 470.088 280.886C469.834 280.172 469.737 279.412 469.805 278.657C469.805 275.255 471.794 272.549 475.117 272.549C475.785 272.562 476.443 272.713 477.05 272.994C477.656 273.275 478.197 273.679 478.639 274.181C479.08 274.682 479.413 275.27 479.615 275.907C479.817 276.544 479.884 277.216 479.812 277.881C479.831 278.206 479.831 278.531 479.812 278.856L471.774 278.796ZM477.743 277.324C477.802 276.91 477.773 276.489 477.657 276.087C477.541 275.686 477.341 275.314 477.07 274.996C476.799 274.678 476.463 274.421 476.085 274.243C475.707 274.064 475.296 273.969 474.878 273.961C474.026 274.026 473.229 274.407 472.644 275.029C472.059 275.651 471.727 276.47 471.715 277.324H477.743Z" fill="#DDDDDD"/>
<path d="M482.36 276.448C482.36 274.995 482.36 273.821 482.26 272.747H484.111V274.737C484.511 274.042 485.093 273.469 485.794 273.08C486.495 272.691 487.288 272.5 488.09 272.528C490.835 272.528 492.904 274.856 492.904 278.298C492.904 282.277 490.417 284.386 487.751 284.386C487.063 284.416 486.378 284.267 485.764 283.953C485.15 283.64 484.628 283.171 484.25 282.595V288.763H482.26L482.36 276.448ZM484.349 279.472C484.318 279.749 484.318 280.03 484.349 280.307C484.519 280.996 484.915 281.608 485.474 282.045C486.034 282.482 486.724 282.717 487.433 282.715C489.602 282.715 490.875 280.944 490.875 278.338C490.875 276.07 489.681 274.14 487.513 274.14C486.783 274.156 486.08 274.416 485.514 274.877C484.948 275.338 484.553 275.975 484.389 276.686C484.312 276.959 484.265 277.239 484.25 277.522L484.349 279.472Z" fill="#DDDDDD"/>
<path d="M496.902 278.796C496.845 279.324 496.905 279.858 497.078 280.361C497.251 280.863 497.533 281.32 497.904 281.701C498.274 282.081 498.725 282.374 499.222 282.56C499.72 282.746 500.253 282.819 500.782 282.775C501.859 282.805 502.93 282.609 503.925 282.198L504.264 283.671C503.075 284.17 501.792 284.407 500.503 284.367C499.747 284.416 498.989 284.301 498.282 284.029C497.574 283.757 496.934 283.336 496.404 282.793C495.875 282.251 495.47 281.6 495.216 280.886C494.961 280.172 494.865 279.412 494.933 278.657C494.933 275.255 496.922 272.549 500.245 272.549C500.912 272.561 501.57 272.713 502.175 272.994C502.781 273.275 503.321 273.68 503.761 274.182C504.201 274.684 504.531 275.272 504.731 275.909C504.931 276.546 504.995 277.218 504.92 277.881C504.937 278.206 504.937 278.531 504.92 278.856L496.902 278.796ZM502.871 277.324C502.93 276.912 502.901 276.492 502.786 276.092C502.671 275.692 502.473 275.321 502.204 275.003C501.935 274.685 501.602 274.428 501.227 274.249C500.851 274.069 500.442 273.971 500.026 273.961C499.185 274.035 498.4 274.417 497.823 275.034C497.247 275.651 496.919 276.46 496.902 277.304L502.871 277.324Z" fill="#DDDDDD"/>
<path d="M507.388 275.811C507.388 274.657 507.388 273.683 507.388 272.747H509.199L509.318 274.618C509.688 273.955 510.232 273.407 510.891 273.032C511.551 272.656 512.3 272.469 513.058 272.489C514.63 272.489 517.038 273.424 517.038 277.323V284.088H515.048V277.542C515.048 275.732 514.352 274.2 512.422 274.2C511.797 274.212 511.192 274.423 510.694 274.802C510.197 275.181 509.834 275.709 509.656 276.309C509.556 276.617 509.509 276.94 509.517 277.264V284.088H507.527L507.388 275.811Z" fill="#DDDDDD"/>
<path d="M530.168 267.454V281.162C530.168 282.156 530.168 283.31 530.168 284.086H528.318L528.219 282.097C527.846 282.79 527.287 283.366 526.605 283.759C525.924 284.153 525.146 284.349 524.359 284.325C521.613 284.325 519.504 281.997 519.504 278.555C519.504 274.795 521.812 272.467 524.578 272.467C525.25 272.426 525.922 272.565 526.523 272.869C527.125 273.173 527.634 273.632 528 274.198V274.198V267.434L530.168 267.454ZM528.179 277.401C528.208 277.11 528.208 276.817 528.179 276.526C528.026 275.849 527.647 275.244 527.105 274.81C526.562 274.376 525.889 274.139 525.195 274.138C523.066 274.138 521.812 276.128 521.812 278.515C521.812 280.903 522.927 282.713 525.155 282.713C525.865 282.71 526.553 282.464 527.103 282.015C527.653 281.566 528.033 280.942 528.179 280.246C528.21 279.955 528.21 279.662 528.179 279.371V277.401Z" fill="#DDDDDD"/>
<path d="M534.705 278.796C534.648 279.332 534.713 279.875 534.893 280.383C535.073 280.891 535.364 281.353 535.745 281.734C536.127 282.116 536.588 282.407 537.097 282.587C537.605 282.767 538.147 282.832 538.684 282.775C539.754 282.806 540.819 282.609 541.807 282.198L542.165 283.671C540.976 284.168 539.694 284.405 538.405 284.367C537.649 284.416 536.891 284.301 536.183 284.029C535.476 283.757 534.836 283.336 534.306 282.793C533.777 282.251 533.372 281.6 533.117 280.886C532.863 280.172 532.767 279.412 532.834 278.657C532.834 275.255 534.824 272.549 538.147 272.549C538.813 272.564 539.469 272.718 540.073 273C540.677 273.282 541.216 273.687 541.655 274.188C542.095 274.689 542.426 275.276 542.626 275.912C542.827 276.548 542.894 277.218 542.822 277.881C542.851 278.205 542.851 278.532 542.822 278.856L534.705 278.796ZM540.673 277.324C540.733 276.91 540.703 276.489 540.587 276.087C540.471 275.686 540.271 275.314 540 274.996C539.729 274.678 539.393 274.421 539.015 274.243C538.638 274.064 538.226 273.969 537.808 273.961C536.971 274.04 536.191 274.424 535.618 275.04C535.046 275.657 534.721 276.463 534.705 277.304L540.673 277.324Z" fill="#DDDDDD"/>
<path d="M545.309 275.811C545.309 274.657 545.309 273.682 545.209 272.747H547.04L547.159 274.618C547.534 273.955 548.082 273.407 548.744 273.032C549.407 272.657 550.159 272.469 550.92 272.489C552.471 272.489 554.899 273.424 554.899 277.323V284.088H552.909V277.542C552.909 275.732 552.233 274.2 550.283 274.2C549.659 274.207 549.054 274.416 548.558 274.797C548.063 275.177 547.705 275.707 547.537 276.309C547.437 276.617 547.39 276.94 547.398 277.264V284.088H545.408L545.309 275.811Z" fill="#DDDDDD"/>
<path d="M560.787 269.505V272.748H563.732V274.32H560.787V280.428C560.787 281.84 561.185 282.636 562.319 282.636C562.721 282.636 563.122 282.59 563.513 282.497V284.029C562.925 284.23 562.305 284.325 561.683 284.307C561.272 284.332 560.86 284.268 560.476 284.121C560.092 283.973 559.743 283.745 559.454 283.452C558.833 282.603 558.549 281.553 558.659 280.507V274.32H556.908V272.748H558.659V270.042L560.787 269.505Z" fill="#DDDDDD"/>
<path d="M571.072 268.31H573.062V282.376H579.787V284.087H571.013L571.072 268.31Z" fill="#DDDDDD"/>
<path d="M584.443 269.562C584.452 269.735 584.424 269.908 584.361 270.07C584.297 270.231 584.2 270.377 584.076 270.498C583.951 270.618 583.803 270.711 583.639 270.769C583.476 270.828 583.302 270.85 583.13 270.836C582.964 270.836 582.801 270.803 582.648 270.738C582.496 270.674 582.358 270.579 582.243 270.461C582.128 270.342 582.038 270.201 581.978 270.047C581.919 269.892 581.891 269.728 581.896 269.562C581.893 269.392 581.925 269.223 581.989 269.064C582.053 268.906 582.148 268.763 582.269 268.642C582.39 268.521 582.533 268.426 582.691 268.362C582.85 268.298 583.019 268.267 583.189 268.269C583.359 268.263 583.528 268.293 583.685 268.356C583.843 268.42 583.985 268.516 584.103 268.637C584.221 268.759 584.313 268.905 584.371 269.064C584.43 269.223 584.454 269.393 584.443 269.562V269.562ZM582.155 284.086V272.746H584.144V284.086H582.155Z" fill="#DDDDDD"/>
<path d="M588.421 272.748L590.65 279.115C591.004 280.067 591.309 281.036 591.565 282.019V282.019C591.824 281.084 592.162 280.149 592.52 279.115L594.728 272.748H596.877L592.44 284.088H590.451L586.153 272.748H588.421Z" fill="#DDDDDD"/>
<path d="M601.075 269.562C601.084 269.735 601.056 269.908 600.992 270.07C600.929 270.231 600.832 270.377 600.707 270.498C600.583 270.618 600.434 270.711 600.271 270.769C600.108 270.828 599.934 270.85 599.762 270.836C599.596 270.836 599.432 270.803 599.28 270.738C599.128 270.674 598.99 270.579 598.875 270.461C598.76 270.342 598.67 270.201 598.61 270.047C598.551 269.892 598.523 269.728 598.528 269.562C598.525 269.392 598.557 269.223 598.621 269.064C598.685 268.906 598.78 268.763 598.901 268.642C599.021 268.521 599.165 268.426 599.323 268.362C599.481 268.298 599.651 268.267 599.821 268.269C599.991 268.263 600.16 268.293 600.317 268.356C600.475 268.42 600.617 268.516 600.735 268.637C600.853 268.759 600.944 268.905 601.003 269.064C601.061 269.223 601.086 269.393 601.075 269.562V269.562ZM598.787 284.086V272.746H600.776V284.086H598.787Z" fill="#DDDDDD"/>
<path d="M604.34 275.811C604.34 274.657 604.34 273.683 604.34 272.747H606.15L606.27 274.618C606.64 273.955 607.184 273.407 607.843 273.032C608.502 272.656 609.252 272.469 610.01 272.489C611.582 272.489 613.989 273.424 613.989 277.323V284.088H612V277.542C612 275.732 611.323 274.2 609.393 274.2C608.767 274.209 608.161 274.419 607.663 274.799C607.165 275.178 606.802 275.707 606.628 276.309C606.527 276.617 606.48 276.94 606.489 277.264V284.088H604.499L604.34 275.811Z" fill="#DDDDDD"/>
<path d="M627.02 272.747C627.02 273.562 627.02 274.478 627.02 275.87V282.436C627.139 283.363 627.057 284.305 626.779 285.198C626.501 286.091 626.033 286.913 625.409 287.609C624.257 288.567 622.787 289.057 621.29 288.981C619.967 289.012 618.66 288.682 617.51 288.026L618.027 286.475C619.037 287.057 620.184 287.359 621.35 287.35C623.459 287.35 625.011 286.256 625.011 283.371V282.097C624.649 282.726 624.122 283.243 623.487 283.594C622.853 283.944 622.134 284.115 621.41 284.087C620.726 284.058 620.056 283.89 619.439 283.593C618.822 283.297 618.272 282.879 617.822 282.363C617.371 281.848 617.031 281.246 616.82 280.595C616.609 279.945 616.532 279.257 616.595 278.576C616.524 277.847 616.601 277.111 616.821 276.413C617.04 275.714 617.399 275.067 617.874 274.51C618.349 273.953 618.932 273.497 619.587 273.17C620.243 272.844 620.957 272.652 621.688 272.607C622.407 272.568 623.122 272.734 623.749 273.086C624.376 273.438 624.89 273.963 625.23 274.597V274.597V272.886L627.02 272.747ZM624.891 277.303C624.896 276.987 624.856 276.672 624.772 276.368C624.598 275.737 624.221 275.181 623.699 274.786C623.178 274.39 622.541 274.177 621.887 274.179C619.898 274.179 618.525 275.85 618.525 278.477C618.525 280.705 619.639 282.456 621.867 282.456C622.501 282.452 623.118 282.248 623.629 281.873C624.14 281.498 624.519 280.97 624.712 280.367C624.83 280.007 624.89 279.631 624.891 279.252V277.303Z" fill="#DDDDDD"/>
</g>
<defs>
<clipPath id="clip0_1805:64022">
<rect width="330.507" height="268.591" fill="white" transform="translate(296.493 63.7031)"/>
</clipPath>
</defs>
</svg>
