<svg width="2882" height="466" viewBox="0 0 2882 466" fill="none" xmlns="http://www.w3.org/2000/svg">
<path d="M248.499 0.75C248.499 0.75 249.167 1.41701 249.667 1.41701C255.75 1.41701 261.667 2.66701 267.667 3.41701C278 4.75001 288.084 7.16699 298.167 10.083C313.584 14.5 328.25 20.75 342.417 28.083C342.834 28.333 343.249 28.5 343.583 28.75C343.749 28.833 343.834 29.083 344.417 30C334.417 25.417 324.916 21.25 315.083 17.917C305.083 14.583 294.916 11.833 284.583 9.66701C274.499 7.58301 264.333 5.83299 253.999 5.08299C265.166 7.74999 276.167 10.917 286.667 15.5C296.75 19.917 306.249 25.583 314.749 32.75C316.916 34.583 319.083 36.5 321.083 38.5C334.666 51.833 342.749 68.083 346.583 86.667C348.333 95.167 349.001 103.667 348.417 112.25C347.751 121.667 346.249 131.083 343.583 140.167C341.166 148.417 337.916 156.417 334.083 164.083C327.166 177.833 318.083 190.083 306.499 200.167C299.583 206.25 291.75 211 283.083 214.333C276.75 216.833 270.25 218.667 263.583 219.667C256.5 220.75 249.25 220.833 242 220.083C231.416 218.917 221.999 215 213.249 209.417C204.666 203.917 197.499 196.667 192.999 187.417C189.583 180.5 187.333 173.167 187.083 165.333C187.083 163.167 186.334 161.083 186.417 158.833C187 145.333 190.583 132.833 199.583 122.417C205.25 115.917 211.583 110.083 219.583 106.417C221.333 105.583 223 104.667 225.167 103.583C222.75 102.25 220.583 102.417 218.5 102C209.333 100.333 199.999 100.417 190.749 100.583C177.749 100.833 165.333 103.75 153.833 110C145.999 114.25 139.5 120.167 133.75 127.083C125.167 137.417 120.417 149.5 117.501 162.333C116.417 167 115.916 171.75 115.166 176.5C114.499 180.833 115.334 185.25 114.001 189.5C113.417 191.5 113.083 192 111.166 192.25C110.25 192.333 109.333 192.25 108.416 192.25C92.5835 192.25 76.6665 192.25 60.8335 192.25C59.9995 192.25 59.2505 192.25 58.4165 192.25C56.7505 192.167 55.8335 192.75 55.0835 194.5C52.4995 200.917 50.4995 207.417 49.0835 214.167C47.1665 223.5 47.2505 232.917 47.8335 242.25C48.4165 251.583 50.9165 260.75 54.3335 269.5C55.7505 273.25 56.4165 273.583 60.5005 273.583C76.7505 273.583 92.9165 273.583 109.166 273.583C110 273.583 110.75 273.583 111.584 273.583C114.25 273.667 114.583 274 114.666 276.5C114.666 277.417 114.666 278.333 114.666 279.25C114.666 293.5 117.666 307.167 123.166 320.25C127.166 329.833 132.75 338.25 140.167 345.417C149.25 354.083 160.083 359.583 172.333 362.417C177.249 363.5 182.25 364.083 187.25 364.667C191.833 365.167 196.416 365.25 200.999 365.167C204.833 365.167 208.749 364.417 212.583 364.083C216.833 363.667 220.916 362.75 225.833 362.25C222.999 360.833 220.75 359.583 218.417 358.5C213.25 356.083 208.833 352.583 204.833 348.667C196.083 340.167 190.166 330 187.833 317.833C186.666 311.75 186.25 305.75 186.917 299.5C188.084 289.583 191.333 280.583 196.75 272.333C200.75 266.25 206.084 261.417 211.917 257C220.667 250.333 230.749 247.25 241.333 245.417C243.583 245 245.916 245.417 248.25 245.25C252.5 244.75 256.749 245 260.833 245.5C268.416 246.333 275.833 248.25 283.083 251.167C290.916 254.333 298.083 258.667 304.583 263.917C315.249 272.5 323.666 282.917 330.333 294.917C334.916 303.167 339.083 311.583 341.999 320.5C344.499 328.083 346.333 335.833 347.333 343.833C347.999 349.5 348.666 355.167 348.583 360.917C348.416 369.75 347.084 378.417 344.667 386.917C343 392.667 341.083 398.25 338.333 403.583C334.166 411.583 328.999 418.75 322.749 425.25C315.583 432.667 307.666 439 298.749 444.083C292.583 447.583 286.083 450.5 279.333 452.917C271.749 455.583 263.999 457.583 256.249 459.583C255.916 459.583 255.667 459.833 255.417 460.167C270.667 458.833 285.667 456 300.417 452C315.167 448 329.334 442.75 343.417 436.083C343 437.583 341.999 437.667 341.249 438.083C327.333 445.5 312.666 451.25 297.583 455.667C288.666 458.25 279.666 460.25 270.499 461.75C264.083 462.833 257.584 463.25 251.167 464.333C251.084 464.333 250.916 464.333 250.833 464.333C242.833 464.333 234.749 465.917 226.749 464.917C221.749 464.333 216.75 464.5 211.667 463.917C207 463.417 202.416 462.583 197.749 462.167C193.583 461.75 189.416 460.75 185.249 459.917C175.499 457.917 165.834 455.25 156.417 451.917C149.584 449.5 142.916 446.75 136.333 443.833C123.249 438.083 111.083 430.75 99.4165 422.667C94.1665 419 89.1665 415 84.1665 411C77.5835 405.75 71.7495 399.833 65.7495 393.917C58.0835 386.333 51.3335 378 44.9165 369.333C38.8335 361 33.2495 352.333 28.3335 343.25C20.3335 328.667 14.1667 313.5 9.58331 297.583C7.66671 291.083 5.9167 284.583 4.6667 277.917C3.6667 272.417 2.6667 266.917 2 261.333C1.25 255.417 0.500002 249.583 0.666702 243.583C0.666702 242.917 0.6667 242.167 0 241.75V222.417C0.6667 222 0.666702 221.25 0.666702 220.583C0.666702 217.167 0.9167 213.75 1.25 210.333C1.75 205 2.6667 199.75 3.4167 194.417C5 183.083 8 172 11.4167 161.167C13.75 153.833 16.5833 146.75 19.6665 139.667C24.2505 129.417 29.2505 119.333 35.3335 109.917C39.9165 102.833 44.6665 95.833 50.0005 89.167C55.0835 82.833 60.4165 76.75 66.0005 70.75C70.9165 65.5 76.5005 60.833 81.9165 56.083C87.6665 51 93.7505 46.333 100.001 41.917C113.5 32.583 127.75 24.5 143 18.333C152.417 14.5 162.084 11.083 171.917 8.41701C179.417 6.41701 187.001 4.66701 194.667 3.41701C198.251 2.83301 201.916 2.33301 205.499 1.91701C209.249 1.50001 212.999 0.917007 216.749 1.16701C217.249 1.16701 217.584 0.917 217.917 0.5H248.25L248.499 0.75ZM273.083 359.833C280.999 360.167 286.999 353.833 287.083 346.083C287.083 339 280.749 332.417 273.499 332.583C265.333 332.75 259.833 338.083 259.749 345.833C259.583 353.333 264.75 359.667 273.167 359.833H273.083ZM273.167 122.083C280.5 122.833 287.166 115.75 287.083 109C287.083 100.333 279.667 95.167 273.417 95.083C265.834 95 259.499 101.5 259.499 108.667C259.499 116 265.999 122.667 273.083 122.083H273.167Z" fill="#FF0077"/>
<path d="M375.417 50C412.834 79.416 439.583 116.416 454.083 161.75C470.25 212.166 469.167 262.416 451.25 312.25C434.25 359.416 403.5 394.416 376.333 415.166C377 413.583 378.001 412.75 378.917 412.083C381.001 410.583 382.5 408.583 384.25 406.833C390.333 400.916 395.167 394.166 399.667 387.083C403.834 380.666 407.083 373.833 409.833 366.833C413 358.833 415.083 350.5 416.25 342C416.833 337.833 417.167 333.583 417.667 329.416C418.167 325.083 418.167 320.75 418.167 316.416C418.167 310.916 417.334 305.5 416.917 300C416.167 290.583 414.084 281.5 411.917 272.416C411.001 268.5 409.833 264.666 408.583 260.833C406.166 253.083 403.666 245.333 401.083 237.583C400.083 234.5 400.083 231.583 401.083 228.5C404.083 219.583 407.333 210.75 409.833 201.666C411.833 194.5 413.5 187.25 414.75 179.916C415.666 174.666 416.166 169.25 417.25 164.083C417.25 163.75 417.416 163.416 417.333 163.083C416.916 157.666 418.25 152.333 418 147C417.75 140.916 417.416 134.916 416.749 128.916C415.833 120.083 414.001 111.5 411.167 103.166C407.417 92.333 402.334 82.333 395.667 73C391.251 66.833 386.333 61.083 381 55.75C379.083 53.833 376.5 52.583 375.25 50H375.417Z" fill="#FF0077"/>
<path d="M597 363.35V114.231H696.918C715.275 114.231 730.587 116.948 742.854 122.383C755.121 127.815 764.34 135.356 770.514 145.006C776.687 154.576 779.776 165.604 779.776 178.093C779.776 187.823 777.824 196.379 773.926 203.759C770.026 211.057 764.664 217.057 757.842 221.761C751.1 226.383 743.382 229.667 734.692 231.615V234.047C744.195 234.451 753.089 237.127 761.375 242.075C769.742 247.021 776.527 253.955 781.724 262.877C786.922 271.716 789.523 282.257 789.523 294.502C789.523 307.72 786.233 319.518 779.652 329.899C773.154 340.196 763.528 348.348 750.776 354.347C738.021 360.35 722.301 363.35 703.62 363.35H597ZM649.762 320.289H692.773C707.477 320.289 718.2 317.493 724.942 311.897C731.684 306.221 735.056 298.677 735.056 289.271C735.056 282.377 733.391 276.297 730.059 271.025C726.73 265.753 721.977 261.619 715.803 258.619C709.71 255.616 702.44 254.118 693.993 254.118H649.762V320.289ZM649.762 218.478H688.876C696.106 218.478 702.523 217.22 708.126 214.707C713.814 212.111 718.28 208.461 721.529 203.759C724.861 199.055 726.526 193.419 726.526 186.849C726.526 177.85 723.317 170.592 716.9 165.077C710.565 159.561 701.547 156.805 689.849 156.805H649.762V218.478ZM942.486 367C923.236 367 906.664 363.106 892.772 355.322C878.961 347.457 868.322 336.346 860.848 321.991C853.374 307.559 849.637 290.488 849.637 270.782C849.637 251.562 853.374 234.695 860.848 220.18C868.322 205.665 878.841 194.35 892.408 186.242C906.055 178.133 922.056 174.079 940.417 174.079C952.764 174.079 964.259 176.065 974.898 180.039C985.621 183.932 994.963 189.812 1002.93 197.677C1010.97 205.542 1017.22 215.435 1021.69 227.357C1026.16 239.196 1028.39 253.063 1028.39 268.957V283.188H870.351V251.075H979.531C979.531 243.617 977.906 237.007 974.654 231.248C971.405 225.492 966.899 220.991 961.13 217.747C955.445 214.421 948.823 212.759 941.269 212.759C933.39 212.759 926.402 214.584 920.311 218.234C914.298 221.802 909.588 226.627 906.176 232.709C902.763 238.709 901.018 245.399 900.935 252.78V283.311C900.935 292.554 902.643 300.542 906.055 307.273C909.548 314.006 914.462 319.195 920.799 322.845C927.134 326.492 934.648 328.317 943.341 328.317C949.107 328.317 954.388 327.506 959.181 325.885C963.975 324.263 968.076 321.831 971.489 318.587C974.898 315.344 977.499 311.37 979.287 306.665L1027.3 309.828C1024.86 321.343 1019.86 331.4 1012.31 339.996C1004.83 348.511 995.167 355.158 983.308 359.943C971.529 364.648 957.921 367 942.486 367ZM1149.95 366.877C1138.01 366.877 1127.37 364.808 1118.02 360.674C1108.68 356.456 1101.29 350.253 1095.85 342.062C1090.49 333.793 1087.81 323.492 1087.81 311.166C1087.81 300.786 1089.72 292.07 1093.53 285.013C1097.35 277.959 1102.55 272.283 1109.13 267.985C1115.71 263.687 1123.18 260.441 1131.55 258.252C1140 256.063 1148.85 254.522 1158.11 253.631C1169 252.496 1177.77 251.442 1184.43 250.468C1191.09 249.413 1195.93 247.872 1198.93 245.846C1201.94 243.818 1203.44 240.818 1203.44 236.844V236.116C1203.44 228.411 1201 222.449 1196.13 218.234C1191.34 214.017 1184.51 211.908 1175.66 211.908C1166.32 211.908 1158.89 213.977 1153.36 218.111C1147.84 222.165 1144.18 227.277 1142.39 233.44L1094.39 229.546C1096.82 218.194 1101.62 208.381 1108.76 200.109C1115.91 191.757 1125.13 185.351 1136.42 180.89C1147.8 176.348 1160.96 174.079 1175.9 174.079C1186.3 174.079 1196.25 175.294 1205.76 177.727C1215.34 180.159 1223.83 183.932 1231.22 189.041C1238.7 194.15 1244.59 200.717 1248.89 208.745C1253.2 216.693 1255.35 226.222 1255.35 237.331V363.35H1206.12V337.44H1204.66C1201.65 343.279 1197.63 348.428 1192.6 352.889C1187.56 357.267 1181.51 360.714 1174.44 363.229C1167.37 365.662 1159.21 366.877 1149.95 366.877ZM1164.82 331.116C1172.45 331.116 1179.19 329.615 1185.04 326.615C1190.89 323.533 1195.48 319.398 1198.81 314.206C1202.14 309.017 1203.81 303.138 1203.81 296.568V276.741C1202.18 277.796 1199.95 278.77 1197.1 279.661C1194.34 280.472 1191.21 281.242 1187.72 281.973C1184.23 282.621 1180.74 283.231 1177.24 283.798C1173.75 284.285 1170.58 284.729 1167.74 285.136C1161.65 286.027 1156.33 287.446 1151.78 289.394C1147.23 291.339 1143.69 293.975 1141.18 297.299C1138.66 300.542 1137.4 304.597 1137.4 309.464C1137.4 316.519 1139.96 321.911 1145.07 325.641C1150.28 329.291 1156.85 331.116 1164.82 331.116ZM1449.96 283.798V176.512H1501.87V363.35H1452.03V329.412H1450.08C1445.85 340.36 1438.83 349.159 1429 355.809C1419.25 362.459 1407.35 365.782 1393.3 365.782C1380.79 365.782 1369.78 362.943 1360.27 357.267C1350.77 351.591 1343.34 343.523 1337.98 333.062C1332.7 322.601 1330.02 310.072 1329.93 295.474V176.512H1381.84V286.231C1381.92 297.259 1384.89 305.977 1390.74 312.384C1396.59 318.788 1404.42 321.991 1414.25 321.991C1420.51 321.991 1426.36 320.573 1431.8 317.736C1437.24 314.816 1441.63 310.519 1444.96 304.84C1448.37 299.164 1450.04 292.15 1449.96 283.798ZM1677.24 176.512V215.435H1564.54V176.512H1677.24ZM1590.12 131.749H1642.04V305.935C1642.04 310.719 1642.77 314.45 1644.24 317.126C1645.69 319.722 1647.72 321.547 1650.33 322.601C1653.01 323.656 1656.09 324.183 1659.57 324.183C1662.01 324.183 1664.45 323.979 1666.89 323.573C1669.33 323.088 1671.21 322.722 1672.49 322.478L1680.67 361.038C1678.07 361.848 1674.4 362.782 1669.71 363.837C1664.99 364.972 1659.25 365.662 1652.52 365.905C1640 366.39 1629.04 364.728 1619.6 360.917C1610.28 357.107 1603.01 351.187 1597.81 343.159C1592.61 335.131 1590.04 324.994 1590.12 312.748V131.749ZM1827.92 367C1809 367 1792.64 362.986 1778.81 354.958C1765.09 346.846 1754.5 335.575 1747.02 321.14C1739.54 306.625 1735.81 289.798 1735.81 270.661C1735.81 251.361 1739.54 234.491 1747.02 220.059C1754.5 205.542 1765.09 194.27 1778.81 186.242C1792.64 178.133 1809 174.079 1827.92 174.079C1846.85 174.079 1863.17 178.133 1876.92 186.242C1890.73 194.27 1901.37 205.542 1908.83 220.059C1916.3 234.491 1920.06 251.361 1920.06 270.661C1920.06 289.798 1916.3 306.625 1908.83 321.14C1901.37 335.575 1890.73 346.846 1876.92 354.958C1863.17 362.986 1846.85 367 1827.92 367ZM1828.16 326.859C1836.79 326.859 1843.98 324.426 1849.74 319.558C1855.51 314.613 1859.85 307.883 1862.77 299.368C1865.77 290.852 1867.27 281.162 1867.27 270.295C1867.27 259.43 1865.77 249.737 1862.77 241.225C1859.85 232.709 1855.51 225.979 1849.74 221.031C1843.98 216.085 1836.79 213.61 1828.16 213.61C1819.48 213.61 1812.16 216.085 1806.23 221.031C1800.39 225.979 1795.97 232.709 1792.97 241.225C1790.04 249.737 1788.57 259.43 1788.57 270.295C1788.57 281.162 1790.04 290.852 1792.97 299.368C1795.97 307.883 1800.39 314.613 1806.23 319.558C1812.16 324.426 1819.48 326.859 1828.16 326.859ZM2040.02 255.333V363.35H1988.12V176.512H2037.58V209.476H2039.78C2043.93 198.608 2050.88 190.012 2060.61 183.689C2070.36 177.282 2082.19 174.079 2096.07 174.079C2109.07 174.079 2120.41 176.916 2130.06 182.594C2139.74 188.27 2147.25 196.379 2152.61 206.92C2157.97 217.383 2160.65 229.87 2160.65 244.385V363.35H2108.75V253.631C2108.83 242.196 2105.91 233.277 2099.96 226.87C2094.03 220.383 2085.89 217.14 2075.48 217.14C2068.49 217.14 2062.32 218.638 2056.96 221.638C2051.68 224.641 2047.52 229.019 2044.52 234.778C2041.6 240.454 2040.1 247.304 2040.02 255.333ZM2320.45 367C2301.52 367 2285.14 362.986 2271.34 354.958C2257.61 346.846 2247 335.575 2239.54 321.14C2232.06 306.625 2228.31 289.798 2228.31 270.661C2228.31 251.361 2232.06 234.491 2239.54 220.059C2247 205.542 2257.61 194.27 2271.34 186.242C2285.14 178.133 2301.52 174.079 2320.45 174.079C2339.37 174.079 2355.7 178.133 2369.42 186.242C2383.23 194.27 2393.87 205.542 2401.35 220.059C2408.83 234.491 2412.56 251.361 2412.56 270.661C2412.56 289.798 2408.83 306.625 2401.35 321.14C2393.87 335.575 2383.23 346.846 2369.42 354.958C2355.7 362.986 2339.37 367 2320.45 367ZM2320.69 326.859C2329.29 326.859 2336.48 324.426 2342.24 319.558C2348.03 314.613 2352.37 307.883 2355.3 299.368C2358.3 290.852 2359.8 281.162 2359.8 270.295C2359.8 259.43 2358.3 249.737 2355.3 241.225C2352.37 232.709 2348.03 225.979 2342.24 221.031C2336.48 216.085 2329.29 213.61 2320.69 213.61C2312 213.61 2304.68 216.085 2298.76 221.031C2292.89 225.979 2288.47 232.709 2285.46 241.225C2282.54 249.737 2281.09 259.43 2281.09 270.295C2281.09 281.162 2282.54 290.852 2285.46 299.368C2288.47 307.883 2292.89 314.613 2298.76 319.558C2304.68 324.426 2312 326.859 2320.69 326.859ZM2480.62 363.35V176.512H2530.1V209.476H2532.3C2536.19 198.528 2542.68 189.892 2551.79 183.566C2560.88 177.242 2571.76 174.079 2584.44 174.079C2597.28 174.079 2608.19 177.282 2617.23 183.689C2626.23 190.012 2632.24 198.608 2635.24 209.476H2637.2C2641.03 198.771 2647.92 190.216 2657.92 183.809C2668 177.322 2679.9 174.079 2693.63 174.079C2711.08 174.079 2725.26 179.632 2736.14 190.743C2747.11 201.771 2752.6 217.424 2752.6 237.695V363.35H2700.81V247.915C2700.81 237.534 2698.05 229.749 2692.53 224.558C2687.01 219.369 2680.09 216.773 2671.81 216.773C2662.4 216.773 2655.03 219.773 2649.74 225.776C2644.46 231.695 2641.84 239.52 2641.84 249.253V363.35H2591.52V246.82C2591.52 237.655 2588.87 230.357 2583.58 224.925C2578.38 219.489 2571.52 216.773 2563 216.773C2557.23 216.773 2552.03 218.234 2547.4 221.154C2542.84 223.991 2539.25 228.005 2536.56 233.196C2533.88 238.305 2532.54 244.305 2532.54 251.198V363.35H2480.62ZM2827.9 363.35V176.512H2879.83V363.35H2827.9ZM2853.99 152.427C2846.27 152.427 2839.64 149.871 2834.12 144.763C2828.68 139.574 2825.97 133.371 2825.97 126.153C2825.97 119.016 2828.68 112.893 2834.12 107.785C2839.64 102.596 2846.27 100 2853.99 100C2861.71 100 2868.27 102.596 2873.72 107.785C2879.24 112.893 2882 119.016 2882 126.153C2882 133.371 2879.24 139.574 2873.72 144.763C2868.27 149.871 2861.71 152.427 2853.99 152.427Z" fill="#FF0077"/>
</svg>
