<svg width="924" height="399" viewBox="0 0 924 399" fill="none" role="img" xmlns="http://www.w3.org/2000/svg">
<g clip-path="url(#clip0_1805:64148)">
<path d="M344.2 244.205C332.478 244.205 323.16 240.63 316.246 233.48C309.333 226.331 305.894 216.35 305.93 203.539C305.93 191.127 309.414 181.238 316.382 173.87C323.351 166.503 332.696 162.829 344.418 162.847C347.231 162.846 350.04 163.027 352.829 163.391C355.246 163.727 357.638 164.227 359.988 164.888C361.97 165.489 363.915 166.207 365.812 167.038C367.908 167.964 369.623 168.753 370.902 169.434V188.106H368.915C367.963 187.262 366.765 186.255 365.322 185.057C363.775 183.801 362.147 182.646 360.45 181.601C358.546 180.449 356.531 179.491 354.435 178.743C352.238 177.937 349.915 177.531 347.576 177.545C344.914 177.499 342.266 177.942 339.764 178.852C337.193 179.891 334.88 181.48 332.986 183.506C330.813 185.851 329.17 188.636 328.168 191.672C326.828 195.547 326.183 199.63 326.263 203.73C326.14 207.906 326.795 212.069 328.196 216.006C329.273 219.068 331.01 221.856 333.286 224.171C335.212 226.079 337.535 227.538 340.09 228.445C342.492 229.308 345.023 229.759 347.576 229.778C350.108 229.783 352.622 229.35 355.006 228.499C357.09 227.783 359.081 226.824 360.94 225.641C362.56 224.657 364.107 223.556 365.567 222.348C366.901 221.232 368.072 220.225 369.051 219.354H370.848V237.754L365.84 240.04C363.938 240.891 361.983 241.618 359.988 242.218C357.725 242.901 355.426 243.455 353.101 243.878C350.148 244.235 347.171 244.345 344.2 244.205V244.205Z" fill="#DDDDDD"/>
<path d="M441.291 213.338C441.291 223.064 438.569 230.713 433.125 236.284C427.682 241.864 420.278 244.667 410.588 244.64C400.898 244.613 393.44 241.918 388.105 236.202C382.77 230.486 380.157 222.946 380.157 213.229C380.157 203.512 382.879 195.727 388.323 190.174C393.767 184.622 401.197 181.873 410.833 182.009C420.469 182.145 428.008 184.731 433.316 190.42C438.624 196.108 441.291 203.594 441.291 213.338ZM422.401 213.338C422.463 210.394 422.18 207.452 421.557 204.573C421.108 202.574 420.296 200.674 419.162 198.966C418.238 197.676 416.989 196.652 415.542 195.999C414.055 195.401 412.463 195.105 410.86 195.128C409.34 195.106 407.829 195.355 406.396 195.863C404.928 196.492 403.651 197.497 402.694 198.776C401.482 200.465 400.621 202.381 400.163 204.41C399.469 207.352 399.149 210.37 399.21 213.392C399.116 216.339 399.409 219.286 400.081 222.157C400.519 224.096 401.303 225.94 402.395 227.601C403.309 228.935 404.584 229.983 406.07 230.622C407.613 231.266 409.27 231.59 410.942 231.575C412.497 231.566 414.034 231.241 415.46 230.622C416.909 230.079 418.174 229.135 419.108 227.9C420.257 226.251 421.096 224.406 421.584 222.456C422.243 219.492 422.518 216.454 422.401 213.42V213.338Z" fill="#DDDDDD"/>
<path d="M509.583 242.979H491.047V213.691C491.047 211.296 491.047 208.928 490.775 206.56C490.707 204.763 490.348 202.989 489.713 201.306C489.166 200.066 488.204 199.055 486.991 198.448C485.477 197.812 483.842 197.514 482.201 197.577C480.641 197.586 479.094 197.862 477.628 198.394C475.871 199.093 474.207 200.007 472.674 201.116V243.006H454.274V183.941H472.674V190.446C475.369 188.112 478.329 186.102 481.493 184.458C484.451 183.018 487.704 182.291 490.993 182.335C493.583 182.176 496.175 182.611 498.571 183.606C500.967 184.602 503.105 186.131 504.82 188.078C508.309 192.859 509.987 198.724 509.556 204.627L509.583 242.979Z" fill="#DDDDDD"/>
<path d="M558.986 236.829L555.611 239.551C554.399 240.613 553.065 241.526 551.637 242.273C550.091 243.036 548.479 243.656 546.819 244.124C544.667 244.599 542.463 244.8 540.26 244.723C537.844 244.788 535.441 244.353 533.201 243.444C530.962 242.535 528.935 241.173 527.249 239.442C525.534 237.699 524.194 235.624 523.309 233.345C522.425 231.066 522.015 228.63 522.104 226.186C521.953 222.458 522.899 218.766 524.826 215.571C526.71 212.771 529.341 210.555 532.42 209.174C536.202 207.435 540.235 206.305 544.37 205.826C548.997 205.191 553.978 204.71 559.313 204.384V204.057C559.443 202.7 559.172 201.334 558.533 200.13C557.894 198.925 556.916 197.934 555.72 197.28C552.276 195.849 548.556 195.207 544.832 195.402C542.243 195.457 539.671 195.851 537.184 196.572C534.272 197.363 531.424 198.373 528.664 199.593H527.14V185.113C528.964 184.596 531.903 183.969 535.986 183.262C540.049 182.554 544.165 182.199 548.289 182.2C558.469 182.2 565.873 183.915 570.5 187.317C572.855 189.123 574.723 191.487 575.935 194.196C577.147 196.905 577.664 199.873 577.441 202.832V243.008H558.986V236.829ZM558.986 227.683V215.353L551.419 216.17C549.476 216.384 547.566 216.832 545.731 217.503C544.245 217.951 542.928 218.833 541.947 220.035C541 221.355 540.529 222.958 540.613 224.58C540.484 225.643 540.62 226.722 541.01 227.719C541.399 228.717 542.03 229.602 542.845 230.296C544.835 231.463 547.131 232.004 549.432 231.848C551.143 231.844 552.832 231.473 554.386 230.759C556.101 230.02 557.668 228.978 559.014 227.683H558.986Z" fill="#DDDDDD"/>
<path d="M652.102 212.903C652.492 221.123 649.934 229.212 644.889 235.713C642.812 238.434 640.129 240.633 637.053 242.135C633.977 243.638 630.593 244.402 627.17 244.369C624.576 244.406 621.99 244.067 619.494 243.361C617.072 242.576 614.745 241.527 612.553 240.231V262.197H594.099L594.262 184.105H612.662V190.284C615.156 188.095 617.896 186.204 620.828 184.65C623.864 183.187 627.202 182.46 630.572 182.527C633.696 182.409 636.798 183.098 639.577 184.529C642.357 185.959 644.721 188.082 646.441 190.692C650.252 196.136 652.139 203.54 652.102 212.903ZM633.294 213.257C633.602 208.9 632.658 204.546 630.572 200.709C629.654 199.419 628.423 198.385 626.994 197.704C625.565 197.023 623.986 196.718 622.406 196.817C620.735 196.814 619.073 197.072 617.48 197.579C615.778 198.157 614.159 198.953 612.662 199.947V229.67C613.703 230.094 614.79 230.396 615.901 230.568C617.28 230.769 618.672 230.86 620.066 230.841C621.966 230.985 623.874 230.661 625.62 229.897C627.366 229.133 628.899 227.953 630.082 226.458C632.507 222.502 633.631 217.885 633.294 213.257V213.257Z" fill="#DDDDDD"/>
<path d="M718.871 243.388H700.471V237.236C699.273 238.216 697.913 239.251 696.388 240.366C695.121 241.325 693.773 242.172 692.36 242.898C690.967 243.566 689.507 244.086 688.005 244.449C686.31 244.839 684.572 245.013 682.833 244.967C679.68 245.046 676.559 244.318 673.767 242.85C670.975 241.383 668.605 239.225 666.883 236.583C662.661 229.911 660.616 222.093 661.031 214.209C660.942 209.663 661.623 205.136 663.045 200.817C664.244 197.22 666.089 193.872 668.489 190.937C670.621 188.382 673.276 186.312 676.273 184.867C679.29 183.395 682.607 182.64 685.963 182.662C688.53 182.593 691.092 182.923 693.558 183.642C695.941 184.468 698.254 185.488 700.471 186.69V161.54H718.871V243.388ZM700.498 227.056V198.068C699.366 197.53 698.167 197.145 696.933 196.925C695.687 196.662 694.421 196.507 693.149 196.462C691.23 196.34 689.312 196.7 687.567 197.508C685.823 198.316 684.308 199.547 683.16 201.089C680.708 204.939 679.527 209.461 679.785 214.018C679.471 218.402 680.416 222.783 682.507 226.648C683.488 227.978 684.793 229.035 686.299 229.716C687.805 230.398 689.461 230.681 691.108 230.54C692.785 230.545 694.447 230.231 696.007 229.615C697.627 228.998 699.142 228.135 700.498 227.056V227.056Z" fill="#DDDDDD"/>
<path d="M755.263 175.967H735.802V161.596H755.263V175.967ZM754.61 243.471H736.21V184.405H754.61V243.471Z" fill="#DDDDDD"/>
<path d="M789.94 245.157C785.778 245.175 781.629 244.691 777.583 243.715C774.275 242.958 771.061 241.835 768.001 240.367V224.825H769.526L772.52 227.029C773.988 228.034 775.557 228.882 777.202 229.561C779.07 230.424 781.01 231.125 782.999 231.656C785.293 232.249 787.653 232.542 790.022 232.528C792.374 232.582 794.713 232.175 796.908 231.33C797.752 231.099 798.499 230.6 799.034 229.908C799.569 229.215 799.865 228.367 799.875 227.492C799.909 226.904 799.804 226.316 799.567 225.777C799.331 225.238 798.97 224.762 798.514 224.389C796.84 223.385 794.994 222.702 793.07 222.375C791.655 222.021 789.886 221.667 787.627 221.259C785.705 220.897 783.805 220.424 781.938 219.843C777.909 218.768 774.285 216.535 771.513 213.42C769.074 210.237 767.839 206.293 768.029 202.287C768.041 199.698 768.675 197.149 769.88 194.856C771.216 192.405 773.074 190.277 775.323 188.623C777.956 186.715 780.905 185.287 784.034 184.404C787.835 183.301 791.78 182.769 795.738 182.825C799.585 182.811 803.421 183.24 807.17 184.105C810.189 184.777 813.127 185.772 815.934 187.072V202.015H814.465C813.838 201.525 812.831 200.872 811.47 200.028C810.177 199.247 808.841 198.538 807.469 197.905C805.806 197.158 804.074 196.574 802.298 196.163C800.382 195.695 798.417 195.457 796.445 195.455C794.112 195.39 791.795 195.856 789.668 196.816C788.911 197.09 788.251 197.578 787.768 198.221C787.284 198.864 786.999 199.634 786.946 200.436C786.92 201.031 787.029 201.624 787.265 202.171C787.5 202.718 787.857 203.204 788.307 203.594C790.126 204.736 792.151 205.513 794.268 205.88C795.847 206.261 797.643 206.642 799.712 207.023C801.715 207.377 803.689 207.878 805.618 208.52C809.341 209.574 812.684 211.671 815.254 214.563C817.55 217.59 818.706 221.329 818.52 225.124C818.523 227.876 817.851 230.587 816.56 233.017C815.272 235.532 813.407 237.705 811.117 239.36C808.413 241.301 805.392 242.756 802.189 243.66C798.197 244.734 794.073 245.238 789.94 245.157V245.157Z" fill="#DDDDDD"/>
<path d="M196.073 126.291C197.893 126.299 199.71 126.408 201.517 126.618C202.22 126.72 202.934 126.544 203.509 126.127C204.084 125.71 204.473 125.086 204.593 124.386L206.825 111.729C206.895 111.363 206.889 110.987 206.807 110.623C206.726 110.259 206.57 109.916 206.351 109.615C206.132 109.314 205.853 109.062 205.532 108.873C205.21 108.684 204.854 108.563 204.484 108.517C198.971 107.828 193.393 107.828 187.88 108.517C187.511 108.563 187.154 108.684 186.833 108.873C186.512 109.062 186.233 109.314 186.014 109.615C185.794 109.916 185.639 110.259 185.557 110.623C185.476 110.987 185.47 111.363 185.54 111.729L187.772 124.386C187.892 125.086 188.281 125.71 188.855 126.127C189.43 126.544 190.145 126.72 190.847 126.618C192.582 126.416 194.327 126.307 196.073 126.291V126.291Z" fill="#DDDDDD"/>
<path d="M201.925 138.838C201.995 138.464 201.986 138.079 201.898 137.709C201.809 137.338 201.645 136.991 201.414 136.688C201.183 136.385 200.891 136.134 200.557 135.951C200.223 135.769 199.855 135.658 199.475 135.626C198.36 135.626 197.216 135.463 196.073 135.463C194.93 135.463 193.787 135.463 192.671 135.626C192.291 135.658 191.923 135.769 191.589 135.951C191.255 136.134 190.963 136.385 190.732 136.688C190.502 136.991 190.337 137.338 190.249 137.709C190.161 138.079 190.151 138.464 190.221 138.838L196.073 172.073L201.925 138.838Z" fill="#DDDDDD"/>
<path d="M196.073 263.64C194.253 263.646 192.435 263.536 190.629 263.313C189.923 263.211 189.204 263.391 188.629 263.813C188.054 264.236 187.667 264.868 187.553 265.572L185.321 278.202C185.252 278.568 185.257 278.944 185.339 279.308C185.421 279.672 185.576 280.014 185.795 280.316C186.015 280.617 186.294 280.869 186.615 281.058C186.936 281.247 187.292 281.368 187.662 281.414C193.175 282.103 198.753 282.103 204.266 281.414C204.636 281.368 204.992 281.247 205.313 281.058C205.634 280.869 205.913 280.617 206.133 280.316C206.352 280.014 206.507 279.672 206.589 279.308C206.67 278.944 206.677 278.568 206.607 278.202L204.375 265.572C204.261 264.868 203.874 264.236 203.299 263.813C202.724 263.391 202.006 263.211 201.299 263.313C199.565 263.528 197.82 263.637 196.073 263.64V263.64Z" fill="#DDDDDD"/>
<path d="M190.221 251.092C190.151 251.466 190.161 251.851 190.249 252.221C190.337 252.591 190.502 252.939 190.732 253.242C190.963 253.544 191.255 253.795 191.589 253.978C191.923 254.161 192.291 254.272 192.671 254.303C193.787 254.303 194.93 254.467 196.073 254.467C197.216 254.467 198.36 254.467 199.475 254.303C199.855 254.272 200.223 254.161 200.557 253.978C200.891 253.795 201.183 253.544 201.414 253.242C201.645 252.939 201.809 252.591 201.898 252.221C201.986 251.851 201.995 251.466 201.925 251.092L196.073 217.775L190.221 251.092Z" fill="#DDDDDD"/>
<path d="M221.115 268.376C219.441 268.987 217.733 269.496 215.997 269.9C215.301 270.045 214.689 270.456 214.293 271.046C213.896 271.636 213.746 272.358 213.874 273.057L216.106 285.714C216.168 286.081 216.303 286.43 216.504 286.742C216.705 287.054 216.968 287.322 217.277 287.528C217.585 287.735 217.933 287.876 218.298 287.943C218.663 288.01 219.038 288.002 219.4 287.919C222.108 287.319 224.772 286.537 227.375 285.578C229.999 284.641 232.555 283.522 235.024 282.23C235.35 282.06 235.638 281.825 235.87 281.54C236.103 281.254 236.275 280.925 236.377 280.571C236.479 280.218 236.508 279.847 236.462 279.482C236.417 279.117 236.298 278.765 236.112 278.447L229.689 267.314C229.339 266.697 228.762 266.24 228.081 266.042C227.399 265.844 226.668 265.919 226.041 266.253C224.441 267.053 222.796 267.762 221.115 268.376Z" fill="#DDDDDD"/>
<path d="M211.398 258.604C211.461 258.979 211.601 259.337 211.811 259.655C212.021 259.973 212.295 260.243 212.616 260.448C212.936 260.654 213.296 260.789 213.673 260.847C214.049 260.904 214.433 260.882 214.8 260.781C215.9 260.512 216.981 260.175 218.039 259.774C219.128 259.393 220.163 258.93 221.197 258.468C221.543 258.308 221.852 258.077 222.104 257.79C222.355 257.503 222.543 257.166 222.656 256.802C222.769 256.437 222.804 256.053 222.759 255.674C222.714 255.295 222.59 254.93 222.395 254.603L205.519 225.369L211.398 258.604Z" fill="#DDDDDD"/>
<path d="M148.985 143.44C150.351 142.29 151.787 141.226 153.286 140.255C153.894 139.883 154.333 139.286 154.506 138.594C154.679 137.901 154.573 137.169 154.211 136.554L147.787 125.421C147.605 125.095 147.358 124.81 147.062 124.583C146.765 124.357 146.424 124.194 146.062 124.105C145.699 124.015 145.322 124.001 144.954 124.064C144.586 124.126 144.235 124.264 143.922 124.468C141.59 125.98 139.354 127.634 137.226 129.422C135.098 131.203 133.088 133.121 131.211 135.165C130.96 135.438 130.767 135.758 130.644 136.108C130.522 136.457 130.471 136.828 130.497 137.197C130.522 137.567 130.623 137.927 130.793 138.257C130.962 138.586 131.197 138.877 131.483 139.112L141.309 147.278C141.848 147.737 142.544 147.968 143.251 147.922C143.957 147.877 144.618 147.558 145.093 147.033C146.326 145.767 147.625 144.568 148.985 143.44V143.44Z" fill="#DDDDDD"/>
<path d="M161.533 149.265C161.345 148.933 161.089 148.645 160.783 148.419C160.476 148.193 160.125 148.034 159.753 147.952C159.381 147.87 158.996 147.866 158.623 147.943C158.25 148.019 157.897 148.172 157.586 148.394C156.642 149.033 155.733 149.724 154.864 150.462C154 151.191 153.173 151.963 152.388 152.776C152.117 153.042 151.905 153.362 151.765 153.715C151.626 154.068 151.562 154.447 151.577 154.826C151.592 155.206 151.687 155.578 151.855 155.918C152.022 156.259 152.259 156.561 152.551 156.804L178.409 178.58L161.533 149.265Z" fill="#DDDDDD"/>
<path d="M237.257 248.643C235.901 249.806 234.464 250.87 232.956 251.827C232.352 252.204 231.919 252.803 231.751 253.495C231.583 254.187 231.693 254.917 232.058 255.529L238.617 266.77C238.8 267.093 239.045 267.374 239.34 267.598C239.635 267.822 239.972 267.984 240.331 268.073C240.691 268.162 241.064 268.177 241.429 268.117C241.795 268.057 242.144 267.923 242.455 267.723C244.807 266.237 247.053 264.591 249.179 262.796C251.307 261.016 253.317 259.097 255.194 257.053C255.445 256.781 255.638 256.46 255.761 256.111C255.883 255.762 255.933 255.391 255.908 255.021C255.882 254.652 255.782 254.291 255.612 253.962C255.443 253.633 255.208 253.342 254.922 253.106L245.096 244.941C244.555 244.473 243.853 244.237 243.14 244.283C242.427 244.329 241.761 244.653 241.285 245.186C240.011 246.415 238.665 247.57 237.257 248.643V248.643Z" fill="#DDDDDD"/>
<path d="M224.709 242.816C224.897 243.151 225.154 243.443 225.463 243.672C225.771 243.9 226.125 244.061 226.501 244.144C226.876 244.226 227.265 244.228 227.641 244.149C228.017 244.07 228.372 243.913 228.683 243.687C229.626 243.046 230.535 242.356 231.405 241.618C232.285 240.897 233.121 240.124 233.909 239.305C234.178 239.036 234.388 238.715 234.526 238.361C234.663 238.007 234.725 237.628 234.707 237.248C234.689 236.869 234.591 236.497 234.421 236.158C234.251 235.818 234.012 235.518 233.719 235.276L207.861 213.501L224.709 242.816Z" fill="#DDDDDD"/>
<path d="M140.629 167.502C141.513 165.953 142.495 164.462 143.569 163.038C144.008 162.479 144.212 161.77 144.136 161.063C144.059 160.356 143.709 159.707 143.16 159.255L133.334 151.089C133.053 150.845 132.725 150.662 132.371 150.551C132.016 150.439 131.642 150.401 131.273 150.439C130.903 150.478 130.545 150.591 130.22 150.773C129.896 150.955 129.613 151.201 129.387 151.497C127.699 153.71 126.153 156.028 124.76 158.438C123.373 160.841 122.145 163.332 121.086 165.896C120.942 166.238 120.87 166.606 120.874 166.977C120.878 167.347 120.957 167.714 121.108 168.053C121.258 168.392 121.476 168.696 121.748 168.948C122.021 169.2 122.342 169.393 122.692 169.516L134.75 173.898C135.414 174.149 136.151 174.13 136.802 173.846C137.453 173.561 137.967 173.033 138.234 172.374C138.93 170.702 139.73 169.075 140.629 167.502V167.502Z" fill="#DDDDDD"/>
<path d="M154.238 168.78C153.949 168.533 153.611 168.35 153.247 168.242C152.883 168.133 152.5 168.103 152.123 168.151C151.746 168.2 151.383 168.327 151.058 168.525C150.734 168.722 150.454 168.985 150.237 169.297C149.583 170.222 148.957 171.175 148.386 172.155C147.814 173.135 147.297 174.169 146.834 175.176C146.667 175.522 146.575 175.899 146.563 176.282C146.552 176.666 146.622 177.048 146.768 177.402C146.915 177.757 147.135 178.077 147.413 178.34C147.692 178.604 148.024 178.806 148.386 178.933L180.096 190.473L154.238 168.78Z" fill="#DDDDDD"/>
<path d="M255.548 233.89C254.638 235.429 253.648 236.919 252.581 238.353C252.141 238.912 251.938 239.621 252.014 240.328C252.09 241.036 252.44 241.685 252.989 242.137L262.842 250.303C263.123 250.546 263.451 250.729 263.806 250.841C264.161 250.953 264.534 250.991 264.904 250.952C265.274 250.914 265.632 250.8 265.956 250.619C266.28 250.437 266.564 250.19 266.789 249.894C268.463 247.677 269.999 245.359 271.389 242.954C272.78 240.549 274.016 238.058 275.091 235.496C275.234 235.154 275.307 234.786 275.303 234.415C275.299 234.044 275.219 233.678 275.069 233.339C274.919 233 274.701 232.695 274.428 232.444C274.156 232.192 273.835 231.999 273.485 231.875L261.4 227.466C260.735 227.225 260.002 227.252 259.357 227.541C258.712 227.831 258.205 228.36 257.943 229.017C257.229 230.682 256.43 232.308 255.548 233.89V233.89Z" fill="#DDDDDD"/>
<path d="M241.748 232.69C242.038 232.941 242.378 233.128 242.745 233.239C243.112 233.35 243.498 233.382 243.878 233.333C244.259 233.284 244.624 233.156 244.952 232.956C245.279 232.756 245.56 232.489 245.777 232.172C246.43 231.247 247.029 230.294 247.6 229.287C248.18 228.309 248.707 227.301 249.179 226.266C249.342 225.922 249.431 225.548 249.44 225.167C249.449 224.787 249.378 224.408 249.231 224.057C249.085 223.706 248.867 223.389 248.591 223.127C248.314 222.865 247.986 222.664 247.628 222.537L215.89 210.996L241.748 232.69Z" fill="#DDDDDD"/>
<path d="M123.944 186.827C124.261 185.072 124.679 183.336 125.196 181.628C125.422 180.949 125.371 180.209 125.055 179.567C124.74 178.926 124.184 178.434 123.508 178.199L111.45 173.816C111.102 173.684 110.731 173.625 110.36 173.643C109.989 173.66 109.624 173.753 109.29 173.916C108.956 174.079 108.659 174.309 108.417 174.591C108.176 174.874 107.994 175.203 107.884 175.558C107.056 178.235 106.401 180.963 105.925 183.724C105.449 186.424 105.14 189.152 104.999 191.89C104.999 192.612 105.286 193.304 105.796 193.814C106.307 194.325 106.999 194.612 107.721 194.612H120.569C121.291 194.612 121.983 194.325 122.493 193.814C123.004 193.304 123.291 192.612 123.291 191.89C123.411 190.191 123.63 188.501 123.944 186.827V186.827Z" fill="#DDDDDD"/>
<path d="M137.308 183.234C136.951 183.099 136.571 183.041 136.19 183.063C135.81 183.085 135.438 183.186 135.1 183.361C134.761 183.535 134.463 183.779 134.224 184.076C133.986 184.373 133.812 184.717 133.715 185.085C133.415 186.174 133.17 187.29 132.953 188.406C132.735 189.522 132.626 190.665 132.544 191.808C132.51 192.186 132.555 192.566 132.677 192.925C132.798 193.284 132.993 193.614 133.249 193.893C133.506 194.172 133.817 194.395 134.165 194.547C134.512 194.699 134.887 194.776 135.266 194.775H169.018L137.308 183.234Z" fill="#DDDDDD"/>
<path d="M268.203 212.33C267.886 214.085 267.468 215.821 266.951 217.528C266.734 218.204 266.788 218.937 267.104 219.573C267.419 220.208 267.97 220.695 268.639 220.931L280.697 225.34C281.045 225.472 281.416 225.531 281.787 225.514C282.159 225.497 282.523 225.404 282.857 225.241C283.191 225.078 283.488 224.848 283.73 224.565C283.972 224.283 284.153 223.954 284.263 223.598C285.904 218.297 286.873 212.81 287.148 207.267C287.148 206.545 286.861 205.853 286.351 205.342C285.84 204.832 285.148 204.545 284.426 204.545H271.551C270.829 204.545 270.137 204.832 269.627 205.342C269.116 205.853 268.829 206.545 268.829 207.267C268.717 208.965 268.507 210.655 268.203 212.33Z" fill="#DDDDDD"/>
<path d="M254.949 215.869C255.307 216.003 255.69 216.061 256.072 216.037C256.453 216.013 256.826 215.91 257.165 215.732C257.504 215.555 257.802 215.309 258.039 215.008C258.276 214.708 258.448 214.362 258.542 213.991C258.841 212.902 259.086 211.813 259.304 210.67C259.522 209.527 259.631 208.411 259.712 207.295C259.747 206.918 259.702 206.537 259.58 206.178C259.459 205.819 259.264 205.489 259.007 205.21C258.751 204.931 258.439 204.708 258.092 204.556C257.745 204.404 257.37 204.327 256.991 204.328H223.239L254.949 215.869Z" fill="#DDDDDD"/>
<path d="M132.953 210.67C132.648 208.915 132.448 207.142 132.354 205.363C132.354 204.641 132.068 203.948 131.557 203.438C131.047 202.927 130.354 202.641 129.632 202.641H116.785C116.063 202.641 115.371 202.927 114.86 203.438C114.35 203.948 114.063 204.641 114.063 205.363C114.204 208.101 114.513 210.828 114.988 213.528C115.465 216.29 116.119 219.017 116.948 221.694C117.058 222.049 117.239 222.378 117.481 222.661C117.723 222.943 118.02 223.173 118.354 223.337C118.688 223.5 119.052 223.593 119.424 223.61C119.795 223.627 120.166 223.568 120.514 223.436L132.572 219.054C133.248 218.818 133.803 218.327 134.119 217.685C134.435 217.043 134.485 216.303 134.26 215.624C133.731 213.999 133.295 212.345 132.953 210.67V210.67Z" fill="#DDDDDD"/>
<path d="M144.276 202.723C143.894 202.721 143.517 202.799 143.167 202.953C142.818 203.106 142.505 203.331 142.248 203.614C141.991 203.896 141.797 204.229 141.677 204.592C141.558 204.954 141.516 205.337 141.554 205.717C141.634 206.849 141.779 207.976 141.989 209.092C142.18 210.208 142.425 211.324 142.724 212.413C142.822 212.781 142.995 213.125 143.234 213.422C143.472 213.719 143.771 213.963 144.109 214.137C144.448 214.311 144.819 214.413 145.2 214.435C145.58 214.457 145.961 214.398 146.317 214.264L178.055 202.723H144.276Z" fill="#DDDDDD"/>
<path d="M263.687 187.615C264.005 189.415 264.214 191.233 264.313 193.058C264.313 193.78 264.599 194.473 265.11 194.983C265.62 195.494 266.313 195.78 267.035 195.78H279.855C280.577 195.78 281.269 195.494 281.779 194.983C282.29 194.473 282.577 193.78 282.577 193.058C282.343 187.511 281.373 182.019 279.691 176.727C279.581 176.375 279.401 176.049 279.161 175.769C278.921 175.489 278.627 175.26 278.296 175.097C277.965 174.934 277.604 174.84 277.236 174.821C276.868 174.802 276.499 174.858 276.153 174.985L264.068 179.395C263.403 179.635 262.859 180.125 262.549 180.76C262.239 181.395 262.188 182.125 262.407 182.797C262.919 184.379 263.346 185.987 263.687 187.615Z" fill="#DDDDDD"/>
<path d="M252.362 195.564C252.741 195.565 253.117 195.487 253.464 195.336C253.811 195.184 254.123 194.961 254.379 194.682C254.635 194.402 254.831 194.073 254.952 193.714C255.073 193.355 255.118 192.974 255.084 192.597C255.084 191.481 254.839 190.337 254.649 189.222C254.456 188.102 254.201 186.993 253.887 185.901C253.792 185.53 253.621 185.183 253.384 184.883C253.147 184.583 252.849 184.337 252.51 184.159C252.171 183.982 251.798 183.878 251.416 183.855C251.035 183.831 250.652 183.888 250.294 184.023L218.584 195.564H252.362Z" fill="#DDDDDD"/>
<path d="M136.601 233.887C135.721 232.332 134.922 230.733 134.205 229.096C133.944 228.433 133.432 227.899 132.78 227.608C132.129 227.318 131.389 227.296 130.721 227.545L118.663 231.954C118.313 232.078 117.992 232.271 117.72 232.523C117.448 232.774 117.23 233.079 117.079 233.418C116.929 233.757 116.849 234.123 116.846 234.494C116.842 234.865 116.914 235.232 117.057 235.574C118.132 238.136 119.368 240.628 120.759 243.033C122.14 245.444 123.676 247.762 125.359 249.973C125.584 250.269 125.868 250.516 126.192 250.697C126.516 250.879 126.874 250.993 127.244 251.031C127.614 251.07 127.988 251.032 128.342 250.92C128.697 250.808 129.025 250.625 129.306 250.382L139.132 242.216C139.685 241.768 140.04 241.12 140.122 240.413C140.203 239.706 140.004 238.995 139.567 238.433C138.498 236.971 137.508 235.454 136.601 233.887V233.887Z" fill="#DDDDDD"/>
<path d="M144.521 222.537C144.162 222.664 143.834 222.865 143.558 223.127C143.281 223.388 143.063 223.705 142.917 224.057C142.771 224.408 142.7 224.786 142.709 225.167C142.718 225.547 142.806 225.922 142.969 226.266C143.43 227.306 143.958 228.315 144.548 229.287C145.12 230.294 145.718 231.247 146.372 232.172C146.588 232.488 146.87 232.755 147.197 232.955C147.524 233.156 147.89 233.284 148.27 233.333C148.65 233.382 149.037 233.35 149.404 233.239C149.771 233.128 150.11 232.941 150.4 232.689L176.258 210.914L144.521 222.537Z" fill="#DDDDDD"/>
<path d="M259.495 162.929C260.406 164.467 261.207 166.068 261.89 167.719C262.157 168.378 262.671 168.906 263.322 169.191C263.973 169.476 264.709 169.495 265.374 169.244L277.459 164.862C277.809 164.738 278.13 164.545 278.402 164.293C278.675 164.042 278.893 163.737 279.043 163.398C279.193 163.059 279.273 162.693 279.277 162.322C279.281 161.951 279.208 161.583 279.065 161.241C277.991 158.67 276.754 156.17 275.363 153.756C273.963 151.359 272.418 149.05 270.736 146.842C270.511 146.551 270.229 146.308 269.907 146.129C269.585 145.949 269.23 145.837 268.864 145.799C268.497 145.761 268.127 145.797 267.775 145.906C267.423 146.016 267.097 146.195 266.816 146.434L256.963 154.6C256.414 155.052 256.064 155.701 255.988 156.408C255.912 157.115 256.115 157.824 256.555 158.383C257.631 159.834 258.613 161.352 259.495 162.929V162.929Z" fill="#DDDDDD"/>
<path d="M251.575 174.223C251.937 174.097 252.268 173.895 252.547 173.631C252.826 173.367 253.046 173.048 253.192 172.693C253.339 172.338 253.409 171.957 253.397 171.573C253.386 171.189 253.293 170.812 253.126 170.467C252.672 169.469 252.155 168.462 251.575 167.446C251.007 166.505 250.39 165.597 249.724 164.724C249.507 164.412 249.227 164.149 248.902 163.951C248.577 163.754 248.215 163.627 247.838 163.578C247.461 163.529 247.078 163.56 246.714 163.668C246.349 163.777 246.012 163.96 245.722 164.207L219.864 185.982L251.575 174.223Z" fill="#DDDDDD"/>
<path d="M154.891 248.641C153.523 247.493 152.223 246.266 150.999 244.966C150.523 244.433 149.856 244.109 149.143 244.063C148.431 244.017 147.728 244.254 147.188 244.721L137.362 252.887C137.076 253.122 136.841 253.413 136.671 253.742C136.502 254.072 136.401 254.432 136.376 254.802C136.35 255.171 136.4 255.542 136.523 255.891C136.646 256.241 136.839 256.561 137.09 256.833C138.967 258.878 140.976 260.796 143.105 262.577C145.231 264.371 147.477 266.017 149.828 267.503C150.14 267.703 150.489 267.837 150.854 267.897C151.219 267.957 151.593 267.942 151.952 267.853C152.311 267.764 152.649 267.603 152.943 267.379C153.238 267.155 153.484 266.873 153.666 266.551L160.09 255.445C160.452 254.83 160.558 254.098 160.384 253.405C160.211 252.713 159.773 252.116 159.164 251.744C157.672 250.806 156.245 249.769 154.891 248.641V248.641Z" fill="#DDDDDD"/>
<path d="M158.456 235.277C158.163 235.518 157.924 235.818 157.754 236.158C157.584 236.498 157.487 236.869 157.469 237.249C157.451 237.628 157.512 238.007 157.65 238.361C157.787 238.715 157.997 239.037 158.266 239.305C159.055 240.125 159.891 240.897 160.77 241.619C161.64 242.356 162.549 243.046 163.492 243.687C163.802 243.909 164.155 244.062 164.529 244.138C164.902 244.214 165.287 244.211 165.659 244.129C166.031 244.047 166.382 243.888 166.688 243.662C166.995 243.435 167.251 243.148 167.439 242.816L184.342 213.583L158.456 235.277Z" fill="#DDDDDD"/>
<path d="M240.224 147.005C241.577 148.159 242.868 149.386 244.089 150.679C244.565 151.212 245.231 151.536 245.944 151.582C246.657 151.628 247.36 151.392 247.9 150.924L257.726 142.758C258.012 142.523 258.247 142.232 258.417 141.903C258.586 141.573 258.687 141.213 258.712 140.844C258.738 140.474 258.687 140.103 258.565 139.754C258.442 139.405 258.249 139.084 257.998 138.812C256.114 136.766 254.105 134.838 251.983 133.041C249.844 131.264 247.598 129.619 245.26 128.114C244.948 127.915 244.599 127.781 244.234 127.721C243.868 127.661 243.495 127.676 243.136 127.765C242.776 127.854 242.439 128.015 242.144 128.239C241.85 128.463 241.604 128.745 241.422 129.067L234.998 140.2C234.636 140.815 234.53 141.548 234.703 142.24C234.877 142.932 235.315 143.529 235.923 143.902C237.42 144.846 238.856 145.882 240.224 147.005V147.005Z" fill="#DDDDDD"/>
<path d="M236.63 160.314C236.928 160.072 237.171 159.771 237.344 159.429C237.517 159.086 237.615 158.712 237.633 158.329C237.651 157.946 237.588 157.564 237.448 157.207C237.308 156.85 237.094 156.527 236.821 156.258C236.031 155.469 235.215 154.707 234.317 153.945C233.446 153.216 232.538 152.535 231.595 151.903C231.285 151.682 230.931 151.529 230.558 151.452C230.185 151.376 229.8 151.379 229.428 151.461C229.056 151.543 228.705 151.703 228.398 151.929C228.092 152.155 227.836 152.443 227.648 152.774L210.745 182.008L236.63 160.314Z" fill="#DDDDDD"/>
<path d="M171.032 268.376C169.351 267.762 167.706 267.053 166.105 266.253C165.479 265.919 164.747 265.844 164.066 266.042C163.385 266.24 162.808 266.697 162.458 267.314L156.034 278.447C155.849 278.765 155.73 279.117 155.684 279.482C155.639 279.847 155.668 280.218 155.77 280.571C155.871 280.925 156.044 281.254 156.276 281.54C156.509 281.825 156.797 282.06 157.123 282.23C159.585 283.517 162.131 284.636 164.745 285.578C167.358 286.533 170.031 287.315 172.747 287.919C173.099 287.999 173.464 288.008 173.82 287.946C174.175 287.883 174.515 287.751 174.819 287.556C175.123 287.36 175.385 287.107 175.59 286.809C175.795 286.512 175.939 286.177 176.013 285.823L178.245 273.166C178.374 272.467 178.224 271.745 177.827 271.155C177.43 270.565 176.818 270.154 176.122 270.009C174.394 269.568 172.694 269.023 171.032 268.376V268.376Z" fill="#DDDDDD"/>
<path d="M169.807 254.603C169.611 254.93 169.487 255.295 169.442 255.674C169.397 256.053 169.432 256.437 169.545 256.802C169.658 257.166 169.846 257.503 170.097 257.79C170.349 258.077 170.658 258.308 171.004 258.468C172.011 258.93 173.073 259.393 174.162 259.774C175.22 260.175 176.302 260.512 177.401 260.781C177.768 260.882 178.152 260.904 178.528 260.847C178.905 260.789 179.265 260.654 179.586 260.448C179.906 260.243 180.18 259.973 180.39 259.655C180.6 259.337 180.74 258.979 180.803 258.604L186.682 225.369L169.807 254.603Z" fill="#DDDDDD"/>
<path d="M217.985 139.328C219.671 139.93 221.316 140.639 222.912 141.451C223.538 141.785 224.27 141.86 224.951 141.662C225.632 141.464 226.209 141.007 226.559 140.39L232.983 129.257C233.173 128.938 233.295 128.584 233.343 128.216C233.391 127.848 233.363 127.473 233.261 127.117C233.159 126.76 232.985 126.427 232.75 126.14C232.515 125.853 232.224 125.617 231.894 125.446C229.414 124.177 226.86 123.059 224.245 122.098C221.638 121.161 218.974 120.388 216.27 119.785C215.908 119.702 215.533 119.694 215.168 119.761C214.803 119.828 214.456 119.969 214.147 120.176C213.839 120.382 213.576 120.65 213.375 120.962C213.173 121.274 213.038 121.623 212.977 121.99L210.745 134.619C210.616 135.319 210.766 136.04 211.163 136.63C211.56 137.22 212.172 137.632 212.868 137.777C214.603 138.19 216.312 138.708 217.985 139.328V139.328Z" fill="#DDDDDD"/>
<path d="M219.211 153.103C219.406 152.775 219.531 152.41 219.576 152.031C219.621 151.653 219.586 151.268 219.473 150.904C219.36 150.539 219.172 150.203 218.92 149.916C218.669 149.629 218.36 149.398 218.013 149.238C216.985 148.747 215.931 148.311 214.856 147.932C213.794 147.523 212.706 147.197 211.617 146.897C211.246 146.793 210.857 146.768 210.476 146.825C210.095 146.882 209.73 147.019 209.406 147.227C209.081 147.436 208.805 147.71 208.595 148.034C208.385 148.357 208.246 148.721 208.187 149.102L202.335 182.391L219.211 153.103Z" fill="#DDDDDD"/>
<path d="M174.163 139.328C175.835 138.707 177.544 138.189 179.28 137.776C179.976 137.631 180.588 137.22 180.985 136.63C181.381 136.04 181.532 135.318 181.403 134.619L179.171 121.989C179.108 121.637 178.977 121.301 178.785 120.999C178.592 120.698 178.342 120.437 178.049 120.232C177.756 120.028 177.425 119.883 177.076 119.806C176.727 119.729 176.366 119.722 176.013 119.784C173.309 120.388 170.646 121.161 168.038 122.098C165.424 123.059 162.869 124.177 160.39 125.446C160.06 125.616 159.769 125.853 159.533 126.14C159.298 126.427 159.124 126.759 159.022 127.116C158.92 127.473 158.892 127.847 158.94 128.215C158.988 128.583 159.111 128.938 159.301 129.257L165.725 140.389C166.074 141.007 166.651 141.463 167.333 141.662C168.014 141.86 168.746 141.784 169.372 141.451C170.923 140.644 172.523 139.935 174.163 139.328V139.328Z" fill="#DDDDDD"/>
<path d="M183.934 149.101C183.875 148.723 183.737 148.362 183.528 148.041C183.32 147.72 183.046 147.446 182.725 147.238C182.404 147.03 182.043 146.892 181.665 146.833C181.287 146.774 180.901 146.796 180.532 146.896C179.443 147.195 178.354 147.522 177.293 147.93C176.218 148.309 175.164 148.746 174.135 149.237C173.789 149.397 173.48 149.628 173.228 149.915C172.977 150.202 172.789 150.538 172.676 150.903C172.563 151.267 172.528 151.651 172.573 152.03C172.618 152.409 172.742 152.774 172.938 153.102L189.814 182.335L183.934 149.101Z" fill="#DDDDDD"/>
</g>
<defs>
<clipPath id="clip0_1805:64148">
<rect width="713.631" height="180" fill="white" transform="translate(104.999 108)"/>
</clipPath>
</defs>
</svg>
