<svg width="924" height="399" viewBox="0 0 924 399" fill="none" role="img" xmlns="http://www.w3.org/2000/svg">
<path d="M308.13 198.061C287.771 153.295 234.981 117 190.216 117C145.45 117 125.649 153.281 146.008 198.061C152.548 212.051 161.467 224.799 172.368 235.738C174.294 231.141 177.3 227.077 181.131 223.891C186.628 219.198 192.885 215.479 199.635 212.894C206.687 210.105 214.085 208.288 221.627 207.494L224.027 207.257L223.818 209.852L222.422 210.159C212.459 212.253 199.174 219.034 192.197 225.607C186.615 230.882 183.35 237.984 185.22 244.655C185.763 246.607 186.801 248.385 188.234 249.818C189.183 250.543 190.118 251.213 191.025 251.967C192.065 252.557 193.17 253.025 194.318 253.362C199.9 254.939 207.407 254.367 215.445 251.743C223.4 249.157 230.701 244.882 236.851 239.212C237.674 238.445 238.442 237.677 239.181 236.896C245.84 235.653 252.578 234.883 259.346 234.594C256.924 238.352 253.989 241.753 250.624 244.696C243.298 251.185 232.832 256.334 221.18 259.167C215.953 260.452 210.609 261.2 205.23 261.4C224.153 272.563 244.763 279.164 263.909 279.164C308.688 279.136 328.476 242.841 308.13 198.061ZM235.386 156.882C238.707 151.3 245.907 146.862 251.447 146.862C256.987 146.862 258.773 151.342 255.438 156.882C252.103 162.421 244.931 166.915 239.391 166.915C233.851 166.915 232.051 162.463 235.386 156.882ZM262.374 228.635C256.158 228.985 249.977 229.801 243.884 231.077C247.163 226.346 248.922 221.672 248.922 217.555C248.931 216.516 248.809 215.48 248.559 214.471C247.415 209.769 243.577 206.378 237.395 204.703C231.214 203.029 225.339 203.433 217.078 204.815L216.561 204.899C213.115 205.485 206.71 206.587 204.658 202.512C202.942 199.108 204.03 192.298 225.897 170.417L241.037 174.464C233.237 181.078 227.362 186.27 223.218 190.247C220.71 192.505 218.42 194.996 216.38 197.684H216.645L218.376 197.391C226.636 195.996 231.618 195.2 239.935 195.996C251.964 197.252 260.504 203.071 263.35 211.946C264.288 214.943 264.583 218.106 264.216 221.225C268.189 220.826 272.181 220.639 276.175 220.667L279.496 228.663C273.795 228.259 268.073 228.264 262.374 228.677V228.635Z" fill="#DDDDDD"/>
<path d="M358.882 245.408L359.831 257.241H370.046L364.771 211.68H352.212L329.969 257.241H340.379L345.723 245.408H358.882ZM348.681 237.97L353.147 228.202C354.361 225.565 355.645 222.049 356.789 219.272H356.998C357.194 222.062 357.403 225.705 357.598 228.202L358.477 237.97H348.681Z" fill="#DDDDDD"/>
<path d="M380.86 248.59C383.551 249.952 386.499 250.732 389.512 250.878C392.219 250.878 393.698 249.483 393.698 247.906C393.698 246.329 392.624 245.115 389.512 243.72C385.73 241.836 382.535 239.059 382.535 234.928C382.535 228.035 388.549 223.514 397.061 223.514C399.974 223.402 402.871 223.98 405.518 225.202L403.215 232.096C401.132 231.173 398.879 230.697 396.601 230.7C394.019 230.7 392.331 231.789 392.331 233.617C392.331 235.012 393.726 236.115 396.322 237.329C399.978 239.157 403.759 241.864 403.759 246.455C403.759 254.018 397.34 258.149 388.549 258.079C384.433 258.079 380.442 256.934 378.474 255.511L380.86 248.59Z" fill="#DDDDDD"/>
<path d="M414.044 248.59C416.736 249.949 419.683 250.728 422.695 250.878C425.403 250.878 426.882 249.483 426.882 247.906C426.882 246.329 425.793 245.115 422.695 243.72C418.914 241.836 415.718 239.059 415.718 234.928C415.718 228.035 421.747 223.514 430.259 223.514C433.171 223.405 436.068 223.983 438.715 225.202L436.413 232.096C434.325 231.173 432.067 230.697 429.784 230.7C427.217 230.7 425.598 231.789 425.598 233.617C425.598 235.012 426.993 236.115 429.589 237.329C433.231 239.157 437.027 241.864 437.027 246.455C437.027 254.018 430.594 258.149 421.816 258.079C417.63 258.079 413.695 256.934 411.741 255.511L414.044 248.59Z" fill="#DDDDDD"/>
<path d="M461.168 257.981C472.527 257.981 480.843 249.12 480.843 237.049C480.843 229.486 475.694 223.402 466.777 223.402C455.014 223.402 447.032 232.863 447.032 244.334C447.032 252.511 452.614 257.981 461.098 257.981H461.168ZM462.312 250.543C459.005 250.543 457.037 247.976 457.037 244.124C457.037 238.989 459.828 230.882 465.494 230.882C469.345 230.882 470.699 234.049 470.699 237.161C470.699 242.743 467.656 250.543 462.326 250.543H462.312Z" fill="#DDDDDD"/>
<path d="M513.148 256.223C510.178 257.47 506.976 258.069 503.756 257.981C495.579 257.981 489.802 252.985 489.802 244.39C489.802 232.626 498.789 223.458 511.362 223.458C513.669 223.419 515.963 223.807 518.129 224.602L515.687 232.04C514.274 231.469 512.759 231.194 511.236 231.231C504.329 231.231 500.072 237.105 500.072 243.329C500.072 247.92 502.989 250.222 506.561 250.222C508.82 250.211 511.052 249.736 513.12 248.827L513.148 256.223Z" fill="#DDDDDD"/>
<path d="M535.531 219.858C534.865 219.88 534.202 219.764 533.584 219.515C532.966 219.267 532.407 218.893 531.942 218.416C531.477 217.939 531.117 217.371 530.884 216.747C530.651 216.123 530.551 215.457 530.591 214.792C530.581 214.012 530.729 213.237 531.025 212.514C531.321 211.792 531.759 211.137 532.314 210.587C532.869 210.038 533.528 209.605 534.254 209.316C534.979 209.027 535.755 208.887 536.535 208.904C537.219 208.856 537.905 208.953 538.549 209.189C539.193 209.424 539.78 209.793 540.271 210.272C540.762 210.75 541.147 211.326 541.4 211.963C541.654 212.601 541.769 213.284 541.74 213.969C541.757 214.768 541.608 215.563 541.302 216.302C540.996 217.041 540.54 217.708 539.963 218.261C539.386 218.815 538.7 219.243 537.949 219.517C537.198 219.792 536.398 219.908 535.6 219.858H535.531ZM523.223 257.241L529.516 224.184H539.173L532.963 257.241H523.223Z" fill="#DDDDDD"/>
<path d="M576.961 257.241C576.967 252.251 577.434 247.271 578.357 242.366L581.678 225.063C578.147 224 574.481 223.455 570.793 223.444C554.564 223.444 547.071 235.333 547.071 246.497C547.071 253.39 551.132 257.981 557.076 257.981C560.928 257.981 565.184 256.153 568.24 250.683H568.379C568.24 253.055 568.044 255.344 567.974 257.241H576.961ZM569.328 238.71C567.835 246.832 564.123 250.139 561.221 250.139C558.318 250.139 557.23 247.906 557.23 244.669C557.23 238.515 561.821 230.812 568.114 230.812C568.976 230.818 569.836 230.907 570.682 231.077L569.328 238.71Z" fill="#DDDDDD"/>
<path d="M607.423 215.253L605.735 224.184H612.838L611.345 231.621H604.367L602.149 242.785C601.843 244.161 601.661 245.562 601.605 246.971C601.605 248.59 602.274 249.762 604.395 249.762C605.277 249.785 606.159 249.738 607.033 249.622L605.958 257.269C604.089 257.797 602.151 258.046 600.209 258.009C594.32 258.009 591.557 255.037 591.557 250.85C591.577 248.801 591.825 246.761 592.297 244.766L594.795 231.649H590.608L592.004 224.211H596.26L597.474 217.988L607.423 215.253Z" fill="#DDDDDD"/>
<path d="M629.625 219.858C628.96 219.878 628.298 219.76 627.681 219.511C627.064 219.262 626.506 218.887 626.041 218.411C625.577 217.935 625.216 217.367 624.983 216.744C624.749 216.121 624.648 215.457 624.685 214.792C624.675 214.01 624.824 213.235 625.12 212.511C625.417 211.788 625.857 211.132 626.413 210.582C626.969 210.032 627.631 209.6 628.358 209.312C629.084 209.024 629.862 208.885 630.644 208.904C631.328 208.856 632.014 208.953 632.658 209.189C633.301 209.424 633.888 209.793 634.379 210.272C634.871 210.75 635.256 211.326 635.509 211.963C635.762 212.601 635.878 213.284 635.849 213.969C635.864 214.769 635.713 215.564 635.405 216.303C635.098 217.042 634.641 217.709 634.062 218.262C633.484 218.815 632.797 219.243 632.046 219.518C631.294 219.792 630.493 219.908 629.695 219.858H629.625ZM617.317 257.241L623.611 224.184H633.281L627.057 257.241H617.317Z" fill="#DDDDDD"/>
<path d="M655.454 257.981C666.813 257.981 675.116 249.12 675.116 237.049C675.116 229.486 669.981 223.402 661.064 223.402C649.301 223.402 641.319 232.863 641.319 244.334C641.319 252.511 646.9 257.981 655.385 257.981H655.454ZM656.599 250.543C653.292 250.543 651.324 247.976 651.324 244.124C651.324 238.989 654.115 230.882 659.78 230.882C663.632 230.882 664.985 234.049 664.985 237.161C664.985 242.743 661.943 250.543 656.613 250.543H656.599Z" fill="#DDDDDD"/>
<path d="M683.168 257.241L687.354 234.914C688.164 230.728 688.75 227.142 689.112 224.17H697.694L697.094 229.64H697.234C698.503 227.737 700.221 226.175 702.236 225.093C704.251 224.01 706.501 223.439 708.788 223.43C714.202 223.43 717.3 226.737 717.3 232.486C717.25 234.357 717.073 236.222 716.77 238.068L713.114 257.269H703.346L706.793 238.947C707.016 237.741 707.133 236.518 707.141 235.291C707.141 232.933 706.332 231.314 703.82 231.314C700.653 231.314 696.997 235.291 695.573 242.603L692.88 257.269L683.168 257.241Z" fill="#DDDDDD"/>
<path d="M351.389 140.918L346.477 167.082C346.112 168.864 345.93 170.678 345.932 172.497C345.874 173.379 346.006 174.264 346.319 175.091C346.632 175.918 347.12 176.668 347.749 177.29C348.377 177.912 349.132 178.391 349.963 178.696C350.793 179.001 351.679 179.123 352.561 179.055C357.696 179.055 361.017 175.664 362.636 167.222L367.632 140.918H377.4L372.46 166.817C369.822 180.604 363.808 187.232 351.375 187.232C341.969 187.302 336.234 182.362 336.234 172.692C336.268 170.56 336.492 168.435 336.904 166.343L341.704 140.918H351.389Z" fill="#DDDDDD"/>
<path d="M382.144 186.493L386.33 164.166C387.14 159.979 387.726 156.393 388.089 153.421H396.712L396.112 158.891H396.238C397.515 156.991 399.236 155.432 401.252 154.347C403.268 153.263 405.517 152.686 407.806 152.667C413.207 152.667 416.318 155.989 416.318 161.724C416.27 163.595 416.088 165.46 415.774 167.306L412.062 186.493H402.294L405.741 168.171C405.963 166.964 406.08 165.741 406.09 164.515C406.09 162.156 405.266 160.524 402.769 160.524C399.601 160.524 395.945 164.515 394.522 171.813L391.814 186.493H382.144Z" fill="#DDDDDD"/>
<path d="M437.571 149.109C436.906 149.128 436.244 149.008 435.628 148.757C435.012 148.506 434.454 148.13 433.991 147.652C433.528 147.175 433.169 146.606 432.937 145.982C432.706 145.359 432.606 144.694 432.645 144.03C432.635 143.25 432.783 142.476 433.079 141.754C433.376 141.032 433.814 140.378 434.369 139.829C434.924 139.281 435.584 138.85 436.309 138.562C437.034 138.275 437.81 138.136 438.59 138.155C439.274 138.105 439.961 138.2 440.606 138.435C441.251 138.67 441.838 139.039 442.33 139.518C442.822 139.997 443.207 140.574 443.459 141.212C443.712 141.85 443.826 142.535 443.794 143.22C443.81 144.02 443.659 144.815 443.351 145.554C443.044 146.293 442.586 146.96 442.008 147.513C441.43 148.067 440.743 148.494 439.992 148.769C439.24 149.043 438.439 149.159 437.641 149.109H437.571ZM425.277 186.493L431.556 153.435H441.227L435.003 186.493H425.277Z" fill="#DDDDDD"/>
<path d="M466.917 144.504L465.228 153.435H472.317L470.838 160.873H463.861L461.628 172.036C461.33 173.414 461.148 174.814 461.084 176.222C461.084 177.841 461.768 179.013 463.875 179.013C464.756 179.036 465.638 178.99 466.512 178.874L465.424 186.521C463.553 187.042 461.617 187.291 459.675 187.26C453.8 187.26 451.023 184.288 451.023 180.088C451.049 178.038 451.302 175.998 451.776 174.004L454.274 160.9H450.088L451.483 153.463H455.753L456.967 147.239L466.917 144.504Z" fill="#DDDDDD"/>
<path d="M503.826 177.562C500.94 178.965 497.769 179.681 494.56 179.655C493.375 179.751 492.184 179.569 491.082 179.123C489.979 178.678 488.996 177.98 488.211 177.088C487.564 176.078 487.212 174.909 487.193 173.711C500.449 174.045 508.627 171.003 508.627 162.617C508.627 156.477 503.826 152.681 497.128 152.681C485.169 152.681 477.871 163.161 477.871 173.236C477.871 181.888 482.727 187.191 492.202 187.191C496.445 187.236 500.645 186.335 504.496 184.553L503.826 177.562ZM499.5 162.617C499.5 165.659 495.705 166.678 488.141 166.608C488.811 163.566 491.379 159.784 495.914 159.784C498.147 159.784 499.5 160.928 499.5 162.575V162.617Z" fill="#DDDDDD"/>
<path d="M544.852 138.49L541.95 153.491C540.519 152.966 539.008 152.692 537.484 152.681C524.925 152.681 516.664 163.301 516.664 174.785C516.664 182.767 521.269 187.232 526.879 187.232C529.063 187.237 531.211 186.68 533.117 185.615C535.023 184.549 536.623 183.011 537.763 181.148H537.889L537.414 186.493H546.275C546.55 182.183 547.067 177.892 547.824 173.641L554.522 138.49H544.852ZM538.838 170.124C537.624 176.418 534.177 179.39 531.33 179.39C528.484 179.39 526.809 177.157 526.809 173.166C526.809 166.817 530.926 160.119 536.745 160.119C538.122 160.064 539.478 160.472 540.596 161.277L538.838 170.124Z" fill="#DDDDDD"/>
<path d="M578.664 175.943C581.923 177.849 585.632 178.851 589.408 178.846C593.12 178.846 596.567 177.088 596.567 173.571C596.567 170.934 594.613 169.315 590.427 167.082C585.627 164.515 581.022 160.859 581.022 154.984C581.022 145.788 589.004 140.178 598.939 140.178C602.627 140.029 606.295 140.796 609.614 142.411L606.572 150.518C603.961 149.186 601.062 148.515 598.13 148.565C593.595 148.565 591.236 150.797 591.236 153.295C591.236 155.793 594.027 157.621 597.851 159.784C603.433 162.687 606.851 166.412 606.851 171.883C606.851 182.027 598.479 187.232 588.39 187.232C582.11 187.163 577.505 185.544 575.412 183.981L578.664 175.943Z" fill="#DDDDDD"/>
<path d="M622.773 199.875L625.411 185.921H625.606C627.493 186.868 629.58 187.346 631.69 187.316C643.258 187.316 650.891 176.767 650.891 165.338C650.891 158.514 647.375 152.779 640.216 152.779C638.134 152.821 636.091 153.347 634.248 154.316C632.404 155.285 630.812 156.67 629.597 158.361H629.471L630.071 153.295H621.378C620.973 156.672 620.234 162.421 619.494 166.343L613.005 199.875H622.773ZM628.188 171.143C629.402 164.654 632.779 160.593 636.435 160.593C639.533 160.593 640.691 163.384 640.691 166.008C640.691 172.497 636.63 179.864 631.425 179.864C629.793 179.923 628.199 179.365 626.96 178.302L628.188 171.143Z" fill="#DDDDDD"/>
<path d="M671.335 149.109C670.669 149.128 670.008 149.008 669.392 148.757C668.775 148.506 668.218 148.13 667.755 147.652C667.292 147.175 666.933 146.606 666.701 145.982C666.469 145.359 666.37 144.694 666.409 144.03C666.399 143.25 666.547 142.476 666.843 141.754C667.139 141.032 667.578 140.378 668.133 139.829C668.688 139.281 669.347 138.85 670.073 138.562C670.798 138.275 671.573 138.136 672.353 138.155C673.038 138.105 673.725 138.2 674.37 138.435C675.015 138.67 675.602 139.039 676.094 139.518C676.586 139.997 676.971 140.574 677.223 141.212C677.475 141.85 677.59 142.535 677.558 143.22C677.573 144.02 677.422 144.815 677.115 145.554C676.807 146.293 676.35 146.96 675.772 147.513C675.194 148.067 674.507 148.494 673.755 148.769C673.004 149.043 672.203 149.159 671.404 149.109H671.335ZM659.055 186.493L665.348 153.435H675.018L668.823 186.493H659.055Z" fill="#DDDDDD"/>
<path d="M682.024 186.493L686.21 164.166C687.019 159.979 687.605 156.393 687.968 153.421H696.55L695.95 158.891H696.076C697.353 156.991 699.074 155.432 701.089 154.347C703.105 153.263 705.355 152.686 707.644 152.667C713.044 152.667 716.156 155.989 716.156 161.724C716.108 163.595 715.926 165.46 715.612 167.306L711.97 186.507H702.202L705.648 168.185C705.866 166.978 705.978 165.755 705.983 164.529C705.983 162.17 705.174 160.538 702.676 160.538C699.494 160.538 695.852 164.529 694.429 171.827L691.722 186.507L682.024 186.493Z" fill="#DDDDDD"/>
<path d="M755.912 186.493C755.911 181.502 756.378 176.521 757.307 171.617L760.629 154.314C757.102 153.251 753.441 152.706 749.758 152.695C733.529 152.695 726.036 164.598 726.036 175.748C726.036 182.641 730.096 187.246 736.041 187.246C739.892 187.246 744.162 185.418 747.204 179.948H747.344C747.204 182.306 747.009 184.609 746.939 186.507L755.912 186.493ZM748.265 167.961C746.772 176.069 743.06 179.39 740.158 179.39C737.255 179.39 736.167 177.157 736.167 173.906C736.167 167.766 740.758 160.049 747.051 160.049C747.914 160.058 748.774 160.151 749.619 160.328L748.265 167.961Z" fill="#DDDDDD"/>
<path d="M767.662 186.479L776.858 138.49H786.598L777.402 186.479H767.662Z" fill="#DDDDDD"/>
</svg>
