<svg xmlns="http://www.w3.org/2000/svg" viewBox="0 0 24 24" role="presentation" aria-hidden="true" focusable="false" style="height:48px;width:48px;display:block;fill:#FF5A5F"><path d="M5,15.79289V6.5A.5.5,0,0,1,5.5,6h9.29289a.5.5,0,0,1,.35356.85355l-9.2929,9.2929A.5.5,0,0,1,5,15.79289Z"/><path fill="#484848" d="M17.5,0H5.5A2.64711,2.64711,0,0,0,3,2.5v19A2.64716,2.64716,0,0,0,5.5,24H9a.5.5,0,0,0,0-1H5.5A1.65724,1.65724,0,0,1,4,21.5V21H7.5a.5.5,0,0,0,0-1H4V5H19v6.5a.5.5,0,0,0,1,0v-9A2.569,2.569,0,0,0,17.5,0ZM4,4V2.5A1.65719,1.65719,0,0,1,5.5,1h12A1.57151,1.57151,0,0,1,19,2.5V4Zm8-1.5a.5.5,0,1,1-.5-.5A.5.5,0,0,1,12,2.5Zm6.5,11a1.63453,1.63453,0,0,0-.80481.22974A1.64484,1.64484,0,0,0,16.25,13a1.67877,1.67877,0,0,0-1.25.50494A1.67877,1.67877,0,0,0,13.75,13a1.88315,1.88315,0,0,0-.75.1601V9.5A1.43545,1.43545,0,0,0,11.5,8,1.43545,1.43545,0,0,0,10,9.5v5.29285l-.14642-.14643c-1.09345-1.09344-2.42365-1.28344-3.20716-.5a.5.5,0,0,0-.09362.57715A59.00214,59.00214,0,0,0,9.584,20.27734C10.98157,22.72552,12.80225,24,15,24c3.18756,0,5-2.1145,5-5.5V15A1.40476,1.40476,0,0,0,18.5,13.5Zm.5,5c0,2.8645-1.40186,4.5-4,4.5-1.80225,0-3.31494-1.0589-4.56586-3.24811a54.88427,54.88427,0,0,1-2.78039-5.06378,1.73479,1.73479,0,0,1,1.49267.66541l1,1A.5.5,0,0,0,11,16h0V9.5a.5.5,0,0,1,1,0v5h.0094a.49287.49287,0,0,0,.36932.485.5.5,0,0,0,.60633-.36377A.69127.69127,0,0,1,13.75,14a.69127.69127,0,0,1,.765.62128.46769.46769,0,0,0,.02924.0614.4927.4927,0,0,0,.04492.09442.90137.90137,0,0,0,.13391.13385.489.489,0,0,0,.094.04474.46454.46454,0,0,0,.0617.02936c.00739.00183.01453-.00055.02191.001a1.08028,1.08028,0,0,0,.19874,0c.00738-.00152.01452.00086.02191-.001a.46272.46272,0,0,0,.06158-.0293.48739.48739,0,0,0,.09424-.04486.90526.90526,0,0,0,.13379-.13379.4927.4927,0,0,0,.04492-.09442.46769.46769,0,0,0,.02924-.0614.78156.78156,0,0,1,1.5299,0c.00287.01147.01105.01965.01465.03076a.70055.70055,0,0,0,.0979.173c.00769.00885.0105.02008.01892.02851a.469.469,0,0,0,.04883.03241.48729.48729,0,0,0,.08472.05627.60333.60333,0,0,0,.181.05017.48562.48562,0,0,0,.10223-.00464.47553.47553,0,0,0,.05811-.00268c.01147-.00287.01965-.011.03076-.01465a.48393.48393,0,0,0,.09021-.04291.49086.49086,0,0,0,.08282-.05505c.00885-.00769.02008-.0105.02851-.01892A.97361.97361,0,0,1,18.5,14.5c.36829,0,.5.158.5.5Zm-1-2v2a.5.5,0,0,1-1,0v-2a.5.5,0,0,1,1,0Z"/></svg>