<svg width="500" height="100" viewBox="0 0 2500 834" fill="none" xmlns="http://www.w3.org/2000/svg">
<path d="M329.917 213.75C329.917 213.75 330.583 214.417 331.083 214.417C337.167 214.417 343.083 215.667 349.083 216.417C359.417 217.75 369.5 220.167 379.583 223.083C395 227.5 409.667 233.75 423.833 241.083C424.25 241.333 424.667 241.5 425 241.75C425.167 241.833 425.25 242.083 425.833 243C415.833 238.417 406.333 234.25 396.5 230.917C386.5 227.583 376.333 224.833 366 222.667C355.917 220.583 345.75 218.833 335.417 218.083C346.583 220.75 357.583 223.917 368.083 228.5C378.167 232.917 387.667 238.583 396.167 245.75C398.333 247.583 400.5 249.5 402.5 251.5C416.083 264.833 424.167 281.083 428 299.667C429.75 308.167 430.417 316.667 429.833 325.25C429.167 334.667 427.667 344.083 425 353.167C422.583 361.417 419.333 369.417 415.5 377.083C408.583 390.833 399.5 403.083 387.917 413.167C381 419.25 373.167 424 364.5 427.333C358.167 429.833 351.667 431.667 345 432.667C337.917 433.75 330.667 433.833 323.417 433.083C312.833 431.917 303.417 428 294.667 422.417C286.083 416.917 278.917 409.667 274.417 400.417C271 393.5 268.75 386.167 268.5 378.333C268.5 376.167 267.75 374.083 267.833 371.833C268.417 358.333 272 345.833 281 335.417C286.667 328.917 293 323.083 301 319.417C302.75 318.583 304.417 317.667 306.583 316.583C304.167 315.25 302 315.417 299.917 315C290.75 313.333 281.417 313.417 272.167 313.583C259.167 313.833 246.75 316.75 235.25 323C227.417 327.25 220.917 333.167 215.167 340.083C206.583 350.417 201.833 362.5 198.917 375.333C197.833 380 197.333 384.75 196.583 389.5C195.917 393.833 196.75 398.25 195.417 402.5C194.833 404.5 194.5 405 192.583 405.25C191.667 405.333 190.75 405.25 189.833 405.25C174 405.25 158.083 405.25 142.25 405.25C141.417 405.25 140.667 405.25 139.833 405.25C138.167 405.167 137.25 405.75 136.5 407.5C133.917 413.917 131.917 420.417 130.5 427.167C128.583 436.5 128.667 445.917 129.25 455.25C129.833 464.583 132.333 473.75 135.75 482.5C137.167 486.25 137.833 486.583 141.917 486.583C158.167 486.583 174.333 486.583 190.583 486.583C191.417 486.583 192.167 486.583 193 486.583C195.667 486.667 196 487 196.083 489.5C196.083 490.417 196.083 491.333 196.083 492.25C196.083 506.5 199.083 520.167 204.583 533.25C208.583 542.833 214.167 551.25 221.583 558.417C230.667 567.083 241.5 572.583 253.75 575.417C258.667 576.5 263.667 577.083 268.667 577.667C273.25 578.167 277.833 578.25 282.417 578.167C286.25 578.167 290.167 577.417 294 577.083C298.25 576.667 302.333 575.75 307.25 575.25C304.417 573.833 302.167 572.583 299.833 571.5C294.667 569.083 290.25 565.583 286.25 561.667C277.5 553.167 271.583 543 269.25 530.833C268.083 524.75 267.667 518.75 268.333 512.5C269.5 502.583 272.75 493.583 278.167 485.333C282.167 479.25 287.5 474.417 293.333 470C302.083 463.333 312.167 460.25 322.75 458.417C325 458 327.333 458.417 329.667 458.25C333.917 457.75 338.167 458 342.25 458.5C349.833 459.333 357.25 461.25 364.5 464.167C372.333 467.333 379.5 471.667 386 476.917C396.667 485.5 405.083 495.917 411.75 507.917C416.333 516.167 420.5 524.583 423.417 533.5C425.917 541.083 427.75 548.833 428.75 556.833C429.417 562.5 430.083 568.167 430 573.917C429.833 582.75 428.5 591.417 426.083 599.917C424.417 605.667 422.5 611.25 419.75 616.583C415.583 624.583 410.417 631.75 404.167 638.25C397 645.667 389.083 652 380.167 657.083C374 660.583 367.5 663.5 360.75 665.917C353.167 668.583 345.417 670.583 337.667 672.583C337.333 672.583 337.083 672.833 336.833 673.167C352.083 671.833 367.083 669 381.833 665C396.583 661 410.75 655.75 424.833 649.083C424.417 650.583 423.417 650.667 422.667 651.083C408.75 658.5 394.083 664.25 379 668.667C370.083 671.25 361.083 673.25 351.917 674.75C345.5 675.833 339 676.25 332.583 677.333C332.5 677.333 332.333 677.333 332.25 677.333C324.25 677.333 316.167 678.917 308.167 677.917C303.167 677.333 298.167 677.5 293.083 676.917C288.417 676.417 283.833 675.583 279.167 675.167C275 674.75 270.833 673.75 266.667 672.917C256.917 670.917 247.25 668.25 237.833 664.917C231 662.5 224.333 659.75 217.75 656.833C204.667 651.083 192.5 643.75 180.833 635.667C175.583 632 170.583 628 165.583 624C159 618.75 153.167 612.833 147.167 606.917C139.5 599.333 132.75 591 126.333 582.333C120.25 574 114.667 565.333 109.75 556.25C101.75 541.667 95.5834 526.5 91.0001 510.583C89.0834 504.083 87.3334 497.583 86.0834 490.917C85.0834 485.417 84.0834 479.917 83.4167 474.333C82.6667 468.417 81.9167 462.583 82.0834 456.583C82.0834 455.917 82.0834 455.167 81.4167 454.75V435.417C82.0834 435 82.0834 434.25 82.0834 433.583C82.0834 430.167 82.3334 426.75 82.6667 423.333C83.1667 418 84.0834 412.75 84.8334 407.417C86.4167 396.083 89.4167 385 92.8334 374.167C95.1667 366.833 98.0001 359.75 101.083 352.667C105.667 342.417 110.667 332.333 116.75 322.917C121.333 315.833 126.083 308.833 131.417 302.167C136.5 295.833 141.833 289.75 147.417 283.75C152.333 278.5 157.917 273.833 163.333 269.083C169.083 264 175.167 259.333 181.417 254.917C194.917 245.583 209.167 237.5 224.417 231.333C233.833 227.5 243.5 224.083 253.333 221.417C260.833 219.417 268.417 217.667 276.083 216.417C279.667 215.833 283.333 215.333 286.917 214.917C290.667 214.5 294.417 213.917 298.167 214.167C298.667 214.167 299 213.917 299.333 213.5H329.667L329.917 213.75ZM354.5 572.833C362.417 573.167 368.417 566.833 368.5 559.083C368.5 552 362.167 545.417 354.917 545.583C346.75 545.75 341.25 551.083 341.167 558.833C341 566.333 346.167 572.667 354.583 572.833H354.5ZM354.583 335.083C361.917 335.833 368.583 328.75 368.5 322C368.5 313.333 361.083 308.167 354.833 308.083C347.25 308 340.917 314.5 340.917 321.667C340.917 329 347.417 335.667 354.5 335.083H354.583Z" fill="black"/>
<path d="M456.834 262.917C494.25 292.333 521 329.333 535.5 374.667C551.667 425.083 550.584 475.333 532.667 525.167C515.667 572.333 484.917 607.333 457.75 628.083C458.417 626.5 459.417 625.667 460.334 625C462.417 623.5 463.917 621.5 465.667 619.75C471.75 613.833 476.584 607.083 481.084 600C485.25 593.583 488.5 586.75 491.25 579.75C494.417 571.75 496.5 563.417 497.667 554.917C498.25 550.75 498.584 546.5 499.084 542.333C499.584 538 499.584 533.667 499.584 529.333C499.584 523.833 498.75 518.417 498.334 512.917C497.584 503.5 495.5 494.417 493.334 485.333C492.417 481.417 491.25 477.583 490 473.75C487.584 466 485.084 458.25 482.5 450.5C481.5 447.417 481.5 444.5 482.5 441.417C485.5 432.5 488.75 423.667 491.25 414.583C493.25 407.417 494.917 400.167 496.167 392.833C497.084 387.583 497.584 382.167 498.667 377C498.667 376.667 498.834 376.333 498.75 376C498.334 370.583 499.667 365.25 499.417 359.917C499.167 353.833 498.834 347.833 498.167 341.833C497.25 333 495.417 324.417 492.584 316.083C488.834 305.25 483.75 295.25 477.084 285.917C472.667 279.75 467.75 274 462.417 268.667C460.5 266.75 457.917 265.5 456.667 262.917H456.834Z" fill="black"/>
<path d="M735.364 401.909V495H722.455L675.136 426.727H674.273V495H660.227V401.909H673.227L720.591 470.273H721.455V401.909H735.364ZM797.652 496.409C790.773 496.409 784.849 494.939 779.88 492C774.94 489.03 771.122 484.864 768.425 479.5C765.758 474.106 764.425 467.788 764.425 460.545C764.425 453.394 765.758 447.091 768.425 441.636C771.122 436.182 774.88 431.924 779.698 428.864C784.546 425.803 790.213 424.273 796.698 424.273C800.637 424.273 804.455 424.924 808.152 426.227C811.849 427.53 815.167 429.576 818.107 432.364C821.046 435.152 823.364 438.773 825.061 443.227C826.758 447.652 827.607 453.03 827.607 459.364V464.182H772.107V454H814.289C814.289 450.424 813.561 447.258 812.107 444.5C810.652 441.712 808.607 439.515 805.97 437.909C803.364 436.303 800.304 435.5 796.789 435.5C792.97 435.5 789.637 436.439 786.789 438.318C783.97 440.167 781.789 442.591 780.243 445.591C778.728 448.561 777.97 451.788 777.97 455.273V463.227C777.97 467.894 778.789 471.864 780.425 475.136C782.092 478.409 784.41 480.909 787.38 482.636C790.349 484.333 793.819 485.182 797.789 485.182C800.364 485.182 802.713 484.818 804.834 484.091C806.955 483.333 808.789 482.212 810.334 480.727C811.88 479.242 813.061 477.409 813.88 475.227L826.743 477.545C825.713 481.333 823.864 484.652 821.198 487.5C818.561 490.318 815.243 492.515 811.243 494.091C807.273 495.636 802.743 496.409 797.652 496.409ZM870.498 495L849.952 425.182H863.998L877.68 476.455H878.361L892.089 425.182H906.134L919.77 476.227H920.452L934.043 425.182H948.089L927.589 495H913.725L899.543 444.591H898.498L884.316 495H870.498ZM1026.1 442.227L1013.79 444.409C1013.27 442.833 1012.45 441.333 1011.33 439.909C1010.24 438.485 1008.76 437.318 1006.88 436.409C1005 435.5 1002.65 435.045 999.832 435.045C995.983 435.045 992.771 435.909 990.195 437.636C987.62 439.333 986.332 441.53 986.332 444.227C986.332 446.561 987.195 448.439 988.923 449.864C990.65 451.288 993.438 452.455 997.286 453.364L1008.38 455.909C1014.8 457.394 1019.59 459.682 1022.74 462.773C1025.89 465.864 1027.47 469.879 1027.47 474.818C1027.47 479 1026.26 482.727 1023.83 486C1021.44 489.242 1018.09 491.788 1013.79 493.636C1009.51 495.485 1004.56 496.409 998.923 496.409C991.105 496.409 984.726 494.742 979.786 491.409C974.847 488.045 971.817 483.273 970.695 477.091L983.832 475.091C984.65 478.515 986.332 481.106 988.877 482.864C991.423 484.591 994.741 485.455 998.832 485.455C1003.29 485.455 1006.85 484.53 1009.51 482.682C1012.18 480.803 1013.51 478.515 1013.51 475.818C1013.51 473.636 1012.7 471.803 1011.06 470.318C1009.45 468.833 1006.98 467.712 1003.65 466.955L991.832 464.364C985.317 462.879 980.498 460.515 977.377 457.273C974.286 454.03 972.741 449.924 972.741 444.955C972.741 440.833 973.892 437.227 976.195 434.136C978.498 431.045 981.68 428.636 985.741 426.909C989.802 425.152 994.453 424.273 999.695 424.273C1007.24 424.273 1013.18 425.909 1017.51 429.182C1021.85 432.424 1024.71 436.773 1026.1 442.227ZM1055.21 495V425.182H1068.35V436.273H1069.08C1070.35 432.515 1072.59 429.561 1075.8 427.409C1079.04 425.227 1082.71 424.136 1086.8 424.136C1087.65 424.136 1088.65 424.167 1089.8 424.227C1090.98 424.288 1091.91 424.364 1092.58 424.455V437.455C1092.03 437.303 1091.06 437.136 1089.67 436.955C1088.27 436.742 1086.88 436.636 1085.48 436.636C1082.27 436.636 1079.41 437.318 1076.89 438.682C1074.41 440.015 1072.44 441.879 1070.98 444.273C1069.53 446.636 1068.8 449.333 1068.8 452.364V495H1055.21ZM1144.05 496.409C1137.5 496.409 1131.79 494.909 1126.91 491.909C1122.03 488.909 1118.24 484.712 1115.55 479.318C1112.85 473.924 1111.5 467.621 1111.5 460.409C1111.5 453.167 1112.85 446.833 1115.55 441.409C1118.24 435.985 1122.03 431.773 1126.91 428.773C1131.79 425.773 1137.5 424.273 1144.05 424.273C1150.59 424.273 1156.3 425.773 1161.18 428.773C1166.06 431.773 1169.85 435.985 1172.55 441.409C1175.24 446.833 1176.59 453.167 1176.59 460.409C1176.59 467.621 1175.24 473.924 1172.55 479.318C1169.85 484.712 1166.06 488.909 1161.18 491.909C1156.3 494.909 1150.59 496.409 1144.05 496.409ZM1144.09 485C1148.33 485 1151.85 483.879 1154.64 481.636C1157.42 479.394 1159.48 476.409 1160.82 472.682C1162.18 468.955 1162.86 464.848 1162.86 460.364C1162.86 455.909 1162.18 451.818 1160.82 448.091C1159.48 444.333 1157.42 441.318 1154.64 439.045C1151.85 436.773 1148.33 435.636 1144.09 435.636C1139.82 435.636 1136.27 436.773 1133.45 439.045C1130.67 441.318 1128.59 444.333 1127.23 448.091C1125.89 451.818 1125.23 455.909 1125.23 460.364C1125.23 464.848 1125.89 468.955 1127.23 472.682C1128.59 476.409 1130.67 479.394 1133.45 481.636C1136.27 483.879 1139.82 485 1144.09 485ZM1233.97 496.409C1227.42 496.409 1221.71 494.909 1216.83 491.909C1211.96 488.909 1208.17 484.712 1205.47 479.318C1202.77 473.924 1201.42 467.621 1201.42 460.409C1201.42 453.167 1202.77 446.833 1205.47 441.409C1208.17 435.985 1211.96 431.773 1216.83 428.773C1221.71 425.773 1227.42 424.273 1233.97 424.273C1240.52 424.273 1246.23 425.773 1251.11 428.773C1255.99 431.773 1259.77 435.985 1262.47 441.409C1265.17 446.833 1266.52 453.167 1266.52 460.409C1266.52 467.621 1265.17 473.924 1262.47 479.318C1259.77 484.712 1255.99 488.909 1251.11 491.909C1246.23 494.909 1240.52 496.409 1233.97 496.409ZM1234.02 485C1238.26 485 1241.77 483.879 1244.56 481.636C1247.35 479.394 1249.41 476.409 1250.74 472.682C1252.11 468.955 1252.79 464.848 1252.79 460.364C1252.79 455.909 1252.11 451.818 1250.74 448.091C1249.41 444.333 1247.35 441.318 1244.56 439.045C1241.77 436.773 1238.26 435.636 1234.02 435.636C1229.74 435.636 1226.2 436.773 1223.38 439.045C1220.59 441.318 1218.52 444.333 1217.15 448.091C1215.82 451.818 1215.15 455.909 1215.15 460.364C1215.15 464.848 1215.82 468.955 1217.15 472.682C1218.52 476.409 1220.59 479.394 1223.38 481.636C1226.2 483.879 1229.74 485 1234.02 485ZM1294.49 495V425.182H1307.53V436.545H1308.4C1309.85 432.697 1312.23 429.697 1315.53 427.545C1318.83 425.364 1322.79 424.273 1327.4 424.273C1332.06 424.273 1335.97 425.364 1339.12 427.545C1342.3 429.727 1344.65 432.727 1346.17 436.545H1346.9C1348.56 432.818 1351.21 429.848 1354.85 427.636C1358.49 425.394 1362.82 424.273 1367.85 424.273C1374.18 424.273 1379.35 426.258 1383.35 430.227C1387.38 434.197 1389.4 440.182 1389.4 448.182V495H1375.8V449.455C1375.8 444.727 1374.52 441.303 1371.94 439.182C1369.37 437.061 1366.29 436 1362.71 436C1358.29 436 1354.85 437.364 1352.4 440.091C1349.94 442.788 1348.71 446.258 1348.71 450.5V495H1335.17V448.591C1335.17 444.803 1333.99 441.758 1331.62 439.455C1329.26 437.152 1326.18 436 1322.4 436C1319.82 436 1317.44 436.682 1315.26 438.045C1313.11 439.379 1311.37 441.242 1310.03 443.636C1308.73 446.03 1308.08 448.803 1308.08 451.955V495H1294.49Z" fill="black"/>
</svg>
