<svg xmlns="http://www.w3.org/2000/svg" viewBox="0 0 32 32" style="display: block; height: 24px; width: 24px; fill: currentcolor;" aria-hidden="true" role="presentation" focusable="false"><path d="m3.7 2.3 26 26-1.4 1.4-26-26zm8.17 13.81 1.44 1.44L9.6 22.8a2 2 0 0 0 1.98 3.13l.17-.04 4-1.07a1 1 0 0 1 .38-.03l.13.03 4 1.07a2 2 0 0 0 1.3-.1l1.46 1.47a4 4 0 0 1-3.09.6l-.2-.04-3.73-1-3.73 1a4 4 0 0 1-2.94-.35l-.2-.11-.2-.13a4 4 0 0 1-1.08-5.4l.11-.18zM27 12a4 4 0 1 1 0 8 4 4 0 0 1 0-8zM5 12a4 4 0 1 1 0 8 4 4 0 0 1 0-8zm22 2a2 2 0 1 0 0 4 2 2 0 0 0 0-4zM5 14a2 2 0 1 0 0 4 2 2 0 0 0 0-4zM21 4a4 4 0 1 1 0 8 4 4 0 0 1 0-8zM11 4a4 4 0 0 1 3.38 6.14l-1.49-1.5a2 2 0 0 0-2.54-2.53L8.86 4.6A3.98 3.98 0 0 1 11 4zm10 2a2 2 0 1 0 0 4 2 2 0 0 0 0-4z"/></svg>