<svg xmlns="http://www.w3.org/2000/svg" viewBox="0 0 32 32" style="display:block;height:32px;width:32px;fill:currentColor" aria-hidden="true" role="presentation" focusable="false"><path d="M16 3a6 6 0 0 1 3.64 10.77 8.92 8.92 0 0 1 1.7 1 5 5 0 0 1 5.91 8.03A7 7 0 0 1 31 28.76V29h-2a5 5 0 0 0-4-4.9v-2.27a3 3 0 1 0-2 0v2.27a5 5 0 0 0-4 4.68V29h-2a7 7 0 0 1 3.75-6.2A4.98 4.98 0 0 1 19 19c0-1.05.32-2.02.88-2.83a6.94 6.94 0 0 0-2.88-1.1v-2.2A4 4 0 0 0 16 5a4 4 0 0 0-1 7.87v2.2a6.95 6.95 0 0 0-2.88 1.1c.56.8.88 1.78.88 2.83a4.99 4.99 0 0 1-1.75 3.8A7 7 0 0 1 15 28.76V29h-2a5 5 0 0 0-4-4.9v-2.27a3 3 0 1 0-2 0v2.27a5 5 0 0 0-4 4.68V29H1a7 7 0 0 1 3.75-6.2 5 5 0 0 1 5.9-8.04 8.89 8.89 0 0 1 1.7-1A6 6 0 0 1 16 3z"/></svg>