<svg xmlns="http://www.w3.org/2000/svg" viewBox="0 0 24 24" role="presentation" aria-hidden="true" focusable="false" style="height:48px;width:48px;display:block;fill:#FEF5EB"><path d="M12 5c0-1.657.895-3 2-3s2 1.343 2 3-.895 3-2 3-2-1.343-2-3zm3 9c-1 1-1 2.5-1 5v1a.877.877 0 0 0 1 1h2.5v-6.5A6.82 6.82 0 0 0 21 12q1.014-1.572 1-6-.397-.376-.5 0c-.01.037 0 .711 0 1.5a6.344 6.344 0 0 1-1.457 3.675C18.446 13.305 16 13 15 14z"/><path d="M9.5 10.5a.5.5 0 1 1 .5.5.5.5 0 0 1-.5-.5zM20.468 3a2.095 2.095 0 0 0-2.03 2.149v2.594A2.045 2.045 0 0 1 16.5 10h-4.499a.5.5 0 0 0 0 1H16.5a3.04 3.04 0 0 0 2.938-3.257V5.15a1.037 1.037 0 1 1 2.062 0v2.693a8.435 8.435 0 0 1-.213 1.969 4.843 4.843 0 0 1-1.514 2.611 5.627 5.627 0 0 1-1.659.986A1.569 1.569 0 0 0 17 15.017c.023.678.015 2.575.007 4.249A343.25 343.25 0 0 0 17 21.5a.5.5 0 0 0 .5.499h.001a.5.5 0 0 0 .499-.501c-.001-.536.002-1.35.007-2.23.008-1.681.016-3.588-.007-4.286-.01-.284.066-.48.481-.645a6.628 6.628 0 0 0 1.953-1.164 5.894 5.894 0 0 0 1.826-3.13 9.475 9.475 0 0 0 .24-2.202V5.15A2.096 2.096 0 0 0 20.468 3zM12.5 9a4 4 0 1 0-4-4 4.004 4.004 0 0 0 4 4zm0-7a3 3 0 1 1-3 3 3.003 3.003 0 0 1 3-3zm-4 15.5h-.499c.002-.957.001-1.826 0-2.546L8 13.5h-.5A2.268 2.268 0 0 0 5 16.028 2.242 2.242 0 0 0 7.5 18.5h1c.451 0 1.5.122 1.5 1.25S8.951 21 8.5 21H7.058a.462.462 0 0 0-.063-.015 4.518 4.518 0 0 1-3.332-1.678 5.12 5.12 0 0 1-1.091-4.087A5.05 5.05 0 0 1 7.504 11H8.5a.5.5 0 0 0 0-1h-.996a6.073 6.073 0 0 0-4.611 9.943 5.516 5.516 0 0 0 4.075 2.042h.014L7 21.982V22h1.5a2.263 2.263 0 1 0 0-4.5zm-1.499-.04C6.297 17.334 6 16.894 6 16.029c0-.882.305-1.348 1-1.485l.001.412c.001.711.002 1.563 0 2.506z" fill="#484848"/></svg>