<svg xmlns="http://www.w3.org/2000/svg" viewBox="0 0 32 32" style="display:block;height:16px;width:16px;fill:currentColor" aria-hidden="true" role="presentation" focusable="false"><path d="M28 29.5h-.19a1.95 1.95 0 0 1-1.14-.5A3.98 3.98 0 0 0 24 28c-.99 0-1.95.35-2.67 1a1.98 1.98 0 0 1-1.33.5 1.98 1.98 0 0 1-1.33-.5A3.98 3.98 0 0 0 16 28c-.99 0-1.95.35-2.67 1-.35.33-.83.5-1.33.5a1.98 1.98 0 0 1-1.33-.5A3.97 3.97 0 0 0 8 28c-.99 0-1.95.35-2.67 1a1.95 1.95 0 0 1-1.14.5H4v-3h.23a3.96 3.96 0 0 0 2.44-1.01C7.02 25.18 7.5 25 8 25c.5 0 .98.17 1.33.5a3.98 3.98 0 0 0 2.67 1c.99 0 1.94-.35 2.67-1 .35-.32.83-.5 1.33-.5s.98.17 1.33.5a3.98 3.98 0 0 0 2.67 1c.99 0 1.95-.35 2.67-1 .35-.33.83-.5 1.33-.5s.98.17 1.33.5a3.96 3.96 0 0 0 2.44 1H28zM22 13v5.52l-.46.31-.21.18a1.98 1.98 0 0 1-1.33.49 2 2 0 0 1-1.2-.38l-.13-.11a3.8 3.8 0 0 0-.43-.34l-.24-.15V13zm-2-8a2 2 0 0 0-2 1.85V9h4V7a2 2 0 0 0-2-2zm8 19.5h-.19a1.95 1.95 0 0 1-1.14-.5A3.98 3.98 0 0 0 24 23c-.99 0-1.95.35-2.67 1a1.98 1.98 0 0 1-1.33.5 1.98 1.98 0 0 1-1.33-.5A3.98 3.98 0 0 0 16 23c-.99 0-1.95.35-2.67 1-.35.33-.83.5-1.33.5a1.98 1.98 0 0 1-1.33-.5A3.97 3.97 0 0 0 8 23c-.99 0-1.95.35-2.67 1a1.95 1.95 0 0 1-1.14.5H4v-3h.23a3.96 3.96 0 0 0 2.44-1.01C7.02 20.18 7.5 20 8 20c.5 0 .98.17 1.33.5a3.98 3.98 0 0 0 2.67 1c.99 0 1.94-.35 2.67-1 .3-.28.71-.45 1.14-.5h.21c.5 0 .96.18 1.3.5a3.98 3.98 0 0 0 2.68 1c.99 0 1.95-.35 2.67-1 .26-.25.6-.4.96-.47l.18-.02L24 20c.5 0 .98.17 1.33.5a3.96 3.96 0 0 0 2.44 1H28zM4 9h12V7a2 2 0 0 0-4-.15V7h-2a4 4 0 0 1 7-2.65 4 4 0 0 1 7 2.45V9h4v10.5h-.19a1.95 1.95 0 0 1-1.14-.5 3.96 3.96 0 0 0-2.44-1H24v-7h-8v7c-.99 0-1.95.35-2.67 1-.35.33-.83.5-1.33.5a1.98 1.98 0 0 1-1.33-.5A3.97 3.97 0 0 0 8 18c-.99 0-1.95.35-2.67 1a1.95 1.95 0 0 1-1.14.5H4z"/></svg>