<svg xmlns="http://www.w3.org/2000/svg" viewBox="0 0 16 16" style="display:block;height:16px;width:16px;fill:currentColor" aria-hidden="true" role="presentation" focusable="false"><path d="M7.06 1.37a1.5 1.5 0 0 1 1.76-.09l.12.09 5.69 4.6c.2.15.33.39.36.64l.01.13V15a1 1 0 0 1-.88 1H2a1 1 0 0 1-1-.88V6.74c0-.26.1-.5.28-.7l.1-.08zM10.5 9a1.5 1.5 0 0 0-.63 2.86l.13.05v.13a3 3 0 0 0-2 1.3 3 3 0 0 0-1.8-1.26l-.2-.04v-.13a1.5 1.5 0 1 0-1.13-.05l.13.05v.13a3 3 0 0 0-2.5 2.78V15h11v-.18a3 3 0 0 0-2.32-2.74l-.18-.04v-.13A1.5 1.5 0 0 0 10.5 9z"/></svg>