<svg width="250" height="00" viewBox="0 0 2500 734" fill="none" xmlns="http://www.w3.org/2000/svg">
<path d="M329.916 213.75C329.916 213.75 330.583 214.417 331.083 214.417C337.166 214.417 343.083 215.667 349.083 216.417C359.416 217.75 369.5 220.167 379.583 223.083C395 227.5 409.666 233.75 423.833 241.083C424.25 241.333 424.666 241.5 425 241.75C425.166 241.833 425.25 242.083 425.833 243C415.833 238.417 406.333 234.25 396.5 230.917C386.5 227.583 376.333 224.833 366 222.667C355.916 220.583 345.75 218.833 335.416 218.083C346.583 220.75 357.583 223.917 368.083 228.5C378.166 232.917 387.666 238.583 396.166 245.75C398.333 247.583 400.5 249.5 402.5 251.5C416.083 264.833 424.166 281.083 428 299.667C429.75 308.167 430.417 316.667 429.833 325.25C429.167 334.667 427.666 344.083 425 353.167C422.583 361.417 419.333 369.417 415.5 377.083C408.583 390.833 399.5 403.083 387.916 413.167C381 419.25 373.167 424 364.5 427.333C358.167 429.833 351.667 431.667 345 432.667C337.917 433.75 330.667 433.833 323.417 433.083C312.833 431.917 303.416 428 294.666 422.417C286.083 416.917 278.916 409.667 274.416 400.417C271 393.5 268.75 386.167 268.5 378.333C268.5 376.167 267.75 374.083 267.833 371.833C268.416 358.333 272 345.833 281 335.417C286.667 328.917 293 323.083 301 319.417C302.75 318.583 304.416 317.667 306.583 316.583C304.166 315.25 302 315.417 299.917 315C290.75 313.333 281.416 313.417 272.166 313.583C259.166 313.833 246.75 316.75 235.25 323C227.416 327.25 220.916 333.167 215.166 340.083C206.583 350.417 201.833 362.5 198.917 375.333C197.833 380 197.333 384.75 196.583 389.5C195.916 393.833 196.75 398.25 195.417 402.5C194.833 404.5 194.5 405 192.583 405.25C191.667 405.333 190.75 405.25 189.833 405.25C174 405.25 158.083 405.25 142.25 405.25C141.416 405.25 140.667 405.25 139.833 405.25C138.167 405.167 137.25 405.75 136.5 407.5C133.916 413.917 131.916 420.417 130.5 427.167C128.583 436.5 128.667 445.917 129.25 455.25C129.833 464.583 132.333 473.75 135.75 482.5C137.167 486.25 137.833 486.583 141.917 486.583C158.167 486.583 174.333 486.583 190.583 486.583C191.417 486.583 192.166 486.583 193 486.583C195.666 486.667 196 487 196.083 489.5C196.083 490.417 196.083 491.333 196.083 492.25C196.083 506.5 199.083 520.167 204.583 533.25C208.583 542.833 214.166 551.25 221.583 558.417C230.666 567.083 241.5 572.583 253.75 575.417C258.666 576.5 263.667 577.083 268.667 577.667C273.25 578.167 277.833 578.25 282.416 578.167C286.25 578.167 290.166 577.417 294 577.083C298.25 576.667 302.333 575.75 307.25 575.25C304.416 573.833 302.166 572.583 299.833 571.5C294.666 569.083 290.25 565.583 286.25 561.667C277.5 553.167 271.583 543 269.25 530.833C268.083 524.75 267.666 518.75 268.333 512.5C269.5 502.583 272.75 493.583 278.167 485.333C282.167 479.25 287.5 474.417 293.333 470C302.083 463.333 312.166 460.25 322.75 458.417C325 458 327.333 458.417 329.667 458.25C333.917 457.75 338.166 458 342.25 458.5C349.833 459.333 357.25 461.25 364.5 464.167C372.333 467.333 379.5 471.667 386 476.917C396.666 485.5 405.083 495.917 411.75 507.917C416.333 516.167 420.5 524.583 423.416 533.5C425.916 541.083 427.75 548.833 428.75 556.833C429.416 562.5 430.083 568.167 430 573.917C429.833 582.75 428.5 591.417 426.083 599.917C424.416 605.667 422.5 611.25 419.75 616.583C415.583 624.583 410.416 631.75 404.166 638.25C397 645.667 389.083 652 380.166 657.083C374 660.583 367.5 663.5 360.75 665.917C353.166 668.583 345.416 670.583 337.666 672.583C337.333 672.583 337.083 672.833 336.833 673.167C352.083 671.833 367.083 669 381.833 665C396.583 661 410.75 655.75 424.833 649.083C424.416 650.583 423.416 650.667 422.666 651.083C408.75 658.5 394.083 664.25 379 668.667C370.083 671.25 361.083 673.25 351.916 674.75C345.5 675.833 339 676.25 332.583 677.333C332.5 677.333 332.333 677.333 332.25 677.333C324.25 677.333 316.166 678.917 308.166 677.917C303.166 677.333 298.166 677.5 293.083 676.917C288.416 676.417 283.833 675.583 279.166 675.167C275 674.75 270.833 673.75 266.666 672.917C256.916 670.917 247.25 668.25 237.833 664.917C231 662.5 224.333 659.75 217.75 656.833C204.666 651.083 192.5 643.75 180.833 635.667C175.583 632 170.583 628 165.583 624C159 618.75 153.166 612.833 147.166 606.917C139.5 599.333 132.75 591 126.333 582.333C120.25 574 114.666 565.333 109.75 556.25C101.75 541.667 95.5832 526.5 90.9998 510.583C89.0832 504.083 87.3332 497.583 86.0832 490.917C85.0832 485.417 84.0832 479.917 83.4165 474.333C82.6665 468.417 81.9165 462.583 82.0832 456.583C82.0832 455.917 82.0832 455.167 81.4165 454.75V435.417C82.0832 435 82.0832 434.25 82.0832 433.583C82.0832 430.167 82.3332 426.75 82.6665 423.333C83.1665 418 84.0832 412.75 84.8332 407.417C86.4165 396.083 89.4165 385 92.8332 374.167C95.1665 366.833 97.9998 359.75 101.083 352.667C105.667 342.417 110.667 332.333 116.75 322.917C121.333 315.833 126.083 308.833 131.417 302.167C136.5 295.833 141.833 289.75 147.417 283.75C152.333 278.5 157.917 273.833 163.333 269.083C169.083 264 175.167 259.333 181.417 254.917C194.916 245.583 209.166 237.5 224.416 231.333C233.833 227.5 243.5 224.083 253.333 221.417C260.833 219.417 268.417 217.667 276.083 216.417C279.667 215.833 283.333 215.333 286.916 214.917C290.666 214.5 294.416 213.917 298.166 214.167C298.666 214.167 299 213.917 299.333 213.5H329.667L329.916 213.75ZM354.5 572.833C362.416 573.167 368.416 566.833 368.5 559.083C368.5 552 362.166 545.417 354.916 545.583C346.75 545.75 341.25 551.083 341.166 558.833C341 566.333 346.166 572.667 354.583 572.833H354.5ZM354.583 335.083C361.916 335.833 368.583 328.75 368.5 322C368.5 313.333 361.083 308.167 354.833 308.083C347.25 308 340.916 314.5 340.916 321.667C340.916 329 347.416 335.667 354.5 335.083H354.583Z" fill="black"/>
<path d="M456.833 262.917C494.25 292.333 521 329.333 535.5 374.667C551.667 425.083 550.583 475.333 532.666 525.167C515.666 572.333 484.917 607.333 457.75 628.083C458.417 626.5 459.417 625.667 460.333 625C462.417 623.5 463.917 621.5 465.667 619.75C471.75 613.833 476.583 607.083 481.083 600C485.25 593.583 488.5 586.75 491.25 579.75C494.417 571.75 496.5 563.417 497.667 554.917C498.25 550.75 498.583 546.5 499.083 542.333C499.583 538 499.583 533.667 499.583 529.333C499.583 523.833 498.75 518.417 498.333 512.917C497.583 503.5 495.5 494.417 493.333 485.333C492.417 481.417 491.25 477.583 490 473.75C487.583 466 485.083 458.25 482.5 450.5C481.5 447.417 481.5 444.5 482.5 441.417C485.5 432.5 488.75 423.667 491.25 414.583C493.25 407.417 494.917 400.167 496.167 392.833C497.083 387.583 497.583 382.167 498.667 377C498.667 376.667 498.833 376.333 498.75 376C498.333 370.583 499.667 365.25 499.417 359.917C499.167 353.833 498.833 347.833 498.166 341.833C497.25 333 495.417 324.417 492.583 316.083C488.833 305.25 483.75 295.25 477.083 285.917C472.667 279.75 467.75 274 462.417 268.667C460.5 266.75 457.917 265.5 456.667 262.917H456.833Z" fill="black"/>
<path d="M660.227 495V401.909H693.409C700.621 401.909 706.606 403.152 711.364 405.636C716.152 408.121 719.727 411.561 722.091 415.955C724.455 420.318 725.636 425.364 725.636 431.091C725.636 436.788 724.439 441.803 722.045 446.136C719.682 450.439 716.106 453.788 711.318 456.182C706.561 458.576 700.576 459.773 693.364 459.773H668.227V447.682H692.091C696.636 447.682 700.333 447.03 703.182 445.727C706.061 444.424 708.167 442.53 709.5 440.045C710.833 437.561 711.5 434.576 711.5 431.091C711.5 427.576 710.818 424.53 709.455 421.955C708.121 419.379 706.015 417.409 703.136 416.045C700.288 414.652 696.545 413.955 691.909 413.955H674.273V495H660.227ZM706.182 453L729.182 495H713.182L690.636 453H706.182ZM783.652 496.409C776.773 496.409 770.849 494.939 765.88 492C760.94 489.03 757.122 484.864 754.425 479.5C751.758 474.106 750.425 467.788 750.425 460.545C750.425 453.394 751.758 447.091 754.425 441.636C757.122 436.182 760.88 431.924 765.698 428.864C770.546 425.803 776.213 424.273 782.698 424.273C786.637 424.273 790.455 424.924 794.152 426.227C797.849 427.53 801.167 429.576 804.107 432.364C807.046 435.152 809.364 438.773 811.061 443.227C812.758 447.652 813.607 453.03 813.607 459.364V464.182H758.107V454H800.289C800.289 450.424 799.561 447.258 798.107 444.5C796.652 441.712 794.607 439.515 791.97 437.909C789.364 436.303 786.304 435.5 782.789 435.5C778.97 435.5 775.637 436.439 772.789 438.318C769.97 440.167 767.789 442.591 766.243 445.591C764.728 448.561 763.97 451.788 763.97 455.273V463.227C763.97 467.894 764.789 471.864 766.425 475.136C768.092 478.409 770.41 480.909 773.38 482.636C776.349 484.333 779.819 485.182 783.789 485.182C786.364 485.182 788.713 484.818 790.834 484.091C792.955 483.333 794.789 482.212 796.334 480.727C797.88 479.242 799.061 477.409 799.88 475.227L812.743 477.545C811.713 481.333 809.864 484.652 807.198 487.5C804.561 490.318 801.243 492.515 797.243 494.091C793.273 495.636 788.743 496.409 783.652 496.409ZM893.805 442.227L881.486 444.409C880.971 442.833 880.153 441.333 879.032 439.909C877.941 438.485 876.456 437.318 874.577 436.409C872.698 435.5 870.35 435.045 867.532 435.045C863.683 435.045 860.471 435.909 857.895 437.636C855.32 439.333 854.032 441.53 854.032 444.227C854.032 446.561 854.895 448.439 856.623 449.864C858.35 451.288 861.138 452.455 864.986 453.364L876.077 455.909C882.502 457.394 887.289 459.682 890.441 462.773C893.592 465.864 895.168 469.879 895.168 474.818C895.168 479 893.956 482.727 891.532 486C889.138 489.242 885.789 491.788 881.486 493.636C877.214 495.485 872.259 496.409 866.623 496.409C858.805 496.409 852.426 494.742 847.486 491.409C842.547 488.045 839.517 483.273 838.395 477.091L851.532 475.091C852.35 478.515 854.032 481.106 856.577 482.864C859.123 484.591 862.441 485.455 866.532 485.455C870.986 485.455 874.547 484.53 877.214 482.682C879.88 480.803 881.214 478.515 881.214 475.818C881.214 473.636 880.395 471.803 878.759 470.318C877.153 468.833 874.683 467.712 871.35 466.955L859.532 464.364C853.017 462.879 848.198 460.515 845.077 457.273C841.986 454.03 840.441 449.924 840.441 444.955C840.441 440.833 841.592 437.227 843.895 434.136C846.198 431.045 849.38 428.636 853.441 426.909C857.502 425.152 862.153 424.273 867.395 424.273C874.941 424.273 880.88 425.909 885.214 429.182C889.547 432.424 892.411 436.773 893.805 442.227ZM952.32 496.409C945.775 496.409 940.063 494.909 935.184 491.909C930.305 488.909 926.517 484.712 923.82 479.318C921.123 473.924 919.775 467.621 919.775 460.409C919.775 453.167 921.123 446.833 923.82 441.409C926.517 435.985 930.305 431.773 935.184 428.773C940.063 425.773 945.775 424.273 952.32 424.273C958.866 424.273 964.578 425.773 969.457 428.773C974.336 431.773 978.123 435.985 980.82 441.409C983.517 446.833 984.866 453.167 984.866 460.409C984.866 467.621 983.517 473.924 980.82 479.318C978.123 484.712 974.336 488.909 969.457 491.909C964.578 494.909 958.866 496.409 952.32 496.409ZM952.366 485C956.608 485 960.123 483.879 962.911 481.636C965.699 479.394 967.76 476.409 969.093 472.682C970.457 468.955 971.139 464.848 971.139 460.364C971.139 455.909 970.457 451.818 969.093 448.091C967.76 444.333 965.699 441.318 962.911 439.045C960.123 436.773 956.608 435.636 952.366 435.636C948.093 435.636 944.548 436.773 941.73 439.045C938.942 441.318 936.866 444.333 935.502 448.091C934.169 451.818 933.502 455.909 933.502 460.364C933.502 464.848 934.169 468.955 935.502 472.682C936.866 476.409 938.942 479.394 941.73 481.636C944.548 483.879 948.093 485 952.366 485ZM1057.06 466.045V425.182H1070.7V495H1057.34V482.909H1056.61C1055 486.636 1052.43 489.742 1048.88 492.227C1045.37 494.682 1040.99 495.909 1035.75 495.909C1031.26 495.909 1027.29 494.924 1023.84 492.955C1020.41 490.955 1017.72 488 1015.75 484.091C1013.81 480.182 1012.84 475.348 1012.84 469.591V425.182H1026.43V467.955C1026.43 472.712 1027.75 476.5 1030.38 479.318C1033.02 482.136 1036.44 483.545 1040.65 483.545C1043.2 483.545 1045.73 482.909 1048.25 481.636C1050.79 480.364 1052.9 478.439 1054.56 475.864C1056.26 473.288 1057.09 470.015 1057.06 466.045ZM1101.76 495V425.182H1114.9V436.273H1115.62C1116.9 432.515 1119.14 429.561 1122.35 427.409C1125.59 425.227 1129.26 424.136 1133.35 424.136C1134.2 424.136 1135.2 424.167 1136.35 424.227C1137.53 424.288 1138.46 424.364 1139.12 424.455V437.455C1138.58 437.303 1137.61 437.136 1136.22 436.955C1134.82 436.742 1133.43 436.636 1132.03 436.636C1128.82 436.636 1125.96 437.318 1123.44 438.682C1120.96 440.015 1118.99 441.879 1117.53 444.273C1116.08 446.636 1115.35 449.333 1115.35 452.364V495H1101.76ZM1190.6 496.409C1183.84 496.409 1178.02 494.879 1173.14 491.818C1168.29 488.727 1164.57 484.47 1161.96 479.045C1159.35 473.621 1158.05 467.409 1158.05 460.409C1158.05 453.318 1159.38 447.061 1162.05 441.636C1164.72 436.182 1168.47 431.924 1173.32 428.864C1178.17 425.803 1183.88 424.273 1190.46 424.273C1195.76 424.273 1200.49 425.258 1204.64 427.227C1208.79 429.167 1212.14 431.894 1214.69 435.409C1217.26 438.924 1218.79 443.03 1219.28 447.727H1206.05C1205.32 444.455 1203.66 441.636 1201.05 439.273C1198.47 436.909 1195.02 435.727 1190.69 435.727C1186.9 435.727 1183.58 436.727 1180.73 438.727C1177.91 440.697 1175.72 443.515 1174.14 447.182C1172.57 450.818 1171.78 455.121 1171.78 460.091C1171.78 465.182 1172.55 469.576 1174.1 473.273C1175.64 476.97 1177.82 479.833 1180.64 481.864C1183.49 483.894 1186.84 484.909 1190.69 484.909C1193.26 484.909 1195.6 484.439 1197.69 483.5C1199.81 482.53 1201.58 481.152 1203 479.364C1204.46 477.576 1205.47 475.424 1206.05 472.909H1219.28C1218.79 477.424 1217.32 481.455 1214.87 485C1212.41 488.545 1209.13 491.333 1205 493.364C1200.91 495.394 1196.11 496.409 1190.6 496.409ZM1276.7 496.409C1269.82 496.409 1263.9 494.939 1258.93 492C1253.99 489.03 1250.17 484.864 1247.47 479.5C1244.81 474.106 1243.47 467.788 1243.47 460.545C1243.47 453.394 1244.81 447.091 1247.47 441.636C1250.17 436.182 1253.93 431.924 1258.75 428.864C1263.6 425.803 1269.26 424.273 1275.75 424.273C1279.69 424.273 1283.51 424.924 1287.2 426.227C1290.9 427.53 1294.22 429.576 1297.16 432.364C1300.1 435.152 1302.41 438.773 1304.11 443.227C1305.81 447.652 1306.66 453.03 1306.66 459.364V464.182H1251.16V454H1293.34C1293.34 450.424 1292.61 447.258 1291.16 444.5C1289.7 441.712 1287.66 439.515 1285.02 437.909C1282.41 436.303 1279.35 435.5 1275.84 435.5C1272.02 435.5 1268.69 436.439 1265.84 438.318C1263.02 440.167 1260.84 442.591 1259.29 445.591C1257.78 448.561 1257.02 451.788 1257.02 455.273V463.227C1257.02 467.894 1257.84 471.864 1259.47 475.136C1261.14 478.409 1263.46 480.909 1266.43 482.636C1269.4 484.333 1272.87 485.182 1276.84 485.182C1279.41 485.182 1281.76 484.818 1283.88 484.091C1286.01 483.333 1287.84 482.212 1289.38 480.727C1290.93 479.242 1292.11 477.409 1292.93 475.227L1305.79 477.545C1304.76 481.333 1302.91 484.652 1300.25 487.5C1297.61 490.318 1294.29 492.515 1290.29 494.091C1286.32 495.636 1281.79 496.409 1276.7 496.409ZM1459.62 432.182H1445.44C1444.89 429.152 1443.88 426.485 1442.39 424.182C1440.91 421.879 1439.09 419.924 1436.94 418.318C1434.79 416.712 1432.38 415.5 1429.71 414.682C1427.08 413.864 1424.27 413.455 1421.3 413.455C1415.94 413.455 1411.14 414.803 1406.89 417.5C1402.68 420.197 1399.35 424.152 1396.89 429.364C1394.47 434.576 1393.26 440.939 1393.26 448.455C1393.26 456.03 1394.47 462.424 1396.89 467.636C1399.35 472.848 1402.7 476.788 1406.94 479.455C1411.18 482.121 1415.95 483.455 1421.26 483.455C1424.2 483.455 1426.98 483.061 1429.62 482.273C1432.29 481.455 1434.7 480.258 1436.85 478.682C1439 477.106 1440.82 475.182 1442.3 472.909C1443.82 470.606 1444.86 467.97 1445.44 465L1459.62 465.045C1458.86 469.621 1457.39 473.833 1455.21 477.682C1453.06 481.5 1450.29 484.803 1446.89 487.591C1443.53 490.348 1439.68 492.485 1435.35 494C1431.01 495.515 1426.29 496.273 1421.17 496.273C1413.11 496.273 1405.92 494.364 1399.62 490.545C1393.32 486.697 1388.35 481.197 1384.71 474.045C1381.11 466.894 1379.3 458.364 1379.3 448.455C1379.3 438.515 1381.12 429.985 1384.76 422.864C1388.39 415.712 1393.36 410.227 1399.67 406.409C1405.97 402.561 1413.14 400.636 1421.17 400.636C1426.11 400.636 1430.71 401.348 1434.98 402.773C1439.29 404.167 1443.15 406.227 1446.58 408.955C1450 411.652 1452.83 414.955 1455.08 418.864C1457.32 422.742 1458.83 427.182 1459.62 432.182ZM1518.23 496.409C1511.35 496.409 1505.42 494.939 1500.45 492C1495.52 489.03 1491.7 484.864 1489 479.5C1486.33 474.106 1485 467.788 1485 460.545C1485 453.394 1486.33 447.091 1489 441.636C1491.7 436.182 1495.45 431.924 1500.27 428.864C1505.12 425.803 1510.79 424.273 1517.27 424.273C1521.21 424.273 1525.03 424.924 1528.73 426.227C1532.42 427.53 1535.74 429.576 1538.68 432.364C1541.62 435.152 1543.94 438.773 1545.64 443.227C1547.33 447.652 1548.18 453.03 1548.18 459.364V464.182H1492.68V454H1534.86C1534.86 450.424 1534.14 447.258 1532.68 444.5C1531.23 441.712 1529.18 439.515 1526.55 437.909C1523.94 436.303 1520.88 435.5 1517.36 435.5C1513.55 435.5 1510.21 436.439 1507.36 438.318C1504.55 440.167 1502.36 442.591 1500.82 445.591C1499.3 448.561 1498.55 451.788 1498.55 455.273V463.227C1498.55 467.894 1499.36 471.864 1501 475.136C1502.67 478.409 1504.98 480.909 1507.95 482.636C1510.92 484.333 1514.39 485.182 1518.36 485.182C1520.94 485.182 1523.29 484.818 1525.41 484.091C1527.53 483.333 1529.36 482.212 1530.91 480.727C1532.45 479.242 1533.64 477.409 1534.45 475.227L1547.32 477.545C1546.29 481.333 1544.44 484.652 1541.77 487.5C1539.14 490.318 1535.82 492.515 1531.82 494.091C1527.85 495.636 1523.32 496.409 1518.23 496.409ZM1589.65 453.545V495H1576.06V425.182H1589.11V436.545H1589.97C1591.58 432.848 1594.09 429.879 1597.52 427.636C1600.97 425.394 1605.32 424.273 1610.56 424.273C1615.32 424.273 1619.49 425.273 1623.06 427.273C1626.64 429.242 1629.41 432.182 1631.38 436.091C1633.35 440 1634.33 444.833 1634.33 450.591V495H1620.74V452.227C1620.74 447.167 1619.42 443.212 1616.79 440.364C1614.15 437.485 1610.53 436.045 1605.92 436.045C1602.77 436.045 1599.97 436.727 1597.52 438.091C1595.09 439.455 1593.17 441.455 1591.74 444.091C1590.35 446.697 1589.65 449.848 1589.65 453.545ZM1697.95 425.182V436.091H1659.82V425.182H1697.95ZM1670.04 408.455H1683.63V474.5C1683.63 477.136 1684.03 479.121 1684.82 480.455C1685.6 481.758 1686.62 482.652 1687.86 483.136C1689.13 483.591 1690.51 483.818 1692 483.818C1693.09 483.818 1694.04 483.742 1694.86 483.591C1695.68 483.439 1696.32 483.318 1696.77 483.227L1699.22 494.455C1698.44 494.758 1697.32 495.061 1695.86 495.364C1694.41 495.697 1692.59 495.879 1690.41 495.909C1686.83 495.97 1683.5 495.333 1680.41 494C1677.32 492.667 1674.82 490.606 1672.91 487.818C1671 485.03 1670.04 481.53 1670.04 477.318V408.455ZM1755.13 496.409C1748.25 496.409 1742.32 494.939 1737.35 492C1732.42 489.03 1728.6 484.864 1725.9 479.5C1723.23 474.106 1721.9 467.788 1721.9 460.545C1721.9 453.394 1723.23 447.091 1725.9 441.636C1728.6 436.182 1732.35 431.924 1737.17 428.864C1742.02 425.803 1747.69 424.273 1754.17 424.273C1758.11 424.273 1761.93 424.924 1765.63 426.227C1769.32 427.53 1772.64 429.576 1775.58 432.364C1778.52 435.152 1780.84 438.773 1782.54 443.227C1784.23 447.652 1785.08 453.03 1785.08 459.364V464.182H1729.58V454H1771.76C1771.76 450.424 1771.04 447.258 1769.58 444.5C1768.13 441.712 1766.08 439.515 1763.45 437.909C1760.84 436.303 1757.78 435.5 1754.26 435.5C1750.45 435.5 1747.11 436.439 1744.26 438.318C1741.45 440.167 1739.26 442.591 1737.72 445.591C1736.2 448.561 1735.45 451.788 1735.45 455.273V463.227C1735.45 467.894 1736.26 471.864 1737.9 475.136C1739.57 478.409 1741.88 480.909 1744.85 482.636C1747.82 484.333 1751.29 485.182 1755.26 485.182C1757.84 485.182 1760.19 484.818 1762.31 484.091C1764.43 483.333 1766.26 482.212 1767.81 480.727C1769.35 479.242 1770.54 477.409 1771.35 475.227L1784.22 477.545C1783.19 481.333 1781.34 484.652 1778.67 487.5C1776.04 490.318 1772.72 492.515 1768.72 494.091C1764.75 495.636 1760.22 496.409 1755.13 496.409ZM1812.96 495V425.182H1826.1V436.273H1826.82C1828.1 432.515 1830.34 429.561 1833.55 427.409C1836.79 425.227 1840.46 424.136 1844.55 424.136C1845.4 424.136 1846.4 424.167 1847.55 424.227C1848.73 424.288 1849.66 424.364 1850.32 424.455V437.455C1849.78 437.303 1848.81 437.136 1847.42 436.955C1846.02 436.742 1844.63 436.636 1843.23 436.636C1840.02 436.636 1837.16 437.318 1834.64 438.682C1832.16 440.015 1830.19 441.879 1828.73 444.273C1827.28 446.636 1826.55 449.333 1826.55 452.364V495H1812.96Z" fill="black"/>
</svg>
