<?xml version="1.0" standalone="no"?>
<!DOCTYPE svg PUBLIC "-//W3C//DTD SVG 20010904/EN"
 "http://www.w3.org/TR/2001/REC-SVG-20010904/DTD/svg10.dtd">
<svg version="1.0" xmlns="http://www.w3.org/2000/svg"
 width="356.000000pt" height="200.000000pt" viewBox="0 0 356.000000 200.000000"
 preserveAspectRatio="xMidYMid meet">

  <!-- Define the gradient with the specified colors -->
  <defs>
    <linearGradient id="pinkGradient" x1="0%" y1="0%" x2="100%" y2="100%">
      <stop offset="0%" style="stop-color:#FF0077;stop-opacity:1" />
      <stop offset="100%" style="stop-color:#D60565;stop-opacity:1" />
    </linearGradient>
  </defs>

  <!-- Apply the gradient as a fill to the paths with no outline -->
  <g transform="translate(0.000000,200.000000) scale(0.100000,-0.100000)"
     fill="url(#pinkGradient)" stroke="none">
    <path d="M2275 1654 c-163 -36 -342 -124 -474 -235 -61 -52 -72 -57 -156 -74
    -49 -10 -99 -23 -110 -30 -23 -15 -101 -82 -228 -198 -107 -98 -105 -103 41
    -113 56 -4 105 -11 108 -15 2 -4 -9 -18 -26 -30 l-30 -23 22 -23 22 -23 -37
    -38 -38 -38 96 -95 c53 -52 98 -96 101 -98 2 -3 20 14 40 37 l35 42 27 -25
    c33 -31 37 -31 56 -3 9 12 17 20 20 17 2 -2 8 -51 13 -108 5 -62 13 -106 19
    -108 7 -2 74 64 150 148 l138 152 27 102 c24 93 32 109 88 179 109 138 175
    268 219 431 12 44 23 103 24 130 l3 50 -40 2 c-22 1 -71 -5 -110 -13z m109
    -66 c-9 -56 -42 -170 -51 -179 -12 -11 -81 16 -110 43 -25 23 -62 91 -63 116
    0 7 12 17 28 23 37 15 141 37 175 38 27 1 27 0 21 -41z m-250 -64 c19 -54 59
    -103 107 -129 26 -14 54 -25 63 -25 9 0 16 -2 16 -5 0 -3 -18 -40 -39 -83 -55
    -108 -125 -204 -217 -296 -76 -75 -256 -206 -285 -206 -17 0 -239 220 -239
    237 0 16 51 102 105 179 58 81 171 194 247 246 83 56 199 118 217 115 8 -1 19
    -16 25 -33z m-499 -279 c-25 -31 -67 -93 -92 -137 l-47 -79 -85 6 c-47 4 -92
    11 -100 15 -9 5 25 41 114 121 117 104 132 115 189 129 33 8 62 12 64 8 2 -4
    -17 -32 -43 -63z m-6 -382 l111 -117 -22 -23 -22 -23 -115 112 c-64 62 -118
    114 -120 115 -6 4 41 53 50 53 4 0 57 -53 118 -117z m418 -7 c-16 -60 -24 -71
    -157 -218 -100 -110 -100 -110 -100 23 l0 76 63 37 c34 20 94 61 132 91 38 29
    71 52 73 50 2 -1 -3 -28 -11 -59z m-451 -151 c-7 -11 -20 -21 -27 -23 -8 -1
    -43 27 -79 62 l-64 66 24 25 24 26 68 -68 c62 -62 67 -69 54 -88z"/>
    <path d="M1925 1360 c-69 -28 -96 -127 -53 -190 68 -100 228 -54 228 66 0 25
    -7 58 -15 73 -24 48 -105 74 -160 51z m108 -50 c49 -39 42 -116 -14 -145 -40
    -21 -63 -19 -98 11 -89 74 21 206 112 134z"/>
    <path d="M1227 635 c-108 -104 -137 -145 -104 -145 16 0 237 221 237 237 0 30
    -24 14 -133 -92z"/>
    <path d="M1198 475 c-109 -107 -198 -199 -198 -204 0 -34 41 -3 203 155 100
    97 192 188 205 201 22 24 22 43 -1 43 -7 0 -101 -88 -209 -195z"/>
    <path d="M1362 497 c-91 -92 -111 -116 -100 -125 11 -9 37 12 127 102 99 99
    124 136 93 136 -4 0 -58 -51 -120 -113z"/>
  </g>
</svg>
