<svg xmlns="http://www.w3.org/2000/svg" viewBox="0 0 32 32" style="display:block;height:32px;width:32px;fill:#f8d74d" aria-hidden="true" role="presentation" focusable="false"><path d="M7.47 31a1.96 1.96 0 0 1-.39-.04 2 2 0 0 1-1.57-2.36L7.23 20 .87 14.27a2 2 0 0 1 1.08-3.47l8.63-1.11 3.6-7.77a2 2 0 0 1 .98-.97 2 2 0 0 1 2.65.97l3.6 7.77 8.63 1.11a2 2 0 0 1 1.09 3.47L24.77 20l1.71 8.6a2 2 0 0 1-2.96 2.13L16 26.37l-7.52 4.36a2.01 2.01 0 0 1-1 .27zM16 2.76l-4.07 8.77-9.72 1.25 7.2 6.5-1.94 9.71L16 24.06 24.52 29l-1.94-9.73 7.2-6.49-9.71-1.25L16 2.76"/></svg>