<svg xmlns="http://www.w3.org/2000/svg" viewBox="0 0 32 32" style="display: block; height: 22.5px; width: 22.5px; fill: currentcolor;" aria-hidden="true" role="presentation" focusable="false"><path d="M18.78 6.15c.27.27.49.59.63.93a3 3 0 0 1 4.1 4.1 3 3 0 0 1 .78.49l.15.13a3 3 0 0 1 .13 4.1l-.13.15-.13.12c.19.08.36.2.53.32l.16.13.14.13a3 3 0 0 1 .14 4.1l-.14.15-7.42 7.42-.05.04-.05.04-.08.06-.1.09a10 10 0 0 1-13.07-.17l-.22-.2-.22-.21a9.99 9.99 0 0 1-2.8-8.71l.03-.16v-.08L1.2 19l.58-2.48L4.4 8.74a3 3 0 0 1 5.84 1.39l-.04.17-.07.26 4.4-4.41a3 3 0 0 1 4.25 0zm-2.74 1.33-.09.08-6.33 6.33a7 7 0 0 1-.78 8.55l-.17.18-1.41-1.42a5 5 0 0 0 .62-6.32l-.75-.95 1.14-4.15a1 1 0 0 0-.71-1.23 1 1 0 0 0-1.2.65l-2.67 7.87-.52 2.24-.02.12a8 8 0 0 0 12.97 7.71l.21-.18.08-.06 7.32-7.32a1 1 0 0 0 .15-1.22l-.07-.1-.08-.1a1 1 0 0 0-1.32-.07l-.1.08-3.53 3.53-1.42-1.41 5.66-5.66a1 1 0 0 0 .08-1.32l-.08-.1-.1-.08a1 1 0 0 0-1.22 0l-.1.09-5.65 5.66-1.41-1.42 7.07-7.07a1 1 0 0 0-1.32-1.5l-.1.09-7.07 7.07-1.41-1.42 5.66-5.66a1 1 0 0 0-1.33-1.5zM31 11v2h-4v-2h4zm-3.64-7.78 1.42 1.42-2.83 2.82-1.41-1.41 2.82-2.83zM21 1v4h-2V1h2z"/></svg>