<svg width="18" height="19" viewBox="0 0 18 19" xmlns="http://www.w3.org/2000/svg">
  <path d="M14.4096 4.08525C13.8959 3.76529 13.4553 3.34089 13.1164 2.83962C12.7774 2.33834 12.5476 1.77139 12.4419 1.17556C12.4213 1.05845 12.4059 0.940055 12.3956 0.821659V0.425293H9.2954V12.7307C9.29268 13.4203 9.01674 14.0807 8.52804 14.5672C8.03934 15.0537 7.37772 15.3267 6.68813 15.3264C6.28097 15.3268 5.8794 15.2316 5.51575 15.0484C5.0849 14.8312 4.72277 14.4987 4.46967 14.0879C4.21656 13.6771 4.08241 13.2042 4.08214 12.7217C4.08248 12.0308 4.35719 11.3682 4.84587 10.8798C5.33455 10.3914 5.9972 10.117 6.68813 10.117C6.95668 10.1165 7.22368 10.1577 7.47957 10.2392V7.79412V7.09533C7.22065 7.06038 6.95969 7.04275 6.69842 7.04257C5.18767 7.04222 3.73864 7.64195 2.67002 8.70985C1.60139 9.77775 1.00068 11.2264 1 12.7371C0.999727 13.6726 1.23011 14.5936 1.67074 15.4188C2.11138 16.2439 2.74867 16.9477 3.5262 17.4678C4.46508 18.0959 5.57013 18.4293 6.69971 18.4253C8.21024 18.4253 9.65894 17.8254 10.7273 16.7575C11.7956 15.6896 12.3962 14.2412 12.3968 12.7307V6.44415C13.6492 7.33935 15.1506 7.81957 16.69 7.81728V4.73643C15.8838 4.73779 15.0935 4.51212 14.4096 4.08525Z" fill="#222222"/>
</svg>