<svg xmlns="http://www.w3.org/2000/svg" viewBox="0 0 1200 800" role="img" aria-labelledby="title desc">
  <title id="title">Self-care gift card</title>
  <desc id="desc">Calm green and pink Beautonomi self-care gift card artwork.</desc>
  <defs>
    <linearGradient id="bg" x1="0" y1="0" x2="1" y2="1">
      <stop offset="0" stop-color="#ecfdf5"/>
      <stop offset=".55" stop-color="#f9a8d4"/>
      <stop offset="1" stop-color="#0f766e"/>
    </linearGradient>
  </defs>
  <rect width="1200" height="800" rx="64" fill="url(#bg)"/>
  <circle cx="250" cy="190" r="150" fill="#fff" opacity=".18"/>
  <circle cx="970" cy="610" r="230" fill="#fff" opacity=".16"/>
  <rect x="210" y="195" width="780" height="410" rx="58" fill="#fff" opacity=".9"/>
  <path d="M600 510c-83-58-124-123-124-196 0-77 48-139 124-139s124 62 124 139c0 73-41 138-124 196Z" fill="#0f766e" opacity=".92"/>
  <path d="M600 220c38 58 38 146 0 238-38-92-38-180 0-238Z" fill="#fff" opacity=".75"/>
  <text x="600" y="158" text-anchor="middle" font-family="Georgia, 'Times New Roman', serif" font-size="62" font-weight="700" fill="#fff">Self-Care Day</text>
  <text x="600" y="675" text-anchor="middle" font-family="Verdana, sans-serif" font-size="40" font-weight="700" fill="#fff">Beautonomi Gift Card</text>
</svg>
